<?xml version="1.0" encoding="utf-8" standalone="no"?>
<!DOCTYPE svg PUBLIC "-//W3C//DTD SVG 1.1//EN"
  "http://www.w3.org/Graphics/SVG/1.1/DTD/svg11.dtd">
<svg xmlns:xlink="http://www.w3.org/1999/xlink" width="432pt" height="288pt" viewBox="0 0 432 288" xmlns="http://www.w3.org/2000/svg" version="1.1">
 <metadata>
  <rdf:RDF xmlns:dc="http://purl.org/dc/elements/1.1/" xmlns:cc="http://creativecommons.org/ns#" xmlns:rdf="http://www.w3.org/1999/02/22-rdf-syntax-ns#">
   <cc:Work>
    <dc:type rdf:resource="http://purl.org/dc/dcmitype/StillImage"/>
    <dc:date>2022-06-08T23:47:33.777242</dc:date>
    <dc:format>image/svg+xml</dc:format>
    <dc:creator>
     <cc:Agent>
      <dc:title>Matplotlib v3.5.2, https://matplotlib.org/</dc:title>
     </cc:Agent>
    </dc:creator>
   </cc:Work>
  </rdf:RDF>
 </metadata>
 <defs>
  <style type="text/css">*{stroke-linejoin: round; stroke-linecap: butt}</style>
 </defs>
 <g id="figure_1">
  <g id="patch_1">
   <path d="M 0 288 
L 432 288 
L 432 0 
L 0 0 
z
" style="fill: #ffffff"/>
  </g>
  <g id="axes_1">
   <g id="patch_2">
    <path d="M 10.8 239.068 
L 421.2 239.068 
L 421.2 10.8 
L 10.8 10.8 
z
" style="fill: #ffffff"/>
   </g>
   <g id="patch_3">
    <path d="M 210.339163 230.197769 
L 164.229829 230.197769 
L 164.229829 196.393645 
L 210.339163 196.393645 
L 210.339163 230.197769 
z
" clip-path="url(#p5416b7689b)" style="fill: none; stroke: #c0c0c0; stroke-linejoin: miter"/>
   </g>
   <g id="matplotlib.axis_1">
    <g id="xtick_1">
     <g id="line2d_1">
      <defs>
       <path id="mdc333d19aa" d="M 0 0 
L 0 5 
" style="stroke: #000000; stroke-width: 1.3"/>
      </defs>
      <g>
       <use xlink:href="#mdc333d19aa" x="402.304999" y="239.068" style="stroke: #000000; stroke-width: 1.3"/>
      </g>
     </g>
     <g id="text_1">
      <!-- 0 -->
      <g transform="translate(399.123749 255.166437)scale(0.1 -0.1)">
       <defs>
        <path id="DejaVuSans-30" d="M 2034 4250 
Q 1547 4250 1301 3770 
Q 1056 3291 1056 2328 
Q 1056 1369 1301 889 
Q 1547 409 2034 409 
Q 2525 409 2770 889 
Q 3016 1369 3016 2328 
Q 3016 3291 2770 3770 
Q 2525 4250 2034 4250 
z
M 2034 4750 
Q 2819 4750 3233 4129 
Q 3647 3509 3647 2328 
Q 3647 1150 3233 529 
Q 2819 -91 2034 -91 
Q 1250 -91 836 529 
Q 422 1150 422 2328 
Q 422 3509 836 4129 
Q 1250 4750 2034 4750 
z
" transform="scale(0.015625)"/>
       </defs>
       <use xlink:href="#DejaVuSans-30"/>
      </g>
     </g>
    </g>
    <g id="xtick_2">
     <g id="line2d_2">
      <g>
       <use xlink:href="#mdc333d19aa" x="340.203674" y="239.068" style="stroke: #000000; stroke-width: 1.3"/>
      </g>
     </g>
     <g id="text_2">
      <!-- 2 -->
      <g transform="translate(337.022424 255.166437)scale(0.1 -0.1)">
       <defs>
        <path id="DejaVuSans-32" d="M 1228 531 
L 3431 531 
L 3431 0 
L 469 0 
L 469 531 
Q 828 903 1448 1529 
Q 2069 2156 2228 2338 
Q 2531 2678 2651 2914 
Q 2772 3150 2772 3378 
Q 2772 3750 2511 3984 
Q 2250 4219 1831 4219 
Q 1534 4219 1204 4116 
Q 875 4013 500 3803 
L 500 4441 
Q 881 4594 1212 4672 
Q 1544 4750 1819 4750 
Q 2544 4750 2975 4387 
Q 3406 4025 3406 3419 
Q 3406 3131 3298 2873 
Q 3191 2616 2906 2266 
Q 2828 2175 2409 1742 
Q 1991 1309 1228 531 
z
" transform="scale(0.015625)"/>
       </defs>
       <use xlink:href="#DejaVuSans-32"/>
      </g>
     </g>
    </g>
    <g id="xtick_3">
     <g id="line2d_3">
      <g>
       <use xlink:href="#mdc333d19aa" x="278.102349" y="239.068" style="stroke: #000000; stroke-width: 1.3"/>
      </g>
     </g>
     <g id="text_3">
      <!-- 4 -->
      <g transform="translate(274.921099 255.166437)scale(0.1 -0.1)">
       <defs>
        <path id="DejaVuSans-34" d="M 2419 4116 
L 825 1625 
L 2419 1625 
L 2419 4116 
z
M 2253 4666 
L 3047 4666 
L 3047 1625 
L 3713 1625 
L 3713 1100 
L 3047 1100 
L 3047 0 
L 2419 0 
L 2419 1100 
L 313 1100 
L 313 1709 
L 2253 4666 
z
" transform="scale(0.015625)"/>
       </defs>
       <use xlink:href="#DejaVuSans-34"/>
      </g>
     </g>
    </g>
    <g id="xtick_4">
     <g id="line2d_4">
      <g>
       <use xlink:href="#mdc333d19aa" x="216.001025" y="239.068" style="stroke: #000000; stroke-width: 1.3"/>
      </g>
     </g>
     <g id="text_4">
      <!-- 6 -->
      <g transform="translate(212.819775 255.166437)scale(0.1 -0.1)">
       <defs>
        <path id="DejaVuSans-36" d="M 2113 2584 
Q 1688 2584 1439 2293 
Q 1191 2003 1191 1497 
Q 1191 994 1439 701 
Q 1688 409 2113 409 
Q 2538 409 2786 701 
Q 3034 994 3034 1497 
Q 3034 2003 2786 2293 
Q 2538 2584 2113 2584 
z
M 3366 4563 
L 3366 3988 
Q 3128 4100 2886 4159 
Q 2644 4219 2406 4219 
Q 1781 4219 1451 3797 
Q 1122 3375 1075 2522 
Q 1259 2794 1537 2939 
Q 1816 3084 2150 3084 
Q 2853 3084 3261 2657 
Q 3669 2231 3669 1497 
Q 3669 778 3244 343 
Q 2819 -91 2113 -91 
Q 1303 -91 875 529 
Q 447 1150 447 2328 
Q 447 3434 972 4092 
Q 1497 4750 2381 4750 
Q 2619 4750 2861 4703 
Q 3103 4656 3366 4563 
z
" transform="scale(0.015625)"/>
       </defs>
       <use xlink:href="#DejaVuSans-36"/>
      </g>
     </g>
    </g>
    <g id="xtick_5">
     <g id="line2d_5">
      <g>
       <use xlink:href="#mdc333d19aa" x="153.8997" y="239.068" style="stroke: #000000; stroke-width: 1.3"/>
      </g>
     </g>
     <g id="text_5">
      <!-- 8 -->
      <g transform="translate(150.71845 255.166437)scale(0.1 -0.1)">
       <defs>
        <path id="DejaVuSans-38" d="M 2034 2216 
Q 1584 2216 1326 1975 
Q 1069 1734 1069 1313 
Q 1069 891 1326 650 
Q 1584 409 2034 409 
Q 2484 409 2743 651 
Q 3003 894 3003 1313 
Q 3003 1734 2745 1975 
Q 2488 2216 2034 2216 
z
M 1403 2484 
Q 997 2584 770 2862 
Q 544 3141 544 3541 
Q 544 4100 942 4425 
Q 1341 4750 2034 4750 
Q 2731 4750 3128 4425 
Q 3525 4100 3525 3541 
Q 3525 3141 3298 2862 
Q 3072 2584 2669 2484 
Q 3125 2378 3379 2068 
Q 3634 1759 3634 1313 
Q 3634 634 3220 271 
Q 2806 -91 2034 -91 
Q 1263 -91 848 271 
Q 434 634 434 1313 
Q 434 1759 690 2068 
Q 947 2378 1403 2484 
z
M 1172 3481 
Q 1172 3119 1398 2916 
Q 1625 2713 2034 2713 
Q 2441 2713 2670 2916 
Q 2900 3119 2900 3481 
Q 2900 3844 2670 4047 
Q 2441 4250 2034 4250 
Q 1625 4250 1398 4047 
Q 1172 3844 1172 3481 
z
" transform="scale(0.015625)"/>
       </defs>
       <use xlink:href="#DejaVuSans-38"/>
      </g>
     </g>
    </g>
    <g id="xtick_6">
     <g id="line2d_6">
      <g>
       <use xlink:href="#mdc333d19aa" x="91.798376" y="239.068" style="stroke: #000000; stroke-width: 1.3"/>
      </g>
     </g>
     <g id="text_6">
      <!-- 10 -->
      <g transform="translate(85.435876 255.166437)scale(0.1 -0.1)">
       <defs>
        <path id="DejaVuSans-31" d="M 794 531 
L 1825 531 
L 1825 4091 
L 703 3866 
L 703 4441 
L 1819 4666 
L 2450 4666 
L 2450 531 
L 3481 531 
L 3481 0 
L 794 0 
L 794 531 
z
" transform="scale(0.015625)"/>
       </defs>
       <use xlink:href="#DejaVuSans-31"/>
       <use xlink:href="#DejaVuSans-30" x="63.623047"/>
      </g>
     </g>
    </g>
    <g id="xtick_7">
     <g id="line2d_7">
      <g>
       <use xlink:href="#mdc333d19aa" x="29.697051" y="239.068" style="stroke: #000000; stroke-width: 1.3"/>
      </g>
     </g>
     <g id="text_7">
      <!-- 12 -->
      <g transform="translate(23.334551 255.166437)scale(0.1 -0.1)">
       <use xlink:href="#DejaVuSans-31"/>
       <use xlink:href="#DejaVuSans-32" x="63.623047"/>
      </g>
     </g>
    </g>
    <g id="xtick_8">
     <g id="line2d_8">
      <defs>
       <path id="m06416b6f34" d="M 0 0 
L 0 3 
" style="stroke: #000000; stroke-width: 1.3"/>
      </defs>
      <g>
       <use xlink:href="#m06416b6f34" x="417.83033" y="239.068" style="stroke: #000000; stroke-width: 1.3"/>
      </g>
     </g>
    </g>
    <g id="xtick_9">
     <g id="line2d_9">
      <g>
       <use xlink:href="#m06416b6f34" x="386.779667" y="239.068" style="stroke: #000000; stroke-width: 1.3"/>
      </g>
     </g>
    </g>
    <g id="xtick_10">
     <g id="line2d_10">
      <g>
       <use xlink:href="#m06416b6f34" x="371.254336" y="239.068" style="stroke: #000000; stroke-width: 1.3"/>
      </g>
     </g>
    </g>
    <g id="xtick_11">
     <g id="line2d_11">
      <g>
       <use xlink:href="#m06416b6f34" x="355.729005" y="239.068" style="stroke: #000000; stroke-width: 1.3"/>
      </g>
     </g>
    </g>
    <g id="xtick_12">
     <g id="line2d_12">
      <g>
       <use xlink:href="#m06416b6f34" x="324.678343" y="239.068" style="stroke: #000000; stroke-width: 1.3"/>
      </g>
     </g>
    </g>
    <g id="xtick_13">
     <g id="line2d_13">
      <g>
       <use xlink:href="#m06416b6f34" x="309.153012" y="239.068" style="stroke: #000000; stroke-width: 1.3"/>
      </g>
     </g>
    </g>
    <g id="xtick_14">
     <g id="line2d_14">
      <g>
       <use xlink:href="#m06416b6f34" x="293.627681" y="239.068" style="stroke: #000000; stroke-width: 1.3"/>
      </g>
     </g>
    </g>
    <g id="xtick_15">
     <g id="line2d_15">
      <g>
       <use xlink:href="#m06416b6f34" x="262.577018" y="239.068" style="stroke: #000000; stroke-width: 1.3"/>
      </g>
     </g>
    </g>
    <g id="xtick_16">
     <g id="line2d_16">
      <g>
       <use xlink:href="#m06416b6f34" x="247.051687" y="239.068" style="stroke: #000000; stroke-width: 1.3"/>
      </g>
     </g>
    </g>
    <g id="xtick_17">
     <g id="line2d_17">
      <g>
       <use xlink:href="#m06416b6f34" x="231.526356" y="239.068" style="stroke: #000000; stroke-width: 1.3"/>
      </g>
     </g>
    </g>
    <g id="xtick_18">
     <g id="line2d_18">
      <g>
       <use xlink:href="#m06416b6f34" x="200.475694" y="239.068" style="stroke: #000000; stroke-width: 1.3"/>
      </g>
     </g>
    </g>
    <g id="xtick_19">
     <g id="line2d_19">
      <g>
       <use xlink:href="#m06416b6f34" x="184.950363" y="239.068" style="stroke: #000000; stroke-width: 1.3"/>
      </g>
     </g>
    </g>
    <g id="xtick_20">
     <g id="line2d_20">
      <g>
       <use xlink:href="#m06416b6f34" x="169.425031" y="239.068" style="stroke: #000000; stroke-width: 1.3"/>
      </g>
     </g>
    </g>
    <g id="xtick_21">
     <g id="line2d_21">
      <g>
       <use xlink:href="#m06416b6f34" x="138.374369" y="239.068" style="stroke: #000000; stroke-width: 1.3"/>
      </g>
     </g>
    </g>
    <g id="xtick_22">
     <g id="line2d_22">
      <g>
       <use xlink:href="#m06416b6f34" x="122.849038" y="239.068" style="stroke: #000000; stroke-width: 1.3"/>
      </g>
     </g>
    </g>
    <g id="xtick_23">
     <g id="line2d_23">
      <g>
       <use xlink:href="#m06416b6f34" x="107.323707" y="239.068" style="stroke: #000000; stroke-width: 1.3"/>
      </g>
     </g>
    </g>
    <g id="xtick_24">
     <g id="line2d_24">
      <g>
       <use xlink:href="#m06416b6f34" x="76.273045" y="239.068" style="stroke: #000000; stroke-width: 1.3"/>
      </g>
     </g>
    </g>
    <g id="xtick_25">
     <g id="line2d_25">
      <g>
       <use xlink:href="#m06416b6f34" x="60.747713" y="239.068" style="stroke: #000000; stroke-width: 1.3"/>
      </g>
     </g>
    </g>
    <g id="xtick_26">
     <g id="line2d_26">
      <g>
       <use xlink:href="#m06416b6f34" x="45.222382" y="239.068" style="stroke: #000000; stroke-width: 1.3"/>
      </g>
     </g>
    </g>
    <g id="xtick_27">
     <g id="line2d_27">
      <g>
       <use xlink:href="#m06416b6f34" x="14.17172" y="239.068" style="stroke: #000000; stroke-width: 1.3"/>
      </g>
     </g>
    </g>
    <g id="text_8">
     <!-- $\rm ^{1}H$ (ppm) -->
     <g transform="translate(193.1 270.246125)scale(0.1 -0.1)">
      <defs>
       <path id="DejaVuSans-48" d="M 628 4666 
L 1259 4666 
L 1259 2753 
L 3553 2753 
L 3553 4666 
L 4184 4666 
L 4184 0 
L 3553 0 
L 3553 2222 
L 1259 2222 
L 1259 0 
L 628 0 
L 628 4666 
z
" transform="scale(0.015625)"/>
       <path id="DejaVuSans-20" transform="scale(0.015625)"/>
       <path id="DejaVuSans-28" d="M 1984 4856 
Q 1566 4138 1362 3434 
Q 1159 2731 1159 2009 
Q 1159 1288 1364 580 
Q 1569 -128 1984 -844 
L 1484 -844 
Q 1016 -109 783 600 
Q 550 1309 550 2009 
Q 550 2706 781 3412 
Q 1013 4119 1484 4856 
L 1984 4856 
z
" transform="scale(0.015625)"/>
       <path id="DejaVuSans-70" d="M 1159 525 
L 1159 -1331 
L 581 -1331 
L 581 3500 
L 1159 3500 
L 1159 2969 
Q 1341 3281 1617 3432 
Q 1894 3584 2278 3584 
Q 2916 3584 3314 3078 
Q 3713 2572 3713 1747 
Q 3713 922 3314 415 
Q 2916 -91 2278 -91 
Q 1894 -91 1617 61 
Q 1341 213 1159 525 
z
M 3116 1747 
Q 3116 2381 2855 2742 
Q 2594 3103 2138 3103 
Q 1681 3103 1420 2742 
Q 1159 2381 1159 1747 
Q 1159 1113 1420 752 
Q 1681 391 2138 391 
Q 2594 391 2855 752 
Q 3116 1113 3116 1747 
z
" transform="scale(0.015625)"/>
       <path id="DejaVuSans-6d" d="M 3328 2828 
Q 3544 3216 3844 3400 
Q 4144 3584 4550 3584 
Q 5097 3584 5394 3201 
Q 5691 2819 5691 2113 
L 5691 0 
L 5113 0 
L 5113 2094 
Q 5113 2597 4934 2840 
Q 4756 3084 4391 3084 
Q 3944 3084 3684 2787 
Q 3425 2491 3425 1978 
L 3425 0 
L 2847 0 
L 2847 2094 
Q 2847 2600 2669 2842 
Q 2491 3084 2119 3084 
Q 1678 3084 1418 2786 
Q 1159 2488 1159 1978 
L 1159 0 
L 581 0 
L 581 3500 
L 1159 3500 
L 1159 2956 
Q 1356 3278 1631 3431 
Q 1906 3584 2284 3584 
Q 2666 3584 2933 3390 
Q 3200 3197 3328 2828 
z
" transform="scale(0.015625)"/>
       <path id="DejaVuSans-29" d="M 513 4856 
L 1013 4856 
Q 1481 4119 1714 3412 
Q 1947 2706 1947 2009 
Q 1947 1309 1714 600 
Q 1481 -109 1013 -844 
L 513 -844 
Q 928 -128 1133 580 
Q 1338 1288 1338 2009 
Q 1338 2731 1133 3434 
Q 928 4138 513 4856 
z
" transform="scale(0.015625)"/>
      </defs>
      <use xlink:href="#DejaVuSans-31" transform="translate(0.957031 38.965625)scale(0.7)"/>
      <use xlink:href="#DejaVuSans-48" transform="translate(48.227539 0.684375)"/>
      <use xlink:href="#DejaVuSans-20" transform="translate(123.422852 0.684375)"/>
      <use xlink:href="#DejaVuSans-28" transform="translate(155.209961 0.684375)"/>
      <use xlink:href="#DejaVuSans-70" transform="translate(194.223633 0.684375)"/>
      <use xlink:href="#DejaVuSans-70" transform="translate(257.700195 0.684375)"/>
      <use xlink:href="#DejaVuSans-6d" transform="translate(321.176758 0.684375)"/>
      <use xlink:href="#DejaVuSans-29" transform="translate(418.588867 0.684375)"/>
     </g>
    </g>
   </g>
   <g id="matplotlib.axis_2"/>
   <g id="line2d_28">
    <path d="M 29.454545 228.230205 
L 29.847363 228.260872 
L 30.712699 228.307469 
L 30.991656 228.33263 
L 31.412938 228.370459 
L 31.851299 228.384661 
L 32.07902 228.399716 
L 33.542121 228.469622 
L 33.758455 228.492408 
L 34.003254 228.499793 
L 34.902749 228.524487 
L 35.124776 228.526707 
L 35.295566 228.533993 
L 36.058428 228.546231 
L 36.878221 228.545165 
L 37.117327 228.554104 
L 37.515837 228.573719 
L 38.14776 228.571198 
L 38.438103 228.585263 
L 38.83092 228.557247 
L 39.092798 228.576608 
L 39.798731 228.5835 
L 40.373724 228.57421 
L 40.578672 228.576623 
L 40.834857 228.579369 
L 41.051191 228.566767 
L 41.301683 228.5984 
L 41.779896 228.577871 
L 69.100614 228.593392 
L 70.000108 228.612142 
L 70.176591 228.596945 
L 73.689174 228.614931 
L 73.922587 228.605746 
L 74.588668 228.60412 
L 75.106731 228.599284 
L 75.317372 228.589597 
L 75.556478 228.601469 
L 76.205481 228.600077 
L 76.421815 228.608807 
L 76.62107 228.607138 
L 76.956957 228.60768 
L 78.169567 228.593017 
L 78.357436 228.598311 
L 78.522533 228.598655 
L 79.017824 228.61997 
L 79.148763 228.588294 
L 79.171535 228.612334 
L 80.611865 228.600704 
L 80.794041 228.594975 
L 83.008619 228.612731 
L 83.281883 228.592032 
L 83.464059 228.603482 
L 85.149187 228.59987 
L 85.621707 228.597808 
L 85.85512 228.598795 
L 86.59521 228.594122 
L 86.805851 228.59457 
L 87.255598 228.587313 
L 90.033783 228.587787 
L 90.250118 228.590909 
L 90.449373 228.60381 
L 90.756795 228.601847 
L 100.229951 228.566483 
L 100.423513 228.553239 
L 100.913111 228.550188 
L 101.140831 228.530637 
L 102.535617 228.467855 
L 102.740565 228.481041 
L 104.425693 228.048334 
L 105.34796 226.607989 
L 105.820479 225.49775 
L 105.928646 225.557612 
L 106.247454 226.349127 
L 106.60042 227.239859 
L 106.964772 227.774724 
L 108.308321 228.358584 
L 108.889007 228.437123 
L 109.202122 228.456011 
L 109.361526 228.488467 
L 109.737265 228.509776 
L 111.524867 228.571877 
L 111.684271 228.568363 
L 111.883526 228.565711 
L 112.077089 228.575299 
L 113.010741 228.578702 
L 115.373337 228.599388 
L 115.629522 228.593016 
L 116.016646 228.6004 
L 116.215901 228.605001 
L 116.358226 228.605549 
L 116.773816 228.593345 
L 117.240642 228.604277 
L 117.434204 228.583451 
L 119.660168 228.583108 
L 119.950511 228.584065 
L 120.747531 228.559167 
L 121.151734 228.58875 
L 122.14801 228.596506 
L 122.313107 228.593027 
L 122.648994 228.592961 
L 125.996479 228.607999 
L 126.651175 228.598556 
L 126.856123 228.595269 
L 127.100922 228.594061 
L 128.023188 228.600378 
L 128.564023 228.589549 
L 128.837288 228.605733 
L 131.820421 228.590634 
L 132.031062 228.587935 
L 132.298633 228.601844 
L 132.549125 228.602823 
L 132.839468 228.602925 
L 132.981793 228.615605 
L 133.995148 228.598675 
L 134.274105 228.604549 
L 134.433509 228.604011 
L 134.649843 228.601306 
L 135.036967 228.603379 
L 135.15652 228.598874 
L 135.167906 228.587957 
L 135.350082 228.596246 
L 136.534227 228.594392 
L 136.841649 228.586007 
L 137.086448 228.609119 
L 137.319861 228.610169 
L 137.502037 228.594084 
L 140.172055 228.603845 
L 140.616109 228.606155 
L 142.005202 228.606765 
L 142.238615 228.608177 
L 142.454949 228.595865 
L 143.741568 228.593063 
L 143.963595 228.589115 
L 144.214087 228.606694 
L 144.555667 228.620394 
L 144.709378 228.599566 
L 147.738055 228.59859 
L 147.971468 228.588306 
L 148.142258 228.610825 
L 148.324435 228.610052 
L 149.519965 228.613737 
L 149.696448 228.603617 
L 149.901396 228.604169 
L 150.237283 228.599635 
L 150.425152 228.604794 
L 150.8749 228.600733 
L 151.034304 228.610468 
L 168.711076 228.407539 
L 168.893252 228.255281 
L 169.081121 227.901419 
L 169.206367 227.087917 
L 169.291762 225.510114 
L 169.348692 216.023257 
L 169.388543 205.782364 
L 169.43978 220.923231 
L 169.576412 227.276718 
L 169.730123 227.768829 
L 169.741509 227.763807 
L 169.95215 227.443437 
L 170.037546 226.773451 
L 170.122941 224.499146 
L 170.179871 211.645457 
L 170.208336 204.362527 
L 170.265266 221.563808 
L 170.401898 227.497914 
L 170.555609 228.034853 
L 170.868724 228.378691 
L 170.885803 228.349832 
L 171.016742 228.326994 
L 171.193225 228.389438 
L 171.250155 228.516973 
L 171.318471 228.416673 
L 171.460796 228.44122 
L 171.631586 228.480845 
L 172.479844 228.504066 
L 173.407803 228.503779 
L 173.447654 228.481169 
L 173.493198 228.545559 
L 173.510277 228.544229 
L 173.920173 228.573449 
L 174.301604 228.51064 
L 174.443929 228.57745 
L 175.178327 228.604462 
L 175.24095 228.549941 
L 175.252336 228.52475 
L 175.394661 228.483148 
L 175.58253 228.473441 
L 175.650846 228.3545 
L 176.134751 226.357987 
L 176.225839 224.039012 
L 176.288462 213.663562 
L 176.328313 203.535499 
L 176.425094 203.723619 
L 176.430787 203.734659 
L 176.755288 227.783613 
L 177.057017 228.240427 
L 177.079789 228.251847 
L 177.136719 228.163447 
L 177.273352 228.205961 
L 177.347361 228.359427 
L 177.495379 228.387525 
L 177.518151 228.361439 
L 177.666169 228.396425 
L 178.907243 228.510752 
L 179.038182 228.525596 
L 179.231744 228.538258 
L 179.607482 228.576783 
L 179.801045 228.553922 
L 180.922566 228.58488 
L 181.104742 228.562248 
L 181.400778 228.473468 
L 181.59434 228.197645 
L 181.799288 227.818101 
L 181.975771 226.276881 
L 182.032701 222.501496 
L 182.078245 215.228982 
L 182.18072 215.813913 
L 182.231957 223.560805 
L 182.317352 226.24017 
L 182.362896 226.13219 
L 182.425519 224.532692 
L 182.505221 214.256408 
L 182.624774 217.648569 
L 182.778485 227.503302 
L 182.949275 228.00955 
L 183.404715 228.289444 
L 183.672286 228.187572 
L 183.695058 228.250546 
L 183.865848 228.438437 
L 186.234137 228.548205 
L 186.518787 228.571089 
L 186.666805 228.541872 
L 186.843288 228.548334 
L 187.002693 228.587146 
L 187.293036 228.571207 
L 187.463826 228.563543 
L 188.033126 228.596463 
L 188.181144 228.60652 
L 188.676435 228.584714 
L 188.830146 228.5946 
L 189.359595 228.517517 
L 189.513307 228.593497 
L 189.615781 228.474238 
L 189.729641 228.435698 
L 189.695483 228.507512 
L 189.735334 228.43848 
L 189.934589 228.596024 
L 190.054142 228.592581 
L 190.065528 228.618133 
L 190.076914 228.623849 
L 190.122458 228.529679 
L 190.14523 228.462376 
L 190.219239 228.598426 
L 190.395722 228.577234 
L 190.60067 228.152534 
L 190.697451 228.25331 
L 190.708837 228.271693 
L 190.737302 228.104037 
L 190.965022 227.20826 
L 191.118733 224.552061 
L 191.16997 213.5283 
L 191.204128 198.46377 
L 191.261058 222.901935 
L 191.369225 226.450813 
L 191.39769 226.341712 
L 191.460313 226.430934 
L 191.483085 226.295065 
L 191.517243 225.658732 
L 191.574173 219.92633 
L 191.62541 200.028348 
L 191.670954 222.225139 
L 191.801894 227.488841 
L 191.807587 227.483158 
L 191.818973 227.447928 
L 191.847438 227.685977 
L 191.87021 227.673287 
L 192.029614 228.100203 
L 192.052386 228.041764 
L 192.080851 228.157723 
L 192.149167 228.11356 
L 192.257334 228.439334 
L 192.297185 228.335762 
L 192.371194 228.219964 
L 192.428124 228.288104 
L 192.530598 228.330522 
L 192.462282 228.266994 
L 192.547677 228.306321 
L 192.598914 228.322948 
L 192.615993 228.395155 
L 192.66723 228.495184 
L 192.72416 228.40717 
L 192.786783 228.354793 
L 192.83802 228.406184 
L 192.997424 228.456147 
L 193.094205 228.155707 
L 193.145442 228.409423 
L 193.46425 228.442335 
L 193.475636 228.387737 
L 193.509794 228.246091 
L 193.561031 228.470022 
L 193.566724 228.470305 
L 193.913997 228.529873 
L 194.03355 228.545833 
L 194.181568 228.54999 
L 194.409289 228.566031 
L 194.688246 228.593211 
L 194.84765 228.585465 
L 195.155072 228.562346 
L 200.324318 228.497867 
L 200.398327 228.583401 
L 200.819609 228.600572 
L 200.97332 228.583405 
L 200.979013 228.590099 
L 201.08718 228.579413 
L 201.092873 228.570908 
L 201.155496 228.467649 
L 201.206733 228.572832 
L 201.320593 228.602008 
L 201.331979 228.586019 
L 201.479998 228.591092 
L 201.645095 228.594755 
L 201.650788 228.586152 
L 201.798806 228.599251 
L 202.009447 228.606968 
L 202.01514 228.594788 
L 202.123307 228.593786 
L 202.054991 228.624208 
L 202.129 228.601652 
L 202.237167 228.599668 
L 202.24286 228.593331 
L 202.351027 228.590494 
L 202.35672 228.597444 
L 202.47058 228.624017 
L 202.481966 228.608726 
L 202.681221 228.597819 
L 202.840625 228.593702 
L 202.846318 228.584972 
L 203.045573 228.544174 
L 203.056959 228.569552 
L 203.199284 228.620877 
L 203.21067 228.592038 
L 203.318837 228.568467 
L 203.290372 228.661218 
L 203.32453 228.575686 
L 203.335916 228.587396 
L 203.364381 228.462268 
L 203.392846 228.494086 
L 203.404232 228.468002 
L 203.461162 228.626054 
L 203.472548 228.660184 
L 203.546557 228.516009 
L 203.614873 228.598253 
L 203.66611 228.539258 
L 203.819821 228.248721 
L 203.705961 228.555939 
L 203.825514 228.253209 
L 203.842593 228.323839 
L 203.871058 228.218367 
L 203.939375 228.265346 
L 204.098779 227.891601 
L 204.115858 227.980594 
L 204.144323 227.748046 
L 204.167095 227.762729 
L 204.354964 223.918759 
L 204.428973 197.930196 
L 204.474517 221.990483 
L 204.611149 227.436397 
L 204.616842 227.419929 
L 204.622535 227.397287 
L 204.656693 227.609575 
L 204.679465 227.567799 
L 204.793325 227.787122 
L 204.810404 227.735656 
L 204.838869 227.762364 
L 205.083668 227.000757 
L 205.186142 222.538401 
L 205.248765 199.356236 
L 205.294309 221.715967 
L 205.430941 227.699619 
L 205.44802 227.649961 
L 205.459406 227.786582 
L 205.567573 228.048004 
L 205.578959 227.982427 
L 205.584652 227.957995 
L 205.647275 228.160217 
L 205.704205 228.25781 
L 205.681433 228.133428 
L 205.761135 228.193423 
L 205.766828 228.176684 
L 205.795293 228.320788 
L 205.829451 228.32441 
L 205.886381 228.405999 
L 205.943311 228.335895 
L 206.000241 228.297472 
L 206.023013 228.375209 
L 206.057171 228.328191 
L 206.159645 228.402807 
L 206.091329 228.298043 
L 206.176724 228.355057 
L 206.18811 228.339195 
L 206.24504 228.451786 
L 206.30197 228.543382 
L 206.353208 228.434235 
L 206.370287 228.383857 
L 206.438603 228.465646 
L 206.461375 228.433752 
L 206.575235 228.489694 
L 206.592314 228.461769 
L 206.842806 228.528067 
L 206.94528 228.524216 
L 206.876964 228.495763 
L 206.950973 228.514622 
L 207.05914 228.510633 
L 207.064833 228.517452 
L 207.173 228.548358 
L 207.184386 228.536289 
L 207.292553 228.533065 
L 207.298246 228.541363 
L 207.451957 228.578595 
L 207.617054 228.557542 
L 207.622747 228.567997 
L 207.725221 228.55982 
L 207.736607 228.549127 
L 207.907397 228.573053 
L 208.334372 228.580742 
L 208.465311 228.588989 
L 208.658873 228.480816 
L 208.670259 228.505187 
L 208.78412 228.582517 
L 208.801199 228.57071 
L 209.63807 228.584094 
L 209.791781 228.603631 
L 210.013808 228.609737 
L 210.258607 228.60874 
L 210.406625 228.606825 
L 210.782363 228.59252 
L 211.038548 228.613833 
L 211.19226 228.59711 
L 211.391515 228.624753 
L 211.59077 228.610898 
L 211.755867 228.608936 
L 212.097447 228.61188 
L 212.308088 228.609123 
L 212.507343 228.619949 
L 212.700905 228.609153 
L 213.173424 228.609058 
L 213.571934 228.609224 
L 213.765497 228.613753 
L 213.924901 228.617719 
L 214.425885 228.611714 
L 214.613754 228.603705 
L 214.881325 228.608304 
L 215.154589 228.61567 
L 215.962995 228.608942 
L 216.321655 228.605276 
L 217.107289 228.602088 
L 217.648124 228.59827 
L 218.291433 228.610292 
L 218.58747 228.60416 
L 219.179542 228.60445 
L 220.033492 228.613572 
L 220.380765 228.606196 
L 220.591406 228.610162 
L 223.927506 228.616669 
L 224.269086 228.595806 
L 225.140115 228.613253 
L 225.33937 228.597855 
L 227.06435 228.455781 
L 227.132666 228.42803 
L 227.155438 228.51167 
L 227.257912 228.598758 
L 227.286377 228.591739 
L 227.565334 228.602386 
L 228.083397 228.563936 
L 228.225723 228.591526 
L 228.493294 228.594348 
L 228.709628 228.613803 
L 228.908883 228.598937 
L 229.034129 228.617859 
L 230.047483 228.602222 
L 230.246738 228.605856 
L 230.57124 228.612128 
L 230.810346 228.612361 
L 231.248707 228.610755 
L 231.573208 228.617611 
L 232.170973 228.604881 
L 232.523939 228.621877 
L 232.73458 228.603315 
L 233.064775 228.608431 
L 233.821944 228.608273 
L 234.408323 228.600399 
L 234.579113 228.605847 
L 234.840991 228.605684 
L 235.193957 228.612361 
L 235.546924 228.606436 
L 235.717714 228.599608 
L 235.854346 228.607974 
L 236.577357 228.619406 
L 236.850621 228.622794 
L 237.101113 228.598692 
L 244.712657 228.589911 
L 244.88914 228.441855 
L 244.923298 228.541712 
L 245.071317 228.597131 
L 245.458441 228.457911 
L 245.486906 228.543661 
L 245.663389 228.601303 
L 246.733673 228.609321 
L 249.090576 228.59177 
L 249.36384 228.609628 
L 249.785122 228.594154 
L 250.491055 228.604033 
L 250.621994 228.592327 
L 250.838328 228.610686 
L 259.298129 228.612196 
L 259.844658 228.59837 
L 260.03822 228.603263 
L 260.317177 228.597638 
L 260.499353 228.601631 
L 260.83524 228.601569 
L 261.381768 228.593707 
L 261.740427 228.598576 
L 261.956761 228.589466 
L 263.055511 228.592622 
L 263.408477 228.600603 
L 265.218852 228.586961 
L 265.600283 228.581141 
L 268.680197 228.604196 
L 268.828215 228.589661 
L 271.970753 228.586321 
L 272.158622 228.576753 
L 272.386342 228.586562 
L 272.631141 228.569597 
L 272.790545 228.580376 
L 280.037737 228.430437 
L 280.106053 227.945803 
L 280.128825 227.788445 
L 280.180062 228.359925 
L 280.316694 228.53045 
L 280.339466 228.512621 
L 280.49887 228.540679 
L 280.504563 228.534809 
L 280.61273 228.534506 
L 280.624116 228.550381 
L 280.72659 228.559213 
L 280.658274 228.525439 
L 280.743669 228.534232 
L 280.891687 228.535116 
L 280.89738 228.544366 
L 281.005547 228.550907 
L 280.931538 228.521789 
L 281.016933 228.53829 
L 281.119407 228.519623 
L 281.130793 228.544844 
L 281.233267 228.58224 
L 281.244653 228.560327 
L 281.318662 228.611879 
L 281.386979 228.503526 
L 281.460988 228.562709 
L 281.489453 228.539587 
L 281.506532 228.569401 
L 281.563462 228.469211 
L 281.580541 228.409368 
L 281.671629 228.483415 
L 281.734252 228.540525 
L 281.791182 228.508854 
L 281.950586 228.501578 
L 281.82534 228.604204 
L 281.961972 228.526017 
L 282.10999 228.563845 
L 282.121376 228.522002 
L 282.218157 228.495015 
L 282.149841 228.538708 
L 282.229543 228.525313 
L 282.240929 228.561371 
L 282.269394 228.463676 
L 282.33771 228.518983 
L 282.445877 228.472895 
L 282.383254 228.543948 
L 282.457263 228.506087 
L 282.474342 228.552678 
L 282.497114 228.458204 
L 282.571123 228.513625 
L 282.582509 228.512031 
L 282.599588 228.612354 
L 282.610974 228.671821 
L 282.67929 228.434556 
L 282.73622 227.83738 
L 282.79315 228.303312 
L 282.833001 228.692182 
L 282.895624 228.320693 
L 282.941168 228.41955 
L 283.02087 228.135972 
L 283.140423 226.981611 
L 283.53324 223.409147 
L 283.681258 212.166291 
L 283.743881 168.302742 
L 283.789425 65.469905 
L 283.840663 191.208984 
L 283.982988 222.977828 
L 284.341647 227.010749 
L 284.353033 226.977952 
L 284.375805 227.223989 
L 284.427042 227.479294 
L 284.472586 227.201508 
L 284.592139 225.485781 
L 284.63199 226.587737 
L 284.694613 227.315391 
L 284.762929 227.304831 
L 284.836938 228.236092 
L 284.899561 227.587236 
L 284.950798 227.518603 
L 284.996342 227.694632 
L 285.161439 227.969777 
L 285.275299 227.953697 
L 285.280992 227.971036 
L 285.389159 228.082088 
L 285.406238 228.047732 
L 285.503019 227.999154 
L 285.434703 228.071973 
L 285.520098 228.045968 
L 285.662423 228.17211 
L 285.742125 228.090697 
L 285.787669 228.219711 
L 285.804748 228.268697 
L 285.867371 228.186414 
L 285.901529 228.234085 
L 285.912915 228.21971 
L 285.94138 228.307221 
L 285.969845 228.320545 
L 285.986924 228.362469 
L 286.05524 228.238037 
L 286.060933 228.240738 
L 286.214644 228.306455 
L 286.220338 228.301602 
L 286.282961 228.215478 
L 286.339891 228.274803 
L 286.448058 228.322093 
L 286.374049 228.257649 
L 286.47083 228.297611 
L 286.630234 228.345569 
L 286.647313 228.312664 
L 286.931963 228.309896 
L 287.04013 228.38523 
L 287.062902 228.357751 
L 287.506956 228.310121 
L 287.592351 227.700325 
L 287.603737 227.64028 
L 287.643588 228.095182 
L 287.78022 228.376129 
L 287.945317 228.390401 
L 287.95101 228.400468 
L 288.093335 228.424902 
L 288.247046 228.411298 
L 288.252739 228.40205 
L 288.400757 228.391642 
L 288.554468 228.425575 
L 288.804961 228.396466 
L 288.99283 228.382595 
L 289.214857 228.401267 
L 289.368568 228.402986 
L 289.499507 228.396196 
L 289.761385 228.384971 
L 289.909403 228.367639 
L 292.807141 228.123133 
L 292.955159 228.08036 
L 292.966545 228.091152 
L 293.10887 228.047497 
L 293.376441 227.974012 
L 293.530153 227.948988 
L 293.700943 227.885098 
L 294.310094 227.622558 
L 294.515042 227.516313 
L 294.617516 227.455037 
L 295.386071 226.699004 
L 295.653642 226.071954 
L 296.017995 225.117792 
L 296.365268 223.321149 
L 296.666997 220.215145 
L 296.906103 215.142078 
L 297.116744 206.431413 
L 297.35585 185.635883 
L 297.566491 146.521895 
L 297.782825 55.590888 
L 297.896685 21.175818 
L 297.942229 28.430853 
L 298.596925 199.594912 
L 298.927119 212.155373 
L 299.268699 217.978883 
L 299.689981 221.828687 
L 300.122649 224.147996 
L 300.469922 225.125134 
L 301.43204 226.897576 
L 302.308762 227.617949 
L 302.502324 227.715445 
L 302.712965 227.802412 
L 306.117381 228.402776 
L 306.288171 228.418878 
L 307.95622 228.485753 
L 308.098546 228.487814 
L 308.48567 228.508309 
L 308.650767 228.50266 
L 308.798785 228.516962 
L 309.305462 228.533218 
L 309.464866 228.536736 
L 309.732437 228.535844 
L 310.347281 228.537218 
L 310.643318 228.539908 
L 310.853959 228.539513 
L 311.00767 228.546963 
L 311.184153 228.55894 
L 312.174735 228.555964 
L 313.279178 228.555493 
L 313.501205 228.569244 
L 313.734618 228.571217 
L 314.093277 228.566251 
L 314.246988 228.573147 
L 314.252681 228.566697 
L 314.389313 228.576842 
L 314.765051 228.587879 
L 315.078166 228.583715 
L 315.220491 228.57813 
L 315.704397 228.596534 
L 316.074442 228.599643 
L 316.313548 228.588655 
L 317.047945 228.582956 
L 317.178884 228.592982 
L 317.89051 228.595066 
L 318.51674 228.59646 
L 318.659065 228.59524 
L 319.046189 228.60127 
L 319.160049 228.605569 
L 319.177128 228.589681 
L 320.919187 228.404472 
L 320.947652 228.365976 
L 320.993196 228.465436 
L 321.027354 228.422249 
L 321.050126 228.423678 
L 321.078591 228.51765 
L 321.226609 228.598525 
L 321.243688 228.577648 
L 321.625119 228.599424 
L 321.773137 228.633905 
L 322.268428 228.59111 
L 322.302586 228.557689 
L 322.416446 228.589338 
L 322.894659 228.583425 
L 322.99144 228.585284 
L 323.008519 228.617514 
L 323.036984 228.585473 
L 323.150844 228.608056 
L 323.401336 228.471259 
L 323.412722 228.497944 
L 323.469652 228.543282 
L 323.520889 228.512282 
L 323.856776 227.23639 
L 324.158505 223.409518 
L 324.30083 204.922362 
L 324.426076 183.484552 
L 324.443155 190.568277 
L 324.58548 213.943532 
L 324.613945 212.843726 
L 324.631024 215.19548 
L 324.784735 226.685637 
L 325.018149 227.604147 
L 325.023842 227.595677 
L 325.035228 227.579288 
L 325.063693 227.708156 
L 325.092158 227.694809 
L 325.200325 227.779182 
L 325.126316 227.665972 
L 325.211711 227.747952 
L 325.217404 227.735746 
L 325.245869 227.817584 
L 325.280027 227.833453 
L 325.433738 228.031594 
L 325.439431 228.026798 
L 325.473589 228.079105 
L 325.541905 228.073823 
L 325.707002 228.154438 
L 325.820862 228.170176 
L 325.980266 228.259958 
L 326.236451 228.345451 
L 326.412934 228.374338 
L 326.7659 228.455338 
L 326.913918 228.435237 
L 327.113173 228.468706 
L 327.40921 228.495406 
L 327.619851 228.509462 
L 327.779255 228.510606 
L 327.938659 228.358481 
L 327.984203 228.401045 
L 328.172072 228.478459 
L 328.331476 228.55919 
L 328.342862 228.551847 
L 328.667363 228.567356 
L 328.815381 228.57501 
L 329.054487 228.576265 
L 329.242356 228.586445 
L 329.390374 228.574941 
L 329.783191 228.590963 
L 330.352492 228.596579 
L 330.528975 228.594665 
L 330.72823 228.589873 
L 331.29753 228.596741 
L 331.593566 228.597057 
L 332.123015 228.599293 
L 332.271034 228.605688 
L 332.646772 228.613503 
L 338.117747 228.593742 
L 338.52195 228.613308 
L 339.495454 228.602323 
L 339.928122 228.600745 
L 340.275395 228.611519 
L 340.423413 228.615367 
L 340.753607 228.612873 
L 341.516469 228.609462 
L 341.960524 228.604548 
L 342.216709 228.606929 
L 342.387499 228.621205 
L 342.848632 228.561219 
L 342.865711 228.548979 
L 342.899869 228.606193 
L 342.93972 228.614882 
L 343.173133 228.610181 
L 343.611494 228.609325 
L 343.816442 228.611579 
L 347.562438 228.618385 
L 347.761693 228.607406 
L 347.92679 228.61217 
L 348.171589 228.605172 
L 349.509445 228.599571 
L 351.541846 228.612384 
L 351.815111 228.60961 
L 352.543815 228.616584 
L 353.705187 228.611689 
L 355.339079 228.609994 
L 355.828677 228.606586 
L 359.921946 228.623127 
L 360.092736 228.601954 
L 360.428623 228.617576 
L 360.633571 228.603142 
L 360.810054 228.618986 
L 361.35089 228.606862 
L 361.57861 228.609487 
L 362.03405 228.603331 
L 362.643201 228.600244 
L 362.808298 228.607661 
L 367.482253 228.614258 
L 367.98893 228.603208 
L 368.296352 228.613301 
L 368.626547 228.605258 
L 368.820109 228.598379 
L 369.173075 228.598903 
L 369.417874 228.604234 
L 369.907472 228.600351 
L 370.180736 228.614366 
L 370.379991 228.59877 
L 370.579246 228.606573 
L 370.903747 228.600581 
L 371.182705 228.606781 
L 371.347802 228.607532 
L 375.253201 228.585231 
L 375.429684 228.599101 
L 382.471928 228.621252 
L 382.614253 228.611504 
L 382.955833 228.592457 
L 383.257563 228.598334 
L 383.701617 228.603837 
L 383.866714 228.602322 
L 385.369666 228.596806 
L 385.580308 228.605189 
L 385.756791 228.593995 
L 386.206538 228.592605 
L 386.656285 228.590155 
L 386.975093 228.596173 
L 387.322366 228.597861 
L 387.476077 228.604257 
L 388.187703 228.595795 
L 388.404037 228.600717 
L 388.677301 228.591305 
L 388.899328 228.610963 
L 395.74801 228.588207 
L 395.907414 228.603893 
L 396.812601 228.587462 
L 397.370515 228.581044 
L 398.827924 228.587055 
L 399.106881 228.601447 
L 399.670488 228.600275 
L 401.207599 228.589829 
L 401.5321 228.595855 
L 401.862294 228.593186 
L 402.226646 228.592289 
L 402.545455 228.587646 
L 402.545455 228.587646 
" clip-path="url(#p5416b7689b)" style="fill: none; stroke: #4c72b0; stroke-linecap: square"/>
   </g>
   <g id="patch_4">
    <path d="M 10.8 239.068 
L 421.2 239.068 
" style="fill: none; stroke: #000000; stroke-width: 1.3; stroke-linejoin: miter; stroke-linecap: square"/>
   </g>
   <g id="axes_2">
    <g id="patch_5">
     <path d="M 31.32 147.7608 
L 257.04 147.7608 
L 257.04 56.4536 
L 31.32 56.4536 
z
" style="fill: #ffffff"/>
    </g>
    <g id="patch_6">
     <path d="M 31.32 147.7608 
L 164.229829 230.197769 
" style="fill: none; stroke: #c0c0c0; stroke-linejoin: miter"/>
    </g>
    <g id="patch_7">
     <path d="M 257.04 147.7608 
L 210.339163 230.197769 
" style="fill: none; stroke: #c0c0c0; stroke-linejoin: miter"/>
    </g>
    <g id="matplotlib.axis_3">
     <g id="xtick_28">
      <g id="line2d_29">
       <g>
        <use xlink:href="#mdc333d19aa" x="246.75589" y="147.7608" style="stroke: #000000; stroke-width: 1.3"/>
       </g>
      </g>
      <g id="text_9">
       <!-- 6.25 -->
       <g transform="translate(235.623078 163.859238)scale(0.1 -0.1)">
        <defs>
         <path id="DejaVuSans-2e" d="M 684 794 
L 1344 794 
L 1344 0 
L 684 0 
L 684 794 
z
" transform="scale(0.015625)"/>
         <path id="DejaVuSans-35" d="M 691 4666 
L 3169 4666 
L 3169 4134 
L 1269 4134 
L 1269 2991 
Q 1406 3038 1543 3061 
Q 1681 3084 1819 3084 
Q 2600 3084 3056 2656 
Q 3513 2228 3513 1497 
Q 3513 744 3044 326 
Q 2575 -91 1722 -91 
Q 1428 -91 1123 -41 
Q 819 9 494 109 
L 494 744 
Q 775 591 1075 516 
Q 1375 441 1709 441 
Q 2250 441 2565 725 
Q 2881 1009 2881 1497 
Q 2881 1984 2565 2268 
Q 2250 2553 1709 2553 
Q 1456 2553 1204 2497 
Q 953 2441 691 2322 
L 691 4666 
z
" transform="scale(0.015625)"/>
        </defs>
        <use xlink:href="#DejaVuSans-36"/>
        <use xlink:href="#DejaVuSans-2e" x="63.623047"/>
        <use xlink:href="#DejaVuSans-32" x="95.410156"/>
        <use xlink:href="#DejaVuSans-35" x="159.033203"/>
       </g>
      </g>
     </g>
     <g id="xtick_29">
      <g id="line2d_30">
       <g>
        <use xlink:href="#mdc333d19aa" x="208.755149" y="147.7608" style="stroke: #000000; stroke-width: 1.3"/>
       </g>
      </g>
      <g id="text_10">
       <!-- 6.50 -->
       <g transform="translate(197.622337 163.859238)scale(0.1 -0.1)">
        <use xlink:href="#DejaVuSans-36"/>
        <use xlink:href="#DejaVuSans-2e" x="63.623047"/>
        <use xlink:href="#DejaVuSans-35" x="95.410156"/>
        <use xlink:href="#DejaVuSans-30" x="159.033203"/>
       </g>
      </g>
     </g>
     <g id="xtick_30">
      <g id="line2d_31">
       <g>
        <use xlink:href="#mdc333d19aa" x="170.754408" y="147.7608" style="stroke: #000000; stroke-width: 1.3"/>
       </g>
      </g>
      <g id="text_11">
       <!-- 6.75 -->
       <g transform="translate(159.621595 163.859238)scale(0.1 -0.1)">
        <defs>
         <path id="DejaVuSans-37" d="M 525 4666 
L 3525 4666 
L 3525 4397 
L 1831 0 
L 1172 0 
L 2766 4134 
L 525 4134 
L 525 4666 
z
" transform="scale(0.015625)"/>
        </defs>
        <use xlink:href="#DejaVuSans-36"/>
        <use xlink:href="#DejaVuSans-2e" x="63.623047"/>
        <use xlink:href="#DejaVuSans-37" x="95.410156"/>
        <use xlink:href="#DejaVuSans-35" x="159.033203"/>
       </g>
      </g>
     </g>
     <g id="xtick_31">
      <g id="line2d_32">
       <g>
        <use xlink:href="#mdc333d19aa" x="132.753666" y="147.7608" style="stroke: #000000; stroke-width: 1.3"/>
       </g>
      </g>
      <g id="text_12">
       <!-- 7.00 -->
       <g transform="translate(121.620854 163.859238)scale(0.1 -0.1)">
        <use xlink:href="#DejaVuSans-37"/>
        <use xlink:href="#DejaVuSans-2e" x="63.623047"/>
        <use xlink:href="#DejaVuSans-30" x="95.410156"/>
        <use xlink:href="#DejaVuSans-30" x="159.033203"/>
       </g>
      </g>
     </g>
     <g id="xtick_32">
      <g id="line2d_33">
       <g>
        <use xlink:href="#mdc333d19aa" x="94.752925" y="147.7608" style="stroke: #000000; stroke-width: 1.3"/>
       </g>
      </g>
      <g id="text_13">
       <!-- 7.25 -->
       <g transform="translate(83.620113 163.859238)scale(0.1 -0.1)">
        <use xlink:href="#DejaVuSans-37"/>
        <use xlink:href="#DejaVuSans-2e" x="63.623047"/>
        <use xlink:href="#DejaVuSans-32" x="95.410156"/>
        <use xlink:href="#DejaVuSans-35" x="159.033203"/>
       </g>
      </g>
     </g>
     <g id="xtick_33">
      <g id="line2d_34">
       <g>
        <use xlink:href="#mdc333d19aa" x="56.752184" y="147.7608" style="stroke: #000000; stroke-width: 1.3"/>
       </g>
      </g>
      <g id="text_14">
       <!-- 7.50 -->
       <g transform="translate(45.619371 163.859238)scale(0.1 -0.1)">
        <use xlink:href="#DejaVuSans-37"/>
        <use xlink:href="#DejaVuSans-2e" x="63.623047"/>
        <use xlink:href="#DejaVuSans-35" x="95.410156"/>
        <use xlink:href="#DejaVuSans-30" x="159.033203"/>
       </g>
      </g>
     </g>
     <g id="xtick_34">
      <g id="line2d_35">
       <g>
        <use xlink:href="#m06416b6f34" x="254.356039" y="147.7608" style="stroke: #000000; stroke-width: 1.3"/>
       </g>
      </g>
     </g>
     <g id="xtick_35">
      <g id="line2d_36">
       <g>
        <use xlink:href="#m06416b6f34" x="239.155742" y="147.7608" style="stroke: #000000; stroke-width: 1.3"/>
       </g>
      </g>
     </g>
     <g id="xtick_36">
      <g id="line2d_37">
       <g>
        <use xlink:href="#m06416b6f34" x="231.555594" y="147.7608" style="stroke: #000000; stroke-width: 1.3"/>
       </g>
      </g>
     </g>
     <g id="xtick_37">
      <g id="line2d_38">
       <g>
        <use xlink:href="#m06416b6f34" x="223.955446" y="147.7608" style="stroke: #000000; stroke-width: 1.3"/>
       </g>
      </g>
     </g>
     <g id="xtick_38">
      <g id="line2d_39">
       <g>
        <use xlink:href="#m06416b6f34" x="216.355297" y="147.7608" style="stroke: #000000; stroke-width: 1.3"/>
       </g>
      </g>
     </g>
     <g id="xtick_39">
      <g id="line2d_40">
       <g>
        <use xlink:href="#m06416b6f34" x="201.155001" y="147.7608" style="stroke: #000000; stroke-width: 1.3"/>
       </g>
      </g>
     </g>
     <g id="xtick_40">
      <g id="line2d_41">
       <g>
        <use xlink:href="#m06416b6f34" x="193.554853" y="147.7608" style="stroke: #000000; stroke-width: 1.3"/>
       </g>
      </g>
     </g>
     <g id="xtick_41">
      <g id="line2d_42">
       <g>
        <use xlink:href="#m06416b6f34" x="185.954704" y="147.7608" style="stroke: #000000; stroke-width: 1.3"/>
       </g>
      </g>
     </g>
     <g id="xtick_42">
      <g id="line2d_43">
       <g>
        <use xlink:href="#m06416b6f34" x="178.354556" y="147.7608" style="stroke: #000000; stroke-width: 1.3"/>
       </g>
      </g>
     </g>
     <g id="xtick_43">
      <g id="line2d_44">
       <g>
        <use xlink:href="#m06416b6f34" x="163.15426" y="147.7608" style="stroke: #000000; stroke-width: 1.3"/>
       </g>
      </g>
     </g>
     <g id="xtick_44">
      <g id="line2d_45">
       <g>
        <use xlink:href="#m06416b6f34" x="155.554111" y="147.7608" style="stroke: #000000; stroke-width: 1.3"/>
       </g>
      </g>
     </g>
     <g id="xtick_45">
      <g id="line2d_46">
       <g>
        <use xlink:href="#m06416b6f34" x="147.953963" y="147.7608" style="stroke: #000000; stroke-width: 1.3"/>
       </g>
      </g>
     </g>
     <g id="xtick_46">
      <g id="line2d_47">
       <g>
        <use xlink:href="#m06416b6f34" x="140.353815" y="147.7608" style="stroke: #000000; stroke-width: 1.3"/>
       </g>
      </g>
     </g>
     <g id="xtick_47">
      <g id="line2d_48">
       <g>
        <use xlink:href="#m06416b6f34" x="125.153518" y="147.7608" style="stroke: #000000; stroke-width: 1.3"/>
       </g>
      </g>
     </g>
     <g id="xtick_48">
      <g id="line2d_49">
       <g>
        <use xlink:href="#m06416b6f34" x="117.55337" y="147.7608" style="stroke: #000000; stroke-width: 1.3"/>
       </g>
      </g>
     </g>
     <g id="xtick_49">
      <g id="line2d_50">
       <g>
        <use xlink:href="#m06416b6f34" x="109.953222" y="147.7608" style="stroke: #000000; stroke-width: 1.3"/>
       </g>
      </g>
     </g>
     <g id="xtick_50">
      <g id="line2d_51">
       <g>
        <use xlink:href="#m06416b6f34" x="102.353073" y="147.7608" style="stroke: #000000; stroke-width: 1.3"/>
       </g>
      </g>
     </g>
     <g id="xtick_51">
      <g id="line2d_52">
       <g>
        <use xlink:href="#m06416b6f34" x="87.152777" y="147.7608" style="stroke: #000000; stroke-width: 1.3"/>
       </g>
      </g>
     </g>
     <g id="xtick_52">
      <g id="line2d_53">
       <g>
        <use xlink:href="#m06416b6f34" x="79.552629" y="147.7608" style="stroke: #000000; stroke-width: 1.3"/>
       </g>
      </g>
     </g>
     <g id="xtick_53">
      <g id="line2d_54">
       <g>
        <use xlink:href="#m06416b6f34" x="71.95248" y="147.7608" style="stroke: #000000; stroke-width: 1.3"/>
       </g>
      </g>
     </g>
     <g id="xtick_54">
      <g id="line2d_55">
       <g>
        <use xlink:href="#m06416b6f34" x="64.352332" y="147.7608" style="stroke: #000000; stroke-width: 1.3"/>
       </g>
      </g>
     </g>
     <g id="xtick_55">
      <g id="line2d_56">
       <g>
        <use xlink:href="#m06416b6f34" x="49.152035" y="147.7608" style="stroke: #000000; stroke-width: 1.3"/>
       </g>
      </g>
     </g>
     <g id="xtick_56">
      <g id="line2d_57">
       <g>
        <use xlink:href="#m06416b6f34" x="41.551887" y="147.7608" style="stroke: #000000; stroke-width: 1.3"/>
       </g>
      </g>
     </g>
     <g id="xtick_57">
      <g id="line2d_58">
       <g>
        <use xlink:href="#m06416b6f34" x="33.951739" y="147.7608" style="stroke: #000000; stroke-width: 1.3"/>
       </g>
      </g>
     </g>
    </g>
    <g id="matplotlib.axis_4"/>
    <g id="line2d_59">
     <path d="M 41.58 143.330532 
L 42.304596 143.433251 
L 44.729205 143.429801 
L 45.314456 143.429553 
L 45.565278 143.400745 
L 47.404637 143.434122 
L 47.571851 143.421075 
L 47.850542 143.463629 
L 50.888271 143.482771 
L 51.111224 143.423042 
L 51.278438 143.271756 
L 51.473522 143.193066 
L 51.696474 143.320314 
L 51.947296 143.480326 
L 53.145666 143.0746 
L 53.786655 142.536792 
L 54.260429 142.424685 
L 54.789942 141.949538 
L 55.068632 141.558205 
L 55.319454 140.859603 
L 55.876836 138.382352 
L 56.04405 136.395763 
L 56.183395 131.723281 
L 56.322741 118.912499 
L 56.573562 81.813159 
L 56.629301 85.949911 
L 57.075206 137.281849 
L 57.298158 138.944126 
L 57.799802 140.786578 
L 58.245707 141.20007 
L 58.552267 141.079239 
L 59.471946 139.988233 
L 59.694899 138.897679 
L 60.029328 136.016971 
L 60.168673 132.368438 
L 60.308018 122.415051 
L 60.586709 77.978084 
L 60.670316 85.532997 
L 61.032614 135.526579 
L 61.255567 138.46855 
L 61.812949 141.550694 
L 62.760497 142.260302 
L 62.927712 142.339853 
L 63.234271 142.519583 
L 63.791653 142.851582 
L 63.958867 142.71638 
L 64.376903 142.665483 
L 65.491666 143.007081 
L 65.714619 143.214808 
L 65.909703 143.063022 
L 66.160524 142.875132 
L 66.383477 142.965592 
L 67.19168 143.102916 
L 67.49824 143.136895 
L 67.888407 143.124113 
L 68.557265 143.173651 
L 68.919563 143.1244 
L 69.699897 143.203055 
L 70.731053 143.05911 
L 70.981874 143.03378 
L 71.260565 143.046765 
L 71.455649 143.05956 
L 71.985161 143.262176 
L 72.347459 143.26187 
L 72.90484 143.2266 
L 73.044186 143.261912 
L 73.322877 143.317263 
L 73.852389 143.284378 
L 74.047472 143.320658 
L 74.270425 143.302595 
L 75.886831 143.296737 
L 76.52782 143.16398 
L 76.862249 143.355412 
L 77.085202 143.359731 
L 77.4475 143.353722 
L 77.670452 143.354545 
L 80.095062 143.255864 
L 80.45736 143.100555 
L 81.627861 143.416046 
L 81.96229 143.377337 
L 82.380326 143.392595 
L 83.021315 143.397103 
L 83.216398 143.391604 
L 83.829518 143.385396 
L 84.08034 143.374115 
L 84.470507 143.384658 
L 85.222972 143.309906 
L 85.473793 143.17288 
L 85.641008 143.238024 
L 85.808222 143.223458 
L 86.059044 143.194721 
L 86.393473 143.430429 
L 87.285283 142.671789 
L 87.591843 142.267668 
L 88.650868 140.914908 
L 89.291857 139.191879 
L 89.654155 137.011526 
L 89.877107 134.908653 
L 90.072191 130.136416 
L 90.239405 119.060027 
L 90.545965 75.744225 
L 90.629572 81.678497 
L 90.796787 96.443812 
L 90.824656 95.515219 
L 91.019739 76.252352 
L 91.103346 81.3337 
L 91.521383 133.68719 
L 91.800073 137.783692 
L 92.218109 140.20172 
L 92.580407 141.136277 
L 92.886967 141.514786 
L 93.193527 141.874287 
L 93.72304 142.3664 
L 94.30829 142.461193 
L 94.782064 142.390203 
L 95.088624 142.399191 
L 95.255839 142.450187 
L 95.590268 142.815345 
L 96.42634 142.782886 
L 96.760769 142.773396 
L 97.819794 142.978377 
L 98.070615 142.972078 
L 99.046033 142.924779 
L 100.439487 143.06487 
L 101.498511 143.132418 
L 101.860809 143.224923 
L 102.891965 143.241494 
L 103.198525 143.187735 
L 103.33787 143.208584 
L 103.616561 143.298223 
L 103.95099 143.280883 
L 104.396895 143.338823 
L 110.249401 143.249927 
L 111.113342 143.089953 
L 111.419902 143.183945 
L 111.614986 143.292183 
L 111.977284 143.362998 
L 112.618272 143.382805 
L 113.28713 143.356513 
L 113.649428 143.26502 
L 114.039595 143.279116 
L 114.178941 143.271289 
L 114.680584 143.321013 
L 114.959275 143.24872 
L 115.265835 143.197185 
L 115.377311 143.103348 
L 115.683871 142.748062 
L 116.324859 142.35833 
L 116.631419 142.294227 
L 116.770765 142.194217 
L 117.439622 140.936239 
L 117.997004 138.911289 
L 118.192087 137.170218 
L 118.331433 134.231497 
L 118.498647 124.454906 
L 118.693731 107.329107 
L 118.749469 108.860485 
L 118.944552 120.595233 
L 119.000291 119.635994 
L 119.195374 108.909044 
L 119.251112 111.267815 
L 119.641279 135.906769 
L 119.836363 137.059853 
L 120.003577 137.037433 
L 120.115054 136.63342 
L 120.282268 135.150578 
L 120.449483 130.27484 
L 120.616697 115.642355 
L 120.783911 104.702117 
L 120.811781 105.561467 
L 121.006864 119.107771 
L 121.090471 116.218591 
L 121.257686 106.640394 
L 121.285555 107.134447 
L 121.397031 117.408905 
L 121.647853 136.768852 
L 121.870805 139.390713 
L 122.233103 140.881316 
L 123.124914 141.99616 
L 123.431474 142.166358 
L 123.905248 142.544165 
L 124.769189 142.508226 
L 125.103618 142.592293 
L 125.465916 142.623356 
L 125.744607 142.55573 
L 125.995428 142.229921 
L 126.079036 142.348336 
L 126.274119 142.535314 
L 126.301988 142.515205 
L 126.497072 142.331124 
L 126.524941 142.362997 
L 126.970846 142.856505 
L 127.388882 142.990818 
L 127.75118 143.025314 
L 128.97742 143.15367 
L 129.729885 143.209056 
L 130.426611 143.206648 
L 131.011862 143.282411 
L 131.541374 143.257365 
L 131.98728 143.306509 
L 132.600399 143.281561 
L 133.993853 143.331481 
L 134.718449 143.347849 
L 135.220092 143.380139 
L 135.470914 143.347642 
L 139.149632 143.300521 
L 139.929966 143.284541 
L 140.152919 143.330494 
L 140.738169 143.361742 
L 141.797194 143.238767 
L 142.410314 143.352663 
L 143.302124 143.25502 
L 143.580815 143.10032 
L 143.887375 143.363872 
L 144.193935 143.367869 
L 145.336567 143.244336 
L 145.698865 143.204657 
L 146.14477 143.365409 
L 146.952973 143.422786 
L 147.231664 143.430451 
L 147.6497 143.409132 
L 148.039867 143.459802 
L 148.430034 143.454445 
L 149.015285 143.424915 
L 149.544797 143.488257 
L 149.73988 143.434889 
L 150.102178 143.426444 
L 150.408738 143.445023 
L 150.96612 143.392197 
L 151.328418 143.444213 
L 151.495632 143.4473 
L 151.662847 143.424356 
L 153.334991 143.365711 
L 153.66942 143.073991 
L 153.697289 143.101045 
L 153.948111 143.281885 
L 154.059587 143.182164 
L 154.171063 143.132813 
L 154.198933 143.158175 
L 154.56123 143.301173 
L 155.425172 143.244999 
L 155.703863 142.98101 
L 155.731732 143.013604 
L 155.954684 143.174837 
L 156.038291 143.176755 
L 156.066161 143.129896 
L 156.177637 143.008843 
L 156.205506 143.039412 
L 156.539935 143.335444 
L 156.67928 143.409806 
L 156.98584 143.391916 
L 157.069447 143.365653 
L 157.097316 143.39669 
L 157.180924 143.418792 
L 157.208793 143.386604 
L 157.2924 143.3531 
L 157.320269 143.382196 
L 157.459614 143.39166 
L 157.571091 143.511532 
L 157.654698 143.482345 
L 157.738305 143.42508 
L 157.766174 143.456157 
L 157.849781 143.509538 
L 157.87765 143.472836 
L 158.18421 143.073387 
L 158.462901 143.288098 
L 158.657985 143.496474 
L 158.741592 143.503984 
L 158.769461 143.463742 
L 158.853068 143.387183 
L 158.908806 143.433465 
L 158.992413 143.369043 
L 159.076021 143.268386 
L 159.10389 143.308526 
L 159.215366 143.462852 
L 159.243235 143.429858 
L 159.41045 143.383628 
L 159.605533 143.328358 
L 159.884224 143.243493 
L 160.357998 142.298257 
L 160.413736 142.236484 
L 160.441605 142.268351 
L 160.720296 142.656222 
L 160.776034 142.650162 
L 160.803903 142.593912 
L 160.887511 142.508685 
L 160.943249 142.558341 
L 160.998987 142.456666 
L 161.110463 142.064995 
L 161.166201 142.108872 
L 161.221939 142.101849 
L 161.249809 142.040895 
L 161.333416 141.908508 
L 161.389154 141.956509 
L 161.444892 141.886109 
L 161.556368 141.58003 
L 161.612106 141.665202 
L 161.667845 141.638883 
L 161.779321 141.286492 
L 161.862928 141.344078 
L 161.974404 140.848375 
L 162.169488 139.918007 
L 162.42031 138.629591 
L 162.699 137.521446 
L 162.782608 136.780892 
L 162.977691 131.30007 
L 163.117037 118.332504 
L 163.284251 77.314705 
L 163.367858 62.045146 
L 163.395727 64.262197 
L 163.813763 135.29362 
L 164.064585 137.58831 
L 164.092454 137.578 
L 164.2318 137.557798 
L 164.315407 137.345333 
L 164.371145 137.387762 
L 164.426883 137.395549 
L 164.454752 137.355163 
L 164.51049 137.325272 
L 164.538359 137.38539 
L 164.621967 137.586325 
L 164.649836 137.536531 
L 164.844919 136.522618 
L 165.040003 131.775949 
L 165.179348 120.016956 
L 165.318693 88.77989 
L 165.43017 66.271178 
L 165.458039 69.30142 
L 165.820337 136.236284 
L 166.071158 139.720777 
L 166.517064 140.976281 
L 166.572802 140.914498 
L 166.600671 140.889506 
L 166.62854 140.942004 
L 166.740016 141.470315 
L 166.823624 141.352503 
L 166.879362 141.448287 
L 166.962969 141.737976 
L 167.018707 141.69033 
L 167.074445 141.685538 
L 167.185921 142.004003 
L 167.24166 141.911172 
L 167.297398 141.849562 
L 167.325267 141.901272 
L 167.408874 142.095133 
L 167.464612 142.005035 
L 167.52035 141.937286 
L 167.548219 141.986073 
L 167.659696 142.250498 
L 167.715434 142.177373 
L 167.82691 142.208616 
L 167.910517 142.118344 
L 167.966256 142.080675 
L 167.994125 142.131212 
L 168.328554 142.846344 
L 168.607244 142.87148 
L 168.885935 142.443051 
L 168.913804 142.463462 
L 168.997411 142.485117 
L 169.02528 142.452566 
L 169.081019 142.418617 
L 169.108888 142.448522 
L 169.220364 142.61331 
L 169.276102 142.566297 
L 169.359709 142.602668 
L 169.443317 142.647786 
L 169.471186 142.610004 
L 169.554793 142.559919 
L 169.582662 142.608354 
L 169.694138 142.744517 
L 169.722007 142.718064 
L 169.972829 142.63516 
L 170.25152 142.799906 
L 170.446603 143.104176 
L 170.585949 143.12738 
L 170.613818 143.084547 
L 170.892508 142.819483 
L 171.75645 142.953565 
L 171.867926 143.00697 
L 171.979402 142.980307 
L 172.090879 143.037572 
L 172.174486 143.028516 
L 172.202355 142.985928 
L 172.620391 142.245054 
L 172.676129 142.345575 
L 172.926951 142.949802 
L 173.205642 143.107591 
L 173.344987 143.078473 
L 173.679416 143.128003 
L 173.902369 143.188389 
L 174.181059 143.196399 
L 174.487619 142.871783 
L 174.654834 142.489188 
L 174.710572 142.556613 
L 174.989263 143.122666 
L 175.295822 143.282757 
L 175.602382 143.184302 
L 176.020418 143.293767 
L 176.299109 143.269955 
L 176.605669 143.2694 
L 176.800752 143.270673 
L 177.023705 143.336585 
L 177.16305 143.312255 
L 177.302396 143.359239 
L 177.441741 143.261992 
L 177.636825 143.274081 
L 177.831908 143.290166 
L 178.138468 143.292989 
L 178.472897 143.357192 
L 178.779457 143.367686 
L 179.086017 143.3488 
L 179.448315 143.328029 
L 179.782743 143.398966 
L 179.977827 143.40471 
L 180.256518 143.37065 
L 181.064721 143.352379 
L 181.287674 143.399378 
L 181.649971 143.374863 
L 182.068008 143.367534 
L 183.071294 143.335239 
L 183.238509 143.30384 
L 183.740152 143.108879 
L 184.297534 143.395583 
L 185.440166 143.357879 
L 185.830333 143.176998 
L 186.164762 143.368989 
L 186.471321 143.398029 
L 186.833619 143.409976 
L 189.063145 143.28623 
L 189.313967 143.126875 
L 189.453313 143.275961 
L 189.704134 143.377294 
L 190.568076 143.456069 
L 190.874635 143.426196 
L 191.515624 143.379409 
L 192.156613 143.215381 
L 192.602518 143.416693 
L 193.550067 143.281273 
L 193.74515 143.163516 
L 193.912365 143.275977 
L 194.163186 143.436073 
L 194.386139 143.425827 
L 196.281236 143.310615 
L 196.532058 143.144992 
L 196.838617 143.405827 
L 197.089439 143.450242 
L 198.594369 143.434827 
L 198.845191 143.446557 
L 200.127168 143.46681 
L 200.405859 143.42026 
L 200.573073 143.418297 
L 200.851764 143.4425 
L 201.074717 143.452028 
L 203.164897 143.476425 
L 203.582934 143.448202 
L 203.805886 143.417447 
L 204.502613 143.479418 
L 205.394423 143.448435 
L 206.815746 143.462788 
L 206.955092 143.466325 
L 207.094437 143.452548 
L 207.400997 143.404371 
L 207.59608 143.384212 
L 207.763295 143.327557 
L 208.069855 143.176918 
L 208.376415 143.400285 
L 209.10101 143.434091 
L 209.240356 143.443303 
L 209.40757 143.436518 
L 209.71413 143.424331 
L 209.909214 143.480198 
L 210.160035 143.455466 
L 211.21906 143.418377 
L 211.358406 143.39884 
L 211.469882 143.43362 
L 211.581358 143.404151 
L 211.720704 143.392399 
L 211.83218 143.28875 
L 212.083001 143.087631 
L 212.110871 143.113088 
L 212.41743 143.44433 
L 212.807597 143.418493 
L 212.946943 143.407355 
L 213.086288 143.454483 
L 213.392848 143.395063 
L 213.532193 143.437481 
L 213.838753 143.413494 
L 213.978099 143.476419 
L 214.479742 143.430953 
L 214.619087 143.444565 
L 214.730564 143.427919 
L 214.84204 143.445031 
L 214.953516 143.434175 
L 215.064993 143.441723 
L 215.204338 143.450437 
L 215.538767 143.470022 
L 216.319101 143.397178 
L 216.402708 143.426609 
L 216.514184 143.496243 
L 216.542054 143.471332 
L 216.681399 143.506944 
L 217.712555 143.417277 
L 217.907638 143.422053 
L 218.437151 143.447879 
L 218.548627 143.491298 
L 218.576496 143.468689 
L 218.855187 143.452245 
L 218.966663 143.50515 
L 218.994532 143.469601 
L 219.078139 143.416843 
L 219.106008 143.44687 
L 219.189616 143.504323 
L 219.217485 143.477749 
L 219.301092 143.416343 
L 219.35683 143.472265 
L 219.468306 143.460387 
L 219.719128 143.365092 
L 220.053557 143.477766 
L 221.224058 143.405113 
L 221.335534 143.29433 
L 221.363404 143.327764 
L 221.447011 143.369336 
L 221.47488 143.342187 
L 221.558487 143.342492 
L 221.586356 143.386127 
L 221.669963 143.422285 
L 221.697832 143.385087 
L 221.753571 143.342578 
L 221.809309 143.416444 
L 221.892916 143.485957 
L 221.920785 143.456471 
L 222.004392 143.430219 
L 222.032261 143.465352 
L 222.087999 143.50151 
L 222.143738 143.423614 
L 222.199476 143.362887 
L 222.255214 143.439579 
L 222.338821 143.516974 
L 222.36669 143.48301 
L 222.422428 143.440751 
L 222.450297 143.47188 
L 222.533905 143.610473 
L 222.589643 143.515564 
L 222.67325 143.359947 
L 222.728988 143.407861 
L 222.784726 143.367758 
L 222.896203 143.073095 
L 222.951941 143.140661 
L 223.007679 143.188064 
L 223.063417 143.114877 
L 223.119155 143.106213 
L 223.147024 143.172161 
L 223.342108 143.464674 
L 223.453584 143.598878 
L 223.481453 143.546787 
L 223.56506 143.398919 
L 223.620799 143.468297 
L 223.676537 143.481117 
L 223.704406 143.416145 
L 223.788013 143.218254 
L 223.843751 143.32217 
L 223.927358 143.459154 
L 223.983097 143.39039 
L 224.094573 143.445654 
L 224.17818 143.33007 
L 224.233918 143.249504 
L 224.289656 143.310603 
L 224.345395 143.334392 
L 224.373264 143.281052 
L 224.456871 143.123242 
L 224.48474 143.163144 
L 224.568347 143.326108 
L 224.596216 143.284342 
L 224.707693 143.026956 
L 224.763431 143.075405 
L 224.819169 142.991399 
L 224.930645 142.706085 
L 224.958514 142.747366 
L 225.014252 142.801091 
L 225.042121 142.74917 
L 225.125729 142.49629 
L 225.181467 142.576185 
L 225.237205 142.69919 
L 225.292943 142.591636 
L 225.37655 142.414304 
L 225.404419 142.468763 
L 225.488027 142.596992 
L 225.515896 142.541782 
L 225.571634 142.425009 
L 225.627372 142.495997 
L 225.68311 142.588316 
L 225.710979 142.541196 
L 225.822456 142.177241 
L 225.878194 142.283894 
L 225.906063 142.317626 
L 225.933932 142.282013 
L 226.045408 141.941734 
L 226.101146 142.066847 
L 226.129015 142.108777 
L 226.156884 142.076871 
L 226.268361 141.765303 
L 226.29623 141.845066 
L 226.351968 142.016956 
L 226.407706 141.862269 
L 226.491313 141.531685 
L 226.547051 141.701451 
L 226.574921 141.772061 
L 226.60279 141.741663 
L 226.937219 140.339846 
L 226.965088 140.360142 
L 227.020826 140.531128 
L 227.048695 140.47559 
L 227.160171 139.529791 
L 227.243778 139.771738 
L 227.299517 139.469374 
L 227.717553 132.549964 
L 227.884767 116.442154 
L 228.024112 77.574801 
L 228.10772 60.603927 
L 228.135589 63.875475 
L 228.497887 135.577489 
L 228.69297 138.369136 
L 228.776577 139.19331 
L 228.832316 139.095915 
L 228.888054 139.403202 
L 228.99953 140.302148 
L 229.055268 140.196509 
L 229.111006 140.302909 
L 229.222483 140.769914 
L 229.250352 140.709062 
L 229.30609 140.607173 
L 229.333959 140.657076 
L 229.445435 141.002287 
L 229.501173 140.916315 
L 229.556912 140.941166 
L 229.668388 141.24868 
L 229.724126 141.142562 
L 229.779864 141.07163 
L 229.807733 141.106743 
L 229.89134 141.249482 
L 229.947079 141.168279 
L 230.030686 141.089994 
L 230.058555 141.129184 
L 230.114293 141.182607 
L 230.142162 141.149923 
L 230.253638 140.897934 
L 230.309377 140.963102 
L 230.365115 141.00675 
L 230.392984 140.965857 
L 230.50446 140.752771 
L 230.560198 140.806252 
L 230.615936 140.77234 
L 230.727413 140.554656 
L 230.755282 140.600289 
L 230.81102 140.692851 
L 230.838889 140.658942 
L 231.368401 138.382984 
L 231.70283 133.658861 
L 231.814307 127.072336 
L 231.981521 102.348463 
L 232.120866 64.455757 
L 232.176605 71.14395 
L 232.455295 132.564528 
L 232.650379 137.335533 
L 232.984808 140.870779 
L 233.012677 141.013131 
L 233.096284 140.879001 
L 233.235629 141.761986 
L 233.319237 141.427043 
L 233.374975 141.561514 
L 233.430713 141.811685 
L 233.486451 141.688956 
L 233.542189 141.467778 
L 233.597927 141.630635 
L 233.681535 141.954142 
L 233.709404 141.884277 
L 233.765142 141.711021 
L 233.82088 141.863168 
L 233.904487 142.197922 
L 233.960225 142.059317 
L 233.988095 141.99718 
L 234.043833 142.116292 
L 234.12744 142.405548 
L 234.183178 142.261483 
L 234.238916 142.184876 
L 234.266785 142.26242 
L 234.350393 142.52084 
L 234.406131 142.374338 
L 234.461869 142.2416 
L 234.517607 142.347041 
L 234.573345 142.442649 
L 234.629083 142.346926 
L 234.684821 142.315627 
L 234.71269 142.398248 
L 234.796298 142.690949 
L 234.852036 142.619715 
L 234.907774 142.552016 
L 234.935643 142.604494 
L 235.047119 142.846106 
L 235.074988 142.797851 
L 235.130727 142.730366 
L 235.158596 142.76549 
L 235.242203 142.921109 
L 235.270072 142.885003 
L 235.353679 142.687945 
L 235.409417 142.754489 
L 235.465156 142.832511 
L 235.520894 142.731754 
L 235.576632 142.618725 
L 235.63237 142.684927 
L 235.688108 142.776567 
L 235.743846 142.707766 
L 235.799584 142.62797 
L 235.855323 142.721679 
L 235.93893 142.829293 
L 235.966799 142.776663 
L 236.050406 142.669937 
L 236.078275 142.710945 
L 236.161882 142.77699 
L 236.189751 142.724679 
L 236.24549 142.629512 
L 236.301228 142.707741 
L 236.384835 142.88786 
L 236.440573 142.841306 
L 236.496311 142.819495 
L 236.52418 142.851588 
L 236.607788 142.89577 
L 236.635657 142.844985 
L 236.719264 142.740667 
L 236.747133 142.778818 
L 236.83074 142.890314 
L 236.886478 142.84179 
L 236.942216 142.868563 
L 237.165169 143.17036 
L 237.276645 143.292189 
L 237.304514 143.251784 
L 237.555336 142.934724 
L 237.638943 142.874414 
L 237.666812 142.90911 
L 237.806158 142.911485 
L 238.252063 143.022281 
L 238.307801 143.008671 
L 238.33567 143.047793 
L 238.419277 143.12185 
L 238.475016 143.074367 
L 238.586492 143.137561 
L 238.893052 143.170963 
L 238.976659 143.104308 
L 239.004528 143.133116 
L 239.088135 143.185563 
L 239.116004 143.158428 
L 239.199612 143.115498 
L 239.227481 143.144334 
L 239.311088 143.187535 
L 239.338957 143.157567 
L 239.422564 143.110153 
L 239.450433 143.141383 
L 239.56191 143.202768 
L 239.589779 143.182539 
L 239.868469 143.147807 
L 239.979946 143.292483 
L 240.035684 143.218885 
L 240.175029 143.204591 
L 240.593065 143.20826 
L 240.676673 143.227099 
L 240.704542 143.191595 
L 240.788149 143.177974 
L 240.816018 143.217655 
L 240.899625 143.261928 
L 240.927494 143.235277 
L 241.011101 143.222152 
L 241.038971 143.257107 
L 241.122578 143.299309 
L 241.150447 143.275128 
L 241.261923 143.285138 
L 241.34553 143.297637 
L 241.373399 143.262979 
L 241.457007 143.226026 
L 241.484876 143.256213 
L 241.568483 143.298778 
L 241.596352 143.273031 
L 241.707828 143.259593 
L 241.875043 143.28137 
L 242.097995 143.258223 
L 243.129151 143.38285 
L 243.268497 143.316075 
L 243.296366 143.343846 
L 243.407842 143.314337 
L 243.519318 143.36196 
L 243.602925 143.385041 
L 243.630795 143.354933 
L 243.714402 143.330437 
L 243.742271 143.358675 
L 243.881616 143.342262 
L 244.132438 143.324524 
L 245.330808 143.416704 
L 245.442284 143.377973 
L 245.665237 143.358301 
L 245.916059 143.374684 
L 246.529178 143.375551 
L 246.668524 143.360528 
L 246.78 143.352183 
L 246.78 143.352183 
" clip-path="url(#p159a7cfdde)" style="fill: none; stroke: #4c72b0; stroke-linecap: square"/>
    </g>
    <g id="patch_8">
     <path d="M 31.32 147.7608 
L 257.04 147.7608 
" style="fill: none; stroke: #000000; stroke-width: 1.3; stroke-linejoin: miter; stroke-linecap: square"/>
    </g>
   </g>
  </g>
 </g>
 <defs>
  <clipPath id="p5416b7689b">
   <rect x="10.8" y="10.8" width="410.4" height="228.268"/>
  </clipPath>
  <clipPath id="p159a7cfdde">
   <rect x="31.32" y="56.4536" width="225.72" height="91.3072"/>
  </clipPath>
 </defs>
</svg>
