<?xml version="1.0" encoding="utf-8" standalone="no"?>
<!DOCTYPE svg PUBLIC "-//W3C//DTD SVG 1.1//EN"
  "http://www.w3.org/Graphics/SVG/1.1/DTD/svg11.dtd">
<svg xmlns:xlink="http://www.w3.org/1999/xlink" width="360pt" height="360pt" viewBox="0 0 360 360" xmlns="http://www.w3.org/2000/svg" version="1.1">
 <metadata>
  <rdf:RDF xmlns:dc="http://purl.org/dc/elements/1.1/" xmlns:cc="http://creativecommons.org/ns#" xmlns:rdf="http://www.w3.org/1999/02/22-rdf-syntax-ns#">
   <cc:Work>
    <dc:type rdf:resource="http://purl.org/dc/dcmitype/StillImage"/>
    <dc:date>2022-07-29T16:43:24.711100</dc:date>
    <dc:format>image/svg+xml</dc:format>
    <dc:creator>
     <cc:Agent>
      <dc:title>Matplotlib v3.5.2, https://matplotlib.org/</dc:title>
     </cc:Agent>
    </dc:creator>
   </cc:Work>
  </rdf:RDF>
 </metadata>
 <defs>
  <style type="text/css">*{stroke-linejoin: round; stroke-linecap: butt}</style>
 </defs>
 <g id="figure_1">
  <g id="patch_1">
   <path d="M 0 360 
L 360 360 
L 360 0 
L 0 0 
z
" style="fill: #ffffff"/>
  </g>
  <g id="axes_1">
   <g id="patch_2">
    <path d="M 10.8 311.068 
L 289.978401 311.068 
L 289.978401 14.187729 
L 10.8 14.187729 
z
" style="fill: #ffffff"/>
   </g>
   <g id="matplotlib.axis_1">
    <g id="xtick_1">
     <g id="line2d_1">
      <defs>
       <path id="ma7f22a52bf" d="M 0 0 
L 0 5 
" style="stroke: #000000; stroke-width: 1.3"/>
      </defs>
      <g>
       <use xlink:href="#ma7f22a52bf" x="289.300743" y="311.068" style="stroke: #000000; stroke-width: 1.3"/>
      </g>
     </g>
     <g id="text_1">
      <!-- 7.0 -->
      <g transform="translate(281.34918 327.166437)scale(0.1 -0.1)">
       <defs>
        <path id="DejaVuSans-37" d="M 525 4666 
L 3525 4666 
L 3525 4397 
L 1831 0 
L 1172 0 
L 2766 4134 
L 525 4134 
L 525 4666 
z
" transform="scale(0.015625)"/>
        <path id="DejaVuSans-2e" d="M 684 794 
L 1344 794 
L 1344 0 
L 684 0 
L 684 794 
z
" transform="scale(0.015625)"/>
        <path id="DejaVuSans-30" d="M 2034 4250 
Q 1547 4250 1301 3770 
Q 1056 3291 1056 2328 
Q 1056 1369 1301 889 
Q 1547 409 2034 409 
Q 2525 409 2770 889 
Q 3016 1369 3016 2328 
Q 3016 3291 2770 3770 
Q 2525 4250 2034 4250 
z
M 2034 4750 
Q 2819 4750 3233 4129 
Q 3647 3509 3647 2328 
Q 3647 1150 3233 529 
Q 2819 -91 2034 -91 
Q 1250 -91 836 529 
Q 422 1150 422 2328 
Q 422 3509 836 4129 
Q 1250 4750 2034 4750 
z
" transform="scale(0.015625)"/>
       </defs>
       <use xlink:href="#DejaVuSans-37"/>
       <use xlink:href="#DejaVuSans-2e" x="63.623047"/>
       <use xlink:href="#DejaVuSans-30" x="95.410156"/>
      </g>
     </g>
    </g>
    <g id="xtick_2">
     <g id="line2d_2">
      <g>
       <use xlink:href="#ma7f22a52bf" x="228.528768" y="311.068" style="stroke: #000000; stroke-width: 1.3"/>
      </g>
     </g>
     <g id="text_2">
      <!-- 7.5 -->
      <g transform="translate(220.577205 327.166437)scale(0.1 -0.1)">
       <defs>
        <path id="DejaVuSans-35" d="M 691 4666 
L 3169 4666 
L 3169 4134 
L 1269 4134 
L 1269 2991 
Q 1406 3038 1543 3061 
Q 1681 3084 1819 3084 
Q 2600 3084 3056 2656 
Q 3513 2228 3513 1497 
Q 3513 744 3044 326 
Q 2575 -91 1722 -91 
Q 1428 -91 1123 -41 
Q 819 9 494 109 
L 494 744 
Q 775 591 1075 516 
Q 1375 441 1709 441 
Q 2250 441 2565 725 
Q 2881 1009 2881 1497 
Q 2881 1984 2565 2268 
Q 2250 2553 1709 2553 
Q 1456 2553 1204 2497 
Q 953 2441 691 2322 
L 691 4666 
z
" transform="scale(0.015625)"/>
       </defs>
       <use xlink:href="#DejaVuSans-37"/>
       <use xlink:href="#DejaVuSans-2e" x="63.623047"/>
       <use xlink:href="#DejaVuSans-35" x="95.410156"/>
      </g>
     </g>
    </g>
    <g id="xtick_3">
     <g id="line2d_3">
      <g>
       <use xlink:href="#ma7f22a52bf" x="167.756792" y="311.068" style="stroke: #000000; stroke-width: 1.3"/>
      </g>
     </g>
     <g id="text_3">
      <!-- 8.0 -->
      <g transform="translate(159.80523 327.166437)scale(0.1 -0.1)">
       <defs>
        <path id="DejaVuSans-38" d="M 2034 2216 
Q 1584 2216 1326 1975 
Q 1069 1734 1069 1313 
Q 1069 891 1326 650 
Q 1584 409 2034 409 
Q 2484 409 2743 651 
Q 3003 894 3003 1313 
Q 3003 1734 2745 1975 
Q 2488 2216 2034 2216 
z
M 1403 2484 
Q 997 2584 770 2862 
Q 544 3141 544 3541 
Q 544 4100 942 4425 
Q 1341 4750 2034 4750 
Q 2731 4750 3128 4425 
Q 3525 4100 3525 3541 
Q 3525 3141 3298 2862 
Q 3072 2584 2669 2484 
Q 3125 2378 3379 2068 
Q 3634 1759 3634 1313 
Q 3634 634 3220 271 
Q 2806 -91 2034 -91 
Q 1263 -91 848 271 
Q 434 634 434 1313 
Q 434 1759 690 2068 
Q 947 2378 1403 2484 
z
M 1172 3481 
Q 1172 3119 1398 2916 
Q 1625 2713 2034 2713 
Q 2441 2713 2670 2916 
Q 2900 3119 2900 3481 
Q 2900 3844 2670 4047 
Q 2441 4250 2034 4250 
Q 1625 4250 1398 4047 
Q 1172 3844 1172 3481 
z
" transform="scale(0.015625)"/>
       </defs>
       <use xlink:href="#DejaVuSans-38"/>
       <use xlink:href="#DejaVuSans-2e" x="63.623047"/>
       <use xlink:href="#DejaVuSans-30" x="95.410156"/>
      </g>
     </g>
    </g>
    <g id="xtick_4">
     <g id="line2d_4">
      <g>
       <use xlink:href="#ma7f22a52bf" x="106.984817" y="311.068" style="stroke: #000000; stroke-width: 1.3"/>
      </g>
     </g>
     <g id="text_4">
      <!-- 8.5 -->
      <g transform="translate(99.033255 327.166437)scale(0.1 -0.1)">
       <use xlink:href="#DejaVuSans-38"/>
       <use xlink:href="#DejaVuSans-2e" x="63.623047"/>
       <use xlink:href="#DejaVuSans-35" x="95.410156"/>
      </g>
     </g>
    </g>
    <g id="xtick_5">
     <g id="line2d_5">
      <g>
       <use xlink:href="#ma7f22a52bf" x="46.212842" y="311.068" style="stroke: #000000; stroke-width: 1.3"/>
      </g>
     </g>
     <g id="text_5">
      <!-- 9.0 -->
      <g transform="translate(38.261279 327.166437)scale(0.1 -0.1)">
       <defs>
        <path id="DejaVuSans-39" d="M 703 97 
L 703 672 
Q 941 559 1184 500 
Q 1428 441 1663 441 
Q 2288 441 2617 861 
Q 2947 1281 2994 2138 
Q 2813 1869 2534 1725 
Q 2256 1581 1919 1581 
Q 1219 1581 811 2004 
Q 403 2428 403 3163 
Q 403 3881 828 4315 
Q 1253 4750 1959 4750 
Q 2769 4750 3195 4129 
Q 3622 3509 3622 2328 
Q 3622 1225 3098 567 
Q 2575 -91 1691 -91 
Q 1453 -91 1209 -44 
Q 966 3 703 97 
z
M 1959 2075 
Q 2384 2075 2632 2365 
Q 2881 2656 2881 3163 
Q 2881 3666 2632 3958 
Q 2384 4250 1959 4250 
Q 1534 4250 1286 3958 
Q 1038 3666 1038 3163 
Q 1038 2656 1286 2365 
Q 1534 2075 1959 2075 
z
" transform="scale(0.015625)"/>
       </defs>
       <use xlink:href="#DejaVuSans-39"/>
       <use xlink:href="#DejaVuSans-2e" x="63.623047"/>
       <use xlink:href="#DejaVuSans-30" x="95.410156"/>
      </g>
     </g>
    </g>
    <g id="xtick_6">
     <g id="line2d_6">
      <defs>
       <path id="m2b43fd14da" d="M 0 0 
L 0 3 
" style="stroke: #000000; stroke-width: 1.3"/>
      </defs>
      <g>
       <use xlink:href="#m2b43fd14da" x="277.146348" y="311.068" style="stroke: #000000; stroke-width: 1.3"/>
      </g>
     </g>
    </g>
    <g id="xtick_7">
     <g id="line2d_7">
      <g>
       <use xlink:href="#m2b43fd14da" x="264.991953" y="311.068" style="stroke: #000000; stroke-width: 1.3"/>
      </g>
     </g>
    </g>
    <g id="xtick_8">
     <g id="line2d_8">
      <g>
       <use xlink:href="#m2b43fd14da" x="252.837558" y="311.068" style="stroke: #000000; stroke-width: 1.3"/>
      </g>
     </g>
    </g>
    <g id="xtick_9">
     <g id="line2d_9">
      <g>
       <use xlink:href="#m2b43fd14da" x="240.683163" y="311.068" style="stroke: #000000; stroke-width: 1.3"/>
      </g>
     </g>
    </g>
    <g id="xtick_10">
     <g id="line2d_10">
      <g>
       <use xlink:href="#m2b43fd14da" x="216.374373" y="311.068" style="stroke: #000000; stroke-width: 1.3"/>
      </g>
     </g>
    </g>
    <g id="xtick_11">
     <g id="line2d_11">
      <g>
       <use xlink:href="#m2b43fd14da" x="204.219977" y="311.068" style="stroke: #000000; stroke-width: 1.3"/>
      </g>
     </g>
    </g>
    <g id="xtick_12">
     <g id="line2d_12">
      <g>
       <use xlink:href="#m2b43fd14da" x="192.065582" y="311.068" style="stroke: #000000; stroke-width: 1.3"/>
      </g>
     </g>
    </g>
    <g id="xtick_13">
     <g id="line2d_13">
      <g>
       <use xlink:href="#m2b43fd14da" x="179.911187" y="311.068" style="stroke: #000000; stroke-width: 1.3"/>
      </g>
     </g>
    </g>
    <g id="xtick_14">
     <g id="line2d_14">
      <g>
       <use xlink:href="#m2b43fd14da" x="155.602397" y="311.068" style="stroke: #000000; stroke-width: 1.3"/>
      </g>
     </g>
    </g>
    <g id="xtick_15">
     <g id="line2d_15">
      <g>
       <use xlink:href="#m2b43fd14da" x="143.448002" y="311.068" style="stroke: #000000; stroke-width: 1.3"/>
      </g>
     </g>
    </g>
    <g id="xtick_16">
     <g id="line2d_16">
      <g>
       <use xlink:href="#m2b43fd14da" x="131.293607" y="311.068" style="stroke: #000000; stroke-width: 1.3"/>
      </g>
     </g>
    </g>
    <g id="xtick_17">
     <g id="line2d_17">
      <g>
       <use xlink:href="#m2b43fd14da" x="119.139212" y="311.068" style="stroke: #000000; stroke-width: 1.3"/>
      </g>
     </g>
    </g>
    <g id="xtick_18">
     <g id="line2d_18">
      <g>
       <use xlink:href="#m2b43fd14da" x="94.830422" y="311.068" style="stroke: #000000; stroke-width: 1.3"/>
      </g>
     </g>
    </g>
    <g id="xtick_19">
     <g id="line2d_19">
      <g>
       <use xlink:href="#m2b43fd14da" x="82.676027" y="311.068" style="stroke: #000000; stroke-width: 1.3"/>
      </g>
     </g>
    </g>
    <g id="xtick_20">
     <g id="line2d_20">
      <g>
       <use xlink:href="#m2b43fd14da" x="70.521632" y="311.068" style="stroke: #000000; stroke-width: 1.3"/>
      </g>
     </g>
    </g>
    <g id="xtick_21">
     <g id="line2d_21">
      <g>
       <use xlink:href="#m2b43fd14da" x="58.367237" y="311.068" style="stroke: #000000; stroke-width: 1.3"/>
      </g>
     </g>
    </g>
    <g id="xtick_22">
     <g id="line2d_22">
      <g>
       <use xlink:href="#m2b43fd14da" x="34.058447" y="311.068" style="stroke: #000000; stroke-width: 1.3"/>
      </g>
     </g>
    </g>
    <g id="xtick_23">
     <g id="line2d_23">
      <g>
       <use xlink:href="#m2b43fd14da" x="21.904052" y="311.068" style="stroke: #000000; stroke-width: 1.3"/>
      </g>
     </g>
    </g>
    <g id="text_6">
     <!-- $\rm ^{1}H$ (ppm) -->
     <g transform="translate(127.4892 342.246125)scale(0.1 -0.1)">
      <defs>
       <path id="DejaVuSans-31" d="M 794 531 
L 1825 531 
L 1825 4091 
L 703 3866 
L 703 4441 
L 1819 4666 
L 2450 4666 
L 2450 531 
L 3481 531 
L 3481 0 
L 794 0 
L 794 531 
z
" transform="scale(0.015625)"/>
       <path id="DejaVuSans-48" d="M 628 4666 
L 1259 4666 
L 1259 2753 
L 3553 2753 
L 3553 4666 
L 4184 4666 
L 4184 0 
L 3553 0 
L 3553 2222 
L 1259 2222 
L 1259 0 
L 628 0 
L 628 4666 
z
" transform="scale(0.015625)"/>
       <path id="DejaVuSans-20" transform="scale(0.015625)"/>
       <path id="DejaVuSans-28" d="M 1984 4856 
Q 1566 4138 1362 3434 
Q 1159 2731 1159 2009 
Q 1159 1288 1364 580 
Q 1569 -128 1984 -844 
L 1484 -844 
Q 1016 -109 783 600 
Q 550 1309 550 2009 
Q 550 2706 781 3412 
Q 1013 4119 1484 4856 
L 1984 4856 
z
" transform="scale(0.015625)"/>
       <path id="DejaVuSans-70" d="M 1159 525 
L 1159 -1331 
L 581 -1331 
L 581 3500 
L 1159 3500 
L 1159 2969 
Q 1341 3281 1617 3432 
Q 1894 3584 2278 3584 
Q 2916 3584 3314 3078 
Q 3713 2572 3713 1747 
Q 3713 922 3314 415 
Q 2916 -91 2278 -91 
Q 1894 -91 1617 61 
Q 1341 213 1159 525 
z
M 3116 1747 
Q 3116 2381 2855 2742 
Q 2594 3103 2138 3103 
Q 1681 3103 1420 2742 
Q 1159 2381 1159 1747 
Q 1159 1113 1420 752 
Q 1681 391 2138 391 
Q 2594 391 2855 752 
Q 3116 1113 3116 1747 
z
" transform="scale(0.015625)"/>
       <path id="DejaVuSans-6d" d="M 3328 2828 
Q 3544 3216 3844 3400 
Q 4144 3584 4550 3584 
Q 5097 3584 5394 3201 
Q 5691 2819 5691 2113 
L 5691 0 
L 5113 0 
L 5113 2094 
Q 5113 2597 4934 2840 
Q 4756 3084 4391 3084 
Q 3944 3084 3684 2787 
Q 3425 2491 3425 1978 
L 3425 0 
L 2847 0 
L 2847 2094 
Q 2847 2600 2669 2842 
Q 2491 3084 2119 3084 
Q 1678 3084 1418 2786 
Q 1159 2488 1159 1978 
L 1159 0 
L 581 0 
L 581 3500 
L 1159 3500 
L 1159 2956 
Q 1356 3278 1631 3431 
Q 1906 3584 2284 3584 
Q 2666 3584 2933 3390 
Q 3200 3197 3328 2828 
z
" transform="scale(0.015625)"/>
       <path id="DejaVuSans-29" d="M 513 4856 
L 1013 4856 
Q 1481 4119 1714 3412 
Q 1947 2706 1947 2009 
Q 1947 1309 1714 600 
Q 1481 -109 1013 -844 
L 513 -844 
Q 928 -128 1133 580 
Q 1338 1288 1338 2009 
Q 1338 2731 1133 3434 
Q 928 4138 513 4856 
z
" transform="scale(0.015625)"/>
      </defs>
      <use xlink:href="#DejaVuSans-31" transform="translate(0.957031 38.965625)scale(0.7)"/>
      <use xlink:href="#DejaVuSans-48" transform="translate(48.227539 0.684375)"/>
      <use xlink:href="#DejaVuSans-20" transform="translate(123.422852 0.684375)"/>
      <use xlink:href="#DejaVuSans-28" transform="translate(155.209961 0.684375)"/>
      <use xlink:href="#DejaVuSans-70" transform="translate(194.223633 0.684375)"/>
      <use xlink:href="#DejaVuSans-70" transform="translate(257.700195 0.684375)"/>
      <use xlink:href="#DejaVuSans-6d" transform="translate(321.176758 0.684375)"/>
      <use xlink:href="#DejaVuSans-29" transform="translate(418.588867 0.684375)"/>
     </g>
    </g>
   </g>
   <g id="matplotlib.axis_2">
    <g id="ytick_1">
     <g id="line2d_24">
      <defs>
       <path id="m9ae5625d94" d="M 0 0 
L 5 0 
" style="stroke: #000000; stroke-width: 1.3"/>
      </defs>
      <g>
       <use xlink:href="#m9ae5625d94" x="289.978401" y="14.760073" style="stroke: #000000; stroke-width: 1.3"/>
      </g>
     </g>
    </g>
    <g id="ytick_2">
     <g id="line2d_25">
      <g>
       <use xlink:href="#m9ae5625d94" x="289.978401" y="49.669098" style="stroke: #000000; stroke-width: 1.3"/>
      </g>
     </g>
     <g id="text_7">
      <!-- 114 -->
      <g transform="translate(298.478401 53.468317)scale(0.1 -0.1)">
       <defs>
        <path id="DejaVuSans-34" d="M 2419 4116 
L 825 1625 
L 2419 1625 
L 2419 4116 
z
M 2253 4666 
L 3047 4666 
L 3047 1625 
L 3713 1625 
L 3713 1100 
L 3047 1100 
L 3047 0 
L 2419 0 
L 2419 1100 
L 313 1100 
L 313 1709 
L 2253 4666 
z
" transform="scale(0.015625)"/>
       </defs>
       <use xlink:href="#DejaVuSans-31"/>
       <use xlink:href="#DejaVuSans-31" x="63.623047"/>
       <use xlink:href="#DejaVuSans-34" x="127.246094"/>
      </g>
     </g>
    </g>
    <g id="ytick_3">
     <g id="line2d_26">
      <g>
       <use xlink:href="#m9ae5625d94" x="289.978401" y="84.578123" style="stroke: #000000; stroke-width: 1.3"/>
      </g>
     </g>
     <g id="text_8">
      <!-- 116 -->
      <g transform="translate(298.478401 88.377342)scale(0.1 -0.1)">
       <defs>
        <path id="DejaVuSans-36" d="M 2113 2584 
Q 1688 2584 1439 2293 
Q 1191 2003 1191 1497 
Q 1191 994 1439 701 
Q 1688 409 2113 409 
Q 2538 409 2786 701 
Q 3034 994 3034 1497 
Q 3034 2003 2786 2293 
Q 2538 2584 2113 2584 
z
M 3366 4563 
L 3366 3988 
Q 3128 4100 2886 4159 
Q 2644 4219 2406 4219 
Q 1781 4219 1451 3797 
Q 1122 3375 1075 2522 
Q 1259 2794 1537 2939 
Q 1816 3084 2150 3084 
Q 2853 3084 3261 2657 
Q 3669 2231 3669 1497 
Q 3669 778 3244 343 
Q 2819 -91 2113 -91 
Q 1303 -91 875 529 
Q 447 1150 447 2328 
Q 447 3434 972 4092 
Q 1497 4750 2381 4750 
Q 2619 4750 2861 4703 
Q 3103 4656 3366 4563 
z
" transform="scale(0.015625)"/>
       </defs>
       <use xlink:href="#DejaVuSans-31"/>
       <use xlink:href="#DejaVuSans-31" x="63.623047"/>
       <use xlink:href="#DejaVuSans-36" x="127.246094"/>
      </g>
     </g>
    </g>
    <g id="ytick_4">
     <g id="line2d_27">
      <g>
       <use xlink:href="#m9ae5625d94" x="289.978401" y="119.487148" style="stroke: #000000; stroke-width: 1.3"/>
      </g>
     </g>
     <g id="text_9">
      <!-- 118 -->
      <g transform="translate(298.478401 123.286367)scale(0.1 -0.1)">
       <use xlink:href="#DejaVuSans-31"/>
       <use xlink:href="#DejaVuSans-31" x="63.623047"/>
       <use xlink:href="#DejaVuSans-38" x="127.246094"/>
      </g>
     </g>
    </g>
    <g id="ytick_5">
     <g id="line2d_28">
      <g>
       <use xlink:href="#m9ae5625d94" x="289.978401" y="154.396173" style="stroke: #000000; stroke-width: 1.3"/>
      </g>
     </g>
     <g id="text_10">
      <!-- 120 -->
      <g transform="translate(298.478401 158.195392)scale(0.1 -0.1)">
       <defs>
        <path id="DejaVuSans-32" d="M 1228 531 
L 3431 531 
L 3431 0 
L 469 0 
L 469 531 
Q 828 903 1448 1529 
Q 2069 2156 2228 2338 
Q 2531 2678 2651 2914 
Q 2772 3150 2772 3378 
Q 2772 3750 2511 3984 
Q 2250 4219 1831 4219 
Q 1534 4219 1204 4116 
Q 875 4013 500 3803 
L 500 4441 
Q 881 4594 1212 4672 
Q 1544 4750 1819 4750 
Q 2544 4750 2975 4387 
Q 3406 4025 3406 3419 
Q 3406 3131 3298 2873 
Q 3191 2616 2906 2266 
Q 2828 2175 2409 1742 
Q 1991 1309 1228 531 
z
" transform="scale(0.015625)"/>
       </defs>
       <use xlink:href="#DejaVuSans-31"/>
       <use xlink:href="#DejaVuSans-32" x="63.623047"/>
       <use xlink:href="#DejaVuSans-30" x="127.246094"/>
      </g>
     </g>
    </g>
    <g id="ytick_6">
     <g id="line2d_29">
      <g>
       <use xlink:href="#m9ae5625d94" x="289.978401" y="189.305198" style="stroke: #000000; stroke-width: 1.3"/>
      </g>
     </g>
     <g id="text_11">
      <!-- 122 -->
      <g transform="translate(298.478401 193.104417)scale(0.1 -0.1)">
       <use xlink:href="#DejaVuSans-31"/>
       <use xlink:href="#DejaVuSans-32" x="63.623047"/>
       <use xlink:href="#DejaVuSans-32" x="127.246094"/>
      </g>
     </g>
    </g>
    <g id="ytick_7">
     <g id="line2d_30">
      <g>
       <use xlink:href="#m9ae5625d94" x="289.978401" y="224.214223" style="stroke: #000000; stroke-width: 1.3"/>
      </g>
     </g>
     <g id="text_12">
      <!-- 124 -->
      <g transform="translate(298.478401 228.013442)scale(0.1 -0.1)">
       <use xlink:href="#DejaVuSans-31"/>
       <use xlink:href="#DejaVuSans-32" x="63.623047"/>
       <use xlink:href="#DejaVuSans-34" x="127.246094"/>
      </g>
     </g>
    </g>
    <g id="ytick_8">
     <g id="line2d_31">
      <g>
       <use xlink:href="#m9ae5625d94" x="289.978401" y="259.123248" style="stroke: #000000; stroke-width: 1.3"/>
      </g>
     </g>
     <g id="text_13">
      <!-- 126 -->
      <g transform="translate(298.478401 262.922467)scale(0.1 -0.1)">
       <use xlink:href="#DejaVuSans-31"/>
       <use xlink:href="#DejaVuSans-32" x="63.623047"/>
       <use xlink:href="#DejaVuSans-36" x="127.246094"/>
      </g>
     </g>
    </g>
    <g id="ytick_9">
     <g id="line2d_32">
      <g>
       <use xlink:href="#m9ae5625d94" x="289.978401" y="294.032273" style="stroke: #000000; stroke-width: 1.3"/>
      </g>
     </g>
     <g id="text_14">
      <!-- 128 -->
      <g transform="translate(298.478401 297.831492)scale(0.1 -0.1)">
       <use xlink:href="#DejaVuSans-31"/>
       <use xlink:href="#DejaVuSans-32" x="63.623047"/>
       <use xlink:href="#DejaVuSans-38" x="127.246094"/>
      </g>
     </g>
    </g>
    <g id="ytick_10">
     <g id="line2d_33">
      <defs>
       <path id="m1ebb7d80da" d="M 0 0 
L 3 0 
" style="stroke: #000000; stroke-width: 1.3"/>
      </defs>
      <g>
       <use xlink:href="#m1ebb7d80da" x="289.978401" y="23.487329" style="stroke: #000000; stroke-width: 1.3"/>
      </g>
     </g>
    </g>
    <g id="ytick_11">
     <g id="line2d_34">
      <g>
       <use xlink:href="#m1ebb7d80da" x="289.978401" y="32.214586" style="stroke: #000000; stroke-width: 1.3"/>
      </g>
     </g>
    </g>
    <g id="ytick_12">
     <g id="line2d_35">
      <g>
       <use xlink:href="#m1ebb7d80da" x="289.978401" y="40.941842" style="stroke: #000000; stroke-width: 1.3"/>
      </g>
     </g>
    </g>
    <g id="ytick_13">
     <g id="line2d_36">
      <g>
       <use xlink:href="#m1ebb7d80da" x="289.978401" y="58.396354" style="stroke: #000000; stroke-width: 1.3"/>
      </g>
     </g>
    </g>
    <g id="ytick_14">
     <g id="line2d_37">
      <g>
       <use xlink:href="#m1ebb7d80da" x="289.978401" y="67.12361" style="stroke: #000000; stroke-width: 1.3"/>
      </g>
     </g>
    </g>
    <g id="ytick_15">
     <g id="line2d_38">
      <g>
       <use xlink:href="#m1ebb7d80da" x="289.978401" y="75.850867" style="stroke: #000000; stroke-width: 1.3"/>
      </g>
     </g>
    </g>
    <g id="ytick_16">
     <g id="line2d_39">
      <g>
       <use xlink:href="#m1ebb7d80da" x="289.978401" y="93.305379" style="stroke: #000000; stroke-width: 1.3"/>
      </g>
     </g>
    </g>
    <g id="ytick_17">
     <g id="line2d_40">
      <g>
       <use xlink:href="#m1ebb7d80da" x="289.978401" y="102.032635" style="stroke: #000000; stroke-width: 1.3"/>
      </g>
     </g>
    </g>
    <g id="ytick_18">
     <g id="line2d_41">
      <g>
       <use xlink:href="#m1ebb7d80da" x="289.978401" y="110.759892" style="stroke: #000000; stroke-width: 1.3"/>
      </g>
     </g>
    </g>
    <g id="ytick_19">
     <g id="line2d_42">
      <g>
       <use xlink:href="#m1ebb7d80da" x="289.978401" y="128.214404" style="stroke: #000000; stroke-width: 1.3"/>
      </g>
     </g>
    </g>
    <g id="ytick_20">
     <g id="line2d_43">
      <g>
       <use xlink:href="#m1ebb7d80da" x="289.978401" y="136.94166" style="stroke: #000000; stroke-width: 1.3"/>
      </g>
     </g>
    </g>
    <g id="ytick_21">
     <g id="line2d_44">
      <g>
       <use xlink:href="#m1ebb7d80da" x="289.978401" y="145.668917" style="stroke: #000000; stroke-width: 1.3"/>
      </g>
     </g>
    </g>
    <g id="ytick_22">
     <g id="line2d_45">
      <g>
       <use xlink:href="#m1ebb7d80da" x="289.978401" y="163.123429" style="stroke: #000000; stroke-width: 1.3"/>
      </g>
     </g>
    </g>
    <g id="ytick_23">
     <g id="line2d_46">
      <g>
       <use xlink:href="#m1ebb7d80da" x="289.978401" y="171.850685" style="stroke: #000000; stroke-width: 1.3"/>
      </g>
     </g>
    </g>
    <g id="ytick_24">
     <g id="line2d_47">
      <g>
       <use xlink:href="#m1ebb7d80da" x="289.978401" y="180.577942" style="stroke: #000000; stroke-width: 1.3"/>
      </g>
     </g>
    </g>
    <g id="ytick_25">
     <g id="line2d_48">
      <g>
       <use xlink:href="#m1ebb7d80da" x="289.978401" y="198.032454" style="stroke: #000000; stroke-width: 1.3"/>
      </g>
     </g>
    </g>
    <g id="ytick_26">
     <g id="line2d_49">
      <g>
       <use xlink:href="#m1ebb7d80da" x="289.978401" y="206.75971" style="stroke: #000000; stroke-width: 1.3"/>
      </g>
     </g>
    </g>
    <g id="ytick_27">
     <g id="line2d_50">
      <g>
       <use xlink:href="#m1ebb7d80da" x="289.978401" y="215.486967" style="stroke: #000000; stroke-width: 1.3"/>
      </g>
     </g>
    </g>
    <g id="ytick_28">
     <g id="line2d_51">
      <g>
       <use xlink:href="#m1ebb7d80da" x="289.978401" y="232.941479" style="stroke: #000000; stroke-width: 1.3"/>
      </g>
     </g>
    </g>
    <g id="ytick_29">
     <g id="line2d_52">
      <g>
       <use xlink:href="#m1ebb7d80da" x="289.978401" y="241.668735" style="stroke: #000000; stroke-width: 1.3"/>
      </g>
     </g>
    </g>
    <g id="ytick_30">
     <g id="line2d_53">
      <g>
       <use xlink:href="#m1ebb7d80da" x="289.978401" y="250.395992" style="stroke: #000000; stroke-width: 1.3"/>
      </g>
     </g>
    </g>
    <g id="ytick_31">
     <g id="line2d_54">
      <g>
       <use xlink:href="#m1ebb7d80da" x="289.978401" y="267.850504" style="stroke: #000000; stroke-width: 1.3"/>
      </g>
     </g>
    </g>
    <g id="ytick_32">
     <g id="line2d_55">
      <g>
       <use xlink:href="#m1ebb7d80da" x="289.978401" y="276.57776" style="stroke: #000000; stroke-width: 1.3"/>
      </g>
     </g>
    </g>
    <g id="ytick_33">
     <g id="line2d_56">
      <g>
       <use xlink:href="#m1ebb7d80da" x="289.978401" y="285.305017" style="stroke: #000000; stroke-width: 1.3"/>
      </g>
     </g>
    </g>
    <g id="ytick_34">
     <g id="line2d_57">
      <g>
       <use xlink:href="#m1ebb7d80da" x="289.978401" y="302.759529" style="stroke: #000000; stroke-width: 1.3"/>
      </g>
     </g>
    </g>
    <g id="text_15">
     <!-- $\rm ^{15}N$ (ppm) -->
     <g transform="translate(298.353753 23.187729)scale(0.1 -0.1)">
      <defs>
       <path id="DejaVuSans-4e" d="M 628 4666 
L 1478 4666 
L 3547 763 
L 3547 4666 
L 4159 4666 
L 4159 0 
L 3309 0 
L 1241 3903 
L 1241 0 
L 628 0 
L 628 4666 
z
" transform="scale(0.015625)"/>
      </defs>
      <use xlink:href="#DejaVuSans-31" transform="translate(0.957031 38.965625)scale(0.7)"/>
      <use xlink:href="#DejaVuSans-35" transform="translate(45.493164 38.965625)scale(0.7)"/>
      <use xlink:href="#DejaVuSans-4e" transform="translate(92.763672 0.684375)"/>
      <use xlink:href="#DejaVuSans-20" transform="translate(167.568359 0.684375)"/>
      <use xlink:href="#DejaVuSans-28" transform="translate(199.355469 0.684375)"/>
      <use xlink:href="#DejaVuSans-70" transform="translate(238.369141 0.684375)"/>
      <use xlink:href="#DejaVuSans-70" transform="translate(301.845703 0.684375)"/>
      <use xlink:href="#DejaVuSans-6d" transform="translate(365.322266 0.684375)"/>
      <use xlink:href="#DejaVuSans-29" transform="translate(462.734375 0.684375)"/>
     </g>
    </g>
   </g>
   <g id="PathCollection_1"/>
   <g id="PathCollection_2"/>
   <g id="PathCollection_3"/>
   <g id="PathCollection_4"/>
   <g id="PathCollection_5"/>
   <g id="PathCollection_6"/>
   <g id="PathCollection_7"/>
   <g id="PathCollection_8"/>
   <g id="PathCollection_9"/>
   <g id="PathCollection_10"/>
   <g id="PathCollection_11">
    <path d="M 33.64836 296.343491 
L 34.362371 296.478777 
L 35.076383 296.496059 
L 35.790394 296.424466 
L 36.504405 296.205542 
L 36.778615 296.053366 
L 37.218416 295.815133 
L 37.656323 295.370882 
L 37.927002 294.688399 
L 37.932428 294.644781 
L 38.064989 294.005915 
L 38.000696 293.323432 
L 37.932428 293.141546 
L 37.780085 292.640949 
L 37.218416 292.022291 
L 37.111448 291.958465 
L 36.504405 291.613963 
L 35.790394 291.466118 
L 35.076383 291.442642 
L 34.362371 291.508289 
L 33.64836 291.701041 
L 33.183654 291.958465 
L 32.934349 292.087616 
L 32.286415 292.640949 
L 32.220338 292.761847 
L 31.841407 293.323432 
L 31.77046 294.005915 
L 31.93661 294.688399 
L 32.220338 295.150879 
L 32.330209 295.370882 
L 32.934349 295.96248 
L 33.108143 296.053366 
L 33.64836 296.343491 
z
" clip-path="url(#pfa7160e8aa)" style="fill: none; stroke: #023eff; stroke-width: 0.7"/>
    <path d="M 85.771182 251.186931 
L 86.485193 251.364168 
L 87.199204 251.403883 
L 87.913216 251.344358 
L 88.627227 251.165607 
L 88.948793 251.009462 
L 89.341238 250.864341 
L 90.055249 250.344691 
L 90.075051 250.326979 
L 90.59622 249.644496 
L 90.739087 248.962012 
L 90.652866 248.279529 
L 90.203787 247.597045 
L 90.055249 247.469261 
L 89.341238 247.012993 
L 89.05806 246.914562 
L 88.627227 246.737926 
L 87.913216 246.611206 
L 87.199204 246.582201 
L 86.485193 246.630483 
L 85.771182 246.781394 
L 85.453997 246.914562 
L 85.057171 247.062056 
L 84.353135 247.597045 
L 84.343159 247.611412 
L 83.892372 248.279529 
L 83.774683 248.962012 
L 83.888392 249.644496 
L 84.343159 250.279411 
L 84.379905 250.326979 
L 85.057171 250.850924 
L 85.436871 251.009462 
L 85.771182 251.186931 
z
" clip-path="url(#pfa7160e8aa)" style="fill: none; stroke: #023eff; stroke-width: 0.7"/>
    <path d="M 126.469823 213.712364 
L 127.183835 213.852607 
L 127.897846 213.881864 
L 128.611857 213.821103 
L 129.325868 213.628412 
L 129.644875 213.472876 
L 130.03988 213.321914 
L 130.75147 212.790393 
L 130.753891 212.787356 
L 131.292412 212.10791 
L 131.41789 211.425426 
L 131.325459 210.742943 
L 130.983403 210.060459 
L 130.753891 209.781779 
L 130.307281 209.377976 
L 130.03988 209.156179 
L 129.325868 208.885728 
L 128.611857 208.774016 
L 127.897846 208.758767 
L 127.183835 208.806205 
L 126.469823 208.929988 
L 125.755812 209.192999 
L 125.471013 209.377976 
L 125.041801 209.652622 
L 124.59745 210.060459 
L 124.32779 210.612696 
L 124.247727 210.742943 
L 124.169759 211.425426 
L 124.32779 211.844948 
L 124.389512 212.10791 
L 124.846272 212.790393 
L 125.041801 212.973856 
L 125.755812 213.422919 
L 125.914617 213.472876 
L 126.469823 213.712364 
z
" clip-path="url(#pfa7160e8aa)" style="fill: none; stroke: #023eff; stroke-width: 0.7"/>
    <path d="M 261.41795 38.341743 
L 262.131962 38.472114 
L 262.845973 38.499245 
L 263.559984 38.449564 
L 264.273996 38.284737 
L 264.7716 38.074647 
L 264.988007 38.00848 
L 265.702018 37.654015 
L 266.071072 37.392164 
L 266.416029 36.876919 
L 266.546295 36.70968 
L 266.617524 36.027197 
L 266.416029 35.545472 
L 266.369585 35.344714 
L 265.968834 34.66223 
L 265.702018 34.407995 
L 264.988007 33.989404 
L 264.959881 33.979747 
L 264.273996 33.719017 
L 263.559984 33.583936 
L 262.845973 33.558218 
L 262.131962 33.597035 
L 261.41795 33.723046 
L 260.768177 33.979747 
L 260.703939 34.001897 
L 259.989928 34.481412 
L 259.816331 34.66223 
L 259.480683 35.344714 
L 259.403233 36.027197 
L 259.483058 36.70968 
L 259.862336 37.392164 
L 259.989928 37.528941 
L 260.703939 38.060848 
L 260.749462 38.074647 
L 261.41795 38.341743 
z
" clip-path="url(#pfa7160e8aa)" style="fill: none; stroke: #023eff; stroke-width: 0.7"/>
   </g>
   <g id="PathCollection_12">
    <path d="M 34.362371 296.236191 
L 35.076383 296.277688 
L 35.790394 296.180561 
L 36.136265 296.053366 
L 36.504405 295.951918 
L 37.218416 295.481293 
L 37.327251 295.370882 
L 37.725144 294.688399 
L 37.828247 294.005915 
L 37.770181 293.323432 
L 37.469241 292.640949 
L 37.218416 292.364675 
L 36.537629 291.958465 
L 36.504405 291.93961 
L 35.790394 291.699215 
L 35.076383 291.652971 
L 34.362371 291.740896 
L 33.764257 291.958465 
L 33.64836 291.990451 
L 32.934349 292.381646 
L 32.630714 292.640949 
L 32.243649 293.323432 
L 32.220338 293.533424 
L 32.132047 294.005915 
L 32.220338 294.302496 
L 32.287554 294.688399 
L 32.668726 295.370882 
L 32.934349 295.63099 
L 33.64836 296.026128 
L 33.765403 296.053366 
L 34.362371 296.236191 
z
" clip-path="url(#pfa7160e8aa)" style="fill: none; stroke: #023eff; stroke-width: 0.7"/>
    <path d="M 87.199204 251.075485 
L 87.811501 251.009462 
L 87.913216 251.003525 
L 88.627227 250.869285 
L 89.341238 250.539754 
L 89.629266 250.326979 
L 90.055249 249.824833 
L 90.194959 249.644496 
L 90.397785 248.962012 
L 90.262937 248.279529 
L 90.055249 247.997216 
L 89.733909 247.597045 
L 89.341238 247.316779 
L 88.627227 247.019838 
L 87.989927 246.914562 
L 87.913216 246.897113 
L 87.199204 246.848091 
L 86.524332 246.914562 
L 86.485193 246.916998 
L 85.771182 247.052087 
L 85.057171 247.386296 
L 84.779829 247.597045 
L 84.343159 248.22596 
L 84.307016 248.279529 
L 84.144532 248.962012 
L 84.329416 249.644496 
L 84.343159 249.663683 
L 84.85555 250.326979 
L 85.057171 250.482956 
L 85.771182 250.860695 
L 86.485193 251.00538 
L 86.555784 251.009462 
L 87.199204 251.075485 
z
" clip-path="url(#pfa7160e8aa)" style="fill: none; stroke: #023eff; stroke-width: 0.7"/>
    <path d="M 127.183835 213.565128 
L 127.897846 213.610122 
L 128.611857 213.517599 
L 128.749295 213.472876 
L 129.325868 213.341731 
L 130.03988 213.002618 
L 130.324002 212.790393 
L 130.753891 212.251124 
L 130.867401 212.10791 
L 131.067863 211.425426 
L 130.944738 210.742943 
L 130.753891 210.427142 
L 130.547007 210.060459 
L 130.03988 209.588724 
L 129.621886 209.377976 
L 129.325868 209.224882 
L 128.611857 209.029233 
L 127.897846 208.983459 
L 127.183835 209.039017 
L 126.469823 209.215626 
L 126.112745 209.377976 
L 125.755812 209.522866 
L 125.052984 210.060459 
L 125.041801 210.075412 
L 124.588582 210.742943 
L 124.513667 211.425426 
L 124.70863 212.10791 
L 125.041801 212.535373 
L 125.259879 212.790393 
L 125.755812 213.161161 
L 126.469823 213.411446 
L 126.833299 213.472876 
L 127.183835 213.565128 
z
" clip-path="url(#pfa7160e8aa)" style="fill: none; stroke: #023eff; stroke-width: 0.7"/>
    <path d="M 262.131962 38.171214 
L 262.845973 38.220207 
L 263.559984 38.149784 
L 263.812909 38.074647 
L 264.273996 37.985257 
L 264.988007 37.728328 
L 265.510484 37.392164 
L 265.702018 37.185048 
L 266.093865 36.70968 
L 266.197508 36.027197 
L 266.013504 35.344714 
L 265.702018 34.918009 
L 265.508431 34.66223 
L 264.988007 34.268627 
L 264.273996 34.007356 
L 264.133171 33.979747 
L 263.559984 33.825695 
L 262.845973 33.779998 
L 262.131962 33.83426 
L 261.55171 33.979747 
L 261.41795 34.003814 
L 260.703939 34.262844 
L 260.193087 34.66223 
L 259.989928 34.951864 
L 259.759633 35.344714 
L 259.656048 36.027197 
L 259.801268 36.70968 
L 259.989928 37.005978 
L 260.252355 37.392164 
L 260.703939 37.773826 
L 261.41795 38.019316 
L 261.759336 38.074647 
L 262.131962 38.171214 
z
" clip-path="url(#pfa7160e8aa)" style="fill: none; stroke: #023eff; stroke-width: 0.7"/>
   </g>
   <g id="PathCollection_13">
    <path d="M 33.64836 295.749624 
L 34.362371 295.954598 
L 35.076383 295.997266 
L 35.790394 295.924445 
L 36.504405 295.67777 
L 36.925316 295.370882 
L 37.218416 295.004755 
L 37.422358 294.688399 
L 37.570501 294.005915 
L 37.474085 293.323432 
L 37.218416 292.878853 
L 37.050215 292.640949 
L 36.504405 292.225106 
L 35.790394 292.009708 
L 35.076383 291.964092 
L 34.362371 292.032079 
L 33.64836 292.255165 
L 33.091736 292.640949 
L 32.934349 292.821734 
L 32.565872 293.323432 
L 32.450882 294.005915 
L 32.604897 294.688399 
L 32.934349 295.156057 
L 33.11874 295.370882 
L 33.64836 295.749624 
z
" clip-path="url(#pfa7160e8aa)" style="fill: none; stroke: #023eff; stroke-width: 0.7"/>
    <path d="M 85.771182 250.501156 
L 86.485193 250.727781 
L 87.199204 250.79166 
L 87.913216 250.736849 
L 88.627227 250.537454 
L 89.005493 250.326979 
L 89.341238 250.075324 
L 89.738638 249.644496 
L 89.938255 248.962012 
L 89.79285 248.279529 
L 89.341238 247.77279 
L 89.119269 247.597045 
L 88.627227 247.331283 
L 87.913216 247.151753 
L 87.199204 247.106761 
L 86.485193 247.168982 
L 85.771182 247.376234 
L 85.381411 247.597045 
L 85.057171 247.87832 
L 84.727411 248.279529 
L 84.576229 248.962012 
L 84.770827 249.644496 
L 85.057171 249.970386 
L 85.483377 250.326979 
L 85.771182 250.501156 
z
" clip-path="url(#pfa7160e8aa)" style="fill: none; stroke: #023eff; stroke-width: 0.7"/>
    <path d="M 126.469823 213.13452 
L 127.183835 213.29536 
L 127.897846 213.330085 
L 128.611857 213.255976 
L 129.325868 213.023502 
L 129.731502 212.790393 
L 130.03988 212.546727 
L 130.432285 212.10791 
L 130.623364 211.425426 
L 130.514935 210.742943 
L 130.03988 210.084743 
L 130.018686 210.060459 
L 129.325868 209.585821 
L 128.611857 209.398215 
L 128.366962 209.377976 
L 127.897846 209.320497 
L 127.288756 209.377976 
L 127.183835 209.384169 
L 126.469823 209.538038 
L 125.755812 209.9054 
L 125.553093 210.060459 
L 125.042367 210.742943 
L 125.041801 210.746668 
L 124.916915 211.425426 
L 125.041801 211.769851 
L 125.143285 212.10791 
L 125.755812 212.770284 
L 125.786442 212.790393 
L 126.469823 213.13452 
z
" clip-path="url(#pfa7160e8aa)" style="fill: none; stroke: #023eff; stroke-width: 0.7"/>
    <path d="M 261.41795 37.737038 
L 262.131962 37.89748 
L 262.845973 37.936997 
L 263.559984 37.882729 
L 264.273996 37.691805 
L 264.871038 37.392164 
L 264.988007 37.313172 
L 265.576196 36.70968 
L 265.702018 36.099168 
L 265.720406 36.027197 
L 265.702018 35.969434 
L 265.555586 35.344714 
L 264.988007 34.686763 
L 264.959999 34.66223 
L 264.273996 34.271893 
L 263.559984 34.100332 
L 262.845973 34.055908 
L 262.131962 34.099717 
L 261.41795 34.259165 
L 260.703939 34.654264 
L 260.693749 34.66223 
L 260.136384 35.344714 
L 260.023666 36.027197 
L 260.185618 36.70968 
L 260.703939 37.347 
L 260.764637 37.392164 
L 261.41795 37.737038 
z
" clip-path="url(#pfa7160e8aa)" style="fill: none; stroke: #023eff; stroke-width: 0.7"/>
   </g>
   <g id="PathCollection_14">
    <path d="M 34.362371 295.656845 
L 35.076383 295.730264 
L 35.790394 295.628001 
L 36.342812 295.370882 
L 36.504405 295.27237 
L 37.026979 294.688399 
L 37.191909 294.005915 
L 37.072935 293.323432 
L 36.504405 292.641122 
L 36.504137 292.640949 
L 35.790394 292.30701 
L 35.076383 292.230379 
L 34.362371 292.325416 
L 33.666743 292.640949 
L 33.64836 292.652088 
L 33.021325 293.323432 
L 32.934349 293.720835 
L 32.863935 294.005915 
L 32.934349 294.249125 
L 33.046709 294.688399 
L 33.64836 295.336737 
L 33.707561 295.370882 
L 34.362371 295.656845 
z
" clip-path="url(#pfa7160e8aa)" style="fill: none; stroke: #023eff; stroke-width: 0.7"/>
    <path d="M 87.199204 250.414391 
L 87.913216 250.336836 
L 87.942452 250.326979 
L 88.627227 250.059649 
L 89.137665 249.644496 
L 89.341238 249.139673 
L 89.40795 248.962012 
L 89.341238 248.739491 
L 89.196101 248.279529 
L 88.627227 247.799917 
L 88.139984 247.597045 
L 87.913216 247.52263 
L 87.199204 247.452718 
L 86.485193 247.546958 
L 86.345716 247.597045 
L 85.771182 247.867823 
L 85.312188 248.279529 
L 85.113796 248.962012 
L 85.375375 249.644496 
L 85.771182 249.991474 
L 86.485193 250.312656 
L 86.584563 250.326979 
L 87.199204 250.414391 
z
" clip-path="url(#pfa7160e8aa)" style="fill: none; stroke: #023eff; stroke-width: 0.7"/>
    <path d="M 127.183835 212.956619 
L 127.897846 213.007169 
L 128.611857 212.895184 
L 128.870406 212.790393 
L 129.325868 212.572909 
L 129.873869 212.10791 
L 130.03988 211.68071 
L 130.13633 211.425426 
L 130.03988 210.997162 
L 129.988309 210.742943 
L 129.367708 210.060459 
L 129.325868 210.031796 
L 128.611857 209.739208 
L 127.897846 209.647199 
L 127.183835 209.700367 
L 126.469823 209.924611 
L 126.237748 210.060459 
L 125.755812 210.490621 
L 125.541956 210.742943 
L 125.387649 211.425426 
L 125.644071 212.10791 
L 125.755812 212.228745 
L 126.469823 212.726203 
L 126.65478 212.790393 
L 127.183835 212.956619 
z
" clip-path="url(#pfa7160e8aa)" style="fill: none; stroke: #023eff; stroke-width: 0.7"/>
    <path d="M 262.131962 37.559395 
L 262.845973 37.620432 
L 263.559984 37.5371 
L 263.965355 37.392164 
L 264.273996 37.265867 
L 264.988007 36.720865 
L 264.998908 36.70968 
L 265.242284 36.027197 
L 265.028633 35.344714 
L 264.988007 35.297619 
L 264.273996 34.668847 
L 264.259506 34.66223 
L 263.559984 34.414795 
L 262.845973 34.341828 
L 262.131962 34.404135 
L 261.41795 34.642191 
L 261.381988 34.66223 
L 260.703939 35.248656 
L 260.624991 35.344714 
L 260.446914 36.027197 
L 260.671003 36.70968 
L 260.703939 36.750178 
L 261.41795 37.321197 
L 261.612685 37.392164 
L 262.131962 37.559395 
z
" clip-path="url(#pfa7160e8aa)" style="fill: none; stroke: #023eff; stroke-width: 0.7"/>
   </g>
   <g id="PathCollection_15">
    <path d="M 33.64836 294.746864 
L 34.362371 295.217445 
L 35.076383 295.331644 
L 35.790394 295.192633 
L 36.504405 294.689952 
L 36.505795 294.688399 
L 36.746767 294.005915 
L 36.558693 293.323432 
L 36.504405 293.258279 
L 35.790394 292.75147 
L 35.147732 292.640949 
L 35.076383 292.62981 
L 35.012312 292.640949 
L 34.362371 292.763065 
L 33.64836 293.239894 
L 33.570336 293.323432 
L 33.3547 294.005915 
L 33.594105 294.688399 
L 33.64836 294.746864 
z
" clip-path="url(#pfa7160e8aa)" style="fill: none; stroke: #023eff; stroke-width: 0.7"/>
    <path d="M 86.485193 249.739113 
L 87.199204 249.886545 
L 87.913216 249.781555 
L 88.184868 249.644496 
L 88.627227 249.047221 
L 88.669338 248.962012 
L 88.627227 248.858327 
L 88.287014 248.279529 
L 87.913216 248.082264 
L 87.199204 247.975329 
L 86.485193 248.12146 
L 86.213249 248.279529 
L 85.8537 248.962012 
L 86.316482 249.644496 
L 86.485193 249.739113 
z
" clip-path="url(#pfa7160e8aa)" style="fill: none; stroke: #023eff; stroke-width: 0.7"/>
    <path d="M 126.469823 212.164951 
L 127.183835 212.481217 
L 127.897846 212.547809 
L 128.611857 212.395891 
L 129.100951 212.10791 
L 129.325868 211.786987 
L 129.511515 211.425426 
L 129.330273 210.742943 
L 129.325868 210.738203 
L 128.611857 210.260136 
L 127.897846 210.104991 
L 127.183835 210.180658 
L 126.469823 210.52658 
L 126.232656 210.742943 
L 126.023039 211.425426 
L 126.393668 212.10791 
L 126.469823 212.164951 
z
" clip-path="url(#pfa7160e8aa)" style="fill: none; stroke: #023eff; stroke-width: 0.7"/>
    <path d="M 261.41795 36.74733 
L 262.131962 37.086458 
L 262.845973 37.169947 
L 263.559984 37.053317 
L 264.217601 36.70968 
L 264.273996 36.635459 
L 264.591635 36.027197 
L 264.348126 35.344714 
L 264.273996 35.277792 
L 263.559984 34.892102 
L 262.845973 34.77315 
L 262.131962 34.864624 
L 261.41795 35.224201 
L 261.283517 35.344714 
L 261.046343 36.027197 
L 261.372042 36.70968 
L 261.41795 36.74733 
z
" clip-path="url(#pfa7160e8aa)" style="fill: none; stroke: #023eff; stroke-width: 0.7"/>
   </g>
   <g id="PathCollection_16">
    <path d="M 35.076383 294.758396 
L 35.343252 294.688399 
L 35.790394 294.403167 
L 36.011064 294.005915 
L 35.790394 293.541065 
L 35.485136 293.323432 
L 35.076383 293.218338 
L 34.669181 293.323432 
L 34.362371 293.533689 
L 34.119717 294.005915 
L 34.362371 294.439886 
L 34.78105 294.688399 
L 35.076383 294.758396 
z
" clip-path="url(#pfa7160e8aa)" style="fill: none; stroke: #023eff; stroke-width: 0.7"/>
    <path d="M 127.183835 211.497551 
L 127.897846 211.685226 
L 128.34408 211.425426 
L 127.897846 210.984358 
L 127.183835 211.303513 
L 127.115654 211.425426 
L 127.183835 211.497551 
z
" clip-path="url(#pfa7160e8aa)" style="fill: none; stroke: #023eff; stroke-width: 0.7"/>
    <path d="M 262.131962 36.08967 
L 262.845973 36.344504 
L 263.474019 36.027197 
L 262.845973 35.582071 
L 262.131962 35.940825 
L 262.079373 36.027197 
L 262.131962 36.08967 
z
" clip-path="url(#pfa7160e8aa)" style="fill: none; stroke: #023eff; stroke-width: 0.7"/>
   </g>
   <g id="PathCollection_17"/>
   <g id="PathCollection_18"/>
   <g id="PathCollection_19"/>
   <g id="PathCollection_20"/>
   <g id="patch_3">
    <path d="M 10.8 311.068 
L 10.8 14.187729 
" style="fill: none; stroke: #000000; stroke-width: 1.3; stroke-linejoin: miter; stroke-linecap: square"/>
   </g>
   <g id="patch_4">
    <path d="M 289.978401 311.068 
L 289.978401 14.187729 
" style="fill: none; stroke: #000000; stroke-width: 1.3; stroke-linejoin: miter; stroke-linecap: square"/>
   </g>
   <g id="patch_5">
    <path d="M 10.8 311.068 
L 289.978401 311.068 
" style="fill: none; stroke: #000000; stroke-width: 1.3; stroke-linejoin: miter; stroke-linecap: square"/>
   </g>
   <g id="patch_6">
    <path d="M 10.8 14.187729 
L 289.978401 14.187729 
" style="fill: none; stroke: #000000; stroke-width: 1.3; stroke-linejoin: miter; stroke-linecap: square"/>
   </g>
  </g>
 </g>
 <defs>
  <clipPath id="pfa7160e8aa">
   <rect x="10.8" y="14.187729" width="279.178401" height="296.880271"/>
  </clipPath>
 </defs>
</svg>
