<?xml version="1.0" encoding="utf-8" standalone="no"?>
<!DOCTYPE svg PUBLIC "-//W3C//DTD SVG 1.1//EN"
  "http://www.w3.org/Graphics/SVG/1.1/DTD/svg11.dtd">
<!-- Created with matplotlib (https://matplotlib.org/) -->
<svg height="288pt" version="1.1" viewBox="0 0 432 288" width="432pt" xmlns="http://www.w3.org/2000/svg" xmlns:xlink="http://www.w3.org/1999/xlink">
 <metadata>
  <rdf:RDF xmlns:cc="http://creativecommons.org/ns#" xmlns:dc="http://purl.org/dc/elements/1.1/" xmlns:rdf="http://www.w3.org/1999/02/22-rdf-syntax-ns#">
   <cc:Work>
    <dc:type rdf:resource="http://purl.org/dc/dcmitype/StillImage"/>
    <dc:date>2021-02-08T21:52:24.031412</dc:date>
    <dc:format>image/svg+xml</dc:format>
    <dc:creator>
     <cc:Agent>
      <dc:title>Matplotlib v3.3.4, https://matplotlib.org/</dc:title>
     </cc:Agent>
    </dc:creator>
   </cc:Work>
  </rdf:RDF>
 </metadata>
 <defs>
  <style type="text/css">*{stroke-linecap:butt;stroke-linejoin:round;}</style>
 </defs>
 <g id="figure_1">
  <g id="patch_1">
   <path d="M 0 288 
L 432 288 
L 432 0 
L 0 0 
z
" style="fill:#ffffff;"/>
  </g>
  <g id="axes_1">
   <g id="patch_2">
    <path d="M 10.8 239.068 
L 421.2 239.068 
L 421.2 10.8 
L 10.8 10.8 
z
" style="fill:#ffffff;"/>
   </g>
   <g id="matplotlib.axis_1">
    <g id="xtick_1">
     <g id="line2d_1">
      <defs>
       <path d="M 0 0 
L 0 5 
" id="m4f2fe81d55" style="stroke:#000000;stroke-width:1.3;"/>
      </defs>
      <g>
       <use style="stroke:#000000;stroke-width:1.3;" x="379.800312" xlink:href="#m4f2fe81d55" y="239.068"/>
      </g>
     </g>
     <g id="text_1">
      <!-- −2 -->
      <g transform="translate(372.429218 255.166437)scale(0.1 -0.1)">
       <defs>
        <path d="M 10.59375 35.5 
L 73.1875 35.5 
L 73.1875 27.203125 
L 10.59375 27.203125 
z
" id="DejaVuSans-8722"/>
        <path d="M 19.1875 8.296875 
L 53.609375 8.296875 
L 53.609375 0 
L 7.328125 0 
L 7.328125 8.296875 
Q 12.9375 14.109375 22.625 23.890625 
Q 32.328125 33.6875 34.8125 36.53125 
Q 39.546875 41.84375 41.421875 45.53125 
Q 43.3125 49.21875 43.3125 52.78125 
Q 43.3125 58.59375 39.234375 62.25 
Q 35.15625 65.921875 28.609375 65.921875 
Q 23.96875 65.921875 18.8125 64.3125 
Q 13.671875 62.703125 7.8125 59.421875 
L 7.8125 69.390625 
Q 13.765625 71.78125 18.9375 73 
Q 24.125 74.21875 28.421875 74.21875 
Q 39.75 74.21875 46.484375 68.546875 
Q 53.21875 62.890625 53.21875 53.421875 
Q 53.21875 48.921875 51.53125 44.890625 
Q 49.859375 40.875 45.40625 35.40625 
Q 44.1875 33.984375 37.640625 27.21875 
Q 31.109375 20.453125 19.1875 8.296875 
z
" id="DejaVuSans-50"/>
       </defs>
       <use xlink:href="#DejaVuSans-8722"/>
       <use x="83.789062" xlink:href="#DejaVuSans-50"/>
      </g>
     </g>
    </g>
    <g id="xtick_2">
     <g id="line2d_2">
      <g>
       <use style="stroke:#000000;stroke-width:1.3;" x="333.000223" xlink:href="#m4f2fe81d55" y="239.068"/>
      </g>
     </g>
     <g id="text_2">
      <!-- 0 -->
      <g transform="translate(329.818973 255.166437)scale(0.1 -0.1)">
       <defs>
        <path d="M 31.78125 66.40625 
Q 24.171875 66.40625 20.328125 58.90625 
Q 16.5 51.421875 16.5 36.375 
Q 16.5 21.390625 20.328125 13.890625 
Q 24.171875 6.390625 31.78125 6.390625 
Q 39.453125 6.390625 43.28125 13.890625 
Q 47.125 21.390625 47.125 36.375 
Q 47.125 51.421875 43.28125 58.90625 
Q 39.453125 66.40625 31.78125 66.40625 
z
M 31.78125 74.21875 
Q 44.046875 74.21875 50.515625 64.515625 
Q 56.984375 54.828125 56.984375 36.375 
Q 56.984375 17.96875 50.515625 8.265625 
Q 44.046875 -1.421875 31.78125 -1.421875 
Q 19.53125 -1.421875 13.0625 8.265625 
Q 6.59375 17.96875 6.59375 36.375 
Q 6.59375 54.828125 13.0625 64.515625 
Q 19.53125 74.21875 31.78125 74.21875 
z
" id="DejaVuSans-48"/>
       </defs>
       <use xlink:href="#DejaVuSans-48"/>
      </g>
     </g>
    </g>
    <g id="xtick_3">
     <g id="line2d_3">
      <g>
       <use style="stroke:#000000;stroke-width:1.3;" x="286.200134" xlink:href="#m4f2fe81d55" y="239.068"/>
      </g>
     </g>
     <g id="text_3">
      <!-- 2 -->
      <g transform="translate(283.018884 255.166437)scale(0.1 -0.1)">
       <use xlink:href="#DejaVuSans-50"/>
      </g>
     </g>
    </g>
    <g id="xtick_4">
     <g id="line2d_4">
      <g>
       <use style="stroke:#000000;stroke-width:1.3;" x="239.400045" xlink:href="#m4f2fe81d55" y="239.068"/>
      </g>
     </g>
     <g id="text_4">
      <!-- 4 -->
      <g transform="translate(236.218795 255.166437)scale(0.1 -0.1)">
       <defs>
        <path d="M 37.796875 64.3125 
L 12.890625 25.390625 
L 37.796875 25.390625 
z
M 35.203125 72.90625 
L 47.609375 72.90625 
L 47.609375 25.390625 
L 58.015625 25.390625 
L 58.015625 17.1875 
L 47.609375 17.1875 
L 47.609375 0 
L 37.796875 0 
L 37.796875 17.1875 
L 4.890625 17.1875 
L 4.890625 26.703125 
z
" id="DejaVuSans-52"/>
       </defs>
       <use xlink:href="#DejaVuSans-52"/>
      </g>
     </g>
    </g>
    <g id="xtick_5">
     <g id="line2d_5">
      <g>
       <use style="stroke:#000000;stroke-width:1.3;" x="192.599955" xlink:href="#m4f2fe81d55" y="239.068"/>
      </g>
     </g>
     <g id="text_5">
      <!-- 6 -->
      <g transform="translate(189.418705 255.166437)scale(0.1 -0.1)">
       <defs>
        <path d="M 33.015625 40.375 
Q 26.375 40.375 22.484375 35.828125 
Q 18.609375 31.296875 18.609375 23.390625 
Q 18.609375 15.53125 22.484375 10.953125 
Q 26.375 6.390625 33.015625 6.390625 
Q 39.65625 6.390625 43.53125 10.953125 
Q 47.40625 15.53125 47.40625 23.390625 
Q 47.40625 31.296875 43.53125 35.828125 
Q 39.65625 40.375 33.015625 40.375 
z
M 52.59375 71.296875 
L 52.59375 62.3125 
Q 48.875 64.0625 45.09375 64.984375 
Q 41.3125 65.921875 37.59375 65.921875 
Q 27.828125 65.921875 22.671875 59.328125 
Q 17.53125 52.734375 16.796875 39.40625 
Q 19.671875 43.65625 24.015625 45.921875 
Q 28.375 48.1875 33.59375 48.1875 
Q 44.578125 48.1875 50.953125 41.515625 
Q 57.328125 34.859375 57.328125 23.390625 
Q 57.328125 12.15625 50.6875 5.359375 
Q 44.046875 -1.421875 33.015625 -1.421875 
Q 20.359375 -1.421875 13.671875 8.265625 
Q 6.984375 17.96875 6.984375 36.375 
Q 6.984375 53.65625 15.1875 63.9375 
Q 23.390625 74.21875 37.203125 74.21875 
Q 40.921875 74.21875 44.703125 73.484375 
Q 48.484375 72.75 52.59375 71.296875 
z
" id="DejaVuSans-54"/>
       </defs>
       <use xlink:href="#DejaVuSans-54"/>
      </g>
     </g>
    </g>
    <g id="xtick_6">
     <g id="line2d_6">
      <g>
       <use style="stroke:#000000;stroke-width:1.3;" x="145.799866" xlink:href="#m4f2fe81d55" y="239.068"/>
      </g>
     </g>
     <g id="text_6">
      <!-- 8 -->
      <g transform="translate(142.618616 255.166437)scale(0.1 -0.1)">
       <defs>
        <path d="M 31.78125 34.625 
Q 24.75 34.625 20.71875 30.859375 
Q 16.703125 27.09375 16.703125 20.515625 
Q 16.703125 13.921875 20.71875 10.15625 
Q 24.75 6.390625 31.78125 6.390625 
Q 38.8125 6.390625 42.859375 10.171875 
Q 46.921875 13.96875 46.921875 20.515625 
Q 46.921875 27.09375 42.890625 30.859375 
Q 38.875 34.625 31.78125 34.625 
z
M 21.921875 38.8125 
Q 15.578125 40.375 12.03125 44.71875 
Q 8.5 49.078125 8.5 55.328125 
Q 8.5 64.0625 14.71875 69.140625 
Q 20.953125 74.21875 31.78125 74.21875 
Q 42.671875 74.21875 48.875 69.140625 
Q 55.078125 64.0625 55.078125 55.328125 
Q 55.078125 49.078125 51.53125 44.71875 
Q 48 40.375 41.703125 38.8125 
Q 48.828125 37.15625 52.796875 32.3125 
Q 56.78125 27.484375 56.78125 20.515625 
Q 56.78125 9.90625 50.3125 4.234375 
Q 43.84375 -1.421875 31.78125 -1.421875 
Q 19.734375 -1.421875 13.25 4.234375 
Q 6.78125 9.90625 6.78125 20.515625 
Q 6.78125 27.484375 10.78125 32.3125 
Q 14.796875 37.15625 21.921875 38.8125 
z
M 18.3125 54.390625 
Q 18.3125 48.734375 21.84375 45.5625 
Q 25.390625 42.390625 31.78125 42.390625 
Q 38.140625 42.390625 41.71875 45.5625 
Q 45.3125 48.734375 45.3125 54.390625 
Q 45.3125 60.0625 41.71875 63.234375 
Q 38.140625 66.40625 31.78125 66.40625 
Q 25.390625 66.40625 21.84375 63.234375 
Q 18.3125 60.0625 18.3125 54.390625 
z
" id="DejaVuSans-56"/>
       </defs>
       <use xlink:href="#DejaVuSans-56"/>
      </g>
     </g>
    </g>
    <g id="xtick_7">
     <g id="line2d_7">
      <g>
       <use style="stroke:#000000;stroke-width:1.3;" x="98.999777" xlink:href="#m4f2fe81d55" y="239.068"/>
      </g>
     </g>
     <g id="text_7">
      <!-- 10 -->
      <g transform="translate(92.637277 255.166437)scale(0.1 -0.1)">
       <defs>
        <path d="M 12.40625 8.296875 
L 28.515625 8.296875 
L 28.515625 63.921875 
L 10.984375 60.40625 
L 10.984375 69.390625 
L 28.421875 72.90625 
L 38.28125 72.90625 
L 38.28125 8.296875 
L 54.390625 8.296875 
L 54.390625 0 
L 12.40625 0 
z
" id="DejaVuSans-49"/>
       </defs>
       <use xlink:href="#DejaVuSans-49"/>
       <use x="63.623047" xlink:href="#DejaVuSans-48"/>
      </g>
     </g>
    </g>
    <g id="xtick_8">
     <g id="line2d_8">
      <g>
       <use style="stroke:#000000;stroke-width:1.3;" x="52.199688" xlink:href="#m4f2fe81d55" y="239.068"/>
      </g>
     </g>
     <g id="text_8">
      <!-- 12 -->
      <g transform="translate(45.837188 255.166437)scale(0.1 -0.1)">
       <use xlink:href="#DejaVuSans-49"/>
       <use x="63.623047" xlink:href="#DejaVuSans-50"/>
      </g>
     </g>
    </g>
    <g id="xtick_9">
     <g id="line2d_9">
      <defs>
       <path d="M 0 0 
L 0 3 
" id="m66a10e3008" style="stroke:#000000;stroke-width:1.3;"/>
      </defs>
      <g>
       <use style="stroke:#000000;stroke-width:1.3;" x="414.900378" xlink:href="#m66a10e3008" y="239.068"/>
      </g>
     </g>
    </g>
    <g id="xtick_10">
     <g id="line2d_10">
      <g>
       <use style="stroke:#000000;stroke-width:1.3;" x="403.200356" xlink:href="#m66a10e3008" y="239.068"/>
      </g>
     </g>
    </g>
    <g id="xtick_11">
     <g id="line2d_11">
      <g>
       <use style="stroke:#000000;stroke-width:1.3;" x="391.500334" xlink:href="#m66a10e3008" y="239.068"/>
      </g>
     </g>
    </g>
    <g id="xtick_12">
     <g id="line2d_12">
      <g>
       <use style="stroke:#000000;stroke-width:1.3;" x="368.100289" xlink:href="#m66a10e3008" y="239.068"/>
      </g>
     </g>
    </g>
    <g id="xtick_13">
     <g id="line2d_13">
      <g>
       <use style="stroke:#000000;stroke-width:1.3;" x="356.400267" xlink:href="#m66a10e3008" y="239.068"/>
      </g>
     </g>
    </g>
    <g id="xtick_14">
     <g id="line2d_14">
      <g>
       <use style="stroke:#000000;stroke-width:1.3;" x="344.700245" xlink:href="#m66a10e3008" y="239.068"/>
      </g>
     </g>
    </g>
    <g id="xtick_15">
     <g id="line2d_15">
      <g>
       <use style="stroke:#000000;stroke-width:1.3;" x="321.3002" xlink:href="#m66a10e3008" y="239.068"/>
      </g>
     </g>
    </g>
    <g id="xtick_16">
     <g id="line2d_16">
      <g>
       <use style="stroke:#000000;stroke-width:1.3;" x="309.600178" xlink:href="#m66a10e3008" y="239.068"/>
      </g>
     </g>
    </g>
    <g id="xtick_17">
     <g id="line2d_17">
      <g>
       <use style="stroke:#000000;stroke-width:1.3;" x="297.900156" xlink:href="#m66a10e3008" y="239.068"/>
      </g>
     </g>
    </g>
    <g id="xtick_18">
     <g id="line2d_18">
      <g>
       <use style="stroke:#000000;stroke-width:1.3;" x="274.500111" xlink:href="#m66a10e3008" y="239.068"/>
      </g>
     </g>
    </g>
    <g id="xtick_19">
     <g id="line2d_19">
      <g>
       <use style="stroke:#000000;stroke-width:1.3;" x="262.800089" xlink:href="#m66a10e3008" y="239.068"/>
      </g>
     </g>
    </g>
    <g id="xtick_20">
     <g id="line2d_20">
      <g>
       <use style="stroke:#000000;stroke-width:1.3;" x="251.100067" xlink:href="#m66a10e3008" y="239.068"/>
      </g>
     </g>
    </g>
    <g id="xtick_21">
     <g id="line2d_21">
      <g>
       <use style="stroke:#000000;stroke-width:1.3;" x="227.700022" xlink:href="#m66a10e3008" y="239.068"/>
      </g>
     </g>
    </g>
    <g id="xtick_22">
     <g id="line2d_22">
      <g>
       <use style="stroke:#000000;stroke-width:1.3;" x="216" xlink:href="#m66a10e3008" y="239.068"/>
      </g>
     </g>
    </g>
    <g id="xtick_23">
     <g id="line2d_23">
      <g>
       <use style="stroke:#000000;stroke-width:1.3;" x="204.299978" xlink:href="#m66a10e3008" y="239.068"/>
      </g>
     </g>
    </g>
    <g id="xtick_24">
     <g id="line2d_24">
      <g>
       <use style="stroke:#000000;stroke-width:1.3;" x="180.899933" xlink:href="#m66a10e3008" y="239.068"/>
      </g>
     </g>
    </g>
    <g id="xtick_25">
     <g id="line2d_25">
      <g>
       <use style="stroke:#000000;stroke-width:1.3;" x="169.199911" xlink:href="#m66a10e3008" y="239.068"/>
      </g>
     </g>
    </g>
    <g id="xtick_26">
     <g id="line2d_26">
      <g>
       <use style="stroke:#000000;stroke-width:1.3;" x="157.499889" xlink:href="#m66a10e3008" y="239.068"/>
      </g>
     </g>
    </g>
    <g id="xtick_27">
     <g id="line2d_27">
      <g>
       <use style="stroke:#000000;stroke-width:1.3;" x="134.099844" xlink:href="#m66a10e3008" y="239.068"/>
      </g>
     </g>
    </g>
    <g id="xtick_28">
     <g id="line2d_28">
      <g>
       <use style="stroke:#000000;stroke-width:1.3;" x="122.399822" xlink:href="#m66a10e3008" y="239.068"/>
      </g>
     </g>
    </g>
    <g id="xtick_29">
     <g id="line2d_29">
      <g>
       <use style="stroke:#000000;stroke-width:1.3;" x="110.6998" xlink:href="#m66a10e3008" y="239.068"/>
      </g>
     </g>
    </g>
    <g id="xtick_30">
     <g id="line2d_30">
      <g>
       <use style="stroke:#000000;stroke-width:1.3;" x="87.299755" xlink:href="#m66a10e3008" y="239.068"/>
      </g>
     </g>
    </g>
    <g id="xtick_31">
     <g id="line2d_31">
      <g>
       <use style="stroke:#000000;stroke-width:1.3;" x="75.599733" xlink:href="#m66a10e3008" y="239.068"/>
      </g>
     </g>
    </g>
    <g id="xtick_32">
     <g id="line2d_32">
      <g>
       <use style="stroke:#000000;stroke-width:1.3;" x="63.899711" xlink:href="#m66a10e3008" y="239.068"/>
      </g>
     </g>
    </g>
    <g id="xtick_33">
     <g id="line2d_33">
      <g>
       <use style="stroke:#000000;stroke-width:1.3;" x="40.499666" xlink:href="#m66a10e3008" y="239.068"/>
      </g>
     </g>
    </g>
    <g id="xtick_34">
     <g id="line2d_34">
      <g>
       <use style="stroke:#000000;stroke-width:1.3;" x="28.799644" xlink:href="#m66a10e3008" y="239.068"/>
      </g>
     </g>
    </g>
    <g id="xtick_35">
     <g id="line2d_35">
      <g>
       <use style="stroke:#000000;stroke-width:1.3;" x="17.099622" xlink:href="#m66a10e3008" y="239.068"/>
      </g>
     </g>
    </g>
    <g id="text_9">
     <!-- $^{1}$H (ppm) -->
     <g transform="translate(193.1 270.246125)scale(0.1 -0.1)">
      <defs>
       <path d="M 9.8125 72.90625 
L 19.671875 72.90625 
L 19.671875 43.015625 
L 55.515625 43.015625 
L 55.515625 72.90625 
L 65.375 72.90625 
L 65.375 0 
L 55.515625 0 
L 55.515625 34.71875 
L 19.671875 34.71875 
L 19.671875 0 
L 9.8125 0 
z
" id="DejaVuSans-72"/>
       <path id="DejaVuSans-32"/>
       <path d="M 31 75.875 
Q 24.46875 64.65625 21.28125 53.65625 
Q 18.109375 42.671875 18.109375 31.390625 
Q 18.109375 20.125 21.3125 9.0625 
Q 24.515625 -2 31 -13.1875 
L 23.1875 -13.1875 
Q 15.875 -1.703125 12.234375 9.375 
Q 8.59375 20.453125 8.59375 31.390625 
Q 8.59375 42.28125 12.203125 53.3125 
Q 15.828125 64.359375 23.1875 75.875 
z
" id="DejaVuSans-40"/>
       <path d="M 18.109375 8.203125 
L 18.109375 -20.796875 
L 9.078125 -20.796875 
L 9.078125 54.6875 
L 18.109375 54.6875 
L 18.109375 46.390625 
Q 20.953125 51.265625 25.265625 53.625 
Q 29.59375 56 35.59375 56 
Q 45.5625 56 51.78125 48.09375 
Q 58.015625 40.1875 58.015625 27.296875 
Q 58.015625 14.40625 51.78125 6.484375 
Q 45.5625 -1.421875 35.59375 -1.421875 
Q 29.59375 -1.421875 25.265625 0.953125 
Q 20.953125 3.328125 18.109375 8.203125 
z
M 48.6875 27.296875 
Q 48.6875 37.203125 44.609375 42.84375 
Q 40.53125 48.484375 33.40625 48.484375 
Q 26.265625 48.484375 22.1875 42.84375 
Q 18.109375 37.203125 18.109375 27.296875 
Q 18.109375 17.390625 22.1875 11.75 
Q 26.265625 6.109375 33.40625 6.109375 
Q 40.53125 6.109375 44.609375 11.75 
Q 48.6875 17.390625 48.6875 27.296875 
z
" id="DejaVuSans-112"/>
       <path d="M 52 44.1875 
Q 55.375 50.25 60.0625 53.125 
Q 64.75 56 71.09375 56 
Q 79.640625 56 84.28125 50.015625 
Q 88.921875 44.046875 88.921875 33.015625 
L 88.921875 0 
L 79.890625 0 
L 79.890625 32.71875 
Q 79.890625 40.578125 77.09375 44.375 
Q 74.3125 48.1875 68.609375 48.1875 
Q 61.625 48.1875 57.5625 43.546875 
Q 53.515625 38.921875 53.515625 30.90625 
L 53.515625 0 
L 44.484375 0 
L 44.484375 32.71875 
Q 44.484375 40.625 41.703125 44.40625 
Q 38.921875 48.1875 33.109375 48.1875 
Q 26.21875 48.1875 22.15625 43.53125 
Q 18.109375 38.875 18.109375 30.90625 
L 18.109375 0 
L 9.078125 0 
L 9.078125 54.6875 
L 18.109375 54.6875 
L 18.109375 46.1875 
Q 21.1875 51.21875 25.484375 53.609375 
Q 29.78125 56 35.6875 56 
Q 41.65625 56 45.828125 52.96875 
Q 50 49.953125 52 44.1875 
z
" id="DejaVuSans-109"/>
       <path d="M 8.015625 75.875 
L 15.828125 75.875 
Q 23.140625 64.359375 26.78125 53.3125 
Q 30.421875 42.28125 30.421875 31.390625 
Q 30.421875 20.453125 26.78125 9.375 
Q 23.140625 -1.703125 15.828125 -13.1875 
L 8.015625 -13.1875 
Q 14.5 -2 17.703125 9.0625 
Q 20.90625 20.125 20.90625 31.390625 
Q 20.90625 42.671875 17.703125 53.65625 
Q 14.5 64.65625 8.015625 75.875 
z
" id="DejaVuSans-41"/>
      </defs>
      <use transform="translate(0.957031 38.965625)scale(0.7)" xlink:href="#DejaVuSans-49"/>
      <use transform="translate(48.227539 0.684375)" xlink:href="#DejaVuSans-72"/>
      <use transform="translate(123.422852 0.684375)" xlink:href="#DejaVuSans-32"/>
      <use transform="translate(155.209961 0.684375)" xlink:href="#DejaVuSans-40"/>
      <use transform="translate(194.223633 0.684375)" xlink:href="#DejaVuSans-112"/>
      <use transform="translate(257.700195 0.684375)" xlink:href="#DejaVuSans-112"/>
      <use transform="translate(321.176758 0.684375)" xlink:href="#DejaVuSans-109"/>
      <use transform="translate(418.588867 0.684375)" xlink:href="#DejaVuSans-41"/>
     </g>
    </g>
   </g>
   <g id="line2d_36">
    <path clip-path="url(#p74f8d00b28)" d="M 29.454545 228.555363 
L 32.283968 228.555286 
L 39.770266 228.555333 
L 41.82544 228.555233 
L 46.687264 228.555694 
L 73.484226 228.556687 
L 74.543124 228.555712 
L 77.087896 228.555593 
L 78.977973 228.555595 
L 80.720032 228.55461 
L 82.655652 228.555061 
L 83.600691 228.555199 
L 92.145887 228.555287 
L 93.859481 228.554721 
L 95.54461 228.555611 
L 101.829684 228.555293 
L 105.444741 228.555212 
L 106.765517 228.55514 
L 113.050592 228.555629 
L 113.807761 228.556 
L 116.261445 228.556609 
L 117.16094 228.555217 
L 122.284642 228.556133 
L 123.616804 228.556111 
L 127.322949 228.556145 
L 130.072669 228.556427 
L 130.915233 228.555442 
L 133.670646 228.555565 
L 145.062344 228.555631 
L 148.825419 228.555402 
L 153.875112 228.551905 
L 154.854308 228.555745 
L 157.159974 228.555715 
L 161.680218 228.555851 
L 162.477238 228.55502 
L 163.877717 228.555988 
L 167.549703 228.555382 
L 168.227171 228.555125 
L 174.785509 228.552612 
L 176.163216 228.548916 
L 177.267659 228.441227 
L 177.466914 228.190386 
L 177.546616 227.653037 
L 177.666169 224.460416 
L 177.711713 226.451463 
L 177.745871 226.953579 
L 177.791415 225.93567 
L 177.842652 220.510654 
L 177.922354 223.416279 
L 177.99067 227.206319 
L 178.0476 225.670739 
L 178.076065 224.66134 
L 178.144381 225.795003 
L 178.286706 228.470544 
L 178.457496 228.541702 
L 178.895857 228.57039 
L 179.24313 228.54972 
L 182.516607 228.555103 
L 198.650575 228.361979 
L 198.883988 228.013118 
L 199.003541 227.392917 
L 199.100323 225.51698 
L 199.174332 223.146563 
L 199.231262 224.586864 
L 199.271113 225.136679 
L 199.32235 224.344295 
L 199.367894 223.207359 
L 199.419131 224.69213 
L 199.601307 228.0318 
L 199.806255 228.389576 
L 200.250309 228.514447 
L 203.688882 228.551879 
L 204.485903 228.552382 
L 207.952941 228.551138 
L 208.835357 228.550759 
L 210.224449 228.550314 
L 213.105108 228.474176 
L 213.850892 228.275964 
L 214.192472 227.925387 
L 214.431578 227.277986 
L 214.739 226.382698 
L 214.773158 226.411901 
L 214.898404 226.776498 
L 215.3083 227.981849 
L 215.752354 228.34261 
L 216.23626 228.442749 
L 217.352088 228.363894 
L 217.494413 228.146975 
L 217.579808 227.548974 
L 217.898616 222.571643 
L 217.961239 223.601964 
L 218.274354 228.291281 
L 218.428066 228.475724 
L 219.139691 228.483523 
L 219.321867 228.47763 
L 219.583745 228.397703 
L 219.965176 227.83831 
L 220.044878 226.701174 
L 220.113194 220.655203 
L 220.164431 214.542308 
L 220.232747 219.07055 
L 220.397844 228.192406 
L 220.58002 228.474335 
L 221.206251 228.564793 
L 221.496594 228.536308 
L 223.779488 228.460629 
L 224.291858 228.125461 
L 224.394332 227.606962 
L 224.462648 225.930715 
L 224.570815 214.476064 
L 224.644824 220.866428 
L 224.815614 228.256449 
L 225.014869 228.511307 
L 226.523515 228.54185 
L 227.189596 228.476532 
L 227.337614 228.520097 
L 227.582413 228.514789 
L 227.753203 228.532115 
L 228.248495 228.538328 
L 228.743786 228.501702 
L 228.96012 228.490114 
L 229.142296 228.497792 
L 229.404174 228.412873 
L 229.552192 228.238521 
L 229.637587 227.940702 
L 229.694517 226.668316 
L 229.740061 220.041433 
L 229.796991 227.156525 
L 229.836842 227.679998 
L 229.893772 226.901775 
L 229.945009 219.190413 
L 230.001939 226.827882 
L 230.007632 226.877462 
L 230.030404 226.198044 
L 230.075948 218.328106 
L 230.127185 227.171561 
L 230.167036 227.752841 
L 230.223966 226.913378 
L 230.275203 219.968327 
L 230.32644 227.210236 
L 230.463072 228.464782 
L 230.616784 228.507363 
L 230.992522 228.51262 
L 231.954639 228.522872 
L 234.465253 228.471016 
L 235.25658 228.302295 
L 235.632319 228.015968 
L 235.968206 227.367626 
L 236.281321 226.79929 
L 236.406567 226.906562 
L 237.249131 228.257258 
L 237.66472 228.351785 
L 237.869669 228.284574 
L 238.114468 227.604107 
L 238.171398 225.632303 
L 238.211249 218.489509 
L 238.302337 222.897336 
L 238.404811 227.859636 
L 238.433276 227.766702 
L 238.495899 226.518344 
L 238.547136 219.215917 
L 238.632531 223.446737 
L 238.76347 228.35816 
L 238.957032 228.497142 
L 239.156287 228.50962 
L 239.537718 228.542614 
L 239.976079 228.51934 
L 240.790179 228.504682 
L 240.995127 228.508002 
L 241.712445 228.523108 
L 242.520851 228.305138 
L 242.634712 228.050498 
L 242.7258 227.217646 
L 242.794116 223.73948 
L 242.83966 219.611271 
L 242.890897 224.542148 
L 243.016143 227.575296 
L 243.038915 227.542087 
L 243.095845 226.975954 
L 243.158468 223.802731 
L 243.204012 219.088082 
L 243.255249 224.28573 
L 243.403267 228.166948 
L 243.602522 228.479549 
L 243.944102 228.521665 
L 251.988314 228.454776 
L 252.11356 228.487733 
L 252.210341 228.391278 
L 252.238806 228.333751 
L 252.301429 228.458162 
L 252.420983 228.434086 
L 252.426676 228.425605 
L 252.47222 228.330676 
L 252.52915 228.458376 
L 252.682861 228.448763 
L 252.8138 228.478435 
L 253.320477 228.452248 
L 254.242743 228.232957 
L 254.669718 227.83835 
L 254.971448 227.156194 
L 255.22194 226.729712 
L 255.239019 226.73774 
L 255.369958 226.955581 
L 255.814012 227.880999 
L 255.984802 227.879263 
L 256.098662 227.672357 
L 256.201136 226.859844 
L 256.320689 223.411148 
L 256.349154 222.914946 
L 256.400391 224.006301 
L 256.537023 226.634478 
L 256.576874 226.416599 
L 256.667962 224.207078 
L 256.719199 223.135672 
L 256.770436 224.34318 
L 256.907068 226.972436 
L 256.946919 226.759237 
L 257.049393 224.729433 
L 257.117709 225.899692 
L 257.146174 226.095423 
L 257.191719 225.562983 
L 257.260035 224.360593 
L 257.328351 224.9249 
L 257.40236 224.975655 
L 257.493448 226.082556 
L 257.544685 225.425812 
L 257.578843 225.029259 
L 257.624387 225.913832 
L 257.806563 228.184355 
L 258.051362 228.456743 
L 258.688978 228.495454 
L 258.950856 228.518171 
L 260.544897 228.54452 
L 261.683497 228.548123 
L 273.223213 228.423171 
L 273.468012 228.188022 
L 273.530635 227.645827 
L 273.690039 226.558414 
L 273.695732 226.577016 
L 273.746969 227.224082 
L 273.866522 227.126238 
L 273.917759 226.496967 
L 273.963303 227.261978 
L 273.997461 227.538033 
L 274.054391 226.995998 
L 274.247954 222.941328 
L 274.282112 223.983888 
L 274.287805 224.073354 
L 274.31627 223.091959 
L 274.327656 222.741554 
L 274.395972 224.218242 
L 274.566762 227.740882 
L 274.60092 227.843965 
L 274.652157 227.629941 
L 274.71478 225.760108 
L 274.743245 225.018201 
L 274.794482 226.746592 
L 274.851412 227.589822 
L 274.908342 227.075108 
L 274.976658 224.744553 
L 275.039281 226.40703 
L 275.044974 226.418065 
L 275.05636 226.290461 
L 275.107597 224.848258 
L 275.153141 226.31489 
L 275.210071 227.41367 
L 275.261308 226.561307 
L 275.335317 224.524714 
L 275.380861 226.139379 
L 275.449177 227.715259 
L 275.506107 227.075064 
L 275.523186 226.972994 
L 275.56873 227.538522 
L 275.591502 227.678944 
L 275.631353 227.061647 
L 275.654125 226.742254 
L 275.705362 227.682205 
L 275.773678 228.187893 
L 275.824915 227.992447 
L 275.887538 226.919807 
L 275.938775 227.827284 
L 276.0811 228.476545 
L 276.456838 228.504947 
L 277.048911 228.527314 
L 277.783308 228.438367 
L 278.056572 228.242616 
L 278.159046 227.761016 
L 278.312757 224.58047 
L 278.369687 224.239844 
L 278.398152 224.918366 
L 278.563249 227.632378 
L 278.574635 227.606966 
L 278.620179 226.918849 
L 278.756811 224.01362 
L 278.808048 224.118435 
L 279.149629 228.474525 
L 279.468437 228.528488 
L 280.794906 228.544303 
L 284.700306 228.553515 
L 286.931963 228.266879 
L 287.011665 227.76641 
L 287.108446 226.67331 
L 287.176762 227.009206 
L 287.199534 226.937897 
L 287.26785 226.355417 
L 287.319087 226.870461 
L 287.387403 227.618887 
L 287.43864 227.139753 
L 287.541114 224.845191 
L 287.60943 225.713508 
L 287.620816 225.745376 
L 287.649281 225.453713 
L 287.700518 224.731224 
L 287.746062 225.531656 
L 287.854229 227.712235 
L 287.905466 227.238278 
L 287.968089 226.548027 
L 288.030712 226.999289 
L 288.059177 227.102703 
L 288.110414 226.781939 
L 288.133186 226.702142 
L 288.173037 227.037033 
L 288.377985 228.409729 
L 288.656943 228.372035 
L 288.804961 228.187146 
L 288.884663 227.67294 
L 288.998523 224.291531 
L 289.066839 223.801924 
L 289.118076 224.053718 
L 289.249015 227.104062 
L 289.323024 225.556241 
L 289.397033 224.048461 
L 289.465349 224.371265 
L 289.539358 226.054686 
L 289.715841 228.388488 
L 289.949254 228.505167 
L 290.621028 228.504293 
L 291.435128 228.350796 
L 291.622997 228.102073 
L 291.697006 227.448655 
L 291.907647 224.941867 
L 291.924726 225.13207 
L 292.089823 226.407624 
L 292.129674 226.839071 
L 292.175218 226.127664 
L 292.351701 224.578736 
L 292.36878 224.858258 
L 292.585114 227.724285 
L 292.670509 228.016935 
L 292.716053 227.967984 
L 292.778676 227.610311 
L 292.949466 224.000808 
L 292.972238 223.180722 
L 293.029168 225.714813 
L 293.194265 227.424291 
L 293.091791 225.099471 
L 293.22273 227.240049 
L 293.501688 223.149912 
L 293.52446 224.016908 
L 293.689557 228.025166 
L 293.729408 228.03186 
L 293.763566 227.957755 
L 293.837575 227.270296 
L 293.928663 225.413344 
L 294.031137 226.202358 
L 294.110839 227.267098 
L 294.190541 226.561862 
L 294.253164 224.439832 
L 294.423954 219.093728 
L 294.429647 219.165985 
L 294.509349 223.706723 
L 294.634595 222.333406 
L 294.651674 221.764695 
L 294.708604 223.901824 
L 294.71999 224.004406 
L 294.759841 223.203195 
L 294.771227 223.089538 
L 294.799692 224.38585 
L 294.959096 227.814691 
L 294.998947 227.689773 
L 295.021719 227.843041 
L 295.17543 228.381735 
L 295.511317 228.474048 
L 296.029381 228.485855 
L 296.627146 228.48824 
L 297.167981 228.522193 
L 299.860771 228.514364 
L 300.412992 228.269105 
L 300.481308 227.69798 
L 300.515466 227.241321 
L 300.583782 227.816888 
L 300.606554 227.733126 
L 300.657791 227.088007 
L 300.703335 227.783902 
L 300.771652 228.102344 
L 300.828582 227.952432 
L 300.896898 226.952654 
L 300.953828 224.60657 
L 301.016451 226.572257 
L 301.022144 226.597909 
L 301.044916 226.293782 
L 301.09046 224.546093 
L 301.141697 226.717647 
L 301.238478 227.889049 
L 301.278329 227.771781 
L 301.335259 226.834066 
L 301.392189 224.277506 
L 301.449119 226.548099 
L 301.460505 226.631378 
L 301.494663 225.864158 
L 301.528821 224.51607 
L 301.580058 226.895205 
L 301.699611 228.166059 
L 301.722383 228.148902 
L 301.77362 227.865147 
L 301.824857 226.92295 
L 301.88748 227.814164 
L 301.898866 227.841051 
L 301.933024 227.585022 
L 301.967182 227.178638 
L 302.012726 227.907196 
L 302.160744 228.461927 
L 302.428315 228.475278 
L 302.604798 228.490391 
L 303.293652 228.466279 
L 303.902803 228.117778 
L 303.999584 227.810537 
L 304.084979 226.248163 
L 304.107751 225.986537 
L 304.164681 226.696794 
L 304.204532 226.933032 
L 304.250076 226.526119 
L 304.392401 221.49275 
L 304.500568 218.564896 
L 304.517647 219.425755 
L 304.625814 225.643957 
L 304.677051 224.442845 
L 304.711209 223.916731 
L 304.773832 224.786075 
L 304.796604 224.298097 
L 304.92185 221.664189 
L 304.938929 222.277937 
L 305.041403 226.910514 
L 305.104026 226.576395 
L 305.143877 227.067718 
L 305.314667 228.266451 
L 305.37729 228.173744 
L 305.411448 228.03224 
L 305.456992 228.31237 
L 305.610704 228.460773 
L 306.36218 228.45392 
L 306.447575 228.294191 
L 306.47604 228.151298 
L 306.550049 228.33456 
L 306.857471 228.274301 
L 307.039647 227.868099 
L 307.324297 224.436362 
L 307.392613 215.872392 
L 307.449543 167.291671 
L 307.466622 154.648938 
L 307.517859 208.997153 
L 307.660184 227.191496 
L 307.848053 228.268896 
L 307.870825 228.313847 
L 307.893597 228.099385 
L 307.910676 227.93535 
L 307.984685 228.312147 
L 308.098546 228.274205 
L 308.132704 227.899463 
L 308.14409 227.742657 
L 308.20102 228.389148 
L 308.326266 228.443223 
L 308.343345 228.407503 
L 308.377503 228.138872 
L 308.423047 228.541518 
L 308.457205 228.665845 
L 308.525521 228.484024 
L 308.730469 228.485193 
L 309.504717 228.485568 
L 309.578726 228.303863 
L 309.612884 228.126188 
L 309.669814 228.437256 
L 309.829218 228.527589 
L 310.871038 228.505624 
L 311.013363 228.536358 
L 312.499236 228.542619 
L 315.294501 228.384884 
L 315.351431 228.038796 
L 315.402668 228.388917 
L 315.544993 228.519021 
L 316.307855 228.41559 
L 316.387557 228.141119 
L 316.45018 228.35682 
L 316.586812 228.387684 
L 316.780374 228.338249 
L 316.951164 227.993446 
L 317.224428 225.547412 
L 317.298437 219.702696 
L 317.355367 187.489313 
L 317.389525 160.835896 
L 317.446455 211.198255 
L 317.58878 227.460932 
L 317.77665 228.357153 
L 317.844966 228.325235 
L 317.896203 228.370844 
L 318.243476 228.514627 
L 318.385801 228.677477 
L 318.45981 228.498963 
L 318.767232 228.45438 
L 318.932329 228.513659 
L 319.473164 228.375543 
L 319.518708 228.159165 
L 319.569945 228.420761 
L 319.717963 228.53211 
L 320.406817 228.544084 
L 321.790216 228.548338 
L 325.536212 228.552324 
L 326.361697 228.554012 
L 329.834429 228.553611 
L 333.045282 228.553414 
L 334.024478 228.552423 
L 352.822772 228.555865 
L 353.898749 228.557023 
L 354.485129 228.555875 
L 361.812023 228.555968 
L 362.523648 228.555636 
L 363.690713 228.556021 
L 364.983025 228.556042 
L 366.690926 228.555954 
L 369.8847 228.555681 
L 371.621066 228.556274 
L 374.291084 228.555188 
L 378.213562 228.555897 
L 402.545455 228.55437 
L 402.545455 228.55437 
" style="fill:none;stroke:#4c72b0;stroke-linecap:square;"/>
   </g>
   <g id="line2d_37">
    <path clip-path="url(#p74f8d00b28)" d="M 29.454545 147.095148 
L 37.168564 147.109276 
L 40.15739 147.109833 
L 44.979363 147.109437 
L 63.048952 147.108931 
L 64.346957 147.109461 
L 68.889973 147.109843 
L 71.827562 147.108684 
L 75.493855 147.108225 
L 76.945571 147.10934 
L 78.80149 147.108837 
L 81.072998 147.109182 
L 82.393774 147.108855 
L 83.532375 147.109163 
L 84.522957 147.108874 
L 91.861237 147.109022 
L 94.411702 147.108618 
L 96.17084 147.108272 
L 97.719337 147.107941 
L 98.954718 147.108532 
L 144.458886 147.108449 
L 147.333852 147.107603 
L 149.457342 147.107918 
L 150.470696 147.108193 
L 153.402593 147.107634 
L 162.397536 147.108072 
L 163.729699 147.108245 
L 177.552309 147.19325 
L 177.563695 147.218535 
L 177.580774 146.977187 
L 177.671862 145.709885 
L 177.694634 146.633116 
L 177.791415 147.371526 
L 177.808494 146.965568 
L 177.842652 144.022987 
L 177.922354 146.147721 
L 177.945126 147.504422 
L 178.036214 147.011274 
L 178.070372 145.767143 
L 178.150074 146.659516 
L 178.172846 147.298606 
L 178.269627 147.145951 
L 178.582742 147.117705 
L 180.552521 147.097875 
L 180.990882 147.109349 
L 182.613388 147.107389 
L 184.998756 147.107628 
L 190.093993 147.108075 
L 191.078882 147.107978 
L 194.933045 147.107358 
L 195.826846 147.107233 
L 199.014927 146.972435 
L 199.09463 146.723514 
L 199.168639 145.737773 
L 199.225569 146.475372 
L 199.271113 146.713301 
L 199.32235 146.430358 
L 199.373587 145.732536 
L 199.424824 146.49414 
L 199.572842 147.062501 
L 199.94858 147.101349 
L 203.768584 147.10652 
L 205.482178 147.108261 
L 213.645944 147.082053 
L 214.471429 146.872999 
L 214.813009 146.746173 
L 215.615722 147.065538 
L 217.613966 146.894077 
L 217.898616 145.819735 
L 217.910002 145.850149 
L 218.22881 147.120509 
L 218.359749 147.130714 
L 218.798111 147.109527 
L 220.033492 147.171305 
L 220.056264 147.275224 
L 220.079036 146.913307 
L 220.158738 143.020011 
L 220.227054 144.867353 
L 220.306756 147.384649 
L 220.357993 147.204826 
L 220.540169 147.13096 
L 221.029768 147.111548 
L 224.382946 147.109275 
L 224.451262 147.256911 
L 224.456955 147.271842 
L 224.474034 147.104009 
L 224.559429 143.205837 
L 224.633438 145.465242 
L 224.701754 147.381587 
L 224.77007 147.189488 
L 224.952246 147.138476 
L 226.500743 147.107749 
L 228.595768 147.108908 
L 229.535113 147.103865 
L 229.552192 147.081507 
L 229.637587 147.141221 
L 229.683131 147.38023 
L 229.70021 147.786149 
L 229.717289 146.5012 
L 229.740061 142.120808 
L 229.779912 147.891133 
L 229.819763 147.26583 
L 229.865307 147.223908 
L 229.882386 147.333624 
L 229.905158 148.038865 
L 229.922237 146.593885 
L 229.945009 141.377704 
L 229.979167 148.31872 
L 230.024711 148.038851 
L 230.036097 148.246569 
L 230.053176 145.768514 
L 230.075948 140.834472 
L 230.110106 148.314812 
L 230.15565 147.298298 
L 230.184115 147.238582 
L 230.218273 147.481543 
L 230.235352 147.810958 
L 230.252431 146.332635 
L 230.275203 142.042084 
L 230.315054 147.896383 
L 230.354905 147.282977 
L 230.49723 147.13023 
L 230.668021 147.121261 
L 230.85589 147.105912 
L 236.07068 146.863763 
L 236.332558 146.809612 
L 236.702603 146.963171 
L 237.186508 147.070865 
L 237.49393 147.087478 
L 237.875362 147.079232 
L 237.989222 147.1011 
L 238.148626 147.293274 
L 238.171398 147.910316 
L 238.188477 146.31946 
L 238.211249 141.790408 
L 238.245407 148.58564 
L 238.296644 144.512811 
L 238.319416 148.144651 
L 238.416197 147.207633 
L 238.461741 147.177851 
L 238.473127 147.236591 
L 238.501592 147.930526 
L 238.518671 146.715567 
L 238.541443 142.135529 
L 238.575601 148.522239 
L 238.626838 144.690245 
L 238.64961 148.054294 
L 238.746391 147.177218 
L 239.002576 147.11868 
L 239.156287 147.108234 
L 240.824337 147.091202 
L 241.587199 147.106844 
L 242.742879 147.058988 
L 242.777037 146.964955 
L 242.816888 144.97135 
L 242.83966 143.848894 
L 242.902283 146.982749 
L 243.027529 147.09199 
L 243.141389 147.005837 
L 243.175547 145.612153 
L 243.204012 143.593312 
L 243.266635 146.996389 
L 243.391881 147.119893 
L 244.644341 147.108376 
L 248.823005 147.106272 
L 250.377195 147.105154 
L 251.20268 147.103216 
L 252.836572 147.098334 
L 254.800658 146.954793 
L 255.352879 146.831267 
L 255.979109 147.027456 
L 256.18975 146.945533 
L 256.275145 146.553403 
L 256.349154 145.775823 
L 256.406084 146.318634 
L 256.537023 146.932802 
L 256.559795 146.918226 
L 256.633804 146.655951 
L 256.719199 145.842629 
L 256.776129 146.405807 
L 256.918454 146.996543 
L 256.92984 146.991975 
L 256.981077 146.814641 
L 257.0437 146.207961 
L 257.10063 146.689442 
L 257.146174 146.875924 
L 257.197412 146.658782 
L 257.254342 146.196059 
L 257.316965 146.565464 
L 257.351123 146.482338 
L 257.385281 146.393829 
L 257.436518 146.598052 
L 257.493448 146.848995 
L 257.538992 146.592482 
L 257.578843 146.246043 
L 257.635773 146.7376 
L 257.778098 147.08622 
L 257.783791 147.085606 
L 258.375863 147.108062 
L 260.516432 147.107244 
L 262.890414 147.107506 
L 266.232206 147.108109 
L 266.938139 147.108963 
L 272.972721 147.106329 
L 273.530635 147.029262 
L 273.576179 146.635668 
L 273.633109 147.081429 
L 273.667267 146.717464 
L 273.690039 146.55171 
L 273.746969 147.086987 
L 273.792513 146.684228 
L 273.803899 146.644919 
L 273.84375 146.996576 
L 273.860829 147.080189 
L 273.906373 146.589889 
L 273.917759 146.547482 
L 273.951917 146.917314 
L 273.986075 147.117465 
L 274.065777 147.063215 
L 274.253647 145.563422 
L 274.270726 146.229066 
L 274.287805 147.011564 
L 274.327656 145.573099 
L 274.3732 145.807421 
L 274.390279 146.199883 
L 274.413051 147.067995 
L 274.458595 145.932036 
L 274.515525 147.046485 
L 274.538297 147.181205 
L 274.629385 147.124427 
L 274.686315 147.063786 
L 274.743245 146.001202 
L 274.794482 147.021008 
L 274.817254 147.14044 
L 274.908342 147.101016 
L 274.9425 146.576324 
L 274.976658 145.979729 
L 275.033588 147.113448 
L 275.039281 147.139032 
L 275.067746 146.859387 
L 275.107597 146.012177 
L 275.164527 147.077116 
L 275.181606 147.154592 
L 275.255615 146.962735 
L 275.335317 145.969127 
L 275.380861 146.747779 
L 275.409326 147.172354 
L 275.494721 146.876822 
L 275.523186 146.678944 
L 275.580116 147.142719 
L 275.591502 147.163306 
L 275.619967 146.979383 
L 275.654125 146.531996 
L 275.716748 147.154042 
L 275.830608 147.129695 
L 275.870459 146.675686 
L 275.887538 146.553203 
L 275.938775 147.088521 
L 275.955854 147.152464 
L 276.052635 147.117995 
L 278.187511 147.083764 
L 278.381073 145.983397 
L 278.392459 146.240581 
L 278.523398 147.188609 
L 278.466468 146.029984 
L 278.529091 147.183248 
L 278.637258 146.838149 
L 278.671416 145.948329 
L 278.711267 146.872455 
L 278.762504 146.085632 
L 278.847899 146.82512 
L 278.808048 145.960281 
L 278.882057 146.282756 
L 278.88775 146.227371 
L 278.921908 146.85276 
L 278.956067 147.157381 
L 279.041462 147.129786 
L 287.04013 146.912437 
L 287.102753 146.682005 
L 287.15399 146.86694 
L 287.182455 146.936313 
L 287.233692 146.751498 
L 287.26785 146.606081 
L 287.32478 146.858728 
L 287.393096 147.109951 
L 287.450026 146.946725 
L 287.535421 146.236919 
L 287.592351 146.667709 
L 287.620816 146.794691 
L 287.66636 146.47119 
L 287.706211 146.199199 
L 287.757448 146.620677 
L 287.842843 147.133301 
L 287.899773 146.9647 
L 287.968089 146.652825 
L 288.025019 146.884614 
L 288.059177 146.953297 
L 288.104721 146.779746 
L 288.138879 146.679792 
L 288.190116 146.882266 
L 288.343827 147.115732 
L 288.918821 146.975911 
L 289.015602 146.127119 
L 289.123769 146.168447 
L 289.249015 147.116608 
L 289.323024 146.623028 
L 289.379954 146.135949 
L 289.465349 146.277433 
L 289.488121 146.275653 
L 289.5052 146.353773 
L 289.61906 147.146096 
L 289.710148 147.128058 
L 290.399001 147.109395 
L 291.691313 147.03895 
L 291.822252 146.302881 
L 291.85641 146.724219 
L 291.867796 146.786507 
L 291.901954 146.214016 
L 291.907647 146.162842 
L 291.941805 146.762183 
L 292.044279 146.969058 
L 291.998735 146.240703 
L 292.055665 146.916588 
L 292.180911 146.567524 
L 292.129674 147.087499 
L 292.192297 146.62226 
L 292.220762 146.879923 
L 292.260613 146.118672 
L 292.266306 146.088439 
L 292.289078 146.503257 
L 292.306157 146.787833 
L 292.351701 146.070007 
L 292.402938 146.739674 
L 292.437096 146.305026 
L 292.488333 146.879078 
L 292.511105 146.75815 
L 292.522491 146.733245 
L 292.556649 146.984972 
L 292.613579 147.112843 
L 292.681895 147.096588 
L 292.807141 146.996686 
L 292.972238 145.325499 
L 292.99501 146.075517 
L 293.034861 147.051407 
L 293.10887 146.296134 
L 293.171493 147.135419 
L 293.245502 146.982117 
L 293.399213 145.524918 
L 293.33659 146.998702 
L 293.416292 145.904007 
L 293.45045 146.918957 
L 293.501688 145.385349 
L 293.547232 146.808567 
L 293.587083 147.144619 
L 293.666785 147.11536 
L 293.820496 147.012451 
L 293.92297 146.164651 
L 293.962821 146.868625 
L 294.031137 146.543715 
L 294.088067 147.068557 
L 294.122225 147.078736 
L 294.156383 146.987226 
L 294.224699 147.030198 
L 294.26455 146.200361 
L 294.395489 145.281879 
L 294.429647 144.648617 
L 294.463805 146.028683 
L 294.503656 146.910631 
L 294.554893 145.473502 
L 294.566279 145.628483 
L 294.600437 146.884651 
L 294.651674 145.129071 
L 294.697218 146.601755 
L 294.725683 146.640825 
L 294.737069 146.540727 
L 294.771227 145.505742 
L 294.828157 146.989319 
L 294.94771 147.127319 
L 294.879394 146.809216 
L 294.953403 147.124122 
L 295.00464 146.887765 
L 295.101421 147.108495 
L 299.729832 147.106488 
L 300.481308 146.984304 
L 300.515466 146.667541 
L 300.578089 147.085428 
L 300.600861 147.090213 
L 300.623633 146.984247 
L 300.657791 146.600056 
L 300.720414 147.102687 
L 300.896898 147.047013 
L 300.942442 145.890301 
L 300.953828 145.708811 
L 300.999372 146.998507 
L 301.027837 147.099029 
L 301.061995 146.649351 
L 301.096153 145.679675 
L 301.158776 147.119334 
L 301.329566 147.099688 
L 301.358031 146.649503 
L 301.392189 145.527053 
L 301.454812 147.118126 
L 301.477584 147.080939 
L 301.483277 147.031446 
L 301.528821 145.604781 
L 301.585751 147.109252 
L 301.705304 147.114884 
L 301.790699 147.024779 
L 301.824857 146.49736 
L 301.88748 147.112847 
L 301.893173 147.112691 
L 301.933024 146.994179 
L 301.967182 146.617196 
L 302.029805 147.115518 
L 302.280297 147.108659 
L 304.050821 146.942472 
L 304.107751 146.458716 
L 304.164681 146.912411 
L 304.232997 147.012059 
L 304.261462 146.906536 
L 304.40948 144.71675 
L 304.443638 146.17198 
L 304.455024 146.364182 
L 304.489182 144.502134 
L 304.500568 144.145322 
L 304.557498 146.405491 
L 304.620121 147.049711 
L 304.671358 146.460774 
L 304.705516 146.106794 
L 304.762446 146.739165 
L 304.785218 146.957113 
L 304.813683 146.200578 
L 304.927543 145.023867 
L 304.881999 146.564732 
L 304.938929 145.351366 
L 305.018631 147.08251 
L 305.075561 146.839947 
L 305.109719 146.663587 
L 305.160956 146.994212 
L 305.280509 147.121152 
L 305.297588 147.115196 
L 305.400062 146.97198 
L 305.411448 146.935282 
L 305.456992 147.122762 
L 305.479764 147.119099 
L 306.447575 147.092748 
L 306.47604 146.967694 
L 306.521584 147.110193 
L 306.555742 147.097653 
L 307.022568 147.130668 
L 307.033954 147.141401 
L 307.056726 147.012864 
L 307.073805 146.915858 
L 307.107963 147.100469 
L 307.1592 147.079739 
L 307.38692 147.335568 
L 307.415385 149.087134 
L 307.426771 147.554634 
L 307.466622 111.66863 
L 307.512166 149.510711 
L 307.534938 148.070108 
L 307.660184 147.291681 
L 307.825281 147.163119 
L 307.84236 147.173887 
L 307.870825 147.274041 
L 307.893597 147.072998 
L 307.910676 146.859796 
L 307.939141 147.19421 
L 307.996071 147.12951 
L 308.121318 147.103218 
L 308.14409 146.640844 
L 308.172555 147.244917 
L 308.229485 147.120395 
L 308.366117 146.977323 
L 308.377503 146.855475 
L 308.451512 147.219501 
L 308.457205 147.217884 
L 308.633688 147.107469 
L 309.072049 147.100081 
L 309.362392 147.109022 
L 309.590112 147.020955 
L 309.612884 146.917244 
L 309.658428 147.118548 
L 309.686893 147.110473 
L 312.072261 147.107268 
L 315.31158 147.091234 
L 315.351431 146.894419 
L 315.402668 147.123028 
L 315.414054 147.122354 
L 315.738555 147.106354 
L 316.757602 147.119518 
L 316.956857 147.126342 
L 316.96255 147.108169 
L 316.996708 146.976493 
L 317.07641 147.090951 
L 317.264279 147.286057 
L 317.315516 148.054955 
L 317.326902 148.577293 
L 317.343981 146.477869 
L 317.389525 119.082907 
L 317.446455 149.013544 
L 317.634324 147.229484 
L 317.742492 147.144489 
L 317.788036 147.211921 
L 319.501629 146.989 
L 319.518708 146.947284 
L 319.569945 147.114971 
L 319.581331 147.115572 
L 320.423896 147.107051 
L 328.189151 147.108053 
L 328.872311 147.107333 
L 329.965368 147.109073 
L 346.065178 147.10813 
L 347.038682 147.108538 
L 348.21144 147.109558 
L 348.849056 147.108471 
L 350.420325 147.10941 
L 351.234424 147.109302 
L 377.718271 147.107162 
L 379.961314 147.109022 
L 383.99196 147.108675 
L 400.940028 147.10473 
L 401.993233 147.102592 
L 402.545455 147.101396 
L 402.545455 147.101396 
" style="fill:none;stroke:#dd8452;stroke-linecap:square;"/>
   </g>
   <g id="line2d_38">
    <path clip-path="url(#p74f8d00b28)" d="M 29.454545 101.848743 
L 37.168564 101.86287 
L 40.15739 101.863427 
L 44.979363 101.863031 
L 63.048952 101.862525 
L 64.346957 101.863055 
L 68.889973 101.863437 
L 71.827562 101.862278 
L 75.493855 101.861819 
L 76.945571 101.862935 
L 78.80149 101.862431 
L 81.072998 101.862776 
L 82.393774 101.862449 
L 83.532375 101.862757 
L 84.522957 101.862468 
L 91.861237 101.862617 
L 94.411702 101.862212 
L 96.17084 101.861866 
L 97.719337 101.861536 
L 98.954718 101.862127 
L 144.458886 101.862043 
L 147.333852 101.861197 
L 149.457342 101.861513 
L 150.470696 101.861787 
L 153.402593 101.861229 
L 162.397536 101.861666 
L 163.729699 101.861839 
L 177.552309 101.946844 
L 177.563695 101.972129 
L 177.580774 101.730781 
L 177.671862 100.463479 
L 177.694634 101.38671 
L 177.791415 102.12512 
L 177.808494 101.719162 
L 177.842652 98.776582 
L 177.922354 100.901315 
L 177.945126 102.258017 
L 178.036214 101.764868 
L 178.070372 100.520738 
L 178.150074 101.413111 
L 178.172846 102.0522 
L 178.269627 101.899545 
L 178.582742 101.871299 
L 180.552521 101.851469 
L 180.990882 101.862944 
L 182.613388 101.860983 
L 184.998756 101.861222 
L 190.093993 101.861669 
L 191.078882 101.861572 
L 194.933045 101.860952 
L 195.826846 101.860827 
L 199.014927 101.726029 
L 199.09463 101.477108 
L 199.168639 100.491367 
L 199.225569 101.228966 
L 199.271113 101.466895 
L 199.32235 101.183952 
L 199.373587 100.48613 
L 199.424824 101.247734 
L 199.572842 101.816095 
L 199.94858 101.854944 
L 203.768584 101.860114 
L 205.482178 101.861855 
L 213.645944 101.835648 
L 214.471429 101.626593 
L 214.813009 101.499768 
L 215.615722 101.819132 
L 217.613966 101.647671 
L 217.898616 100.573329 
L 217.910002 100.603743 
L 218.22881 101.874103 
L 218.359749 101.884309 
L 218.798111 101.863121 
L 220.033492 101.924899 
L 220.056264 102.028818 
L 220.079036 101.666902 
L 220.158738 97.773605 
L 220.227054 99.620948 
L 220.306756 102.138243 
L 220.357993 101.95842 
L 220.540169 101.884555 
L 221.029768 101.865142 
L 224.382946 101.862869 
L 224.451262 102.010505 
L 224.456955 102.025437 
L 224.474034 101.857603 
L 224.559429 97.959431 
L 224.633438 100.218836 
L 224.701754 102.135181 
L 224.77007 101.943082 
L 224.952246 101.892071 
L 226.500743 101.861343 
L 228.595768 101.862502 
L 229.535113 101.85746 
L 229.552192 101.835102 
L 229.637587 101.894815 
L 229.683131 102.133824 
L 229.70021 102.539744 
L 229.717289 101.254794 
L 229.740061 96.874402 
L 229.779912 102.644727 
L 229.819763 102.019424 
L 229.865307 101.977502 
L 229.882386 102.087218 
L 229.905158 102.792459 
L 229.922237 101.347479 
L 229.945009 96.131298 
L 229.979167 103.072314 
L 230.024711 102.792446 
L 230.036097 103.000163 
L 230.053176 100.522109 
L 230.075948 95.588066 
L 230.110106 103.068406 
L 230.15565 102.051892 
L 230.184115 101.992176 
L 230.218273 102.235137 
L 230.235352 102.564552 
L 230.252431 101.086229 
L 230.275203 96.795678 
L 230.315054 102.649978 
L 230.354905 102.036571 
L 230.49723 101.883825 
L 230.668021 101.874855 
L 230.85589 101.859506 
L 236.07068 101.617357 
L 236.332558 101.563206 
L 236.702603 101.716766 
L 237.186508 101.824459 
L 237.49393 101.841072 
L 237.875362 101.832826 
L 237.989222 101.854694 
L 238.148626 102.046868 
L 238.171398 102.66391 
L 238.188477 101.073054 
L 238.211249 96.544003 
L 238.245407 103.339234 
L 238.296644 99.266405 
L 238.319416 102.898245 
L 238.416197 101.961228 
L 238.461741 101.931445 
L 238.473127 101.990185 
L 238.501592 102.684121 
L 238.518671 101.469162 
L 238.541443 96.889123 
L 238.575601 103.275834 
L 238.626838 99.443839 
L 238.64961 102.807888 
L 238.746391 101.930812 
L 239.002576 101.872274 
L 239.156287 101.861828 
L 240.824337 101.844796 
L 241.587199 101.860438 
L 242.742879 101.812582 
L 242.777037 101.718549 
L 242.816888 99.724944 
L 242.83966 98.602488 
L 242.902283 101.736343 
L 243.027529 101.845584 
L 243.141389 101.759431 
L 243.175547 100.365747 
L 243.204012 98.346906 
L 243.266635 101.749983 
L 243.391881 101.873487 
L 244.644341 101.86197 
L 248.823005 101.859867 
L 250.377195 101.858748 
L 251.20268 101.85681 
L 252.836572 101.851928 
L 254.800658 101.708387 
L 255.352879 101.584861 
L 255.979109 101.78105 
L 256.18975 101.699127 
L 256.275145 101.306997 
L 256.349154 100.529417 
L 256.406084 101.072228 
L 256.537023 101.686397 
L 256.559795 101.67182 
L 256.633804 101.409546 
L 256.719199 100.596223 
L 256.776129 101.159401 
L 256.918454 101.750137 
L 256.92984 101.745569 
L 256.981077 101.568235 
L 257.0437 100.961555 
L 257.10063 101.443036 
L 257.146174 101.629519 
L 257.197412 101.412376 
L 257.254342 100.949653 
L 257.316965 101.319058 
L 257.351123 101.235932 
L 257.385281 101.147423 
L 257.436518 101.351646 
L 257.493448 101.602589 
L 257.538992 101.346077 
L 257.578843 100.999638 
L 257.635773 101.491194 
L 257.778098 101.839814 
L 257.783791 101.8392 
L 258.375863 101.861656 
L 260.516432 101.860839 
L 262.890414 101.8611 
L 266.232206 101.861703 
L 266.938139 101.862557 
L 272.972721 101.859923 
L 273.530635 101.782856 
L 273.576179 101.389263 
L 273.633109 101.835023 
L 273.667267 101.471058 
L 273.690039 101.305304 
L 273.746969 101.840581 
L 273.792513 101.437823 
L 273.803899 101.398514 
L 273.84375 101.75017 
L 273.860829 101.833784 
L 273.906373 101.343483 
L 273.917759 101.301076 
L 273.951917 101.670909 
L 273.986075 101.871059 
L 274.065777 101.816809 
L 274.253647 100.317016 
L 274.270726 100.98266 
L 274.287805 101.765158 
L 274.327656 100.326693 
L 274.3732 100.561015 
L 274.390279 100.953478 
L 274.413051 101.82159 
L 274.458595 100.68563 
L 274.515525 101.80008 
L 274.538297 101.934799 
L 274.629385 101.878021 
L 274.686315 101.81738 
L 274.743245 100.754797 
L 274.794482 101.774602 
L 274.817254 101.894034 
L 274.908342 101.85461 
L 274.9425 101.329918 
L 274.976658 100.733323 
L 275.033588 101.867042 
L 275.039281 101.892626 
L 275.067746 101.612981 
L 275.107597 100.765771 
L 275.164527 101.830711 
L 275.181606 101.908187 
L 275.255615 101.716329 
L 275.335317 100.722722 
L 275.380861 101.501374 
L 275.409326 101.925948 
L 275.494721 101.630416 
L 275.523186 101.432539 
L 275.580116 101.896313 
L 275.591502 101.9169 
L 275.619967 101.732977 
L 275.654125 101.285591 
L 275.716748 101.907636 
L 275.830608 101.883289 
L 275.870459 101.42928 
L 275.887538 101.306797 
L 275.938775 101.842115 
L 275.955854 101.906058 
L 276.052635 101.871589 
L 278.187511 101.837358 
L 278.381073 100.736992 
L 278.392459 100.994175 
L 278.523398 101.942203 
L 278.466468 100.783578 
L 278.529091 101.936842 
L 278.637258 101.591744 
L 278.671416 100.701923 
L 278.711267 101.626049 
L 278.762504 100.839226 
L 278.847899 101.578714 
L 278.808048 100.713875 
L 278.882057 101.036351 
L 278.88775 100.980965 
L 278.921908 101.606354 
L 278.956067 101.910975 
L 279.041462 101.883381 
L 287.04013 101.666031 
L 287.102753 101.4356 
L 287.15399 101.620534 
L 287.182455 101.689907 
L 287.233692 101.505092 
L 287.26785 101.359675 
L 287.32478 101.612323 
L 287.393096 101.863545 
L 287.450026 101.700319 
L 287.535421 100.990513 
L 287.592351 101.421303 
L 287.620816 101.548286 
L 287.66636 101.224784 
L 287.706211 100.952793 
L 287.757448 101.374271 
L 287.842843 101.886895 
L 287.899773 101.718294 
L 287.968089 101.40642 
L 288.025019 101.638209 
L 288.059177 101.706891 
L 288.104721 101.53334 
L 288.138879 101.433386 
L 288.190116 101.63586 
L 288.343827 101.869326 
L 288.918821 101.729505 
L 289.015602 100.880713 
L 289.123769 100.922041 
L 289.249015 101.870203 
L 289.323024 101.376622 
L 289.379954 100.889543 
L 289.465349 101.031027 
L 289.488121 101.029247 
L 289.5052 101.107368 
L 289.61906 101.89969 
L 289.710148 101.881652 
L 290.399001 101.86299 
L 291.691313 101.792545 
L 291.822252 101.056475 
L 291.85641 101.477813 
L 291.867796 101.540101 
L 291.901954 100.96761 
L 291.907647 100.916436 
L 291.941805 101.515777 
L 292.044279 101.722652 
L 291.998735 100.994297 
L 292.055665 101.670182 
L 292.180911 101.321119 
L 292.129674 101.841093 
L 292.192297 101.375854 
L 292.220762 101.633517 
L 292.260613 100.872266 
L 292.266306 100.842033 
L 292.289078 101.256851 
L 292.306157 101.541427 
L 292.351701 100.823601 
L 292.402938 101.493268 
L 292.437096 101.058621 
L 292.488333 101.632672 
L 292.511105 101.511744 
L 292.522491 101.48684 
L 292.556649 101.738566 
L 292.613579 101.866437 
L 292.681895 101.850182 
L 292.807141 101.75028 
L 292.972238 100.079094 
L 292.99501 100.829111 
L 293.034861 101.805001 
L 293.10887 101.049728 
L 293.171493 101.889014 
L 293.245502 101.735711 
L 293.399213 100.278512 
L 293.33659 101.752296 
L 293.416292 100.657601 
L 293.45045 101.672551 
L 293.501688 100.138943 
L 293.547232 101.562162 
L 293.587083 101.898213 
L 293.666785 101.868954 
L 293.820496 101.766045 
L 293.92297 100.918245 
L 293.962821 101.622219 
L 294.031137 101.297309 
L 294.088067 101.822151 
L 294.122225 101.832331 
L 294.156383 101.74082 
L 294.224699 101.783792 
L 294.26455 100.953955 
L 294.395489 100.035473 
L 294.429647 99.402211 
L 294.463805 100.782278 
L 294.503656 101.664225 
L 294.554893 100.227096 
L 294.566279 100.382077 
L 294.600437 101.638246 
L 294.651674 99.882665 
L 294.697218 101.355349 
L 294.725683 101.394419 
L 294.737069 101.294322 
L 294.771227 100.259336 
L 294.828157 101.742914 
L 294.94771 101.880914 
L 294.879394 101.56281 
L 294.953403 101.877716 
L 295.00464 101.641359 
L 295.101421 101.862089 
L 299.729832 101.860082 
L 300.481308 101.737898 
L 300.515466 101.421135 
L 300.578089 101.839022 
L 300.600861 101.843807 
L 300.623633 101.737842 
L 300.657791 101.35365 
L 300.720414 101.856281 
L 300.896898 101.800607 
L 300.942442 100.643895 
L 300.953828 100.462405 
L 300.999372 101.752101 
L 301.027837 101.852623 
L 301.061995 101.402946 
L 301.096153 100.43327 
L 301.158776 101.872928 
L 301.329566 101.853282 
L 301.358031 101.403097 
L 301.392189 100.280648 
L 301.454812 101.87172 
L 301.477584 101.834533 
L 301.483277 101.78504 
L 301.528821 100.358375 
L 301.585751 101.862847 
L 301.705304 101.868478 
L 301.790699 101.778373 
L 301.824857 101.250954 
L 301.88748 101.866441 
L 301.893173 101.866285 
L 301.933024 101.747773 
L 301.967182 101.37079 
L 302.029805 101.869112 
L 302.280297 101.862253 
L 304.050821 101.696066 
L 304.107751 101.21231 
L 304.164681 101.666005 
L 304.232997 101.765653 
L 304.261462 101.660131 
L 304.40948 99.470344 
L 304.443638 100.925575 
L 304.455024 101.117776 
L 304.489182 99.255729 
L 304.500568 98.898916 
L 304.557498 101.159085 
L 304.620121 101.803305 
L 304.671358 101.214368 
L 304.705516 100.860388 
L 304.762446 101.492759 
L 304.785218 101.710708 
L 304.813683 100.954172 
L 304.927543 99.777461 
L 304.881999 101.318326 
L 304.938929 100.10496 
L 305.018631 101.836104 
L 305.075561 101.593541 
L 305.109719 101.417181 
L 305.160956 101.747806 
L 305.280509 101.874746 
L 305.297588 101.868791 
L 305.400062 101.725574 
L 305.411448 101.688876 
L 305.456992 101.876356 
L 305.479764 101.872693 
L 306.447575 101.846342 
L 306.47604 101.721289 
L 306.521584 101.863788 
L 306.555742 101.851247 
L 307.022568 101.884262 
L 307.033954 101.894995 
L 307.056726 101.766458 
L 307.073805 101.669452 
L 307.107963 101.854063 
L 307.1592 101.833333 
L 307.38692 102.089162 
L 307.415385 103.840728 
L 307.426771 102.308229 
L 307.466622 66.422224 
L 307.512166 104.264305 
L 307.534938 102.823702 
L 307.660184 102.045275 
L 307.825281 101.916713 
L 307.84236 101.927482 
L 307.870825 102.027635 
L 307.893597 101.826592 
L 307.910676 101.61339 
L 307.939141 101.947804 
L 307.996071 101.883104 
L 308.121318 101.856812 
L 308.14409 101.394438 
L 308.172555 101.998511 
L 308.229485 101.873989 
L 308.366117 101.730918 
L 308.377503 101.609069 
L 308.451512 101.973095 
L 308.457205 101.971478 
L 308.633688 101.861063 
L 309.072049 101.853676 
L 309.362392 101.862616 
L 309.590112 101.77455 
L 309.612884 101.670839 
L 309.658428 101.872142 
L 309.686893 101.864067 
L 312.072261 101.860863 
L 315.31158 101.844828 
L 315.351431 101.648013 
L 315.402668 101.876622 
L 315.414054 101.875948 
L 315.738555 101.859948 
L 316.757602 101.873113 
L 316.956857 101.879936 
L 316.96255 101.861763 
L 316.996708 101.730087 
L 317.07641 101.844545 
L 317.264279 102.039651 
L 317.315516 102.808549 
L 317.326902 103.330888 
L 317.343981 101.231463 
L 317.389525 73.836501 
L 317.446455 103.767139 
L 317.634324 101.983078 
L 317.742492 101.898083 
L 317.788036 101.965516 
L 319.501629 101.742595 
L 319.518708 101.700878 
L 319.569945 101.868565 
L 319.581331 101.869166 
L 320.423896 101.860646 
L 328.189151 101.861647 
L 328.872311 101.860927 
L 329.965368 101.862667 
L 346.065178 101.861724 
L 347.038682 101.862133 
L 348.21144 101.863152 
L 348.849056 101.862065 
L 350.420325 101.863004 
L 351.234424 101.862896 
L 377.718271 101.860756 
L 379.961314 101.862616 
L 383.99196 101.862269 
L 400.940028 101.858324 
L 401.993233 101.856187 
L 402.545455 101.854991 
L 402.545455 101.854991 
" style="fill:none;stroke:#55a868;stroke-linecap:square;"/>
   </g>
   <g id="line2d_39">
    <path clip-path="url(#p74f8d00b28)" d="M 29.454545 56.602337 
L 37.168564 56.616464 
L 40.15739 56.617022 
L 44.979363 56.616625 
L 63.048952 56.61612 
L 64.346957 56.616649 
L 68.889973 56.617031 
L 71.827562 56.615872 
L 75.493855 56.615414 
L 76.945571 56.616529 
L 78.80149 56.616025 
L 81.072998 56.61637 
L 82.393774 56.616043 
L 83.532375 56.616351 
L 84.522957 56.616063 
L 91.861237 56.616211 
L 94.411702 56.615806 
L 96.17084 56.61546 
L 97.719337 56.61513 
L 98.954718 56.615721 
L 144.458886 56.615638 
L 147.333852 56.614791 
L 149.457342 56.615107 
L 150.470696 56.615381 
L 153.402593 56.614823 
L 162.397536 56.61526 
L 163.729699 56.615433 
L 177.552309 56.700438 
L 177.563695 56.725723 
L 177.580774 56.484375 
L 177.671862 55.217073 
L 177.694634 56.140304 
L 177.791415 56.878714 
L 177.808494 56.472756 
L 177.842652 53.530176 
L 177.922354 55.654909 
L 177.945126 57.011611 
L 178.036214 56.518462 
L 178.070372 55.274332 
L 178.150074 56.166705 
L 178.172846 56.805794 
L 178.269627 56.653139 
L 178.582742 56.624893 
L 180.552521 56.605063 
L 180.990882 56.616538 
L 182.613388 56.614577 
L 184.998756 56.614816 
L 190.093993 56.615263 
L 191.078882 56.615167 
L 194.933045 56.614547 
L 195.826846 56.614421 
L 199.014927 56.479623 
L 199.09463 56.230702 
L 199.168639 55.244961 
L 199.225569 55.98256 
L 199.271113 56.220489 
L 199.32235 55.937546 
L 199.373587 55.239724 
L 199.424824 56.001328 
L 199.572842 56.569689 
L 199.94858 56.608538 
L 203.768584 56.613708 
L 205.482178 56.615449 
L 213.645944 56.589242 
L 214.471429 56.380187 
L 214.813009 56.253362 
L 215.615722 56.572726 
L 217.613966 56.401265 
L 217.898616 55.326923 
L 217.910002 55.357337 
L 218.22881 56.627697 
L 218.359749 56.637903 
L 218.798111 56.616715 
L 220.033492 56.678493 
L 220.056264 56.782412 
L 220.079036 56.420496 
L 220.158738 52.5272 
L 220.227054 54.374542 
L 220.306756 56.891837 
L 220.357993 56.712014 
L 220.540169 56.638149 
L 221.029768 56.618736 
L 224.382946 56.616463 
L 224.451262 56.764099 
L 224.456955 56.779031 
L 224.474034 56.611197 
L 224.559429 52.713025 
L 224.633438 54.97243 
L 224.701754 56.888775 
L 224.77007 56.696676 
L 224.952246 56.645665 
L 226.500743 56.614937 
L 228.595768 56.616096 
L 229.535113 56.611054 
L 229.552192 56.588696 
L 229.637587 56.648409 
L 229.683131 56.887419 
L 229.70021 57.293338 
L 229.717289 56.008389 
L 229.740061 51.627996 
L 229.779912 57.398321 
L 229.819763 56.773018 
L 229.865307 56.731097 
L 229.882386 56.840812 
L 229.905158 57.546053 
L 229.922237 56.101073 
L 229.945009 50.884892 
L 229.979167 57.825909 
L 230.024711 57.54604 
L 230.036097 57.753758 
L 230.053176 55.275703 
L 230.075948 50.341661 
L 230.110106 57.822 
L 230.15565 56.805486 
L 230.184115 56.74577 
L 230.218273 56.988731 
L 230.235352 57.318147 
L 230.252431 55.839824 
L 230.275203 51.549273 
L 230.315054 57.403572 
L 230.354905 56.790165 
L 230.49723 56.637419 
L 230.668021 56.628449 
L 230.85589 56.6131 
L 236.07068 56.370952 
L 236.332558 56.3168 
L 236.702603 56.47036 
L 237.186508 56.578053 
L 237.49393 56.594666 
L 237.875362 56.58642 
L 237.989222 56.608288 
L 238.148626 56.800462 
L 238.171398 57.417504 
L 238.188477 55.826649 
L 238.211249 51.297597 
L 238.245407 58.092828 
L 238.296644 54.02 
L 238.319416 57.651839 
L 238.416197 56.714822 
L 238.461741 56.685039 
L 238.473127 56.743779 
L 238.501592 57.437715 
L 238.518671 56.222756 
L 238.541443 51.642717 
L 238.575601 58.029428 
L 238.626838 54.197433 
L 238.64961 57.561482 
L 238.746391 56.684406 
L 239.002576 56.625868 
L 239.156287 56.615423 
L 240.824337 56.59839 
L 241.587199 56.614032 
L 242.742879 56.566176 
L 242.777037 56.472144 
L 242.816888 54.478538 
L 242.83966 53.356082 
L 242.902283 56.489938 
L 243.027529 56.599178 
L 243.141389 56.513025 
L 243.175547 55.119342 
L 243.204012 53.1005 
L 243.266635 56.503578 
L 243.391881 56.627081 
L 244.644341 56.615564 
L 248.823005 56.613461 
L 250.377195 56.612342 
L 251.20268 56.610404 
L 252.836572 56.605523 
L 254.800658 56.461981 
L 255.352879 56.338455 
L 255.979109 56.534645 
L 256.18975 56.452721 
L 256.275145 56.060591 
L 256.349154 55.283011 
L 256.406084 55.825823 
L 256.537023 56.439991 
L 256.559795 56.425414 
L 256.633804 56.16314 
L 256.719199 55.349817 
L 256.776129 55.912995 
L 256.918454 56.503731 
L 256.92984 56.499163 
L 256.981077 56.321829 
L 257.0437 55.71515 
L 257.10063 56.196631 
L 257.146174 56.383113 
L 257.197412 56.16597 
L 257.254342 55.703247 
L 257.316965 56.072653 
L 257.351123 55.989526 
L 257.385281 55.901017 
L 257.436518 56.10524 
L 257.493448 56.356183 
L 257.538992 56.099671 
L 257.578843 55.753232 
L 257.635773 56.244788 
L 257.778098 56.593408 
L 257.783791 56.592794 
L 258.375863 56.61525 
L 260.516432 56.614433 
L 262.890414 56.614694 
L 266.232206 56.615297 
L 266.938139 56.616152 
L 272.972721 56.613517 
L 273.530635 56.53645 
L 273.576179 56.142857 
L 273.633109 56.588617 
L 273.667267 56.224653 
L 273.690039 56.058898 
L 273.746969 56.594175 
L 273.792513 56.191417 
L 273.803899 56.152108 
L 273.84375 56.503764 
L 273.860829 56.587378 
L 273.906373 56.097077 
L 273.917759 56.05467 
L 273.951917 56.424503 
L 273.986075 56.624653 
L 274.065777 56.570403 
L 274.253647 55.070611 
L 274.270726 55.736254 
L 274.287805 56.518752 
L 274.327656 55.080287 
L 274.3732 55.314609 
L 274.390279 55.707072 
L 274.413051 56.575184 
L 274.458595 55.439224 
L 274.515525 56.553674 
L 274.538297 56.688394 
L 274.629385 56.631615 
L 274.686315 56.570974 
L 274.743245 55.508391 
L 274.794482 56.528196 
L 274.817254 56.647628 
L 274.908342 56.608204 
L 274.9425 56.083512 
L 274.976658 55.486917 
L 275.033588 56.620637 
L 275.039281 56.64622 
L 275.067746 56.366575 
L 275.107597 55.519366 
L 275.164527 56.584305 
L 275.181606 56.661781 
L 275.255615 56.469923 
L 275.335317 55.476316 
L 275.380861 56.254968 
L 275.409326 56.679542 
L 275.494721 56.38401 
L 275.523186 56.186133 
L 275.580116 56.649907 
L 275.591502 56.670494 
L 275.619967 56.486571 
L 275.654125 56.039185 
L 275.716748 56.66123 
L 275.830608 56.636883 
L 275.870459 56.182874 
L 275.887538 56.060391 
L 275.938775 56.595709 
L 275.955854 56.659653 
L 276.052635 56.625183 
L 278.187511 56.590952 
L 278.381073 55.490586 
L 278.392459 55.747769 
L 278.523398 56.695798 
L 278.466468 55.537172 
L 278.529091 56.690437 
L 278.637258 56.345338 
L 278.671416 55.455518 
L 278.711267 56.379643 
L 278.762504 55.59282 
L 278.847899 56.332308 
L 278.808048 55.46747 
L 278.882057 55.789945 
L 278.88775 55.734559 
L 278.921908 56.359948 
L 278.956067 56.664569 
L 279.041462 56.636975 
L 287.04013 56.419625 
L 287.102753 56.189194 
L 287.15399 56.374128 
L 287.182455 56.443501 
L 287.233692 56.258687 
L 287.26785 56.113269 
L 287.32478 56.365917 
L 287.393096 56.617139 
L 287.450026 56.453913 
L 287.535421 55.744107 
L 287.592351 56.174898 
L 287.620816 56.30188 
L 287.66636 55.978378 
L 287.706211 55.706387 
L 287.757448 56.127865 
L 287.842843 56.64049 
L 287.899773 56.471888 
L 287.968089 56.160014 
L 288.025019 56.391803 
L 288.059177 56.460485 
L 288.104721 56.286935 
L 288.138879 56.186981 
L 288.190116 56.389454 
L 288.343827 56.62292 
L 288.918821 56.483099 
L 289.015602 55.634308 
L 289.123769 55.675635 
L 289.249015 56.623797 
L 289.323024 56.130216 
L 289.379954 55.643137 
L 289.465349 55.784621 
L 289.488121 55.782842 
L 289.5052 55.860962 
L 289.61906 56.653284 
L 289.710148 56.635246 
L 290.399001 56.616584 
L 291.691313 56.546139 
L 291.822252 55.810069 
L 291.85641 56.231408 
L 291.867796 56.293695 
L 291.901954 55.721205 
L 291.907647 55.67003 
L 291.941805 56.269371 
L 292.044279 56.476246 
L 291.998735 55.747891 
L 292.055665 56.423776 
L 292.180911 56.074713 
L 292.129674 56.594688 
L 292.192297 56.129448 
L 292.220762 56.387111 
L 292.260613 55.625861 
L 292.266306 55.595627 
L 292.289078 56.010445 
L 292.306157 56.295021 
L 292.351701 55.577195 
L 292.402938 56.246863 
L 292.437096 55.812215 
L 292.488333 56.386266 
L 292.511105 56.265338 
L 292.522491 56.240434 
L 292.556649 56.49216 
L 292.613579 56.620031 
L 292.681895 56.603776 
L 292.807141 56.503874 
L 292.972238 54.832688 
L 292.99501 55.582705 
L 293.034861 56.558596 
L 293.10887 55.803322 
L 293.171493 56.642608 
L 293.245502 56.489305 
L 293.399213 55.032107 
L 293.33659 56.50589 
L 293.416292 55.411195 
L 293.45045 56.426145 
L 293.501688 54.892538 
L 293.547232 56.315756 
L 293.587083 56.651807 
L 293.666785 56.622548 
L 293.820496 56.519639 
L 293.92297 55.67184 
L 293.962821 56.375813 
L 294.031137 56.050903 
L 294.088067 56.575745 
L 294.122225 56.585925 
L 294.156383 56.494415 
L 294.224699 56.537386 
L 294.26455 55.70755 
L 294.395489 54.789067 
L 294.429647 54.155805 
L 294.463805 55.535872 
L 294.503656 56.41782 
L 294.554893 54.98069 
L 294.566279 55.135671 
L 294.600437 56.39184 
L 294.651674 54.636259 
L 294.697218 56.108943 
L 294.725683 56.148013 
L 294.737069 56.047916 
L 294.771227 55.01293 
L 294.828157 56.496508 
L 294.94771 56.634508 
L 294.879394 56.316404 
L 294.953403 56.63131 
L 295.00464 56.394953 
L 295.101421 56.615683 
L 299.729832 56.613676 
L 300.481308 56.491493 
L 300.515466 56.174729 
L 300.578089 56.592616 
L 300.600861 56.597401 
L 300.623633 56.491436 
L 300.657791 56.107244 
L 300.720414 56.609875 
L 300.896898 56.554201 
L 300.942442 55.397489 
L 300.953828 55.216 
L 300.999372 56.505695 
L 301.027837 56.606218 
L 301.061995 56.15654 
L 301.096153 55.186864 
L 301.158776 56.626522 
L 301.329566 56.606876 
L 301.358031 56.156691 
L 301.392189 55.034242 
L 301.454812 56.625315 
L 301.477584 56.588128 
L 301.483277 56.538634 
L 301.528821 55.111969 
L 301.585751 56.616441 
L 301.705304 56.622073 
L 301.790699 56.531967 
L 301.824857 56.004548 
L 301.88748 56.620035 
L 301.893173 56.61988 
L 301.933024 56.501367 
L 301.967182 56.124384 
L 302.029805 56.622706 
L 302.280297 56.615847 
L 304.050821 56.44966 
L 304.107751 55.965904 
L 304.164681 56.4196 
L 304.232997 56.519247 
L 304.261462 56.413725 
L 304.40948 54.223938 
L 304.443638 55.679169 
L 304.455024 55.87137 
L 304.489182 54.009323 
L 304.500568 53.652511 
L 304.557498 55.912679 
L 304.620121 56.556899 
L 304.671358 55.967962 
L 304.705516 55.613983 
L 304.762446 56.246353 
L 304.785218 56.464302 
L 304.813683 55.707766 
L 304.927543 54.531055 
L 304.881999 56.07192 
L 304.938929 54.858555 
L 305.018631 56.589698 
L 305.075561 56.347135 
L 305.109719 56.170775 
L 305.160956 56.5014 
L 305.280509 56.62834 
L 305.297588 56.622385 
L 305.400062 56.479168 
L 305.411448 56.44247 
L 305.456992 56.62995 
L 305.479764 56.626287 
L 306.447575 56.599936 
L 306.47604 56.474883 
L 306.521584 56.617382 
L 306.555742 56.604841 
L 307.022568 56.637856 
L 307.033954 56.648589 
L 307.056726 56.520053 
L 307.073805 56.423047 
L 307.107963 56.607658 
L 307.1592 56.586928 
L 307.38692 56.842756 
L 307.415385 58.594322 
L 307.426771 57.061823 
L 307.466622 21.175818 
L 307.512166 59.0179 
L 307.534938 57.577296 
L 307.660184 56.798869 
L 307.825281 56.670308 
L 307.84236 56.681076 
L 307.870825 56.781229 
L 307.893597 56.580186 
L 307.910676 56.366985 
L 307.939141 56.701398 
L 307.996071 56.636698 
L 308.121318 56.610406 
L 308.14409 56.148032 
L 308.172555 56.752105 
L 308.229485 56.627583 
L 308.366117 56.484512 
L 308.377503 56.362663 
L 308.451512 56.726689 
L 308.457205 56.725073 
L 308.633688 56.614657 
L 309.072049 56.60727 
L 309.362392 56.616211 
L 309.590112 56.528144 
L 309.612884 56.424433 
L 309.658428 56.625736 
L 309.686893 56.617661 
L 312.072261 56.614457 
L 315.31158 56.598422 
L 315.351431 56.401608 
L 315.402668 56.630217 
L 315.414054 56.629542 
L 315.738555 56.613542 
L 316.757602 56.626707 
L 316.956857 56.633531 
L 316.96255 56.615357 
L 316.996708 56.483681 
L 317.07641 56.598139 
L 317.264279 56.793246 
L 317.315516 57.562143 
L 317.326902 58.084482 
L 317.343981 55.985057 
L 317.389525 28.590095 
L 317.446455 58.520733 
L 317.634324 56.736672 
L 317.742492 56.651678 
L 317.788036 56.71911 
L 319.501629 56.496189 
L 319.518708 56.454472 
L 319.569945 56.622159 
L 319.581331 56.622761 
L 320.423896 56.61424 
L 328.189151 56.615241 
L 328.872311 56.614521 
L 329.965368 56.616262 
L 346.065178 56.615318 
L 347.038682 56.615727 
L 348.21144 56.616746 
L 348.849056 56.615659 
L 350.420325 56.616598 
L 351.234424 56.616491 
L 377.718271 56.61435 
L 379.961314 56.616211 
L 383.99196 56.615864 
L 400.940028 56.611918 
L 401.993233 56.609781 
L 402.545455 56.608585 
L 402.545455 56.608585 
" style="fill:none;stroke:#c44e52;stroke-linecap:square;"/>
   </g>
   <g id="patch_3">
    <path d="M 10.8 239.068 
L 421.2 239.068 
" style="fill:none;stroke:#000000;stroke-linecap:square;stroke-linejoin:miter;stroke-width:1.3;"/>
   </g>
  </g>
 </g>
 <defs>
  <clipPath id="p74f8d00b28">
   <rect height="228.268" width="410.4" x="10.8" y="10.8"/>
  </clipPath>
 </defs>
</svg>
