<?xml version="1.0" encoding="utf-8" standalone="no"?>
<!DOCTYPE svg PUBLIC "-//W3C//DTD SVG 1.1//EN"
  "http://www.w3.org/Graphics/SVG/1.1/DTD/svg11.dtd">
<svg xmlns:xlink="http://www.w3.org/1999/xlink" width="432pt" height="288pt" viewBox="0 0 432 288" xmlns="http://www.w3.org/2000/svg" version="1.1">
 <metadata>
  <rdf:RDF xmlns:dc="http://purl.org/dc/elements/1.1/" xmlns:cc="http://creativecommons.org/ns#" xmlns:rdf="http://www.w3.org/1999/02/22-rdf-syntax-ns#">
   <cc:Work>
    <dc:type rdf:resource="http://purl.org/dc/dcmitype/StillImage"/>
    <dc:date>2022-07-29T16:44:18.900029</dc:date>
    <dc:format>image/svg+xml</dc:format>
    <dc:creator>
     <cc:Agent>
      <dc:title>Matplotlib v3.5.2, https://matplotlib.org/</dc:title>
     </cc:Agent>
    </dc:creator>
   </cc:Work>
  </rdf:RDF>
 </metadata>
 <defs>
  <style type="text/css">*{stroke-linejoin: round; stroke-linecap: butt}</style>
 </defs>
 <g id="figure_1">
  <g id="patch_1">
   <path d="M 0 288 
L 432 288 
L 432 0 
L 0 0 
z
" style="fill: #ffffff"/>
  </g>
  <g id="axes_1">
   <g id="patch_2">
    <path d="M 11.608714 239.068 
L 421.2 239.068 
L 421.2 10.8 
L 11.608714 10.8 
z
" style="fill: #ffffff"/>
   </g>
   <g id="matplotlib.axis_1">
    <g id="xtick_1">
     <g id="line2d_1">
      <defs>
       <path id="m8d8b81b30f" d="M 0 0 
L 0 5 
" style="stroke: #000000; stroke-width: 1.3"/>
      </defs>
      <g>
       <use xlink:href="#m8d8b81b30f" x="398.298226" y="239.068" style="stroke: #000000; stroke-width: 1.3"/>
      </g>
     </g>
     <g id="text_1">
      <!-- 4.620 -->
      <g transform="translate(383.984164 255.166437)scale(0.1 -0.1)">
       <defs>
        <path id="DejaVuSans-34" d="M 2419 4116 
L 825 1625 
L 2419 1625 
L 2419 4116 
z
M 2253 4666 
L 3047 4666 
L 3047 1625 
L 3713 1625 
L 3713 1100 
L 3047 1100 
L 3047 0 
L 2419 0 
L 2419 1100 
L 313 1100 
L 313 1709 
L 2253 4666 
z
" transform="scale(0.015625)"/>
        <path id="DejaVuSans-2e" d="M 684 794 
L 1344 794 
L 1344 0 
L 684 0 
L 684 794 
z
" transform="scale(0.015625)"/>
        <path id="DejaVuSans-36" d="M 2113 2584 
Q 1688 2584 1439 2293 
Q 1191 2003 1191 1497 
Q 1191 994 1439 701 
Q 1688 409 2113 409 
Q 2538 409 2786 701 
Q 3034 994 3034 1497 
Q 3034 2003 2786 2293 
Q 2538 2584 2113 2584 
z
M 3366 4563 
L 3366 3988 
Q 3128 4100 2886 4159 
Q 2644 4219 2406 4219 
Q 1781 4219 1451 3797 
Q 1122 3375 1075 2522 
Q 1259 2794 1537 2939 
Q 1816 3084 2150 3084 
Q 2853 3084 3261 2657 
Q 3669 2231 3669 1497 
Q 3669 778 3244 343 
Q 2819 -91 2113 -91 
Q 1303 -91 875 529 
Q 447 1150 447 2328 
Q 447 3434 972 4092 
Q 1497 4750 2381 4750 
Q 2619 4750 2861 4703 
Q 3103 4656 3366 4563 
z
" transform="scale(0.015625)"/>
        <path id="DejaVuSans-32" d="M 1228 531 
L 3431 531 
L 3431 0 
L 469 0 
L 469 531 
Q 828 903 1448 1529 
Q 2069 2156 2228 2338 
Q 2531 2678 2651 2914 
Q 2772 3150 2772 3378 
Q 2772 3750 2511 3984 
Q 2250 4219 1831 4219 
Q 1534 4219 1204 4116 
Q 875 4013 500 3803 
L 500 4441 
Q 881 4594 1212 4672 
Q 1544 4750 1819 4750 
Q 2544 4750 2975 4387 
Q 3406 4025 3406 3419 
Q 3406 3131 3298 2873 
Q 3191 2616 2906 2266 
Q 2828 2175 2409 1742 
Q 1991 1309 1228 531 
z
" transform="scale(0.015625)"/>
        <path id="DejaVuSans-30" d="M 2034 4250 
Q 1547 4250 1301 3770 
Q 1056 3291 1056 2328 
Q 1056 1369 1301 889 
Q 1547 409 2034 409 
Q 2525 409 2770 889 
Q 3016 1369 3016 2328 
Q 3016 3291 2770 3770 
Q 2525 4250 2034 4250 
z
M 2034 4750 
Q 2819 4750 3233 4129 
Q 3647 3509 3647 2328 
Q 3647 1150 3233 529 
Q 2819 -91 2034 -91 
Q 1250 -91 836 529 
Q 422 1150 422 2328 
Q 422 3509 836 4129 
Q 1250 4750 2034 4750 
z
" transform="scale(0.015625)"/>
       </defs>
       <use xlink:href="#DejaVuSans-34"/>
       <use xlink:href="#DejaVuSans-2e" x="63.623047"/>
       <use xlink:href="#DejaVuSans-36" x="95.410156"/>
       <use xlink:href="#DejaVuSans-32" x="159.033203"/>
       <use xlink:href="#DejaVuSans-30" x="222.65625"/>
      </g>
     </g>
    </g>
    <g id="xtick_2">
     <g id="line2d_2">
      <g>
       <use xlink:href="#m8d8b81b30f" x="336.584515" y="239.068" style="stroke: #000000; stroke-width: 1.3"/>
      </g>
     </g>
     <g id="text_2">
      <!-- 4.625 -->
      <g transform="translate(322.270453 255.166437)scale(0.1 -0.1)">
       <defs>
        <path id="DejaVuSans-35" d="M 691 4666 
L 3169 4666 
L 3169 4134 
L 1269 4134 
L 1269 2991 
Q 1406 3038 1543 3061 
Q 1681 3084 1819 3084 
Q 2600 3084 3056 2656 
Q 3513 2228 3513 1497 
Q 3513 744 3044 326 
Q 2575 -91 1722 -91 
Q 1428 -91 1123 -41 
Q 819 9 494 109 
L 494 744 
Q 775 591 1075 516 
Q 1375 441 1709 441 
Q 2250 441 2565 725 
Q 2881 1009 2881 1497 
Q 2881 1984 2565 2268 
Q 2250 2553 1709 2553 
Q 1456 2553 1204 2497 
Q 953 2441 691 2322 
L 691 4666 
z
" transform="scale(0.015625)"/>
       </defs>
       <use xlink:href="#DejaVuSans-34"/>
       <use xlink:href="#DejaVuSans-2e" x="63.623047"/>
       <use xlink:href="#DejaVuSans-36" x="95.410156"/>
       <use xlink:href="#DejaVuSans-32" x="159.033203"/>
       <use xlink:href="#DejaVuSans-35" x="222.65625"/>
      </g>
     </g>
    </g>
    <g id="xtick_3">
     <g id="line2d_3">
      <g>
       <use xlink:href="#m8d8b81b30f" x="274.870804" y="239.068" style="stroke: #000000; stroke-width: 1.3"/>
      </g>
     </g>
     <g id="text_3">
      <!-- 4.630 -->
      <g transform="translate(260.556742 255.166437)scale(0.1 -0.1)">
       <defs>
        <path id="DejaVuSans-33" d="M 2597 2516 
Q 3050 2419 3304 2112 
Q 3559 1806 3559 1356 
Q 3559 666 3084 287 
Q 2609 -91 1734 -91 
Q 1441 -91 1130 -33 
Q 819 25 488 141 
L 488 750 
Q 750 597 1062 519 
Q 1375 441 1716 441 
Q 2309 441 2620 675 
Q 2931 909 2931 1356 
Q 2931 1769 2642 2001 
Q 2353 2234 1838 2234 
L 1294 2234 
L 1294 2753 
L 1863 2753 
Q 2328 2753 2575 2939 
Q 2822 3125 2822 3475 
Q 2822 3834 2567 4026 
Q 2313 4219 1838 4219 
Q 1578 4219 1281 4162 
Q 984 4106 628 3988 
L 628 4550 
Q 988 4650 1302 4700 
Q 1616 4750 1894 4750 
Q 2613 4750 3031 4423 
Q 3450 4097 3450 3541 
Q 3450 3153 3228 2886 
Q 3006 2619 2597 2516 
z
" transform="scale(0.015625)"/>
       </defs>
       <use xlink:href="#DejaVuSans-34"/>
       <use xlink:href="#DejaVuSans-2e" x="63.623047"/>
       <use xlink:href="#DejaVuSans-36" x="95.410156"/>
       <use xlink:href="#DejaVuSans-33" x="159.033203"/>
       <use xlink:href="#DejaVuSans-30" x="222.65625"/>
      </g>
     </g>
    </g>
    <g id="xtick_4">
     <g id="line2d_4">
      <g>
       <use xlink:href="#m8d8b81b30f" x="213.157093" y="239.068" style="stroke: #000000; stroke-width: 1.3"/>
      </g>
     </g>
     <g id="text_4">
      <!-- 4.635 -->
      <g transform="translate(198.84303 255.166437)scale(0.1 -0.1)">
       <use xlink:href="#DejaVuSans-34"/>
       <use xlink:href="#DejaVuSans-2e" x="63.623047"/>
       <use xlink:href="#DejaVuSans-36" x="95.410156"/>
       <use xlink:href="#DejaVuSans-33" x="159.033203"/>
       <use xlink:href="#DejaVuSans-35" x="222.65625"/>
      </g>
     </g>
    </g>
    <g id="xtick_5">
     <g id="line2d_5">
      <g>
       <use xlink:href="#m8d8b81b30f" x="151.443382" y="239.068" style="stroke: #000000; stroke-width: 1.3"/>
      </g>
     </g>
     <g id="text_5">
      <!-- 4.640 -->
      <g transform="translate(137.129319 255.166437)scale(0.1 -0.1)">
       <use xlink:href="#DejaVuSans-34"/>
       <use xlink:href="#DejaVuSans-2e" x="63.623047"/>
       <use xlink:href="#DejaVuSans-36" x="95.410156"/>
       <use xlink:href="#DejaVuSans-34" x="159.033203"/>
       <use xlink:href="#DejaVuSans-30" x="222.65625"/>
      </g>
     </g>
    </g>
    <g id="xtick_6">
     <g id="line2d_6">
      <g>
       <use xlink:href="#m8d8b81b30f" x="89.729671" y="239.068" style="stroke: #000000; stroke-width: 1.3"/>
      </g>
     </g>
     <g id="text_6">
      <!-- 4.645 -->
      <g transform="translate(75.415608 255.166437)scale(0.1 -0.1)">
       <use xlink:href="#DejaVuSans-34"/>
       <use xlink:href="#DejaVuSans-2e" x="63.623047"/>
       <use xlink:href="#DejaVuSans-36" x="95.410156"/>
       <use xlink:href="#DejaVuSans-34" x="159.033203"/>
       <use xlink:href="#DejaVuSans-35" x="222.65625"/>
      </g>
     </g>
    </g>
    <g id="xtick_7">
     <g id="line2d_7">
      <g>
       <use xlink:href="#m8d8b81b30f" x="28.01596" y="239.068" style="stroke: #000000; stroke-width: 1.3"/>
      </g>
     </g>
     <g id="text_7">
      <!-- 4.650 -->
      <g transform="translate(13.701897 255.166437)scale(0.1 -0.1)">
       <use xlink:href="#DejaVuSans-34"/>
       <use xlink:href="#DejaVuSans-2e" x="63.623047"/>
       <use xlink:href="#DejaVuSans-36" x="95.410156"/>
       <use xlink:href="#DejaVuSans-35" x="159.033203"/>
       <use xlink:href="#DejaVuSans-30" x="222.65625"/>
      </g>
     </g>
    </g>
    <g id="xtick_8">
     <g id="line2d_8">
      <defs>
       <path id="m3d784cfb0e" d="M 0 0 
L 0 3 
" style="stroke: #000000; stroke-width: 1.3"/>
      </defs>
      <g>
       <use xlink:href="#m3d784cfb0e" x="410.640968" y="239.068" style="stroke: #000000; stroke-width: 1.3"/>
      </g>
     </g>
    </g>
    <g id="xtick_9">
     <g id="line2d_9">
      <g>
       <use xlink:href="#m3d784cfb0e" x="385.955484" y="239.068" style="stroke: #000000; stroke-width: 1.3"/>
      </g>
     </g>
    </g>
    <g id="xtick_10">
     <g id="line2d_10">
      <g>
       <use xlink:href="#m3d784cfb0e" x="373.612742" y="239.068" style="stroke: #000000; stroke-width: 1.3"/>
      </g>
     </g>
    </g>
    <g id="xtick_11">
     <g id="line2d_11">
      <g>
       <use xlink:href="#m3d784cfb0e" x="361.27" y="239.068" style="stroke: #000000; stroke-width: 1.3"/>
      </g>
     </g>
    </g>
    <g id="xtick_12">
     <g id="line2d_12">
      <g>
       <use xlink:href="#m3d784cfb0e" x="348.927257" y="239.068" style="stroke: #000000; stroke-width: 1.3"/>
      </g>
     </g>
    </g>
    <g id="xtick_13">
     <g id="line2d_13">
      <g>
       <use xlink:href="#m3d784cfb0e" x="324.241773" y="239.068" style="stroke: #000000; stroke-width: 1.3"/>
      </g>
     </g>
    </g>
    <g id="xtick_14">
     <g id="line2d_14">
      <g>
       <use xlink:href="#m3d784cfb0e" x="311.899031" y="239.068" style="stroke: #000000; stroke-width: 1.3"/>
      </g>
     </g>
    </g>
    <g id="xtick_15">
     <g id="line2d_15">
      <g>
       <use xlink:href="#m3d784cfb0e" x="299.556288" y="239.068" style="stroke: #000000; stroke-width: 1.3"/>
      </g>
     </g>
    </g>
    <g id="xtick_16">
     <g id="line2d_16">
      <g>
       <use xlink:href="#m3d784cfb0e" x="287.213546" y="239.068" style="stroke: #000000; stroke-width: 1.3"/>
      </g>
     </g>
    </g>
    <g id="xtick_17">
     <g id="line2d_17">
      <g>
       <use xlink:href="#m3d784cfb0e" x="262.528062" y="239.068" style="stroke: #000000; stroke-width: 1.3"/>
      </g>
     </g>
    </g>
    <g id="xtick_18">
     <g id="line2d_18">
      <g>
       <use xlink:href="#m3d784cfb0e" x="250.18532" y="239.068" style="stroke: #000000; stroke-width: 1.3"/>
      </g>
     </g>
    </g>
    <g id="xtick_19">
     <g id="line2d_19">
      <g>
       <use xlink:href="#m3d784cfb0e" x="237.842577" y="239.068" style="stroke: #000000; stroke-width: 1.3"/>
      </g>
     </g>
    </g>
    <g id="xtick_20">
     <g id="line2d_20">
      <g>
       <use xlink:href="#m3d784cfb0e" x="225.499835" y="239.068" style="stroke: #000000; stroke-width: 1.3"/>
      </g>
     </g>
    </g>
    <g id="xtick_21">
     <g id="line2d_21">
      <g>
       <use xlink:href="#m3d784cfb0e" x="200.814351" y="239.068" style="stroke: #000000; stroke-width: 1.3"/>
      </g>
     </g>
    </g>
    <g id="xtick_22">
     <g id="line2d_22">
      <g>
       <use xlink:href="#m3d784cfb0e" x="188.471609" y="239.068" style="stroke: #000000; stroke-width: 1.3"/>
      </g>
     </g>
    </g>
    <g id="xtick_23">
     <g id="line2d_23">
      <g>
       <use xlink:href="#m3d784cfb0e" x="176.128866" y="239.068" style="stroke: #000000; stroke-width: 1.3"/>
      </g>
     </g>
    </g>
    <g id="xtick_24">
     <g id="line2d_24">
      <g>
       <use xlink:href="#m3d784cfb0e" x="163.786124" y="239.068" style="stroke: #000000; stroke-width: 1.3"/>
      </g>
     </g>
    </g>
    <g id="xtick_25">
     <g id="line2d_25">
      <g>
       <use xlink:href="#m3d784cfb0e" x="139.10064" y="239.068" style="stroke: #000000; stroke-width: 1.3"/>
      </g>
     </g>
    </g>
    <g id="xtick_26">
     <g id="line2d_26">
      <g>
       <use xlink:href="#m3d784cfb0e" x="126.757897" y="239.068" style="stroke: #000000; stroke-width: 1.3"/>
      </g>
     </g>
    </g>
    <g id="xtick_27">
     <g id="line2d_27">
      <g>
       <use xlink:href="#m3d784cfb0e" x="114.415155" y="239.068" style="stroke: #000000; stroke-width: 1.3"/>
      </g>
     </g>
    </g>
    <g id="xtick_28">
     <g id="line2d_28">
      <g>
       <use xlink:href="#m3d784cfb0e" x="102.072413" y="239.068" style="stroke: #000000; stroke-width: 1.3"/>
      </g>
     </g>
    </g>
    <g id="xtick_29">
     <g id="line2d_29">
      <g>
       <use xlink:href="#m3d784cfb0e" x="77.386929" y="239.068" style="stroke: #000000; stroke-width: 1.3"/>
      </g>
     </g>
    </g>
    <g id="xtick_30">
     <g id="line2d_30">
      <g>
       <use xlink:href="#m3d784cfb0e" x="65.044186" y="239.068" style="stroke: #000000; stroke-width: 1.3"/>
      </g>
     </g>
    </g>
    <g id="xtick_31">
     <g id="line2d_31">
      <g>
       <use xlink:href="#m3d784cfb0e" x="52.701444" y="239.068" style="stroke: #000000; stroke-width: 1.3"/>
      </g>
     </g>
    </g>
    <g id="xtick_32">
     <g id="line2d_32">
      <g>
       <use xlink:href="#m3d784cfb0e" x="40.358702" y="239.068" style="stroke: #000000; stroke-width: 1.3"/>
      </g>
     </g>
    </g>
    <g id="xtick_33">
     <g id="line2d_33">
      <g>
       <use xlink:href="#m3d784cfb0e" x="15.673217" y="239.068" style="stroke: #000000; stroke-width: 1.3"/>
      </g>
     </g>
    </g>
    <g id="text_8">
     <!-- $\rm ^{1}H$ (ppm) -->
     <g transform="translate(193.504357 270.246125)scale(0.1 -0.1)">
      <defs>
       <path id="DejaVuSans-31" d="M 794 531 
L 1825 531 
L 1825 4091 
L 703 3866 
L 703 4441 
L 1819 4666 
L 2450 4666 
L 2450 531 
L 3481 531 
L 3481 0 
L 794 0 
L 794 531 
z
" transform="scale(0.015625)"/>
       <path id="DejaVuSans-48" d="M 628 4666 
L 1259 4666 
L 1259 2753 
L 3553 2753 
L 3553 4666 
L 4184 4666 
L 4184 0 
L 3553 0 
L 3553 2222 
L 1259 2222 
L 1259 0 
L 628 0 
L 628 4666 
z
" transform="scale(0.015625)"/>
       <path id="DejaVuSans-20" transform="scale(0.015625)"/>
       <path id="DejaVuSans-28" d="M 1984 4856 
Q 1566 4138 1362 3434 
Q 1159 2731 1159 2009 
Q 1159 1288 1364 580 
Q 1569 -128 1984 -844 
L 1484 -844 
Q 1016 -109 783 600 
Q 550 1309 550 2009 
Q 550 2706 781 3412 
Q 1013 4119 1484 4856 
L 1984 4856 
z
" transform="scale(0.015625)"/>
       <path id="DejaVuSans-70" d="M 1159 525 
L 1159 -1331 
L 581 -1331 
L 581 3500 
L 1159 3500 
L 1159 2969 
Q 1341 3281 1617 3432 
Q 1894 3584 2278 3584 
Q 2916 3584 3314 3078 
Q 3713 2572 3713 1747 
Q 3713 922 3314 415 
Q 2916 -91 2278 -91 
Q 1894 -91 1617 61 
Q 1341 213 1159 525 
z
M 3116 1747 
Q 3116 2381 2855 2742 
Q 2594 3103 2138 3103 
Q 1681 3103 1420 2742 
Q 1159 2381 1159 1747 
Q 1159 1113 1420 752 
Q 1681 391 2138 391 
Q 2594 391 2855 752 
Q 3116 1113 3116 1747 
z
" transform="scale(0.015625)"/>
       <path id="DejaVuSans-6d" d="M 3328 2828 
Q 3544 3216 3844 3400 
Q 4144 3584 4550 3584 
Q 5097 3584 5394 3201 
Q 5691 2819 5691 2113 
L 5691 0 
L 5113 0 
L 5113 2094 
Q 5113 2597 4934 2840 
Q 4756 3084 4391 3084 
Q 3944 3084 3684 2787 
Q 3425 2491 3425 1978 
L 3425 0 
L 2847 0 
L 2847 2094 
Q 2847 2600 2669 2842 
Q 2491 3084 2119 3084 
Q 1678 3084 1418 2786 
Q 1159 2488 1159 1978 
L 1159 0 
L 581 0 
L 581 3500 
L 1159 3500 
L 1159 2956 
Q 1356 3278 1631 3431 
Q 1906 3584 2284 3584 
Q 2666 3584 2933 3390 
Q 3200 3197 3328 2828 
z
" transform="scale(0.015625)"/>
       <path id="DejaVuSans-29" d="M 513 4856 
L 1013 4856 
Q 1481 4119 1714 3412 
Q 1947 2706 1947 2009 
Q 1947 1309 1714 600 
Q 1481 -109 1013 -844 
L 513 -844 
Q 928 -128 1133 580 
Q 1338 1288 1338 2009 
Q 1338 2731 1133 3434 
Q 928 4138 513 4856 
z
" transform="scale(0.015625)"/>
      </defs>
      <use xlink:href="#DejaVuSans-31" transform="translate(0.957031 38.965625)scale(0.7)"/>
      <use xlink:href="#DejaVuSans-48" transform="translate(48.227539 0.684375)"/>
      <use xlink:href="#DejaVuSans-20" transform="translate(123.422852 0.684375)"/>
      <use xlink:href="#DejaVuSans-28" transform="translate(155.209961 0.684375)"/>
      <use xlink:href="#DejaVuSans-70" transform="translate(194.223633 0.684375)"/>
      <use xlink:href="#DejaVuSans-70" transform="translate(257.700195 0.684375)"/>
      <use xlink:href="#DejaVuSans-6d" transform="translate(321.176758 0.684375)"/>
      <use xlink:href="#DejaVuSans-29" transform="translate(418.588867 0.684375)"/>
     </g>
    </g>
   </g>
   <g id="matplotlib.axis_2"/>
   <g id="line2d_34">
    <path d="M 30.2265 220.504271 
L 33.229369 220.381263 
L 36.232237 220.255713 
L 39.235106 220.145649 
L 42.237975 220.053216 
L 45.240843 219.978665 
L 48.243712 219.899532 
L 51.246581 219.811488 
L 54.249449 219.723631 
L 57.252318 219.629824 
L 60.255187 219.520889 
L 63.258055 219.402508 
L 66.260924 219.283077 
L 69.263793 219.155865 
L 72.266661 219.023808 
L 75.26953 218.874185 
L 78.272399 218.700393 
L 81.275267 218.518196 
L 84.278136 218.321697 
L 87.281005 218.105463 
L 90.283873 217.868307 
L 93.286742 217.599383 
L 96.289611 217.313412 
L 99.292479 217.017549 
L 102.295348 216.695511 
L 105.298217 216.338725 
L 108.301085 215.960431 
L 111.303954 215.554962 
L 114.306823 215.125582 
L 117.309691 214.659654 
L 120.31256 214.160996 
L 123.315429 213.631938 
L 126.318297 213.063218 
L 129.321166 212.444024 
L 132.324035 211.768744 
L 135.326903 211.021761 
L 138.329772 210.196383 
L 141.332641 209.295073 
L 144.335509 208.268557 
L 147.338378 207.116448 
L 150.341246 205.81708 
L 153.344115 204.309357 
L 156.346984 202.548816 
L 159.349852 200.478651 
L 162.352721 198.009149 
L 165.35559 194.999338 
L 168.358458 191.306227 
L 171.361327 186.786665 
L 174.364196 181.268415 
L 177.367064 174.637729 
L 180.369933 166.881652 
L 183.372802 158.108815 
L 186.37567 148.555606 
L 189.378539 138.511883 
L 192.381408 128.321647 
L 195.384276 118.197804 
L 198.387145 108.123827 
L 201.390014 97.836383 
L 204.392882 86.970774 
L 207.395751 75.338962 
L 210.39862 63.148595 
L 213.401488 51.073847 
L 216.404357 40.098993 
L 219.407226 31.237538 
L 222.410094 25.185765 
L 225.412963 22.009839 
L 228.415832 21.175818 
L 231.4187 21.756434 
L 234.421569 22.883648 
L 237.424438 24.172116 
L 240.427306 25.910646 
L 243.430175 28.855618 
L 246.433044 33.88808 
L 249.435912 41.605365 
L 252.438781 51.985191 
L 255.44165 64.3271 
L 258.444518 77.508723 
L 261.447387 90.474578 
L 264.450256 102.553709 
L 267.453124 113.567417 
L 270.455993 123.738107 
L 273.458862 133.472972 
L 276.46173 143.125012 
L 279.464599 152.790052 
L 282.467468 162.283354 
L 285.470336 171.271958 
L 288.473205 179.416318 
L 291.476074 186.46649 
L 294.478942 192.394074 
L 297.481811 197.26215 
L 300.48468 201.229818 
L 303.487548 204.450746 
L 306.490417 207.056081 
L 309.493286 209.184152 
L 312.496154 210.934772 
L 315.499023 212.392966 
L 318.501892 213.603862 
L 321.50476 214.634752 
L 324.507629 215.514209 
L 327.510498 216.267603 
L 330.513366 216.921786 
L 333.516235 217.489897 
L 336.519104 217.99348 
L 339.521972 218.43997 
L 342.524841 218.836054 
L 345.52771 219.194495 
L 348.530578 219.532381 
L 351.533447 219.838636 
L 354.536316 220.131437 
L 357.539184 220.412012 
L 360.542053 220.665732 
L 363.544922 220.909734 
L 366.54779 221.12657 
L 369.550659 221.321817 
L 372.553528 221.521138 
L 375.556396 221.707022 
L 378.559265 221.886134 
L 381.562134 222.053084 
L 384.565002 222.219951 
L 387.567871 222.367688 
L 390.57074 222.513654 
L 393.573608 222.654371 
L 396.576477 222.778589 
L 399.579346 222.897148 
L 402.582214 223.014901 
" clip-path="url(#p81f8520df2)" style="fill: none; stroke-dasharray: 3.7,1.6; stroke-dashoffset: 0; stroke: #4c72b0"/>
   </g>
   <g id="line2d_35">
    <path d="M 30.2265 224.504788 
L 33.229369 224.471807 
L 36.232237 224.439603 
L 39.235106 224.424236 
L 42.237975 224.434252 
L 45.240843 224.464773 
L 48.243712 224.502494 
L 51.246581 224.535396 
L 54.249449 224.557937 
L 57.252318 224.570341 
L 60.255187 224.576607 
L 63.258055 224.583039 
L 66.260924 224.595237 
L 69.263793 224.614034 
L 72.266661 224.63485 
L 75.26953 224.652321 
L 78.272399 224.665297 
L 81.275267 224.67626 
L 84.278136 224.686343 
L 87.281005 224.692966 
L 90.283873 224.693477 
L 93.286742 224.689597 
L 96.289611 224.686163 
L 99.292479 224.685666 
L 102.295348 224.685966 
L 105.298217 224.683781 
L 108.301085 224.678673 
L 111.303954 224.672857 
L 114.306823 224.668939 
L 117.309691 224.669433 
L 120.31256 224.677359 
L 123.315429 224.695061 
L 126.318297 224.722024 
L 129.321166 224.755106 
L 132.324035 224.79179 
L 135.326903 224.83296 
L 138.329772 224.882658 
L 141.332641 224.94623 
L 144.335509 225.029648 
L 147.338378 225.140494 
L 150.341246 225.289697 
L 153.344115 225.492519 
L 156.346984 225.765219 
L 159.349852 226.113387 
L 162.352721 226.512893 
L 165.35559 226.889624 
L 168.358458 227.105499 
L 171.361327 226.959941 
L 174.364196 226.219008 
L 177.367064 224.678971 
L 180.369933 222.253393 
L 183.372802 219.053075 
L 186.37567 215.416265 
L 189.378539 211.845464 
L 192.381408 208.830489 
L 195.384276 206.59964 
L 198.387145 204.919044 
L 201.390014 203.086937 
L 204.392882 200.193205 
L 207.395751 195.563813 
L 210.39862 189.181637 
L 213.401488 181.856036 
L 216.404357 175.017074 
L 219.407226 170.183649 
L 222.410094 168.319372 
L 225.412963 169.372257 
L 228.415832 172.242437 
L 231.4187 175.236458 
L 234.421569 176.823556 
L 237.424438 176.340381 
L 240.427306 174.301366 
L 243.430175 172.162395 
L 246.433044 171.649708 
L 249.435912 173.969762 
L 252.438781 179.269408 
L 255.44165 186.594321 
L 258.444518 194.345679 
L 261.447387 200.985749 
L 264.450256 205.637663 
L 267.453124 208.319034 
L 270.455993 209.762677 
L 273.458862 210.972581 
L 276.46173 212.750635 
L 279.464599 215.399447 
L 282.467468 218.695518 
L 285.470336 222.092189 
L 288.473205 225.015357 
L 291.476074 227.099257 
L 294.478942 228.271547 
L 297.481811 228.692182 
L 300.48468 228.621181 
L 303.487548 228.30133 
L 306.490417 227.901026 
L 309.493286 227.51176 
L 312.496154 227.170761 
L 315.499023 226.885261 
L 318.501892 226.649496 
L 321.50476 226.45406 
L 324.507629 226.289741 
L 327.510498 226.148746 
L 330.513366 226.025169 
L 333.516235 225.91482 
L 336.519104 225.81455 
L 339.521972 225.722193 
L 342.524841 225.637487 
L 345.52771 225.562609 
L 348.530578 225.501109 
L 351.533447 225.455649 
L 354.536316 225.42566 
L 357.539184 225.40609 
L 360.542053 225.388675 
L 363.544922 225.366198 
L 366.54779 225.337141 
L 369.550659 225.306349 
L 372.553528 225.280606 
L 375.556396 225.263294 
L 378.559265 225.25304 
L 381.562134 225.246411 
L 384.565002 225.24086 
L 387.567871 225.235269 
L 390.57074 225.228919 
L 393.573608 225.221143 
L 396.576477 225.212337 
L 399.579346 225.204574 
L 402.582214 225.200129 
" clip-path="url(#p81f8520df2)" style="fill: none; stroke: #dd8452; stroke-linecap: square"/>
   </g>
   <g id="patch_3">
    <path d="M 11.608714 239.068 
L 421.2 239.068 
" style="fill: none; stroke: #000000; stroke-width: 1.3; stroke-linejoin: miter; stroke-linecap: square"/>
   </g>
  </g>
 </g>
 <defs>
  <clipPath id="p81f8520df2">
   <rect x="11.608714" y="10.8" width="409.591286" height="228.268"/>
  </clipPath>
 </defs>
</svg>
