<?xml version="1.0" encoding="utf-8" standalone="no"?>
<!DOCTYPE svg PUBLIC "-//W3C//DTD SVG 1.1//EN"
  "http://www.w3.org/Graphics/SVG/1.1/DTD/svg11.dtd">
<svg height="288pt" version="1.1" viewBox="0 0 432 288" width="432pt" xmlns="http://www.w3.org/2000/svg" xmlns:xlink="http://www.w3.org/1999/xlink">
 <metadata>
  <rdf:RDF xmlns:cc="http://creativecommons.org/ns#" xmlns:dc="http://purl.org/dc/elements/1.1/" xmlns:rdf="http://www.w3.org/1999/02/22-rdf-syntax-ns#">
   <cc:Work>
    <dc:type rdf:resource="http://purl.org/dc/dcmitype/StillImage"/>
    <dc:date>2021-04-03T00:41:16.098322</dc:date>
    <dc:format>image/svg+xml</dc:format>
    <dc:creator>
     <cc:Agent>
      <dc:title>Matplotlib v3.4.1, https://matplotlib.org/</dc:title>
     </cc:Agent>
    </dc:creator>
   </cc:Work>
  </rdf:RDF>
 </metadata>
 <defs>
  <style type="text/css">*{stroke-linecap:butt;stroke-linejoin:round;}</style>
 </defs>
 <g id="figure_1">
  <g id="patch_1">
   <path d="M 0 288 
L 432 288 
L 432 0 
L 0 0 
z
" style="fill:#ffffff;"/>
  </g>
  <g id="axes_1">
   <g id="patch_2">
    <path d="M 10.8 239.068 
L 419.64937 239.068 
L 419.64937 10.8 
L 10.8 10.8 
z
" style="fill:#ffffff;"/>
   </g>
   <g id="matplotlib.axis_1">
    <g id="xtick_1">
     <g id="line2d_1">
      <defs>
       <path d="M 0 0 
L 0 5 
" id="m92d285aaa3" style="stroke:#000000;stroke-width:1.3;"/>
      </defs>
      <g>
       <use style="stroke:#000000;stroke-width:1.3;" x="417.696259" xlink:href="#m92d285aaa3" y="239.068"/>
      </g>
     </g>
     <g id="text_1">
      <!-- 0 -->
      <g transform="translate(414.515009 255.166437)scale(0.1 -0.1)">
       <defs>
        <path d="M 2034 4250 
Q 1547 4250 1301 3770 
Q 1056 3291 1056 2328 
Q 1056 1369 1301 889 
Q 1547 409 2034 409 
Q 2525 409 2770 889 
Q 3016 1369 3016 2328 
Q 3016 3291 2770 3770 
Q 2525 4250 2034 4250 
z
M 2034 4750 
Q 2819 4750 3233 4129 
Q 3647 3509 3647 2328 
Q 3647 1150 3233 529 
Q 2819 -91 2034 -91 
Q 1250 -91 836 529 
Q 422 1150 422 2328 
Q 422 3509 836 4129 
Q 1250 4750 2034 4750 
z
" id="DejaVuSans-30" transform="scale(0.015625)"/>
       </defs>
       <use xlink:href="#DejaVuSans-30"/>
      </g>
     </g>
    </g>
    <g id="xtick_2">
     <g id="line2d_2">
      <g>
       <use style="stroke:#000000;stroke-width:1.3;" x="362.221197" xlink:href="#m92d285aaa3" y="239.068"/>
      </g>
     </g>
     <g id="text_2">
      <!-- 1 -->
      <g transform="translate(359.039947 255.166437)scale(0.1 -0.1)">
       <defs>
        <path d="M 794 531 
L 1825 531 
L 1825 4091 
L 703 3866 
L 703 4441 
L 1819 4666 
L 2450 4666 
L 2450 531 
L 3481 531 
L 3481 0 
L 794 0 
L 794 531 
z
" id="DejaVuSans-31" transform="scale(0.015625)"/>
       </defs>
       <use xlink:href="#DejaVuSans-31"/>
      </g>
     </g>
    </g>
    <g id="xtick_3">
     <g id="line2d_3">
      <g>
       <use style="stroke:#000000;stroke-width:1.3;" x="306.746134" xlink:href="#m92d285aaa3" y="239.068"/>
      </g>
     </g>
     <g id="text_3">
      <!-- 2 -->
      <g transform="translate(303.564884 255.166437)scale(0.1 -0.1)">
       <defs>
        <path d="M 1228 531 
L 3431 531 
L 3431 0 
L 469 0 
L 469 531 
Q 828 903 1448 1529 
Q 2069 2156 2228 2338 
Q 2531 2678 2651 2914 
Q 2772 3150 2772 3378 
Q 2772 3750 2511 3984 
Q 2250 4219 1831 4219 
Q 1534 4219 1204 4116 
Q 875 4013 500 3803 
L 500 4441 
Q 881 4594 1212 4672 
Q 1544 4750 1819 4750 
Q 2544 4750 2975 4387 
Q 3406 4025 3406 3419 
Q 3406 3131 3298 2873 
Q 3191 2616 2906 2266 
Q 2828 2175 2409 1742 
Q 1991 1309 1228 531 
z
" id="DejaVuSans-32" transform="scale(0.015625)"/>
       </defs>
       <use xlink:href="#DejaVuSans-32"/>
      </g>
     </g>
    </g>
    <g id="xtick_4">
     <g id="line2d_4">
      <g>
       <use style="stroke:#000000;stroke-width:1.3;" x="251.271071" xlink:href="#m92d285aaa3" y="239.068"/>
      </g>
     </g>
     <g id="text_4">
      <!-- 3 -->
      <g transform="translate(248.089821 255.166437)scale(0.1 -0.1)">
       <defs>
        <path d="M 2597 2516 
Q 3050 2419 3304 2112 
Q 3559 1806 3559 1356 
Q 3559 666 3084 287 
Q 2609 -91 1734 -91 
Q 1441 -91 1130 -33 
Q 819 25 488 141 
L 488 750 
Q 750 597 1062 519 
Q 1375 441 1716 441 
Q 2309 441 2620 675 
Q 2931 909 2931 1356 
Q 2931 1769 2642 2001 
Q 2353 2234 1838 2234 
L 1294 2234 
L 1294 2753 
L 1863 2753 
Q 2328 2753 2575 2939 
Q 2822 3125 2822 3475 
Q 2822 3834 2567 4026 
Q 2313 4219 1838 4219 
Q 1578 4219 1281 4162 
Q 984 4106 628 3988 
L 628 4550 
Q 988 4650 1302 4700 
Q 1616 4750 1894 4750 
Q 2613 4750 3031 4423 
Q 3450 4097 3450 3541 
Q 3450 3153 3228 2886 
Q 3006 2619 2597 2516 
z
" id="DejaVuSans-33" transform="scale(0.015625)"/>
       </defs>
       <use xlink:href="#DejaVuSans-33"/>
      </g>
     </g>
    </g>
    <g id="xtick_5">
     <g id="line2d_5">
      <g>
       <use style="stroke:#000000;stroke-width:1.3;" x="195.796008" xlink:href="#m92d285aaa3" y="239.068"/>
      </g>
     </g>
     <g id="text_5">
      <!-- 4 -->
      <g transform="translate(192.614758 255.166437)scale(0.1 -0.1)">
       <defs>
        <path d="M 2419 4116 
L 825 1625 
L 2419 1625 
L 2419 4116 
z
M 2253 4666 
L 3047 4666 
L 3047 1625 
L 3713 1625 
L 3713 1100 
L 3047 1100 
L 3047 0 
L 2419 0 
L 2419 1100 
L 313 1100 
L 313 1709 
L 2253 4666 
z
" id="DejaVuSans-34" transform="scale(0.015625)"/>
       </defs>
       <use xlink:href="#DejaVuSans-34"/>
      </g>
     </g>
    </g>
    <g id="xtick_6">
     <g id="line2d_6">
      <g>
       <use style="stroke:#000000;stroke-width:1.3;" x="140.320945" xlink:href="#m92d285aaa3" y="239.068"/>
      </g>
     </g>
     <g id="text_6">
      <!-- 5 -->
      <g transform="translate(137.139695 255.166437)scale(0.1 -0.1)">
       <defs>
        <path d="M 691 4666 
L 3169 4666 
L 3169 4134 
L 1269 4134 
L 1269 2991 
Q 1406 3038 1543 3061 
Q 1681 3084 1819 3084 
Q 2600 3084 3056 2656 
Q 3513 2228 3513 1497 
Q 3513 744 3044 326 
Q 2575 -91 1722 -91 
Q 1428 -91 1123 -41 
Q 819 9 494 109 
L 494 744 
Q 775 591 1075 516 
Q 1375 441 1709 441 
Q 2250 441 2565 725 
Q 2881 1009 2881 1497 
Q 2881 1984 2565 2268 
Q 2250 2553 1709 2553 
Q 1456 2553 1204 2497 
Q 953 2441 691 2322 
L 691 4666 
z
" id="DejaVuSans-35" transform="scale(0.015625)"/>
       </defs>
       <use xlink:href="#DejaVuSans-35"/>
      </g>
     </g>
    </g>
    <g id="xtick_7">
     <g id="line2d_7">
      <g>
       <use style="stroke:#000000;stroke-width:1.3;" x="84.845883" xlink:href="#m92d285aaa3" y="239.068"/>
      </g>
     </g>
     <g id="text_7">
      <!-- 6 -->
      <g transform="translate(81.664633 255.166437)scale(0.1 -0.1)">
       <defs>
        <path d="M 2113 2584 
Q 1688 2584 1439 2293 
Q 1191 2003 1191 1497 
Q 1191 994 1439 701 
Q 1688 409 2113 409 
Q 2538 409 2786 701 
Q 3034 994 3034 1497 
Q 3034 2003 2786 2293 
Q 2538 2584 2113 2584 
z
M 3366 4563 
L 3366 3988 
Q 3128 4100 2886 4159 
Q 2644 4219 2406 4219 
Q 1781 4219 1451 3797 
Q 1122 3375 1075 2522 
Q 1259 2794 1537 2939 
Q 1816 3084 2150 3084 
Q 2853 3084 3261 2657 
Q 3669 2231 3669 1497 
Q 3669 778 3244 343 
Q 2819 -91 2113 -91 
Q 1303 -91 875 529 
Q 447 1150 447 2328 
Q 447 3434 972 4092 
Q 1497 4750 2381 4750 
Q 2619 4750 2861 4703 
Q 3103 4656 3366 4563 
z
" id="DejaVuSans-36" transform="scale(0.015625)"/>
       </defs>
       <use xlink:href="#DejaVuSans-36"/>
      </g>
     </g>
    </g>
    <g id="xtick_8">
     <g id="line2d_8">
      <g>
       <use style="stroke:#000000;stroke-width:1.3;" x="29.37082" xlink:href="#m92d285aaa3" y="239.068"/>
      </g>
     </g>
     <g id="text_8">
      <!-- 7 -->
      <g transform="translate(26.18957 255.166437)scale(0.1 -0.1)">
       <defs>
        <path d="M 525 4666 
L 3525 4666 
L 3525 4397 
L 1831 0 
L 1172 0 
L 2766 4134 
L 525 4134 
L 525 4666 
z
" id="DejaVuSans-37" transform="scale(0.015625)"/>
       </defs>
       <use xlink:href="#DejaVuSans-37"/>
      </g>
     </g>
    </g>
    <g id="xtick_9">
     <g id="line2d_9">
      <defs>
       <path d="M 0 0 
L 0 3 
" id="m9d7b9ffc36" style="stroke:#000000;stroke-width:1.3;"/>
      </defs>
      <g>
       <use style="stroke:#000000;stroke-width:1.3;" x="406.601247" xlink:href="#m9d7b9ffc36" y="239.068"/>
      </g>
     </g>
    </g>
    <g id="xtick_10">
     <g id="line2d_10">
      <g>
       <use style="stroke:#000000;stroke-width:1.3;" x="395.506234" xlink:href="#m9d7b9ffc36" y="239.068"/>
      </g>
     </g>
    </g>
    <g id="xtick_11">
     <g id="line2d_11">
      <g>
       <use style="stroke:#000000;stroke-width:1.3;" x="384.411222" xlink:href="#m9d7b9ffc36" y="239.068"/>
      </g>
     </g>
    </g>
    <g id="xtick_12">
     <g id="line2d_12">
      <g>
       <use style="stroke:#000000;stroke-width:1.3;" x="373.316209" xlink:href="#m9d7b9ffc36" y="239.068"/>
      </g>
     </g>
    </g>
    <g id="xtick_13">
     <g id="line2d_13">
      <g>
       <use style="stroke:#000000;stroke-width:1.3;" x="351.126184" xlink:href="#m9d7b9ffc36" y="239.068"/>
      </g>
     </g>
    </g>
    <g id="xtick_14">
     <g id="line2d_14">
      <g>
       <use style="stroke:#000000;stroke-width:1.3;" x="340.031172" xlink:href="#m9d7b9ffc36" y="239.068"/>
      </g>
     </g>
    </g>
    <g id="xtick_15">
     <g id="line2d_15">
      <g>
       <use style="stroke:#000000;stroke-width:1.3;" x="328.936159" xlink:href="#m9d7b9ffc36" y="239.068"/>
      </g>
     </g>
    </g>
    <g id="xtick_16">
     <g id="line2d_16">
      <g>
       <use style="stroke:#000000;stroke-width:1.3;" x="317.841146" xlink:href="#m9d7b9ffc36" y="239.068"/>
      </g>
     </g>
    </g>
    <g id="xtick_17">
     <g id="line2d_17">
      <g>
       <use style="stroke:#000000;stroke-width:1.3;" x="295.651121" xlink:href="#m9d7b9ffc36" y="239.068"/>
      </g>
     </g>
    </g>
    <g id="xtick_18">
     <g id="line2d_18">
      <g>
       <use style="stroke:#000000;stroke-width:1.3;" x="284.556109" xlink:href="#m9d7b9ffc36" y="239.068"/>
      </g>
     </g>
    </g>
    <g id="xtick_19">
     <g id="line2d_19">
      <g>
       <use style="stroke:#000000;stroke-width:1.3;" x="273.461096" xlink:href="#m9d7b9ffc36" y="239.068"/>
      </g>
     </g>
    </g>
    <g id="xtick_20">
     <g id="line2d_20">
      <g>
       <use style="stroke:#000000;stroke-width:1.3;" x="262.366084" xlink:href="#m9d7b9ffc36" y="239.068"/>
      </g>
     </g>
    </g>
    <g id="xtick_21">
     <g id="line2d_21">
      <g>
       <use style="stroke:#000000;stroke-width:1.3;" x="240.176058" xlink:href="#m9d7b9ffc36" y="239.068"/>
      </g>
     </g>
    </g>
    <g id="xtick_22">
     <g id="line2d_22">
      <g>
       <use style="stroke:#000000;stroke-width:1.3;" x="229.081046" xlink:href="#m9d7b9ffc36" y="239.068"/>
      </g>
     </g>
    </g>
    <g id="xtick_23">
     <g id="line2d_23">
      <g>
       <use style="stroke:#000000;stroke-width:1.3;" x="217.986033" xlink:href="#m9d7b9ffc36" y="239.068"/>
      </g>
     </g>
    </g>
    <g id="xtick_24">
     <g id="line2d_24">
      <g>
       <use style="stroke:#000000;stroke-width:1.3;" x="206.891021" xlink:href="#m9d7b9ffc36" y="239.068"/>
      </g>
     </g>
    </g>
    <g id="xtick_25">
     <g id="line2d_25">
      <g>
       <use style="stroke:#000000;stroke-width:1.3;" x="184.700996" xlink:href="#m9d7b9ffc36" y="239.068"/>
      </g>
     </g>
    </g>
    <g id="xtick_26">
     <g id="line2d_26">
      <g>
       <use style="stroke:#000000;stroke-width:1.3;" x="173.605983" xlink:href="#m9d7b9ffc36" y="239.068"/>
      </g>
     </g>
    </g>
    <g id="xtick_27">
     <g id="line2d_27">
      <g>
       <use style="stroke:#000000;stroke-width:1.3;" x="162.510971" xlink:href="#m9d7b9ffc36" y="239.068"/>
      </g>
     </g>
    </g>
    <g id="xtick_28">
     <g id="line2d_28">
      <g>
       <use style="stroke:#000000;stroke-width:1.3;" x="151.415958" xlink:href="#m9d7b9ffc36" y="239.068"/>
      </g>
     </g>
    </g>
    <g id="xtick_29">
     <g id="line2d_29">
      <g>
       <use style="stroke:#000000;stroke-width:1.3;" x="129.225933" xlink:href="#m9d7b9ffc36" y="239.068"/>
      </g>
     </g>
    </g>
    <g id="xtick_30">
     <g id="line2d_30">
      <g>
       <use style="stroke:#000000;stroke-width:1.3;" x="118.13092" xlink:href="#m9d7b9ffc36" y="239.068"/>
      </g>
     </g>
    </g>
    <g id="xtick_31">
     <g id="line2d_31">
      <g>
       <use style="stroke:#000000;stroke-width:1.3;" x="107.035908" xlink:href="#m9d7b9ffc36" y="239.068"/>
      </g>
     </g>
    </g>
    <g id="xtick_32">
     <g id="line2d_32">
      <g>
       <use style="stroke:#000000;stroke-width:1.3;" x="95.940895" xlink:href="#m9d7b9ffc36" y="239.068"/>
      </g>
     </g>
    </g>
    <g id="xtick_33">
     <g id="line2d_33">
      <g>
       <use style="stroke:#000000;stroke-width:1.3;" x="73.75087" xlink:href="#m9d7b9ffc36" y="239.068"/>
      </g>
     </g>
    </g>
    <g id="xtick_34">
     <g id="line2d_34">
      <g>
       <use style="stroke:#000000;stroke-width:1.3;" x="62.655858" xlink:href="#m9d7b9ffc36" y="239.068"/>
      </g>
     </g>
    </g>
    <g id="xtick_35">
     <g id="line2d_35">
      <g>
       <use style="stroke:#000000;stroke-width:1.3;" x="51.560845" xlink:href="#m9d7b9ffc36" y="239.068"/>
      </g>
     </g>
    </g>
    <g id="xtick_36">
     <g id="line2d_36">
      <g>
       <use style="stroke:#000000;stroke-width:1.3;" x="40.465832" xlink:href="#m9d7b9ffc36" y="239.068"/>
      </g>
     </g>
    </g>
    <g id="xtick_37">
     <g id="line2d_37">
      <g>
       <use style="stroke:#000000;stroke-width:1.3;" x="18.275807" xlink:href="#m9d7b9ffc36" y="239.068"/>
      </g>
     </g>
    </g>
    <g id="text_9">
     <!-- $\rm ^{1}H$ (ppm) -->
     <g transform="translate(192.324685 270.246125)scale(0.1 -0.1)">
      <defs>
       <path d="M 628 4666 
L 1259 4666 
L 1259 2753 
L 3553 2753 
L 3553 4666 
L 4184 4666 
L 4184 0 
L 3553 0 
L 3553 2222 
L 1259 2222 
L 1259 0 
L 628 0 
L 628 4666 
z
" id="DejaVuSans-48" transform="scale(0.015625)"/>
       <path id="DejaVuSans-20" transform="scale(0.015625)"/>
       <path d="M 1984 4856 
Q 1566 4138 1362 3434 
Q 1159 2731 1159 2009 
Q 1159 1288 1364 580 
Q 1569 -128 1984 -844 
L 1484 -844 
Q 1016 -109 783 600 
Q 550 1309 550 2009 
Q 550 2706 781 3412 
Q 1013 4119 1484 4856 
L 1984 4856 
z
" id="DejaVuSans-28" transform="scale(0.015625)"/>
       <path d="M 1159 525 
L 1159 -1331 
L 581 -1331 
L 581 3500 
L 1159 3500 
L 1159 2969 
Q 1341 3281 1617 3432 
Q 1894 3584 2278 3584 
Q 2916 3584 3314 3078 
Q 3713 2572 3713 1747 
Q 3713 922 3314 415 
Q 2916 -91 2278 -91 
Q 1894 -91 1617 61 
Q 1341 213 1159 525 
z
M 3116 1747 
Q 3116 2381 2855 2742 
Q 2594 3103 2138 3103 
Q 1681 3103 1420 2742 
Q 1159 2381 1159 1747 
Q 1159 1113 1420 752 
Q 1681 391 2138 391 
Q 2594 391 2855 752 
Q 3116 1113 3116 1747 
z
" id="DejaVuSans-70" transform="scale(0.015625)"/>
       <path d="M 3328 2828 
Q 3544 3216 3844 3400 
Q 4144 3584 4550 3584 
Q 5097 3584 5394 3201 
Q 5691 2819 5691 2113 
L 5691 0 
L 5113 0 
L 5113 2094 
Q 5113 2597 4934 2840 
Q 4756 3084 4391 3084 
Q 3944 3084 3684 2787 
Q 3425 2491 3425 1978 
L 3425 0 
L 2847 0 
L 2847 2094 
Q 2847 2600 2669 2842 
Q 2491 3084 2119 3084 
Q 1678 3084 1418 2786 
Q 1159 2488 1159 1978 
L 1159 0 
L 581 0 
L 581 3500 
L 1159 3500 
L 1159 2956 
Q 1356 3278 1631 3431 
Q 1906 3584 2284 3584 
Q 2666 3584 2933 3390 
Q 3200 3197 3328 2828 
z
" id="DejaVuSans-6d" transform="scale(0.015625)"/>
       <path d="M 513 4856 
L 1013 4856 
Q 1481 4119 1714 3412 
Q 1947 2706 1947 2009 
Q 1947 1309 1714 600 
Q 1481 -109 1013 -844 
L 513 -844 
Q 928 -128 1133 580 
Q 1338 1288 1338 2009 
Q 1338 2731 1133 3434 
Q 928 4138 513 4856 
z
" id="DejaVuSans-29" transform="scale(0.015625)"/>
      </defs>
      <use transform="translate(0.957031 38.965625)scale(0.7)" xlink:href="#DejaVuSans-31"/>
      <use transform="translate(48.227539 0.684375)" xlink:href="#DejaVuSans-48"/>
      <use transform="translate(123.422852 0.684375)" xlink:href="#DejaVuSans-20"/>
      <use transform="translate(155.209961 0.684375)" xlink:href="#DejaVuSans-28"/>
      <use transform="translate(194.223633 0.684375)" xlink:href="#DejaVuSans-70"/>
      <use transform="translate(257.700195 0.684375)" xlink:href="#DejaVuSans-70"/>
      <use transform="translate(321.176758 0.684375)" xlink:href="#DejaVuSans-6d"/>
      <use transform="translate(418.588867 0.684375)" xlink:href="#DejaVuSans-29"/>
     </g>
    </g>
   </g>
   <g id="line2d_38">
    <path clip-path="url(#p32b2060dd2)" d="M 29.384062 228.309864 
L 32.029384 228.309293 
L 32.960646 228.308118 
L 33.325052 228.305145 
L 35.444009 228.30681 
L 41.13955 228.307274 
L 42.070811 228.304631 
L 43.191024 228.252075 
L 43.514941 228.265408 
L 45.336974 228.295708 
L 47.442434 228.205893 
L 47.685372 228.159702 
L 47.968799 228.169887 
L 48.832578 227.675558 
L 49.035026 226.966732 
L 49.169992 225.485719 
L 49.264467 220.391175 
L 49.33195 217.3362 
L 49.399433 217.814153 
L 49.439922 216.832078 
L 49.480412 217.978897 
L 49.628874 223.819508 
L 49.655867 223.676962 
L 49.72335 221.781527 
L 49.817826 210.130325 
L 49.858315 205.762325 
L 49.925798 208.999904 
L 49.993281 206.453778 
L 50.020274 208.927306 
L 50.209225 224.527847 
L 50.236218 224.450883 
L 50.303701 222.74213 
L 50.411673 217.395195 
L 50.492653 218.508639 
L 50.519646 218.174321 
L 50.546639 218.718651 
L 50.803073 227.806462 
L 51.005521 228.171739 
L 51.8693 228.306881 
L 52.760071 228.324881 
L 54.879028 228.305598 
L 55.567352 228.272467 
L 55.918262 228.278509 
L 61.303382 228.30838 
L 68.551025 228.314519 
L 69.333824 228.314927 
L 69.846693 228.307745 
L 73.490759 228.315547 
L 73.936144 228.30933 
L 77.931121 228.306105 
L 79.591195 228.310116 
L 84.638902 228.308573 
L 97.420126 228.21894 
L 99.026214 227.886646 
L 99.350131 227.588135 
L 99.660552 227.012763 
L 99.889993 226.141379 
L 100.078945 224.368242 
L 100.240903 220.339785 
L 100.429855 213.149824 
L 100.483841 214.253145 
L 100.659296 218.727397 
L 100.699785 218.501007 
L 100.807758 215.512487 
L 100.888737 213.320213 
L 100.942723 214.18807 
L 101.347619 226.273084 
L 101.604054 227.378482 
L 101.914474 227.834041 
L 102.413846 228.069776 
L 102.872729 228.190766 
L 104.343852 228.247148 
L 105.086161 228.269804 
L 111.119115 228.2992 
L 117.206055 228.302272 
L 118.596199 228.288688 
L 119.21704 228.293544 
L 120.796135 228.297603 
L 123.697892 228.29426 
L 124.615656 228.288129 
L 130.473155 228.241579 
L 134.778552 227.769698 
L 135.385896 227.41049 
L 135.844779 226.884913 
L 136.222682 226.093415 
L 136.627578 224.60791 
L 137.248419 222.242199 
L 137.383384 222.26339 
L 137.545343 222.650718 
L 137.909749 224.306517 
L 138.409121 226.157372 
L 138.814018 226.892581 
L 139.475348 227.541246 
L 139.93423 227.794846 
L 140.555071 227.942732 
L 142.174656 228.058752 
L 143.551304 227.750281 
L 143.807738 227.329567 
L 143.969696 226.595382 
L 144.104662 224.734987 
L 144.819978 211.53853 
L 144.860468 211.869832 
L 145.562288 225.84612 
L 145.764736 227.783942 
L 145.967184 228.058954 
L 146.345088 228.148208 
L 146.871453 228.198173 
L 147.775721 228.09465 
L 147.991666 228.038458 
L 148.356072 228.087298 
L 148.760968 227.928355 
L 149.624747 226.859829 
L 149.786705 225.649067 
L 149.921671 222.54065 
L 150.029643 211.709597 
L 150.191602 189.035216 
L 150.286078 190.839186 
L 150.448036 215.504019 
L 150.636988 226.423421 
L 150.852932 227.659619 
L 151.149856 228.070372 
L 151.554752 228.117663 
L 152.49951 228.358236 
L 152.701958 228.309704 
L 153.052868 228.246371 
L 154.362033 228.213166 
L 154.753433 228.128893 
L 155.198818 228.252807 
L 156.197563 228.216732 
L 156.561969 228.098106 
L 156.993858 228.249894 
L 158.195051 228.136781 
L 158.424492 228.077424 
L 158.694423 228.079009 
L 159.085822 227.967611 
L 159.477222 227.881209 
L 159.774146 227.440681 
L 160.057573 226.812972 
L 160.233028 225.490706 
L 160.354497 222.544798 
L 160.46247 211.594851 
L 160.637925 188.849558 
L 160.705407 190.338267 
L 160.799883 204.624452 
L 161.042821 226.151237 
L 161.245269 227.567462 
L 161.528696 228.110682 
L 161.731144 228.181095 
L 162.486951 228.218948 
L 162.91884 228.360545 
L 163.121288 228.323752 
L 163.418212 228.250614 
L 164.71388 228.264833 
L 166.792347 228.126147 
L 167.048782 228.033721 
L 167.399692 228.238615 
L 167.872071 228.197383 
L 168.115008 228.252934 
L 168.69536 228.270357 
L 169.680607 228.266445 
L 171.921033 227.972701 
L 172.069495 227.921682 
L 172.366419 227.678753 
L 172.622853 226.784412 
L 172.730825 225.318751 
L 172.811805 220.181791 
L 172.892784 204.447271 
L 172.94677 214.677541 
L 173.095232 225.752393 
L 173.135722 225.854414 
L 173.176211 225.614197 
L 173.25719 223.674321 
L 173.324673 214.152388 
L 173.378659 202.06217 
L 173.432646 214.991729 
L 173.527121 223.60618 
L 173.567611 222.664053 
L 173.635094 210.660611 
L 173.68908 199.645436 
L 173.729569 212.558925 
L 173.878031 225.968725 
L 173.905024 226.059549 
L 173.959011 225.817757 
L 174.03999 223.706841 
L 174.120969 211.171834 
L 174.161459 204.24238 
L 174.201948 211.537343 
L 174.363907 227.049496 
L 174.552858 227.968074 
L 174.755307 228.096135 
L 175.511113 228.184089 
L 175.686568 228.240076 
L 175.808037 228.200946 
L 175.969995 228.22654 
L 176.050974 228.258556 
L 176.091464 228.213047 
L 176.347898 228.188872 
L 177.913497 228.198377 
L 178.547835 228.218265 
L 180.410357 228.195978 
L 180.761267 228.215702 
L 185.201629 227.874209 
L 186.240863 227.435633 
L 186.821214 226.860568 
L 187.172124 226.135989 
L 188.332827 223.397692 
L 188.535275 223.44668 
L 188.75122 223.804598 
L 189.210102 225.163673 
L 189.790453 226.594224 
L 190.330315 227.276607 
L 190.613742 227.390633 
L 190.81619 227.497357 
L 191.045632 227.660614 
L 191.5585 227.689894 
L 191.679969 227.738174 
L 191.963396 227.69564 
L 192.314307 227.472499 
L 192.449272 227.323131 
L 192.584237 226.947046 
L 192.719203 226.019757 
L 192.840672 223.225403 
L 192.908154 215.390622 
L 192.975637 200.09779 
L 193.029623 209.510862 
L 193.056616 212.266563 
L 193.097106 207.599179 
L 193.137596 201.059802 
L 193.178085 208.040666 
L 193.340044 225.825887 
L 193.434519 226.358859 
L 193.475009 226.265747 
L 193.569485 225.281376 
L 193.650464 222.599701 
L 193.731443 207.428397 
L 193.771933 202.133648 
L 193.812423 210.473119 
L 193.839416 213.5529 
L 193.893402 207.189183 
L 193.920395 203.626046 
L 193.960885 209.935074 
L 194.122843 226.714285 
L 194.325291 227.835874 
L 194.595222 228.05009 
L 194.986622 228.144332 
L 195.93138 228.209772 
L 198.38775 228.1843 
L 198.819639 228.208284 
L 199.13006 228.134918 
L 199.386494 228.038629 
L 199.818383 228.189787 
L 200.371742 228.221778 
L 202.36923 228.088044 
L 203.273498 227.492526 
L 203.448953 226.959674 
L 203.610911 225.705856 
L 203.73238 222.964583 
L 203.840353 214.811554 
L 203.948325 203.241683 
L 203.988815 206.354606 
L 204.231752 224.624675 
L 204.366718 225.561957 
L 204.393711 225.544428 
L 204.47469 225.120063 
L 204.582662 223.169096 
L 204.690635 216.575103 
L 204.812104 201.775372 
L 204.86609 206.34095 
L 205.095531 225.28424 
L 205.311476 227.331191 
L 205.581406 227.917078 
L 205.87833 228.123469 
L 207.632881 228.256692 
L 210.008272 228.256745 
L 210.413168 228.172437 
L 210.56163 228.195508 
L 210.831561 228.268235 
L 211.681843 228.281709 
L 222.357607 228.214356 
L 222.587048 228.238873 
L 224.975936 228.204644 
L 225.62377 228.042562 
L 225.691253 228.005598 
L 225.745239 228.066067 
L 225.961184 228.116657 
L 226.136639 227.93654 
L 226.231114 227.687629 
L 226.2851 227.834019 
L 226.460556 228.077222 
L 226.663004 227.968833 
L 226.784473 227.679012 
L 226.838459 227.837371 
L 227.013914 228.093897 
L 227.270348 228.024743 
L 227.364824 227.991319 
L 227.405313 228.040129 
L 227.634755 228.09847 
L 228.47154 228.059349 
L 230.361056 227.671891 
L 231.67022 226.791116 
L 232.129103 226.01867 
L 232.736447 224.30064 
L 233.181833 223.191596 
L 233.357288 223.225578 
L 233.559736 223.55682 
L 234.045612 225.097845 
L 234.450508 226.075583 
L 234.841908 226.507664 
L 235.030859 226.487814 
L 235.2603 226.200437 
L 235.422259 225.637428 
L 235.597714 223.993074 
L 235.773169 219.575474 
L 235.975617 212.500686 
L 236.029603 213.119801 
L 236.421003 222.925183 
L 236.474989 222.711197 
L 236.596458 220.822066 
L 236.852892 213.119301 
L 236.933871 214.850971 
L 237.271285 223.820776 
L 237.298278 223.872357 
L 237.338768 223.777459 
L 237.433243 222.572955 
L 237.635692 217.586034 
L 237.703174 218.615267 
L 237.865133 221.414407 
L 237.905622 221.191864 
L 238.013595 218.760015 
L 238.135064 216.552309 
L 238.175553 216.881789 
L 238.310519 218.132914 
L 238.364505 217.973406 
L 238.404994 217.894487 
L 238.445484 218.031516 
L 238.553456 219.668031 
L 238.688422 221.378347 
L 238.728911 221.108672 
L 238.89087 218.426338 
L 238.944856 219.177078 
L 239.336256 226.969288 
L 239.646676 227.769816 
L 239.916607 227.985761 
L 240.861365 228.183163 
L 242.453957 228.170302 
L 242.845356 228.201392 
L 243.628156 228.202051 
L 244.950817 228.260784 
L 246.192499 228.277809 
L 246.651381 228.287808 
L 248.810828 228.286681 
L 250.902791 228.30079 
L 252.265942 228.303607 
L 253.17021 228.303121 
L 260.066943 228.308355 
L 264.669263 228.304331 
L 265.236118 228.296689 
L 265.708497 228.308496 
L 270.742707 228.302188 
L 271.835927 228.281227 
L 274.076353 228.227292 
L 274.6702 228.182755 
L 275.965868 227.946426 
L 276.478737 227.524615 
L 276.627199 226.912466 
L 276.735171 225.118803 
L 276.829647 223.677132 
L 276.870137 224.017649 
L 276.937619 224.74534 
L 276.991605 224.221992 
L 277.086081 222.712003 
L 277.140067 223.366719 
L 277.221047 224.57763 
L 277.275033 224.089529 
L 277.356012 223.115974 
L 277.409998 223.577059 
L 277.477481 224.398322 
L 277.531467 223.923232 
L 277.625943 222.53979 
L 277.666432 223.024748 
L 277.814894 225.457522 
L 277.868881 225.258369 
L 277.963356 223.52886 
L 278.125315 216.036127 
L 278.219791 218.047661 
L 278.233287 218.123486 
L 278.26028 217.757704 
L 278.408742 212.574623 
L 278.462728 214.147732 
L 278.503218 215.747282 
L 278.557204 213.793154 
L 278.597694 212.01473 
L 278.678673 212.812757 
L 278.746156 215.200454 
L 278.813638 218.062165 
L 278.867625 216.73582 
L 278.894618 216.305382 
L 278.935107 217.085801 
L 279.245528 226.314937 
L 279.272521 226.293888 
L 279.3535 225.861674 
L 279.447976 223.856108 
L 279.582941 218.395345 
L 279.636927 219.683941 
L 279.839376 225.602668 
L 279.866369 225.569901 
L 279.933851 225.001308 
L 280.028327 222.00267 
L 280.1363 217.628409 
L 280.190286 218.782241 
L 280.298258 222.318658 
L 280.338748 221.58368 
L 280.44672 217.919058 
L 280.500706 219.090316 
L 280.689658 225.108978 
L 280.730147 224.860598 
L 280.824623 222.176122 
L 280.986582 217.012281 
L 281.027071 217.805888 
L 281.256512 225.954223 
L 281.323995 225.447431 
L 281.431967 223.873922 
L 281.485954 224.386089 
L 281.593926 225.852443 
L 281.634416 225.467678 
L 281.742388 223.227242 
L 281.809871 224.180973 
L 282.012319 227.278192 
L 282.079801 227.181755 
L 282.160781 226.553524 
L 282.295746 223.724858 
L 282.363229 224.639832 
L 282.579173 227.840233 
L 282.795118 228.104052 
L 283.348476 228.159301 
L 284.468689 228.206081 
L 284.765613 228.209684 
L 286.49317 228.068063 
L 286.898067 227.91964 
L 287.316459 227.650743 
L 287.478418 227.317931 
L 287.640376 226.518934 
L 287.748349 224.677056 
L 288.099259 216.415488 
L 288.126252 216.502173 
L 288.166741 216.286077 
L 288.180238 216.213892 
L 288.207231 216.47832 
L 288.315203 220.043757 
L 288.382686 218.773401 
L 288.396183 218.701212 
L 288.409679 218.852437 
L 288.63912 225.721936 
L 288.7201 225.126033 
L 288.814575 221.682803 
L 288.909051 217.706753 
L 288.963037 218.739474 
L 288.976534 218.83027 
L 289.003527 218.473271 
L 289.098003 215.579869 
L 289.192479 215.765983 
L 289.205975 215.749046 
L 289.219472 215.873628 
L 289.867306 227.897386 
L 290.177726 228.157482 
L 290.609615 228.227817 
L 291.243953 228.271229 
L 291.932276 228.25612 
L 292.742069 228.276441 
L 300.19216 228.305259 
L 300.907476 228.294351 
L 303.026433 228.304855 
L 305.644762 228.229683 
L 306.049658 228.194879 
L 307.034906 228.173864 
L 307.885188 228.056643 
L 308.34407 227.777988 
L 308.506029 227.408101 
L 308.640994 226.462601 
L 308.897429 223.034015 
L 308.978408 223.503853 
L 309.072884 223.974352 
L 309.113373 223.775559 
L 309.275332 222.143077 
L 309.342814 222.659602 
L 309.558759 225.684127 
L 309.626242 225.3151 
L 309.747711 222.250492 
L 309.923166 217.910463 
L 309.963655 218.291652 
L 310.112117 220.433353 
L 310.166103 219.874766 
L 310.301069 217.591053 
L 310.355055 218.221902 
L 310.665475 225.945746 
L 310.746455 225.272838 
L 310.935406 222.682894 
L 311.002889 223.058189 
L 311.151351 224.23745 
L 311.191841 224.059665 
L 311.326806 223.114822 
L 311.367296 223.329968 
L 311.556247 226.457084 
L 311.758695 227.75303 
L 312.001633 227.938224 
L 312.339047 227.929401 
L 312.838419 227.476997 
L 313.000377 226.922855 
L 313.121846 225.595988 
L 313.270308 220.517589 
L 313.499749 215.01979 
L 313.540239 214.986562 
L 313.580728 215.051455 
L 313.648211 215.497003 
L 313.756183 218.482857 
L 313.972128 224.241258 
L 313.999121 224.121037 
L 314.093597 221.948194 
L 314.323038 215.677515 
L 314.363528 215.779906 
L 314.498493 216.728416 
L 314.606465 219.235594 
L 314.930382 227.400374 
L 315.146327 227.92606 
L 315.551223 228.138592 
L 315.87514 228.180126 
L 319.073821 227.798271 
L 319.478717 227.390806 
L 319.640675 226.846898 
L 319.762144 225.478346 
L 320.086061 219.266008 
L 320.140047 219.729981 
L 320.16704 219.90536 
L 320.20753 219.471376 
L 320.275013 218.18141 
L 320.328999 219.087648 
L 320.396482 220.174403 
L 320.436971 219.62034 
L 320.477461 219.108272 
L 320.517951 219.706426 
L 320.706902 222.289395 
L 320.801378 223.498584 
L 320.855364 222.804564 
L 321.138791 217.569038 
L 321.152288 217.719631 
L 321.219771 218.849569 
L 321.273757 218.030123 
L 321.327743 217.163684 
L 321.368233 217.947084 
L 321.449212 219.485145 
L 321.503198 219.083301 
L 321.516695 219.064099 
L 321.530191 219.146261 
L 321.813618 224.789463 
L 322.00257 226.739355 
L 322.110542 226.787139 
L 322.137535 226.757479 
L 322.259004 226.407363 
L 322.366977 225.208278 
L 322.74488 215.543963 
L 322.798866 213.245558 
L 322.852852 215.682792 
L 322.960824 220.746593 
L 323.014811 219.970833 
L 323.082293 218.623115 
L 323.122783 219.566216 
L 323.325231 225.138744 
L 323.352224 225.0516 
L 323.433203 223.751052 
L 323.554672 220.341255 
L 323.635651 220.940816 
L 323.676141 220.384051 
L 323.811107 213.654724 
L 323.892086 216.476304 
L 323.932575 217.400716 
L 323.973065 216.476758 
L 324.054044 213.15921 
L 324.094534 214.60394 
L 324.364465 226.317041 
L 324.553416 226.862624 
L 324.647892 226.733652 
L 324.755864 226.06662 
L 324.944816 222.850062 
L 325.066285 219.502788 
L 325.106774 220.428403 
L 325.20125 222.391079 
L 325.255236 222.003262 
L 325.295726 221.696934 
L 325.336216 222.02305 
L 325.498174 224.698189 
L 325.55216 224.51145 
L 325.727615 222.05814 
L 325.822091 217.857804 
L 326.038036 208.462313 
L 326.065029 208.449233 
L 326.105519 207.574743 
L 326.240484 201.791196 
L 326.280974 203.360919 
L 326.442932 214.719749 
L 326.496918 212.942462 
L 326.550904 210.869616 
L 326.604891 212.561407 
L 326.658877 214.423006 
L 326.712863 212.644888 
L 326.780346 209.27695 
L 326.834332 211.621863 
L 326.942304 215.554046 
L 326.982794 215.142007 
L 327.063773 212.990004 
L 327.104263 214.584612 
L 327.333704 223.789228 
L 327.509159 226.232894 
L 327.563145 226.038785 
L 327.603635 225.882794 
L 327.644124 226.135666 
L 327.860069 227.599894 
L 328.116503 227.878648 
L 328.696854 228.051294 
L 329.547137 228.118374 
L 330.923784 228.139952 
L 331.36917 228.092004 
L 333.069734 228.235268 
L 334.338409 228.256372 
L 334.999739 228.25545 
L 339.237653 228.162662 
L 340.276887 227.869311 
L 340.452342 227.454203 
L 340.560314 226.602811 
L 340.681783 224.625946 
L 340.749266 225.351282 
L 340.843741 226.23905 
L 340.897728 226.004296 
L 341.019196 224.196262 
L 341.073183 225.040252 
L 341.262134 227.030566 
L 341.329617 226.998435 
L 341.343113 226.96906 
L 341.451086 226.426249 
L 341.559058 224.711971 
L 341.721017 217.241692 
L 341.801996 220.661111 
L 341.882975 222.822695 
L 341.936961 221.970337 
L 342.044934 217.072199 
L 342.09892 218.9064 
L 342.314864 226.24733 
L 342.395844 226.441293 
L 342.436333 226.375295 
L 342.530809 225.729479 
L 342.638781 222.866609 
L 342.76025 216.319447 
L 342.814236 218.981749 
L 342.922209 222.916495 
L 342.962698 222.401478 
L 343.084167 216.988056 
L 343.138153 219.316625 
L 343.340602 226.695272 
L 343.50256 227.216859 
L 343.516057 227.208055 
L 343.597036 226.987009 
L 343.691512 225.896272 
L 343.785987 223.733667 
L 343.839974 224.544001 
L 343.961442 226.306772 
L 344.001932 226.120357 
L 344.123401 224.450267 
L 344.177387 225.270428 
L 344.379835 227.772502 
L 344.582283 228.04686 
L 344.94669 228.136141 
L 345.216621 228.08428 
L 345.419069 228.059552 
L 346.728233 228.028484 
L 346.930681 228.066693 
L 347.457047 228.022348 
L 347.807957 227.672865 
L 347.888936 227.505465 
L 347.942922 227.603869 
L 348.077887 227.776791 
L 348.104881 227.766664 
L 348.509777 227.456428 
L 348.955163 226.090552 
L 349.090128 223.38874 
L 349.1981 221.10924 
L 349.252087 221.584609 
L 349.427542 223.761924 
L 349.468031 223.605581 
L 349.562507 221.901997 
L 349.872927 208.514784 
L 349.926914 204.7292 
L 349.994396 206.583298 
L 350.007893 206.725613 
L 350.034886 206.053101 
L 350.129362 200.309073 
L 350.169851 202.721747 
L 350.426286 220.149113 
L 350.439782 220.063365 
L 350.534258 217.280434 
L 350.628734 215.308324 
L 350.669223 215.78605 
L 350.777196 217.744781 
L 350.817685 217.001508 
L 350.939154 209.598226 
L 351.03363 212.119951 
L 351.128106 208.995267 
L 351.168595 210.715381 
L 351.411533 223.698814 
L 351.42503 223.697931 
L 351.492512 223.175061 
L 351.559995 222.7624 
L 351.600485 223.094299 
L 351.978388 227.425974 
L 352.099857 227.487201 
L 352.113353 227.477357 
L 352.194332 227.303813 
L 352.288808 226.842606 
L 352.329298 227.100017 
L 352.518249 227.923276 
L 352.950139 228.095943 
L 354.488744 228.049038 
L 354.6642 227.898048 
L 354.745179 227.576758 
L 354.812661 227.176282 
L 354.866648 227.390761 
L 355.028606 227.696065 
L 355.541475 227.626143 
L 355.770916 227.411525 
L 356.175812 226.062596 
L 356.243295 225.449908 
L 356.310778 225.603731 
L 356.391757 225.31527 
L 356.567212 223.855669 
L 356.76966 219.316402 
L 356.904625 209.755589 
L 357.012598 182.265773 
L 357.107073 78.990655 
L 357.16106 21.175818 
L 357.201549 64.264592 
L 357.390501 210.684933 
L 357.579452 223.67921 
L 357.795397 226.208769 
L 358.105817 227.635213 
L 358.132811 227.56535 
L 358.21379 226.571055 
L 358.267776 227.256549 
L 358.429734 227.658583 
L 358.5647 227.617428 
L 358.686169 227.386483 
L 358.767148 226.031007 
L 358.807638 227.018073 
L 358.9561 227.908777 
L 359.212534 227.97748 
L 359.22603 227.947688 
L 359.320506 227.141454 
L 359.360996 227.645614 
L 359.509458 228.618369 
L 359.536451 228.539386 
L 359.725402 228.085256 
L 360.116802 228.107939 
L 362.073801 228.00996 
L 362.181773 227.495235 
L 362.249256 227.105906 
L 362.289745 227.375999 
L 362.478697 228.132239 
L 362.775621 228.232256 
L 365.083529 228.246506 
L 365.555908 228.255374 
L 374.962997 228.209002 
L 375.691811 227.931529 
L 375.786286 227.307857 
L 375.853769 226.860977 
L 375.894259 227.101692 
L 376.096707 228.13495 
L 376.380134 228.213053 
L 377.365382 228.167821 
L 378.121188 227.916995 
L 378.31014 227.147753 
L 378.391119 227.442628 
L 378.539581 227.847186 
L 378.566574 227.838228 
L 378.796015 227.843775 
L 378.984967 227.807913 
L 379.32238 227.549316 
L 379.67329 226.510301 
L 379.794759 225.714519 
L 379.848745 225.749419 
L 379.929724 225.488733 
L 380.091683 224.244594 
L 380.267138 220.807398 
L 380.402103 213.325523 
L 380.510076 192.056258 
L 380.604552 113.215482 
L 380.685531 38.515619 
L 380.72602 69.750598 
L 380.941965 215.541375 
L 381.130917 224.82062 
L 381.360358 226.768826 
L 381.657282 227.867294 
L 381.711268 227.754189 
L 381.778751 227.664476 
L 381.832737 227.721816 
L 382.035185 227.821014 
L 382.183647 227.880969 
L 382.494067 228.070373 
L 382.831481 228.248011 
L 382.939453 228.459131 
L 383.020432 228.692182 
L 383.074419 228.551657 
L 383.276867 228.127307 
L 383.924701 227.975684 
L 384.167638 228.183347 
L 385.463306 228.159605 
L 385.598272 227.933461 
L 385.733237 227.198328 
L 385.787223 227.490199 
L 385.976175 228.168535 
L 386.246106 228.24857 
L 386.839954 228.261083 
L 387.649746 228.278506 
L 388.243594 228.279207 
L 389.431289 228.284096 
L 392.346542 228.293081 
L 393.99312 228.297719 
L 395.450747 228.295621 
L 401.065308 228.299083 
L 401.065308 228.299083 
" style="fill:none;stroke:#4c72b0;stroke-linecap:square;"/>
   </g>
   <g id="patch_3">
    <path d="M 10.8 239.068 
L 419.64937 239.068 
" style="fill:none;stroke:#000000;stroke-linecap:square;stroke-linejoin:miter;stroke-width:1.3;"/>
   </g>
  </g>
 </g>
 <defs>
  <clipPath id="p32b2060dd2">
   <rect height="228.268" width="408.84937" x="10.8" y="10.8"/>
  </clipPath>
 </defs>
</svg>
