<?xml version="1.0" encoding="utf-8" standalone="no"?>
<!DOCTYPE svg PUBLIC "-//W3C//DTD SVG 1.1//EN"
  "http://www.w3.org/Graphics/SVG/1.1/DTD/svg11.dtd">
<!-- Created with matplotlib (https://matplotlib.org/) -->
<svg height="288pt" version="1.1" viewBox="0 0 432 288" width="432pt" xmlns="http://www.w3.org/2000/svg" xmlns:xlink="http://www.w3.org/1999/xlink">
 <metadata>
  <rdf:RDF xmlns:cc="http://creativecommons.org/ns#" xmlns:dc="http://purl.org/dc/elements/1.1/" xmlns:rdf="http://www.w3.org/1999/02/22-rdf-syntax-ns#">
   <cc:Work>
    <dc:type rdf:resource="http://purl.org/dc/dcmitype/StillImage"/>
    <dc:date>2021-01-09T02:36:54.841006</dc:date>
    <dc:format>image/svg+xml</dc:format>
    <dc:creator>
     <cc:Agent>
      <dc:title>Matplotlib v3.3.3, https://matplotlib.org/</dc:title>
     </cc:Agent>
    </dc:creator>
   </cc:Work>
  </rdf:RDF>
 </metadata>
 <defs>
  <style type="text/css">*{stroke-linecap:butt;stroke-linejoin:round;}</style>
 </defs>
 <g id="figure_1">
  <g id="patch_1">
   <path d="M 0 288 
L 432 288 
L 432 0 
L 0 0 
z
" style="fill:#ffffff;"/>
  </g>
  <g id="axes_1">
   <g id="patch_2">
    <path d="M 10.8 239.068 
L 419.65106 239.068 
L 419.65106 10.8 
L 10.8 10.8 
z
" style="fill:#ffffff;"/>
   </g>
   <g id="matplotlib.axis_1">
    <g id="xtick_1">
     <g id="line2d_1">
      <defs>
       <path d="M 0 0 
L 0 5 
" id="m13cec5713d" style="stroke:#000000;stroke-width:1.3;"/>
      </defs>
      <g>
       <use style="stroke:#000000;stroke-width:1.3;" x="417.695878" xlink:href="#m13cec5713d" y="239.068"/>
      </g>
     </g>
     <g id="text_1">
      <!-- 0 -->
      <g transform="translate(414.514628 255.166437)scale(0.1 -0.1)">
       <defs>
        <path d="M 31.78125 66.40625 
Q 24.171875 66.40625 20.328125 58.90625 
Q 16.5 51.421875 16.5 36.375 
Q 16.5 21.390625 20.328125 13.890625 
Q 24.171875 6.390625 31.78125 6.390625 
Q 39.453125 6.390625 43.28125 13.890625 
Q 47.125 21.390625 47.125 36.375 
Q 47.125 51.421875 43.28125 58.90625 
Q 39.453125 66.40625 31.78125 66.40625 
z
M 31.78125 74.21875 
Q 44.046875 74.21875 50.515625 64.515625 
Q 56.984375 54.828125 56.984375 36.375 
Q 56.984375 17.96875 50.515625 8.265625 
Q 44.046875 -1.421875 31.78125 -1.421875 
Q 19.53125 -1.421875 13.0625 8.265625 
Q 6.59375 17.96875 6.59375 36.375 
Q 6.59375 54.828125 13.0625 64.515625 
Q 19.53125 74.21875 31.78125 74.21875 
z
" id="DejaVuSans-48"/>
       </defs>
       <use xlink:href="#DejaVuSans-48"/>
      </g>
     </g>
    </g>
    <g id="xtick_2">
     <g id="line2d_2">
      <g>
       <use style="stroke:#000000;stroke-width:1.3;" x="362.220586" xlink:href="#m13cec5713d" y="239.068"/>
      </g>
     </g>
     <g id="text_2">
      <!-- 1 -->
      <g transform="translate(359.039336 255.166437)scale(0.1 -0.1)">
       <defs>
        <path d="M 12.40625 8.296875 
L 28.515625 8.296875 
L 28.515625 63.921875 
L 10.984375 60.40625 
L 10.984375 69.390625 
L 28.421875 72.90625 
L 38.28125 72.90625 
L 38.28125 8.296875 
L 54.390625 8.296875 
L 54.390625 0 
L 12.40625 0 
z
" id="DejaVuSans-49"/>
       </defs>
       <use xlink:href="#DejaVuSans-49"/>
      </g>
     </g>
    </g>
    <g id="xtick_3">
     <g id="line2d_3">
      <g>
       <use style="stroke:#000000;stroke-width:1.3;" x="306.745293" xlink:href="#m13cec5713d" y="239.068"/>
      </g>
     </g>
     <g id="text_3">
      <!-- 2 -->
      <g transform="translate(303.564043 255.166437)scale(0.1 -0.1)">
       <defs>
        <path d="M 19.1875 8.296875 
L 53.609375 8.296875 
L 53.609375 0 
L 7.328125 0 
L 7.328125 8.296875 
Q 12.9375 14.109375 22.625 23.890625 
Q 32.328125 33.6875 34.8125 36.53125 
Q 39.546875 41.84375 41.421875 45.53125 
Q 43.3125 49.21875 43.3125 52.78125 
Q 43.3125 58.59375 39.234375 62.25 
Q 35.15625 65.921875 28.609375 65.921875 
Q 23.96875 65.921875 18.8125 64.3125 
Q 13.671875 62.703125 7.8125 59.421875 
L 7.8125 69.390625 
Q 13.765625 71.78125 18.9375 73 
Q 24.125 74.21875 28.421875 74.21875 
Q 39.75 74.21875 46.484375 68.546875 
Q 53.21875 62.890625 53.21875 53.421875 
Q 53.21875 48.921875 51.53125 44.890625 
Q 49.859375 40.875 45.40625 35.40625 
Q 44.1875 33.984375 37.640625 27.21875 
Q 31.109375 20.453125 19.1875 8.296875 
z
" id="DejaVuSans-50"/>
       </defs>
       <use xlink:href="#DejaVuSans-50"/>
      </g>
     </g>
    </g>
    <g id="xtick_4">
     <g id="line2d_4">
      <g>
       <use style="stroke:#000000;stroke-width:1.3;" x="251.270001" xlink:href="#m13cec5713d" y="239.068"/>
      </g>
     </g>
     <g id="text_4">
      <!-- 3 -->
      <g transform="translate(248.088751 255.166437)scale(0.1 -0.1)">
       <defs>
        <path d="M 40.578125 39.3125 
Q 47.65625 37.796875 51.625 33 
Q 55.609375 28.21875 55.609375 21.1875 
Q 55.609375 10.40625 48.1875 4.484375 
Q 40.765625 -1.421875 27.09375 -1.421875 
Q 22.515625 -1.421875 17.65625 -0.515625 
Q 12.796875 0.390625 7.625 2.203125 
L 7.625 11.71875 
Q 11.71875 9.328125 16.59375 8.109375 
Q 21.484375 6.890625 26.8125 6.890625 
Q 36.078125 6.890625 40.9375 10.546875 
Q 45.796875 14.203125 45.796875 21.1875 
Q 45.796875 27.640625 41.28125 31.265625 
Q 36.765625 34.90625 28.71875 34.90625 
L 20.21875 34.90625 
L 20.21875 43.015625 
L 29.109375 43.015625 
Q 36.375 43.015625 40.234375 45.921875 
Q 44.09375 48.828125 44.09375 54.296875 
Q 44.09375 59.90625 40.109375 62.90625 
Q 36.140625 65.921875 28.71875 65.921875 
Q 24.65625 65.921875 20.015625 65.03125 
Q 15.375 64.15625 9.8125 62.3125 
L 9.8125 71.09375 
Q 15.4375 72.65625 20.34375 73.4375 
Q 25.25 74.21875 29.59375 74.21875 
Q 40.828125 74.21875 47.359375 69.109375 
Q 53.90625 64.015625 53.90625 55.328125 
Q 53.90625 49.265625 50.4375 45.09375 
Q 46.96875 40.921875 40.578125 39.3125 
z
" id="DejaVuSans-51"/>
       </defs>
       <use xlink:href="#DejaVuSans-51"/>
      </g>
     </g>
    </g>
    <g id="xtick_5">
     <g id="line2d_5">
      <g>
       <use style="stroke:#000000;stroke-width:1.3;" x="195.794709" xlink:href="#m13cec5713d" y="239.068"/>
      </g>
     </g>
     <g id="text_5">
      <!-- 4 -->
      <g transform="translate(192.613459 255.166437)scale(0.1 -0.1)">
       <defs>
        <path d="M 37.796875 64.3125 
L 12.890625 25.390625 
L 37.796875 25.390625 
z
M 35.203125 72.90625 
L 47.609375 72.90625 
L 47.609375 25.390625 
L 58.015625 25.390625 
L 58.015625 17.1875 
L 47.609375 17.1875 
L 47.609375 0 
L 37.796875 0 
L 37.796875 17.1875 
L 4.890625 17.1875 
L 4.890625 26.703125 
z
" id="DejaVuSans-52"/>
       </defs>
       <use xlink:href="#DejaVuSans-52"/>
      </g>
     </g>
    </g>
    <g id="xtick_6">
     <g id="line2d_6">
      <g>
       <use style="stroke:#000000;stroke-width:1.3;" x="140.319417" xlink:href="#m13cec5713d" y="239.068"/>
      </g>
     </g>
     <g id="text_6">
      <!-- 5 -->
      <g transform="translate(137.138167 255.166437)scale(0.1 -0.1)">
       <defs>
        <path d="M 10.796875 72.90625 
L 49.515625 72.90625 
L 49.515625 64.59375 
L 19.828125 64.59375 
L 19.828125 46.734375 
Q 21.96875 47.46875 24.109375 47.828125 
Q 26.265625 48.1875 28.421875 48.1875 
Q 40.625 48.1875 47.75 41.5 
Q 54.890625 34.8125 54.890625 23.390625 
Q 54.890625 11.625 47.5625 5.09375 
Q 40.234375 -1.421875 26.90625 -1.421875 
Q 22.3125 -1.421875 17.546875 -0.640625 
Q 12.796875 0.140625 7.71875 1.703125 
L 7.71875 11.625 
Q 12.109375 9.234375 16.796875 8.0625 
Q 21.484375 6.890625 26.703125 6.890625 
Q 35.15625 6.890625 40.078125 11.328125 
Q 45.015625 15.765625 45.015625 23.390625 
Q 45.015625 31 40.078125 35.4375 
Q 35.15625 39.890625 26.703125 39.890625 
Q 22.75 39.890625 18.8125 39.015625 
Q 14.890625 38.140625 10.796875 36.28125 
z
" id="DejaVuSans-53"/>
       </defs>
       <use xlink:href="#DejaVuSans-53"/>
      </g>
     </g>
    </g>
    <g id="xtick_7">
     <g id="line2d_7">
      <g>
       <use style="stroke:#000000;stroke-width:1.3;" x="84.844125" xlink:href="#m13cec5713d" y="239.068"/>
      </g>
     </g>
     <g id="text_7">
      <!-- 6 -->
      <g transform="translate(81.662875 255.166437)scale(0.1 -0.1)">
       <defs>
        <path d="M 33.015625 40.375 
Q 26.375 40.375 22.484375 35.828125 
Q 18.609375 31.296875 18.609375 23.390625 
Q 18.609375 15.53125 22.484375 10.953125 
Q 26.375 6.390625 33.015625 6.390625 
Q 39.65625 6.390625 43.53125 10.953125 
Q 47.40625 15.53125 47.40625 23.390625 
Q 47.40625 31.296875 43.53125 35.828125 
Q 39.65625 40.375 33.015625 40.375 
z
M 52.59375 71.296875 
L 52.59375 62.3125 
Q 48.875 64.0625 45.09375 64.984375 
Q 41.3125 65.921875 37.59375 65.921875 
Q 27.828125 65.921875 22.671875 59.328125 
Q 17.53125 52.734375 16.796875 39.40625 
Q 19.671875 43.65625 24.015625 45.921875 
Q 28.375 48.1875 33.59375 48.1875 
Q 44.578125 48.1875 50.953125 41.515625 
Q 57.328125 34.859375 57.328125 23.390625 
Q 57.328125 12.15625 50.6875 5.359375 
Q 44.046875 -1.421875 33.015625 -1.421875 
Q 20.359375 -1.421875 13.671875 8.265625 
Q 6.984375 17.96875 6.984375 36.375 
Q 6.984375 53.65625 15.1875 63.9375 
Q 23.390625 74.21875 37.203125 74.21875 
Q 40.921875 74.21875 44.703125 73.484375 
Q 48.484375 72.75 52.59375 71.296875 
z
" id="DejaVuSans-54"/>
       </defs>
       <use xlink:href="#DejaVuSans-54"/>
      </g>
     </g>
    </g>
    <g id="xtick_8">
     <g id="line2d_8">
      <g>
       <use style="stroke:#000000;stroke-width:1.3;" x="29.368833" xlink:href="#m13cec5713d" y="239.068"/>
      </g>
     </g>
     <g id="text_8">
      <!-- 7 -->
      <g transform="translate(26.187583 255.166437)scale(0.1 -0.1)">
       <defs>
        <path d="M 8.203125 72.90625 
L 55.078125 72.90625 
L 55.078125 68.703125 
L 28.609375 0 
L 18.3125 0 
L 43.21875 64.59375 
L 8.203125 64.59375 
z
" id="DejaVuSans-55"/>
       </defs>
       <use xlink:href="#DejaVuSans-55"/>
      </g>
     </g>
    </g>
    <g id="xtick_9">
     <g id="line2d_9">
      <defs>
       <path d="M 0 0 
L 0 3 
" id="m1506b20b40" style="stroke:#000000;stroke-width:1.3;"/>
      </defs>
      <g>
       <use style="stroke:#000000;stroke-width:1.3;" x="406.600819" xlink:href="#m1506b20b40" y="239.068"/>
      </g>
     </g>
    </g>
    <g id="xtick_10">
     <g id="line2d_10">
      <g>
       <use style="stroke:#000000;stroke-width:1.3;" x="395.505761" xlink:href="#m1506b20b40" y="239.068"/>
      </g>
     </g>
    </g>
    <g id="xtick_11">
     <g id="line2d_11">
      <g>
       <use style="stroke:#000000;stroke-width:1.3;" x="384.410702" xlink:href="#m1506b20b40" y="239.068"/>
      </g>
     </g>
    </g>
    <g id="xtick_12">
     <g id="line2d_12">
      <g>
       <use style="stroke:#000000;stroke-width:1.3;" x="373.315644" xlink:href="#m1506b20b40" y="239.068"/>
      </g>
     </g>
    </g>
    <g id="xtick_13">
     <g id="line2d_13">
      <g>
       <use style="stroke:#000000;stroke-width:1.3;" x="351.125527" xlink:href="#m1506b20b40" y="239.068"/>
      </g>
     </g>
    </g>
    <g id="xtick_14">
     <g id="line2d_14">
      <g>
       <use style="stroke:#000000;stroke-width:1.3;" x="340.030469" xlink:href="#m1506b20b40" y="239.068"/>
      </g>
     </g>
    </g>
    <g id="xtick_15">
     <g id="line2d_15">
      <g>
       <use style="stroke:#000000;stroke-width:1.3;" x="328.93541" xlink:href="#m1506b20b40" y="239.068"/>
      </g>
     </g>
    </g>
    <g id="xtick_16">
     <g id="line2d_16">
      <g>
       <use style="stroke:#000000;stroke-width:1.3;" x="317.840352" xlink:href="#m1506b20b40" y="239.068"/>
      </g>
     </g>
    </g>
    <g id="xtick_17">
     <g id="line2d_17">
      <g>
       <use style="stroke:#000000;stroke-width:1.3;" x="295.650235" xlink:href="#m1506b20b40" y="239.068"/>
      </g>
     </g>
    </g>
    <g id="xtick_18">
     <g id="line2d_18">
      <g>
       <use style="stroke:#000000;stroke-width:1.3;" x="284.555177" xlink:href="#m1506b20b40" y="239.068"/>
      </g>
     </g>
    </g>
    <g id="xtick_19">
     <g id="line2d_19">
      <g>
       <use style="stroke:#000000;stroke-width:1.3;" x="273.460118" xlink:href="#m1506b20b40" y="239.068"/>
      </g>
     </g>
    </g>
    <g id="xtick_20">
     <g id="line2d_20">
      <g>
       <use style="stroke:#000000;stroke-width:1.3;" x="262.36506" xlink:href="#m1506b20b40" y="239.068"/>
      </g>
     </g>
    </g>
    <g id="xtick_21">
     <g id="line2d_21">
      <g>
       <use style="stroke:#000000;stroke-width:1.3;" x="240.174943" xlink:href="#m1506b20b40" y="239.068"/>
      </g>
     </g>
    </g>
    <g id="xtick_22">
     <g id="line2d_22">
      <g>
       <use style="stroke:#000000;stroke-width:1.3;" x="229.079885" xlink:href="#m1506b20b40" y="239.068"/>
      </g>
     </g>
    </g>
    <g id="xtick_23">
     <g id="line2d_23">
      <g>
       <use style="stroke:#000000;stroke-width:1.3;" x="217.984826" xlink:href="#m1506b20b40" y="239.068"/>
      </g>
     </g>
    </g>
    <g id="xtick_24">
     <g id="line2d_24">
      <g>
       <use style="stroke:#000000;stroke-width:1.3;" x="206.889768" xlink:href="#m1506b20b40" y="239.068"/>
      </g>
     </g>
    </g>
    <g id="xtick_25">
     <g id="line2d_25">
      <g>
       <use style="stroke:#000000;stroke-width:1.3;" x="184.699651" xlink:href="#m1506b20b40" y="239.068"/>
      </g>
     </g>
    </g>
    <g id="xtick_26">
     <g id="line2d_26">
      <g>
       <use style="stroke:#000000;stroke-width:1.3;" x="173.604592" xlink:href="#m1506b20b40" y="239.068"/>
      </g>
     </g>
    </g>
    <g id="xtick_27">
     <g id="line2d_27">
      <g>
       <use style="stroke:#000000;stroke-width:1.3;" x="162.509534" xlink:href="#m1506b20b40" y="239.068"/>
      </g>
     </g>
    </g>
    <g id="xtick_28">
     <g id="line2d_28">
      <g>
       <use style="stroke:#000000;stroke-width:1.3;" x="151.414476" xlink:href="#m1506b20b40" y="239.068"/>
      </g>
     </g>
    </g>
    <g id="xtick_29">
     <g id="line2d_29">
      <g>
       <use style="stroke:#000000;stroke-width:1.3;" x="129.224359" xlink:href="#m1506b20b40" y="239.068"/>
      </g>
     </g>
    </g>
    <g id="xtick_30">
     <g id="line2d_30">
      <g>
       <use style="stroke:#000000;stroke-width:1.3;" x="118.1293" xlink:href="#m1506b20b40" y="239.068"/>
      </g>
     </g>
    </g>
    <g id="xtick_31">
     <g id="line2d_31">
      <g>
       <use style="stroke:#000000;stroke-width:1.3;" x="107.034242" xlink:href="#m1506b20b40" y="239.068"/>
      </g>
     </g>
    </g>
    <g id="xtick_32">
     <g id="line2d_32">
      <g>
       <use style="stroke:#000000;stroke-width:1.3;" x="95.939184" xlink:href="#m1506b20b40" y="239.068"/>
      </g>
     </g>
    </g>
    <g id="xtick_33">
     <g id="line2d_33">
      <g>
       <use style="stroke:#000000;stroke-width:1.3;" x="73.749067" xlink:href="#m1506b20b40" y="239.068"/>
      </g>
     </g>
    </g>
    <g id="xtick_34">
     <g id="line2d_34">
      <g>
       <use style="stroke:#000000;stroke-width:1.3;" x="62.654008" xlink:href="#m1506b20b40" y="239.068"/>
      </g>
     </g>
    </g>
    <g id="xtick_35">
     <g id="line2d_35">
      <g>
       <use style="stroke:#000000;stroke-width:1.3;" x="51.55895" xlink:href="#m1506b20b40" y="239.068"/>
      </g>
     </g>
    </g>
    <g id="xtick_36">
     <g id="line2d_36">
      <g>
       <use style="stroke:#000000;stroke-width:1.3;" x="40.463891" xlink:href="#m1506b20b40" y="239.068"/>
      </g>
     </g>
    </g>
    <g id="xtick_37">
     <g id="line2d_37">
      <g>
       <use style="stroke:#000000;stroke-width:1.3;" x="18.273775" xlink:href="#m1506b20b40" y="239.068"/>
      </g>
     </g>
    </g>
    <g id="text_9">
     <!-- $^{1}$H (ppm) -->
     <g transform="translate(192.32553 270.246125)scale(0.1 -0.1)">
      <defs>
       <path d="M 9.8125 72.90625 
L 19.671875 72.90625 
L 19.671875 43.015625 
L 55.515625 43.015625 
L 55.515625 72.90625 
L 65.375 72.90625 
L 65.375 0 
L 55.515625 0 
L 55.515625 34.71875 
L 19.671875 34.71875 
L 19.671875 0 
L 9.8125 0 
z
" id="DejaVuSans-72"/>
       <path id="DejaVuSans-32"/>
       <path d="M 31 75.875 
Q 24.46875 64.65625 21.28125 53.65625 
Q 18.109375 42.671875 18.109375 31.390625 
Q 18.109375 20.125 21.3125 9.0625 
Q 24.515625 -2 31 -13.1875 
L 23.1875 -13.1875 
Q 15.875 -1.703125 12.234375 9.375 
Q 8.59375 20.453125 8.59375 31.390625 
Q 8.59375 42.28125 12.203125 53.3125 
Q 15.828125 64.359375 23.1875 75.875 
z
" id="DejaVuSans-40"/>
       <path d="M 18.109375 8.203125 
L 18.109375 -20.796875 
L 9.078125 -20.796875 
L 9.078125 54.6875 
L 18.109375 54.6875 
L 18.109375 46.390625 
Q 20.953125 51.265625 25.265625 53.625 
Q 29.59375 56 35.59375 56 
Q 45.5625 56 51.78125 48.09375 
Q 58.015625 40.1875 58.015625 27.296875 
Q 58.015625 14.40625 51.78125 6.484375 
Q 45.5625 -1.421875 35.59375 -1.421875 
Q 29.59375 -1.421875 25.265625 0.953125 
Q 20.953125 3.328125 18.109375 8.203125 
z
M 48.6875 27.296875 
Q 48.6875 37.203125 44.609375 42.84375 
Q 40.53125 48.484375 33.40625 48.484375 
Q 26.265625 48.484375 22.1875 42.84375 
Q 18.109375 37.203125 18.109375 27.296875 
Q 18.109375 17.390625 22.1875 11.75 
Q 26.265625 6.109375 33.40625 6.109375 
Q 40.53125 6.109375 44.609375 11.75 
Q 48.6875 17.390625 48.6875 27.296875 
z
" id="DejaVuSans-112"/>
       <path d="M 52 44.1875 
Q 55.375 50.25 60.0625 53.125 
Q 64.75 56 71.09375 56 
Q 79.640625 56 84.28125 50.015625 
Q 88.921875 44.046875 88.921875 33.015625 
L 88.921875 0 
L 79.890625 0 
L 79.890625 32.71875 
Q 79.890625 40.578125 77.09375 44.375 
Q 74.3125 48.1875 68.609375 48.1875 
Q 61.625 48.1875 57.5625 43.546875 
Q 53.515625 38.921875 53.515625 30.90625 
L 53.515625 0 
L 44.484375 0 
L 44.484375 32.71875 
Q 44.484375 40.625 41.703125 44.40625 
Q 38.921875 48.1875 33.109375 48.1875 
Q 26.21875 48.1875 22.15625 43.53125 
Q 18.109375 38.875 18.109375 30.90625 
L 18.109375 0 
L 9.078125 0 
L 9.078125 54.6875 
L 18.109375 54.6875 
L 18.109375 46.1875 
Q 21.1875 51.21875 25.484375 53.609375 
Q 29.78125 56 35.6875 56 
Q 41.65625 56 45.828125 52.96875 
Q 50 49.953125 52 44.1875 
z
" id="DejaVuSans-109"/>
       <path d="M 8.015625 75.875 
L 15.828125 75.875 
Q 23.140625 64.359375 26.78125 53.3125 
Q 30.421875 42.28125 30.421875 31.390625 
Q 30.421875 20.453125 26.78125 9.375 
Q 23.140625 -1.703125 15.828125 -13.1875 
L 8.015625 -13.1875 
Q 14.5 -2 17.703125 9.0625 
Q 20.90625 20.125 20.90625 31.390625 
Q 20.90625 42.671875 17.703125 53.65625 
Q 14.5 64.65625 8.015625 75.875 
z
" id="DejaVuSans-41"/>
      </defs>
      <use transform="translate(0.957031 38.965625)scale(0.7)" xlink:href="#DejaVuSans-49"/>
      <use transform="translate(48.227539 0.684375)" xlink:href="#DejaVuSans-72"/>
      <use transform="translate(123.422852 0.684375)" xlink:href="#DejaVuSans-32"/>
      <use transform="translate(155.209961 0.684375)" xlink:href="#DejaVuSans-40"/>
      <use transform="translate(194.223633 0.684375)" xlink:href="#DejaVuSans-112"/>
      <use transform="translate(257.700195 0.684375)" xlink:href="#DejaVuSans-112"/>
      <use transform="translate(321.176758 0.684375)" xlink:href="#DejaVuSans-109"/>
      <use transform="translate(418.588867 0.684375)" xlink:href="#DejaVuSans-41"/>
     </g>
    </g>
   </g>
   <g id="line2d_38">
    <path clip-path="url(#p3f3d987103)" d="M 29.384139 228.309864 
L 32.029472 228.309293 
L 32.960737 228.308118 
L 33.325145 228.305145 
L 35.444111 228.30681 
L 41.139675 228.307274 
L 42.07094 228.304631 
L 43.191158 228.252075 
L 43.515076 228.265408 
L 45.337117 228.295708 
L 47.442586 228.205893 
L 47.685524 228.159702 
L 47.968953 228.169887 
L 48.832735 227.675558 
L 49.035184 226.966732 
L 49.17015 225.485719 
L 49.264626 220.391175 
L 49.332109 217.3362 
L 49.399592 217.814153 
L 49.440082 216.832078 
L 49.480572 217.978897 
L 49.629034 223.819508 
L 49.656028 223.676962 
L 49.723511 221.781527 
L 49.817987 210.130325 
L 49.858477 205.762325 
L 49.92596 208.999904 
L 49.993443 206.453778 
L 50.020436 208.927306 
L 50.209388 224.527847 
L 50.236381 224.450883 
L 50.303864 222.74213 
L 50.411837 217.395195 
L 50.492817 218.508639 
L 50.51981 218.174321 
L 50.546803 218.718651 
L 50.803238 227.806462 
L 51.005687 228.171739 
L 51.86947 228.306881 
L 52.760245 228.324881 
L 54.879211 228.305598 
L 55.567537 228.272467 
L 55.918449 228.278509 
L 61.303591 228.30838 
L 68.551263 228.314519 
L 69.334066 228.314927 
L 69.846937 228.307745 
L 73.491018 228.315547 
L 73.936405 228.30933 
L 77.931398 228.306105 
L 79.59148 228.310116 
L 84.639207 228.308573 
L 97.420484 228.21894 
L 99.026579 227.886646 
L 99.350497 227.588135 
L 99.660919 227.012763 
L 99.890361 226.141379 
L 100.079314 224.368242 
L 100.241273 220.339785 
L 100.430225 213.149824 
L 100.484212 214.253145 
L 100.659667 218.727397 
L 100.700157 218.501007 
L 100.80813 215.512487 
L 100.889109 213.320213 
L 100.943096 214.18807 
L 101.347994 226.273084 
L 101.604429 227.378482 
L 101.914851 227.834041 
L 102.414225 228.069776 
L 102.873109 228.190766 
L 104.344238 228.247148 
L 105.086551 228.269804 
L 111.11953 228.2992 
L 117.206495 228.302272 
L 118.596645 228.288688 
L 119.217488 228.293544 
L 120.79659 228.297603 
L 123.698358 228.29426 
L 124.616127 228.288129 
L 130.47365 228.241579 
L 134.779064 227.769698 
L 135.386411 227.41049 
L 135.845295 226.884913 
L 136.2232 226.093415 
L 136.628098 224.60791 
L 137.248941 222.242199 
L 137.383907 222.26339 
L 137.545867 222.650718 
L 137.910275 224.306517 
L 138.409649 226.157372 
L 138.814547 226.892581 
L 139.47588 227.541246 
L 139.934764 227.794846 
L 140.555608 227.942732 
L 142.175199 228.058752 
L 143.551852 227.750281 
L 143.808288 227.329567 
L 143.970247 226.595382 
L 144.105213 224.734987 
L 144.820532 211.53853 
L 144.861022 211.869832 
L 145.562845 225.84612 
L 145.765294 227.783942 
L 145.967743 228.058954 
L 146.345648 228.148208 
L 146.872015 228.198173 
L 147.776287 228.09465 
L 147.992233 228.038458 
L 148.356641 228.087298 
L 148.761539 227.928355 
L 149.625321 226.859829 
L 149.78728 225.649067 
L 149.922246 222.54065 
L 150.030219 211.709597 
L 150.192178 189.035216 
L 150.286654 190.839186 
L 150.448613 215.504019 
L 150.637566 226.423421 
L 150.853511 227.659619 
L 151.150436 228.070372 
L 151.555334 228.117663 
L 152.500096 228.358236 
L 152.702545 228.309704 
L 153.053456 228.246371 
L 154.362626 228.213166 
L 154.754028 228.128893 
L 155.199415 228.252807 
L 156.198163 228.216732 
L 156.562572 228.098106 
L 156.994463 228.249894 
L 158.19566 228.136781 
L 158.425102 228.077424 
L 158.695034 228.079009 
L 159.086435 227.967611 
L 159.477837 227.881209 
L 159.774762 227.440681 
L 160.05819 226.812972 
L 160.233646 225.490706 
L 160.355115 222.544798 
L 160.463088 211.594851 
L 160.638544 188.849558 
L 160.706027 190.338267 
L 160.800503 204.624452 
L 161.043442 226.151237 
L 161.245891 227.567462 
L 161.529319 228.110682 
L 161.731768 228.181095 
L 162.487578 228.218948 
L 162.919469 228.360545 
L 163.121918 228.323752 
L 163.418843 228.250614 
L 164.714516 228.264833 
L 166.792992 228.126147 
L 167.049427 228.033721 
L 167.400339 228.238615 
L 167.87272 228.197383 
L 168.115659 228.252934 
L 168.696012 228.270357 
L 169.681264 228.266445 
L 171.921699 227.972701 
L 172.070161 227.921682 
L 172.367087 227.678753 
L 172.623522 226.784412 
L 172.731495 225.318751 
L 172.812474 220.181791 
L 172.893454 204.447271 
L 172.94744 214.677541 
L 173.095903 225.752393 
L 173.136393 225.854414 
L 173.176882 225.614197 
L 173.257862 223.674321 
L 173.325345 214.152388 
L 173.379331 202.06217 
L 173.433318 214.991729 
L 173.527794 223.60618 
L 173.568284 222.664053 
L 173.635767 210.660611 
L 173.689753 199.645436 
L 173.730243 212.558925 
L 173.878705 225.968725 
L 173.905699 226.059549 
L 173.959685 225.817757 
L 174.040665 223.706841 
L 174.121644 211.171834 
L 174.162134 204.24238 
L 174.202624 211.537343 
L 174.364583 227.049496 
L 174.553535 227.968074 
L 174.755984 228.096135 
L 175.511794 228.184089 
L 175.687249 228.240076 
L 175.808719 228.200946 
L 175.970678 228.22654 
L 176.051657 228.258556 
L 176.092147 228.213047 
L 176.348583 228.188872 
L 177.914188 228.198377 
L 178.548528 228.218265 
L 180.411058 228.195978 
L 180.76197 228.215702 
L 185.20235 227.874209 
L 186.241588 227.435633 
L 186.821942 226.860568 
L 187.172853 226.135989 
L 188.333561 223.397692 
L 188.53601 223.44668 
L 188.751955 223.804598 
L 189.210839 225.163673 
L 189.791193 226.594224 
L 190.331057 227.276607 
L 190.614486 227.390633 
L 190.816934 227.497357 
L 191.046377 227.660614 
L 191.559247 227.689894 
L 191.680717 227.738174 
L 191.964145 227.69564 
L 192.315057 227.472499 
L 192.450023 227.323131 
L 192.584989 226.947046 
L 192.719955 226.019757 
L 192.841424 223.225403 
L 192.908907 215.390622 
L 192.97639 200.09779 
L 193.030376 209.510862 
L 193.05737 212.266563 
L 193.097859 207.599179 
L 193.138349 201.059802 
L 193.178839 208.040666 
L 193.340798 225.825887 
L 193.435274 226.358859 
L 193.475764 226.265747 
L 193.57024 225.281376 
L 193.65122 222.599701 
L 193.732199 207.428397 
L 193.772689 202.133648 
L 193.813179 210.473119 
L 193.840172 213.5529 
L 193.894159 207.189183 
L 193.921152 203.626046 
L 193.961642 209.935074 
L 194.123601 226.714285 
L 194.32605 227.835874 
L 194.595982 228.05009 
L 194.987383 228.144332 
L 195.932145 228.209772 
L 198.388525 228.1843 
L 198.820416 228.208284 
L 199.130838 228.134918 
L 199.387274 228.038629 
L 199.819165 228.189787 
L 200.372525 228.221778 
L 202.370021 228.088044 
L 203.274293 227.492526 
L 203.449749 226.959674 
L 203.611708 225.705856 
L 203.733178 222.964583 
L 203.84115 214.811554 
L 203.949123 203.241683 
L 203.989613 206.354606 
L 204.232552 224.624675 
L 204.367518 225.561957 
L 204.394511 225.544428 
L 204.475491 225.120063 
L 204.583463 223.169096 
L 204.691436 216.575103 
L 204.812905 201.775372 
L 204.866892 206.34095 
L 205.096334 225.28424 
L 205.31228 227.331191 
L 205.582211 227.917078 
L 205.879137 228.123469 
L 207.633694 228.256692 
L 210.009095 228.256745 
L 210.413993 228.172437 
L 210.562456 228.195508 
L 210.832388 228.268235 
L 211.682673 228.281709 
L 222.358481 228.214356 
L 222.587924 228.238873 
L 224.976821 228.204644 
L 225.624658 228.042562 
L 225.692141 228.005598 
L 225.746127 228.066067 
L 225.962073 228.116657 
L 226.137529 227.93654 
L 226.232005 227.687629 
L 226.285991 227.834019 
L 226.461447 228.077222 
L 226.663896 227.968833 
L 226.785365 227.679012 
L 226.839352 227.837371 
L 227.014807 228.093897 
L 227.271243 228.024743 
L 227.365719 227.991319 
L 227.406209 228.040129 
L 227.635651 228.09847 
L 228.47244 228.059349 
L 230.361963 227.671891 
L 231.671133 226.791116 
L 232.130018 226.01867 
L 232.737364 224.30064 
L 233.182752 223.191596 
L 233.358208 223.225578 
L 233.560657 223.55682 
L 234.046534 225.097845 
L 234.451432 226.075583 
L 234.842834 226.507664 
L 235.031786 226.487814 
L 235.261228 226.200437 
L 235.423187 225.637428 
L 235.598643 223.993074 
L 235.774099 219.575474 
L 235.976548 212.500686 
L 236.030534 213.119801 
L 236.421935 222.925183 
L 236.475922 222.711197 
L 236.597391 220.822066 
L 236.853826 213.119301 
L 236.934806 214.850971 
L 237.272221 223.820776 
L 237.299214 223.872357 
L 237.339704 223.777459 
L 237.43418 222.572955 
L 237.636629 217.586034 
L 237.704112 218.615267 
L 237.866071 221.414407 
L 237.906561 221.191864 
L 238.014534 218.760015 
L 238.136003 216.552309 
L 238.176493 216.881789 
L 238.311459 218.132914 
L 238.365445 217.973406 
L 238.405935 217.894487 
L 238.446425 218.031516 
L 238.554398 219.668031 
L 238.689364 221.378347 
L 238.729853 221.108672 
L 238.891813 218.426338 
L 238.945799 219.177078 
L 239.3372 226.969288 
L 239.647622 227.769816 
L 239.917554 227.985761 
L 240.862316 228.183163 
L 242.454914 228.170302 
L 242.846315 228.201392 
L 243.629118 228.202051 
L 244.951785 228.260784 
L 246.193472 228.277809 
L 246.652356 228.287808 
L 248.811811 228.286681 
L 250.903784 228.30079 
L 252.26694 228.303607 
L 253.171212 228.303121 
L 260.067973 228.308355 
L 264.670313 228.304331 
L 265.23717 228.296689 
L 265.709551 228.308496 
L 270.743781 228.302188 
L 271.837006 228.281227 
L 274.077441 228.227292 
L 274.671291 228.182755 
L 275.966964 227.946426 
L 276.479835 227.524615 
L 276.628298 226.912466 
L 276.73627 225.118803 
L 276.830746 223.677132 
L 276.871236 224.017649 
L 276.938719 224.74534 
L 276.992706 224.221992 
L 277.087182 222.712003 
L 277.141168 223.366719 
L 277.222148 224.57763 
L 277.276134 224.089529 
L 277.357114 223.115974 
L 277.4111 223.577059 
L 277.478583 224.398322 
L 277.53257 223.923232 
L 277.627046 222.53979 
L 277.667535 223.024748 
L 277.815998 225.457522 
L 277.869984 225.258369 
L 277.964461 223.52886 
L 278.12642 216.036127 
L 278.220896 218.047661 
L 278.234393 218.123486 
L 278.261386 217.757704 
L 278.409848 212.574623 
L 278.463835 214.147732 
L 278.504324 215.747282 
L 278.558311 213.793154 
L 278.598801 212.01473 
L 278.67978 212.812757 
L 278.747263 215.200454 
L 278.814746 218.062165 
L 278.868733 216.73582 
L 278.895726 216.305382 
L 278.936216 217.085801 
L 279.246637 226.314937 
L 279.273631 226.293888 
L 279.35461 225.861674 
L 279.449086 223.856108 
L 279.584052 218.395345 
L 279.638039 219.683941 
L 279.840488 225.602668 
L 279.867481 225.569901 
L 279.934964 225.001308 
L 280.02944 222.00267 
L 280.137413 217.628409 
L 280.191399 218.782241 
L 280.299372 222.318658 
L 280.339862 221.58368 
L 280.447834 217.919058 
L 280.501821 219.090316 
L 280.690773 225.108978 
L 280.731263 224.860598 
L 280.825739 222.176122 
L 280.987698 217.012281 
L 281.028188 217.805888 
L 281.25763 225.954223 
L 281.325113 225.447431 
L 281.433086 223.873922 
L 281.487072 224.386089 
L 281.595045 225.852443 
L 281.635535 225.467678 
L 281.743508 223.227242 
L 281.810991 224.180973 
L 282.01344 227.278192 
L 282.080923 227.181755 
L 282.161902 226.553524 
L 282.296868 223.724858 
L 282.364351 224.639832 
L 282.580297 227.840233 
L 282.796242 228.104052 
L 283.349603 228.159301 
L 284.46982 228.206081 
L 284.766745 228.209684 
L 286.49431 228.068063 
L 286.899208 227.91964 
L 287.317602 227.650743 
L 287.479561 227.317931 
L 287.641521 226.518934 
L 287.749493 224.677056 
L 288.100405 216.415488 
L 288.127398 216.502173 
L 288.167888 216.286077 
L 288.181384 216.213892 
L 288.208378 216.47832 
L 288.31635 220.043757 
L 288.383833 218.773401 
L 288.39733 218.701212 
L 288.410827 218.852437 
L 288.640269 225.721936 
L 288.721248 225.126033 
L 288.815725 221.682803 
L 288.910201 217.706753 
L 288.964187 218.739474 
L 288.977684 218.83027 
L 289.004677 218.473271 
L 289.099153 215.579869 
L 289.193629 215.765983 
L 289.207126 215.749046 
L 289.220622 215.873628 
L 289.868459 227.897386 
L 290.178881 228.157482 
L 290.610772 228.227817 
L 291.245112 228.271229 
L 291.933438 228.25612 
L 292.743234 228.276441 
L 300.193356 228.305259 
L 300.908675 228.294351 
L 303.027641 228.304855 
L 305.645981 228.229683 
L 306.050879 228.194879 
L 307.03613 228.173864 
L 307.886416 228.056643 
L 308.3453 227.777988 
L 308.507259 227.408101 
L 308.642225 226.462601 
L 308.898661 223.034015 
L 308.97964 223.503853 
L 309.074116 223.974352 
L 309.114606 223.775559 
L 309.276565 222.143077 
L 309.344048 222.659602 
L 309.559994 225.684127 
L 309.627477 225.3151 
L 309.748946 222.250492 
L 309.924402 217.910463 
L 309.964892 218.291652 
L 310.113354 220.433353 
L 310.167341 219.874766 
L 310.302307 217.591053 
L 310.356293 218.221902 
L 310.666715 225.945746 
L 310.747694 225.272838 
L 310.936647 222.682894 
L 311.00413 223.058189 
L 311.152592 224.23745 
L 311.193082 224.059665 
L 311.328048 223.114822 
L 311.368538 223.329968 
L 311.55749 226.457084 
L 311.759939 227.75303 
L 312.002878 227.938224 
L 312.340293 227.929401 
L 312.839667 227.476997 
L 313.001626 226.922855 
L 313.123096 225.595988 
L 313.271558 220.517589 
L 313.501 215.01979 
L 313.54149 214.986562 
L 313.58198 215.051455 
L 313.649463 215.497003 
L 313.757436 218.482857 
L 313.973381 224.241258 
L 314.000374 224.121037 
L 314.09485 221.948194 
L 314.324293 215.677515 
L 314.364782 215.779906 
L 314.499748 216.728416 
L 314.607721 219.235594 
L 314.931639 227.400374 
L 315.147585 227.92606 
L 315.552483 228.138592 
L 315.876401 228.180126 
L 319.075095 227.798271 
L 319.479993 227.390806 
L 319.641952 226.846898 
L 319.763421 225.478346 
L 320.087339 219.266008 
L 320.141326 219.729981 
L 320.168319 219.90536 
L 320.208809 219.471376 
L 320.276292 218.18141 
L 320.330278 219.087648 
L 320.397761 220.174403 
L 320.438251 219.62034 
L 320.478741 219.108272 
L 320.519231 219.706426 
L 320.708183 222.289395 
L 320.802659 223.498584 
L 320.856646 222.804564 
L 321.140074 217.569038 
L 321.153571 217.719631 
L 321.221054 218.849569 
L 321.27504 218.030123 
L 321.329026 217.163684 
L 321.369516 217.947084 
L 321.450496 219.485145 
L 321.504482 219.083301 
L 321.517979 219.064099 
L 321.531475 219.146261 
L 321.814904 224.789463 
L 322.003856 226.739355 
L 322.111829 226.787139 
L 322.138822 226.757479 
L 322.260292 226.407363 
L 322.368264 225.208278 
L 322.746169 215.543963 
L 322.800155 213.245558 
L 322.854142 215.682792 
L 322.962115 220.746593 
L 323.016101 219.970833 
L 323.083584 218.623115 
L 323.124074 219.566216 
L 323.326523 225.138744 
L 323.353516 225.0516 
L 323.434496 223.751052 
L 323.555965 220.341255 
L 323.636944 220.940816 
L 323.677434 220.384051 
L 323.8124 213.654724 
L 323.89338 216.476304 
L 323.93387 217.400716 
L 323.974359 216.476758 
L 324.055339 213.15921 
L 324.095829 214.60394 
L 324.365761 226.317041 
L 324.554713 226.862624 
L 324.649189 226.733652 
L 324.757162 226.06662 
L 324.946114 222.850062 
L 325.067584 219.502788 
L 325.108074 220.428403 
L 325.20255 222.391079 
L 325.256536 222.003262 
L 325.297026 221.696934 
L 325.337516 222.02305 
L 325.499475 224.698189 
L 325.553461 224.51145 
L 325.728917 222.05814 
L 325.823393 217.857804 
L 326.039339 208.462313 
L 326.066332 208.449233 
L 326.106822 207.574743 
L 326.241788 201.791196 
L 326.282277 203.360919 
L 326.444237 214.719749 
L 326.498223 212.942462 
L 326.552209 210.869616 
L 326.606196 212.561407 
L 326.660182 214.423006 
L 326.714169 212.644888 
L 326.781652 209.27695 
L 326.835638 211.621863 
L 326.943611 215.554046 
L 326.984101 215.142007 
L 327.06508 212.990004 
L 327.10557 214.584612 
L 327.335012 223.789228 
L 327.510468 226.232894 
L 327.564454 226.038785 
L 327.604944 225.882794 
L 327.645434 226.135666 
L 327.861379 227.599894 
L 328.117815 227.878648 
L 328.698168 228.051294 
L 329.548454 228.118374 
L 330.925107 228.139952 
L 331.370494 228.092004 
L 333.071066 228.235268 
L 334.339746 228.256372 
L 335.001079 228.25545 
L 339.23901 228.162662 
L 340.278248 227.869311 
L 340.453704 227.454203 
L 340.561677 226.602811 
L 340.683146 224.625946 
L 340.750629 225.351282 
L 340.845106 226.23905 
L 340.899092 226.004296 
L 341.020561 224.196262 
L 341.074548 225.040252 
L 341.2635 227.030566 
L 341.330983 226.998435 
L 341.34448 226.96906 
L 341.452452 226.426249 
L 341.560425 224.711971 
L 341.722384 217.241692 
L 341.803364 220.661111 
L 341.884343 222.822695 
L 341.93833 221.970337 
L 342.046303 217.072199 
L 342.100289 218.9064 
L 342.316235 226.24733 
L 342.397214 226.441293 
L 342.437704 226.375295 
L 342.53218 225.729479 
L 342.640153 222.866609 
L 342.761622 216.319447 
L 342.815609 218.981749 
L 342.923581 222.916495 
L 342.964071 222.401478 
L 343.085541 216.988056 
L 343.139527 219.316625 
L 343.341976 226.695272 
L 343.503935 227.216859 
L 343.517432 227.208055 
L 343.598411 226.987009 
L 343.692887 225.896272 
L 343.787364 223.733667 
L 343.84135 224.544001 
L 343.962819 226.306772 
L 344.003309 226.120357 
L 344.124779 224.450267 
L 344.178765 225.270428 
L 344.381214 227.772502 
L 344.583663 228.04686 
L 344.948071 228.136141 
L 345.218003 228.08428 
L 345.420452 228.059552 
L 346.729622 228.028484 
L 346.932071 228.066693 
L 347.458438 228.022348 
L 347.80935 227.672865 
L 347.890329 227.505465 
L 347.944315 227.603869 
L 348.079281 227.776791 
L 348.106275 227.766664 
L 348.511173 227.456428 
L 348.95656 226.090552 
L 349.091526 223.38874 
L 349.199499 221.10924 
L 349.253485 221.584609 
L 349.428941 223.761924 
L 349.469431 223.605581 
L 349.563907 221.901997 
L 349.874329 208.514784 
L 349.928315 204.7292 
L 349.995798 206.583298 
L 350.009295 206.725613 
L 350.036288 206.053101 
L 350.130764 200.309073 
L 350.171254 202.721747 
L 350.427689 220.149113 
L 350.441186 220.063365 
L 350.535662 217.280434 
L 350.630138 215.308324 
L 350.670628 215.78605 
L 350.778601 217.744781 
L 350.819091 217.001508 
L 350.94056 209.598226 
L 351.035036 212.119951 
L 351.129512 208.995267 
L 351.170002 210.715381 
L 351.412941 223.698814 
L 351.426437 223.697931 
L 351.49392 223.175061 
L 351.561403 222.7624 
L 351.601893 223.094299 
L 351.979798 227.425974 
L 352.101267 227.487201 
L 352.114764 227.477357 
L 352.195744 227.303813 
L 352.29022 226.842606 
L 352.330709 227.100017 
L 352.519662 227.923276 
L 352.951553 228.095943 
L 354.490165 228.049038 
L 354.665621 227.898048 
L 354.7466 227.576758 
L 354.814083 227.176282 
L 354.86807 227.390761 
L 355.030029 227.696065 
L 355.5429 227.626143 
L 355.772342 227.411525 
L 356.17724 226.062596 
L 356.244723 225.449908 
L 356.312206 225.603731 
L 356.393185 225.31527 
L 356.568641 223.855669 
L 356.77109 219.316402 
L 356.906056 209.755589 
L 357.014029 182.265773 
L 357.108505 78.990655 
L 357.162491 21.175818 
L 357.202981 64.264592 
L 357.391933 210.684933 
L 357.580886 223.67921 
L 357.796831 226.208769 
L 358.107253 227.635213 
L 358.134246 227.56535 
L 358.215226 226.571055 
L 358.269212 227.256549 
L 358.431171 227.658583 
L 358.566137 227.617428 
L 358.687607 227.386483 
L 358.768586 226.031007 
L 358.809076 227.018073 
L 358.957539 227.908777 
L 359.213974 227.97748 
L 359.22747 227.947688 
L 359.321947 227.141454 
L 359.362436 227.645614 
L 359.510899 228.618369 
L 359.537892 228.539386 
L 359.726845 228.085256 
L 360.118246 228.107939 
L 362.075252 228.00996 
L 362.183225 227.495235 
L 362.250708 227.105906 
L 362.291198 227.375999 
L 362.48015 228.132239 
L 362.777075 228.232256 
L 365.084994 228.246506 
L 365.557374 228.255374 
L 374.964502 228.209002 
L 375.693319 227.931529 
L 375.787795 227.307857 
L 375.855278 226.860977 
L 375.895768 227.101692 
L 376.098217 228.13495 
L 376.381645 228.213053 
L 377.366897 228.167821 
L 378.122706 227.916995 
L 378.311658 227.147753 
L 378.392638 227.442628 
L 378.541101 227.847186 
L 378.568094 227.838228 
L 378.797536 227.843775 
L 378.986488 227.807913 
L 379.323903 227.549316 
L 379.674815 226.510301 
L 379.796284 225.714519 
L 379.850271 225.749419 
L 379.93125 225.488733 
L 380.093209 224.244594 
L 380.268665 220.807398 
L 380.403631 213.325523 
L 380.511604 192.056258 
L 380.60608 113.215482 
L 380.68706 38.515619 
L 380.727549 69.750598 
L 380.943495 215.541375 
L 381.132447 224.82062 
L 381.361889 226.768826 
L 381.658815 227.867294 
L 381.712801 227.754189 
L 381.780284 227.664476 
L 381.83427 227.721816 
L 382.036719 227.821014 
L 382.185182 227.880969 
L 382.495604 228.070373 
L 382.833018 228.248011 
L 382.940991 228.459131 
L 383.021971 228.692182 
L 383.075957 228.551657 
L 383.278406 228.127307 
L 383.926243 227.975684 
L 384.169182 228.183347 
L 385.464855 228.159605 
L 385.599821 227.933461 
L 385.734787 227.198328 
L 385.788773 227.490199 
L 385.977726 228.168535 
L 386.247657 228.24857 
L 386.841508 228.261083 
L 387.651304 228.278506 
L 388.245154 228.279207 
L 389.432854 228.284096 
L 392.348119 228.293081 
L 393.994704 228.297719 
L 395.452337 228.295621 
L 401.066921 228.299083 
L 401.066921 228.299083 
" style="fill:none;stroke:#4c72b0;stroke-linecap:square;"/>
   </g>
   <g id="patch_3">
    <path d="M 10.8 239.068 
L 419.65106 239.068 
" style="fill:none;stroke:#000000;stroke-linecap:square;stroke-linejoin:miter;stroke-width:1.3;"/>
   </g>
  </g>
 </g>
 <defs>
  <clipPath id="p3f3d987103">
   <rect height="228.268" width="408.85106" x="10.8" y="10.8"/>
  </clipPath>
 </defs>
</svg>
