<?xml version="1.0" encoding="utf-8" standalone="no"?>
<!DOCTYPE svg PUBLIC "-//W3C//DTD SVG 1.1//EN"
  "http://www.w3.org/Graphics/SVG/1.1/DTD/svg11.dtd">
<svg xmlns:xlink="http://www.w3.org/1999/xlink" width="432pt" height="288pt" viewBox="0 0 432 288" xmlns="http://www.w3.org/2000/svg" version="1.1">
 <metadata>
  <rdf:RDF xmlns:dc="http://purl.org/dc/elements/1.1/" xmlns:cc="http://creativecommons.org/ns#" xmlns:rdf="http://www.w3.org/1999/02/22-rdf-syntax-ns#">
   <cc:Work>
    <dc:type rdf:resource="http://purl.org/dc/dcmitype/StillImage"/>
    <dc:date>2022-07-29T16:44:13.988112</dc:date>
    <dc:format>image/svg+xml</dc:format>
    <dc:creator>
     <cc:Agent>
      <dc:title>Matplotlib v3.5.2, https://matplotlib.org/</dc:title>
     </cc:Agent>
    </dc:creator>
   </cc:Work>
  </rdf:RDF>
 </metadata>
 <defs>
  <style type="text/css">*{stroke-linejoin: round; stroke-linecap: butt}</style>
 </defs>
 <g id="figure_1">
  <g id="patch_1">
   <path d="M 0 288 
L 432 288 
L 432 0 
L 0 0 
z
" style="fill: #ffffff"/>
  </g>
  <g id="axes_1">
   <g id="patch_2">
    <path d="M 10.8 239.068 
L 421.2 239.068 
L 421.2 10.8 
L 10.8 10.8 
z
" style="fill: #ffffff"/>
   </g>
   <g id="matplotlib.axis_1">
    <g id="xtick_1">
     <g id="line2d_1">
      <defs>
       <path id="mbed79e0033" d="M 0 0 
L 0 5 
" style="stroke: #000000; stroke-width: 1.3"/>
      </defs>
      <g>
       <use xlink:href="#mbed79e0033" x="379.801182" y="239.068" style="stroke: #000000; stroke-width: 1.3"/>
      </g>
     </g>
     <g id="text_1">
      <!-- −2 -->
      <g transform="translate(372.430088 255.166437)scale(0.1 -0.1)">
       <defs>
        <path id="DejaVuSans-2212" d="M 678 2272 
L 4684 2272 
L 4684 1741 
L 678 1741 
L 678 2272 
z
" transform="scale(0.015625)"/>
        <path id="DejaVuSans-32" d="M 1228 531 
L 3431 531 
L 3431 0 
L 469 0 
L 469 531 
Q 828 903 1448 1529 
Q 2069 2156 2228 2338 
Q 2531 2678 2651 2914 
Q 2772 3150 2772 3378 
Q 2772 3750 2511 3984 
Q 2250 4219 1831 4219 
Q 1534 4219 1204 4116 
Q 875 4013 500 3803 
L 500 4441 
Q 881 4594 1212 4672 
Q 1544 4750 1819 4750 
Q 2544 4750 2975 4387 
Q 3406 4025 3406 3419 
Q 3406 3131 3298 2873 
Q 3191 2616 2906 2266 
Q 2828 2175 2409 1742 
Q 1991 1309 1228 531 
z
" transform="scale(0.015625)"/>
       </defs>
       <use xlink:href="#DejaVuSans-2212"/>
       <use xlink:href="#DejaVuSans-32" x="83.789062"/>
      </g>
     </g>
    </g>
    <g id="xtick_2">
     <g id="line2d_2">
      <g>
       <use xlink:href="#mbed79e0033" x="333.001093" y="239.068" style="stroke: #000000; stroke-width: 1.3"/>
      </g>
     </g>
     <g id="text_2">
      <!-- 0 -->
      <g transform="translate(329.819843 255.166437)scale(0.1 -0.1)">
       <defs>
        <path id="DejaVuSans-30" d="M 2034 4250 
Q 1547 4250 1301 3770 
Q 1056 3291 1056 2328 
Q 1056 1369 1301 889 
Q 1547 409 2034 409 
Q 2525 409 2770 889 
Q 3016 1369 3016 2328 
Q 3016 3291 2770 3770 
Q 2525 4250 2034 4250 
z
M 2034 4750 
Q 2819 4750 3233 4129 
Q 3647 3509 3647 2328 
Q 3647 1150 3233 529 
Q 2819 -91 2034 -91 
Q 1250 -91 836 529 
Q 422 1150 422 2328 
Q 422 3509 836 4129 
Q 1250 4750 2034 4750 
z
" transform="scale(0.015625)"/>
       </defs>
       <use xlink:href="#DejaVuSans-30"/>
      </g>
     </g>
    </g>
    <g id="xtick_3">
     <g id="line2d_3">
      <g>
       <use xlink:href="#mbed79e0033" x="286.201004" y="239.068" style="stroke: #000000; stroke-width: 1.3"/>
      </g>
     </g>
     <g id="text_3">
      <!-- 2 -->
      <g transform="translate(283.019754 255.166437)scale(0.1 -0.1)">
       <use xlink:href="#DejaVuSans-32"/>
      </g>
     </g>
    </g>
    <g id="xtick_4">
     <g id="line2d_4">
      <g>
       <use xlink:href="#mbed79e0033" x="239.400915" y="239.068" style="stroke: #000000; stroke-width: 1.3"/>
      </g>
     </g>
     <g id="text_4">
      <!-- 4 -->
      <g transform="translate(236.219665 255.166437)scale(0.1 -0.1)">
       <defs>
        <path id="DejaVuSans-34" d="M 2419 4116 
L 825 1625 
L 2419 1625 
L 2419 4116 
z
M 2253 4666 
L 3047 4666 
L 3047 1625 
L 3713 1625 
L 3713 1100 
L 3047 1100 
L 3047 0 
L 2419 0 
L 2419 1100 
L 313 1100 
L 313 1709 
L 2253 4666 
z
" transform="scale(0.015625)"/>
       </defs>
       <use xlink:href="#DejaVuSans-34"/>
      </g>
     </g>
    </g>
    <g id="xtick_5">
     <g id="line2d_5">
      <g>
       <use xlink:href="#mbed79e0033" x="192.600826" y="239.068" style="stroke: #000000; stroke-width: 1.3"/>
      </g>
     </g>
     <g id="text_5">
      <!-- 6 -->
      <g transform="translate(189.419576 255.166437)scale(0.1 -0.1)">
       <defs>
        <path id="DejaVuSans-36" d="M 2113 2584 
Q 1688 2584 1439 2293 
Q 1191 2003 1191 1497 
Q 1191 994 1439 701 
Q 1688 409 2113 409 
Q 2538 409 2786 701 
Q 3034 994 3034 1497 
Q 3034 2003 2786 2293 
Q 2538 2584 2113 2584 
z
M 3366 4563 
L 3366 3988 
Q 3128 4100 2886 4159 
Q 2644 4219 2406 4219 
Q 1781 4219 1451 3797 
Q 1122 3375 1075 2522 
Q 1259 2794 1537 2939 
Q 1816 3084 2150 3084 
Q 2853 3084 3261 2657 
Q 3669 2231 3669 1497 
Q 3669 778 3244 343 
Q 2819 -91 2113 -91 
Q 1303 -91 875 529 
Q 447 1150 447 2328 
Q 447 3434 972 4092 
Q 1497 4750 2381 4750 
Q 2619 4750 2861 4703 
Q 3103 4656 3366 4563 
z
" transform="scale(0.015625)"/>
       </defs>
       <use xlink:href="#DejaVuSans-36"/>
      </g>
     </g>
    </g>
    <g id="xtick_6">
     <g id="line2d_6">
      <g>
       <use xlink:href="#mbed79e0033" x="145.800737" y="239.068" style="stroke: #000000; stroke-width: 1.3"/>
      </g>
     </g>
     <g id="text_6">
      <!-- 8 -->
      <g transform="translate(142.619487 255.166437)scale(0.1 -0.1)">
       <defs>
        <path id="DejaVuSans-38" d="M 2034 2216 
Q 1584 2216 1326 1975 
Q 1069 1734 1069 1313 
Q 1069 891 1326 650 
Q 1584 409 2034 409 
Q 2484 409 2743 651 
Q 3003 894 3003 1313 
Q 3003 1734 2745 1975 
Q 2488 2216 2034 2216 
z
M 1403 2484 
Q 997 2584 770 2862 
Q 544 3141 544 3541 
Q 544 4100 942 4425 
Q 1341 4750 2034 4750 
Q 2731 4750 3128 4425 
Q 3525 4100 3525 3541 
Q 3525 3141 3298 2862 
Q 3072 2584 2669 2484 
Q 3125 2378 3379 2068 
Q 3634 1759 3634 1313 
Q 3634 634 3220 271 
Q 2806 -91 2034 -91 
Q 1263 -91 848 271 
Q 434 634 434 1313 
Q 434 1759 690 2068 
Q 947 2378 1403 2484 
z
M 1172 3481 
Q 1172 3119 1398 2916 
Q 1625 2713 2034 2713 
Q 2441 2713 2670 2916 
Q 2900 3119 2900 3481 
Q 2900 3844 2670 4047 
Q 2441 4250 2034 4250 
Q 1625 4250 1398 4047 
Q 1172 3844 1172 3481 
z
" transform="scale(0.015625)"/>
       </defs>
       <use xlink:href="#DejaVuSans-38"/>
      </g>
     </g>
    </g>
    <g id="xtick_7">
     <g id="line2d_7">
      <g>
       <use xlink:href="#mbed79e0033" x="99.000648" y="239.068" style="stroke: #000000; stroke-width: 1.3"/>
      </g>
     </g>
     <g id="text_7">
      <!-- 10 -->
      <g transform="translate(92.638148 255.166437)scale(0.1 -0.1)">
       <defs>
        <path id="DejaVuSans-31" d="M 794 531 
L 1825 531 
L 1825 4091 
L 703 3866 
L 703 4441 
L 1819 4666 
L 2450 4666 
L 2450 531 
L 3481 531 
L 3481 0 
L 794 0 
L 794 531 
z
" transform="scale(0.015625)"/>
       </defs>
       <use xlink:href="#DejaVuSans-31"/>
       <use xlink:href="#DejaVuSans-30" x="63.623047"/>
      </g>
     </g>
    </g>
    <g id="xtick_8">
     <g id="line2d_8">
      <g>
       <use xlink:href="#mbed79e0033" x="52.200559" y="239.068" style="stroke: #000000; stroke-width: 1.3"/>
      </g>
     </g>
     <g id="text_8">
      <!-- 12 -->
      <g transform="translate(45.838059 255.166437)scale(0.1 -0.1)">
       <use xlink:href="#DejaVuSans-31"/>
       <use xlink:href="#DejaVuSans-32" x="63.623047"/>
      </g>
     </g>
    </g>
    <g id="xtick_9">
     <g id="line2d_9">
      <defs>
       <path id="m53087c53ef" d="M 0 0 
L 0 3 
" style="stroke: #000000; stroke-width: 1.3"/>
      </defs>
      <g>
       <use xlink:href="#m53087c53ef" x="414.901249" y="239.068" style="stroke: #000000; stroke-width: 1.3"/>
      </g>
     </g>
    </g>
    <g id="xtick_10">
     <g id="line2d_10">
      <g>
       <use xlink:href="#m53087c53ef" x="403.201227" y="239.068" style="stroke: #000000; stroke-width: 1.3"/>
      </g>
     </g>
    </g>
    <g id="xtick_11">
     <g id="line2d_11">
      <g>
       <use xlink:href="#m53087c53ef" x="391.501204" y="239.068" style="stroke: #000000; stroke-width: 1.3"/>
      </g>
     </g>
    </g>
    <g id="xtick_12">
     <g id="line2d_12">
      <g>
       <use xlink:href="#m53087c53ef" x="368.10116" y="239.068" style="stroke: #000000; stroke-width: 1.3"/>
      </g>
     </g>
    </g>
    <g id="xtick_13">
     <g id="line2d_13">
      <g>
       <use xlink:href="#m53087c53ef" x="356.401138" y="239.068" style="stroke: #000000; stroke-width: 1.3"/>
      </g>
     </g>
    </g>
    <g id="xtick_14">
     <g id="line2d_14">
      <g>
       <use xlink:href="#m53087c53ef" x="344.701115" y="239.068" style="stroke: #000000; stroke-width: 1.3"/>
      </g>
     </g>
    </g>
    <g id="xtick_15">
     <g id="line2d_15">
      <g>
       <use xlink:href="#m53087c53ef" x="321.301071" y="239.068" style="stroke: #000000; stroke-width: 1.3"/>
      </g>
     </g>
    </g>
    <g id="xtick_16">
     <g id="line2d_16">
      <g>
       <use xlink:href="#m53087c53ef" x="309.601049" y="239.068" style="stroke: #000000; stroke-width: 1.3"/>
      </g>
     </g>
    </g>
    <g id="xtick_17">
     <g id="line2d_17">
      <g>
       <use xlink:href="#m53087c53ef" x="297.901026" y="239.068" style="stroke: #000000; stroke-width: 1.3"/>
      </g>
     </g>
    </g>
    <g id="xtick_18">
     <g id="line2d_18">
      <g>
       <use xlink:href="#m53087c53ef" x="274.500982" y="239.068" style="stroke: #000000; stroke-width: 1.3"/>
      </g>
     </g>
    </g>
    <g id="xtick_19">
     <g id="line2d_19">
      <g>
       <use xlink:href="#m53087c53ef" x="262.800959" y="239.068" style="stroke: #000000; stroke-width: 1.3"/>
      </g>
     </g>
    </g>
    <g id="xtick_20">
     <g id="line2d_20">
      <g>
       <use xlink:href="#m53087c53ef" x="251.100937" y="239.068" style="stroke: #000000; stroke-width: 1.3"/>
      </g>
     </g>
    </g>
    <g id="xtick_21">
     <g id="line2d_21">
      <g>
       <use xlink:href="#m53087c53ef" x="227.700893" y="239.068" style="stroke: #000000; stroke-width: 1.3"/>
      </g>
     </g>
    </g>
    <g id="xtick_22">
     <g id="line2d_22">
      <g>
       <use xlink:href="#m53087c53ef" x="216.00087" y="239.068" style="stroke: #000000; stroke-width: 1.3"/>
      </g>
     </g>
    </g>
    <g id="xtick_23">
     <g id="line2d_23">
      <g>
       <use xlink:href="#m53087c53ef" x="204.300848" y="239.068" style="stroke: #000000; stroke-width: 1.3"/>
      </g>
     </g>
    </g>
    <g id="xtick_24">
     <g id="line2d_24">
      <g>
       <use xlink:href="#m53087c53ef" x="180.900804" y="239.068" style="stroke: #000000; stroke-width: 1.3"/>
      </g>
     </g>
    </g>
    <g id="xtick_25">
     <g id="line2d_25">
      <g>
       <use xlink:href="#m53087c53ef" x="169.200781" y="239.068" style="stroke: #000000; stroke-width: 1.3"/>
      </g>
     </g>
    </g>
    <g id="xtick_26">
     <g id="line2d_26">
      <g>
       <use xlink:href="#m53087c53ef" x="157.500759" y="239.068" style="stroke: #000000; stroke-width: 1.3"/>
      </g>
     </g>
    </g>
    <g id="xtick_27">
     <g id="line2d_27">
      <g>
       <use xlink:href="#m53087c53ef" x="134.100715" y="239.068" style="stroke: #000000; stroke-width: 1.3"/>
      </g>
     </g>
    </g>
    <g id="xtick_28">
     <g id="line2d_28">
      <g>
       <use xlink:href="#m53087c53ef" x="122.400692" y="239.068" style="stroke: #000000; stroke-width: 1.3"/>
      </g>
     </g>
    </g>
    <g id="xtick_29">
     <g id="line2d_29">
      <g>
       <use xlink:href="#m53087c53ef" x="110.70067" y="239.068" style="stroke: #000000; stroke-width: 1.3"/>
      </g>
     </g>
    </g>
    <g id="xtick_30">
     <g id="line2d_30">
      <g>
       <use xlink:href="#m53087c53ef" x="87.300626" y="239.068" style="stroke: #000000; stroke-width: 1.3"/>
      </g>
     </g>
    </g>
    <g id="xtick_31">
     <g id="line2d_31">
      <g>
       <use xlink:href="#m53087c53ef" x="75.600603" y="239.068" style="stroke: #000000; stroke-width: 1.3"/>
      </g>
     </g>
    </g>
    <g id="xtick_32">
     <g id="line2d_32">
      <g>
       <use xlink:href="#m53087c53ef" x="63.900581" y="239.068" style="stroke: #000000; stroke-width: 1.3"/>
      </g>
     </g>
    </g>
    <g id="xtick_33">
     <g id="line2d_33">
      <g>
       <use xlink:href="#m53087c53ef" x="40.500536" y="239.068" style="stroke: #000000; stroke-width: 1.3"/>
      </g>
     </g>
    </g>
    <g id="xtick_34">
     <g id="line2d_34">
      <g>
       <use xlink:href="#m53087c53ef" x="28.800514" y="239.068" style="stroke: #000000; stroke-width: 1.3"/>
      </g>
     </g>
    </g>
    <g id="xtick_35">
     <g id="line2d_35">
      <g>
       <use xlink:href="#m53087c53ef" x="17.100492" y="239.068" style="stroke: #000000; stroke-width: 1.3"/>
      </g>
     </g>
    </g>
    <g id="text_9">
     <!-- $\rm ^{1}H$ (ppm) -->
     <g transform="translate(193.1 270.246125)scale(0.1 -0.1)">
      <defs>
       <path id="DejaVuSans-48" d="M 628 4666 
L 1259 4666 
L 1259 2753 
L 3553 2753 
L 3553 4666 
L 4184 4666 
L 4184 0 
L 3553 0 
L 3553 2222 
L 1259 2222 
L 1259 0 
L 628 0 
L 628 4666 
z
" transform="scale(0.015625)"/>
       <path id="DejaVuSans-20" transform="scale(0.015625)"/>
       <path id="DejaVuSans-28" d="M 1984 4856 
Q 1566 4138 1362 3434 
Q 1159 2731 1159 2009 
Q 1159 1288 1364 580 
Q 1569 -128 1984 -844 
L 1484 -844 
Q 1016 -109 783 600 
Q 550 1309 550 2009 
Q 550 2706 781 3412 
Q 1013 4119 1484 4856 
L 1984 4856 
z
" transform="scale(0.015625)"/>
       <path id="DejaVuSans-70" d="M 1159 525 
L 1159 -1331 
L 581 -1331 
L 581 3500 
L 1159 3500 
L 1159 2969 
Q 1341 3281 1617 3432 
Q 1894 3584 2278 3584 
Q 2916 3584 3314 3078 
Q 3713 2572 3713 1747 
Q 3713 922 3314 415 
Q 2916 -91 2278 -91 
Q 1894 -91 1617 61 
Q 1341 213 1159 525 
z
M 3116 1747 
Q 3116 2381 2855 2742 
Q 2594 3103 2138 3103 
Q 1681 3103 1420 2742 
Q 1159 2381 1159 1747 
Q 1159 1113 1420 752 
Q 1681 391 2138 391 
Q 2594 391 2855 752 
Q 3116 1113 3116 1747 
z
" transform="scale(0.015625)"/>
       <path id="DejaVuSans-6d" d="M 3328 2828 
Q 3544 3216 3844 3400 
Q 4144 3584 4550 3584 
Q 5097 3584 5394 3201 
Q 5691 2819 5691 2113 
L 5691 0 
L 5113 0 
L 5113 2094 
Q 5113 2597 4934 2840 
Q 4756 3084 4391 3084 
Q 3944 3084 3684 2787 
Q 3425 2491 3425 1978 
L 3425 0 
L 2847 0 
L 2847 2094 
Q 2847 2600 2669 2842 
Q 2491 3084 2119 3084 
Q 1678 3084 1418 2786 
Q 1159 2488 1159 1978 
L 1159 0 
L 581 0 
L 581 3500 
L 1159 3500 
L 1159 2956 
Q 1356 3278 1631 3431 
Q 1906 3584 2284 3584 
Q 2666 3584 2933 3390 
Q 3200 3197 3328 2828 
z
" transform="scale(0.015625)"/>
       <path id="DejaVuSans-29" d="M 513 4856 
L 1013 4856 
Q 1481 4119 1714 3412 
Q 1947 2706 1947 2009 
Q 1947 1309 1714 600 
Q 1481 -109 1013 -844 
L 513 -844 
Q 928 -128 1133 580 
Q 1338 1288 1338 2009 
Q 1338 2731 1133 3434 
Q 928 4138 513 4856 
z
" transform="scale(0.015625)"/>
      </defs>
      <use xlink:href="#DejaVuSans-31" transform="translate(0.957031 38.965625)scale(0.7)"/>
      <use xlink:href="#DejaVuSans-48" transform="translate(48.227539 0.684375)"/>
      <use xlink:href="#DejaVuSans-20" transform="translate(123.422852 0.684375)"/>
      <use xlink:href="#DejaVuSans-28" transform="translate(155.209961 0.684375)"/>
      <use xlink:href="#DejaVuSans-70" transform="translate(194.223633 0.684375)"/>
      <use xlink:href="#DejaVuSans-70" transform="translate(257.700195 0.684375)"/>
      <use xlink:href="#DejaVuSans-6d" transform="translate(321.176758 0.684375)"/>
      <use xlink:href="#DejaVuSans-29" transform="translate(418.588867 0.684375)"/>
     </g>
    </g>
   </g>
   <g id="matplotlib.axis_2"/>
   <g id="line2d_36">
    <path d="M 29.454545 228.308728 
L 30.456514 228.309611 
L 33.194848 228.308257 
L 33.735683 228.309683 
L 35.955954 228.309312 
L 36.354464 228.307831 
L 37.367819 228.309035 
L 37.880189 228.308547 
L 38.529191 228.310395 
L 39.035868 228.30928 
L 39.36037 228.309326 
L 39.741801 228.308 
L 41.552175 228.308499 
L 42.019002 228.311313 
L 44.159571 228.309993 
L 44.495458 228.311821 
L 48.304076 228.30842 
L 49.300352 228.308226 
L 49.715941 228.310177 
L 50.456031 228.309025 
L 52.681995 228.308323 
L 53.063426 228.31145 
L 54.43544 228.308551 
L 54.685932 228.309208 
L 60.299232 228.309659 
L 60.640812 228.310868 
L 61.210113 228.308098 
L 61.65986 228.307723 
L 62.51381 228.308477 
L 63.510086 228.312116 
L 64.625914 228.310084 
L 66.675395 228.309378 
L 71.076086 228.312062 
L 71.668158 228.309618 
L 72.362704 228.310265 
L 73.267892 228.311097 
L 131.524385 228.307377 
L 132.070913 228.309118 
L 133.266443 228.311027 
L 133.499856 228.306432 
L 133.738963 228.310308 
L 134.387965 228.309125 
L 134.866177 228.30986 
L 135.219143 228.310802 
L 135.583495 228.307675 
L 138.760191 228.309781 
L 139.141622 228.310136 
L 139.534439 228.309014 
L 142.625739 228.307972 
L 143.149495 228.309871 
L 143.451225 228.307923 
L 144.663834 228.313883 
L 144.988335 228.307004 
L 145.785356 228.309246 
L 174.967686 228.281208 
L 175.406047 228.2699 
L 175.833022 228.294471 
L 176.812218 228.222964 
L 176.914692 228.149676 
L 176.965929 228.19123 
L 177.091175 228.134242 
L 177.36444 227.831084 
L 177.472607 227.237645 
L 177.552309 225.485719 
L 177.666169 216.832078 
L 177.70602 221.768172 
L 177.745871 223.819508 
L 177.797108 219.896033 
L 177.842652 205.762325 
L 177.922354 213.905739 
L 177.99067 224.527847 
L 178.0476 220.224173 
L 178.076065 217.395195 
L 178.144381 220.572441 
L 178.286706 228.071011 
L 178.440417 228.259558 
L 178.759225 228.310355 
L 179.066647 228.324881 
L 179.960449 228.305598 
L 180.250792 228.272467 
L 180.546828 228.196053 
L 180.649302 228.280217 
L 181.121821 228.309741 
L 181.884683 228.300652 
L 182.192106 228.304809 
L 197.648607 228.251791 
L 198.684733 227.68889 
L 198.872602 226.870843 
L 198.992155 225.326982 
L 199.09463 220.339785 
L 199.174332 213.149824 
L 199.231262 217.186466 
L 199.271113 218.727397 
L 199.32235 216.506632 
L 199.367894 213.320213 
L 199.419131 217.481486 
L 199.601307 226.841371 
L 199.800562 227.834041 
L 200.107984 228.151556 
L 200.386941 228.232814 
L 200.768372 228.241501 
L 201.37183 228.276156 
L 202.436422 228.289258 
L 202.766616 228.295416 
L 203.38146 228.301037 
L 203.734426 228.299423 
L 204.144323 228.304423 
L 204.520061 228.305835 
L 205.914846 228.304202 
L 207.007903 228.283648 
L 207.890318 228.296193 
L 208.442539 228.293009 
L 211.790025 228.244113 
L 212.114526 228.226638 
L 213.520697 227.891363 
L 213.862278 227.505935 
L 214.084305 226.984887 
L 214.323411 225.730553 
L 214.733307 222.217238 
L 214.818702 222.560291 
L 215.558792 227.402865 
L 215.951609 227.862427 
L 216.646156 228.068761 
L 217.329316 227.815507 
L 217.454562 227.429582 
L 217.551343 226.359619 
L 217.65951 221.133631 
L 217.898616 211.53853 
L 217.921388 212.102177 
L 218.359749 228.02775 
L 218.564698 228.164783 
L 218.781032 228.201078 
L 219.122612 228.137073 
L 219.225086 228.024611 
L 219.293402 228.081601 
L 219.458499 228.060958 
L 219.595131 227.832895 
L 219.95379 226.493284 
L 220.039185 223.584252 
L 220.101808 209.828435 
L 220.164431 189.035216 
L 220.232747 201.726235 
L 220.397844 227.29149 
L 220.58002 228.081637 
L 220.790661 228.124219 
L 221.365655 228.247406 
L 222.151289 228.21051 
L 222.344851 228.260181 
L 222.714896 228.196167 
L 222.828756 228.078477 
L 222.879993 228.142882 
L 223.10202 228.25351 
L 223.790874 228.028531 
L 223.97305 227.965392 
L 224.08691 227.867961 
L 224.303244 227.023861 
L 224.405718 225.31599 
L 224.468341 219.883094 
L 224.570815 188.849558 
L 224.639131 204.624452 
L 224.809921 227.416591 
L 224.99779 228.173757 
L 225.157194 228.184247 
L 225.424765 228.244108 
L 225.595555 228.355092 
L 225.635406 228.300925 
L 225.823276 228.253677 
L 227.144052 228.16899 
L 227.269298 228.027017 
L 227.297763 228.116577 
L 227.411623 228.242355 
L 227.440088 228.221945 
L 227.605185 228.170423 
L 227.764589 228.235176 
L 227.793054 228.197388 
L 227.884142 228.263454 
L 228.481908 228.26268 
L 229.47249 227.83142 
L 229.592043 227.21909 
L 229.666052 225.638634 
L 229.711596 217.907034 
L 229.740061 204.447271 
L 229.802684 224.874547 
L 229.836842 225.855397 
L 229.893772 223.674321 
L 229.945009 202.06217 
L 230.001939 223.467224 
L 230.007632 223.60618 
L 230.030404 221.702017 
L 230.075948 199.645436 
L 230.127185 224.430433 
L 230.167036 226.059549 
L 230.223966 223.706841 
L 230.275203 204.24238 
L 230.32644 224.538825 
L 230.463072 228.054863 
L 230.594012 228.15329 
L 230.781881 228.193847 
L 232.227903 228.218524 
L 232.478395 228.198316 
L 232.666264 228.096512 
L 232.683343 228.139776 
L 232.79151 228.20756 
L 232.814282 228.195959 
L 232.871212 228.107678 
L 232.962301 228.211904 
L 233.326653 228.209466 
L 233.708084 228.181009 
L 234.106594 228.139238 
L 234.829605 227.937564 
L 235.211036 227.654585 
L 235.478608 227.235856 
L 235.746179 226.250472 
L 236.292707 223.387164 
L 236.366716 223.524709 
L 236.520427 224.391758 
L 236.987253 227.011412 
L 237.26621 227.486653 
L 237.277596 227.477268 
L 237.294675 227.481897 
L 237.328833 227.5749 
L 237.516702 227.727019 
L 237.533781 227.693998 
L 237.624869 227.680268 
L 237.585018 227.720948 
L 237.641948 227.712842 
L 237.767194 227.719436 
L 237.772887 227.714154 
L 238.011994 227.223907 
L 238.103082 226.019757 
L 238.165705 221.533123 
L 238.211249 200.09779 
L 238.302337 212.451329 
L 238.404811 226.358859 
L 238.433276 226.098396 
L 238.495899 222.599701 
L 238.547136 202.133648 
L 238.632531 213.991101 
L 238.76347 227.75604 
L 238.951339 228.151206 
L 239.093664 228.161693 
L 239.423858 228.197029 
L 240.454292 228.209492 
L 240.682012 228.209858 
L 240.790179 228.166686 
L 240.795872 228.156918 
L 240.909732 228.031604 
L 240.94389 228.087987 
L 241.103294 228.187843 
L 241.108987 228.184533 
L 241.239926 228.118518 
L 241.274084 228.193793 
L 241.422102 228.216953 
L 242.31021 228.004164 
L 242.560702 227.467871 
L 242.663177 226.490238 
L 242.748572 222.964583 
L 242.822581 205.491534 
L 242.83966 203.241683 
L 242.885204 215.582509 
L 243.016143 225.561957 
L 243.033222 225.514537 
L 243.090152 224.170033 
L 243.152775 216.575103 
L 243.204012 201.775372 
L 243.255249 216.342495 
L 243.403267 227.220142 
L 243.596829 228.086821 
L 243.824549 228.256258 
L 244.951763 228.265792 
L 245.276265 228.216446 
L 245.492599 228.246314 
L 245.811407 228.271237 
L 247.525001 228.275293 
L 248.378951 228.278259 
L 249.403691 228.269887 
L 249.887596 228.259897 
L 250.508134 228.243685 
L 251.504409 228.212865 
L 251.823217 228.164863 
L 252.204648 227.895253 
L 252.238806 227.687629 
L 252.295736 228.020857 
L 252.35836 228.075487 
L 252.403904 228.020778 
L 252.47222 227.679012 
L 252.523457 228.018087 
L 252.620238 228.097806 
L 252.654396 228.07494 
L 252.705633 227.973822 
L 252.773949 228.088274 
L 253.075678 228.081239 
L 254.089032 227.552576 
L 254.390761 227.108874 
L 254.720955 226.049241 
L 255.193475 223.177497 
L 255.313028 223.462267 
L 255.56352 225.30902 
L 255.842477 226.474453 
L 255.922179 226.520737 
L 255.967723 226.454338 
L 256.104355 225.773817 
L 256.201136 223.556803 
L 256.320689 213.89136 
L 256.349154 212.500686 
L 256.400391 215.559358 
L 256.537023 222.925183 
L 256.576874 222.314547 
L 256.667962 216.122063 
L 256.719199 213.119301 
L 256.770436 216.503506 
L 256.907068 223.872357 
L 256.946919 223.274839 
L 257.049393 217.586034 
L 257.117709 220.865846 
L 257.146174 221.414407 
L 257.191719 219.922172 
L 257.260035 216.552309 
L 257.328351 218.133858 
L 257.351123 218.020992 
L 257.373895 217.894487 
L 257.408053 218.447585 
L 257.493448 221.378347 
L 257.544685 219.537731 
L 257.578843 218.426338 
L 257.624387 220.905475 
L 257.806563 227.268927 
L 258.034283 228.010311 
L 258.290468 228.172132 
L 259.246892 228.201392 
L 259.588473 228.201395 
L 259.969904 228.21529 
L 260.260247 228.264094 
L 262.924572 228.303834 
L 266.716111 228.307129 
L 267.023534 228.30969 
L 267.644071 228.304513 
L 268.099511 228.306196 
L 268.361389 228.307974 
L 269.380437 228.30584 
L 269.733403 228.308081 
L 272.016297 228.173409 
L 272.170008 228.185374 
L 272.454658 228.240341 
L 272.824703 228.176659 
L 273.411082 227.63303 
L 273.50217 226.794757 
L 273.690039 222.712003 
L 273.724197 223.946153 
L 273.746969 224.57763 
L 273.803899 223.115974 
L 273.826671 223.577059 
L 273.855136 224.398322 
L 273.906373 222.65392 
L 273.917759 222.53979 
L 273.946224 223.689022 
L 273.997461 225.457522 
L 274.054391 223.938393 
L 274.247954 212.574623 
L 274.282112 215.496542 
L 274.287805 215.747282 
L 274.31627 212.996788 
L 274.327656 212.01473 
L 274.395972 216.15335 
L 274.566762 226.026034 
L 274.60092 226.314937 
L 274.652157 225.715106 
L 274.71478 220.474643 
L 274.743245 218.395345 
L 274.794482 223.2394 
L 274.851412 225.602668 
L 274.908342 224.160111 
L 274.976658 217.628409 
L 275.039281 222.287729 
L 275.044974 222.318658 
L 275.05636 221.961029 
L 275.107597 217.919058 
L 275.153141 222.029495 
L 275.210071 225.108978 
L 275.261308 222.720111 
L 275.335317 217.012281 
L 275.380861 221.537601 
L 275.449177 225.954223 
L 275.506107 224.159986 
L 275.523186 223.873922 
L 275.56873 225.458893 
L 275.591502 225.852443 
L 275.631353 224.122383 
L 275.654125 223.227242 
L 275.705362 225.861584 
L 275.773678 227.278843 
L 275.824915 226.73108 
L 275.887538 223.724858 
L 275.938775 226.268187 
L 276.0811 228.087829 
L 276.257583 228.11739 
L 277.29371 228.158326 
L 277.589746 228.109469 
L 277.69222 228.03088 
L 277.988256 227.691397 
L 278.102116 227.091237 
L 278.176125 225.385125 
L 278.369687 216.213892 
L 278.403845 218.765113 
L 278.563249 225.721936 
L 278.460775 218.701212 
L 278.580328 225.573912 
L 278.631565 222.460861 
L 278.756811 215.579869 
L 278.790969 215.85256 
L 278.802355 215.749046 
L 278.819434 216.634862 
L 279.035769 227.643496 
L 279.212252 228.157482 
L 279.439972 228.233821 
L 280.681046 228.254045 
L 280.863222 228.245791 
L 281.073863 228.252062 
L 284.967877 228.28797 
L 285.212676 228.260297 
L 285.668116 228.215871 
L 286.681471 228.056643 
L 286.886419 227.739867 
L 286.9832 226.873669 
L 287.26785 222.143077 
L 287.290622 222.481007 
L 287.387403 225.684127 
L 287.444333 223.989328 
L 287.541114 217.910463 
L 287.603737 220.218449 
L 287.620816 220.433353 
L 287.660667 219.034066 
L 287.700518 217.591053 
L 287.746062 219.834375 
L 287.854229 225.945746 
L 287.905466 224.617417 
L 287.968089 222.682894 
L 288.030712 223.947616 
L 288.059177 224.23745 
L 288.104721 223.456171 
L 288.133186 223.114822 
L 288.173037 224.053399 
L 288.377985 227.90057 
L 288.554468 227.937104 
L 288.571547 227.913102 
L 288.759417 227.52771 
L 288.850505 226.74506 
L 288.918821 223.799237 
L 289.066839 214.986562 
L 289.118076 215.692249 
L 289.249015 224.241258 
L 289.323024 219.903277 
L 289.397033 215.677515 
L 289.465349 216.582219 
L 289.539358 221.300236 
L 289.715841 227.841039 
L 289.915096 228.138592 
L 290.085886 228.170191 
L 290.820283 228.078317 
L 291.048003 228.029522 
L 291.213101 227.944958 
L 291.497751 227.62203 
L 291.62869 226.981893 
L 291.697006 225.207027 
L 291.907647 218.18141 
L 291.924726 218.71448 
L 292.089823 222.289395 
L 292.129674 223.498584 
L 292.175218 221.504768 
L 292.351701 217.163684 
L 292.36878 217.947084 
L 292.585114 225.979519 
L 292.664816 226.800946 
L 292.716053 226.662517 
L 292.778676 225.660092 
L 292.949466 215.543963 
L 292.972238 213.245558 
L 293.029168 220.347698 
L 293.194265 225.138744 
L 293.091791 218.623115 
L 293.22273 224.622379 
L 293.501688 213.15921 
L 293.52446 215.589084 
L 293.689557 226.822778 
L 293.712329 226.862624 
L 293.757873 226.688784 
L 293.831882 224.917967 
L 293.928663 219.502788 
L 294.025444 221.696934 
L 294.042523 222.02305 
L 294.110839 224.698189 
L 294.173462 223.293742 
L 294.253164 216.774388 
L 294.423954 201.791196 
L 294.429647 201.993706 
L 294.509349 214.719749 
L 294.634595 210.870838 
L 294.651674 209.27695 
L 294.708604 215.266546 
L 294.71999 215.554046 
L 294.759841 213.308542 
L 294.771227 212.990004 
L 294.799692 216.623094 
L 294.959096 226.232894 
L 294.998947 225.882794 
L 295.021719 226.312349 
L 295.17543 227.822111 
L 295.425922 228.072527 
L 295.431615 228.06899 
L 295.608098 228.075643 
L 295.784581 228.119064 
L 296.166013 228.126657 
L 296.678383 228.133244 
L 297.207832 228.228328 
L 298.050396 228.264489 
L 300.310518 227.96274 
L 300.412992 227.50645 
L 300.481308 225.905793 
L 300.515466 224.625946 
L 300.583782 226.23905 
L 300.600861 226.117125 
L 300.657791 224.196262 
L 300.703335 226.146604 
L 300.771652 227.039079 
L 300.822889 226.699537 
L 300.891205 224.30145 
L 300.953828 217.241692 
L 301.016451 222.750802 
L 301.022144 222.822695 
L 301.044916 221.970337 
L 301.09046 217.072199 
L 301.141697 223.158278 
L 301.238478 226.441293 
L 301.278329 226.112632 
L 301.335259 223.484556 
L 301.392189 216.319447 
L 301.449119 222.683095 
L 301.460505 222.916495 
L 301.494663 220.766255 
L 301.528821 216.988056 
L 301.580058 223.655908 
L 301.699611 227.21765 
L 301.722383 227.169565 
L 301.77362 226.374302 
L 301.824857 223.733667 
L 301.88748 226.231417 
L 301.898866 226.306772 
L 301.933024 225.589215 
L 301.967182 224.450267 
L 302.012726 226.492151 
L 302.160744 228.04686 
L 302.377078 228.164241 
L 302.673114 228.120965 
L 303.009001 228.079257 
L 303.4986 227.779066 
L 303.55553 227.505465 
L 303.61246 227.771646 
L 303.640925 227.772308 
L 303.703548 227.718012 
L 303.823101 227.423187 
L 304.022356 225.576404 
L 304.107751 221.10924 
L 304.18176 223.569968 
L 304.204532 223.761924 
L 304.244383 222.908387 
L 304.381015 211.555197 
L 304.500568 200.309073 
L 304.517647 202.721747 
L 304.625814 220.149113 
L 304.677051 216.782831 
L 304.711209 215.308324 
L 304.773832 217.744781 
L 304.796604 216.377154 
L 304.92185 208.995267 
L 304.938929 210.715381 
L 305.041403 223.698814 
L 305.104026 222.7624 
L 305.143877 224.139397 
L 305.314667 227.499013 
L 305.360211 227.393559 
L 305.411448 226.842606 
L 305.445606 227.46422 
L 305.587932 228.024468 
L 305.838424 228.140208 
L 306.208469 228.079299 
L 306.356487 228.033191 
L 306.436189 227.742532 
L 306.47604 227.176282 
L 306.550049 227.689896 
L 306.754997 227.672892 
L 306.937173 227.126652 
L 307.04534 226.235104 
L 307.341376 213.942132 
L 307.403999 182.265773 
L 307.466622 21.175818 
L 307.517859 173.494158 
L 307.660184 224.486302 
L 307.848053 227.505866 
L 307.865132 227.635213 
L 307.893597 227.030786 
L 307.910676 226.571055 
L 307.984685 227.627082 
L 308.024537 227.675295 
L 308.075774 227.577422 
L 308.109932 227.386483 
L 308.14409 226.031007 
L 308.20102 227.842888 
L 308.31488 228.005048 
L 308.337652 227.947688 
L 308.377503 227.141454 
L 308.417354 228.173576 
L 308.457205 228.618369 
L 308.519828 228.122164 
L 308.605223 228.074976 
L 308.645074 228.107842 
L 308.992347 228.170566 
L 309.305462 228.173863 
L 309.470559 228.152796 
L 309.550261 227.944651 
L 309.612884 227.105906 
L 309.658428 227.882351 
L 309.806446 228.225254 
L 310.387132 228.259591 
L 310.871038 228.169328 
L 310.905196 228.126518 
L 310.962126 228.235683 
L 311.144302 228.262926 
L 315.243263 228.084388 
L 315.300194 227.759806 
L 315.351431 226.860977 
L 315.402668 227.84224 
L 315.544993 228.206874 
L 316.080135 228.099907 
L 316.307855 227.916995 
L 316.387557 227.147753 
L 316.444487 227.707804 
L 316.484338 227.847186 
L 316.569733 227.82747 
L 316.694979 227.779035 
L 316.814532 227.549316 
L 316.979629 226.078196 
L 317.241507 218.094747 
L 317.309823 196.593354 
L 317.372446 58.463436 
L 317.389525 38.515619 
L 317.435069 157.765843 
L 317.577394 224.82062 
L 317.753878 227.458812 
L 317.799422 227.867294 
L 317.884817 227.759867 
L 318.078379 228.006779 
L 318.340257 228.459131 
L 318.374415 228.692182 
L 318.425652 228.270594 
L 318.522433 228.111189 
L 318.556591 228.131707 
L 318.647679 228.054424 
L 318.738767 227.932232 
L 318.772925 228.050474 
L 318.920943 228.194771 
L 319.308067 228.195983 
L 319.421927 228.128921 
L 319.478857 227.720162 
L 319.518708 227.198328 
L 319.569945 227.931487 
L 319.71227 228.242882 
L 320.941959 228.280098 
L 321.220916 228.285515 
L 321.932541 228.29222 
L 356.631391 228.309862 
L 356.916041 228.311795 
L 358.077413 228.307761 
L 358.902899 228.311688 
L 359.233093 228.307526 
L 384.248145 228.311991 
L 385.107788 228.30811 
L 386.252082 228.314388 
L 386.85554 228.310649 
L 387.70949 228.307569 
L 388.090922 228.309317 
L 389.155513 228.309678 
L 398.890547 228.305229 
L 399.311829 228.305184 
L 399.755883 228.308683 
L 400.604141 228.305581 
L 400.996958 228.307304 
L 401.571951 228.305565 
L 402.266497 228.308017 
L 402.545455 228.305944 
L 402.545455 228.305944 
" clip-path="url(#p1522e970d1)" style="fill: none; stroke: #4c72b0; stroke-linecap: square"/>
   </g>
   <g id="patch_3">
    <path d="M 10.8 239.068 
L 421.2 239.068 
" style="fill: none; stroke: #000000; stroke-width: 1.3; stroke-linejoin: miter; stroke-linecap: square"/>
   </g>
  </g>
 </g>
 <defs>
  <clipPath id="p1522e970d1">
   <rect x="10.8" y="10.8" width="410.4" height="228.268"/>
  </clipPath>
 </defs>
</svg>
