<?xml version="1.0" encoding="utf-8" standalone="no"?>
<!DOCTYPE svg PUBLIC "-//W3C//DTD SVG 1.1//EN"
  "http://www.w3.org/Graphics/SVG/1.1/DTD/svg11.dtd">
<svg height="288pt" version="1.1" viewBox="0 0 432 288" width="432pt" xmlns="http://www.w3.org/2000/svg" xmlns:xlink="http://www.w3.org/1999/xlink">
 <metadata>
  <rdf:RDF xmlns:cc="http://creativecommons.org/ns#" xmlns:dc="http://purl.org/dc/elements/1.1/" xmlns:rdf="http://www.w3.org/1999/02/22-rdf-syntax-ns#">
   <cc:Work>
    <dc:type rdf:resource="http://purl.org/dc/dcmitype/StillImage"/>
    <dc:date>2021-06-14T10:33:56.787195</dc:date>
    <dc:format>image/svg+xml</dc:format>
    <dc:creator>
     <cc:Agent>
      <dc:title>Matplotlib v3.4.2, https://matplotlib.org/</dc:title>
     </cc:Agent>
    </dc:creator>
   </cc:Work>
  </rdf:RDF>
 </metadata>
 <defs>
  <style type="text/css">*{stroke-linecap:butt;stroke-linejoin:round;}</style>
 </defs>
 <g id="figure_1">
  <g id="patch_1">
   <path d="M 0 288 
L 432 288 
L 432 0 
L 0 0 
z
" style="fill:#ffffff;"/>
  </g>
  <g id="axes_1">
   <g id="patch_2">
    <path d="M 10.8 239.068 
L 421.2 239.068 
L 421.2 10.8 
L 10.8 10.8 
z
" style="fill:#ffffff;"/>
   </g>
   <g id="matplotlib.axis_1">
    <g id="xtick_1">
     <g id="line2d_1">
      <defs>
       <path d="M 0 0 
L 0 5 
" id="mf1c8281923" style="stroke:#000000;stroke-width:1.3;"/>
      </defs>
      <g>
       <use style="stroke:#000000;stroke-width:1.3;" x="379.801182" xlink:href="#mf1c8281923" y="239.068"/>
      </g>
     </g>
     <g id="text_1">
      <!-- −2 -->
      <g transform="translate(372.430088 255.166437)scale(0.1 -0.1)">
       <defs>
        <path d="M 678 2272 
L 4684 2272 
L 4684 1741 
L 678 1741 
L 678 2272 
z
" id="DejaVuSans-2212" transform="scale(0.015625)"/>
        <path d="M 1228 531 
L 3431 531 
L 3431 0 
L 469 0 
L 469 531 
Q 828 903 1448 1529 
Q 2069 2156 2228 2338 
Q 2531 2678 2651 2914 
Q 2772 3150 2772 3378 
Q 2772 3750 2511 3984 
Q 2250 4219 1831 4219 
Q 1534 4219 1204 4116 
Q 875 4013 500 3803 
L 500 4441 
Q 881 4594 1212 4672 
Q 1544 4750 1819 4750 
Q 2544 4750 2975 4387 
Q 3406 4025 3406 3419 
Q 3406 3131 3298 2873 
Q 3191 2616 2906 2266 
Q 2828 2175 2409 1742 
Q 1991 1309 1228 531 
z
" id="DejaVuSans-32" transform="scale(0.015625)"/>
       </defs>
       <use xlink:href="#DejaVuSans-2212"/>
       <use x="83.789062" xlink:href="#DejaVuSans-32"/>
      </g>
     </g>
    </g>
    <g id="xtick_2">
     <g id="line2d_2">
      <g>
       <use style="stroke:#000000;stroke-width:1.3;" x="333.001093" xlink:href="#mf1c8281923" y="239.068"/>
      </g>
     </g>
     <g id="text_2">
      <!-- 0 -->
      <g transform="translate(329.819843 255.166437)scale(0.1 -0.1)">
       <defs>
        <path d="M 2034 4250 
Q 1547 4250 1301 3770 
Q 1056 3291 1056 2328 
Q 1056 1369 1301 889 
Q 1547 409 2034 409 
Q 2525 409 2770 889 
Q 3016 1369 3016 2328 
Q 3016 3291 2770 3770 
Q 2525 4250 2034 4250 
z
M 2034 4750 
Q 2819 4750 3233 4129 
Q 3647 3509 3647 2328 
Q 3647 1150 3233 529 
Q 2819 -91 2034 -91 
Q 1250 -91 836 529 
Q 422 1150 422 2328 
Q 422 3509 836 4129 
Q 1250 4750 2034 4750 
z
" id="DejaVuSans-30" transform="scale(0.015625)"/>
       </defs>
       <use xlink:href="#DejaVuSans-30"/>
      </g>
     </g>
    </g>
    <g id="xtick_3">
     <g id="line2d_3">
      <g>
       <use style="stroke:#000000;stroke-width:1.3;" x="286.201004" xlink:href="#mf1c8281923" y="239.068"/>
      </g>
     </g>
     <g id="text_3">
      <!-- 2 -->
      <g transform="translate(283.019754 255.166437)scale(0.1 -0.1)">
       <use xlink:href="#DejaVuSans-32"/>
      </g>
     </g>
    </g>
    <g id="xtick_4">
     <g id="line2d_4">
      <g>
       <use style="stroke:#000000;stroke-width:1.3;" x="239.400915" xlink:href="#mf1c8281923" y="239.068"/>
      </g>
     </g>
     <g id="text_4">
      <!-- 4 -->
      <g transform="translate(236.219665 255.166437)scale(0.1 -0.1)">
       <defs>
        <path d="M 2419 4116 
L 825 1625 
L 2419 1625 
L 2419 4116 
z
M 2253 4666 
L 3047 4666 
L 3047 1625 
L 3713 1625 
L 3713 1100 
L 3047 1100 
L 3047 0 
L 2419 0 
L 2419 1100 
L 313 1100 
L 313 1709 
L 2253 4666 
z
" id="DejaVuSans-34" transform="scale(0.015625)"/>
       </defs>
       <use xlink:href="#DejaVuSans-34"/>
      </g>
     </g>
    </g>
    <g id="xtick_5">
     <g id="line2d_5">
      <g>
       <use style="stroke:#000000;stroke-width:1.3;" x="192.600826" xlink:href="#mf1c8281923" y="239.068"/>
      </g>
     </g>
     <g id="text_5">
      <!-- 6 -->
      <g transform="translate(189.419576 255.166437)scale(0.1 -0.1)">
       <defs>
        <path d="M 2113 2584 
Q 1688 2584 1439 2293 
Q 1191 2003 1191 1497 
Q 1191 994 1439 701 
Q 1688 409 2113 409 
Q 2538 409 2786 701 
Q 3034 994 3034 1497 
Q 3034 2003 2786 2293 
Q 2538 2584 2113 2584 
z
M 3366 4563 
L 3366 3988 
Q 3128 4100 2886 4159 
Q 2644 4219 2406 4219 
Q 1781 4219 1451 3797 
Q 1122 3375 1075 2522 
Q 1259 2794 1537 2939 
Q 1816 3084 2150 3084 
Q 2853 3084 3261 2657 
Q 3669 2231 3669 1497 
Q 3669 778 3244 343 
Q 2819 -91 2113 -91 
Q 1303 -91 875 529 
Q 447 1150 447 2328 
Q 447 3434 972 4092 
Q 1497 4750 2381 4750 
Q 2619 4750 2861 4703 
Q 3103 4656 3366 4563 
z
" id="DejaVuSans-36" transform="scale(0.015625)"/>
       </defs>
       <use xlink:href="#DejaVuSans-36"/>
      </g>
     </g>
    </g>
    <g id="xtick_6">
     <g id="line2d_6">
      <g>
       <use style="stroke:#000000;stroke-width:1.3;" x="145.800737" xlink:href="#mf1c8281923" y="239.068"/>
      </g>
     </g>
     <g id="text_6">
      <!-- 8 -->
      <g transform="translate(142.619487 255.166437)scale(0.1 -0.1)">
       <defs>
        <path d="M 2034 2216 
Q 1584 2216 1326 1975 
Q 1069 1734 1069 1313 
Q 1069 891 1326 650 
Q 1584 409 2034 409 
Q 2484 409 2743 651 
Q 3003 894 3003 1313 
Q 3003 1734 2745 1975 
Q 2488 2216 2034 2216 
z
M 1403 2484 
Q 997 2584 770 2862 
Q 544 3141 544 3541 
Q 544 4100 942 4425 
Q 1341 4750 2034 4750 
Q 2731 4750 3128 4425 
Q 3525 4100 3525 3541 
Q 3525 3141 3298 2862 
Q 3072 2584 2669 2484 
Q 3125 2378 3379 2068 
Q 3634 1759 3634 1313 
Q 3634 634 3220 271 
Q 2806 -91 2034 -91 
Q 1263 -91 848 271 
Q 434 634 434 1313 
Q 434 1759 690 2068 
Q 947 2378 1403 2484 
z
M 1172 3481 
Q 1172 3119 1398 2916 
Q 1625 2713 2034 2713 
Q 2441 2713 2670 2916 
Q 2900 3119 2900 3481 
Q 2900 3844 2670 4047 
Q 2441 4250 2034 4250 
Q 1625 4250 1398 4047 
Q 1172 3844 1172 3481 
z
" id="DejaVuSans-38" transform="scale(0.015625)"/>
       </defs>
       <use xlink:href="#DejaVuSans-38"/>
      </g>
     </g>
    </g>
    <g id="xtick_7">
     <g id="line2d_7">
      <g>
       <use style="stroke:#000000;stroke-width:1.3;" x="99.000648" xlink:href="#mf1c8281923" y="239.068"/>
      </g>
     </g>
     <g id="text_7">
      <!-- 10 -->
      <g transform="translate(92.638148 255.166437)scale(0.1 -0.1)">
       <defs>
        <path d="M 794 531 
L 1825 531 
L 1825 4091 
L 703 3866 
L 703 4441 
L 1819 4666 
L 2450 4666 
L 2450 531 
L 3481 531 
L 3481 0 
L 794 0 
L 794 531 
z
" id="DejaVuSans-31" transform="scale(0.015625)"/>
       </defs>
       <use xlink:href="#DejaVuSans-31"/>
       <use x="63.623047" xlink:href="#DejaVuSans-30"/>
      </g>
     </g>
    </g>
    <g id="xtick_8">
     <g id="line2d_8">
      <g>
       <use style="stroke:#000000;stroke-width:1.3;" x="52.200559" xlink:href="#mf1c8281923" y="239.068"/>
      </g>
     </g>
     <g id="text_8">
      <!-- 12 -->
      <g transform="translate(45.838059 255.166437)scale(0.1 -0.1)">
       <use xlink:href="#DejaVuSans-31"/>
       <use x="63.623047" xlink:href="#DejaVuSans-32"/>
      </g>
     </g>
    </g>
    <g id="xtick_9">
     <g id="line2d_9">
      <defs>
       <path d="M 0 0 
L 0 3 
" id="maee793afb4" style="stroke:#000000;stroke-width:1.3;"/>
      </defs>
      <g>
       <use style="stroke:#000000;stroke-width:1.3;" x="414.901249" xlink:href="#maee793afb4" y="239.068"/>
      </g>
     </g>
    </g>
    <g id="xtick_10">
     <g id="line2d_10">
      <g>
       <use style="stroke:#000000;stroke-width:1.3;" x="403.201227" xlink:href="#maee793afb4" y="239.068"/>
      </g>
     </g>
    </g>
    <g id="xtick_11">
     <g id="line2d_11">
      <g>
       <use style="stroke:#000000;stroke-width:1.3;" x="391.501204" xlink:href="#maee793afb4" y="239.068"/>
      </g>
     </g>
    </g>
    <g id="xtick_12">
     <g id="line2d_12">
      <g>
       <use style="stroke:#000000;stroke-width:1.3;" x="368.10116" xlink:href="#maee793afb4" y="239.068"/>
      </g>
     </g>
    </g>
    <g id="xtick_13">
     <g id="line2d_13">
      <g>
       <use style="stroke:#000000;stroke-width:1.3;" x="356.401138" xlink:href="#maee793afb4" y="239.068"/>
      </g>
     </g>
    </g>
    <g id="xtick_14">
     <g id="line2d_14">
      <g>
       <use style="stroke:#000000;stroke-width:1.3;" x="344.701115" xlink:href="#maee793afb4" y="239.068"/>
      </g>
     </g>
    </g>
    <g id="xtick_15">
     <g id="line2d_15">
      <g>
       <use style="stroke:#000000;stroke-width:1.3;" x="321.301071" xlink:href="#maee793afb4" y="239.068"/>
      </g>
     </g>
    </g>
    <g id="xtick_16">
     <g id="line2d_16">
      <g>
       <use style="stroke:#000000;stroke-width:1.3;" x="309.601049" xlink:href="#maee793afb4" y="239.068"/>
      </g>
     </g>
    </g>
    <g id="xtick_17">
     <g id="line2d_17">
      <g>
       <use style="stroke:#000000;stroke-width:1.3;" x="297.901026" xlink:href="#maee793afb4" y="239.068"/>
      </g>
     </g>
    </g>
    <g id="xtick_18">
     <g id="line2d_18">
      <g>
       <use style="stroke:#000000;stroke-width:1.3;" x="274.500982" xlink:href="#maee793afb4" y="239.068"/>
      </g>
     </g>
    </g>
    <g id="xtick_19">
     <g id="line2d_19">
      <g>
       <use style="stroke:#000000;stroke-width:1.3;" x="262.800959" xlink:href="#maee793afb4" y="239.068"/>
      </g>
     </g>
    </g>
    <g id="xtick_20">
     <g id="line2d_20">
      <g>
       <use style="stroke:#000000;stroke-width:1.3;" x="251.100937" xlink:href="#maee793afb4" y="239.068"/>
      </g>
     </g>
    </g>
    <g id="xtick_21">
     <g id="line2d_21">
      <g>
       <use style="stroke:#000000;stroke-width:1.3;" x="227.700893" xlink:href="#maee793afb4" y="239.068"/>
      </g>
     </g>
    </g>
    <g id="xtick_22">
     <g id="line2d_22">
      <g>
       <use style="stroke:#000000;stroke-width:1.3;" x="216.00087" xlink:href="#maee793afb4" y="239.068"/>
      </g>
     </g>
    </g>
    <g id="xtick_23">
     <g id="line2d_23">
      <g>
       <use style="stroke:#000000;stroke-width:1.3;" x="204.300848" xlink:href="#maee793afb4" y="239.068"/>
      </g>
     </g>
    </g>
    <g id="xtick_24">
     <g id="line2d_24">
      <g>
       <use style="stroke:#000000;stroke-width:1.3;" x="180.900804" xlink:href="#maee793afb4" y="239.068"/>
      </g>
     </g>
    </g>
    <g id="xtick_25">
     <g id="line2d_25">
      <g>
       <use style="stroke:#000000;stroke-width:1.3;" x="169.200781" xlink:href="#maee793afb4" y="239.068"/>
      </g>
     </g>
    </g>
    <g id="xtick_26">
     <g id="line2d_26">
      <g>
       <use style="stroke:#000000;stroke-width:1.3;" x="157.500759" xlink:href="#maee793afb4" y="239.068"/>
      </g>
     </g>
    </g>
    <g id="xtick_27">
     <g id="line2d_27">
      <g>
       <use style="stroke:#000000;stroke-width:1.3;" x="134.100715" xlink:href="#maee793afb4" y="239.068"/>
      </g>
     </g>
    </g>
    <g id="xtick_28">
     <g id="line2d_28">
      <g>
       <use style="stroke:#000000;stroke-width:1.3;" x="122.400692" xlink:href="#maee793afb4" y="239.068"/>
      </g>
     </g>
    </g>
    <g id="xtick_29">
     <g id="line2d_29">
      <g>
       <use style="stroke:#000000;stroke-width:1.3;" x="110.70067" xlink:href="#maee793afb4" y="239.068"/>
      </g>
     </g>
    </g>
    <g id="xtick_30">
     <g id="line2d_30">
      <g>
       <use style="stroke:#000000;stroke-width:1.3;" x="87.300626" xlink:href="#maee793afb4" y="239.068"/>
      </g>
     </g>
    </g>
    <g id="xtick_31">
     <g id="line2d_31">
      <g>
       <use style="stroke:#000000;stroke-width:1.3;" x="75.600603" xlink:href="#maee793afb4" y="239.068"/>
      </g>
     </g>
    </g>
    <g id="xtick_32">
     <g id="line2d_32">
      <g>
       <use style="stroke:#000000;stroke-width:1.3;" x="63.900581" xlink:href="#maee793afb4" y="239.068"/>
      </g>
     </g>
    </g>
    <g id="xtick_33">
     <g id="line2d_33">
      <g>
       <use style="stroke:#000000;stroke-width:1.3;" x="40.500536" xlink:href="#maee793afb4" y="239.068"/>
      </g>
     </g>
    </g>
    <g id="xtick_34">
     <g id="line2d_34">
      <g>
       <use style="stroke:#000000;stroke-width:1.3;" x="28.800514" xlink:href="#maee793afb4" y="239.068"/>
      </g>
     </g>
    </g>
    <g id="xtick_35">
     <g id="line2d_35">
      <g>
       <use style="stroke:#000000;stroke-width:1.3;" x="17.100492" xlink:href="#maee793afb4" y="239.068"/>
      </g>
     </g>
    </g>
    <g id="text_9">
     <!-- $\rm ^{1}H$ (ppm) -->
     <g transform="translate(193.1 270.246125)scale(0.1 -0.1)">
      <defs>
       <path d="M 628 4666 
L 1259 4666 
L 1259 2753 
L 3553 2753 
L 3553 4666 
L 4184 4666 
L 4184 0 
L 3553 0 
L 3553 2222 
L 1259 2222 
L 1259 0 
L 628 0 
L 628 4666 
z
" id="DejaVuSans-48" transform="scale(0.015625)"/>
       <path id="DejaVuSans-20" transform="scale(0.015625)"/>
       <path d="M 1984 4856 
Q 1566 4138 1362 3434 
Q 1159 2731 1159 2009 
Q 1159 1288 1364 580 
Q 1569 -128 1984 -844 
L 1484 -844 
Q 1016 -109 783 600 
Q 550 1309 550 2009 
Q 550 2706 781 3412 
Q 1013 4119 1484 4856 
L 1984 4856 
z
" id="DejaVuSans-28" transform="scale(0.015625)"/>
       <path d="M 1159 525 
L 1159 -1331 
L 581 -1331 
L 581 3500 
L 1159 3500 
L 1159 2969 
Q 1341 3281 1617 3432 
Q 1894 3584 2278 3584 
Q 2916 3584 3314 3078 
Q 3713 2572 3713 1747 
Q 3713 922 3314 415 
Q 2916 -91 2278 -91 
Q 1894 -91 1617 61 
Q 1341 213 1159 525 
z
M 3116 1747 
Q 3116 2381 2855 2742 
Q 2594 3103 2138 3103 
Q 1681 3103 1420 2742 
Q 1159 2381 1159 1747 
Q 1159 1113 1420 752 
Q 1681 391 2138 391 
Q 2594 391 2855 752 
Q 3116 1113 3116 1747 
z
" id="DejaVuSans-70" transform="scale(0.015625)"/>
       <path d="M 3328 2828 
Q 3544 3216 3844 3400 
Q 4144 3584 4550 3584 
Q 5097 3584 5394 3201 
Q 5691 2819 5691 2113 
L 5691 0 
L 5113 0 
L 5113 2094 
Q 5113 2597 4934 2840 
Q 4756 3084 4391 3084 
Q 3944 3084 3684 2787 
Q 3425 2491 3425 1978 
L 3425 0 
L 2847 0 
L 2847 2094 
Q 2847 2600 2669 2842 
Q 2491 3084 2119 3084 
Q 1678 3084 1418 2786 
Q 1159 2488 1159 1978 
L 1159 0 
L 581 0 
L 581 3500 
L 1159 3500 
L 1159 2956 
Q 1356 3278 1631 3431 
Q 1906 3584 2284 3584 
Q 2666 3584 2933 3390 
Q 3200 3197 3328 2828 
z
" id="DejaVuSans-6d" transform="scale(0.015625)"/>
       <path d="M 513 4856 
L 1013 4856 
Q 1481 4119 1714 3412 
Q 1947 2706 1947 2009 
Q 1947 1309 1714 600 
Q 1481 -109 1013 -844 
L 513 -844 
Q 928 -128 1133 580 
Q 1338 1288 1338 2009 
Q 1338 2731 1133 3434 
Q 928 4138 513 4856 
z
" id="DejaVuSans-29" transform="scale(0.015625)"/>
      </defs>
      <use transform="translate(0.957031 38.965625)scale(0.7)" xlink:href="#DejaVuSans-31"/>
      <use transform="translate(48.227539 0.684375)" xlink:href="#DejaVuSans-48"/>
      <use transform="translate(123.422852 0.684375)" xlink:href="#DejaVuSans-20"/>
      <use transform="translate(155.209961 0.684375)" xlink:href="#DejaVuSans-28"/>
      <use transform="translate(194.223633 0.684375)" xlink:href="#DejaVuSans-70"/>
      <use transform="translate(257.700195 0.684375)" xlink:href="#DejaVuSans-70"/>
      <use transform="translate(321.176758 0.684375)" xlink:href="#DejaVuSans-6d"/>
      <use transform="translate(418.588867 0.684375)" xlink:href="#DejaVuSans-29"/>
     </g>
    </g>
   </g>
   <g id="line2d_36">
    <path clip-path="url(#pa3ab76a51c)" d="M 29.454545 228.590752 
L 33.27455 228.590421 
L 34.504239 228.590666 
L 37.322275 228.590992 
L 40.886094 228.590681 
L 45.292478 228.590928 
L 104.402921 228.590472 
L 107.164028 228.590712 
L 109.037025 228.590313 
L 110.915716 228.590826 
L 112.008773 228.591354 
L 114.314439 228.590614 
L 115.971102 228.590681 
L 118.345084 228.591488 
L 176.83499 228.558426 
L 177.159491 228.535352 
L 177.415677 228.414989 
L 177.53523 228.036383 
L 177.586467 226.781471 
L 177.666169 225.554983 
L 177.694634 226.39058 
L 177.745871 227.403277 
L 177.797108 226.365451 
L 177.842652 222.626846 
L 177.922354 224.780917 
L 177.99067 227.590645 
L 178.0476 226.45225 
L 178.076065 225.703937 
L 178.144381 226.544373 
L 178.286706 228.527872 
L 178.474575 228.583203 
L 180.080002 228.589548 
L 181.526024 228.590907 
L 184.264358 228.591515 
L 187.68016 228.590978 
L 198.115433 228.551418 
L 198.7929 228.322049 
L 198.96369 227.947963 
L 199.071858 226.962303 
L 199.174332 224.580964 
L 199.242648 225.841354 
L 199.271113 226.056327 
L 199.32235 225.468897 
L 199.367894 224.626035 
L 199.419131 225.726763 
L 199.601307 228.202611 
L 199.811948 228.470248 
L 200.352783 228.570111 
L 202.094842 228.585649 
L 206.700481 228.587813 
L 211.630621 228.576429 
L 214.084305 228.240573 
L 214.357569 227.833927 
L 214.744693 226.981634 
L 214.813009 227.059353 
L 215.097659 227.838902 
L 215.393695 228.237641 
L 215.814977 228.450834 
L 216.822639 228.522212 
L 217.409018 228.409176 
L 217.539957 228.137543 
L 217.631045 227.139427 
L 217.898616 224.15475 
L 217.921388 224.303844 
L 218.359749 228.516428 
L 218.724102 228.561552 
L 219.743149 228.392522 
L 219.959483 228.086039 
L 220.044878 227.216158 
L 220.113194 222.734007 
L 220.164431 218.202241 
L 220.232747 221.559231 
L 220.397844 228.321675 
L 220.585713 228.53205 
L 221.257488 228.581493 
L 221.775551 228.577039 
L 224.069831 228.483176 
L 224.303244 228.250883 
L 224.405718 227.799122 
L 224.468341 226.362029 
L 224.570815 218.153132 
L 224.639131 222.325859 
L 224.809921 228.354766 
L 225.009176 228.557676 
L 226.83663 228.57977 
L 229.335858 228.495539 
L 229.660359 227.954983 
L 229.705903 226.441039 
L 229.740061 222.278991 
L 229.802684 227.682353 
L 229.842535 227.941544 
L 229.893772 227.364872 
L 229.945009 221.648092 
L 230.001939 227.310092 
L 230.007632 227.346848 
L 230.030404 226.843165 
L 230.075948 221.008825 
L 230.127185 227.564877 
L 230.167036 227.995806 
L 230.223966 227.373475 
L 230.275203 222.224794 
L 230.32644 227.593548 
L 230.463072 228.5236 
L 230.62817 228.557815 
L 231.345488 228.55869 
L 233.030617 228.566125 
L 235.216729 228.416214 
L 235.655091 228.164665 
L 236.150382 227.372116 
L 236.332558 227.301538 
L 236.497655 227.512002 
L 237.03849 228.28426 
L 237.476851 228.43404 
L 237.85259 228.407861 
L 238.086003 228.090847 
L 238.154319 227.246126 
L 238.199863 222.364077 
L 238.211249 221.12848 
L 238.245407 224.347327 
L 238.296644 223.229505 
L 238.404811 228.074978 
L 238.427583 228.031035 
L 238.490206 227.296948 
L 238.547136 221.666999 
L 238.638224 225.706366 
L 238.769163 228.452462 
L 238.985497 228.54409 
L 239.850833 228.56061 
L 242.128034 228.543894 
L 242.549316 228.380855 
L 242.663177 228.10973 
L 242.748572 227.177135 
L 242.822581 222.555217 
L 242.83966 221.960093 
L 242.885204 225.224451 
L 243.016143 227.864184 
L 243.033222 227.851641 
L 243.090152 227.495997 
L 243.152775 225.487009 
L 243.204012 221.572229 
L 243.255249 225.42548 
L 243.403267 228.302802 
L 243.608215 228.536575 
L 244.126278 228.579123 
L 244.655727 228.579305 
L 245.447055 228.575984 
L 246.813375 228.582743 
L 248.674987 228.580299 
L 251.111592 228.570012 
L 252.221727 228.443202 
L 252.238806 228.426461 
L 252.301429 228.518693 
L 252.432369 228.486225 
L 252.438062 228.476121 
L 252.47222 228.424181 
L 252.534843 228.522615 
L 252.802414 228.533487 
L 254.089032 228.390737 
L 254.57863 228.152257 
L 254.891746 227.71655 
L 255.244712 227.246172 
L 255.261791 227.257669 
L 255.415502 227.499211 
L 255.808319 228.088048 
L 256.013267 228.069523 
L 256.13282 227.818192 
L 256.235294 226.863129 
L 256.349154 224.409256 
L 256.411777 225.528102 
L 256.537023 227.166713 
L 256.576874 227.005189 
L 256.667962 225.367172 
L 256.719199 224.57289 
L 256.770436 225.46807 
L 256.907068 227.417256 
L 256.946919 227.259203 
L 257.049393 225.754417 
L 257.117709 226.621983 
L 257.146174 226.767087 
L 257.191719 226.372365 
L 257.260035 225.480979 
L 257.328351 225.899326 
L 257.408053 225.982312 
L 257.493448 226.757549 
L 257.544685 226.270674 
L 257.578843 225.976692 
L 257.624387 226.632466 
L 257.806563 228.315707 
L 258.057055 228.51865 
L 258.819917 228.552152 
L 259.907281 228.566901 
L 262.304035 228.588522 
L 267.524518 228.590869 
L 269.312121 228.590404 
L 273.240292 228.487068 
L 273.479398 228.287607 
L 273.542021 227.746962 
L 273.690039 227.110323 
L 273.724197 227.436777 
L 273.746969 227.603813 
L 273.803899 227.21718 
L 273.826671 227.339145 
L 273.855136 227.556383 
L 273.906373 227.094959 
L 273.917759 227.06477 
L 273.946224 227.368761 
L 273.997461 227.836559 
L 274.054391 227.434724 
L 274.247954 224.428814 
L 274.282112 225.201711 
L 274.287805 225.268036 
L 274.321963 224.367387 
L 274.327656 224.280713 
L 274.384586 224.905414 
L 274.572455 228.011913 
L 274.606613 228.062535 
L 274.652157 227.904695 
L 274.71478 226.518503 
L 274.743245 225.968494 
L 274.794482 227.249829 
L 274.851412 227.874953 
L 274.908342 227.493372 
L 274.976658 225.765626 
L 275.044974 227.006277 
L 275.079132 226.368231 
L 275.107597 225.842508 
L 275.158834 227.113565 
L 275.210071 227.744364 
L 275.261308 227.112468 
L 275.335317 225.60265 
L 275.380861 226.799674 
L 275.449177 227.967945 
L 275.506107 227.493339 
L 275.523186 227.41767 
L 275.56873 227.836922 
L 275.591502 227.941023 
L 275.631353 227.483393 
L 275.654125 227.246612 
L 275.705362 227.943441 
L 275.773678 228.31833 
L 275.824915 228.173437 
L 275.887538 227.37824 
L 275.938775 228.050994 
L 276.0811 228.53232 
L 276.513768 228.544124 
L 276.997674 228.569106 
L 277.640983 228.533405 
L 278.09073 228.295248 
L 278.170432 227.889254 
L 278.369687 225.391462 
L 278.409538 226.215189 
L 278.563249 227.906501 
L 278.460775 226.049401 
L 278.597407 227.748875 
L 278.756811 225.223753 
L 278.847899 226.200577 
L 279.212252 228.550745 
L 279.75878 228.585816 
L 283.920365 228.589255 
L 285.582721 228.568196 
L 286.35697 228.553747 
L 286.886419 228.440278 
L 286.988893 228.179241 
L 287.26785 226.959832 
L 287.284929 227.010341 
L 287.387403 227.8965 
L 287.444333 227.448197 
L 287.541114 225.840234 
L 287.603737 226.450736 
L 287.620816 226.507582 
L 287.660667 226.137446 
L 287.700518 225.755745 
L 287.746062 226.349142 
L 287.854229 227.965703 
L 287.905466 227.614337 
L 287.968089 227.102623 
L 288.030712 227.437164 
L 288.059177 227.51383 
L 288.110414 227.276033 
L 288.133186 227.216875 
L 288.173037 227.465145 
L 288.377985 228.482787 
L 288.696794 228.435903 
L 288.839119 228.224165 
L 288.913128 227.515907 
L 289.066839 225.066813 
L 289.123769 225.319593 
L 289.249015 227.514837 
L 289.317331 226.507952 
L 289.397033 225.249582 
L 289.465349 225.488891 
L 289.539358 226.736887 
L 289.715841 228.46704 
L 289.972026 228.555824 
L 290.837362 228.525987 
L 291.640076 228.204073 
L 291.714085 227.520029 
L 291.907647 225.911904 
L 291.919033 225.971933 
L 292.123981 227.308716 
L 292.129674 227.318387 
L 292.146753 227.210521 
L 292.351701 225.642698 
L 292.363087 225.749518 
L 292.607886 228.105962 
L 292.676202 228.190241 
L 292.727439 228.134109 
L 292.795755 227.696914 
L 292.972238 224.606288 
L 293.012089 226.010337 
L 293.1658 227.634442 
L 293.194265 227.752237 
L 293.239809 227.385169 
L 293.399213 224.714519 
L 293.439064 225.592359 
L 293.45045 225.705398 
L 293.490302 224.739025 
L 293.501688 224.583447 
L 293.535846 225.828663 
L 293.689557 228.197693 
L 293.740794 228.191924 
L 293.769259 228.131248 
L 293.854654 227.471361 
L 293.928663 226.261431 
L 294.019751 226.85707 
L 294.025444 226.84182 
L 294.048216 227.002818 
L 294.110839 227.635703 
L 294.173462 227.264203 
L 294.253164 225.539723 
L 294.423954 221.576415 
L 294.429647 221.629982 
L 294.509349 224.996236 
L 294.634595 223.978134 
L 294.651674 223.556523 
L 294.708604 225.140873 
L 294.71999 225.216922 
L 294.759841 224.622948 
L 294.771227 224.538689 
L 294.799692 225.499703 
L 294.959096 228.041659 
L 295.00464 227.956487 
L 295.027412 228.112456 
L 295.17543 228.462033 
L 295.556861 228.531778 
L 295.915521 228.546887 
L 299.285778 228.570705 
L 300.435764 228.31041 
L 300.657791 227.502935 
L 300.680563 227.726184 
L 300.771652 228.254908 
L 300.817196 228.183654 
L 300.885512 227.639349 
L 300.953828 225.663333 
L 301.022144 227.139603 
L 301.044916 226.91414 
L 301.09046 225.618499 
L 301.141697 227.22837 
L 301.238478 228.096783 
L 301.278329 228.009847 
L 301.340952 227.151219 
L 301.392189 225.419384 
L 301.449119 227.102676 
L 301.460505 227.164415 
L 301.494663 226.59564 
L 301.528821 225.596242 
L 301.580058 227.360002 
L 301.705304 228.301934 
L 301.722383 228.289424 
L 301.779313 228.021811 
L 301.824857 227.38057 
L 301.88748 228.041268 
L 301.898866 228.0612 
L 301.933024 227.871395 
L 301.967182 227.570123 
L 302.012726 228.110236 
L 302.160744 228.521483 
L 302.468166 228.518885 
L 303.504293 228.444884 
L 303.646618 228.447367 
L 303.919882 228.247208 
L 304.01097 227.96466 
L 304.107751 226.686365 
L 304.193146 227.377623 
L 304.204532 227.388045 
L 304.232997 227.276786 
L 304.363936 225.105028 
L 304.500568 221.184368 
L 304.529033 222.615522 
L 304.625814 226.432395 
L 304.677051 225.541957 
L 304.711209 225.151924 
L 304.773832 225.796408 
L 304.796604 225.434648 
L 304.92185 223.482013 
L 304.938929 223.937013 
L 305.041403 227.371351 
L 305.104026 227.123654 
L 305.143877 227.487893 
L 305.314667 228.376568 
L 305.382983 228.286911 
L 305.411448 228.202938 
L 305.462685 228.426533 
L 305.62209 228.52242 
L 306.088916 228.533225 
L 306.436189 228.440983 
L 306.47604 228.291201 
L 306.550049 228.42706 
L 306.87455 228.362333 
L 307.068112 227.864214 
L 307.10227 227.874824 
L 307.284446 226.568991 
L 307.364148 223.191547 
L 307.421078 209.270945 
L 307.466622 173.800582 
L 307.517859 214.091368 
L 307.660184 227.579655 
L 307.853746 228.3911 
L 307.870825 228.411705 
L 307.893597 228.252715 
L 307.910676 228.131108 
L 307.984685 228.410445 
L 308.098546 228.382317 
L 308.104239 228.370895 
L 308.14409 227.988256 
L 308.195327 228.457998 
L 308.326266 228.507617 
L 308.337652 228.495251 
L 308.383196 228.283573 
L 308.423047 228.580488 
L 308.457205 228.672657 
L 308.525521 228.537865 
L 308.776013 228.543101 
L 309.373778 228.559371 
L 309.573033 228.429816 
L 309.612884 228.272585 
L 309.669814 228.503194 
L 309.840604 228.570716 
L 312.937598 228.579382 
L 314.127435 228.566193 
L 314.582875 228.579371 
L 315.277422 228.500238 
L 315.351431 228.207797 
L 315.408361 228.485167 
L 315.556379 228.564374 
L 316.313548 228.477209 
L 316.387557 228.283654 
L 316.45018 228.443563 
L 316.598198 228.469195 
L 316.814532 228.389874 
L 316.991015 227.93997 
L 317.195963 226.901909 
L 317.281358 223.825093 
L 317.338288 210.611125 
L 317.389525 178.387253 
L 317.440762 213.14281 
L 317.583087 227.726479 
L 317.765264 228.40724 
L 317.89051 228.450272 
L 318.277634 228.568935 
L 318.556591 228.543927 
L 319.444699 228.522354 
L 319.518708 228.297032 
L 319.581331 228.515777 
L 319.746428 228.576035 
L 326.293381 228.589356 
L 327.090401 228.588095 
L 328.314397 228.588634 
L 338.823679 228.590209 
L 340.36079 228.590549 
L 345.979783 228.590788 
L 347.995106 228.590616 
L 353.88167 228.591005 
L 355.999467 228.592463 
L 357.747219 228.591419 
L 362.290235 228.592132 
L 384.954077 228.59291 
L 386.582276 228.591947 
L 401.025423 228.590373 
L 402.545455 228.590015 
L 402.545455 228.590015 
" style="fill:none;stroke:#4c72b0;stroke-linecap:square;"/>
   </g>
   <g id="line2d_37">
    <path clip-path="url(#pa3ab76a51c)" d="M 29.454545 168.200616 
L 40.220013 168.211312 
L 42.781864 168.211239 
L 43.966008 168.211774 
L 112.720398 168.210846 
L 114.690177 168.210469 
L 115.532741 168.210407 
L 121.493314 168.210245 
L 124.066552 168.211151 
L 177.575081 168.219202 
L 177.671862 167.173658 
L 177.694634 167.858091 
L 177.791415 168.405508 
L 177.808494 168.104552 
L 177.842652 165.923085 
L 177.922354 167.498246 
L 177.945126 168.50403 
L 178.036214 168.138437 
L 178.070372 167.216106 
L 178.150074 167.877663 
L 178.172846 168.351449 
L 178.269627 168.238279 
L 178.656751 168.216978 
L 199.049085 168.069191 
L 199.117402 167.748242 
L 199.168639 167.194333 
L 199.225569 167.741148 
L 199.271113 167.917536 
L 199.32235 167.707777 
L 199.373587 167.19045 
L 199.424824 167.755062 
L 199.572842 168.176413 
L 200.039668 168.206199 
L 203.529478 168.210494 
L 205.243072 168.210042 
L 212.826151 168.204214 
L 214.499894 168.019457 
L 214.835781 167.952277 
L 215.604336 168.179814 
L 216.469673 168.20257 
L 217.596887 168.114755 
L 217.898616 167.255095 
L 217.927081 167.36933 
L 218.035248 167.767343 
L 218.092178 167.703317 
L 218.143415 167.904045 
L 218.336977 168.229147 
L 220.044878 168.298308 
L 220.056264 168.334114 
L 220.079036 168.06581 
L 220.158738 165.179533 
L 220.227054 166.549051 
L 220.306756 168.415236 
L 220.357993 168.281925 
L 220.557248 168.229388 
L 223.97305 168.206254 
L 224.468341 168.286152 
L 224.474034 168.207185 
L 224.559429 165.317294 
L 224.633438 166.992293 
L 224.701754 168.412966 
L 224.77007 168.270555 
L 224.980711 168.228439 
L 225.772039 168.210585 
L 228.168793 168.208832 
L 229.666052 168.264659 
L 229.70021 168.712887 
L 229.711596 168.336952 
L 229.740061 164.512913 
L 229.779912 168.790716 
L 229.819763 168.32715 
L 229.865307 168.296072 
L 229.882386 168.377409 
L 229.905158 168.900236 
L 229.922237 167.829007 
L 229.945009 163.962017 
L 229.979167 169.107706 
L 230.024711 168.900226 
L 230.036097 169.054217 
L 230.053176 167.217123 
L 230.075948 163.559295 
L 230.110106 169.104808 
L 230.15565 168.35122 
L 230.189808 168.308422 
L 230.218273 168.487068 
L 230.235352 168.731279 
L 230.252431 167.635331 
L 230.275203 164.454552 
L 230.315054 168.794608 
L 230.354905 168.339862 
L 230.502923 168.222767 
L 230.918513 168.21614 
L 231.112075 168.205924 
L 232.131122 168.207905 
L 233.218486 168.206804 
L 235.507073 168.166132 
L 236.679831 168.095918 
L 237.442693 168.191602 
L 238.148626 168.347496 
L 238.171398 168.804937 
L 238.188477 167.625564 
L 238.211249 164.267973 
L 238.245407 169.305585 
L 238.296644 166.286213 
L 238.319416 168.97866 
L 238.416197 168.284007 
L 238.467434 168.274274 
L 238.47882 168.36598 
L 238.501592 168.81992 
L 238.518671 167.919216 
L 238.541443 164.523827 
L 238.575601 169.258583 
L 238.626838 166.417753 
L 238.64961 168.911674 
L 238.746391 168.261458 
L 239.059506 168.211151 
L 240.141176 168.207172 
L 240.852802 168.204217 
L 241.444874 168.207961 
L 242.78273 168.043684 
L 242.83966 165.794022 
L 242.890897 167.993005 
L 243.004757 168.200274 
L 243.016143 168.199062 
L 243.147082 168.090448 
L 243.192626 165.980611 
L 243.204012 165.604547 
L 243.255249 167.971315 
L 243.380495 168.219415 
L 247.838116 168.20858 
L 248.999488 168.209087 
L 256.24668 167.95618 
L 256.354847 167.223848 
L 256.411777 167.67946 
L 256.537023 168.080262 
L 256.565488 168.064329 
L 256.639497 167.841331 
L 256.719199 167.272067 
L 256.770436 167.635046 
L 256.918454 168.127516 
L 256.92984 168.124129 
L 256.98677 167.956374 
L 257.0437 167.542905 
L 257.10063 167.899848 
L 257.146174 168.038096 
L 257.197412 167.877118 
L 257.254342 167.534081 
L 257.316965 167.807938 
L 257.362509 167.71393 
L 257.390974 167.681784 
L 257.430825 167.802833 
L 257.493448 168.018132 
L 257.538992 167.827968 
L 257.584536 167.571784 
L 257.635773 167.93555 
L 257.783791 168.193542 
L 258.666206 168.206901 
L 260.653064 168.210035 
L 261.848594 168.209413 
L 266.044337 168.209753 
L 269.135637 168.209923 
L 273.519249 168.196861 
L 273.690039 167.797741 
L 273.712811 167.944279 
L 273.746969 168.194566 
L 273.803899 167.866841 
L 273.826671 167.976267 
L 273.860829 168.189527 
L 273.917759 167.794606 
L 273.951917 168.06878 
L 273.986075 168.217161 
L 274.065777 168.176943 
L 274.253647 167.065079 
L 274.270726 167.55855 
L 274.287805 168.138651 
L 274.327656 167.072252 
L 274.3732 167.245966 
L 274.390279 167.536916 
L 274.413051 168.180487 
L 274.458595 167.338349 
L 274.515525 168.16454 
L 274.538297 168.264414 
L 274.629385 168.222322 
L 274.692008 168.129614 
L 274.743245 167.389625 
L 274.794482 168.145653 
L 274.817254 168.234193 
L 274.908342 168.204966 
L 274.9425 167.815989 
L 274.976658 167.373706 
L 275.033588 168.214183 
L 275.039281 168.233149 
L 275.067746 168.025836 
L 275.107597 167.397761 
L 275.164527 168.187249 
L 275.181606 168.244685 
L 275.255615 168.102452 
L 275.335317 167.365846 
L 275.380861 167.943096 
L 275.409326 168.257852 
L 275.494721 168.038761 
L 275.523186 167.892066 
L 275.580116 168.235883 
L 275.597195 168.249011 
L 275.619967 168.114794 
L 275.654125 167.783126 
L 275.716748 168.244277 
L 275.830608 168.226227 
L 275.836301 168.214026 
L 275.887538 167.798848 
L 275.944468 168.225613 
L 276.058328 168.217655 
L 277.658062 168.206384 
L 278.107809 168.201692 
L 278.198897 168.12005 
L 278.324143 167.43488 
L 278.346915 167.648579 
L 278.352608 167.649542 
L 278.358301 167.601404 
L 278.37538 167.375918 
L 278.420924 168.125322 
L 278.472161 167.46811 
L 278.523398 168.269903 
L 278.620179 168.226551 
L 278.808048 167.359288 
L 278.819434 167.470878 
L 278.956067 168.246752 
L 278.96176 168.245306 
L 279.280568 168.215899 
L 280.402089 168.209225 
L 284.472586 168.210615 
L 286.032468 168.207607 
L 287.028744 168.103112 
L 287.102753 167.894335 
L 287.159683 168.047596 
L 287.188148 168.080926 
L 287.233692 167.945853 
L 287.26785 167.838049 
L 287.32478 168.025348 
L 287.404482 168.209495 
L 287.450026 168.090583 
L 287.535421 167.564372 
L 287.592351 167.883737 
L 287.620816 167.977874 
L 287.66636 167.738048 
L 287.706211 167.536409 
L 287.757448 167.848869 
L 287.842843 168.228901 
L 287.899773 168.103909 
L 287.968089 167.872703 
L 288.025019 168.044538 
L 288.059177 168.095456 
L 288.104721 167.966795 
L 288.138879 167.892694 
L 288.190116 168.042797 
L 288.34952 168.215547 
L 288.918821 168.11222 
L 289.015602 167.482973 
L 289.123769 167.513611 
L 289.254708 168.215511 
L 289.328717 167.803685 
L 289.379954 167.489519 
L 289.459656 167.596788 
L 289.493814 167.604773 
L 289.510893 167.684164 
L 289.704455 168.225781 
L 290.649493 168.21024 
L 291.714085 168.03964 
L 291.822252 167.613273 
L 291.850717 167.864418 
L 291.953191 168.034485 
L 291.907647 167.509456 
L 291.964577 167.969346 
L 291.998735 167.567178 
L 292.044279 168.10714 
L 292.078437 167.890423 
L 292.08413 167.876785 
L 292.112595 168.095091 
L 292.129674 168.194946 
L 292.180911 167.809465 
L 292.215069 168.039052 
L 292.220762 168.04106 
L 292.232148 167.948986 
L 292.351701 167.440633 
L 292.306157 167.97279 
L 292.363087 167.54457 
L 292.488333 168.040433 
L 292.499719 168.003549 
L 292.522491 167.932321 
L 292.573728 168.186131 
L 292.704667 168.200274 
L 292.807141 168.127622 
L 292.972238 166.888696 
L 292.99501 167.444717 
L 293.034861 168.168189 
L 293.10887 167.608271 
L 293.171493 168.230471 
L 293.245502 168.116821 
L 293.399213 167.036534 
L 293.33659 168.129116 
L 293.416292 167.31757 
L 293.45045 168.069998 
L 293.501688 166.933065 
L 293.547232 167.988161 
L 293.587083 168.237291 
L 293.666785 168.2156 
L 293.826189 168.119973 
L 293.92297 167.510797 
L 293.962821 168.032684 
L 294.031137 167.791814 
L 294.09376 168.18729 
L 294.139304 168.168126 
L 294.162076 168.10215 
L 294.224699 168.152466 
L 294.26455 167.53727 
L 294.395489 166.856358 
L 294.429647 166.386892 
L 294.463805 167.409998 
L 294.503656 168.063826 
L 294.554893 166.998417 
L 294.566279 167.113311 
L 294.600437 168.044566 
L 294.651674 166.743075 
L 294.697218 167.834842 
L 294.725683 167.863806 
L 294.737069 167.789599 
L 294.771227 167.022318 
L 294.828157 168.122161 
L 294.94771 168.224466 
L 294.879394 167.988642 
L 294.953403 168.222096 
L 295.00464 168.046874 
L 295.1185 168.212109 
L 296.513286 168.204264 
L 300.475615 168.151252 
L 300.515466 167.883612 
L 300.578089 168.19341 
L 300.606554 168.191097 
L 300.623633 168.118401 
L 300.657791 167.833582 
L 300.720414 168.206205 
L 300.902591 168.133026 
L 300.953828 167.172862 
L 301.005065 168.167672 
L 301.027837 168.203493 
L 301.056302 167.995723 
L 301.096153 167.151262 
L 301.153083 168.211149 
L 301.284022 168.206671 
L 301.346645 168.098694 
L 301.392189 167.038117 
L 301.449119 168.213125 
L 301.466198 168.21609 
L 301.483277 168.153391 
L 301.528821 167.09574 
L 301.585751 168.211072 
L 301.710997 168.214647 
L 301.796392 168.0947 
L 301.824857 167.757449 
L 301.88748 168.213737 
L 301.893173 168.213622 
L 301.933024 168.125763 
L 301.967182 167.846289 
L 302.029805 168.215717 
L 302.371385 168.214996 
L 304.039435 168.137759 
L 304.107751 167.7288 
L 304.164681 168.065145 
L 304.232997 168.139018 
L 304.267155 168.020872 
L 304.40948 166.437402 
L 304.437945 167.310817 
L 304.500568 166.013777 
L 304.557498 167.689342 
L 304.620121 168.166931 
L 304.671358 167.730326 
L 304.705516 167.467905 
L 304.762446 167.93671 
L 304.785218 168.098285 
L 304.813683 167.537431 
L 304.927543 166.665082 
L 304.881999 167.807395 
L 304.938929 166.907872 
L 305.018631 168.191247 
L 305.075561 168.011424 
L 305.109719 167.880681 
L 305.166649 168.145069 
L 305.314667 168.211371 
L 305.405755 168.08966 
L 305.411448 168.0821 
L 305.445606 168.211798 
L 305.582238 168.213466 
L 307.068112 168.075558 
L 307.073805 168.067701 
L 307.107963 168.204561 
L 307.347069 168.308752 
L 307.398306 168.655954 
L 307.415385 169.677365 
L 307.432464 166.248563 
L 307.466622 141.937339 
L 307.512166 169.991382 
L 307.534938 168.923398 
L 307.660184 168.346315 
L 307.84236 168.258989 
L 307.848053 168.265145 
L 307.870825 168.333238 
L 307.89929 168.112943 
L 307.910676 168.026139 
L 307.939141 168.274055 
L 307.996071 168.22609 
L 308.127011 168.123748 
L 308.14409 167.86382 
L 308.172555 168.311646 
L 308.229485 168.219333 
L 308.37181 168.056125 
L 308.377503 168.022936 
L 308.440126 168.275329 
L 308.457205 168.291606 
L 308.497056 168.20161 
L 308.525521 168.206242 
L 309.590112 168.145614 
L 309.612884 168.068728 
L 309.658428 168.217964 
L 309.686893 168.211977 
L 312.886361 168.209466 
L 315.31158 168.197715 
L 315.351431 168.051807 
L 315.419747 168.219026 
L 315.846722 168.204969 
L 317.218735 168.243482 
L 317.287051 168.450422 
L 317.326902 169.299398 
L 317.338288 168.843635 
L 317.389525 147.433877 
L 317.440762 169.390769 
L 317.446455 169.62281 
L 317.526157 168.533663 
L 317.685561 168.267643 
L 318.089765 168.220519 
L 319.507322 168.103974 
L 319.518708 168.090998 
L 319.564252 168.212685 
L 319.569945 168.215312 
L 320.492212 168.211026 
L 321.909769 168.20989 
L 324.289444 168.209294 
L 325.354036 168.21025 
L 327.170103 168.210136 
L 328.781223 168.21028 
L 330.44358 168.210103 
L 334.593778 168.209936 
L 335.339562 168.209621 
L 337.309341 168.209911 
L 339.973666 168.210132 
L 343.90753 168.209852 
L 345.108754 168.210196 
L 348.644108 168.210922 
L 402.545455 168.205248 
L 402.545455 168.205248 
" style="fill:none;stroke:#dd8452;stroke-linecap:square;"/>
   </g>
   <g id="line2d_38">
    <path clip-path="url(#pa3ab76a51c)" d="M 29.454545 107.819856 
L 40.220013 107.830552 
L 42.781864 107.830479 
L 43.966008 107.831013 
L 112.720398 107.830085 
L 114.690177 107.829709 
L 115.532741 107.829646 
L 121.493314 107.829484 
L 124.066552 107.830391 
L 177.575081 107.838441 
L 177.671862 106.792898 
L 177.694634 107.477331 
L 177.791415 108.024747 
L 177.808494 107.723792 
L 177.842652 105.542325 
L 177.922354 107.117485 
L 177.945126 108.12327 
L 178.036214 107.757676 
L 178.070372 106.835346 
L 178.150074 107.496903 
L 178.172846 107.970689 
L 178.269627 107.857518 
L 178.656751 107.836217 
L 199.049085 107.68843 
L 199.117402 107.367481 
L 199.168639 106.813572 
L 199.225569 107.360388 
L 199.271113 107.536776 
L 199.32235 107.327017 
L 199.373587 106.80969 
L 199.424824 107.374301 
L 199.572842 107.795653 
L 200.039668 107.825439 
L 203.529478 107.829733 
L 205.243072 107.829282 
L 212.826151 107.823454 
L 214.499894 107.638697 
L 214.835781 107.571516 
L 215.604336 107.799054 
L 216.469673 107.82181 
L 217.596887 107.733995 
L 217.898616 106.874334 
L 217.927081 106.98857 
L 218.035248 107.386583 
L 218.092178 107.322556 
L 218.143415 107.523285 
L 218.336977 107.848387 
L 220.044878 107.917547 
L 220.056264 107.953354 
L 220.079036 107.685049 
L 220.158738 104.798773 
L 220.227054 106.168291 
L 220.306756 108.034476 
L 220.357993 107.901165 
L 220.557248 107.848628 
L 223.97305 107.825493 
L 224.468341 107.905392 
L 224.474034 107.826425 
L 224.559429 104.936534 
L 224.633438 106.611533 
L 224.701754 108.032206 
L 224.77007 107.889794 
L 224.980711 107.847679 
L 225.772039 107.829825 
L 228.168793 107.828072 
L 229.666052 107.883899 
L 229.70021 108.332126 
L 229.711596 107.956192 
L 229.740061 104.132153 
L 229.779912 108.409955 
L 229.819763 107.94639 
L 229.865307 107.915312 
L 229.882386 107.996649 
L 229.905158 108.519476 
L 229.922237 107.448247 
L 229.945009 103.581256 
L 229.979167 108.726945 
L 230.024711 108.519466 
L 230.036097 108.673457 
L 230.053176 106.836363 
L 230.075948 103.178534 
L 230.110106 108.724048 
L 230.15565 107.97046 
L 230.189808 107.927662 
L 230.218273 108.106308 
L 230.235352 108.350518 
L 230.252431 107.254571 
L 230.275203 104.073792 
L 230.315054 108.413848 
L 230.354905 107.959102 
L 230.502923 107.842007 
L 230.918513 107.83538 
L 231.112075 107.825164 
L 232.131122 107.827145 
L 233.218486 107.826043 
L 235.507073 107.785372 
L 236.679831 107.715157 
L 237.442693 107.810842 
L 238.148626 107.966736 
L 238.171398 108.424177 
L 238.188477 107.244804 
L 238.211249 103.887213 
L 238.245407 108.924825 
L 238.296644 105.905453 
L 238.319416 108.5979 
L 238.416197 107.903246 
L 238.467434 107.893514 
L 238.47882 107.98522 
L 238.501592 108.43916 
L 238.518671 107.538456 
L 238.541443 104.143066 
L 238.575601 108.877823 
L 238.626838 106.036993 
L 238.64961 108.530914 
L 238.746391 107.880698 
L 239.059506 107.830391 
L 240.141176 107.826412 
L 240.852802 107.823457 
L 241.444874 107.827201 
L 242.78273 107.662923 
L 242.83966 105.413261 
L 242.890897 107.612244 
L 243.004757 107.819514 
L 243.016143 107.818301 
L 243.147082 107.709687 
L 243.192626 105.599851 
L 243.204012 105.223787 
L 243.255249 107.590555 
L 243.380495 107.838654 
L 247.838116 107.82782 
L 248.999488 107.828326 
L 256.24668 107.57542 
L 256.354847 106.843088 
L 256.411777 107.2987 
L 256.537023 107.699502 
L 256.565488 107.683569 
L 256.639497 107.460571 
L 256.719199 106.891307 
L 256.770436 107.254286 
L 256.918454 107.746755 
L 256.92984 107.743369 
L 256.98677 107.575614 
L 257.0437 107.162144 
L 257.10063 107.519088 
L 257.146174 107.657336 
L 257.197412 107.496358 
L 257.254342 107.153321 
L 257.316965 107.427177 
L 257.362509 107.33317 
L 257.390974 107.301024 
L 257.430825 107.422072 
L 257.493448 107.637371 
L 257.538992 107.447207 
L 257.584536 107.191024 
L 257.635773 107.554789 
L 257.783791 107.812782 
L 258.666206 107.82614 
L 260.653064 107.829275 
L 261.848594 107.828652 
L 266.044337 107.828993 
L 269.135637 107.829163 
L 273.519249 107.816101 
L 273.690039 107.416981 
L 273.712811 107.563519 
L 273.746969 107.813806 
L 273.803899 107.486081 
L 273.826671 107.595506 
L 273.860829 107.808766 
L 273.917759 107.413846 
L 273.951917 107.68802 
L 273.986075 107.8364 
L 274.065777 107.796182 
L 274.253647 106.684319 
L 274.270726 107.17779 
L 274.287805 107.757891 
L 274.327656 106.691492 
L 274.3732 106.865206 
L 274.390279 107.156156 
L 274.413051 107.799727 
L 274.458595 106.957588 
L 274.515525 107.78378 
L 274.538297 107.883654 
L 274.629385 107.841562 
L 274.692008 107.748854 
L 274.743245 107.008865 
L 274.794482 107.764893 
L 274.817254 107.853433 
L 274.908342 107.824206 
L 274.9425 107.435228 
L 274.976658 106.992946 
L 275.033588 107.833423 
L 275.039281 107.852389 
L 275.067746 107.645075 
L 275.107597 107.017001 
L 275.164527 107.806488 
L 275.181606 107.863925 
L 275.255615 107.721692 
L 275.335317 106.985086 
L 275.380861 107.562336 
L 275.409326 107.877092 
L 275.494721 107.658001 
L 275.523186 107.511305 
L 275.580116 107.855122 
L 275.597195 107.868251 
L 275.619967 107.734034 
L 275.654125 107.402366 
L 275.716748 107.863517 
L 275.830608 107.845467 
L 275.836301 107.833265 
L 275.887538 107.418088 
L 275.944468 107.844853 
L 276.058328 107.836894 
L 277.658062 107.825624 
L 278.107809 107.820932 
L 278.198897 107.739289 
L 278.324143 107.05412 
L 278.346915 107.267819 
L 278.352608 107.268782 
L 278.358301 107.220644 
L 278.37538 106.995158 
L 278.420924 107.744562 
L 278.472161 107.08735 
L 278.523398 107.889143 
L 278.620179 107.845791 
L 278.808048 106.978528 
L 278.819434 107.090117 
L 278.956067 107.865992 
L 278.96176 107.864546 
L 279.280568 107.835139 
L 280.402089 107.828465 
L 284.472586 107.829854 
L 286.032468 107.826846 
L 287.028744 107.722352 
L 287.102753 107.513575 
L 287.159683 107.666836 
L 287.188148 107.700166 
L 287.233692 107.565093 
L 287.26785 107.457288 
L 287.32478 107.644588 
L 287.404482 107.828735 
L 287.450026 107.709823 
L 287.535421 107.183612 
L 287.592351 107.502976 
L 287.620816 107.597114 
L 287.66636 107.357288 
L 287.706211 107.155648 
L 287.757448 107.468109 
L 287.842843 107.848141 
L 287.899773 107.723149 
L 287.968089 107.491942 
L 288.025019 107.663778 
L 288.059177 107.714695 
L 288.104721 107.586034 
L 288.138879 107.511934 
L 288.190116 107.662037 
L 288.34952 107.834787 
L 288.918821 107.73146 
L 289.015602 107.102212 
L 289.123769 107.132851 
L 289.254708 107.83475 
L 289.328717 107.422924 
L 289.379954 107.108759 
L 289.459656 107.216028 
L 289.493814 107.224013 
L 289.510893 107.303403 
L 289.704455 107.845021 
L 290.649493 107.82948 
L 291.714085 107.658879 
L 291.822252 107.232513 
L 291.850717 107.483658 
L 291.953191 107.653725 
L 291.907647 107.128695 
L 291.964577 107.588586 
L 291.998735 107.186417 
L 292.044279 107.72638 
L 292.078437 107.509663 
L 292.08413 107.496024 
L 292.112595 107.71433 
L 292.129674 107.814186 
L 292.180911 107.428705 
L 292.215069 107.658292 
L 292.220762 107.6603 
L 292.232148 107.568226 
L 292.351701 107.059873 
L 292.306157 107.59203 
L 292.363087 107.16381 
L 292.488333 107.659673 
L 292.499719 107.622789 
L 292.522491 107.551561 
L 292.573728 107.80537 
L 292.704667 107.819514 
L 292.807141 107.746862 
L 292.972238 106.507936 
L 292.99501 107.063957 
L 293.034861 107.787429 
L 293.10887 107.227511 
L 293.171493 107.849711 
L 293.245502 107.736061 
L 293.399213 106.655774 
L 293.33659 107.748356 
L 293.416292 106.936809 
L 293.45045 107.689237 
L 293.501688 106.552305 
L 293.547232 107.607401 
L 293.587083 107.856531 
L 293.666785 107.83484 
L 293.826189 107.739213 
L 293.92297 107.130037 
L 293.962821 107.651924 
L 294.031137 107.411054 
L 294.09376 107.806529 
L 294.139304 107.787366 
L 294.162076 107.72139 
L 294.224699 107.771705 
L 294.26455 107.15651 
L 294.395489 106.475598 
L 294.429647 106.006132 
L 294.463805 107.029238 
L 294.503656 107.683065 
L 294.554893 106.617656 
L 294.566279 106.732551 
L 294.600437 107.663805 
L 294.651674 106.362314 
L 294.697218 107.454081 
L 294.725683 107.483046 
L 294.737069 107.408839 
L 294.771227 106.641557 
L 294.828157 107.7414 
L 294.94771 107.843706 
L 294.879394 107.607882 
L 294.953403 107.841336 
L 295.00464 107.666113 
L 295.1185 107.831349 
L 296.513286 107.823504 
L 300.475615 107.770492 
L 300.515466 107.502852 
L 300.578089 107.81265 
L 300.606554 107.810337 
L 300.623633 107.73764 
L 300.657791 107.452822 
L 300.720414 107.825445 
L 300.902591 107.752266 
L 300.953828 106.792102 
L 301.005065 107.786911 
L 301.027837 107.822733 
L 301.056302 107.614962 
L 301.096153 106.770502 
L 301.153083 107.830389 
L 301.284022 107.825911 
L 301.346645 107.717934 
L 301.392189 106.657357 
L 301.449119 107.832365 
L 301.466198 107.835329 
L 301.483277 107.772631 
L 301.528821 106.71498 
L 301.585751 107.830312 
L 301.710997 107.833887 
L 301.796392 107.71394 
L 301.824857 107.376688 
L 301.88748 107.832977 
L 301.893173 107.832862 
L 301.933024 107.745003 
L 301.967182 107.465528 
L 302.029805 107.834957 
L 302.371385 107.834236 
L 304.039435 107.756998 
L 304.107751 107.34804 
L 304.164681 107.684385 
L 304.232997 107.758258 
L 304.267155 107.640112 
L 304.40948 106.056642 
L 304.437945 106.930057 
L 304.500568 105.633017 
L 304.557498 107.308582 
L 304.620121 107.786171 
L 304.671358 107.349566 
L 304.705516 107.087145 
L 304.762446 107.555949 
L 304.785218 107.717525 
L 304.813683 107.156671 
L 304.927543 106.284322 
L 304.881999 107.426635 
L 304.938929 106.527112 
L 305.018631 107.810487 
L 305.075561 107.630664 
L 305.109719 107.49992 
L 305.166649 107.764308 
L 305.314667 107.830611 
L 305.405755 107.708899 
L 305.411448 107.70134 
L 305.445606 107.831038 
L 305.582238 107.832705 
L 307.068112 107.694797 
L 307.073805 107.68694 
L 307.107963 107.823801 
L 307.347069 107.927992 
L 307.398306 108.275194 
L 307.415385 109.296605 
L 307.432464 105.867803 
L 307.466622 81.556578 
L 307.512166 109.610622 
L 307.534938 108.542638 
L 307.660184 107.965555 
L 307.84236 107.878229 
L 307.848053 107.884384 
L 307.870825 107.952477 
L 307.89929 107.732183 
L 307.910676 107.645379 
L 307.939141 107.893295 
L 307.996071 107.84533 
L 308.127011 107.742988 
L 308.14409 107.48306 
L 308.172555 107.930886 
L 308.229485 107.838573 
L 308.37181 107.675365 
L 308.377503 107.642175 
L 308.440126 107.894569 
L 308.457205 107.910846 
L 308.497056 107.82085 
L 308.525521 107.825481 
L 309.590112 107.764854 
L 309.612884 107.687968 
L 309.658428 107.837203 
L 309.686893 107.831217 
L 312.886361 107.828706 
L 315.31158 107.816954 
L 315.351431 107.671047 
L 315.419747 107.838266 
L 315.846722 107.824208 
L 317.218735 107.862722 
L 317.287051 108.069662 
L 317.326902 108.918637 
L 317.338288 108.462875 
L 317.389525 87.053117 
L 317.440762 109.010009 
L 317.446455 109.24205 
L 317.526157 108.152903 
L 317.685561 107.886883 
L 318.089765 107.839759 
L 319.507322 107.723214 
L 319.518708 107.710238 
L 319.564252 107.831925 
L 319.569945 107.834551 
L 320.492212 107.830266 
L 321.909769 107.82913 
L 324.289444 107.828534 
L 325.354036 107.82949 
L 327.170103 107.829375 
L 328.781223 107.82952 
L 330.44358 107.829343 
L 334.593778 107.829176 
L 335.339562 107.828861 
L 337.309341 107.82915 
L 339.973666 107.829372 
L 343.90753 107.829092 
L 345.108754 107.829435 
L 348.644108 107.830162 
L 402.545455 107.824488 
L 402.545455 107.824488 
" style="fill:none;stroke:#55a868;stroke-linecap:square;"/>
   </g>
   <g id="line2d_39">
    <path clip-path="url(#pa3ab76a51c)" d="M 29.454545 47.439096 
L 40.220013 47.449791 
L 42.781864 47.449718 
L 43.966008 47.450253 
L 112.720398 47.449325 
L 114.690177 47.448949 
L 115.532741 47.448886 
L 121.493314 47.448724 
L 124.066552 47.44963 
L 177.575081 47.457681 
L 177.671862 46.412138 
L 177.694634 47.096571 
L 177.791415 47.643987 
L 177.808494 47.343032 
L 177.842652 45.161564 
L 177.922354 46.736725 
L 177.945126 47.742509 
L 178.036214 47.376916 
L 178.070372 46.454586 
L 178.150074 47.116142 
L 178.172846 47.589928 
L 178.269627 47.476758 
L 178.656751 47.455457 
L 199.049085 47.30767 
L 199.117402 46.986721 
L 199.168639 46.432812 
L 199.225569 46.979628 
L 199.271113 47.156015 
L 199.32235 46.946257 
L 199.373587 46.42893 
L 199.424824 46.993541 
L 199.572842 47.414893 
L 200.039668 47.444679 
L 203.529478 47.448973 
L 205.243072 47.448521 
L 212.826151 47.442694 
L 214.499894 47.257937 
L 214.835781 47.190756 
L 215.604336 47.418293 
L 216.469673 47.44105 
L 217.596887 47.353235 
L 217.898616 46.493574 
L 217.927081 46.60781 
L 218.035248 47.005822 
L 218.092178 46.941796 
L 218.143415 47.142525 
L 218.336977 47.467627 
L 220.044878 47.536787 
L 220.056264 47.572594 
L 220.079036 47.304289 
L 220.158738 44.418013 
L 220.227054 45.787531 
L 220.306756 47.653716 
L 220.357993 47.520405 
L 220.557248 47.467868 
L 223.97305 47.444733 
L 224.468341 47.524632 
L 224.474034 47.445665 
L 224.559429 44.555774 
L 224.633438 46.230773 
L 224.701754 47.651446 
L 224.77007 47.509034 
L 224.980711 47.466918 
L 225.772039 47.449064 
L 228.168793 47.447311 
L 229.666052 47.503139 
L 229.70021 47.951366 
L 229.711596 47.575432 
L 229.740061 43.751393 
L 229.779912 48.029195 
L 229.819763 47.56563 
L 229.865307 47.534552 
L 229.882386 47.615889 
L 229.905158 48.138716 
L 229.922237 47.067487 
L 229.945009 43.200496 
L 229.979167 48.346185 
L 230.024711 48.138706 
L 230.036097 48.292696 
L 230.053176 46.455602 
L 230.075948 42.797774 
L 230.110106 48.343288 
L 230.15565 47.5897 
L 230.189808 47.546902 
L 230.218273 47.725548 
L 230.235352 47.969758 
L 230.252431 46.873811 
L 230.275203 43.693031 
L 230.315054 48.033088 
L 230.354905 47.578342 
L 230.502923 47.461247 
L 230.918513 47.45462 
L 231.112075 47.444404 
L 232.131122 47.446385 
L 233.218486 47.445283 
L 235.507073 47.404611 
L 236.679831 47.334397 
L 237.442693 47.430082 
L 238.148626 47.585976 
L 238.171398 48.043417 
L 238.188477 46.864043 
L 238.211249 43.506453 
L 238.245407 48.544065 
L 238.296644 45.524693 
L 238.319416 48.21714 
L 238.416197 47.522486 
L 238.467434 47.512754 
L 238.47882 47.604459 
L 238.501592 48.0584 
L 238.518671 47.157696 
L 238.541443 43.762306 
L 238.575601 48.497063 
L 238.626838 45.656232 
L 238.64961 48.150154 
L 238.746391 47.499938 
L 239.059506 47.449631 
L 240.141176 47.445652 
L 240.852802 47.442696 
L 241.444874 47.446441 
L 242.78273 47.282163 
L 242.83966 45.032501 
L 242.890897 47.231484 
L 243.004757 47.438754 
L 243.016143 47.437541 
L 243.147082 47.328927 
L 243.192626 45.219091 
L 243.204012 44.843026 
L 243.255249 47.209795 
L 243.380495 47.457894 
L 247.838116 47.44706 
L 248.999488 47.447566 
L 256.24668 47.19466 
L 256.354847 46.462327 
L 256.411777 46.91794 
L 256.537023 47.318742 
L 256.565488 47.302808 
L 256.639497 47.07981 
L 256.719199 46.510547 
L 256.770436 46.873526 
L 256.918454 47.365995 
L 256.92984 47.362609 
L 256.98677 47.194853 
L 257.0437 46.781384 
L 257.10063 47.138328 
L 257.146174 47.276575 
L 257.197412 47.115598 
L 257.254342 46.77256 
L 257.316965 47.046417 
L 257.362509 46.952409 
L 257.390974 46.920264 
L 257.430825 47.041312 
L 257.493448 47.256611 
L 257.538992 47.066447 
L 257.584536 46.810264 
L 257.635773 47.174029 
L 257.783791 47.432022 
L 258.666206 47.44538 
L 260.653064 47.448515 
L 261.848594 47.447892 
L 266.044337 47.448233 
L 269.135637 47.448403 
L 273.519249 47.43534 
L 273.690039 47.03622 
L 273.712811 47.182759 
L 273.746969 47.433046 
L 273.803899 47.105321 
L 273.826671 47.214746 
L 273.860829 47.428006 
L 273.917759 47.033086 
L 273.951917 47.30726 
L 273.986075 47.45564 
L 274.065777 47.415422 
L 274.253647 46.303558 
L 274.270726 46.79703 
L 274.287805 47.377131 
L 274.327656 46.310732 
L 274.3732 46.484445 
L 274.390279 46.775396 
L 274.413051 47.418966 
L 274.458595 46.576828 
L 274.515525 47.40302 
L 274.538297 47.502894 
L 274.629385 47.460801 
L 274.692008 47.368094 
L 274.743245 46.628105 
L 274.794482 47.384132 
L 274.817254 47.472673 
L 274.908342 47.443446 
L 274.9425 47.054468 
L 274.976658 46.612185 
L 275.033588 47.452662 
L 275.039281 47.471629 
L 275.067746 47.264315 
L 275.107597 46.636241 
L 275.164527 47.425728 
L 275.181606 47.483165 
L 275.255615 47.340932 
L 275.335317 46.604326 
L 275.380861 47.181576 
L 275.409326 47.496332 
L 275.494721 47.277241 
L 275.523186 47.130545 
L 275.580116 47.474362 
L 275.597195 47.487491 
L 275.619967 47.353274 
L 275.654125 47.021606 
L 275.716748 47.482757 
L 275.830608 47.464707 
L 275.836301 47.452505 
L 275.887538 47.037327 
L 275.944468 47.464093 
L 276.058328 47.456134 
L 277.658062 47.444864 
L 278.107809 47.440172 
L 278.198897 47.358529 
L 278.324143 46.67336 
L 278.346915 46.887059 
L 278.352608 46.888022 
L 278.358301 46.839884 
L 278.37538 46.614397 
L 278.420924 47.363801 
L 278.472161 46.70659 
L 278.523398 47.508383 
L 278.620179 47.465031 
L 278.808048 46.597768 
L 278.819434 46.709357 
L 278.956067 47.485232 
L 278.96176 47.483786 
L 279.280568 47.454378 
L 280.402089 47.447704 
L 284.472586 47.449094 
L 286.032468 47.446086 
L 287.028744 47.341591 
L 287.102753 47.132815 
L 287.159683 47.286076 
L 287.188148 47.319406 
L 287.233692 47.184333 
L 287.26785 47.076528 
L 287.32478 47.263827 
L 287.404482 47.447975 
L 287.450026 47.329063 
L 287.535421 46.802852 
L 287.592351 47.122216 
L 287.620816 47.216354 
L 287.66636 46.976527 
L 287.706211 46.774888 
L 287.757448 47.087349 
L 287.842843 47.46738 
L 287.899773 47.342389 
L 287.968089 47.111182 
L 288.025019 47.283018 
L 288.059177 47.333935 
L 288.104721 47.205274 
L 288.138879 47.131174 
L 288.190116 47.281276 
L 288.34952 47.454026 
L 288.918821 47.3507 
L 289.015602 46.721452 
L 289.123769 46.75209 
L 289.254708 47.45399 
L 289.328717 47.042164 
L 289.379954 46.727998 
L 289.459656 46.835268 
L 289.493814 46.843253 
L 289.510893 46.922643 
L 289.704455 47.464261 
L 290.649493 47.44872 
L 291.714085 47.278119 
L 291.822252 46.851752 
L 291.850717 47.102897 
L 291.953191 47.272964 
L 291.907647 46.747935 
L 291.964577 47.207825 
L 291.998735 46.805657 
L 292.044279 47.34562 
L 292.078437 47.128903 
L 292.08413 47.115264 
L 292.112595 47.33357 
L 292.129674 47.433425 
L 292.180911 47.047945 
L 292.215069 47.277531 
L 292.220762 47.27954 
L 292.232148 47.187466 
L 292.351701 46.679113 
L 292.306157 47.211269 
L 292.363087 46.78305 
L 292.488333 47.278913 
L 292.499719 47.242029 
L 292.522491 47.170801 
L 292.573728 47.42461 
L 292.704667 47.438754 
L 292.807141 47.366102 
L 292.972238 46.127175 
L 292.99501 46.683197 
L 293.034861 47.406669 
L 293.10887 46.846751 
L 293.171493 47.468951 
L 293.245502 47.355301 
L 293.399213 46.275014 
L 293.33659 47.367596 
L 293.416292 46.556049 
L 293.45045 47.308477 
L 293.501688 46.171545 
L 293.547232 47.226641 
L 293.587083 47.475771 
L 293.666785 47.45408 
L 293.826189 47.358453 
L 293.92297 46.749277 
L 293.962821 47.271164 
L 294.031137 47.030293 
L 294.09376 47.425769 
L 294.139304 47.406606 
L 294.162076 47.34063 
L 294.224699 47.390945 
L 294.26455 46.77575 
L 294.395489 46.094838 
L 294.429647 45.625372 
L 294.463805 46.648477 
L 294.503656 47.302305 
L 294.554893 46.236896 
L 294.566279 46.351791 
L 294.600437 47.283045 
L 294.651674 45.981554 
L 294.697218 47.073321 
L 294.725683 47.102285 
L 294.737069 47.028079 
L 294.771227 46.260797 
L 294.828157 47.36064 
L 294.94771 47.462946 
L 294.879394 47.227121 
L 294.953403 47.460575 
L 295.00464 47.285353 
L 295.1185 47.450589 
L 296.513286 47.442744 
L 300.475615 47.389731 
L 300.515466 47.122091 
L 300.578089 47.43189 
L 300.606554 47.429576 
L 300.623633 47.35688 
L 300.657791 47.072062 
L 300.720414 47.444684 
L 300.902591 47.371506 
L 300.953828 46.411342 
L 301.005065 47.406151 
L 301.027837 47.441973 
L 301.056302 47.234202 
L 301.096153 46.389742 
L 301.153083 47.449629 
L 301.284022 47.44515 
L 301.346645 47.337174 
L 301.392189 46.276597 
L 301.449119 47.451605 
L 301.466198 47.454569 
L 301.483277 47.391871 
L 301.528821 46.334219 
L 301.585751 47.449552 
L 301.710997 47.453127 
L 301.796392 47.333179 
L 301.824857 46.995928 
L 301.88748 47.452217 
L 301.893173 47.452101 
L 301.933024 47.364243 
L 301.967182 47.084768 
L 302.029805 47.454197 
L 302.371385 47.453476 
L 304.039435 47.376238 
L 304.107751 46.96728 
L 304.164681 47.303625 
L 304.232997 47.377498 
L 304.267155 47.259352 
L 304.40948 45.675882 
L 304.437945 46.549297 
L 304.500568 45.252257 
L 304.557498 46.927822 
L 304.620121 47.405411 
L 304.671358 46.968805 
L 304.705516 46.706384 
L 304.762446 47.175189 
L 304.785218 47.336764 
L 304.813683 46.775911 
L 304.927543 45.903562 
L 304.881999 47.045874 
L 304.938929 46.146352 
L 305.018631 47.429727 
L 305.075561 47.249904 
L 305.109719 47.11916 
L 305.166649 47.383548 
L 305.314667 47.449851 
L 305.405755 47.328139 
L 305.411448 47.32058 
L 305.445606 47.450278 
L 305.582238 47.451945 
L 307.068112 47.314037 
L 307.073805 47.30618 
L 307.107963 47.443041 
L 307.347069 47.547232 
L 307.398306 47.894434 
L 307.415385 48.915845 
L 307.432464 45.487043 
L 307.466622 21.175818 
L 307.512166 49.229862 
L 307.534938 48.161877 
L 307.660184 47.584794 
L 307.84236 47.497469 
L 307.848053 47.503624 
L 307.870825 47.571717 
L 307.89929 47.351423 
L 307.910676 47.264619 
L 307.939141 47.512535 
L 307.996071 47.46457 
L 308.127011 47.362228 
L 308.14409 47.1023 
L 308.172555 47.550126 
L 308.229485 47.457812 
L 308.37181 47.294605 
L 308.377503 47.261415 
L 308.440126 47.513809 
L 308.457205 47.530086 
L 308.497056 47.440089 
L 308.525521 47.444721 
L 309.590112 47.384094 
L 309.612884 47.307208 
L 309.658428 47.456443 
L 309.686893 47.450457 
L 312.886361 47.447945 
L 315.31158 47.436194 
L 315.351431 47.290286 
L 315.419747 47.457506 
L 315.846722 47.443448 
L 317.218735 47.481962 
L 317.287051 47.688901 
L 317.326902 48.537877 
L 317.338288 48.082115 
L 317.389525 26.672356 
L 317.440762 48.629249 
L 317.446455 48.86129 
L 317.526157 47.772143 
L 317.685561 47.506123 
L 318.089765 47.458999 
L 319.507322 47.342453 
L 319.518708 47.329478 
L 319.564252 47.451164 
L 319.569945 47.453791 
L 320.492212 47.449505 
L 321.909769 47.448369 
L 324.289444 47.447774 
L 325.354036 47.44873 
L 327.170103 47.448615 
L 328.781223 47.44876 
L 330.44358 47.448583 
L 334.593778 47.448416 
L 335.339562 47.448101 
L 337.309341 47.44839 
L 339.973666 47.448612 
L 343.90753 47.448332 
L 345.108754 47.448675 
L 348.644108 47.449402 
L 402.545455 47.443728 
L 402.545455 47.443728 
" style="fill:none;stroke:#c44e52;stroke-linecap:square;"/>
   </g>
   <g id="patch_3">
    <path d="M 10.8 239.068 
L 421.2 239.068 
" style="fill:none;stroke:#000000;stroke-linecap:square;stroke-linejoin:miter;stroke-width:1.3;"/>
   </g>
  </g>
 </g>
 <defs>
  <clipPath id="pa3ab76a51c">
   <rect height="228.268" width="410.4" x="10.8" y="10.8"/>
  </clipPath>
 </defs>
</svg>
