<?xml version="1.0" encoding="utf-8" standalone="no"?>
<!DOCTYPE svg PUBLIC "-//W3C//DTD SVG 1.1//EN"
  "http://www.w3.org/Graphics/SVG/1.1/DTD/svg11.dtd">
<svg height="288pt" version="1.1" viewBox="0 0 432 288" width="432pt" xmlns="http://www.w3.org/2000/svg" xmlns:xlink="http://www.w3.org/1999/xlink">
 <metadata>
  <rdf:RDF xmlns:cc="http://creativecommons.org/ns#" xmlns:dc="http://purl.org/dc/elements/1.1/" xmlns:rdf="http://www.w3.org/1999/02/22-rdf-syntax-ns#">
   <cc:Work>
    <dc:type rdf:resource="http://purl.org/dc/dcmitype/StillImage"/>
    <dc:date>2021-04-03T00:41:20.880371</dc:date>
    <dc:format>image/svg+xml</dc:format>
    <dc:creator>
     <cc:Agent>
      <dc:title>Matplotlib v3.4.1, https://matplotlib.org/</dc:title>
     </cc:Agent>
    </dc:creator>
   </cc:Work>
  </rdf:RDF>
 </metadata>
 <defs>
  <style type="text/css">*{stroke-linecap:butt;stroke-linejoin:round;}</style>
 </defs>
 <g id="figure_1">
  <g id="patch_1">
   <path d="M 0 288 
L 432 288 
L 432 0 
L 0 0 
z
" style="fill:#ffffff;"/>
  </g>
  <g id="axes_1">
   <g id="patch_2">
    <path d="M 11.608714 239.068 
L 421.2 239.068 
L 421.2 10.8 
L 11.608714 10.8 
z
" style="fill:#ffffff;"/>
   </g>
   <g id="matplotlib.axis_1">
    <g id="xtick_1">
     <g id="line2d_1">
      <defs>
       <path d="M 0 0 
L 0 5 
" id="me454784686" style="stroke:#000000;stroke-width:1.3;"/>
      </defs>
      <g>
       <use style="stroke:#000000;stroke-width:1.3;" x="398.298226" xlink:href="#me454784686" y="239.068"/>
      </g>
     </g>
     <g id="text_1">
      <!-- 4.620 -->
      <g transform="translate(383.984164 255.166437)scale(0.1 -0.1)">
       <defs>
        <path d="M 2419 4116 
L 825 1625 
L 2419 1625 
L 2419 4116 
z
M 2253 4666 
L 3047 4666 
L 3047 1625 
L 3713 1625 
L 3713 1100 
L 3047 1100 
L 3047 0 
L 2419 0 
L 2419 1100 
L 313 1100 
L 313 1709 
L 2253 4666 
z
" id="DejaVuSans-34" transform="scale(0.015625)"/>
        <path d="M 684 794 
L 1344 794 
L 1344 0 
L 684 0 
L 684 794 
z
" id="DejaVuSans-2e" transform="scale(0.015625)"/>
        <path d="M 2113 2584 
Q 1688 2584 1439 2293 
Q 1191 2003 1191 1497 
Q 1191 994 1439 701 
Q 1688 409 2113 409 
Q 2538 409 2786 701 
Q 3034 994 3034 1497 
Q 3034 2003 2786 2293 
Q 2538 2584 2113 2584 
z
M 3366 4563 
L 3366 3988 
Q 3128 4100 2886 4159 
Q 2644 4219 2406 4219 
Q 1781 4219 1451 3797 
Q 1122 3375 1075 2522 
Q 1259 2794 1537 2939 
Q 1816 3084 2150 3084 
Q 2853 3084 3261 2657 
Q 3669 2231 3669 1497 
Q 3669 778 3244 343 
Q 2819 -91 2113 -91 
Q 1303 -91 875 529 
Q 447 1150 447 2328 
Q 447 3434 972 4092 
Q 1497 4750 2381 4750 
Q 2619 4750 2861 4703 
Q 3103 4656 3366 4563 
z
" id="DejaVuSans-36" transform="scale(0.015625)"/>
        <path d="M 1228 531 
L 3431 531 
L 3431 0 
L 469 0 
L 469 531 
Q 828 903 1448 1529 
Q 2069 2156 2228 2338 
Q 2531 2678 2651 2914 
Q 2772 3150 2772 3378 
Q 2772 3750 2511 3984 
Q 2250 4219 1831 4219 
Q 1534 4219 1204 4116 
Q 875 4013 500 3803 
L 500 4441 
Q 881 4594 1212 4672 
Q 1544 4750 1819 4750 
Q 2544 4750 2975 4387 
Q 3406 4025 3406 3419 
Q 3406 3131 3298 2873 
Q 3191 2616 2906 2266 
Q 2828 2175 2409 1742 
Q 1991 1309 1228 531 
z
" id="DejaVuSans-32" transform="scale(0.015625)"/>
        <path d="M 2034 4250 
Q 1547 4250 1301 3770 
Q 1056 3291 1056 2328 
Q 1056 1369 1301 889 
Q 1547 409 2034 409 
Q 2525 409 2770 889 
Q 3016 1369 3016 2328 
Q 3016 3291 2770 3770 
Q 2525 4250 2034 4250 
z
M 2034 4750 
Q 2819 4750 3233 4129 
Q 3647 3509 3647 2328 
Q 3647 1150 3233 529 
Q 2819 -91 2034 -91 
Q 1250 -91 836 529 
Q 422 1150 422 2328 
Q 422 3509 836 4129 
Q 1250 4750 2034 4750 
z
" id="DejaVuSans-30" transform="scale(0.015625)"/>
       </defs>
       <use xlink:href="#DejaVuSans-34"/>
       <use x="63.623047" xlink:href="#DejaVuSans-2e"/>
       <use x="95.410156" xlink:href="#DejaVuSans-36"/>
       <use x="159.033203" xlink:href="#DejaVuSans-32"/>
       <use x="222.65625" xlink:href="#DejaVuSans-30"/>
      </g>
     </g>
    </g>
    <g id="xtick_2">
     <g id="line2d_2">
      <g>
       <use style="stroke:#000000;stroke-width:1.3;" x="336.584515" xlink:href="#me454784686" y="239.068"/>
      </g>
     </g>
     <g id="text_2">
      <!-- 4.625 -->
      <g transform="translate(322.270453 255.166437)scale(0.1 -0.1)">
       <defs>
        <path d="M 691 4666 
L 3169 4666 
L 3169 4134 
L 1269 4134 
L 1269 2991 
Q 1406 3038 1543 3061 
Q 1681 3084 1819 3084 
Q 2600 3084 3056 2656 
Q 3513 2228 3513 1497 
Q 3513 744 3044 326 
Q 2575 -91 1722 -91 
Q 1428 -91 1123 -41 
Q 819 9 494 109 
L 494 744 
Q 775 591 1075 516 
Q 1375 441 1709 441 
Q 2250 441 2565 725 
Q 2881 1009 2881 1497 
Q 2881 1984 2565 2268 
Q 2250 2553 1709 2553 
Q 1456 2553 1204 2497 
Q 953 2441 691 2322 
L 691 4666 
z
" id="DejaVuSans-35" transform="scale(0.015625)"/>
       </defs>
       <use xlink:href="#DejaVuSans-34"/>
       <use x="63.623047" xlink:href="#DejaVuSans-2e"/>
       <use x="95.410156" xlink:href="#DejaVuSans-36"/>
       <use x="159.033203" xlink:href="#DejaVuSans-32"/>
       <use x="222.65625" xlink:href="#DejaVuSans-35"/>
      </g>
     </g>
    </g>
    <g id="xtick_3">
     <g id="line2d_3">
      <g>
       <use style="stroke:#000000;stroke-width:1.3;" x="274.870804" xlink:href="#me454784686" y="239.068"/>
      </g>
     </g>
     <g id="text_3">
      <!-- 4.630 -->
      <g transform="translate(260.556742 255.166437)scale(0.1 -0.1)">
       <defs>
        <path d="M 2597 2516 
Q 3050 2419 3304 2112 
Q 3559 1806 3559 1356 
Q 3559 666 3084 287 
Q 2609 -91 1734 -91 
Q 1441 -91 1130 -33 
Q 819 25 488 141 
L 488 750 
Q 750 597 1062 519 
Q 1375 441 1716 441 
Q 2309 441 2620 675 
Q 2931 909 2931 1356 
Q 2931 1769 2642 2001 
Q 2353 2234 1838 2234 
L 1294 2234 
L 1294 2753 
L 1863 2753 
Q 2328 2753 2575 2939 
Q 2822 3125 2822 3475 
Q 2822 3834 2567 4026 
Q 2313 4219 1838 4219 
Q 1578 4219 1281 4162 
Q 984 4106 628 3988 
L 628 4550 
Q 988 4650 1302 4700 
Q 1616 4750 1894 4750 
Q 2613 4750 3031 4423 
Q 3450 4097 3450 3541 
Q 3450 3153 3228 2886 
Q 3006 2619 2597 2516 
z
" id="DejaVuSans-33" transform="scale(0.015625)"/>
       </defs>
       <use xlink:href="#DejaVuSans-34"/>
       <use x="63.623047" xlink:href="#DejaVuSans-2e"/>
       <use x="95.410156" xlink:href="#DejaVuSans-36"/>
       <use x="159.033203" xlink:href="#DejaVuSans-33"/>
       <use x="222.65625" xlink:href="#DejaVuSans-30"/>
      </g>
     </g>
    </g>
    <g id="xtick_4">
     <g id="line2d_4">
      <g>
       <use style="stroke:#000000;stroke-width:1.3;" x="213.157093" xlink:href="#me454784686" y="239.068"/>
      </g>
     </g>
     <g id="text_4">
      <!-- 4.635 -->
      <g transform="translate(198.84303 255.166437)scale(0.1 -0.1)">
       <use xlink:href="#DejaVuSans-34"/>
       <use x="63.623047" xlink:href="#DejaVuSans-2e"/>
       <use x="95.410156" xlink:href="#DejaVuSans-36"/>
       <use x="159.033203" xlink:href="#DejaVuSans-33"/>
       <use x="222.65625" xlink:href="#DejaVuSans-35"/>
      </g>
     </g>
    </g>
    <g id="xtick_5">
     <g id="line2d_5">
      <g>
       <use style="stroke:#000000;stroke-width:1.3;" x="151.443382" xlink:href="#me454784686" y="239.068"/>
      </g>
     </g>
     <g id="text_5">
      <!-- 4.640 -->
      <g transform="translate(137.129319 255.166437)scale(0.1 -0.1)">
       <use xlink:href="#DejaVuSans-34"/>
       <use x="63.623047" xlink:href="#DejaVuSans-2e"/>
       <use x="95.410156" xlink:href="#DejaVuSans-36"/>
       <use x="159.033203" xlink:href="#DejaVuSans-34"/>
       <use x="222.65625" xlink:href="#DejaVuSans-30"/>
      </g>
     </g>
    </g>
    <g id="xtick_6">
     <g id="line2d_6">
      <g>
       <use style="stroke:#000000;stroke-width:1.3;" x="89.729671" xlink:href="#me454784686" y="239.068"/>
      </g>
     </g>
     <g id="text_6">
      <!-- 4.645 -->
      <g transform="translate(75.415608 255.166437)scale(0.1 -0.1)">
       <use xlink:href="#DejaVuSans-34"/>
       <use x="63.623047" xlink:href="#DejaVuSans-2e"/>
       <use x="95.410156" xlink:href="#DejaVuSans-36"/>
       <use x="159.033203" xlink:href="#DejaVuSans-34"/>
       <use x="222.65625" xlink:href="#DejaVuSans-35"/>
      </g>
     </g>
    </g>
    <g id="xtick_7">
     <g id="line2d_7">
      <g>
       <use style="stroke:#000000;stroke-width:1.3;" x="28.01596" xlink:href="#me454784686" y="239.068"/>
      </g>
     </g>
     <g id="text_7">
      <!-- 4.650 -->
      <g transform="translate(13.701897 255.166437)scale(0.1 -0.1)">
       <use xlink:href="#DejaVuSans-34"/>
       <use x="63.623047" xlink:href="#DejaVuSans-2e"/>
       <use x="95.410156" xlink:href="#DejaVuSans-36"/>
       <use x="159.033203" xlink:href="#DejaVuSans-35"/>
       <use x="222.65625" xlink:href="#DejaVuSans-30"/>
      </g>
     </g>
    </g>
    <g id="xtick_8">
     <g id="line2d_8">
      <defs>
       <path d="M 0 0 
L 0 3 
" id="m4e5a9d019b" style="stroke:#000000;stroke-width:1.3;"/>
      </defs>
      <g>
       <use style="stroke:#000000;stroke-width:1.3;" x="410.640968" xlink:href="#m4e5a9d019b" y="239.068"/>
      </g>
     </g>
    </g>
    <g id="xtick_9">
     <g id="line2d_9">
      <g>
       <use style="stroke:#000000;stroke-width:1.3;" x="385.955484" xlink:href="#m4e5a9d019b" y="239.068"/>
      </g>
     </g>
    </g>
    <g id="xtick_10">
     <g id="line2d_10">
      <g>
       <use style="stroke:#000000;stroke-width:1.3;" x="373.612742" xlink:href="#m4e5a9d019b" y="239.068"/>
      </g>
     </g>
    </g>
    <g id="xtick_11">
     <g id="line2d_11">
      <g>
       <use style="stroke:#000000;stroke-width:1.3;" x="361.27" xlink:href="#m4e5a9d019b" y="239.068"/>
      </g>
     </g>
    </g>
    <g id="xtick_12">
     <g id="line2d_12">
      <g>
       <use style="stroke:#000000;stroke-width:1.3;" x="348.927257" xlink:href="#m4e5a9d019b" y="239.068"/>
      </g>
     </g>
    </g>
    <g id="xtick_13">
     <g id="line2d_13">
      <g>
       <use style="stroke:#000000;stroke-width:1.3;" x="324.241773" xlink:href="#m4e5a9d019b" y="239.068"/>
      </g>
     </g>
    </g>
    <g id="xtick_14">
     <g id="line2d_14">
      <g>
       <use style="stroke:#000000;stroke-width:1.3;" x="311.899031" xlink:href="#m4e5a9d019b" y="239.068"/>
      </g>
     </g>
    </g>
    <g id="xtick_15">
     <g id="line2d_15">
      <g>
       <use style="stroke:#000000;stroke-width:1.3;" x="299.556288" xlink:href="#m4e5a9d019b" y="239.068"/>
      </g>
     </g>
    </g>
    <g id="xtick_16">
     <g id="line2d_16">
      <g>
       <use style="stroke:#000000;stroke-width:1.3;" x="287.213546" xlink:href="#m4e5a9d019b" y="239.068"/>
      </g>
     </g>
    </g>
    <g id="xtick_17">
     <g id="line2d_17">
      <g>
       <use style="stroke:#000000;stroke-width:1.3;" x="262.528062" xlink:href="#m4e5a9d019b" y="239.068"/>
      </g>
     </g>
    </g>
    <g id="xtick_18">
     <g id="line2d_18">
      <g>
       <use style="stroke:#000000;stroke-width:1.3;" x="250.18532" xlink:href="#m4e5a9d019b" y="239.068"/>
      </g>
     </g>
    </g>
    <g id="xtick_19">
     <g id="line2d_19">
      <g>
       <use style="stroke:#000000;stroke-width:1.3;" x="237.842577" xlink:href="#m4e5a9d019b" y="239.068"/>
      </g>
     </g>
    </g>
    <g id="xtick_20">
     <g id="line2d_20">
      <g>
       <use style="stroke:#000000;stroke-width:1.3;" x="225.499835" xlink:href="#m4e5a9d019b" y="239.068"/>
      </g>
     </g>
    </g>
    <g id="xtick_21">
     <g id="line2d_21">
      <g>
       <use style="stroke:#000000;stroke-width:1.3;" x="200.814351" xlink:href="#m4e5a9d019b" y="239.068"/>
      </g>
     </g>
    </g>
    <g id="xtick_22">
     <g id="line2d_22">
      <g>
       <use style="stroke:#000000;stroke-width:1.3;" x="188.471609" xlink:href="#m4e5a9d019b" y="239.068"/>
      </g>
     </g>
    </g>
    <g id="xtick_23">
     <g id="line2d_23">
      <g>
       <use style="stroke:#000000;stroke-width:1.3;" x="176.128866" xlink:href="#m4e5a9d019b" y="239.068"/>
      </g>
     </g>
    </g>
    <g id="xtick_24">
     <g id="line2d_24">
      <g>
       <use style="stroke:#000000;stroke-width:1.3;" x="163.786124" xlink:href="#m4e5a9d019b" y="239.068"/>
      </g>
     </g>
    </g>
    <g id="xtick_25">
     <g id="line2d_25">
      <g>
       <use style="stroke:#000000;stroke-width:1.3;" x="139.10064" xlink:href="#m4e5a9d019b" y="239.068"/>
      </g>
     </g>
    </g>
    <g id="xtick_26">
     <g id="line2d_26">
      <g>
       <use style="stroke:#000000;stroke-width:1.3;" x="126.757897" xlink:href="#m4e5a9d019b" y="239.068"/>
      </g>
     </g>
    </g>
    <g id="xtick_27">
     <g id="line2d_27">
      <g>
       <use style="stroke:#000000;stroke-width:1.3;" x="114.415155" xlink:href="#m4e5a9d019b" y="239.068"/>
      </g>
     </g>
    </g>
    <g id="xtick_28">
     <g id="line2d_28">
      <g>
       <use style="stroke:#000000;stroke-width:1.3;" x="102.072413" xlink:href="#m4e5a9d019b" y="239.068"/>
      </g>
     </g>
    </g>
    <g id="xtick_29">
     <g id="line2d_29">
      <g>
       <use style="stroke:#000000;stroke-width:1.3;" x="77.386929" xlink:href="#m4e5a9d019b" y="239.068"/>
      </g>
     </g>
    </g>
    <g id="xtick_30">
     <g id="line2d_30">
      <g>
       <use style="stroke:#000000;stroke-width:1.3;" x="65.044186" xlink:href="#m4e5a9d019b" y="239.068"/>
      </g>
     </g>
    </g>
    <g id="xtick_31">
     <g id="line2d_31">
      <g>
       <use style="stroke:#000000;stroke-width:1.3;" x="52.701444" xlink:href="#m4e5a9d019b" y="239.068"/>
      </g>
     </g>
    </g>
    <g id="xtick_32">
     <g id="line2d_32">
      <g>
       <use style="stroke:#000000;stroke-width:1.3;" x="40.358702" xlink:href="#m4e5a9d019b" y="239.068"/>
      </g>
     </g>
    </g>
    <g id="xtick_33">
     <g id="line2d_33">
      <g>
       <use style="stroke:#000000;stroke-width:1.3;" x="15.673217" xlink:href="#m4e5a9d019b" y="239.068"/>
      </g>
     </g>
    </g>
    <g id="text_8">
     <!-- $\rm ^{1}H$ (ppm) -->
     <g transform="translate(193.504357 270.246125)scale(0.1 -0.1)">
      <defs>
       <path d="M 794 531 
L 1825 531 
L 1825 4091 
L 703 3866 
L 703 4441 
L 1819 4666 
L 2450 4666 
L 2450 531 
L 3481 531 
L 3481 0 
L 794 0 
L 794 531 
z
" id="DejaVuSans-31" transform="scale(0.015625)"/>
       <path d="M 628 4666 
L 1259 4666 
L 1259 2753 
L 3553 2753 
L 3553 4666 
L 4184 4666 
L 4184 0 
L 3553 0 
L 3553 2222 
L 1259 2222 
L 1259 0 
L 628 0 
L 628 4666 
z
" id="DejaVuSans-48" transform="scale(0.015625)"/>
       <path id="DejaVuSans-20" transform="scale(0.015625)"/>
       <path d="M 1984 4856 
Q 1566 4138 1362 3434 
Q 1159 2731 1159 2009 
Q 1159 1288 1364 580 
Q 1569 -128 1984 -844 
L 1484 -844 
Q 1016 -109 783 600 
Q 550 1309 550 2009 
Q 550 2706 781 3412 
Q 1013 4119 1484 4856 
L 1984 4856 
z
" id="DejaVuSans-28" transform="scale(0.015625)"/>
       <path d="M 1159 525 
L 1159 -1331 
L 581 -1331 
L 581 3500 
L 1159 3500 
L 1159 2969 
Q 1341 3281 1617 3432 
Q 1894 3584 2278 3584 
Q 2916 3584 3314 3078 
Q 3713 2572 3713 1747 
Q 3713 922 3314 415 
Q 2916 -91 2278 -91 
Q 1894 -91 1617 61 
Q 1341 213 1159 525 
z
M 3116 1747 
Q 3116 2381 2855 2742 
Q 2594 3103 2138 3103 
Q 1681 3103 1420 2742 
Q 1159 2381 1159 1747 
Q 1159 1113 1420 752 
Q 1681 391 2138 391 
Q 2594 391 2855 752 
Q 3116 1113 3116 1747 
z
" id="DejaVuSans-70" transform="scale(0.015625)"/>
       <path d="M 3328 2828 
Q 3544 3216 3844 3400 
Q 4144 3584 4550 3584 
Q 5097 3584 5394 3201 
Q 5691 2819 5691 2113 
L 5691 0 
L 5113 0 
L 5113 2094 
Q 5113 2597 4934 2840 
Q 4756 3084 4391 3084 
Q 3944 3084 3684 2787 
Q 3425 2491 3425 1978 
L 3425 0 
L 2847 0 
L 2847 2094 
Q 2847 2600 2669 2842 
Q 2491 3084 2119 3084 
Q 1678 3084 1418 2786 
Q 1159 2488 1159 1978 
L 1159 0 
L 581 0 
L 581 3500 
L 1159 3500 
L 1159 2956 
Q 1356 3278 1631 3431 
Q 1906 3584 2284 3584 
Q 2666 3584 2933 3390 
Q 3200 3197 3328 2828 
z
" id="DejaVuSans-6d" transform="scale(0.015625)"/>
       <path d="M 513 4856 
L 1013 4856 
Q 1481 4119 1714 3412 
Q 1947 2706 1947 2009 
Q 1947 1309 1714 600 
Q 1481 -109 1013 -844 
L 513 -844 
Q 928 -128 1133 580 
Q 1338 1288 1338 2009 
Q 1338 2731 1133 3434 
Q 928 4138 513 4856 
z
" id="DejaVuSans-29" transform="scale(0.015625)"/>
      </defs>
      <use transform="translate(0.957031 38.965625)scale(0.7)" xlink:href="#DejaVuSans-31"/>
      <use transform="translate(48.227539 0.684375)" xlink:href="#DejaVuSans-48"/>
      <use transform="translate(123.422852 0.684375)" xlink:href="#DejaVuSans-20"/>
      <use transform="translate(155.209961 0.684375)" xlink:href="#DejaVuSans-28"/>
      <use transform="translate(194.223633 0.684375)" xlink:href="#DejaVuSans-70"/>
      <use transform="translate(257.700195 0.684375)" xlink:href="#DejaVuSans-70"/>
      <use transform="translate(321.176758 0.684375)" xlink:href="#DejaVuSans-6d"/>
      <use transform="translate(418.588867 0.684375)" xlink:href="#DejaVuSans-29"/>
     </g>
    </g>
   </g>
   <g id="line2d_34">
    <path clip-path="url(#pb993a6167d)" d="M 30.2265 220.504271 
L 33.229369 220.381263 
L 36.232237 220.255713 
L 39.235106 220.145649 
L 42.237975 220.053216 
L 45.240843 219.978665 
L 48.243712 219.899532 
L 51.246581 219.811488 
L 54.249449 219.723631 
L 57.252318 219.629824 
L 60.255187 219.520889 
L 63.258055 219.402508 
L 66.260924 219.283077 
L 69.263793 219.155865 
L 72.266661 219.023808 
L 75.26953 218.874185 
L 78.272399 218.700393 
L 81.275267 218.518196 
L 84.278136 218.321697 
L 87.281005 218.105463 
L 90.283873 217.868307 
L 93.286742 217.599383 
L 96.289611 217.313412 
L 99.292479 217.017549 
L 102.295348 216.695511 
L 105.298217 216.338725 
L 108.301085 215.960431 
L 111.303954 215.554962 
L 114.306823 215.125582 
L 117.309691 214.659654 
L 120.31256 214.160996 
L 123.315429 213.631938 
L 126.318297 213.063218 
L 129.321166 212.444024 
L 132.324035 211.768744 
L 135.326903 211.021761 
L 138.329772 210.196383 
L 141.332641 209.295073 
L 144.335509 208.268557 
L 147.338378 207.116448 
L 150.341246 205.81708 
L 153.344115 204.309357 
L 156.346984 202.548816 
L 159.349852 200.478651 
L 162.352721 198.009149 
L 165.35559 194.999338 
L 168.358458 191.306227 
L 171.361327 186.786665 
L 174.364196 181.268415 
L 177.367064 174.637729 
L 180.369933 166.881652 
L 183.372802 158.108815 
L 186.37567 148.555606 
L 189.378539 138.511883 
L 192.381408 128.321647 
L 195.384276 118.197804 
L 198.387145 108.123827 
L 201.390014 97.836383 
L 204.392882 86.970774 
L 207.395751 75.338962 
L 210.39862 63.148595 
L 213.401488 51.073847 
L 216.404357 40.098993 
L 219.407226 31.237538 
L 222.410094 25.185765 
L 225.412963 22.009839 
L 228.415832 21.175818 
L 231.4187 21.756434 
L 234.421569 22.883648 
L 237.424438 24.172116 
L 240.427306 25.910646 
L 243.430175 28.855618 
L 246.433044 33.88808 
L 249.435912 41.605365 
L 252.438781 51.985191 
L 255.44165 64.3271 
L 258.444518 77.508723 
L 261.447387 90.474578 
L 264.450256 102.553709 
L 267.453124 113.567417 
L 270.455993 123.738107 
L 273.458862 133.472972 
L 276.46173 143.125012 
L 279.464599 152.790052 
L 282.467468 162.283354 
L 285.470336 171.271958 
L 288.473205 179.416318 
L 291.476074 186.46649 
L 294.478942 192.394074 
L 297.481811 197.26215 
L 300.48468 201.229818 
L 303.487548 204.450746 
L 306.490417 207.056081 
L 309.493286 209.184152 
L 312.496154 210.934772 
L 315.499023 212.392966 
L 318.501892 213.603862 
L 321.50476 214.634752 
L 324.507629 215.514209 
L 327.510498 216.267603 
L 330.513366 216.921786 
L 333.516235 217.489897 
L 336.519104 217.99348 
L 339.521972 218.43997 
L 342.524841 218.836054 
L 345.52771 219.194495 
L 348.530578 219.532381 
L 351.533447 219.838636 
L 354.536316 220.131437 
L 357.539184 220.412012 
L 360.542053 220.665732 
L 363.544922 220.909734 
L 366.54779 221.12657 
L 369.550659 221.321817 
L 372.553528 221.521138 
L 375.556396 221.707022 
L 378.559265 221.886134 
L 381.562134 222.053084 
L 384.565002 222.219951 
L 387.567871 222.367688 
L 390.57074 222.513654 
L 393.573608 222.654371 
L 396.576477 222.778589 
L 399.579346 222.897148 
L 402.582214 223.014901 
" style="fill:none;stroke:#4c72b0;stroke-dasharray:3.7,1.6;stroke-dashoffset:0;"/>
   </g>
   <g id="line2d_35">
    <path clip-path="url(#pb993a6167d)" d="M 30.2265 224.504788 
L 33.229369 224.471807 
L 36.232237 224.439603 
L 39.235106 224.424236 
L 42.237975 224.434252 
L 45.240843 224.464773 
L 48.243712 224.502494 
L 51.246581 224.535396 
L 54.249449 224.557937 
L 57.252318 224.570341 
L 60.255187 224.576607 
L 63.258055 224.583039 
L 66.260924 224.595237 
L 69.263793 224.614034 
L 72.266661 224.63485 
L 75.26953 224.652321 
L 78.272399 224.665297 
L 81.275267 224.67626 
L 84.278136 224.686343 
L 87.281005 224.692966 
L 90.283873 224.693477 
L 93.286742 224.689597 
L 96.289611 224.686163 
L 99.292479 224.685666 
L 102.295348 224.685966 
L 105.298217 224.683781 
L 108.301085 224.678673 
L 111.303954 224.672857 
L 114.306823 224.668939 
L 117.309691 224.669433 
L 120.31256 224.677359 
L 123.315429 224.695061 
L 126.318297 224.722024 
L 129.321166 224.755106 
L 132.324035 224.79179 
L 135.326903 224.83296 
L 138.329772 224.882658 
L 141.332641 224.94623 
L 144.335509 225.029648 
L 147.338378 225.140494 
L 150.341246 225.289697 
L 153.344115 225.492519 
L 156.346984 225.765219 
L 159.349852 226.113387 
L 162.352721 226.512893 
L 165.35559 226.889624 
L 168.358458 227.105499 
L 171.361327 226.959941 
L 174.364196 226.219008 
L 177.367064 224.678971 
L 180.369933 222.253393 
L 183.372802 219.053075 
L 186.37567 215.416265 
L 189.378539 211.845464 
L 192.381408 208.830489 
L 195.384276 206.59964 
L 198.387145 204.919044 
L 201.390014 203.086937 
L 204.392882 200.193205 
L 207.395751 195.563813 
L 210.39862 189.181637 
L 213.401488 181.856036 
L 216.404357 175.017074 
L 219.407226 170.183649 
L 222.410094 168.319372 
L 225.412963 169.372257 
L 228.415832 172.242437 
L 231.4187 175.236458 
L 234.421569 176.823556 
L 237.424438 176.340381 
L 240.427306 174.301366 
L 243.430175 172.162395 
L 246.433044 171.649708 
L 249.435912 173.969762 
L 252.438781 179.269408 
L 255.44165 186.594321 
L 258.444518 194.345679 
L 261.447387 200.985749 
L 264.450256 205.637663 
L 267.453124 208.319034 
L 270.455993 209.762677 
L 273.458862 210.972581 
L 276.46173 212.750635 
L 279.464599 215.399447 
L 282.467468 218.695518 
L 285.470336 222.092189 
L 288.473205 225.015357 
L 291.476074 227.099257 
L 294.478942 228.271547 
L 297.481811 228.692182 
L 300.48468 228.621181 
L 303.487548 228.30133 
L 306.490417 227.901026 
L 309.493286 227.51176 
L 312.496154 227.170761 
L 315.499023 226.885261 
L 318.501892 226.649496 
L 321.50476 226.45406 
L 324.507629 226.289741 
L 327.510498 226.148746 
L 330.513366 226.025169 
L 333.516235 225.91482 
L 336.519104 225.81455 
L 339.521972 225.722193 
L 342.524841 225.637487 
L 345.52771 225.562609 
L 348.530578 225.501109 
L 351.533447 225.455649 
L 354.536316 225.42566 
L 357.539184 225.40609 
L 360.542053 225.388675 
L 363.544922 225.366198 
L 366.54779 225.337141 
L 369.550659 225.306349 
L 372.553528 225.280606 
L 375.556396 225.263294 
L 378.559265 225.25304 
L 381.562134 225.246411 
L 384.565002 225.24086 
L 387.567871 225.235269 
L 390.57074 225.228919 
L 393.573608 225.221143 
L 396.576477 225.212337 
L 399.579346 225.204574 
L 402.582214 225.200129 
" style="fill:none;stroke:#dd8452;stroke-linecap:square;"/>
   </g>
   <g id="patch_3">
    <path d="M 11.608714 239.068 
L 421.2 239.068 
" style="fill:none;stroke:#000000;stroke-linecap:square;stroke-linejoin:miter;stroke-width:1.3;"/>
   </g>
   <g id="legend_1">
    <g id="patch_4">
     <path d="M 323.0625 48.15625 
L 414.2 48.15625 
Q 416.2 48.15625 416.2 46.15625 
L 416.2 17.8 
Q 416.2 15.8 414.2 15.8 
L 323.0625 15.8 
Q 321.0625 15.8 321.0625 17.8 
L 321.0625 46.15625 
Q 321.0625 48.15625 323.0625 48.15625 
z
" style="fill:#ffffff;opacity:0.8;stroke:#cccccc;stroke-linejoin:miter;"/>
    </g>
    <g id="line2d_36">
     <path d="M 325.0625 23.898438 
L 345.0625 23.898438 
" style="fill:none;stroke:#4c72b0;stroke-dasharray:3.7,1.6;stroke-dashoffset:0;"/>
    </g>
    <g id="line2d_37"/>
    <g id="text_9">
     <!-- Exponential -->
     <g transform="translate(353.0625 27.398438)scale(0.1 -0.1)">
      <defs>
       <path d="M 628 4666 
L 3578 4666 
L 3578 4134 
L 1259 4134 
L 1259 2753 
L 3481 2753 
L 3481 2222 
L 1259 2222 
L 1259 531 
L 3634 531 
L 3634 0 
L 628 0 
L 628 4666 
z
" id="DejaVuSans-45" transform="scale(0.015625)"/>
       <path d="M 3513 3500 
L 2247 1797 
L 3578 0 
L 2900 0 
L 1881 1375 
L 863 0 
L 184 0 
L 1544 1831 
L 300 3500 
L 978 3500 
L 1906 2253 
L 2834 3500 
L 3513 3500 
z
" id="DejaVuSans-78" transform="scale(0.015625)"/>
       <path d="M 1959 3097 
Q 1497 3097 1228 2736 
Q 959 2375 959 1747 
Q 959 1119 1226 758 
Q 1494 397 1959 397 
Q 2419 397 2687 759 
Q 2956 1122 2956 1747 
Q 2956 2369 2687 2733 
Q 2419 3097 1959 3097 
z
M 1959 3584 
Q 2709 3584 3137 3096 
Q 3566 2609 3566 1747 
Q 3566 888 3137 398 
Q 2709 -91 1959 -91 
Q 1206 -91 779 398 
Q 353 888 353 1747 
Q 353 2609 779 3096 
Q 1206 3584 1959 3584 
z
" id="DejaVuSans-6f" transform="scale(0.015625)"/>
       <path d="M 3513 2113 
L 3513 0 
L 2938 0 
L 2938 2094 
Q 2938 2591 2744 2837 
Q 2550 3084 2163 3084 
Q 1697 3084 1428 2787 
Q 1159 2491 1159 1978 
L 1159 0 
L 581 0 
L 581 3500 
L 1159 3500 
L 1159 2956 
Q 1366 3272 1645 3428 
Q 1925 3584 2291 3584 
Q 2894 3584 3203 3211 
Q 3513 2838 3513 2113 
z
" id="DejaVuSans-6e" transform="scale(0.015625)"/>
       <path d="M 3597 1894 
L 3597 1613 
L 953 1613 
Q 991 1019 1311 708 
Q 1631 397 2203 397 
Q 2534 397 2845 478 
Q 3156 559 3463 722 
L 3463 178 
Q 3153 47 2828 -22 
Q 2503 -91 2169 -91 
Q 1331 -91 842 396 
Q 353 884 353 1716 
Q 353 2575 817 3079 
Q 1281 3584 2069 3584 
Q 2775 3584 3186 3129 
Q 3597 2675 3597 1894 
z
M 3022 2063 
Q 3016 2534 2758 2815 
Q 2500 3097 2075 3097 
Q 1594 3097 1305 2825 
Q 1016 2553 972 2059 
L 3022 2063 
z
" id="DejaVuSans-65" transform="scale(0.015625)"/>
       <path d="M 1172 4494 
L 1172 3500 
L 2356 3500 
L 2356 3053 
L 1172 3053 
L 1172 1153 
Q 1172 725 1289 603 
Q 1406 481 1766 481 
L 2356 481 
L 2356 0 
L 1766 0 
Q 1100 0 847 248 
Q 594 497 594 1153 
L 594 3053 
L 172 3053 
L 172 3500 
L 594 3500 
L 594 4494 
L 1172 4494 
z
" id="DejaVuSans-74" transform="scale(0.015625)"/>
       <path d="M 603 3500 
L 1178 3500 
L 1178 0 
L 603 0 
L 603 3500 
z
M 603 4863 
L 1178 4863 
L 1178 4134 
L 603 4134 
L 603 4863 
z
" id="DejaVuSans-69" transform="scale(0.015625)"/>
       <path d="M 2194 1759 
Q 1497 1759 1228 1600 
Q 959 1441 959 1056 
Q 959 750 1161 570 
Q 1363 391 1709 391 
Q 2188 391 2477 730 
Q 2766 1069 2766 1631 
L 2766 1759 
L 2194 1759 
z
M 3341 1997 
L 3341 0 
L 2766 0 
L 2766 531 
Q 2569 213 2275 61 
Q 1981 -91 1556 -91 
Q 1019 -91 701 211 
Q 384 513 384 1019 
Q 384 1609 779 1909 
Q 1175 2209 1959 2209 
L 2766 2209 
L 2766 2266 
Q 2766 2663 2505 2880 
Q 2244 3097 1772 3097 
Q 1472 3097 1187 3025 
Q 903 2953 641 2809 
L 641 3341 
Q 956 3463 1253 3523 
Q 1550 3584 1831 3584 
Q 2591 3584 2966 3190 
Q 3341 2797 3341 1997 
z
" id="DejaVuSans-61" transform="scale(0.015625)"/>
       <path d="M 603 4863 
L 1178 4863 
L 1178 0 
L 603 0 
L 603 4863 
z
" id="DejaVuSans-6c" transform="scale(0.015625)"/>
      </defs>
      <use xlink:href="#DejaVuSans-45"/>
      <use x="63.183594" xlink:href="#DejaVuSans-78"/>
      <use x="122.363281" xlink:href="#DejaVuSans-70"/>
      <use x="185.839844" xlink:href="#DejaVuSans-6f"/>
      <use x="247.021484" xlink:href="#DejaVuSans-6e"/>
      <use x="310.400391" xlink:href="#DejaVuSans-65"/>
      <use x="371.923828" xlink:href="#DejaVuSans-6e"/>
      <use x="435.302734" xlink:href="#DejaVuSans-74"/>
      <use x="474.511719" xlink:href="#DejaVuSans-69"/>
      <use x="502.294922" xlink:href="#DejaVuSans-61"/>
      <use x="563.574219" xlink:href="#DejaVuSans-6c"/>
     </g>
    </g>
    <g id="line2d_38">
     <path d="M 325.0625 38.576562 
L 345.0625 38.576562 
" style="fill:none;stroke:#dd8452;stroke-linecap:square;"/>
    </g>
    <g id="line2d_39"/>
    <g id="text_10">
     <!-- Gaussian -->
     <g transform="translate(353.0625 42.076562)scale(0.1 -0.1)">
      <defs>
       <path d="M 3809 666 
L 3809 1919 
L 2778 1919 
L 2778 2438 
L 4434 2438 
L 4434 434 
Q 4069 175 3628 42 
Q 3188 -91 2688 -91 
Q 1594 -91 976 548 
Q 359 1188 359 2328 
Q 359 3472 976 4111 
Q 1594 4750 2688 4750 
Q 3144 4750 3555 4637 
Q 3966 4525 4313 4306 
L 4313 3634 
Q 3963 3931 3569 4081 
Q 3175 4231 2741 4231 
Q 1884 4231 1454 3753 
Q 1025 3275 1025 2328 
Q 1025 1384 1454 906 
Q 1884 428 2741 428 
Q 3075 428 3337 486 
Q 3600 544 3809 666 
z
" id="DejaVuSans-47" transform="scale(0.015625)"/>
       <path d="M 544 1381 
L 544 3500 
L 1119 3500 
L 1119 1403 
Q 1119 906 1312 657 
Q 1506 409 1894 409 
Q 2359 409 2629 706 
Q 2900 1003 2900 1516 
L 2900 3500 
L 3475 3500 
L 3475 0 
L 2900 0 
L 2900 538 
Q 2691 219 2414 64 
Q 2138 -91 1772 -91 
Q 1169 -91 856 284 
Q 544 659 544 1381 
z
M 1991 3584 
L 1991 3584 
z
" id="DejaVuSans-75" transform="scale(0.015625)"/>
       <path d="M 2834 3397 
L 2834 2853 
Q 2591 2978 2328 3040 
Q 2066 3103 1784 3103 
Q 1356 3103 1142 2972 
Q 928 2841 928 2578 
Q 928 2378 1081 2264 
Q 1234 2150 1697 2047 
L 1894 2003 
Q 2506 1872 2764 1633 
Q 3022 1394 3022 966 
Q 3022 478 2636 193 
Q 2250 -91 1575 -91 
Q 1294 -91 989 -36 
Q 684 19 347 128 
L 347 722 
Q 666 556 975 473 
Q 1284 391 1588 391 
Q 1994 391 2212 530 
Q 2431 669 2431 922 
Q 2431 1156 2273 1281 
Q 2116 1406 1581 1522 
L 1381 1569 
Q 847 1681 609 1914 
Q 372 2147 372 2553 
Q 372 3047 722 3315 
Q 1072 3584 1716 3584 
Q 2034 3584 2315 3537 
Q 2597 3491 2834 3397 
z
" id="DejaVuSans-73" transform="scale(0.015625)"/>
      </defs>
      <use xlink:href="#DejaVuSans-47"/>
      <use x="77.490234" xlink:href="#DejaVuSans-61"/>
      <use x="138.769531" xlink:href="#DejaVuSans-75"/>
      <use x="202.148438" xlink:href="#DejaVuSans-73"/>
      <use x="254.248047" xlink:href="#DejaVuSans-73"/>
      <use x="306.347656" xlink:href="#DejaVuSans-69"/>
      <use x="334.130859" xlink:href="#DejaVuSans-61"/>
      <use x="395.410156" xlink:href="#DejaVuSans-6e"/>
     </g>
    </g>
   </g>
  </g>
 </g>
 <defs>
  <clipPath id="pb993a6167d">
   <rect height="228.268" width="409.591286" x="11.608714" y="10.8"/>
  </clipPath>
 </defs>
</svg>
