<?xml version="1.0" encoding="utf-8" standalone="no"?>
<!DOCTYPE svg PUBLIC "-//W3C//DTD SVG 1.1//EN"
  "http://www.w3.org/Graphics/SVG/1.1/DTD/svg11.dtd">
<!-- Created with matplotlib (https://matplotlib.org/) -->
<svg height="288pt" version="1.1" viewBox="0 0 432 288" width="432pt" xmlns="http://www.w3.org/2000/svg" xmlns:xlink="http://www.w3.org/1999/xlink">
 <metadata>
  <rdf:RDF xmlns:cc="http://creativecommons.org/ns#" xmlns:dc="http://purl.org/dc/elements/1.1/" xmlns:rdf="http://www.w3.org/1999/02/22-rdf-syntax-ns#">
   <cc:Work>
    <dc:type rdf:resource="http://purl.org/dc/dcmitype/StillImage"/>
    <dc:date>2020-11-14T18:15:22.370544</dc:date>
    <dc:format>image/svg+xml</dc:format>
    <dc:creator>
     <cc:Agent>
      <dc:title>Matplotlib v3.3.3, https://matplotlib.org/</dc:title>
     </cc:Agent>
    </dc:creator>
   </cc:Work>
  </rdf:RDF>
 </metadata>
 <defs>
  <style type="text/css">*{stroke-linecap:butt;stroke-linejoin:round;}</style>
 </defs>
 <g id="figure_1">
  <g id="patch_1">
   <path d="M 0 288 
L 432 288 
L 432 0 
L 0 0 
z
" style="fill:#ffffff;"/>
  </g>
  <g id="axes_1">
   <g id="patch_2">
    <path d="M 10.8 239.068 
L 421.2 239.068 
L 421.2 10.8 
L 10.8 10.8 
z
" style="fill:#ffffff;"/>
   </g>
   <g id="matplotlib.axis_1">
    <g id="xtick_1">
     <g id="line2d_1">
      <defs>
       <path d="M 0 0 
L 0 5 
" id="m7404197d04" style="stroke:#000000;stroke-width:1.3;"/>
      </defs>
      <g>
       <use style="stroke:#000000;stroke-width:1.3;" x="402.522997" xlink:href="#m7404197d04" y="239.068"/>
      </g>
     </g>
     <g id="text_1">
      <!-- 2 -->
      <g transform="translate(399.341747 255.166437)scale(0.1 -0.1)">
       <defs>
        <path d="M 19.1875 8.296875 
L 53.609375 8.296875 
L 53.609375 0 
L 7.328125 0 
L 7.328125 8.296875 
Q 12.9375 14.109375 22.625 23.890625 
Q 32.328125 33.6875 34.8125 36.53125 
Q 39.546875 41.84375 41.421875 45.53125 
Q 43.3125 49.21875 43.3125 52.78125 
Q 43.3125 58.59375 39.234375 62.25 
Q 35.15625 65.921875 28.609375 65.921875 
Q 23.96875 65.921875 18.8125 64.3125 
Q 13.671875 62.703125 7.8125 59.421875 
L 7.8125 69.390625 
Q 13.765625 71.78125 18.9375 73 
Q 24.125 74.21875 28.421875 74.21875 
Q 39.75 74.21875 46.484375 68.546875 
Q 53.21875 62.890625 53.21875 53.421875 
Q 53.21875 48.921875 51.53125 44.890625 
Q 49.859375 40.875 45.40625 35.40625 
Q 44.1875 33.984375 37.640625 27.21875 
Q 31.109375 20.453125 19.1875 8.296875 
z
" id="DejaVuSans-50"/>
       </defs>
       <use xlink:href="#DejaVuSans-50"/>
      </g>
     </g>
    </g>
    <g id="xtick_2">
     <g id="line2d_2">
      <g>
       <use style="stroke:#000000;stroke-width:1.3;" x="327.906981" xlink:href="#m7404197d04" y="239.068"/>
      </g>
     </g>
     <g id="text_2">
      <!-- 3 -->
      <g transform="translate(324.725731 255.166437)scale(0.1 -0.1)">
       <defs>
        <path d="M 40.578125 39.3125 
Q 47.65625 37.796875 51.625 33 
Q 55.609375 28.21875 55.609375 21.1875 
Q 55.609375 10.40625 48.1875 4.484375 
Q 40.765625 -1.421875 27.09375 -1.421875 
Q 22.515625 -1.421875 17.65625 -0.515625 
Q 12.796875 0.390625 7.625 2.203125 
L 7.625 11.71875 
Q 11.71875 9.328125 16.59375 8.109375 
Q 21.484375 6.890625 26.8125 6.890625 
Q 36.078125 6.890625 40.9375 10.546875 
Q 45.796875 14.203125 45.796875 21.1875 
Q 45.796875 27.640625 41.28125 31.265625 
Q 36.765625 34.90625 28.71875 34.90625 
L 20.21875 34.90625 
L 20.21875 43.015625 
L 29.109375 43.015625 
Q 36.375 43.015625 40.234375 45.921875 
Q 44.09375 48.828125 44.09375 54.296875 
Q 44.09375 59.90625 40.109375 62.90625 
Q 36.140625 65.921875 28.71875 65.921875 
Q 24.65625 65.921875 20.015625 65.03125 
Q 15.375 64.15625 9.8125 62.3125 
L 9.8125 71.09375 
Q 15.4375 72.65625 20.34375 73.4375 
Q 25.25 74.21875 29.59375 74.21875 
Q 40.828125 74.21875 47.359375 69.109375 
Q 53.90625 64.015625 53.90625 55.328125 
Q 53.90625 49.265625 50.4375 45.09375 
Q 46.96875 40.921875 40.578125 39.3125 
z
" id="DejaVuSans-51"/>
       </defs>
       <use xlink:href="#DejaVuSans-51"/>
      </g>
     </g>
    </g>
    <g id="xtick_3">
     <g id="line2d_3">
      <g>
       <use style="stroke:#000000;stroke-width:1.3;" x="253.290965" xlink:href="#m7404197d04" y="239.068"/>
      </g>
     </g>
     <g id="text_3">
      <!-- 4 -->
      <g transform="translate(250.109715 255.166437)scale(0.1 -0.1)">
       <defs>
        <path d="M 37.796875 64.3125 
L 12.890625 25.390625 
L 37.796875 25.390625 
z
M 35.203125 72.90625 
L 47.609375 72.90625 
L 47.609375 25.390625 
L 58.015625 25.390625 
L 58.015625 17.1875 
L 47.609375 17.1875 
L 47.609375 0 
L 37.796875 0 
L 37.796875 17.1875 
L 4.890625 17.1875 
L 4.890625 26.703125 
z
" id="DejaVuSans-52"/>
       </defs>
       <use xlink:href="#DejaVuSans-52"/>
      </g>
     </g>
    </g>
    <g id="xtick_4">
     <g id="line2d_4">
      <g>
       <use style="stroke:#000000;stroke-width:1.3;" x="178.674948" xlink:href="#m7404197d04" y="239.068"/>
      </g>
     </g>
     <g id="text_4">
      <!-- 5 -->
      <g transform="translate(175.493698 255.166437)scale(0.1 -0.1)">
       <defs>
        <path d="M 10.796875 72.90625 
L 49.515625 72.90625 
L 49.515625 64.59375 
L 19.828125 64.59375 
L 19.828125 46.734375 
Q 21.96875 47.46875 24.109375 47.828125 
Q 26.265625 48.1875 28.421875 48.1875 
Q 40.625 48.1875 47.75 41.5 
Q 54.890625 34.8125 54.890625 23.390625 
Q 54.890625 11.625 47.5625 5.09375 
Q 40.234375 -1.421875 26.90625 -1.421875 
Q 22.3125 -1.421875 17.546875 -0.640625 
Q 12.796875 0.140625 7.71875 1.703125 
L 7.71875 11.625 
Q 12.109375 9.234375 16.796875 8.0625 
Q 21.484375 6.890625 26.703125 6.890625 
Q 35.15625 6.890625 40.078125 11.328125 
Q 45.015625 15.765625 45.015625 23.390625 
Q 45.015625 31 40.078125 35.4375 
Q 35.15625 39.890625 26.703125 39.890625 
Q 22.75 39.890625 18.8125 39.015625 
Q 14.890625 38.140625 10.796875 36.28125 
z
" id="DejaVuSans-53"/>
       </defs>
       <use xlink:href="#DejaVuSans-53"/>
      </g>
     </g>
    </g>
    <g id="xtick_5">
     <g id="line2d_5">
      <g>
       <use style="stroke:#000000;stroke-width:1.3;" x="104.058932" xlink:href="#m7404197d04" y="239.068"/>
      </g>
     </g>
     <g id="text_5">
      <!-- 6 -->
      <g transform="translate(100.877682 255.166437)scale(0.1 -0.1)">
       <defs>
        <path d="M 33.015625 40.375 
Q 26.375 40.375 22.484375 35.828125 
Q 18.609375 31.296875 18.609375 23.390625 
Q 18.609375 15.53125 22.484375 10.953125 
Q 26.375 6.390625 33.015625 6.390625 
Q 39.65625 6.390625 43.53125 10.953125 
Q 47.40625 15.53125 47.40625 23.390625 
Q 47.40625 31.296875 43.53125 35.828125 
Q 39.65625 40.375 33.015625 40.375 
z
M 52.59375 71.296875 
L 52.59375 62.3125 
Q 48.875 64.0625 45.09375 64.984375 
Q 41.3125 65.921875 37.59375 65.921875 
Q 27.828125 65.921875 22.671875 59.328125 
Q 17.53125 52.734375 16.796875 39.40625 
Q 19.671875 43.65625 24.015625 45.921875 
Q 28.375 48.1875 33.59375 48.1875 
Q 44.578125 48.1875 50.953125 41.515625 
Q 57.328125 34.859375 57.328125 23.390625 
Q 57.328125 12.15625 50.6875 5.359375 
Q 44.046875 -1.421875 33.015625 -1.421875 
Q 20.359375 -1.421875 13.671875 8.265625 
Q 6.984375 17.96875 6.984375 36.375 
Q 6.984375 53.65625 15.1875 63.9375 
Q 23.390625 74.21875 37.203125 74.21875 
Q 40.921875 74.21875 44.703125 73.484375 
Q 48.484375 72.75 52.59375 71.296875 
z
" id="DejaVuSans-54"/>
       </defs>
       <use xlink:href="#DejaVuSans-54"/>
      </g>
     </g>
    </g>
    <g id="xtick_6">
     <g id="line2d_6">
      <g>
       <use style="stroke:#000000;stroke-width:1.3;" x="29.442916" xlink:href="#m7404197d04" y="239.068"/>
      </g>
     </g>
     <g id="text_6">
      <!-- 7 -->
      <g transform="translate(26.261666 255.166437)scale(0.1 -0.1)">
       <defs>
        <path d="M 8.203125 72.90625 
L 55.078125 72.90625 
L 55.078125 68.703125 
L 28.609375 0 
L 18.3125 0 
L 43.21875 64.59375 
L 8.203125 64.59375 
z
" id="DejaVuSans-55"/>
       </defs>
       <use xlink:href="#DejaVuSans-55"/>
      </g>
     </g>
    </g>
    <g id="xtick_7">
     <g id="line2d_7">
      <defs>
       <path d="M 0 0 
L 0 3 
" id="m0a27de54fd" style="stroke:#000000;stroke-width:1.3;"/>
      </defs>
      <g>
       <use style="stroke:#000000;stroke-width:1.3;" x="417.4462" xlink:href="#m0a27de54fd" y="239.068"/>
      </g>
     </g>
    </g>
    <g id="xtick_8">
     <g id="line2d_8">
      <g>
       <use style="stroke:#000000;stroke-width:1.3;" x="387.599793" xlink:href="#m0a27de54fd" y="239.068"/>
      </g>
     </g>
    </g>
    <g id="xtick_9">
     <g id="line2d_9">
      <g>
       <use style="stroke:#000000;stroke-width:1.3;" x="372.67659" xlink:href="#m0a27de54fd" y="239.068"/>
      </g>
     </g>
    </g>
    <g id="xtick_10">
     <g id="line2d_10">
      <g>
       <use style="stroke:#000000;stroke-width:1.3;" x="357.753387" xlink:href="#m0a27de54fd" y="239.068"/>
      </g>
     </g>
    </g>
    <g id="xtick_11">
     <g id="line2d_11">
      <g>
       <use style="stroke:#000000;stroke-width:1.3;" x="342.830184" xlink:href="#m0a27de54fd" y="239.068"/>
      </g>
     </g>
    </g>
    <g id="xtick_12">
     <g id="line2d_12">
      <g>
       <use style="stroke:#000000;stroke-width:1.3;" x="312.983777" xlink:href="#m0a27de54fd" y="239.068"/>
      </g>
     </g>
    </g>
    <g id="xtick_13">
     <g id="line2d_13">
      <g>
       <use style="stroke:#000000;stroke-width:1.3;" x="298.060574" xlink:href="#m0a27de54fd" y="239.068"/>
      </g>
     </g>
    </g>
    <g id="xtick_14">
     <g id="line2d_14">
      <g>
       <use style="stroke:#000000;stroke-width:1.3;" x="283.137371" xlink:href="#m0a27de54fd" y="239.068"/>
      </g>
     </g>
    </g>
    <g id="xtick_15">
     <g id="line2d_15">
      <g>
       <use style="stroke:#000000;stroke-width:1.3;" x="268.214168" xlink:href="#m0a27de54fd" y="239.068"/>
      </g>
     </g>
    </g>
    <g id="xtick_16">
     <g id="line2d_16">
      <g>
       <use style="stroke:#000000;stroke-width:1.3;" x="238.367761" xlink:href="#m0a27de54fd" y="239.068"/>
      </g>
     </g>
    </g>
    <g id="xtick_17">
     <g id="line2d_17">
      <g>
       <use style="stroke:#000000;stroke-width:1.3;" x="223.444558" xlink:href="#m0a27de54fd" y="239.068"/>
      </g>
     </g>
    </g>
    <g id="xtick_18">
     <g id="line2d_18">
      <g>
       <use style="stroke:#000000;stroke-width:1.3;" x="208.521355" xlink:href="#m0a27de54fd" y="239.068"/>
      </g>
     </g>
    </g>
    <g id="xtick_19">
     <g id="line2d_19">
      <g>
       <use style="stroke:#000000;stroke-width:1.3;" x="193.598152" xlink:href="#m0a27de54fd" y="239.068"/>
      </g>
     </g>
    </g>
    <g id="xtick_20">
     <g id="line2d_20">
      <g>
       <use style="stroke:#000000;stroke-width:1.3;" x="163.751745" xlink:href="#m0a27de54fd" y="239.068"/>
      </g>
     </g>
    </g>
    <g id="xtick_21">
     <g id="line2d_21">
      <g>
       <use style="stroke:#000000;stroke-width:1.3;" x="148.828542" xlink:href="#m0a27de54fd" y="239.068"/>
      </g>
     </g>
    </g>
    <g id="xtick_22">
     <g id="line2d_22">
      <g>
       <use style="stroke:#000000;stroke-width:1.3;" x="133.905339" xlink:href="#m0a27de54fd" y="239.068"/>
      </g>
     </g>
    </g>
    <g id="xtick_23">
     <g id="line2d_23">
      <g>
       <use style="stroke:#000000;stroke-width:1.3;" x="118.982136" xlink:href="#m0a27de54fd" y="239.068"/>
      </g>
     </g>
    </g>
    <g id="xtick_24">
     <g id="line2d_24">
      <g>
       <use style="stroke:#000000;stroke-width:1.3;" x="89.135729" xlink:href="#m0a27de54fd" y="239.068"/>
      </g>
     </g>
    </g>
    <g id="xtick_25">
     <g id="line2d_25">
      <g>
       <use style="stroke:#000000;stroke-width:1.3;" x="74.212526" xlink:href="#m0a27de54fd" y="239.068"/>
      </g>
     </g>
    </g>
    <g id="xtick_26">
     <g id="line2d_26">
      <g>
       <use style="stroke:#000000;stroke-width:1.3;" x="59.289323" xlink:href="#m0a27de54fd" y="239.068"/>
      </g>
     </g>
    </g>
    <g id="xtick_27">
     <g id="line2d_27">
      <g>
       <use style="stroke:#000000;stroke-width:1.3;" x="44.36612" xlink:href="#m0a27de54fd" y="239.068"/>
      </g>
     </g>
    </g>
    <g id="xtick_28">
     <g id="line2d_28">
      <g>
       <use style="stroke:#000000;stroke-width:1.3;" x="14.519713" xlink:href="#m0a27de54fd" y="239.068"/>
      </g>
     </g>
    </g>
    <g id="text_7">
     <!-- $^{1}$H (ppm) -->
     <g transform="translate(193.1 270.246125)scale(0.1 -0.1)">
      <defs>
       <path d="M 12.40625 8.296875 
L 28.515625 8.296875 
L 28.515625 63.921875 
L 10.984375 60.40625 
L 10.984375 69.390625 
L 28.421875 72.90625 
L 38.28125 72.90625 
L 38.28125 8.296875 
L 54.390625 8.296875 
L 54.390625 0 
L 12.40625 0 
z
" id="DejaVuSans-49"/>
       <path d="M 9.8125 72.90625 
L 19.671875 72.90625 
L 19.671875 43.015625 
L 55.515625 43.015625 
L 55.515625 72.90625 
L 65.375 72.90625 
L 65.375 0 
L 55.515625 0 
L 55.515625 34.71875 
L 19.671875 34.71875 
L 19.671875 0 
L 9.8125 0 
z
" id="DejaVuSans-72"/>
       <path id="DejaVuSans-32"/>
       <path d="M 31 75.875 
Q 24.46875 64.65625 21.28125 53.65625 
Q 18.109375 42.671875 18.109375 31.390625 
Q 18.109375 20.125 21.3125 9.0625 
Q 24.515625 -2 31 -13.1875 
L 23.1875 -13.1875 
Q 15.875 -1.703125 12.234375 9.375 
Q 8.59375 20.453125 8.59375 31.390625 
Q 8.59375 42.28125 12.203125 53.3125 
Q 15.828125 64.359375 23.1875 75.875 
z
" id="DejaVuSans-40"/>
       <path d="M 18.109375 8.203125 
L 18.109375 -20.796875 
L 9.078125 -20.796875 
L 9.078125 54.6875 
L 18.109375 54.6875 
L 18.109375 46.390625 
Q 20.953125 51.265625 25.265625 53.625 
Q 29.59375 56 35.59375 56 
Q 45.5625 56 51.78125 48.09375 
Q 58.015625 40.1875 58.015625 27.296875 
Q 58.015625 14.40625 51.78125 6.484375 
Q 45.5625 -1.421875 35.59375 -1.421875 
Q 29.59375 -1.421875 25.265625 0.953125 
Q 20.953125 3.328125 18.109375 8.203125 
z
M 48.6875 27.296875 
Q 48.6875 37.203125 44.609375 42.84375 
Q 40.53125 48.484375 33.40625 48.484375 
Q 26.265625 48.484375 22.1875 42.84375 
Q 18.109375 37.203125 18.109375 27.296875 
Q 18.109375 17.390625 22.1875 11.75 
Q 26.265625 6.109375 33.40625 6.109375 
Q 40.53125 6.109375 44.609375 11.75 
Q 48.6875 17.390625 48.6875 27.296875 
z
" id="DejaVuSans-112"/>
       <path d="M 52 44.1875 
Q 55.375 50.25 60.0625 53.125 
Q 64.75 56 71.09375 56 
Q 79.640625 56 84.28125 50.015625 
Q 88.921875 44.046875 88.921875 33.015625 
L 88.921875 0 
L 79.890625 0 
L 79.890625 32.71875 
Q 79.890625 40.578125 77.09375 44.375 
Q 74.3125 48.1875 68.609375 48.1875 
Q 61.625 48.1875 57.5625 43.546875 
Q 53.515625 38.921875 53.515625 30.90625 
L 53.515625 0 
L 44.484375 0 
L 44.484375 32.71875 
Q 44.484375 40.625 41.703125 44.40625 
Q 38.921875 48.1875 33.109375 48.1875 
Q 26.21875 48.1875 22.15625 43.53125 
Q 18.109375 38.875 18.109375 30.90625 
L 18.109375 0 
L 9.078125 0 
L 9.078125 54.6875 
L 18.109375 54.6875 
L 18.109375 46.1875 
Q 21.1875 51.21875 25.484375 53.609375 
Q 29.78125 56 35.6875 56 
Q 41.65625 56 45.828125 52.96875 
Q 50 49.953125 52 44.1875 
z
" id="DejaVuSans-109"/>
       <path d="M 8.015625 75.875 
L 15.828125 75.875 
Q 23.140625 64.359375 26.78125 53.3125 
Q 30.421875 42.28125 30.421875 31.390625 
Q 30.421875 20.453125 26.78125 9.375 
Q 23.140625 -1.703125 15.828125 -13.1875 
L 8.015625 -13.1875 
Q 14.5 -2 17.703125 9.0625 
Q 20.90625 20.125 20.90625 31.390625 
Q 20.90625 42.671875 17.703125 53.65625 
Q 14.5 64.65625 8.015625 75.875 
z
" id="DejaVuSans-41"/>
      </defs>
      <use transform="translate(0.957031 38.965625)scale(0.7)" xlink:href="#DejaVuSans-49"/>
      <use transform="translate(48.227539 0.684375)" xlink:href="#DejaVuSans-72"/>
      <use transform="translate(123.422852 0.684375)" xlink:href="#DejaVuSans-32"/>
      <use transform="translate(155.209961 0.684375)" xlink:href="#DejaVuSans-40"/>
      <use transform="translate(194.223633 0.684375)" xlink:href="#DejaVuSans-112"/>
      <use transform="translate(257.700195 0.684375)" xlink:href="#DejaVuSans-112"/>
      <use transform="translate(321.176758 0.684375)" xlink:href="#DejaVuSans-109"/>
      <use transform="translate(418.588867 0.684375)" xlink:href="#DejaVuSans-41"/>
     </g>
    </g>
   </g>
   <g id="line2d_29">
    <path clip-path="url(#p2bcd328136)" d="M 29.454545 228.6817 
L 69.470102 228.681659 
L 72.206208 228.682515 
L 73.893474 228.683052 
L 77.769624 228.68127 
L 80.163717 228.682074 
L 84.381882 228.682612 
L 91.381754 228.680953 
L 121.661331 228.681839 
L 123.417 228.681076 
L 128.113982 228.680994 
L 140.722873 228.561875 
L 140.814076 228.126366 
L 140.836877 227.911719 
L 140.882479 228.189596 
L 141.042085 228.635545 
L 141.475302 228.671828 
L 146.765108 228.50493 
L 146.924714 228.285637 
L 147.061519 227.633312 
L 147.221125 225.715774 
L 147.426333 222.910506 
L 147.494736 223.286586 
L 147.563139 222.83753 
L 147.60874 223.280496 
L 147.882351 226.964361 
L 148.11036 227.888033 
L 148.201563 227.853848 
L 148.315568 227.454927 
L 148.475174 225.911421 
L 148.703183 222.662011 
L 148.748785 222.951734 
L 148.771586 223.100797 
L 148.817187 222.923657 
L 148.862789 222.729565 
L 148.88559 223.002635 
L 149.182002 227.135766 
L 149.432811 228.145952 
L 149.729223 228.362092 
L 150.732462 228.519461 
L 151.576095 228.549923 
L 152.009311 228.610743 
L 152.556533 228.639324 
L 156.706294 228.663174 
L 157.595529 228.667051 
L 166.62468 228.529252 
L 166.921091 228.470869 
L 167.240304 228.623157 
L 167.719122 228.600458 
L 168.243543 228.454654 
L 168.767963 228.653907 
L 171.025251 228.679604 
L 186.735062 228.589736 
L 187.259482 228.404588 
L 187.487491 228.496592 
L 187.578695 228.50355 
L 187.601496 228.474024 
L 188.011912 228.041532 
L 188.125916 227.993407 
L 188.376726 227.300939 
L 188.581934 226.005954 
L 188.74154 223.510737 
L 188.878345 217.330251 
L 188.99235 200.634944 
L 189.106354 152.730444 
L 189.243159 21.175818 
L 189.288761 68.30748 
L 189.493969 202.668972 
L 189.699177 219.178188 
L 189.949987 223.783622 
L 190.246398 225.773897 
L 190.679615 227.088486 
L 190.998828 227.419225 
L 191.249637 227.810975 
L 191.614452 228.00991 
L 191.81966 227.998964 
L 192.435284 228.149598 
L 192.8457 228.254436 
L 193.142111 228.30351 
L 193.598129 228.399341 
L 194.373359 228.513229 
L 200.871612 228.652677 
L 209.353542 228.529766 
L 209.649953 228.346735 
L 209.855161 227.899604 
L 210.08317 227.329776 
L 210.105971 227.351955 
L 210.311179 227.93263 
L 210.584789 228.364556 
L 210.926803 228.437486 
L 211.610829 228.613072 
L 215.258971 228.665433 
L 220.092759 228.667732 
L 226.271799 228.668992 
L 236.509398 228.598023 
L 236.965415 228.665886 
L 240.339947 228.671696 
L 243.418066 228.669171 
L 245.424544 228.543756 
L 245.538549 228.548876 
L 245.789358 228.64288 
L 246.08577 228.538917 
L 246.222575 228.543498 
L 246.404982 228.586553 
L 246.861 228.503872 
L 247.294217 228.556151 
L 247.659031 228.627584 
L 248.229053 228.656348 
L 253.997678 228.379959 
L 254.453695 227.913331 
L 254.636103 227.383348 
L 254.795709 225.995423 
L 254.932514 221.915283 
L 255.069319 207.066836 
L 255.206125 196.209604 
L 255.228926 196.293074 
L 255.274527 197.26586 
L 255.388532 211.195439 
L 255.59374 223.557956 
L 255.86735 227.081322 
L 256.140961 227.797512 
L 256.528576 228.174711 
L 257.39501 228.484112 
L 258.124638 228.54316 
L 259.925908 228.617309 
L 260.906346 228.639889 
L 262.525209 228.653824 
L 263.916063 228.590644 
L 264.235276 228.527777 
L 264.60009 228.643641 
L 266.880179 228.665544 
L 271.257949 228.648868 
L 271.919175 228.63089 
L 274.336069 228.662538 
L 282.498786 228.422825 
L 282.954804 228.2921 
L 283.342419 227.788968 
L 283.524826 227.014942 
L 283.661631 224.799736 
L 283.821237 217.82064 
L 283.88964 219.871177 
L 284.094848 225.186384 
L 284.186052 225.592244 
L 284.231653 225.524435 
L 284.322857 224.679312 
L 284.459662 220.300806 
L 284.619269 207.309811 
L 284.687671 211.770348 
L 284.91568 224.252997 
L 285.052485 225.082211 
L 285.075286 225.063897 
L 285.16649 224.521 
L 285.280494 221.991244 
L 285.394499 217.475198 
L 285.4401 218.543004 
L 285.69091 226.873362 
L 285.896118 227.666994 
L 286.397738 228.201689 
L 286.808154 228.293797 
L 287.013362 228.310834 
L 287.628986 228.349386 
L 288.062202 228.375613 
L 288.586623 228.403011 
L 288.76903 228.398461 
L 289.270649 228.557887 
L 289.977477 228.44498 
L 290.114282 228.428174 
L 290.342291 228.548938 
L 290.912313 228.443995 
L 291.09472 228.225544 
L 291.231526 227.54837 
L 291.391132 226.068413 
L 291.436734 226.375082 
L 291.550738 226.965172 
L 291.59634 226.876929 
L 291.710344 225.932631 
L 291.778747 225.535281 
L 291.801548 225.68142 
L 291.961154 226.749593 
L 291.983955 226.702932 
L 292.097959 225.555311 
L 292.143561 225.215699 
L 292.189163 225.393811 
L 292.280366 225.93079 
L 292.325968 225.765021 
L 292.439973 223.754154 
L 292.508375 222.626 
L 292.553977 223.188215 
L 292.736384 226.041478 
L 292.759185 226.034806 
L 292.87319 225.479983 
L 292.918791 225.635877 
L 293.055597 226.687423 
L 293.101198 226.59179 
L 293.215203 225.146646 
L 293.260805 224.779765 
L 293.306406 225.240794 
L 293.466013 226.53541 
L 293.488813 226.494403 
L 293.602818 225.679554 
L 293.64842 225.452536 
L 293.694021 225.75984 
L 293.967632 228.104299 
L 294.195641 228.284884 
L 295.882907 228.580668 
L 299.417044 228.452016 
L 299.82746 228.084822 
L 300.009867 227.545664 
L 300.146672 226.253504 
L 300.260677 221.845353 
L 300.35188 209.636517 
L 300.443084 173.003665 
L 300.488686 184.175606 
L 300.671093 223.851629 
L 300.876301 226.984431 
L 301.10431 227.666382 
L 301.355119 227.911581 
L 301.651531 227.94412 
L 301.765535 227.775628 
L 301.87954 227.195632 
L 301.993544 225.293116 
L 302.107549 221.727014 
L 302.175951 223.058266 
L 302.358358 226.371149 
L 302.381159 226.390527 
L 302.40396 226.347359 
L 302.495164 225.473946 
L 302.928381 218.551248 
L 303.042385 221.884937 
L 303.087987 220.826776 
L 303.156389 218.002613 
L 303.201991 219.681986 
L 303.224792 220.08309 
L 303.270394 218.982871 
L 303.361597 212.020691 
L 303.43 215.573325 
L 303.703611 223.745537 
L 303.749212 223.27378 
L 303.772013 223.48331 
L 304.000022 227.556413 
L 304.250832 228.036613 
L 304.638447 228.274354 
L 305.322474 228.461952 
L 306.895735 228.590934 
L 309.267027 228.527007 
L 309.358231 228.340656 
L 309.403832 228.444642 
L 309.586239 228.624396 
L 310.38427 228.646203 
L 312.185541 228.583917 
L 312.413549 228.59506 
L 313.074775 228.652251 
L 314.853244 228.582007 
L 315.286461 228.425956 
L 315.400466 228.517165 
L 315.628474 228.616486 
L 315.993289 228.528293 
L 316.198497 228.463727 
L 316.335302 228.432036 
L 316.449306 228.475007 
L 316.677315 228.627228 
L 317.748957 228.657334 
L 320.781475 228.664707 
L 355.598429 228.55802 
L 356.236854 228.548463 
L 356.624469 228.580477 
L 358.653748 228.637663 
L 359.702588 228.641988 
L 360.956637 228.508744 
L 361.139044 228.271441 
L 361.298651 227.57952 
L 361.344252 227.436726 
L 361.389854 227.512767 
L 361.572261 227.986451 
L 361.595062 227.979736 
L 361.686266 227.813691 
L 361.823071 226.897005 
L 361.937075 226.055942 
L 361.982677 226.371621 
L 362.165084 227.491618 
L 362.187885 227.483576 
L 362.279089 227.193311 
L 362.484297 225.457676 
L 362.5755 225.926972 
L 362.780708 226.838485 
L 362.82631 226.763556 
L 362.940314 225.821194 
L 363.07712 225.029573 
L 363.122721 225.045184 
L 363.191124 225.037006 
L 363.213925 225.122744 
L 363.419133 226.824117 
L 363.487536 226.642831 
L 363.715544 225.267245 
L 363.761146 225.425024 
L 364.034757 227.446221 
L 364.080359 227.385251 
L 364.194363 226.74141 
L 364.308368 226.117221 
L 364.331168 226.191604 
L 364.650381 227.910074 
L 364.673182 227.899458 
L 364.764385 227.690119 
L 364.87839 227.138292 
L 364.923991 227.265443 
L 365.174801 228.341833 
L 365.494014 228.515994 
L 366.155239 228.59335 
L 370.464607 228.641376 
L 376.643647 228.65632 
L 377.966099 228.637191 
L 379.197347 228.638234 
L 384.555555 228.654728 
L 386.835644 228.607786 
L 387.360064 228.641511 
L 388.363303 228.653447 
L 389.389343 228.568402 
L 389.434945 228.506469 
L 389.480546 228.582254 
L 389.708555 228.638529 
L 393.151489 228.626932 
L 394.815954 228.622853 
L 401.90703 228.642674 
L 402.545455 228.637842 
L 402.545455 228.637842 
" style="fill:none;stroke:#4c72b0;stroke-linecap:square;"/>
   </g>
   <g id="patch_3">
    <path d="M 10.8 239.068 
L 421.2 239.068 
" style="fill:none;stroke:#000000;stroke-linecap:square;stroke-linejoin:miter;stroke-width:1.3;"/>
   </g>
   <g id="legend_1">
    <g id="patch_4">
     <path d="M 281.248437 33.478125 
L 414.2 33.478125 
Q 416.2 33.478125 416.2 31.478125 
L 416.2 17.8 
Q 416.2 15.8 414.2 15.8 
L 281.248437 15.8 
Q 279.248437 15.8 279.248437 17.8 
L 279.248437 31.478125 
Q 279.248437 33.478125 281.248437 33.478125 
z
" style="fill:#ffffff;opacity:0.8;stroke:#cccccc;stroke-linejoin:miter;"/>
    </g>
    <g id="line2d_30">
     <path d="M 283.248437 23.898438 
L 303.248437 23.898438 
" style="fill:none;stroke:#4c72b0;stroke-linecap:square;"/>
    </g>
    <g id="line2d_31"/>
    <g id="text_8">
     <!-- My proton spectrum -->
     <g transform="translate(311.248437 27.398438)scale(0.1 -0.1)">
      <defs>
       <path d="M 9.8125 72.90625 
L 24.515625 72.90625 
L 43.109375 23.296875 
L 61.8125 72.90625 
L 76.515625 72.90625 
L 76.515625 0 
L 66.890625 0 
L 66.890625 64.015625 
L 48.09375 14.015625 
L 38.1875 14.015625 
L 19.390625 64.015625 
L 19.390625 0 
L 9.8125 0 
z
" id="DejaVuSans-77"/>
       <path d="M 32.171875 -5.078125 
Q 28.375 -14.84375 24.75 -17.8125 
Q 21.140625 -20.796875 15.09375 -20.796875 
L 7.90625 -20.796875 
L 7.90625 -13.28125 
L 13.1875 -13.28125 
Q 16.890625 -13.28125 18.9375 -11.515625 
Q 21 -9.765625 23.484375 -3.21875 
L 25.09375 0.875 
L 2.984375 54.6875 
L 12.5 54.6875 
L 29.59375 11.921875 
L 46.6875 54.6875 
L 56.203125 54.6875 
z
" id="DejaVuSans-121"/>
       <path d="M 41.109375 46.296875 
Q 39.59375 47.171875 37.8125 47.578125 
Q 36.03125 48 33.890625 48 
Q 26.265625 48 22.1875 43.046875 
Q 18.109375 38.09375 18.109375 28.8125 
L 18.109375 0 
L 9.078125 0 
L 9.078125 54.6875 
L 18.109375 54.6875 
L 18.109375 46.1875 
Q 20.953125 51.171875 25.484375 53.578125 
Q 30.03125 56 36.53125 56 
Q 37.453125 56 38.578125 55.875 
Q 39.703125 55.765625 41.0625 55.515625 
z
" id="DejaVuSans-114"/>
       <path d="M 30.609375 48.390625 
Q 23.390625 48.390625 19.1875 42.75 
Q 14.984375 37.109375 14.984375 27.296875 
Q 14.984375 17.484375 19.15625 11.84375 
Q 23.34375 6.203125 30.609375 6.203125 
Q 37.796875 6.203125 41.984375 11.859375 
Q 46.1875 17.53125 46.1875 27.296875 
Q 46.1875 37.015625 41.984375 42.703125 
Q 37.796875 48.390625 30.609375 48.390625 
z
M 30.609375 56 
Q 42.328125 56 49.015625 48.375 
Q 55.71875 40.765625 55.71875 27.296875 
Q 55.71875 13.875 49.015625 6.21875 
Q 42.328125 -1.421875 30.609375 -1.421875 
Q 18.84375 -1.421875 12.171875 6.21875 
Q 5.515625 13.875 5.515625 27.296875 
Q 5.515625 40.765625 12.171875 48.375 
Q 18.84375 56 30.609375 56 
z
" id="DejaVuSans-111"/>
       <path d="M 18.3125 70.21875 
L 18.3125 54.6875 
L 36.8125 54.6875 
L 36.8125 47.703125 
L 18.3125 47.703125 
L 18.3125 18.015625 
Q 18.3125 11.328125 20.140625 9.421875 
Q 21.96875 7.515625 27.59375 7.515625 
L 36.8125 7.515625 
L 36.8125 0 
L 27.59375 0 
Q 17.1875 0 13.234375 3.875 
Q 9.28125 7.765625 9.28125 18.015625 
L 9.28125 47.703125 
L 2.6875 47.703125 
L 2.6875 54.6875 
L 9.28125 54.6875 
L 9.28125 70.21875 
z
" id="DejaVuSans-116"/>
       <path d="M 54.890625 33.015625 
L 54.890625 0 
L 45.90625 0 
L 45.90625 32.71875 
Q 45.90625 40.484375 42.875 44.328125 
Q 39.84375 48.1875 33.796875 48.1875 
Q 26.515625 48.1875 22.3125 43.546875 
Q 18.109375 38.921875 18.109375 30.90625 
L 18.109375 0 
L 9.078125 0 
L 9.078125 54.6875 
L 18.109375 54.6875 
L 18.109375 46.1875 
Q 21.34375 51.125 25.703125 53.5625 
Q 30.078125 56 35.796875 56 
Q 45.21875 56 50.046875 50.171875 
Q 54.890625 44.34375 54.890625 33.015625 
z
" id="DejaVuSans-110"/>
       <path d="M 44.28125 53.078125 
L 44.28125 44.578125 
Q 40.484375 46.53125 36.375 47.5 
Q 32.28125 48.484375 27.875 48.484375 
Q 21.1875 48.484375 17.84375 46.4375 
Q 14.5 44.390625 14.5 40.28125 
Q 14.5 37.15625 16.890625 35.375 
Q 19.28125 33.59375 26.515625 31.984375 
L 29.59375 31.296875 
Q 39.15625 29.25 43.1875 25.515625 
Q 47.21875 21.78125 47.21875 15.09375 
Q 47.21875 7.46875 41.1875 3.015625 
Q 35.15625 -1.421875 24.609375 -1.421875 
Q 20.21875 -1.421875 15.453125 -0.5625 
Q 10.6875 0.296875 5.421875 2 
L 5.421875 11.28125 
Q 10.40625 8.6875 15.234375 7.390625 
Q 20.0625 6.109375 24.8125 6.109375 
Q 31.15625 6.109375 34.5625 8.28125 
Q 37.984375 10.453125 37.984375 14.40625 
Q 37.984375 18.0625 35.515625 20.015625 
Q 33.0625 21.96875 24.703125 23.78125 
L 21.578125 24.515625 
Q 13.234375 26.265625 9.515625 29.90625 
Q 5.8125 33.546875 5.8125 39.890625 
Q 5.8125 47.609375 11.28125 51.796875 
Q 16.75 56 26.8125 56 
Q 31.78125 56 36.171875 55.265625 
Q 40.578125 54.546875 44.28125 53.078125 
z
" id="DejaVuSans-115"/>
       <path d="M 56.203125 29.59375 
L 56.203125 25.203125 
L 14.890625 25.203125 
Q 15.484375 15.921875 20.484375 11.0625 
Q 25.484375 6.203125 34.421875 6.203125 
Q 39.59375 6.203125 44.453125 7.46875 
Q 49.3125 8.734375 54.109375 11.28125 
L 54.109375 2.78125 
Q 49.265625 0.734375 44.1875 -0.34375 
Q 39.109375 -1.421875 33.890625 -1.421875 
Q 20.796875 -1.421875 13.15625 6.1875 
Q 5.515625 13.8125 5.515625 26.8125 
Q 5.515625 40.234375 12.765625 48.109375 
Q 20.015625 56 32.328125 56 
Q 43.359375 56 49.78125 48.890625 
Q 56.203125 41.796875 56.203125 29.59375 
z
M 47.21875 32.234375 
Q 47.125 39.59375 43.09375 43.984375 
Q 39.0625 48.390625 32.421875 48.390625 
Q 24.90625 48.390625 20.390625 44.140625 
Q 15.875 39.890625 15.1875 32.171875 
z
" id="DejaVuSans-101"/>
       <path d="M 48.78125 52.59375 
L 48.78125 44.1875 
Q 44.96875 46.296875 41.140625 47.34375 
Q 37.3125 48.390625 33.40625 48.390625 
Q 24.65625 48.390625 19.8125 42.84375 
Q 14.984375 37.3125 14.984375 27.296875 
Q 14.984375 17.28125 19.8125 11.734375 
Q 24.65625 6.203125 33.40625 6.203125 
Q 37.3125 6.203125 41.140625 7.25 
Q 44.96875 8.296875 48.78125 10.40625 
L 48.78125 2.09375 
Q 45.015625 0.34375 40.984375 -0.53125 
Q 36.96875 -1.421875 32.421875 -1.421875 
Q 20.0625 -1.421875 12.78125 6.34375 
Q 5.515625 14.109375 5.515625 27.296875 
Q 5.515625 40.671875 12.859375 48.328125 
Q 20.21875 56 33.015625 56 
Q 37.15625 56 41.109375 55.140625 
Q 45.0625 54.296875 48.78125 52.59375 
z
" id="DejaVuSans-99"/>
       <path d="M 8.5 21.578125 
L 8.5 54.6875 
L 17.484375 54.6875 
L 17.484375 21.921875 
Q 17.484375 14.15625 20.5 10.265625 
Q 23.53125 6.390625 29.59375 6.390625 
Q 36.859375 6.390625 41.078125 11.03125 
Q 45.3125 15.671875 45.3125 23.6875 
L 45.3125 54.6875 
L 54.296875 54.6875 
L 54.296875 0 
L 45.3125 0 
L 45.3125 8.40625 
Q 42.046875 3.421875 37.71875 1 
Q 33.40625 -1.421875 27.6875 -1.421875 
Q 18.265625 -1.421875 13.375 4.4375 
Q 8.5 10.296875 8.5 21.578125 
z
M 31.109375 56 
z
" id="DejaVuSans-117"/>
      </defs>
      <use xlink:href="#DejaVuSans-77"/>
      <use x="86.279297" xlink:href="#DejaVuSans-121"/>
      <use x="145.458984" xlink:href="#DejaVuSans-32"/>
      <use x="177.246094" xlink:href="#DejaVuSans-112"/>
      <use x="240.722656" xlink:href="#DejaVuSans-114"/>
      <use x="279.585938" xlink:href="#DejaVuSans-111"/>
      <use x="340.767578" xlink:href="#DejaVuSans-116"/>
      <use x="379.976562" xlink:href="#DejaVuSans-111"/>
      <use x="441.158203" xlink:href="#DejaVuSans-110"/>
      <use x="504.537109" xlink:href="#DejaVuSans-32"/>
      <use x="536.324219" xlink:href="#DejaVuSans-115"/>
      <use x="588.423828" xlink:href="#DejaVuSans-112"/>
      <use x="651.900391" xlink:href="#DejaVuSans-101"/>
      <use x="713.423828" xlink:href="#DejaVuSans-99"/>
      <use x="768.404297" xlink:href="#DejaVuSans-116"/>
      <use x="807.613281" xlink:href="#DejaVuSans-114"/>
      <use x="848.726562" xlink:href="#DejaVuSans-117"/>
      <use x="912.105469" xlink:href="#DejaVuSans-109"/>
     </g>
    </g>
   </g>
  </g>
 </g>
 <defs>
  <clipPath id="p2bcd328136">
   <rect height="228.268" width="410.4" x="10.8" y="10.8"/>
  </clipPath>
 </defs>
</svg>
