<?xml version="1.0" encoding="utf-8" standalone="no"?>
<!DOCTYPE svg PUBLIC "-//W3C//DTD SVG 1.1//EN"
  "http://www.w3.org/Graphics/SVG/1.1/DTD/svg11.dtd">
<!-- Created with matplotlib (https://matplotlib.org/) -->
<svg height="360pt" version="1.1" viewBox="0 0 360 360" width="360pt" xmlns="http://www.w3.org/2000/svg" xmlns:xlink="http://www.w3.org/1999/xlink">
 <metadata>
  <rdf:RDF xmlns:cc="http://creativecommons.org/ns#" xmlns:dc="http://purl.org/dc/elements/1.1/" xmlns:rdf="http://www.w3.org/1999/02/22-rdf-syntax-ns#">
   <cc:Work>
    <dc:type rdf:resource="http://purl.org/dc/dcmitype/StillImage"/>
    <dc:date>2020-11-24T01:05:33.237653</dc:date>
    <dc:format>image/svg+xml</dc:format>
    <dc:creator>
     <cc:Agent>
      <dc:title>Matplotlib v3.3.3, https://matplotlib.org/</dc:title>
     </cc:Agent>
    </dc:creator>
   </cc:Work>
  </rdf:RDF>
 </metadata>
 <defs>
  <style type="text/css">*{stroke-linecap:butt;stroke-linejoin:round;}</style>
 </defs>
 <g id="figure_1">
  <g id="patch_1">
   <path d="M 0 360 
L 360 360 
L 360 0 
L 0 0 
z
" style="fill:#ffffff;"/>
  </g>
  <g id="axes_1">
   <g id="patch_2">
    <path d="M 57.842 311.068 
L 349.2 311.068 
L 349.2 26.88 
L 57.842 26.88 
z
" style="fill:#ffffff;"/>
   </g>
   <g id="matplotlib.axis_1">
    <g id="xtick_1">
     <g id="line2d_1">
      <defs>
       <path d="M 0 0 
L 0 5 
" id="m2dd2d82f55" style="stroke:#000000;stroke-width:1.3;"/>
      </defs>
      <g>
       <use style="stroke:#000000;stroke-width:1.3;" x="330.642394" xlink:href="#m2dd2d82f55" y="311.068"/>
      </g>
     </g>
     <g id="text_1">
      <!-- 1 -->
      <g transform="translate(327.461144 327.166437)scale(0.1 -0.1)">
       <defs>
        <path d="M 12.40625 8.296875 
L 28.515625 8.296875 
L 28.515625 63.921875 
L 10.984375 60.40625 
L 10.984375 69.390625 
L 28.421875 72.90625 
L 38.28125 72.90625 
L 38.28125 8.296875 
L 54.390625 8.296875 
L 54.390625 0 
L 12.40625 0 
z
" id="DejaVuSans-49"/>
       </defs>
       <use xlink:href="#DejaVuSans-49"/>
      </g>
     </g>
    </g>
    <g id="xtick_2">
     <g id="line2d_2">
      <g>
       <use style="stroke:#000000;stroke-width:1.3;" x="294.237315" xlink:href="#m2dd2d82f55" y="311.068"/>
      </g>
     </g>
     <g id="text_2">
      <!-- 2 -->
      <g transform="translate(291.056065 327.166437)scale(0.1 -0.1)">
       <defs>
        <path d="M 19.1875 8.296875 
L 53.609375 8.296875 
L 53.609375 0 
L 7.328125 0 
L 7.328125 8.296875 
Q 12.9375 14.109375 22.625 23.890625 
Q 32.328125 33.6875 34.8125 36.53125 
Q 39.546875 41.84375 41.421875 45.53125 
Q 43.3125 49.21875 43.3125 52.78125 
Q 43.3125 58.59375 39.234375 62.25 
Q 35.15625 65.921875 28.609375 65.921875 
Q 23.96875 65.921875 18.8125 64.3125 
Q 13.671875 62.703125 7.8125 59.421875 
L 7.8125 69.390625 
Q 13.765625 71.78125 18.9375 73 
Q 24.125 74.21875 28.421875 74.21875 
Q 39.75 74.21875 46.484375 68.546875 
Q 53.21875 62.890625 53.21875 53.421875 
Q 53.21875 48.921875 51.53125 44.890625 
Q 49.859375 40.875 45.40625 35.40625 
Q 44.1875 33.984375 37.640625 27.21875 
Q 31.109375 20.453125 19.1875 8.296875 
z
" id="DejaVuSans-50"/>
       </defs>
       <use xlink:href="#DejaVuSans-50"/>
      </g>
     </g>
    </g>
    <g id="xtick_3">
     <g id="line2d_3">
      <g>
       <use style="stroke:#000000;stroke-width:1.3;" x="257.832237" xlink:href="#m2dd2d82f55" y="311.068"/>
      </g>
     </g>
     <g id="text_3">
      <!-- 3 -->
      <g transform="translate(254.650987 327.166437)scale(0.1 -0.1)">
       <defs>
        <path d="M 40.578125 39.3125 
Q 47.65625 37.796875 51.625 33 
Q 55.609375 28.21875 55.609375 21.1875 
Q 55.609375 10.40625 48.1875 4.484375 
Q 40.765625 -1.421875 27.09375 -1.421875 
Q 22.515625 -1.421875 17.65625 -0.515625 
Q 12.796875 0.390625 7.625 2.203125 
L 7.625 11.71875 
Q 11.71875 9.328125 16.59375 8.109375 
Q 21.484375 6.890625 26.8125 6.890625 
Q 36.078125 6.890625 40.9375 10.546875 
Q 45.796875 14.203125 45.796875 21.1875 
Q 45.796875 27.640625 41.28125 31.265625 
Q 36.765625 34.90625 28.71875 34.90625 
L 20.21875 34.90625 
L 20.21875 43.015625 
L 29.109375 43.015625 
Q 36.375 43.015625 40.234375 45.921875 
Q 44.09375 48.828125 44.09375 54.296875 
Q 44.09375 59.90625 40.109375 62.90625 
Q 36.140625 65.921875 28.71875 65.921875 
Q 24.65625 65.921875 20.015625 65.03125 
Q 15.375 64.15625 9.8125 62.3125 
L 9.8125 71.09375 
Q 15.4375 72.65625 20.34375 73.4375 
Q 25.25 74.21875 29.59375 74.21875 
Q 40.828125 74.21875 47.359375 69.109375 
Q 53.90625 64.015625 53.90625 55.328125 
Q 53.90625 49.265625 50.4375 45.09375 
Q 46.96875 40.921875 40.578125 39.3125 
z
" id="DejaVuSans-51"/>
       </defs>
       <use xlink:href="#DejaVuSans-51"/>
      </g>
     </g>
    </g>
    <g id="xtick_4">
     <g id="line2d_4">
      <g>
       <use style="stroke:#000000;stroke-width:1.3;" x="221.427158" xlink:href="#m2dd2d82f55" y="311.068"/>
      </g>
     </g>
     <g id="text_4">
      <!-- 4 -->
      <g transform="translate(218.245908 327.166437)scale(0.1 -0.1)">
       <defs>
        <path d="M 37.796875 64.3125 
L 12.890625 25.390625 
L 37.796875 25.390625 
z
M 35.203125 72.90625 
L 47.609375 72.90625 
L 47.609375 25.390625 
L 58.015625 25.390625 
L 58.015625 17.1875 
L 47.609375 17.1875 
L 47.609375 0 
L 37.796875 0 
L 37.796875 17.1875 
L 4.890625 17.1875 
L 4.890625 26.703125 
z
" id="DejaVuSans-52"/>
       </defs>
       <use xlink:href="#DejaVuSans-52"/>
      </g>
     </g>
    </g>
    <g id="xtick_5">
     <g id="line2d_5">
      <g>
       <use style="stroke:#000000;stroke-width:1.3;" x="185.022079" xlink:href="#m2dd2d82f55" y="311.068"/>
      </g>
     </g>
     <g id="text_5">
      <!-- 5 -->
      <g transform="translate(181.840829 327.166437)scale(0.1 -0.1)">
       <defs>
        <path d="M 10.796875 72.90625 
L 49.515625 72.90625 
L 49.515625 64.59375 
L 19.828125 64.59375 
L 19.828125 46.734375 
Q 21.96875 47.46875 24.109375 47.828125 
Q 26.265625 48.1875 28.421875 48.1875 
Q 40.625 48.1875 47.75 41.5 
Q 54.890625 34.8125 54.890625 23.390625 
Q 54.890625 11.625 47.5625 5.09375 
Q 40.234375 -1.421875 26.90625 -1.421875 
Q 22.3125 -1.421875 17.546875 -0.640625 
Q 12.796875 0.140625 7.71875 1.703125 
L 7.71875 11.625 
Q 12.109375 9.234375 16.796875 8.0625 
Q 21.484375 6.890625 26.703125 6.890625 
Q 35.15625 6.890625 40.078125 11.328125 
Q 45.015625 15.765625 45.015625 23.390625 
Q 45.015625 31 40.078125 35.4375 
Q 35.15625 39.890625 26.703125 39.890625 
Q 22.75 39.890625 18.8125 39.015625 
Q 14.890625 38.140625 10.796875 36.28125 
z
" id="DejaVuSans-53"/>
       </defs>
       <use xlink:href="#DejaVuSans-53"/>
      </g>
     </g>
    </g>
    <g id="xtick_6">
     <g id="line2d_6">
      <g>
       <use style="stroke:#000000;stroke-width:1.3;" x="148.617001" xlink:href="#m2dd2d82f55" y="311.068"/>
      </g>
     </g>
     <g id="text_6">
      <!-- 6 -->
      <g transform="translate(145.435751 327.166437)scale(0.1 -0.1)">
       <defs>
        <path d="M 33.015625 40.375 
Q 26.375 40.375 22.484375 35.828125 
Q 18.609375 31.296875 18.609375 23.390625 
Q 18.609375 15.53125 22.484375 10.953125 
Q 26.375 6.390625 33.015625 6.390625 
Q 39.65625 6.390625 43.53125 10.953125 
Q 47.40625 15.53125 47.40625 23.390625 
Q 47.40625 31.296875 43.53125 35.828125 
Q 39.65625 40.375 33.015625 40.375 
z
M 52.59375 71.296875 
L 52.59375 62.3125 
Q 48.875 64.0625 45.09375 64.984375 
Q 41.3125 65.921875 37.59375 65.921875 
Q 27.828125 65.921875 22.671875 59.328125 
Q 17.53125 52.734375 16.796875 39.40625 
Q 19.671875 43.65625 24.015625 45.921875 
Q 28.375 48.1875 33.59375 48.1875 
Q 44.578125 48.1875 50.953125 41.515625 
Q 57.328125 34.859375 57.328125 23.390625 
Q 57.328125 12.15625 50.6875 5.359375 
Q 44.046875 -1.421875 33.015625 -1.421875 
Q 20.359375 -1.421875 13.671875 8.265625 
Q 6.984375 17.96875 6.984375 36.375 
Q 6.984375 53.65625 15.1875 63.9375 
Q 23.390625 74.21875 37.203125 74.21875 
Q 40.921875 74.21875 44.703125 73.484375 
Q 48.484375 72.75 52.59375 71.296875 
z
" id="DejaVuSans-54"/>
       </defs>
       <use xlink:href="#DejaVuSans-54"/>
      </g>
     </g>
    </g>
    <g id="xtick_7">
     <g id="line2d_7">
      <g>
       <use style="stroke:#000000;stroke-width:1.3;" x="112.211922" xlink:href="#m2dd2d82f55" y="311.068"/>
      </g>
     </g>
     <g id="text_7">
      <!-- 7 -->
      <g transform="translate(109.030672 327.166437)scale(0.1 -0.1)">
       <defs>
        <path d="M 8.203125 72.90625 
L 55.078125 72.90625 
L 55.078125 68.703125 
L 28.609375 0 
L 18.3125 0 
L 43.21875 64.59375 
L 8.203125 64.59375 
z
" id="DejaVuSans-55"/>
       </defs>
       <use xlink:href="#DejaVuSans-55"/>
      </g>
     </g>
    </g>
    <g id="xtick_8">
     <g id="line2d_8">
      <g>
       <use style="stroke:#000000;stroke-width:1.3;" x="75.806843" xlink:href="#m2dd2d82f55" y="311.068"/>
      </g>
     </g>
     <g id="text_8">
      <!-- 8 -->
      <g transform="translate(72.625593 327.166437)scale(0.1 -0.1)">
       <defs>
        <path d="M 31.78125 34.625 
Q 24.75 34.625 20.71875 30.859375 
Q 16.703125 27.09375 16.703125 20.515625 
Q 16.703125 13.921875 20.71875 10.15625 
Q 24.75 6.390625 31.78125 6.390625 
Q 38.8125 6.390625 42.859375 10.171875 
Q 46.921875 13.96875 46.921875 20.515625 
Q 46.921875 27.09375 42.890625 30.859375 
Q 38.875 34.625 31.78125 34.625 
z
M 21.921875 38.8125 
Q 15.578125 40.375 12.03125 44.71875 
Q 8.5 49.078125 8.5 55.328125 
Q 8.5 64.0625 14.71875 69.140625 
Q 20.953125 74.21875 31.78125 74.21875 
Q 42.671875 74.21875 48.875 69.140625 
Q 55.078125 64.0625 55.078125 55.328125 
Q 55.078125 49.078125 51.53125 44.71875 
Q 48 40.375 41.703125 38.8125 
Q 48.828125 37.15625 52.796875 32.3125 
Q 56.78125 27.484375 56.78125 20.515625 
Q 56.78125 9.90625 50.3125 4.234375 
Q 43.84375 -1.421875 31.78125 -1.421875 
Q 19.734375 -1.421875 13.25 4.234375 
Q 6.78125 9.90625 6.78125 20.515625 
Q 6.78125 27.484375 10.78125 32.3125 
Q 14.796875 37.15625 21.921875 38.8125 
z
M 18.3125 54.390625 
Q 18.3125 48.734375 21.84375 45.5625 
Q 25.390625 42.390625 31.78125 42.390625 
Q 38.140625 42.390625 41.71875 45.5625 
Q 45.3125 48.734375 45.3125 54.390625 
Q 45.3125 60.0625 41.71875 63.234375 
Q 38.140625 66.40625 31.78125 66.40625 
Q 25.390625 66.40625 21.84375 63.234375 
Q 18.3125 60.0625 18.3125 54.390625 
z
" id="DejaVuSans-56"/>
       </defs>
       <use xlink:href="#DejaVuSans-56"/>
      </g>
     </g>
    </g>
    <g id="xtick_9">
     <g id="line2d_9">
      <defs>
       <path d="M 0 0 
L 0 3 
" id="mdd2c0def08" style="stroke:#000000;stroke-width:1.3;"/>
      </defs>
      <g>
       <use style="stroke:#000000;stroke-width:1.3;" x="345.204425" xlink:href="#mdd2c0def08" y="311.068"/>
      </g>
     </g>
    </g>
    <g id="xtick_10">
     <g id="line2d_10">
      <g>
       <use style="stroke:#000000;stroke-width:1.3;" x="337.92341" xlink:href="#mdd2c0def08" y="311.068"/>
      </g>
     </g>
    </g>
    <g id="xtick_11">
     <g id="line2d_11">
      <g>
       <use style="stroke:#000000;stroke-width:1.3;" x="323.361378" xlink:href="#mdd2c0def08" y="311.068"/>
      </g>
     </g>
    </g>
    <g id="xtick_12">
     <g id="line2d_12">
      <g>
       <use style="stroke:#000000;stroke-width:1.3;" x="316.080362" xlink:href="#mdd2c0def08" y="311.068"/>
      </g>
     </g>
    </g>
    <g id="xtick_13">
     <g id="line2d_13">
      <g>
       <use style="stroke:#000000;stroke-width:1.3;" x="308.799347" xlink:href="#mdd2c0def08" y="311.068"/>
      </g>
     </g>
    </g>
    <g id="xtick_14">
     <g id="line2d_14">
      <g>
       <use style="stroke:#000000;stroke-width:1.3;" x="301.518331" xlink:href="#mdd2c0def08" y="311.068"/>
      </g>
     </g>
    </g>
    <g id="xtick_15">
     <g id="line2d_15">
      <g>
       <use style="stroke:#000000;stroke-width:1.3;" x="286.9563" xlink:href="#mdd2c0def08" y="311.068"/>
      </g>
     </g>
    </g>
    <g id="xtick_16">
     <g id="line2d_16">
      <g>
       <use style="stroke:#000000;stroke-width:1.3;" x="279.675284" xlink:href="#mdd2c0def08" y="311.068"/>
      </g>
     </g>
    </g>
    <g id="xtick_17">
     <g id="line2d_17">
      <g>
       <use style="stroke:#000000;stroke-width:1.3;" x="272.394268" xlink:href="#mdd2c0def08" y="311.068"/>
      </g>
     </g>
    </g>
    <g id="xtick_18">
     <g id="line2d_18">
      <g>
       <use style="stroke:#000000;stroke-width:1.3;" x="265.113252" xlink:href="#mdd2c0def08" y="311.068"/>
      </g>
     </g>
    </g>
    <g id="xtick_19">
     <g id="line2d_19">
      <g>
       <use style="stroke:#000000;stroke-width:1.3;" x="250.551221" xlink:href="#mdd2c0def08" y="311.068"/>
      </g>
     </g>
    </g>
    <g id="xtick_20">
     <g id="line2d_20">
      <g>
       <use style="stroke:#000000;stroke-width:1.3;" x="243.270205" xlink:href="#mdd2c0def08" y="311.068"/>
      </g>
     </g>
    </g>
    <g id="xtick_21">
     <g id="line2d_21">
      <g>
       <use style="stroke:#000000;stroke-width:1.3;" x="235.989189" xlink:href="#mdd2c0def08" y="311.068"/>
      </g>
     </g>
    </g>
    <g id="xtick_22">
     <g id="line2d_22">
      <g>
       <use style="stroke:#000000;stroke-width:1.3;" x="228.708174" xlink:href="#mdd2c0def08" y="311.068"/>
      </g>
     </g>
    </g>
    <g id="xtick_23">
     <g id="line2d_23">
      <g>
       <use style="stroke:#000000;stroke-width:1.3;" x="214.146142" xlink:href="#mdd2c0def08" y="311.068"/>
      </g>
     </g>
    </g>
    <g id="xtick_24">
     <g id="line2d_24">
      <g>
       <use style="stroke:#000000;stroke-width:1.3;" x="206.865127" xlink:href="#mdd2c0def08" y="311.068"/>
      </g>
     </g>
    </g>
    <g id="xtick_25">
     <g id="line2d_25">
      <g>
       <use style="stroke:#000000;stroke-width:1.3;" x="199.584111" xlink:href="#mdd2c0def08" y="311.068"/>
      </g>
     </g>
    </g>
    <g id="xtick_26">
     <g id="line2d_26">
      <g>
       <use style="stroke:#000000;stroke-width:1.3;" x="192.303095" xlink:href="#mdd2c0def08" y="311.068"/>
      </g>
     </g>
    </g>
    <g id="xtick_27">
     <g id="line2d_27">
      <g>
       <use style="stroke:#000000;stroke-width:1.3;" x="177.741064" xlink:href="#mdd2c0def08" y="311.068"/>
      </g>
     </g>
    </g>
    <g id="xtick_28">
     <g id="line2d_28">
      <g>
       <use style="stroke:#000000;stroke-width:1.3;" x="170.460048" xlink:href="#mdd2c0def08" y="311.068"/>
      </g>
     </g>
    </g>
    <g id="xtick_29">
     <g id="line2d_29">
      <g>
       <use style="stroke:#000000;stroke-width:1.3;" x="163.179032" xlink:href="#mdd2c0def08" y="311.068"/>
      </g>
     </g>
    </g>
    <g id="xtick_30">
     <g id="line2d_30">
      <g>
       <use style="stroke:#000000;stroke-width:1.3;" x="155.898016" xlink:href="#mdd2c0def08" y="311.068"/>
      </g>
     </g>
    </g>
    <g id="xtick_31">
     <g id="line2d_31">
      <g>
       <use style="stroke:#000000;stroke-width:1.3;" x="141.335985" xlink:href="#mdd2c0def08" y="311.068"/>
      </g>
     </g>
    </g>
    <g id="xtick_32">
     <g id="line2d_32">
      <g>
       <use style="stroke:#000000;stroke-width:1.3;" x="134.054969" xlink:href="#mdd2c0def08" y="311.068"/>
      </g>
     </g>
    </g>
    <g id="xtick_33">
     <g id="line2d_33">
      <g>
       <use style="stroke:#000000;stroke-width:1.3;" x="126.773954" xlink:href="#mdd2c0def08" y="311.068"/>
      </g>
     </g>
    </g>
    <g id="xtick_34">
     <g id="line2d_34">
      <g>
       <use style="stroke:#000000;stroke-width:1.3;" x="119.492938" xlink:href="#mdd2c0def08" y="311.068"/>
      </g>
     </g>
    </g>
    <g id="xtick_35">
     <g id="line2d_35">
      <g>
       <use style="stroke:#000000;stroke-width:1.3;" x="104.930906" xlink:href="#mdd2c0def08" y="311.068"/>
      </g>
     </g>
    </g>
    <g id="xtick_36">
     <g id="line2d_36">
      <g>
       <use style="stroke:#000000;stroke-width:1.3;" x="97.649891" xlink:href="#mdd2c0def08" y="311.068"/>
      </g>
     </g>
    </g>
    <g id="xtick_37">
     <g id="line2d_37">
      <g>
       <use style="stroke:#000000;stroke-width:1.3;" x="90.368875" xlink:href="#mdd2c0def08" y="311.068"/>
      </g>
     </g>
    </g>
    <g id="xtick_38">
     <g id="line2d_38">
      <g>
       <use style="stroke:#000000;stroke-width:1.3;" x="83.087859" xlink:href="#mdd2c0def08" y="311.068"/>
      </g>
     </g>
    </g>
    <g id="xtick_39">
     <g id="line2d_39">
      <g>
       <use style="stroke:#000000;stroke-width:1.3;" x="68.525828" xlink:href="#mdd2c0def08" y="311.068"/>
      </g>
     </g>
    </g>
    <g id="xtick_40">
     <g id="line2d_40">
      <g>
       <use style="stroke:#000000;stroke-width:1.3;" x="61.244812" xlink:href="#mdd2c0def08" y="311.068"/>
      </g>
     </g>
    </g>
    <g id="text_9">
     <!-- $^{1}$H (ppm) -->
     <g transform="translate(180.621 342.246125)scale(0.1 -0.1)">
      <defs>
       <path d="M 9.8125 72.90625 
L 19.671875 72.90625 
L 19.671875 43.015625 
L 55.515625 43.015625 
L 55.515625 72.90625 
L 65.375 72.90625 
L 65.375 0 
L 55.515625 0 
L 55.515625 34.71875 
L 19.671875 34.71875 
L 19.671875 0 
L 9.8125 0 
z
" id="DejaVuSans-72"/>
       <path id="DejaVuSans-32"/>
       <path d="M 31 75.875 
Q 24.46875 64.65625 21.28125 53.65625 
Q 18.109375 42.671875 18.109375 31.390625 
Q 18.109375 20.125 21.3125 9.0625 
Q 24.515625 -2 31 -13.1875 
L 23.1875 -13.1875 
Q 15.875 -1.703125 12.234375 9.375 
Q 8.59375 20.453125 8.59375 31.390625 
Q 8.59375 42.28125 12.203125 53.3125 
Q 15.828125 64.359375 23.1875 75.875 
z
" id="DejaVuSans-40"/>
       <path d="M 18.109375 8.203125 
L 18.109375 -20.796875 
L 9.078125 -20.796875 
L 9.078125 54.6875 
L 18.109375 54.6875 
L 18.109375 46.390625 
Q 20.953125 51.265625 25.265625 53.625 
Q 29.59375 56 35.59375 56 
Q 45.5625 56 51.78125 48.09375 
Q 58.015625 40.1875 58.015625 27.296875 
Q 58.015625 14.40625 51.78125 6.484375 
Q 45.5625 -1.421875 35.59375 -1.421875 
Q 29.59375 -1.421875 25.265625 0.953125 
Q 20.953125 3.328125 18.109375 8.203125 
z
M 48.6875 27.296875 
Q 48.6875 37.203125 44.609375 42.84375 
Q 40.53125 48.484375 33.40625 48.484375 
Q 26.265625 48.484375 22.1875 42.84375 
Q 18.109375 37.203125 18.109375 27.296875 
Q 18.109375 17.390625 22.1875 11.75 
Q 26.265625 6.109375 33.40625 6.109375 
Q 40.53125 6.109375 44.609375 11.75 
Q 48.6875 17.390625 48.6875 27.296875 
z
" id="DejaVuSans-112"/>
       <path d="M 52 44.1875 
Q 55.375 50.25 60.0625 53.125 
Q 64.75 56 71.09375 56 
Q 79.640625 56 84.28125 50.015625 
Q 88.921875 44.046875 88.921875 33.015625 
L 88.921875 0 
L 79.890625 0 
L 79.890625 32.71875 
Q 79.890625 40.578125 77.09375 44.375 
Q 74.3125 48.1875 68.609375 48.1875 
Q 61.625 48.1875 57.5625 43.546875 
Q 53.515625 38.921875 53.515625 30.90625 
L 53.515625 0 
L 44.484375 0 
L 44.484375 32.71875 
Q 44.484375 40.625 41.703125 44.40625 
Q 38.921875 48.1875 33.109375 48.1875 
Q 26.21875 48.1875 22.15625 43.53125 
Q 18.109375 38.875 18.109375 30.90625 
L 18.109375 0 
L 9.078125 0 
L 9.078125 54.6875 
L 18.109375 54.6875 
L 18.109375 46.1875 
Q 21.1875 51.21875 25.484375 53.609375 
Q 29.78125 56 35.6875 56 
Q 41.65625 56 45.828125 52.96875 
Q 50 49.953125 52 44.1875 
z
" id="DejaVuSans-109"/>
       <path d="M 8.015625 75.875 
L 15.828125 75.875 
Q 23.140625 64.359375 26.78125 53.3125 
Q 30.421875 42.28125 30.421875 31.390625 
Q 30.421875 20.453125 26.78125 9.375 
Q 23.140625 -1.703125 15.828125 -13.1875 
L 8.015625 -13.1875 
Q 14.5 -2 17.703125 9.0625 
Q 20.90625 20.125 20.90625 31.390625 
Q 20.90625 42.671875 17.703125 53.65625 
Q 14.5 64.65625 8.015625 75.875 
z
" id="DejaVuSans-41"/>
      </defs>
      <use transform="translate(0.957031 38.965625)scale(0.7)" xlink:href="#DejaVuSans-49"/>
      <use transform="translate(48.227539 0.684375)" xlink:href="#DejaVuSans-72"/>
      <use transform="translate(123.422852 0.684375)" xlink:href="#DejaVuSans-32"/>
      <use transform="translate(155.209961 0.684375)" xlink:href="#DejaVuSans-40"/>
      <use transform="translate(194.223633 0.684375)" xlink:href="#DejaVuSans-112"/>
      <use transform="translate(257.700195 0.684375)" xlink:href="#DejaVuSans-112"/>
      <use transform="translate(321.176758 0.684375)" xlink:href="#DejaVuSans-109"/>
      <use transform="translate(418.588867 0.684375)" xlink:href="#DejaVuSans-41"/>
     </g>
    </g>
   </g>
   <g id="matplotlib.axis_2">
    <g id="ytick_1">
     <g id="line2d_41">
      <defs>
       <path d="M 0 0 
L -5 0 
" id="m484f37b0a1" style="stroke:#000000;stroke-width:1.3;"/>
      </defs>
      <g>
       <use style="stroke:#000000;stroke-width:1.3;" x="57.842" xlink:href="#m484f37b0a1" y="48.987526"/>
      </g>
     </g>
     <g id="text_10">
      <!-- 20 -->
      <g transform="translate(36.617 52.786745)scale(0.1 -0.1)">
       <defs>
        <path d="M 31.78125 66.40625 
Q 24.171875 66.40625 20.328125 58.90625 
Q 16.5 51.421875 16.5 36.375 
Q 16.5 21.390625 20.328125 13.890625 
Q 24.171875 6.390625 31.78125 6.390625 
Q 39.453125 6.390625 43.28125 13.890625 
Q 47.125 21.390625 47.125 36.375 
Q 47.125 51.421875 43.28125 58.90625 
Q 39.453125 66.40625 31.78125 66.40625 
z
M 31.78125 74.21875 
Q 44.046875 74.21875 50.515625 64.515625 
Q 56.984375 54.828125 56.984375 36.375 
Q 56.984375 17.96875 50.515625 8.265625 
Q 44.046875 -1.421875 31.78125 -1.421875 
Q 19.53125 -1.421875 13.0625 8.265625 
Q 6.59375 17.96875 6.59375 36.375 
Q 6.59375 54.828125 13.0625 64.515625 
Q 19.53125 74.21875 31.78125 74.21875 
z
" id="DejaVuSans-48"/>
       </defs>
       <use xlink:href="#DejaVuSans-50"/>
       <use x="63.623047" xlink:href="#DejaVuSans-48"/>
      </g>
     </g>
    </g>
    <g id="ytick_2">
     <g id="line2d_42">
      <g>
       <use style="stroke:#000000;stroke-width:1.3;" x="57.842" xlink:href="#m484f37b0a1" y="92.378754"/>
      </g>
     </g>
     <g id="text_11">
      <!-- 40 -->
      <g transform="translate(36.617 96.177972)scale(0.1 -0.1)">
       <use xlink:href="#DejaVuSans-52"/>
       <use x="63.623047" xlink:href="#DejaVuSans-48"/>
      </g>
     </g>
    </g>
    <g id="ytick_3">
     <g id="line2d_43">
      <g>
       <use style="stroke:#000000;stroke-width:1.3;" x="57.842" xlink:href="#m484f37b0a1" y="135.769981"/>
      </g>
     </g>
     <g id="text_12">
      <!-- 60 -->
      <g transform="translate(36.617 139.5692)scale(0.1 -0.1)">
       <use xlink:href="#DejaVuSans-54"/>
       <use x="63.623047" xlink:href="#DejaVuSans-48"/>
      </g>
     </g>
    </g>
    <g id="ytick_4">
     <g id="line2d_44">
      <g>
       <use style="stroke:#000000;stroke-width:1.3;" x="57.842" xlink:href="#m484f37b0a1" y="179.161209"/>
      </g>
     </g>
     <g id="text_13">
      <!-- 80 -->
      <g transform="translate(36.617 182.960428)scale(0.1 -0.1)">
       <use xlink:href="#DejaVuSans-56"/>
       <use x="63.623047" xlink:href="#DejaVuSans-48"/>
      </g>
     </g>
    </g>
    <g id="ytick_5">
     <g id="line2d_45">
      <g>
       <use style="stroke:#000000;stroke-width:1.3;" x="57.842" xlink:href="#m484f37b0a1" y="222.552437"/>
      </g>
     </g>
     <g id="text_14">
      <!-- 100 -->
      <g transform="translate(30.2545 226.351655)scale(0.1 -0.1)">
       <use xlink:href="#DejaVuSans-49"/>
       <use x="63.623047" xlink:href="#DejaVuSans-48"/>
       <use x="127.246094" xlink:href="#DejaVuSans-48"/>
      </g>
     </g>
    </g>
    <g id="ytick_6">
     <g id="line2d_46">
      <g>
       <use style="stroke:#000000;stroke-width:1.3;" x="57.842" xlink:href="#m484f37b0a1" y="265.943664"/>
      </g>
     </g>
     <g id="text_15">
      <!-- 120 -->
      <g transform="translate(30.2545 269.742883)scale(0.1 -0.1)">
       <use xlink:href="#DejaVuSans-49"/>
       <use x="63.623047" xlink:href="#DejaVuSans-50"/>
       <use x="127.246094" xlink:href="#DejaVuSans-48"/>
      </g>
     </g>
    </g>
    <g id="ytick_7">
     <g id="line2d_47">
      <g>
       <use style="stroke:#000000;stroke-width:1.3;" x="57.842" xlink:href="#m484f37b0a1" y="309.334892"/>
      </g>
     </g>
     <g id="text_16">
      <!-- 140 -->
      <g transform="translate(30.2545 313.134111)scale(0.1 -0.1)">
       <use xlink:href="#DejaVuSans-49"/>
       <use x="63.623047" xlink:href="#DejaVuSans-52"/>
       <use x="127.246094" xlink:href="#DejaVuSans-48"/>
      </g>
     </g>
    </g>
    <g id="ytick_8">
     <g id="line2d_48">
      <defs>
       <path d="M 0 0 
L -3 0 
" id="me9a264fd91" style="stroke:#000000;stroke-width:1.3;"/>
      </defs>
      <g>
       <use style="stroke:#000000;stroke-width:1.3;" x="57.842" xlink:href="#me9a264fd91" y="27.291912"/>
      </g>
     </g>
    </g>
    <g id="ytick_9">
     <g id="line2d_49">
      <g>
       <use style="stroke:#000000;stroke-width:1.3;" x="57.842" xlink:href="#me9a264fd91" y="38.139719"/>
      </g>
     </g>
    </g>
    <g id="ytick_10">
     <g id="line2d_50">
      <g>
       <use style="stroke:#000000;stroke-width:1.3;" x="57.842" xlink:href="#me9a264fd91" y="59.835333"/>
      </g>
     </g>
    </g>
    <g id="ytick_11">
     <g id="line2d_51">
      <g>
       <use style="stroke:#000000;stroke-width:1.3;" x="57.842" xlink:href="#me9a264fd91" y="70.68314"/>
      </g>
     </g>
    </g>
    <g id="ytick_12">
     <g id="line2d_52">
      <g>
       <use style="stroke:#000000;stroke-width:1.3;" x="57.842" xlink:href="#me9a264fd91" y="81.530947"/>
      </g>
     </g>
    </g>
    <g id="ytick_13">
     <g id="line2d_53">
      <g>
       <use style="stroke:#000000;stroke-width:1.3;" x="57.842" xlink:href="#me9a264fd91" y="103.226561"/>
      </g>
     </g>
    </g>
    <g id="ytick_14">
     <g id="line2d_54">
      <g>
       <use style="stroke:#000000;stroke-width:1.3;" x="57.842" xlink:href="#me9a264fd91" y="114.074367"/>
      </g>
     </g>
    </g>
    <g id="ytick_15">
     <g id="line2d_55">
      <g>
       <use style="stroke:#000000;stroke-width:1.3;" x="57.842" xlink:href="#me9a264fd91" y="124.922174"/>
      </g>
     </g>
    </g>
    <g id="ytick_16">
     <g id="line2d_56">
      <g>
       <use style="stroke:#000000;stroke-width:1.3;" x="57.842" xlink:href="#me9a264fd91" y="146.617788"/>
      </g>
     </g>
    </g>
    <g id="ytick_17">
     <g id="line2d_57">
      <g>
       <use style="stroke:#000000;stroke-width:1.3;" x="57.842" xlink:href="#me9a264fd91" y="157.465595"/>
      </g>
     </g>
    </g>
    <g id="ytick_18">
     <g id="line2d_58">
      <g>
       <use style="stroke:#000000;stroke-width:1.3;" x="57.842" xlink:href="#me9a264fd91" y="168.313402"/>
      </g>
     </g>
    </g>
    <g id="ytick_19">
     <g id="line2d_59">
      <g>
       <use style="stroke:#000000;stroke-width:1.3;" x="57.842" xlink:href="#me9a264fd91" y="190.009016"/>
      </g>
     </g>
    </g>
    <g id="ytick_20">
     <g id="line2d_60">
      <g>
       <use style="stroke:#000000;stroke-width:1.3;" x="57.842" xlink:href="#me9a264fd91" y="200.856823"/>
      </g>
     </g>
    </g>
    <g id="ytick_21">
     <g id="line2d_61">
      <g>
       <use style="stroke:#000000;stroke-width:1.3;" x="57.842" xlink:href="#me9a264fd91" y="211.70463"/>
      </g>
     </g>
    </g>
    <g id="ytick_22">
     <g id="line2d_62">
      <g>
       <use style="stroke:#000000;stroke-width:1.3;" x="57.842" xlink:href="#me9a264fd91" y="233.400243"/>
      </g>
     </g>
    </g>
    <g id="ytick_23">
     <g id="line2d_63">
      <g>
       <use style="stroke:#000000;stroke-width:1.3;" x="57.842" xlink:href="#me9a264fd91" y="244.24805"/>
      </g>
     </g>
    </g>
    <g id="ytick_24">
     <g id="line2d_64">
      <g>
       <use style="stroke:#000000;stroke-width:1.3;" x="57.842" xlink:href="#me9a264fd91" y="255.095857"/>
      </g>
     </g>
    </g>
    <g id="ytick_25">
     <g id="line2d_65">
      <g>
       <use style="stroke:#000000;stroke-width:1.3;" x="57.842" xlink:href="#me9a264fd91" y="276.791471"/>
      </g>
     </g>
    </g>
    <g id="ytick_26">
     <g id="line2d_66">
      <g>
       <use style="stroke:#000000;stroke-width:1.3;" x="57.842" xlink:href="#me9a264fd91" y="287.639278"/>
      </g>
     </g>
    </g>
    <g id="ytick_27">
     <g id="line2d_67">
      <g>
       <use style="stroke:#000000;stroke-width:1.3;" x="57.842" xlink:href="#me9a264fd91" y="298.487085"/>
      </g>
     </g>
    </g>
    <g id="text_17">
     <!-- $^{13}$C (ppm) -->
     <g transform="translate(24.1545 193.824)rotate(-90)scale(0.1 -0.1)">
      <defs>
       <path d="M 64.40625 67.28125 
L 64.40625 56.890625 
Q 59.421875 61.53125 53.78125 63.8125 
Q 48.140625 66.109375 41.796875 66.109375 
Q 29.296875 66.109375 22.65625 58.46875 
Q 16.015625 50.828125 16.015625 36.375 
Q 16.015625 21.96875 22.65625 14.328125 
Q 29.296875 6.6875 41.796875 6.6875 
Q 48.140625 6.6875 53.78125 8.984375 
Q 59.421875 11.28125 64.40625 15.921875 
L 64.40625 5.609375 
Q 59.234375 2.09375 53.4375 0.328125 
Q 47.65625 -1.421875 41.21875 -1.421875 
Q 24.65625 -1.421875 15.125 8.703125 
Q 5.609375 18.84375 5.609375 36.375 
Q 5.609375 53.953125 15.125 64.078125 
Q 24.65625 74.21875 41.21875 74.21875 
Q 47.75 74.21875 53.53125 72.484375 
Q 59.328125 70.75 64.40625 67.28125 
z
" id="DejaVuSans-67"/>
      </defs>
      <use transform="translate(0.957031 39.046875)scale(0.7)" xlink:href="#DejaVuSans-49"/>
      <use transform="translate(45.493164 39.046875)scale(0.7)" xlink:href="#DejaVuSans-51"/>
      <use transform="translate(92.763672 0.765625)" xlink:href="#DejaVuSans-67"/>
      <use transform="translate(162.587891 0.765625)" xlink:href="#DejaVuSans-32"/>
      <use transform="translate(194.375 0.765625)" xlink:href="#DejaVuSans-40"/>
      <use transform="translate(233.388672 0.765625)" xlink:href="#DejaVuSans-112"/>
      <use transform="translate(296.865234 0.765625)" xlink:href="#DejaVuSans-112"/>
      <use transform="translate(360.341797 0.765625)" xlink:href="#DejaVuSans-109"/>
      <use transform="translate(457.753906 0.765625)" xlink:href="#DejaVuSans-41"/>
     </g>
    </g>
   </g>
   <g id="LineCollection_1"/>
   <g id="LineCollection_2"/>
   <g id="LineCollection_3"/>
   <g id="LineCollection_4"/>
   <g id="LineCollection_5"/>
   <g id="LineCollection_6">
    <path clip-path="url(#pd8e4e522ca)" d="M 69.937448 291.755757 
L 69.930947 291.747431 
L 69.937448 291.439924 
L 69.940827 291.396148 
L 70.293197 291.275445 
L 70.454124 291.396148 
L 70.437545 291.747431 
L 70.293197 291.851052 
L 69.937448 291.755757 
" style="fill:none;stroke:#ff69b4;stroke-width:0.7;"/>
    <path clip-path="url(#pd8e4e522ca)" d="M 86.301878 274.948281 
L 86.276505 274.885844 
L 86.301878 274.837385 
L 86.472802 274.885844 
L 86.301878 274.948281 
" style="fill:none;stroke:#ff69b4;stroke-width:0.7;"/>
   </g>
   <g id="LineCollection_7">
    <path clip-path="url(#pd8e4e522ca)" d="M 165.633788 298.776819 
L 165.625395 298.773093 
L 165.633788 298.690368 
L 165.989536 298.437513 
L 166.081935 298.773093 
L 165.989536 298.818125 
L 165.633788 298.776819 
" style="fill:none;stroke:#ff69b4;stroke-width:0.7;"/>
    <path clip-path="url(#pd8e4e522ca)" d="M 83.811639 296.707018 
L 83.776188 296.665394 
L 83.747546 296.314111 
L 83.811639 296.219051 
L 84.167387 296.017676 
L 84.523136 296.08119 
L 84.757322 296.314111 
L 84.721375 296.665394 
L 84.523136 296.811365 
L 84.167387 296.866455 
L 83.811639 296.707018 
" style="fill:none;stroke:#ff69b4;stroke-width:0.7;"/>
    <path clip-path="url(#pd8e4e522ca)" d="M 69.937448 292.140842 
L 69.868918 292.098714 
L 69.616153 291.747431 
L 69.629339 291.396148 
L 69.865681 291.044865 
L 69.937448 290.986562 
L 70.293197 290.918333 
L 70.614552 291.044865 
L 70.648945 291.068006 
L 70.80127 291.396148 
L 70.785474 291.747431 
L 70.648945 291.986963 
L 70.481318 292.098714 
L 70.293197 292.174637 
L 69.937448 292.140842 
" style="fill:none;stroke:#ff69b4;stroke-width:0.7;"/>
    <path clip-path="url(#pd8e4e522ca)" d="M 85.590381 291.076276 
L 85.538609 291.044865 
L 85.324839 290.693582 
L 85.42613 290.342299 
L 85.590381 290.205108 
L 85.946129 290.133186 
L 86.272372 290.342299 
L 86.301878 290.403651 
L 86.380188 290.693582 
L 86.301878 290.891502 
L 86.172189 291.044865 
L 85.946129 291.142967 
L 85.590381 291.076276 
" style="fill:none;stroke:#ff69b4;stroke-width:0.7;"/>
    <path clip-path="url(#pd8e4e522ca)" d="M 86.301878 275.448171 
L 86.050145 275.237127 
L 85.946129 274.956892 
L 85.929904 274.885844 
L 85.946129 274.79318 
L 86.039053 274.534561 
L 86.301878 274.342898 
L 86.657626 274.383151 
L 86.872453 274.534561 
L 87.013375 274.820018 
L 87.032978 274.885844 
L 87.013375 274.966618 
L 86.910889 275.237127 
L 86.657626 275.415023 
L 86.301878 275.448171 
" style="fill:none;stroke:#ff69b4;stroke-width:0.7;"/>
    <path clip-path="url(#pd8e4e522ca)" d="M 334.614313 36.087425 
L 334.456743 36.01336 
L 334.614313 35.784888 
L 334.690536 36.01336 
L 334.614313 36.087425 
" style="fill:none;stroke:#ff69b4;stroke-width:0.7;"/>
   </g>
   <g id="LineCollection_8">
    <path clip-path="url(#pd8e4e522ca)" d="M 165.633788 299.184955 
L 165.39852 299.124376 
L 165.278039 299.076326 
L 164.990387 298.773093 
L 164.978243 298.42181 
L 165.278039 298.090233 
L 165.351221 298.070527 
L 165.633788 298.020584 
L 165.989536 298.040089 
L 166.086313 298.070527 
L 166.345284 298.178164 
L 166.586727 298.42181 
L 166.646083 298.773093 
L 166.37412 299.124376 
L 166.345284 299.140845 
L 165.989536 299.216687 
L 165.633788 299.184955 
" style="fill:none;stroke:#ff69b4;stroke-width:0.7;"/>
    <path clip-path="url(#pd8e4e522ca)" d="M 83.811639 297.028818 
L 83.792038 297.016677 
L 83.499029 296.665394 
L 83.469401 296.314111 
L 83.662859 295.962828 
L 83.811639 295.847784 
L 84.167387 295.749199 
L 84.523136 295.774465 
L 84.878884 295.948763 
L 84.891465 295.962828 
L 85.046064 296.314111 
L 85.033913 296.665394 
L 84.878884 296.941758 
L 84.758477 297.016677 
L 84.523136 297.09433 
L 84.167387 297.114553 
L 83.811639 297.028818 
" style="fill:none;stroke:#ff69b4;stroke-width:0.7;"/>
    <path clip-path="url(#pd8e4e522ca)" d="M 69.5817 292.117341 
L 69.566822 292.098714 
L 69.442149 291.747431 
L 69.455494 291.396148 
L 69.5817 291.052548 
L 69.586498 291.044865 
L 69.937448 290.759756 
L 70.293197 290.714754 
L 70.648945 290.80165 
L 70.858927 291.044865 
L 70.962753 291.396148 
L 70.945104 291.747431 
L 70.783033 292.098714 
L 70.648945 292.223796 
L 70.293197 292.344178 
L 69.937448 292.328953 
L 69.5817 292.117341 
" style="fill:none;stroke:#ff69b4;stroke-width:0.7;"/>
    <path clip-path="url(#pd8e4e522ca)" d="M 85.234632 291.118588 
L 85.159301 291.044865 
L 85.020133 290.693582 
L 85.064282 290.342299 
L 85.234632 290.125816 
L 85.416061 289.991016 
L 85.590381 289.910116 
L 85.946129 289.866617 
L 86.223336 289.991016 
L 86.301878 290.034881 
L 86.549751 290.342299 
L 86.61433 290.693582 
L 86.521933 291.044865 
L 86.301878 291.25161 
L 85.946129 291.360132 
L 85.590381 291.309824 
L 85.234632 291.118588 
" style="fill:none;stroke:#ff69b4;stroke-width:0.7;"/>
    <path clip-path="url(#pd8e4e522ca)" d="M 86.301878 275.655184 
L 86.17153 275.58841 
L 85.946129 275.414274 
L 85.841681 275.237127 
L 85.775703 274.885844 
L 85.815646 274.534561 
L 85.946129 274.278653 
L 86.109997 274.183278 
L 86.301878 274.100276 
L 86.657626 274.141006 
L 86.74436 274.183278 
L 87.013375 274.342376 
L 87.151321 274.534561 
L 87.235377 274.885844 
L 87.173792 275.237127 
L 87.013375 275.451584 
L 86.777391 275.58841 
L 86.657626 275.63539 
L 86.301878 275.655184 
" style="fill:none;stroke:#ff69b4;stroke-width:0.7;"/>
    <path clip-path="url(#pd8e4e522ca)" d="M 172.748757 273.702132 
L 172.431583 273.480712 
L 172.393009 273.247435 
L 172.379153 273.129429 
L 172.393009 273.106633 
L 172.748757 272.77995 
L 172.760933 272.778146 
L 173.104505 272.744649 
L 173.460254 272.773261 
L 173.472973 272.778146 
L 173.816002 273.019664 
L 173.889405 273.129429 
L 173.842155 273.480712 
L 173.816002 273.510188 
L 173.460254 273.714925 
L 173.104505 273.751665 
L 172.748757 273.702132 
" style="fill:none;stroke:#ff69b4;stroke-width:0.7;"/>
    <path clip-path="url(#pd8e4e522ca)" d="M 330.701079 36.380378 
L 330.69283 36.364643 
L 330.701079 36.265435 
L 330.728574 36.01336 
L 331.056828 35.701213 
L 331.412576 35.759432 
L 331.607651 36.01336 
L 331.593783 36.364643 
L 331.412576 36.584439 
L 331.056828 36.692705 
L 330.701079 36.380378 
" style="fill:none;stroke:#ff69b4;stroke-width:0.7;"/>
    <path clip-path="url(#pd8e4e522ca)" d="M 334.258564 36.461465 
L 334.161743 36.364643 
L 334.037425 36.01336 
L 334.112491 35.662077 
L 334.258564 35.485529 
L 334.614313 35.356244 
L 334.970061 35.460652 
L 335.175498 35.662077 
L 335.151145 36.01336 
L 334.970061 36.252772 
L 334.8548 36.364643 
L 334.614313 36.50219 
L 334.258564 36.461465 
" style="fill:none;stroke:#ff69b4;stroke-width:0.7;"/>
   </g>
   <g id="LineCollection_9">
    <path clip-path="url(#pd8e4e522ca)" d="M 165.278039 299.315885 
L 164.940427 299.124376 
L 164.922291 299.104806 
L 164.701538 298.773093 
L 164.682675 298.42181 
L 164.862784 298.070527 
L 164.922291 298.014593 
L 165.278039 297.828337 
L 165.633788 297.798312 
L 165.989536 297.826234 
L 166.345284 297.921657 
L 166.583223 298.070527 
L 166.701033 298.190392 
L 166.891943 298.42181 
L 166.946972 298.773093 
L 166.775665 299.124376 
L 166.701033 299.185681 
L 166.345284 299.368844 
L 165.989536 299.414117 
L 165.633788 299.387368 
L 165.278039 299.315885 
" style="fill:none;stroke:#ff69b4;stroke-width:0.7;"/>
    <path clip-path="url(#pd8e4e522ca)" d="M 83.811639 297.195908 
L 83.522272 297.016677 
L 83.45589 296.931313 
L 83.297267 296.665394 
L 83.269372 296.314111 
L 83.397734 295.962828 
L 83.45589 295.892055 
L 83.811639 295.645365 
L 83.980302 295.611545 
L 84.167387 295.566968 
L 84.523136 295.58693 
L 84.602322 295.611545 
L 84.878884 295.698809 
L 85.115042 295.962828 
L 85.20826 296.314111 
L 85.200349 296.665394 
L 85.068655 297.016677 
L 84.878884 297.179735 
L 84.523136 297.251666 
L 84.167387 297.256996 
L 83.811639 297.195908 
" style="fill:none;stroke:#ff69b4;stroke-width:0.7;"/>
    <path clip-path="url(#pd8e4e522ca)" d="M 69.937448 292.455762 
L 69.919243 292.449998 
L 69.5817 292.319552 
L 69.405306 292.098714 
L 69.330842 291.747431 
L 69.346048 291.396148 
L 69.437782 291.044865 
L 69.5817 290.802252 
L 69.737135 290.693582 
L 69.937448 290.566079 
L 70.293197 290.526206 
L 70.648945 290.599795 
L 70.760568 290.693582 
L 71.004694 291.033358 
L 71.010731 291.044865 
L 71.103366 291.396148 
L 71.078219 291.747431 
L 71.004694 291.913605 
L 70.931778 292.098714 
L 70.648945 292.36255 
L 70.325889 292.449998 
L 70.293197 292.459733 
L 69.937448 292.455762 
" style="fill:none;stroke:#ff69b4;stroke-width:0.7;"/>
    <path clip-path="url(#pd8e4e522ca)" d="M 85.590381 291.471566 
L 85.340134 291.396148 
L 85.234632 291.352255 
L 84.920536 291.044865 
L 84.878884 290.91794 
L 84.805693 290.693582 
L 84.809992 290.342299 
L 84.878884 290.161113 
L 84.983283 289.991016 
L 85.234632 289.820337 
L 85.590381 289.712987 
L 85.946129 289.689396 
L 86.301878 289.812046 
L 86.531665 289.991016 
L 86.657626 290.176308 
L 86.751469 290.342299 
L 86.810138 290.693582 
L 86.740349 291.044865 
L 86.657626 291.164337 
L 86.397062 291.396148 
L 86.301878 291.440197 
L 85.946129 291.513382 
L 85.590381 291.471566 
" style="fill:none;stroke:#ff69b4;stroke-width:0.7;"/>
    <path clip-path="url(#pd8e4e522ca)" d="M 85.946129 275.61681 
L 85.918453 275.58841 
L 85.722643 275.237127 
L 85.672902 274.885844 
L 85.692488 274.534561 
L 85.820016 274.183278 
L 85.946129 274.026576 
L 86.301878 273.920761 
L 86.657626 273.958961 
L 87.013375 274.11287 
L 87.084398 274.183278 
L 87.309878 274.534561 
L 87.369123 274.877767 
L 87.371041 274.885844 
L 87.369123 274.898565 
L 87.332078 275.237127 
L 87.112085 275.58841 
L 87.013375 275.662002 
L 86.657626 275.778548 
L 86.301878 275.789054 
L 85.946129 275.61681 
" style="fill:none;stroke:#ff69b4;stroke-width:0.7;"/>
    <path clip-path="url(#pd8e4e522ca)" d="M 172.748757 273.951454 
L 172.443823 273.831995 
L 172.393009 273.800562 
L 172.127257 273.480712 
L 172.096585 273.129429 
L 172.28426 272.778146 
L 172.393009 272.684658 
L 172.748757 272.531157 
L 173.104505 272.507565 
L 173.460254 272.527305 
L 173.816002 272.63762 
L 174.009159 272.778146 
L 174.171751 273.080259 
L 174.196246 273.129429 
L 174.171751 273.281281 
L 174.146336 273.480712 
L 173.842993 273.831995 
L 173.816002 273.84921 
L 173.460254 273.963197 
L 173.104505 273.983229 
L 172.748757 273.951454 
" style="fill:none;stroke:#ff69b4;stroke-width:0.7;"/>
    <path clip-path="url(#pd8e4e522ca)" d="M 330.701079 36.819149 
L 330.587194 36.715926 
L 330.43922 36.364643 
L 330.482037 36.01336 
L 330.701079 35.667908 
L 330.707256 35.662077 
L 331.056828 35.4578 
L 331.412576 35.468733 
L 331.703662 35.662077 
L 331.768325 35.758436 
L 331.899273 36.01336 
L 331.882696 36.364643 
L 331.768325 36.568316 
L 331.657746 36.715926 
L 331.412576 36.879547 
L 331.056828 36.944756 
L 330.701079 36.819149 
" style="fill:none;stroke:#ff69b4;stroke-width:0.7;"/>
    <path clip-path="url(#pd8e4e522ca)" d="M 334.258564 36.71184 
L 333.911373 36.364643 
L 333.902816 36.32364 
L 333.849709 36.01336 
L 333.902816 35.771122 
L 333.924682 35.662077 
L 334.194034 35.310794 
L 334.258564 35.264063 
L 334.614313 35.158652 
L 334.970061 35.177204 
L 335.32581 35.300098 
L 335.343633 35.310794 
L 335.538119 35.662077 
L 335.449012 36.01336 
L 335.32581 36.168825 
L 335.187165 36.364643 
L 334.970061 36.539992 
L 334.614313 36.710421 
L 334.258564 36.71184 
" style="fill:none;stroke:#ff69b4;stroke-width:0.7;"/>
   </g>
   <g id="LineCollection_10">
    <path clip-path="url(#pd8e4e522ca)" d="M 165.633788 299.535991 
L 165.330376 299.475659 
L 165.278039 299.466667 
L 164.922291 299.319141 
L 164.680762 299.124376 
L 164.566542 298.913315 
L 164.479354 298.773093 
L 164.445584 298.42181 
L 164.566542 298.125984 
L 164.587488 298.070527 
L 164.922291 297.755827 
L 165.021878 297.719244 
L 165.278039 297.63139 
L 165.633788 297.619989 
L 165.989536 297.665754 
L 166.162837 297.719244 
L 166.345284 297.761359 
L 166.701033 297.94432 
L 166.873215 298.070527 
L 167.056781 298.32048 
L 167.119305 298.42181 
L 167.171389 298.773093 
L 167.056781 299.107587 
L 167.050426 299.124376 
L 166.701033 299.411379 
L 166.526968 299.475659 
L 166.345284 299.533128 
L 165.989536 299.564701 
L 165.633788 299.535991 
" style="fill:none;stroke:#ff69b4;stroke-width:0.7;"/>
    <path clip-path="url(#pd8e4e522ca)" d="M 83.45589 297.134313 
L 83.323749 297.016677 
L 83.159309 296.665394 
L 83.135255 296.314111 
L 83.212548 295.962828 
L 83.45589 295.666694 
L 83.543464 295.611545 
L 83.811639 295.464556 
L 84.167387 295.406612 
L 84.523136 295.422767 
L 84.878884 295.510599 
L 85.021279 295.611545 
L 85.234632 295.88664 
L 85.276481 295.962828 
L 85.363974 296.314111 
L 85.357224 296.665394 
L 85.239319 297.016677 
L 85.234632 297.023625 
L 84.878884 297.325163 
L 84.523136 297.356557 
L 84.167387 297.351958 
L 83.811639 297.307301 
L 83.45589 297.134313 
" style="fill:none;stroke:#ff69b4;stroke-width:0.7;"/>
    <path clip-path="url(#pd8e4e522ca)" d="M 69.5817 292.455571 
L 69.572895 292.449998 
L 69.297629 292.098714 
L 69.256637 291.747431 
L 69.273084 291.396148 
L 69.339298 291.044865 
L 69.518328 290.693582 
L 69.5817 290.604331 
L 69.937448 290.414923 
L 70.293197 290.393999 
L 70.648945 290.434317 
L 70.957517 290.693582 
L 71.004694 290.759243 
L 71.154539 291.044865 
L 71.211131 291.396148 
L 71.189607 291.747431 
L 71.049174 292.098714 
L 71.004694 292.151657 
L 70.661519 292.449998 
L 70.648945 292.456973 
L 70.293197 292.561497 
L 69.937448 292.566224 
L 69.5817 292.455571 
" style="fill:none;stroke:#ff69b4;stroke-width:0.7;"/>
    <path clip-path="url(#pd8e4e522ca)" d="M 85.234632 291.509309 
L 85.026672 291.396148 
L 84.878884 291.252564 
L 84.739611 291.044865 
L 84.647458 290.693582 
L 84.628788 290.342299 
L 84.694147 289.991016 
L 84.878884 289.754086 
L 85.154173 289.639733 
L 85.234632 289.612202 
L 85.590381 289.539287 
L 85.946129 289.523277 
L 86.226071 289.639733 
L 86.301878 289.663111 
L 86.657626 289.898454 
L 86.744143 289.991016 
L 86.910499 290.342299 
L 86.950839 290.693582 
L 86.915554 291.044865 
L 86.686261 291.396148 
L 86.657626 291.416918 
L 86.301878 291.571824 
L 85.946129 291.61742 
L 85.590381 291.584407 
L 85.234632 291.509309 
" style="fill:none;stroke:#ff69b4;stroke-width:0.7;"/>
    <path clip-path="url(#pd8e4e522ca)" d="M 85.946129 275.754539 
L 85.78423 275.58841 
L 85.643285 275.237127 
L 85.604368 274.885844 
L 85.610383 274.534561 
L 85.68108 274.183278 
L 85.946129 273.853941 
L 86.063471 273.831995 
L 86.301878 273.764514 
L 86.603681 273.831995 
L 86.657626 273.837598 
L 87.013375 273.945099 
L 87.253634 274.183278 
L 87.369123 274.396945 
L 87.444082 274.534561 
L 87.516455 274.885844 
L 87.482622 275.237127 
L 87.369123 275.458604 
L 87.298299 275.58841 
L 87.013375 275.800832 
L 86.657626 275.873986 
L 86.301878 275.8783 
L 85.946129 275.754539 
" style="fill:none;stroke:#ff69b4;stroke-width:0.7;"/>
    <path clip-path="url(#pd8e4e522ca)" d="M 172.393009 274.000196 
L 172.136182 273.831995 
L 172.03726 273.697971 
L 171.906555 273.480712 
L 171.87638 273.129429 
L 172.037181 272.778146 
L 172.03726 272.778062 
L 172.393009 272.472268 
L 172.523333 272.426863 
L 172.748757 272.343955 
L 173.104505 272.322957 
L 173.460254 272.341768 
L 173.779215 272.426863 
L 173.816002 272.435878 
L 174.171751 272.647245 
L 174.317232 272.778146 
L 174.452935 273.129429 
L 174.400289 273.480712 
L 174.171751 273.78945 
L 174.136387 273.831995 
L 173.816002 274.036338 
L 173.460254 274.113388 
L 173.104505 274.126726 
L 172.748757 274.100993 
L 172.393009 274.000196 
" style="fill:none;stroke:#ff69b4;stroke-width:0.7;"/>
    <path clip-path="url(#pd8e4e522ca)" d="M 331.056828 37.126331 
L 330.804662 37.067209 
L 330.701079 37.043768 
L 330.345331 36.726895 
L 330.33887 36.715926 
L 330.26251 36.364643 
L 330.320475 36.01336 
L 330.345331 35.960297 
L 330.504805 35.662077 
L 330.701079 35.468997 
L 331.034309 35.310794 
L 331.056828 35.299461 
L 331.412576 35.288141 
L 331.468028 35.310794 
L 331.768325 35.456162 
L 331.981042 35.662077 
L 332.101152 36.01336 
L 332.08105 36.364643 
L 331.924031 36.715926 
L 331.768325 36.874141 
L 331.412576 37.056147 
L 331.342216 37.067209 
L 331.056828 37.126331 
" style="fill:none;stroke:#ff69b4;stroke-width:0.7;"/>
    <path clip-path="url(#pd8e4e522ca)" d="M 334.258564 36.92407 
L 333.903432 36.715926 
L 333.902816 36.7153 
L 333.733821 36.364643 
L 333.712826 36.01336 
L 333.781615 35.662077 
L 333.902816 35.452544 
L 334.007159 35.310794 
L 334.258564 35.128734 
L 334.614313 35.031069 
L 334.970061 35.01138 
L 335.32581 35.037244 
L 335.681558 35.198875 
L 335.787098 35.310794 
L 335.848025 35.662077 
L 335.689244 36.01336 
L 335.681558 36.021458 
L 335.432693 36.364643 
L 335.32581 36.455718 
L 334.970061 36.711044 
L 334.959794 36.715926 
L 334.614313 36.887438 
L 334.258564 36.92407 
" style="fill:none;stroke:#ff69b4;stroke-width:0.7;"/>
   </g>
   <g id="LineCollection_11">
    <path clip-path="url(#pd8e4e522ca)" d="M 84.167387 298.439939 
L 84.218178 298.42181 
L 84.523136 298.149377 
L 84.546404 298.070527 
L 84.523136 298.058245 
L 84.167387 297.962874 
L 83.811639 298.041408 
L 83.772877 298.070527 
L 83.811639 298.146174 
L 84.139009 298.42181 
L 84.167387 298.439939 
" style="fill:none;stroke:#2e8b57;stroke-width:0.7;"/>
    <path clip-path="url(#pd8e4e522ca)" d="M 70.648945 293.504009 
L 70.649088 293.503847 
L 70.819369 293.152564 
L 70.648945 293.045335 
L 70.293197 293.082477 
L 69.975283 293.152564 
L 70.293197 293.485282 
L 70.643558 293.503847 
L 70.648945 293.504009 
" style="fill:none;stroke:#2e8b57;stroke-width:0.7;"/>
    <path clip-path="url(#pd8e4e522ca)" d="M 86.301878 276.73339 
L 86.500356 276.64226 
L 86.301878 276.56988 
L 86.227077 276.64226 
L 86.301878 276.73339 
" style="fill:none;stroke:#2e8b57;stroke-width:0.7;"/>
    <path clip-path="url(#pd8e4e522ca)" d="M 237.494979 119.016774 
L 237.850728 119.096851 
L 238.206476 119.119646 
L 238.562225 119.105217 
L 238.917973 119.034466 
L 239.132812 118.916163 
L 239.273722 118.815323 
L 239.458048 118.56488 
L 239.537408 118.213597 
L 239.548603 117.862314 
L 239.518376 117.511031 
L 239.415017 117.159748 
L 239.273722 116.946211 
L 239.163578 116.808465 
L 238.917973 116.614082 
L 238.562225 116.506861 
L 238.206476 116.468682 
L 237.850728 116.459963 
L 237.494979 116.476626 
L 237.139231 116.562584 
L 236.861243 116.808465 
L 236.783482 116.949697 
L 236.651793 117.159748 
L 236.574666 117.511031 
L 236.574007 117.862314 
L 236.639821 118.213597 
L 236.783482 118.470738 
L 236.821548 118.56488 
L 237.139231 118.868259 
L 237.267966 118.916163 
L 237.494979 119.016774 
" style="fill:none;stroke:#2e8b57;stroke-width:0.7;"/>
    <path clip-path="url(#pd8e4e522ca)" d="M 320.028625 74.331951 
L 320.384374 74.532667 
L 320.740122 74.546221 
L 321.095871 74.52684 
L 321.451619 74.485387 
L 321.807368 74.367098 
L 321.912716 74.303214 
L 322.163116 74.096376 
L 322.280159 73.951931 
L 322.418109 73.600648 
L 322.44603 73.249365 
L 322.383104 72.898082 
L 322.163116 72.60727 
L 322.094626 72.546799 
L 321.807368 72.386275 
L 321.451619 72.275256 
L 321.095871 72.224694 
L 320.740122 72.200622 
L 320.384374 72.203357 
L 320.028625 72.298852 
L 319.672877 72.476465 
L 319.552855 72.546799 
L 319.357693 72.898082 
L 319.343111 73.249365 
L 319.416489 73.600648 
L 319.646314 73.951931 
L 319.672877 73.979143 
L 319.994172 74.303214 
L 320.028625 74.331951 
" style="fill:none;stroke:#2e8b57;stroke-width:0.7;"/>
    <path clip-path="url(#pd8e4e522ca)" d="M 313.980901 69.034962 
L 313.984846 69.033968 
L 314.33665 68.985139 
L 314.692398 68.813475 
L 314.826362 68.682685 
L 314.995524 68.331402 
L 315.021537 67.980119 
L 314.987667 67.628836 
L 314.8679 67.277553 
L 314.692398 67.077176 
L 314.530674 66.926269 
L 314.33665 66.809777 
L 313.980901 66.669547 
L 313.625153 66.592867 
L 313.470894 66.574986 
L 313.269404 66.525955 
L 312.913656 66.507334 
L 312.566016 66.574986 
L 312.557907 66.57608 
L 312.202159 66.705195 
L 311.932263 66.926269 
L 311.84641 67.115092 
L 311.768354 67.277553 
L 311.743242 67.628836 
L 311.84641 67.974221 
L 311.84733 67.980119 
L 311.990343 68.331402 
L 312.202159 68.553446 
L 312.39547 68.682685 
L 312.557907 68.778807 
L 312.913656 68.909031 
L 313.269404 68.988548 
L 313.625153 69.03027 
L 313.953303 69.033968 
L 313.980901 69.034962 
" style="fill:none;stroke:#2e8b57;stroke-width:0.7;"/>
    <path clip-path="url(#pd8e4e522ca)" d="M 317.538386 68.387367 
L 317.894134 68.418119 
L 318.249883 68.377156 
L 318.441643 68.331402 
L 318.605631 68.313209 
L 318.96138 68.251845 
L 319.317128 68.166281 
L 319.672877 67.994705 
L 319.747034 67.980119 
L 320.028625 67.830841 
L 320.312717 67.628836 
L 320.324158 67.277553 
L 320.028625 66.991204 
L 320.006358 66.926269 
L 319.74472 66.574986 
L 319.672877 66.512833 
L 319.381449 66.223703 
L 319.317128 66.182715 
L 318.96138 66.069764 
L 318.605631 66.02131 
L 318.249883 65.980838 
L 317.894134 65.984164 
L 317.538386 66.045596 
L 317.182637 66.188592 
L 317.120857 66.223703 
L 316.826889 66.484929 
L 316.751578 66.574986 
L 316.614567 66.926269 
L 316.596884 67.277553 
L 316.681919 67.628836 
L 316.826889 67.832401 
L 316.932643 67.980119 
L 317.182637 68.21126 
L 317.442005 68.331402 
L 317.538386 68.387367 
" style="fill:none;stroke:#2e8b57;stroke-width:0.7;"/>
    <path clip-path="url(#pd8e4e522ca)" d="M 276.271563 63.871436 
L 276.627311 63.898255 
L 276.98306 63.8304 
L 277.154021 63.764722 
L 277.338808 63.723815 
L 277.694557 63.539718 
L 277.843097 63.413439 
L 278.050305 63.127558 
L 278.100366 63.062156 
L 278.24497 62.710873 
L 278.263809 62.35959 
L 278.162332 62.008307 
L 278.050305 61.866343 
L 277.816405 61.657023 
L 277.694557 61.588738 
L 277.338808 61.469342 
L 276.98306 61.424776 
L 276.627311 61.417464 
L 276.271563 61.472321 
L 275.915814 61.621746 
L 275.852636 61.657023 
L 275.560066 61.864293 
L 275.424814 62.008307 
L 275.271857 62.35959 
L 275.226918 62.710873 
L 275.245675 63.062156 
L 275.400243 63.413439 
L 275.560066 63.560314 
L 275.915814 63.745237 
L 275.995502 63.764722 
L 276.271563 63.871436 
" style="fill:none;stroke:#2e8b57;stroke-width:0.7;"/>
    <path clip-path="url(#pd8e4e522ca)" d="M 319.672877 55.355777 
L 320.028625 55.522236 
L 320.384374 55.586939 
L 320.740122 55.483364 
L 320.932698 55.333928 
L 321.095871 55.100092 
L 321.142074 54.982645 
L 321.194956 54.631362 
L 321.172036 54.280079 
L 321.095871 54.021534 
L 321.072753 53.928796 
L 320.849162 53.577513 
L 320.740122 53.48239 
L 320.384374 53.323112 
L 320.028625 53.272038 
L 319.672877 53.252832 
L 319.317128 53.253052 
L 318.96138 53.292165 
L 318.605631 53.371098 
L 318.249883 53.531489 
L 318.180766 53.577513 
L 317.949408 53.928796 
L 317.946366 54.280079 
L 318.103064 54.631362 
L 318.249883 54.778285 
L 318.503484 54.982645 
L 318.605631 55.039749 
L 318.96138 55.182387 
L 319.317128 55.263269 
L 319.621172 55.333928 
L 319.672877 55.355777 
" style="fill:none;stroke:#2e8b57;stroke-width:0.7;"/>
    <path clip-path="url(#pd8e4e522ca)" d="M 290.85725 51.177973 
L 291.212999 51.201577 
L 291.503737 51.118532 
L 291.568747 51.104816 
L 291.924496 50.954124 
L 292.136159 50.767248 
L 292.258862 50.415965 
L 292.245521 50.064682 
L 292.127319 49.713399 
L 291.924496 49.488185 
L 291.734109 49.362116 
L 291.568747 49.277225 
L 291.212999 49.17763 
L 290.85725 49.149052 
L 290.501502 49.172044 
L 290.145753 49.283521 
L 290.008484 49.362116 
L 289.790005 49.53529 
L 289.619737 49.713399 
L 289.521153 50.064682 
L 289.583765 50.415965 
L 289.790005 50.681708 
L 289.861461 50.767248 
L 290.145753 50.964768 
L 290.501502 51.088856 
L 290.656466 51.118532 
L 290.85725 51.177973 
" style="fill:none;stroke:#2e8b57;stroke-width:0.7;"/>
    <path clip-path="url(#pd8e4e522ca)" d="M 283.742281 46.354958 
L 284.098029 46.436734 
L 284.453778 46.448695 
L 284.809526 46.40863 
L 285.165275 46.302393 
L 285.338009 46.200569 
L 285.521023 46.054829 
L 285.687117 45.849286 
L 285.801836 45.498002 
L 285.838216 45.146719 
L 285.833163 44.795436 
L 285.75314 44.444153 
L 285.521023 44.171435 
L 285.410008 44.09287 
L 285.165275 43.931825 
L 284.809526 43.831469 
L 284.453778 43.830984 
L 284.098029 43.923315 
L 283.833106 44.09287 
L 283.742281 44.135075 
L 283.423418 44.444153 
L 283.386532 44.514338 
L 283.228941 44.795436 
L 283.160682 45.146719 
L 283.15508 45.498002 
L 283.222561 45.849286 
L 283.386532 46.090547 
L 283.492937 46.200569 
L 283.742281 46.354958 
" style="fill:none;stroke:#2e8b57;stroke-width:0.7;"/>
    <path clip-path="url(#pd8e4e522ca)" d="M 329.633834 35.673434 
L 329.636987 35.662077 
L 329.633834 35.634536 
L 329.620584 35.662077 
L 329.633834 35.673434 
" style="fill:none;stroke:#2e8b57;stroke-width:0.7;"/>
   </g>
   <g id="LineCollection_12">
    <path clip-path="url(#pd8e4e522ca)" d="M 237.494979 118.91723 
L 237.850728 119.028938 
L 238.206476 119.057327 
L 238.562225 119.027986 
L 238.907998 118.916163 
L 238.917973 118.913652 
L 239.273722 118.654875 
L 239.339957 118.56488 
L 239.46841 118.213597 
L 239.490807 117.862314 
L 239.452367 117.511031 
L 239.311286 117.159748 
L 239.273722 117.102978 
L 239.038225 116.808465 
L 238.917973 116.713292 
L 238.562225 116.561401 
L 238.206476 116.509483 
L 237.850728 116.502114 
L 237.494979 116.535513 
L 237.139231 116.673152 
L 236.986249 116.808465 
L 236.787705 117.159748 
L 236.783482 117.180603 
L 236.670206 117.511031 
L 236.664817 117.862314 
L 236.76075 118.213597 
L 236.783482 118.254285 
L 236.909068 118.56488 
L 237.139231 118.78468 
L 237.492573 118.916163 
L 237.494979 118.91723 
" style="fill:none;stroke:#2e8b57;stroke-width:0.7;"/>
    <path clip-path="url(#pd8e4e522ca)" d="M 320.384374 74.351251 
L 320.740122 74.400685 
L 321.095871 74.38654 
L 321.451619 74.321949 
L 321.499349 74.303214 
L 321.807368 74.178051 
L 322.057011 73.951931 
L 322.163116 73.748457 
L 322.2376 73.600648 
L 322.283274 73.249365 
L 322.182806 72.898082 
L 322.163116 72.872053 
L 321.807368 72.553161 
L 321.796034 72.546799 
L 321.451619 72.394334 
L 321.095871 72.309658 
L 320.740122 72.269979 
L 320.384374 72.280555 
L 320.028625 72.416659 
L 319.812251 72.546799 
L 319.672877 72.779738 
L 319.589189 72.898082 
L 319.548472 73.249365 
L 319.662269 73.600648 
L 319.672877 73.616251 
L 319.828733 73.951931 
L 320.028625 74.151175 
L 320.304103 74.303214 
L 320.384374 74.351251 
" style="fill:none;stroke:#2e8b57;stroke-width:0.7;"/>
    <path clip-path="url(#pd8e4e522ca)" d="M 312.913656 68.799665 
L 313.269404 68.898505 
L 313.625153 68.940329 
L 313.980901 68.927331 
L 314.33665 68.826804 
L 314.557449 68.682685 
L 314.692398 68.546734 
L 314.834384 68.331402 
L 314.902539 67.980119 
L 314.866969 67.628836 
L 314.694342 67.277553 
L 314.692398 67.275333 
L 314.33665 66.934574 
L 314.323088 66.926269 
L 313.980901 66.750313 
L 313.625153 66.657124 
L 313.269404 66.61527 
L 312.913656 66.617879 
L 312.557907 66.684644 
L 312.202159 66.895667 
L 312.164798 66.926269 
L 311.934362 67.277553 
L 311.901192 67.628836 
L 311.961881 67.980119 
L 312.169634 68.331402 
L 312.202159 68.365497 
L 312.557907 68.641536 
L 312.658586 68.682685 
L 312.913656 68.799665 
" style="fill:none;stroke:#2e8b57;stroke-width:0.7;"/>
    <path clip-path="url(#pd8e4e522ca)" d="M 317.538386 68.225896 
L 317.894134 68.279242 
L 318.249883 68.269342 
L 318.605631 68.224398 
L 318.96138 68.141356 
L 319.317128 67.99753 
L 319.351543 67.980119 
L 319.628454 67.628836 
L 319.670447 67.277553 
L 319.63643 66.926269 
L 319.478569 66.574986 
L 319.317128 66.415186 
L 318.96138 66.237222 
L 318.907099 66.223703 
L 318.605631 66.143966 
L 318.249883 66.089381 
L 317.894134 66.099704 
L 317.538386 66.187244 
L 317.454509 66.223703 
L 317.182637 66.352531 
L 316.946331 66.574986 
L 316.826889 66.88109 
L 316.806284 66.926269 
L 316.783732 67.277553 
L 316.826889 67.401485 
L 316.889076 67.628836 
L 317.182637 67.97812 
L 317.184785 67.980119 
L 317.538386 68.225896 
" style="fill:none;stroke:#2e8b57;stroke-width:0.7;"/>
    <path clip-path="url(#pd8e4e522ca)" d="M 275.915814 63.63007 
L 276.271563 63.732545 
L 276.627311 63.753652 
L 276.98306 63.720075 
L 277.338808 63.623476 
L 277.645999 63.413439 
L 277.694557 63.368376 
L 277.95812 63.062156 
L 278.050305 62.764765 
L 278.074588 62.710873 
L 278.094428 62.35959 
L 278.050305 62.242701 
L 277.978277 62.008307 
L 277.694557 61.73968 
L 277.525955 61.657023 
L 277.338808 61.579563 
L 276.98306 61.506891 
L 276.627311 61.492642 
L 276.271563 61.559234 
L 276.056557 61.657023 
L 275.915814 61.718814 
L 275.575093 62.008307 
L 275.560066 62.036264 
L 275.376283 62.35959 
L 275.325131 62.710873 
L 275.374764 63.062156 
L 275.560066 63.343384 
L 275.616891 63.413439 
L 275.915814 63.63007 
" style="fill:none;stroke:#2e8b57;stroke-width:0.7;"/>
    <path clip-path="url(#pd8e4e522ca)" d="M 320.384374 55.395547 
L 320.554475 55.333928 
L 320.740122 55.2802 
L 320.999408 54.982645 
L 321.077909 54.631362 
L 321.064888 54.280079 
L 320.968992 53.928796 
L 320.740122 53.634751 
L 320.666652 53.577513 
L 320.384374 53.419124 
L 320.028625 53.356077 
L 319.672877 53.345838 
L 319.317128 53.366961 
L 318.96138 53.434824 
L 318.605631 53.560911 
L 318.57257 53.577513 
L 318.249883 53.915378 
L 318.24003 53.928796 
L 318.207507 54.280079 
L 318.249883 54.361238 
L 318.365584 54.631362 
L 318.605631 54.842664 
L 318.832214 54.982645 
L 318.96138 55.042038 
L 319.317128 55.147556 
L 319.672877 55.234512 
L 320.028625 55.332138 
L 320.046122 55.333928 
L 320.384374 55.395547 
" style="fill:none;stroke:#2e8b57;stroke-width:0.7;"/>
    <path clip-path="url(#pd8e4e522ca)" d="M 290.145753 50.779099 
L 290.501502 50.951687 
L 290.85725 51.02946 
L 291.212999 51.034194 
L 291.568747 50.939774 
L 291.858605 50.767248 
L 291.924496 50.700153 
L 292.09222 50.415965 
L 292.099632 50.064682 
L 291.944206 49.713399 
L 291.924496 49.691513 
L 291.568747 49.424494 
L 291.394562 49.362116 
L 291.212999 49.302197 
L 290.85725 49.270696 
L 290.501502 49.322553 
L 290.397521 49.362116 
L 290.145753 49.479076 
L 289.875743 49.713399 
L 289.790005 49.946896 
L 289.744406 50.064682 
L 289.790005 50.256742 
L 289.820198 50.415965 
L 290.128696 50.767248 
L 290.145753 50.779099 
" style="fill:none;stroke:#2e8b57;stroke-width:0.7;"/>
    <path clip-path="url(#pd8e4e522ca)" d="M 283.742281 46.233234 
L 284.098029 46.367912 
L 284.453778 46.393178 
L 284.809526 46.344948 
L 285.165275 46.202385 
L 285.168356 46.200569 
L 285.521023 45.919731 
L 285.577948 45.849286 
L 285.73118 45.498002 
L 285.772951 45.146719 
L 285.749944 44.795436 
L 285.602013 44.444153 
L 285.521023 44.348996 
L 285.165275 44.094808 
L 285.159246 44.09287 
L 284.809526 43.939207 
L 284.453778 43.926392 
L 284.098029 44.04655 
L 284.025656 44.09287 
L 283.742281 44.224549 
L 283.515725 44.444153 
L 283.386532 44.689978 
L 283.327409 44.795436 
L 283.238418 45.146719 
L 283.241264 45.498002 
L 283.360714 45.849286 
L 283.386532 45.887274 
L 283.689526 46.200569 
L 283.742281 46.233234 
" style="fill:none;stroke:#2e8b57;stroke-width:0.7;"/>
   </g>
   <g id="LineCollection_13">
    <path clip-path="url(#pd8e4e522ca)" d="M 237.850728 118.927069 
L 238.206476 118.96385 
L 238.539547 118.916163 
L 238.562225 118.914297 
L 238.917973 118.82348 
L 239.209976 118.56488 
L 239.273722 118.418962 
L 239.364915 118.213597 
L 239.404114 117.862314 
L 239.353353 117.511031 
L 239.273722 117.330258 
L 239.214818 117.159748 
L 238.917973 116.838733 
L 238.864103 116.808465 
L 238.562225 116.643211 
L 238.206476 116.570686 
L 237.850728 116.565342 
L 237.494979 116.623843 
L 237.168034 116.808465 
L 237.139231 116.82785 
L 236.872357 117.159748 
L 236.79547 117.511031 
L 236.790389 117.862314 
L 236.84404 118.213597 
L 237.040348 118.56488 
L 237.139231 118.65931 
L 237.494979 118.85128 
L 237.816103 118.916163 
L 237.850728 118.927069 
" style="fill:none;stroke:#2e8b57;stroke-width:0.7;"/>
    <path clip-path="url(#pd8e4e522ca)" d="M 320.384374 74.182472 
L 320.740122 74.23768 
L 321.095871 74.226511 
L 321.451619 74.151564 
L 321.77809 73.951931 
L 321.807368 73.920274 
L 322.021865 73.600648 
L 322.068223 73.249365 
L 321.934971 72.898082 
L 321.807368 72.779687 
L 321.451619 72.569363 
L 321.3999 72.546799 
L 321.095871 72.437103 
L 320.740122 72.374016 
L 320.384374 72.396353 
L 320.088618 72.546799 
L 320.028625 72.59681 
L 319.787942 72.898082 
L 319.74814 73.249365 
L 319.819271 73.600648 
L 320.028625 73.906541 
L 320.069851 73.951931 
L 320.384374 74.182472 
" style="fill:none;stroke:#2e8b57;stroke-width:0.7;"/>
    <path clip-path="url(#pd8e4e522ca)" d="M 313.269404 68.763441 
L 313.625153 68.805418 
L 313.980901 68.766822 
L 314.184175 68.682685 
L 314.33665 68.615675 
L 314.621854 68.331402 
L 314.692398 68.085699 
L 314.724043 67.980119 
L 314.692398 67.687814 
L 314.688401 67.628836 
L 314.543403 67.277553 
L 314.33665 67.078847 
L 314.087486 66.926269 
L 313.980901 66.871462 
L 313.625153 66.75351 
L 313.269404 66.710199 
L 312.913656 66.731113 
L 312.557907 66.84749 
L 312.432895 66.926269 
L 312.202159 67.171706 
L 312.127708 67.277553 
L 312.056258 67.628836 
L 312.133709 67.980119 
L 312.202159 68.089666 
L 312.358488 68.331402 
L 312.557907 68.49534 
L 312.913656 68.654302 
L 313.029013 68.682685 
L 313.269404 68.763441 
" style="fill:none;stroke:#2e8b57;stroke-width:0.7;"/>
    <path clip-path="url(#pd8e4e522ca)" d="M 317.538386 68.030287 
L 317.894134 68.143641 
L 318.249883 68.14693 
L 318.605631 68.091182 
L 318.950169 67.980119 
L 318.96138 67.976013 
L 319.317128 67.716513 
L 319.390752 67.628836 
L 319.474745 67.277553 
L 319.411643 66.926269 
L 319.317128 66.770027 
L 319.190503 66.574986 
L 318.96138 66.410458 
L 318.605631 66.29035 
L 318.249883 66.242106 
L 317.894134 66.256112 
L 317.538386 66.345259 
L 317.191408 66.574986 
L 317.182637 66.586823 
L 316.986954 66.926269 
L 316.969229 67.277553 
L 317.109227 67.628836 
L 317.182637 67.71618 
L 317.466208 67.980119 
L 317.538386 68.030287 
" style="fill:none;stroke:#2e8b57;stroke-width:0.7;"/>
    <path clip-path="url(#pd8e4e522ca)" d="M 275.915814 63.45732 
L 276.271563 63.61593 
L 276.627311 63.652506 
L 276.98306 63.612547 
L 277.338808 63.472969 
L 277.425875 63.413439 
L 277.694557 63.164097 
L 277.782297 63.062156 
L 277.929876 62.710873 
L 277.935179 62.35959 
L 277.771444 62.008307 
L 277.694557 61.93551 
L 277.338808 61.715403 
L 277.086828 61.657023 
L 276.98306 61.630064 
L 276.627311 61.605409 
L 276.397204 61.657023 
L 276.271563 61.67817 
L 275.915814 61.844658 
L 275.723207 62.008307 
L 275.560066 62.311836 
L 275.532922 62.35959 
L 275.472451 62.710873 
L 275.560066 63.038458 
L 275.565477 63.062156 
L 275.855264 63.413439 
L 275.915814 63.45732 
" style="fill:none;stroke:#2e8b57;stroke-width:0.7;"/>
    <path clip-path="url(#pd8e4e522ca)" d="M 319.672877 55.068107 
L 320.028625 55.170842 
L 320.384374 55.19987 
L 320.740122 55.05084 
L 320.799546 54.982645 
L 320.944988 54.631362 
L 320.942221 54.280079 
L 320.813351 53.928796 
L 320.740122 53.834714 
L 320.409986 53.577513 
L 320.384374 53.563142 
L 320.028625 53.482136 
L 319.672877 53.485347 
L 319.317128 53.537825 
L 319.170997 53.577513 
L 318.96138 53.64771 
L 318.605631 53.874394 
L 318.552248 53.928796 
L 318.483883 54.280079 
L 318.605631 54.507423 
L 318.672436 54.631362 
L 318.96138 54.843471 
L 319.317128 54.974569 
L 319.348625 54.982645 
L 319.672877 55.068107 
" style="fill:none;stroke:#2e8b57;stroke-width:0.7;"/>
    <path clip-path="url(#pd8e4e522ca)" d="M 290.85725 50.843814 
L 291.212999 50.832866 
L 291.397327 50.767248 
L 291.568747 50.68764 
L 291.838649 50.415965 
L 291.87995 50.064682 
L 291.680455 49.713399 
L 291.568747 49.62725 
L 291.212999 49.475158 
L 290.85725 49.44246 
L 290.501502 49.521961 
L 290.192635 49.713399 
L 290.145753 49.787365 
L 290.005515 50.064682 
L 290.087664 50.415965 
L 290.145753 50.480916 
L 290.501502 50.744651 
L 290.572923 50.767248 
L 290.85725 50.843814 
" style="fill:none;stroke:#2e8b57;stroke-width:0.7;"/>
    <path clip-path="url(#pd8e4e522ca)" d="M 284.098029 46.264678 
L 284.453778 46.309902 
L 284.809526 46.249424 
L 284.930877 46.200569 
L 285.165275 46.11066 
L 285.455171 45.849286 
L 285.521023 45.709146 
L 285.625196 45.498002 
L 285.675053 45.146719 
L 285.625117 44.795436 
L 285.521023 44.597055 
L 285.432975 44.444153 
L 285.165275 44.213065 
L 284.809526 44.096535 
L 284.727207 44.09287 
L 284.453778 44.069504 
L 284.390137 44.09287 
L 284.098029 44.151905 
L 283.742281 44.358761 
L 283.654185 44.444153 
L 283.433938 44.795436 
L 283.386532 45.037599 
L 283.355022 45.146719 
L 283.370541 45.498002 
L 283.386532 45.541496 
L 283.482855 45.849286 
L 283.742281 46.109832 
L 283.944834 46.200569 
L 284.098029 46.264678 
" style="fill:none;stroke:#2e8b57;stroke-width:0.7;"/>
   </g>
   <g id="LineCollection_14">
    <path clip-path="url(#pd8e4e522ca)" d="M 237.494979 118.753255 
L 237.850728 118.853315 
L 238.206476 118.874481 
L 238.562225 118.833712 
L 238.917973 118.688222 
L 239.057247 118.56488 
L 239.239004 118.213597 
L 239.273722 117.864602 
L 239.274073 117.862314 
L 239.273722 117.860277 
L 239.239032 117.511031 
L 239.098345 117.159748 
L 238.917973 116.96469 
L 238.639931 116.808465 
L 238.562225 116.765927 
L 238.206476 116.662489 
L 237.850728 116.660183 
L 237.494979 116.756339 
L 237.40267 116.808465 
L 237.139231 116.985765 
L 236.999334 117.159748 
L 236.881268 117.511031 
L 236.870799 117.862314 
L 236.947892 118.213597 
L 237.139231 118.490151 
L 237.212431 118.56488 
L 237.494979 118.753255 
" style="fill:none;stroke:#2e8b57;stroke-width:0.7;"/>
    <path clip-path="url(#pd8e4e522ca)" d="M 320.384374 73.962535 
L 320.740122 74.060084 
L 321.095871 74.036044 
L 321.344815 73.951931 
L 321.451619 73.898029 
L 321.735178 73.600648 
L 321.789606 73.249365 
L 321.59147 72.898082 
L 321.451619 72.80052 
L 321.095871 72.619482 
L 320.811618 72.546799 
L 320.740122 72.53007 
L 320.581922 72.546799 
L 320.384374 72.570548 
L 320.028625 72.88146 
L 320.015346 72.898082 
L 319.937514 73.249365 
L 320.028625 73.553788 
L 320.042721 73.600648 
L 320.369907 73.951931 
L 320.384374 73.962535 
" style="fill:none;stroke:#2e8b57;stroke-width:0.7;"/>
    <path clip-path="url(#pd8e4e522ca)" d="M 312.913656 68.505918 
L 313.269404 68.606253 
L 313.625153 68.63087 
L 313.980901 68.576318 
L 314.33665 68.360035 
L 314.365377 68.331402 
L 314.537439 67.980119 
L 314.52078 67.628836 
L 314.33665 67.3019 
L 314.320808 67.277553 
L 313.980901 67.026253 
L 313.702775 66.926269 
L 313.625153 66.898089 
L 313.269404 66.852593 
L 312.913656 66.900964 
L 312.849525 66.926269 
L 312.557907 67.073519 
L 312.359363 67.277553 
L 312.26367 67.628836 
L 312.332178 67.980119 
L 312.557907 68.273349 
L 312.620769 68.331402 
L 312.913656 68.505918 
" style="fill:none;stroke:#2e8b57;stroke-width:0.7;"/>
    <path clip-path="url(#pd8e4e522ca)" d="M 317.538386 67.786281 
L 317.894134 67.947107 
L 318.249883 67.966235 
L 318.605631 67.906117 
L 318.96138 67.749 
L 319.10373 67.628836 
L 319.224516 67.277553 
L 319.159097 66.926269 
L 318.96138 66.676674 
L 318.828227 66.574986 
L 318.605631 66.466785 
L 318.249883 66.399842 
L 317.894134 66.426974 
L 317.538386 66.56536 
L 317.523846 66.574986 
L 317.236241 66.926269 
L 317.213464 67.277553 
L 317.373299 67.628836 
L 317.538386 67.786281 
" style="fill:none;stroke:#2e8b57;stroke-width:0.7;"/>
    <path clip-path="url(#pd8e4e522ca)" d="M 276.271563 63.441006 
L 276.627311 63.500787 
L 276.98306 63.451255 
L 277.068978 63.413439 
L 277.338808 63.287692 
L 277.575139 63.062156 
L 277.694557 62.785138 
L 277.730267 62.710873 
L 277.726197 62.35959 
L 277.694557 62.300729 
L 277.519655 62.008307 
L 277.338808 61.880165 
L 276.98306 61.760041 
L 276.627311 61.734563 
L 276.271563 61.805091 
L 275.943112 62.008307 
L 275.915814 62.037068 
L 275.692458 62.35959 
L 275.646329 62.710873 
L 275.754129 63.062156 
L 275.915814 63.240544 
L 276.214832 63.413439 
L 276.271563 63.441006 
" style="fill:none;stroke:#2e8b57;stroke-width:0.7;"/>
    <path clip-path="url(#pd8e4e522ca)" d="M 319.317128 54.731741 
L 319.672877 54.833824 
L 320.028625 54.932627 
L 320.384374 54.943352 
L 320.740122 54.643014 
L 320.745606 54.631362 
L 320.75822 54.280079 
L 320.740122 54.236047 
L 320.576183 53.928796 
L 320.384374 53.76635 
L 320.028625 53.673138 
L 319.672877 53.698464 
L 319.317128 53.791365 
L 319.021537 53.928796 
L 318.96138 54.020998 
L 318.851024 54.280079 
L 318.96138 54.467806 
L 319.102127 54.631362 
L 319.317128 54.731741 
" style="fill:none;stroke:#2e8b57;stroke-width:0.7;"/>
    <path clip-path="url(#pd8e4e522ca)" d="M 290.501502 50.417465 
L 290.85725 50.559053 
L 291.212999 50.522773 
L 291.399474 50.415965 
L 291.536207 50.064682 
L 291.212999 49.734993 
L 291.116168 49.713399 
L 290.85725 49.68399 
L 290.763744 49.713399 
L 290.501502 49.893425 
L 290.379867 50.064682 
L 290.499605 50.415965 
L 290.501502 50.417465 
" style="fill:none;stroke:#2e8b57;stroke-width:0.7;"/>
    <path clip-path="url(#pd8e4e522ca)" d="M 283.742281 45.944071 
L 284.098029 46.145206 
L 284.453778 46.191009 
L 284.809526 46.142928 
L 285.165275 45.974144 
L 285.303758 45.849286 
L 285.486999 45.498002 
L 285.521023 45.190375 
L 285.528207 45.146719 
L 285.521023 45.111861 
L 285.469883 44.795436 
L 285.227488 44.444153 
L 285.165275 44.390449 
L 284.809526 44.208351 
L 284.453778 44.178787 
L 284.098029 44.270066 
L 283.84225 44.444153 
L 283.742281 44.537098 
L 283.552508 44.795436 
L 283.464517 45.146719 
L 283.482798 45.498002 
L 283.647903 45.849286 
L 283.742281 45.944071 
" style="fill:none;stroke:#2e8b57;stroke-width:0.7;"/>
   </g>
   <g id="LineCollection_15">
    <path clip-path="url(#pd8e4e522ca)" d="M 237.494979 118.606217 
L 237.850728 118.751797 
L 238.206476 118.779735 
L 238.562225 118.712834 
L 238.831666 118.56488 
L 238.917973 118.493721 
L 239.112782 118.213597 
L 239.172688 117.862314 
L 239.126851 117.511031 
L 238.923634 117.159748 
L 238.917973 117.153626 
L 238.562225 116.891432 
L 238.232251 116.808465 
L 238.206476 116.800194 
L 237.850728 116.802444 
L 237.831426 116.808465 
L 237.494979 116.900251 
L 237.179403 117.159748 
L 237.139231 117.233191 
L 237.009965 117.511031 
L 236.991414 117.862314 
L 237.103669 118.213597 
L 237.139231 118.264997 
L 237.432977 118.56488 
L 237.494979 118.606217 
" style="fill:none;stroke:#2e8b57;stroke-width:0.7;"/>
    <path clip-path="url(#pd8e4e522ca)" d="M 320.384374 73.65998 
L 320.740122 73.800836 
L 321.095871 73.739237 
L 321.310264 73.600648 
L 321.406196 73.249365 
L 321.1351 72.898082 
L 321.095871 72.875297 
L 320.740122 72.754163 
L 320.384374 72.836688 
L 320.315514 72.898082 
L 320.198164 73.249365 
L 320.328217 73.600648 
L 320.384374 73.65998 
" style="fill:none;stroke:#2e8b57;stroke-width:0.7;"/>
    <path clip-path="url(#pd8e4e522ca)" d="M 313.269404 68.415616 
L 313.625153 68.433362 
L 313.979942 68.331402 
L 313.980901 68.330981 
L 314.276186 67.980119 
L 314.274657 67.628836 
L 314.030351 67.277553 
L 313.980901 67.240994 
L 313.625153 67.081429 
L 313.269404 67.043843 
L 312.913656 67.122338 
L 312.680343 67.277553 
L 312.557907 67.511083 
L 312.511206 67.628836 
L 312.557907 67.824548 
L 312.596548 67.980119 
L 312.913656 68.278969 
L 313.030454 68.331402 
L 313.269404 68.415616 
" style="fill:none;stroke:#2e8b57;stroke-width:0.7;"/>
    <path clip-path="url(#pd8e4e522ca)" d="M 317.894134 67.694545 
L 318.249883 67.738712 
L 318.605631 67.65622 
L 318.657151 67.628836 
L 318.919466 67.277553 
L 318.820158 66.926269 
L 318.605631 66.748277 
L 318.249883 66.643962 
L 317.894134 66.697826 
L 317.573276 66.926269 
L 317.538386 67.102531 
L 317.512977 67.277553 
L 317.538386 67.324416 
L 317.780045 67.628836 
L 317.894134 67.694545 
" style="fill:none;stroke:#2e8b57;stroke-width:0.7;"/>
    <path clip-path="url(#pd8e4e522ca)" d="M 276.271563 63.229535 
L 276.627311 63.304409 
L 276.98306 63.255371 
L 277.301844 63.062156 
L 277.338808 63.017295 
L 277.509984 62.710873 
L 277.490898 62.35959 
L 277.338808 62.155017 
L 277.138159 62.008307 
L 276.98306 61.940967 
L 276.627311 61.901947 
L 276.271563 61.995474 
L 276.250821 62.008307 
L 275.916955 62.35959 
L 275.915814 62.366575 
L 275.860731 62.710873 
L 275.915814 62.84252 
L 276.038474 63.062156 
L 276.271563 63.229535 
" style="fill:none;stroke:#2e8b57;stroke-width:0.7;"/>
    <path clip-path="url(#pd8e4e522ca)" d="M 319.672877 54.354079 
L 320.028625 54.551897 
L 320.384374 54.40673 
L 320.422252 54.280079 
L 320.384374 54.212172 
L 320.028625 54.013123 
L 319.672877 54.18485 
L 319.572468 54.280079 
L 319.672877 54.354079 
" style="fill:none;stroke:#2e8b57;stroke-width:0.7;"/>
    <path clip-path="url(#pd8e4e522ca)" d="M 284.098029 46.003489 
L 284.453778 46.076043 
L 284.809526 46.011736 
L 285.080023 45.849286 
L 285.165275 45.761594 
L 285.338949 45.498002 
L 285.388967 45.146719 
L 285.297138 44.795436 
L 285.165275 44.623711 
L 284.929449 44.444153 
L 284.809526 44.376077 
L 284.453778 44.323404 
L 284.105452 44.444153 
L 284.098029 44.446713 
L 283.742281 44.779214 
L 283.730364 44.795436 
L 283.6072 45.146719 
L 283.640176 45.498002 
L 283.742281 45.677802 
L 283.871247 45.849286 
L 284.098029 46.003489 
" style="fill:none;stroke:#2e8b57;stroke-width:0.7;"/>
   </g>
   <g id="LineCollection_16">
    <path clip-path="url(#pd8e4e522ca)" d="M 237.850728 118.599519 
L 238.206476 118.637617 
L 238.468147 118.56488 
L 238.562225 118.536261 
L 238.917973 118.221472 
L 238.92345 118.213597 
L 239.020864 117.862314 
L 238.958579 117.511031 
L 238.917973 117.441532 
L 238.70524 117.159748 
L 238.562225 117.053287 
L 238.206476 116.927473 
L 237.850728 116.935371 
L 237.494979 117.086878 
L 237.406362 117.159748 
L 237.188913 117.511031 
L 237.164709 117.862314 
L 237.289963 118.213597 
L 237.494979 118.419668 
L 237.77292 118.56488 
L 237.850728 118.599519 
" style="fill:none;stroke:#2e8b57;stroke-width:0.7;"/>
    <path clip-path="url(#pd8e4e522ca)" d="M 313.269404 68.104767 
L 313.625153 68.105854 
L 313.845645 67.980119 
L 313.903025 67.628836 
L 313.625153 67.392167 
L 313.269404 67.337326 
L 312.913656 67.578984 
L 312.881535 67.628836 
L 312.913656 67.743297 
L 313.026185 67.980119 
L 313.269404 68.104767 
" style="fill:none;stroke:#2e8b57;stroke-width:0.7;"/>
    <path clip-path="url(#pd8e4e522ca)" d="M 276.271563 62.84355 
L 276.627311 63.026848 
L 276.98306 62.928388 
L 277.17065 62.710873 
L 277.115712 62.35959 
L 276.98306 62.252789 
L 276.627311 62.182627 
L 276.271563 62.332361 
L 276.24522 62.35959 
L 276.182357 62.710873 
L 276.271563 62.84355 
" style="fill:none;stroke:#2e8b57;stroke-width:0.7;"/>
    <path clip-path="url(#pd8e4e522ca)" d="M 284.453778 45.903594 
L 284.682691 45.849286 
L 284.809526 45.811403 
L 285.11861 45.498002 
L 285.165275 45.251351 
L 285.184206 45.146719 
L 285.165275 45.091065 
L 285.043495 44.795436 
L 284.809526 44.597315 
L 284.453778 44.52373 
L 284.098029 44.662527 
L 283.958588 44.795436 
L 283.809441 45.146719 
L 283.855866 45.498002 
L 284.098029 45.784305 
L 284.263736 45.849286 
L 284.453778 45.903594 
" style="fill:none;stroke:#2e8b57;stroke-width:0.7;"/>
   </g>
   <g id="LineCollection_17">
    <path clip-path="url(#pd8e4e522ca)" d="M 237.850728 118.405323 
L 238.206476 118.447234 
L 238.562225 118.302962 
L 238.662146 118.213597 
L 238.807151 117.862314 
L 238.73594 117.511031 
L 238.562225 117.304538 
L 238.31579 117.159748 
L 238.206476 117.113431 
L 237.850728 117.131258 
L 237.792273 117.159748 
L 237.494979 117.396703 
L 237.414477 117.511031 
L 237.373566 117.862314 
L 237.494979 118.113628 
L 237.560757 118.213597 
L 237.850728 118.405323 
" style="fill:none;stroke:#2e8b57;stroke-width:0.7;"/>
    <path clip-path="url(#pd8e4e522ca)" d="M 284.453778 45.622841 
L 284.781234 45.498002 
L 284.809526 45.454668 
L 284.888425 45.146719 
L 284.809526 44.99957 
L 284.462395 44.795436 
L 284.453778 44.792957 
L 284.448305 44.795436 
L 284.098029 45.115929 
L 284.082563 45.146719 
L 284.098029 45.22627 
L 284.207433 45.498002 
L 284.453778 45.622841 
" style="fill:none;stroke:#2e8b57;stroke-width:0.7;"/>
   </g>
   <g id="LineCollection_18">
    <path clip-path="url(#pd8e4e522ca)" d="M 237.850728 118.062406 
L 238.206476 118.154273 
L 238.47892 117.862314 
L 238.351426 117.511031 
L 238.206476 117.4135 
L 237.850728 117.455721 
L 237.786232 117.511031 
L 237.705187 117.862314 
L 237.850728 118.062406 
" style="fill:none;stroke:#2e8b57;stroke-width:0.7;"/>
   </g>
   <g id="LineCollection_19"/>
   <g id="LineCollection_20"/>
   <g id="patch_3">
    <path d="M 57.842 311.068 
L 57.842 26.88 
" style="fill:none;stroke:#000000;stroke-linecap:square;stroke-linejoin:miter;stroke-width:1.3;"/>
   </g>
   <g id="patch_4">
    <path d="M 349.2 311.068 
L 349.2 26.88 
" style="fill:none;stroke:#000000;stroke-linecap:square;stroke-linejoin:miter;stroke-width:1.3;"/>
   </g>
   <g id="patch_5">
    <path d="M 57.842 311.068 
L 349.2 311.068 
" style="fill:none;stroke:#000000;stroke-linecap:square;stroke-linejoin:miter;stroke-width:1.3;"/>
   </g>
   <g id="patch_6">
    <path d="M 57.842 26.88 
L 349.2 26.88 
" style="fill:none;stroke:#000000;stroke-linecap:square;stroke-linejoin:miter;stroke-width:1.3;"/>
   </g>
   <g id="text_18">
    <!-- An example HSQC -->
    <g transform="translate(148.739125 20.88)scale(0.12 -0.12)">
     <defs>
      <path d="M 34.1875 63.1875 
L 20.796875 26.90625 
L 47.609375 26.90625 
z
M 28.609375 72.90625 
L 39.796875 72.90625 
L 67.578125 0 
L 57.328125 0 
L 50.6875 18.703125 
L 17.828125 18.703125 
L 11.1875 0 
L 0.78125 0 
z
" id="DejaVuSans-65"/>
      <path d="M 54.890625 33.015625 
L 54.890625 0 
L 45.90625 0 
L 45.90625 32.71875 
Q 45.90625 40.484375 42.875 44.328125 
Q 39.84375 48.1875 33.796875 48.1875 
Q 26.515625 48.1875 22.3125 43.546875 
Q 18.109375 38.921875 18.109375 30.90625 
L 18.109375 0 
L 9.078125 0 
L 9.078125 54.6875 
L 18.109375 54.6875 
L 18.109375 46.1875 
Q 21.34375 51.125 25.703125 53.5625 
Q 30.078125 56 35.796875 56 
Q 45.21875 56 50.046875 50.171875 
Q 54.890625 44.34375 54.890625 33.015625 
z
" id="DejaVuSans-110"/>
      <path d="M 56.203125 29.59375 
L 56.203125 25.203125 
L 14.890625 25.203125 
Q 15.484375 15.921875 20.484375 11.0625 
Q 25.484375 6.203125 34.421875 6.203125 
Q 39.59375 6.203125 44.453125 7.46875 
Q 49.3125 8.734375 54.109375 11.28125 
L 54.109375 2.78125 
Q 49.265625 0.734375 44.1875 -0.34375 
Q 39.109375 -1.421875 33.890625 -1.421875 
Q 20.796875 -1.421875 13.15625 6.1875 
Q 5.515625 13.8125 5.515625 26.8125 
Q 5.515625 40.234375 12.765625 48.109375 
Q 20.015625 56 32.328125 56 
Q 43.359375 56 49.78125 48.890625 
Q 56.203125 41.796875 56.203125 29.59375 
z
M 47.21875 32.234375 
Q 47.125 39.59375 43.09375 43.984375 
Q 39.0625 48.390625 32.421875 48.390625 
Q 24.90625 48.390625 20.390625 44.140625 
Q 15.875 39.890625 15.1875 32.171875 
z
" id="DejaVuSans-101"/>
      <path d="M 54.890625 54.6875 
L 35.109375 28.078125 
L 55.90625 0 
L 45.3125 0 
L 29.390625 21.484375 
L 13.484375 0 
L 2.875 0 
L 24.125 28.609375 
L 4.6875 54.6875 
L 15.28125 54.6875 
L 29.78125 35.203125 
L 44.28125 54.6875 
z
" id="DejaVuSans-120"/>
      <path d="M 34.28125 27.484375 
Q 23.390625 27.484375 19.1875 25 
Q 14.984375 22.515625 14.984375 16.5 
Q 14.984375 11.71875 18.140625 8.90625 
Q 21.296875 6.109375 26.703125 6.109375 
Q 34.1875 6.109375 38.703125 11.40625 
Q 43.21875 16.703125 43.21875 25.484375 
L 43.21875 27.484375 
z
M 52.203125 31.203125 
L 52.203125 0 
L 43.21875 0 
L 43.21875 8.296875 
Q 40.140625 3.328125 35.546875 0.953125 
Q 30.953125 -1.421875 24.3125 -1.421875 
Q 15.921875 -1.421875 10.953125 3.296875 
Q 6 8.015625 6 15.921875 
Q 6 25.140625 12.171875 29.828125 
Q 18.359375 34.515625 30.609375 34.515625 
L 43.21875 34.515625 
L 43.21875 35.40625 
Q 43.21875 41.609375 39.140625 45 
Q 35.0625 48.390625 27.6875 48.390625 
Q 23 48.390625 18.546875 47.265625 
Q 14.109375 46.140625 10.015625 43.890625 
L 10.015625 52.203125 
Q 14.9375 54.109375 19.578125 55.046875 
Q 24.21875 56 28.609375 56 
Q 40.484375 56 46.34375 49.84375 
Q 52.203125 43.703125 52.203125 31.203125 
z
" id="DejaVuSans-97"/>
      <path d="M 9.421875 75.984375 
L 18.40625 75.984375 
L 18.40625 0 
L 9.421875 0 
z
" id="DejaVuSans-108"/>
      <path d="M 53.515625 70.515625 
L 53.515625 60.890625 
Q 47.90625 63.578125 42.921875 64.890625 
Q 37.9375 66.21875 33.296875 66.21875 
Q 25.25 66.21875 20.875 63.09375 
Q 16.5 59.96875 16.5 54.203125 
Q 16.5 49.359375 19.40625 46.890625 
Q 22.3125 44.4375 30.421875 42.921875 
L 36.375 41.703125 
Q 47.40625 39.59375 52.65625 34.296875 
Q 57.90625 29 57.90625 20.125 
Q 57.90625 9.515625 50.796875 4.046875 
Q 43.703125 -1.421875 29.984375 -1.421875 
Q 24.8125 -1.421875 18.96875 -0.25 
Q 13.140625 0.921875 6.890625 3.21875 
L 6.890625 13.375 
Q 12.890625 10.015625 18.65625 8.296875 
Q 24.421875 6.59375 29.984375 6.59375 
Q 38.421875 6.59375 43.015625 9.90625 
Q 47.609375 13.234375 47.609375 19.390625 
Q 47.609375 24.75 44.3125 27.78125 
Q 41.015625 30.8125 33.5 32.328125 
L 27.484375 33.5 
Q 16.453125 35.6875 11.515625 40.375 
Q 6.59375 45.0625 6.59375 53.421875 
Q 6.59375 63.09375 13.40625 68.65625 
Q 20.21875 74.21875 32.171875 74.21875 
Q 37.3125 74.21875 42.625 73.28125 
Q 47.953125 72.359375 53.515625 70.515625 
z
" id="DejaVuSans-83"/>
      <path d="M 39.40625 66.21875 
Q 28.65625 66.21875 22.328125 58.203125 
Q 16.015625 50.203125 16.015625 36.375 
Q 16.015625 22.609375 22.328125 14.59375 
Q 28.65625 6.59375 39.40625 6.59375 
Q 50.140625 6.59375 56.421875 14.59375 
Q 62.703125 22.609375 62.703125 36.375 
Q 62.703125 50.203125 56.421875 58.203125 
Q 50.140625 66.21875 39.40625 66.21875 
z
M 53.21875 1.3125 
L 66.21875 -12.890625 
L 54.296875 -12.890625 
L 43.5 -1.21875 
Q 41.890625 -1.3125 41.03125 -1.359375 
Q 40.1875 -1.421875 39.40625 -1.421875 
Q 24.03125 -1.421875 14.8125 8.859375 
Q 5.609375 19.140625 5.609375 36.375 
Q 5.609375 53.65625 14.8125 63.9375 
Q 24.03125 74.21875 39.40625 74.21875 
Q 54.734375 74.21875 63.90625 63.9375 
Q 73.09375 53.65625 73.09375 36.375 
Q 73.09375 23.6875 67.984375 14.640625 
Q 62.890625 5.609375 53.21875 1.3125 
z
" id="DejaVuSans-81"/>
     </defs>
     <use xlink:href="#DejaVuSans-65"/>
     <use x="68.408203" xlink:href="#DejaVuSans-110"/>
     <use x="131.787109" xlink:href="#DejaVuSans-32"/>
     <use x="163.574219" xlink:href="#DejaVuSans-101"/>
     <use x="223.347656" xlink:href="#DejaVuSans-120"/>
     <use x="282.527344" xlink:href="#DejaVuSans-97"/>
     <use x="343.806641" xlink:href="#DejaVuSans-109"/>
     <use x="441.21875" xlink:href="#DejaVuSans-112"/>
     <use x="504.695312" xlink:href="#DejaVuSans-108"/>
     <use x="532.478516" xlink:href="#DejaVuSans-101"/>
     <use x="594.001953" xlink:href="#DejaVuSans-32"/>
     <use x="625.789062" xlink:href="#DejaVuSans-72"/>
     <use x="700.984375" xlink:href="#DejaVuSans-83"/>
     <use x="764.460938" xlink:href="#DejaVuSans-81"/>
     <use x="843.171875" xlink:href="#DejaVuSans-67"/>
    </g>
   </g>
  </g>
 </g>
 <defs>
  <clipPath id="pd8e4e522ca">
   <rect height="284.188" width="291.358" x="57.842" y="26.88"/>
  </clipPath>
 </defs>
</svg>
