<?xml version="1.0" encoding="utf-8" standalone="no"?>
<!DOCTYPE svg PUBLIC "-//W3C//DTD SVG 1.1//EN"
  "http://www.w3.org/Graphics/SVG/1.1/DTD/svg11.dtd">
<svg height="288pt" version="1.1" viewBox="0 0 432 288" width="432pt" xmlns="http://www.w3.org/2000/svg" xmlns:xlink="http://www.w3.org/1999/xlink">
 <metadata>
  <rdf:RDF xmlns:cc="http://creativecommons.org/ns#" xmlns:dc="http://purl.org/dc/elements/1.1/" xmlns:rdf="http://www.w3.org/1999/02/22-rdf-syntax-ns#">
   <cc:Work>
    <dc:type rdf:resource="http://purl.org/dc/dcmitype/StillImage"/>
    <dc:date>2021-09-14T16:36:48.930487</dc:date>
    <dc:format>image/svg+xml</dc:format>
    <dc:creator>
     <cc:Agent>
      <dc:title>Matplotlib v3.4.3, https://matplotlib.org/</dc:title>
     </cc:Agent>
    </dc:creator>
   </cc:Work>
  </rdf:RDF>
 </metadata>
 <defs>
  <style type="text/css">*{stroke-linecap:butt;stroke-linejoin:round;}</style>
 </defs>
 <g id="figure_1">
  <g id="patch_1">
   <path d="M 0 288 
L 432 288 
L 432 0 
L 0 0 
z
" style="fill:#ffffff;"/>
  </g>
  <g id="axes_1">
   <g id="patch_2">
    <path d="M 10.8 249.73975 
L 421.2 249.73975 
L 421.2 10.8 
L 10.8 10.8 
z
" style="fill:#ffffff;"/>
   </g>
   <g id="matplotlib.axis_1">
    <g id="xtick_1">
     <g id="line2d_1">
      <defs>
       <path d="M 0 0 
L 0 5 
" id="mc7346460b7" style="stroke:#000000;stroke-width:1.3;"/>
      </defs>
      <g>
       <use style="stroke:#000000;stroke-width:1.3;" x="379.801182" xlink:href="#mc7346460b7" y="249.73975"/>
      </g>
     </g>
     <g id="text_1">
      <!-- −2 -->
      <g transform="translate(372.430088 265.838188)scale(0.1 -0.1)">
       <defs>
        <path d="M 678 2272 
L 4684 2272 
L 4684 1741 
L 678 1741 
L 678 2272 
z
" id="DejaVuSans-2212" transform="scale(0.015625)"/>
        <path d="M 1228 531 
L 3431 531 
L 3431 0 
L 469 0 
L 469 531 
Q 828 903 1448 1529 
Q 2069 2156 2228 2338 
Q 2531 2678 2651 2914 
Q 2772 3150 2772 3378 
Q 2772 3750 2511 3984 
Q 2250 4219 1831 4219 
Q 1534 4219 1204 4116 
Q 875 4013 500 3803 
L 500 4441 
Q 881 4594 1212 4672 
Q 1544 4750 1819 4750 
Q 2544 4750 2975 4387 
Q 3406 4025 3406 3419 
Q 3406 3131 3298 2873 
Q 3191 2616 2906 2266 
Q 2828 2175 2409 1742 
Q 1991 1309 1228 531 
z
" id="DejaVuSans-32" transform="scale(0.015625)"/>
       </defs>
       <use xlink:href="#DejaVuSans-2212"/>
       <use x="83.789062" xlink:href="#DejaVuSans-32"/>
      </g>
     </g>
    </g>
    <g id="xtick_2">
     <g id="line2d_2">
      <g>
       <use style="stroke:#000000;stroke-width:1.3;" x="333.001093" xlink:href="#mc7346460b7" y="249.73975"/>
      </g>
     </g>
     <g id="text_2">
      <!-- 0 -->
      <g transform="translate(329.819843 265.838188)scale(0.1 -0.1)">
       <defs>
        <path d="M 2034 4250 
Q 1547 4250 1301 3770 
Q 1056 3291 1056 2328 
Q 1056 1369 1301 889 
Q 1547 409 2034 409 
Q 2525 409 2770 889 
Q 3016 1369 3016 2328 
Q 3016 3291 2770 3770 
Q 2525 4250 2034 4250 
z
M 2034 4750 
Q 2819 4750 3233 4129 
Q 3647 3509 3647 2328 
Q 3647 1150 3233 529 
Q 2819 -91 2034 -91 
Q 1250 -91 836 529 
Q 422 1150 422 2328 
Q 422 3509 836 4129 
Q 1250 4750 2034 4750 
z
" id="DejaVuSans-30" transform="scale(0.015625)"/>
       </defs>
       <use xlink:href="#DejaVuSans-30"/>
      </g>
     </g>
    </g>
    <g id="xtick_3">
     <g id="line2d_3">
      <g>
       <use style="stroke:#000000;stroke-width:1.3;" x="286.201004" xlink:href="#mc7346460b7" y="249.73975"/>
      </g>
     </g>
     <g id="text_3">
      <!-- 2 -->
      <g transform="translate(283.019754 265.838188)scale(0.1 -0.1)">
       <use xlink:href="#DejaVuSans-32"/>
      </g>
     </g>
    </g>
    <g id="xtick_4">
     <g id="line2d_4">
      <g>
       <use style="stroke:#000000;stroke-width:1.3;" x="239.400915" xlink:href="#mc7346460b7" y="249.73975"/>
      </g>
     </g>
     <g id="text_4">
      <!-- 4 -->
      <g transform="translate(236.219665 265.838188)scale(0.1 -0.1)">
       <defs>
        <path d="M 2419 4116 
L 825 1625 
L 2419 1625 
L 2419 4116 
z
M 2253 4666 
L 3047 4666 
L 3047 1625 
L 3713 1625 
L 3713 1100 
L 3047 1100 
L 3047 0 
L 2419 0 
L 2419 1100 
L 313 1100 
L 313 1709 
L 2253 4666 
z
" id="DejaVuSans-34" transform="scale(0.015625)"/>
       </defs>
       <use xlink:href="#DejaVuSans-34"/>
      </g>
     </g>
    </g>
    <g id="xtick_5">
     <g id="line2d_5">
      <g>
       <use style="stroke:#000000;stroke-width:1.3;" x="192.600826" xlink:href="#mc7346460b7" y="249.73975"/>
      </g>
     </g>
     <g id="text_5">
      <!-- 6 -->
      <g transform="translate(189.419576 265.838188)scale(0.1 -0.1)">
       <defs>
        <path d="M 2113 2584 
Q 1688 2584 1439 2293 
Q 1191 2003 1191 1497 
Q 1191 994 1439 701 
Q 1688 409 2113 409 
Q 2538 409 2786 701 
Q 3034 994 3034 1497 
Q 3034 2003 2786 2293 
Q 2538 2584 2113 2584 
z
M 3366 4563 
L 3366 3988 
Q 3128 4100 2886 4159 
Q 2644 4219 2406 4219 
Q 1781 4219 1451 3797 
Q 1122 3375 1075 2522 
Q 1259 2794 1537 2939 
Q 1816 3084 2150 3084 
Q 2853 3084 3261 2657 
Q 3669 2231 3669 1497 
Q 3669 778 3244 343 
Q 2819 -91 2113 -91 
Q 1303 -91 875 529 
Q 447 1150 447 2328 
Q 447 3434 972 4092 
Q 1497 4750 2381 4750 
Q 2619 4750 2861 4703 
Q 3103 4656 3366 4563 
z
" id="DejaVuSans-36" transform="scale(0.015625)"/>
       </defs>
       <use xlink:href="#DejaVuSans-36"/>
      </g>
     </g>
    </g>
    <g id="xtick_6">
     <g id="line2d_6">
      <g>
       <use style="stroke:#000000;stroke-width:1.3;" x="145.800737" xlink:href="#mc7346460b7" y="249.73975"/>
      </g>
     </g>
     <g id="text_6">
      <!-- 8 -->
      <g transform="translate(142.619487 265.838188)scale(0.1 -0.1)">
       <defs>
        <path d="M 2034 2216 
Q 1584 2216 1326 1975 
Q 1069 1734 1069 1313 
Q 1069 891 1326 650 
Q 1584 409 2034 409 
Q 2484 409 2743 651 
Q 3003 894 3003 1313 
Q 3003 1734 2745 1975 
Q 2488 2216 2034 2216 
z
M 1403 2484 
Q 997 2584 770 2862 
Q 544 3141 544 3541 
Q 544 4100 942 4425 
Q 1341 4750 2034 4750 
Q 2731 4750 3128 4425 
Q 3525 4100 3525 3541 
Q 3525 3141 3298 2862 
Q 3072 2584 2669 2484 
Q 3125 2378 3379 2068 
Q 3634 1759 3634 1313 
Q 3634 634 3220 271 
Q 2806 -91 2034 -91 
Q 1263 -91 848 271 
Q 434 634 434 1313 
Q 434 1759 690 2068 
Q 947 2378 1403 2484 
z
M 1172 3481 
Q 1172 3119 1398 2916 
Q 1625 2713 2034 2713 
Q 2441 2713 2670 2916 
Q 2900 3119 2900 3481 
Q 2900 3844 2670 4047 
Q 2441 4250 2034 4250 
Q 1625 4250 1398 4047 
Q 1172 3844 1172 3481 
z
" id="DejaVuSans-38" transform="scale(0.015625)"/>
       </defs>
       <use xlink:href="#DejaVuSans-38"/>
      </g>
     </g>
    </g>
    <g id="xtick_7">
     <g id="line2d_7">
      <g>
       <use style="stroke:#000000;stroke-width:1.3;" x="99.000648" xlink:href="#mc7346460b7" y="249.73975"/>
      </g>
     </g>
     <g id="text_7">
      <!-- 10 -->
      <g transform="translate(92.638148 265.838188)scale(0.1 -0.1)">
       <defs>
        <path d="M 794 531 
L 1825 531 
L 1825 4091 
L 703 3866 
L 703 4441 
L 1819 4666 
L 2450 4666 
L 2450 531 
L 3481 531 
L 3481 0 
L 794 0 
L 794 531 
z
" id="DejaVuSans-31" transform="scale(0.015625)"/>
       </defs>
       <use xlink:href="#DejaVuSans-31"/>
       <use x="63.623047" xlink:href="#DejaVuSans-30"/>
      </g>
     </g>
    </g>
    <g id="xtick_8">
     <g id="line2d_8">
      <g>
       <use style="stroke:#000000;stroke-width:1.3;" x="52.200559" xlink:href="#mc7346460b7" y="249.73975"/>
      </g>
     </g>
     <g id="text_8">
      <!-- 12 -->
      <g transform="translate(45.838059 265.838188)scale(0.1 -0.1)">
       <use xlink:href="#DejaVuSans-31"/>
       <use x="63.623047" xlink:href="#DejaVuSans-32"/>
      </g>
     </g>
    </g>
    <g id="xtick_9">
     <g id="line2d_9">
      <defs>
       <path d="M 0 0 
L 0 3 
" id="m9e7849ecf0" style="stroke:#000000;stroke-width:1.3;"/>
      </defs>
      <g>
       <use style="stroke:#000000;stroke-width:1.3;" x="414.901249" xlink:href="#m9e7849ecf0" y="249.73975"/>
      </g>
     </g>
    </g>
    <g id="xtick_10">
     <g id="line2d_10">
      <g>
       <use style="stroke:#000000;stroke-width:1.3;" x="403.201227" xlink:href="#m9e7849ecf0" y="249.73975"/>
      </g>
     </g>
    </g>
    <g id="xtick_11">
     <g id="line2d_11">
      <g>
       <use style="stroke:#000000;stroke-width:1.3;" x="391.501204" xlink:href="#m9e7849ecf0" y="249.73975"/>
      </g>
     </g>
    </g>
    <g id="xtick_12">
     <g id="line2d_12">
      <g>
       <use style="stroke:#000000;stroke-width:1.3;" x="368.10116" xlink:href="#m9e7849ecf0" y="249.73975"/>
      </g>
     </g>
    </g>
    <g id="xtick_13">
     <g id="line2d_13">
      <g>
       <use style="stroke:#000000;stroke-width:1.3;" x="356.401138" xlink:href="#m9e7849ecf0" y="249.73975"/>
      </g>
     </g>
    </g>
    <g id="xtick_14">
     <g id="line2d_14">
      <g>
       <use style="stroke:#000000;stroke-width:1.3;" x="344.701115" xlink:href="#m9e7849ecf0" y="249.73975"/>
      </g>
     </g>
    </g>
    <g id="xtick_15">
     <g id="line2d_15">
      <g>
       <use style="stroke:#000000;stroke-width:1.3;" x="321.301071" xlink:href="#m9e7849ecf0" y="249.73975"/>
      </g>
     </g>
    </g>
    <g id="xtick_16">
     <g id="line2d_16">
      <g>
       <use style="stroke:#000000;stroke-width:1.3;" x="309.601049" xlink:href="#m9e7849ecf0" y="249.73975"/>
      </g>
     </g>
    </g>
    <g id="xtick_17">
     <g id="line2d_17">
      <g>
       <use style="stroke:#000000;stroke-width:1.3;" x="297.901026" xlink:href="#m9e7849ecf0" y="249.73975"/>
      </g>
     </g>
    </g>
    <g id="xtick_18">
     <g id="line2d_18">
      <g>
       <use style="stroke:#000000;stroke-width:1.3;" x="274.500982" xlink:href="#m9e7849ecf0" y="249.73975"/>
      </g>
     </g>
    </g>
    <g id="xtick_19">
     <g id="line2d_19">
      <g>
       <use style="stroke:#000000;stroke-width:1.3;" x="262.800959" xlink:href="#m9e7849ecf0" y="249.73975"/>
      </g>
     </g>
    </g>
    <g id="xtick_20">
     <g id="line2d_20">
      <g>
       <use style="stroke:#000000;stroke-width:1.3;" x="251.100937" xlink:href="#m9e7849ecf0" y="249.73975"/>
      </g>
     </g>
    </g>
    <g id="xtick_21">
     <g id="line2d_21">
      <g>
       <use style="stroke:#000000;stroke-width:1.3;" x="227.700893" xlink:href="#m9e7849ecf0" y="249.73975"/>
      </g>
     </g>
    </g>
    <g id="xtick_22">
     <g id="line2d_22">
      <g>
       <use style="stroke:#000000;stroke-width:1.3;" x="216.00087" xlink:href="#m9e7849ecf0" y="249.73975"/>
      </g>
     </g>
    </g>
    <g id="xtick_23">
     <g id="line2d_23">
      <g>
       <use style="stroke:#000000;stroke-width:1.3;" x="204.300848" xlink:href="#m9e7849ecf0" y="249.73975"/>
      </g>
     </g>
    </g>
    <g id="xtick_24">
     <g id="line2d_24">
      <g>
       <use style="stroke:#000000;stroke-width:1.3;" x="180.900804" xlink:href="#m9e7849ecf0" y="249.73975"/>
      </g>
     </g>
    </g>
    <g id="xtick_25">
     <g id="line2d_25">
      <g>
       <use style="stroke:#000000;stroke-width:1.3;" x="169.200781" xlink:href="#m9e7849ecf0" y="249.73975"/>
      </g>
     </g>
    </g>
    <g id="xtick_26">
     <g id="line2d_26">
      <g>
       <use style="stroke:#000000;stroke-width:1.3;" x="157.500759" xlink:href="#m9e7849ecf0" y="249.73975"/>
      </g>
     </g>
    </g>
    <g id="xtick_27">
     <g id="line2d_27">
      <g>
       <use style="stroke:#000000;stroke-width:1.3;" x="134.100715" xlink:href="#m9e7849ecf0" y="249.73975"/>
      </g>
     </g>
    </g>
    <g id="xtick_28">
     <g id="line2d_28">
      <g>
       <use style="stroke:#000000;stroke-width:1.3;" x="122.400692" xlink:href="#m9e7849ecf0" y="249.73975"/>
      </g>
     </g>
    </g>
    <g id="xtick_29">
     <g id="line2d_29">
      <g>
       <use style="stroke:#000000;stroke-width:1.3;" x="110.70067" xlink:href="#m9e7849ecf0" y="249.73975"/>
      </g>
     </g>
    </g>
    <g id="xtick_30">
     <g id="line2d_30">
      <g>
       <use style="stroke:#000000;stroke-width:1.3;" x="87.300626" xlink:href="#m9e7849ecf0" y="249.73975"/>
      </g>
     </g>
    </g>
    <g id="xtick_31">
     <g id="line2d_31">
      <g>
       <use style="stroke:#000000;stroke-width:1.3;" x="75.600603" xlink:href="#m9e7849ecf0" y="249.73975"/>
      </g>
     </g>
    </g>
    <g id="xtick_32">
     <g id="line2d_32">
      <g>
       <use style="stroke:#000000;stroke-width:1.3;" x="63.900581" xlink:href="#m9e7849ecf0" y="249.73975"/>
      </g>
     </g>
    </g>
    <g id="xtick_33">
     <g id="line2d_33">
      <g>
       <use style="stroke:#000000;stroke-width:1.3;" x="40.500536" xlink:href="#m9e7849ecf0" y="249.73975"/>
      </g>
     </g>
    </g>
    <g id="xtick_34">
     <g id="line2d_34">
      <g>
       <use style="stroke:#000000;stroke-width:1.3;" x="28.800514" xlink:href="#m9e7849ecf0" y="249.73975"/>
      </g>
     </g>
    </g>
    <g id="xtick_35">
     <g id="line2d_35">
      <g>
       <use style="stroke:#000000;stroke-width:1.3;" x="17.100492" xlink:href="#m9e7849ecf0" y="249.73975"/>
      </g>
     </g>
    </g>
    <g id="text_9">
     <!-- $\rm ^{1}H$ (ppm) -->
     <g transform="translate(193.1 280.917875)scale(0.1 -0.1)">
      <defs>
       <path d="M 628 4666 
L 1259 4666 
L 1259 2753 
L 3553 2753 
L 3553 4666 
L 4184 4666 
L 4184 0 
L 3553 0 
L 3553 2222 
L 1259 2222 
L 1259 0 
L 628 0 
L 628 4666 
z
" id="DejaVuSans-48" transform="scale(0.015625)"/>
       <path id="DejaVuSans-20" transform="scale(0.015625)"/>
       <path d="M 1984 4856 
Q 1566 4138 1362 3434 
Q 1159 2731 1159 2009 
Q 1159 1288 1364 580 
Q 1569 -128 1984 -844 
L 1484 -844 
Q 1016 -109 783 600 
Q 550 1309 550 2009 
Q 550 2706 781 3412 
Q 1013 4119 1484 4856 
L 1984 4856 
z
" id="DejaVuSans-28" transform="scale(0.015625)"/>
       <path d="M 1159 525 
L 1159 -1331 
L 581 -1331 
L 581 3500 
L 1159 3500 
L 1159 2969 
Q 1341 3281 1617 3432 
Q 1894 3584 2278 3584 
Q 2916 3584 3314 3078 
Q 3713 2572 3713 1747 
Q 3713 922 3314 415 
Q 2916 -91 2278 -91 
Q 1894 -91 1617 61 
Q 1341 213 1159 525 
z
M 3116 1747 
Q 3116 2381 2855 2742 
Q 2594 3103 2138 3103 
Q 1681 3103 1420 2742 
Q 1159 2381 1159 1747 
Q 1159 1113 1420 752 
Q 1681 391 2138 391 
Q 2594 391 2855 752 
Q 3116 1113 3116 1747 
z
" id="DejaVuSans-70" transform="scale(0.015625)"/>
       <path d="M 3328 2828 
Q 3544 3216 3844 3400 
Q 4144 3584 4550 3584 
Q 5097 3584 5394 3201 
Q 5691 2819 5691 2113 
L 5691 0 
L 5113 0 
L 5113 2094 
Q 5113 2597 4934 2840 
Q 4756 3084 4391 3084 
Q 3944 3084 3684 2787 
Q 3425 2491 3425 1978 
L 3425 0 
L 2847 0 
L 2847 2094 
Q 2847 2600 2669 2842 
Q 2491 3084 2119 3084 
Q 1678 3084 1418 2786 
Q 1159 2488 1159 1978 
L 1159 0 
L 581 0 
L 581 3500 
L 1159 3500 
L 1159 2956 
Q 1356 3278 1631 3431 
Q 1906 3584 2284 3584 
Q 2666 3584 2933 3390 
Q 3200 3197 3328 2828 
z
" id="DejaVuSans-6d" transform="scale(0.015625)"/>
       <path d="M 513 4856 
L 1013 4856 
Q 1481 4119 1714 3412 
Q 1947 2706 1947 2009 
Q 1947 1309 1714 600 
Q 1481 -109 1013 -844 
L 513 -844 
Q 928 -128 1133 580 
Q 1338 1288 1338 2009 
Q 1338 2731 1133 3434 
Q 928 4138 513 4856 
z
" id="DejaVuSans-29" transform="scale(0.015625)"/>
      </defs>
      <use transform="translate(0.957031 38.965625)scale(0.7)" xlink:href="#DejaVuSans-31"/>
      <use transform="translate(48.227539 0.684375)" xlink:href="#DejaVuSans-48"/>
      <use transform="translate(123.422852 0.684375)" xlink:href="#DejaVuSans-20"/>
      <use transform="translate(155.209961 0.684375)" xlink:href="#DejaVuSans-28"/>
      <use transform="translate(194.223633 0.684375)" xlink:href="#DejaVuSans-70"/>
      <use transform="translate(257.700195 0.684375)" xlink:href="#DejaVuSans-70"/>
      <use transform="translate(321.176758 0.684375)" xlink:href="#DejaVuSans-6d"/>
      <use transform="translate(418.588867 0.684375)" xlink:href="#DejaVuSans-29"/>
     </g>
    </g>
   </g>
   <g id="matplotlib.axis_2"/>
   <g id="line2d_36">
    <path clip-path="url(#p5113b1afd2)" d="M 29.454545 238.477471 
L 30.393891 238.478838 
L 30.798094 238.478733 
L 31.817141 238.478576 
L 32.756487 238.478567 
L 33.655981 238.477529 
L 35.466356 238.477325 
L 35.773778 238.48069 
L 36.576491 238.47871 
L 36.969309 238.478114 
L 39.041561 238.48019 
L 39.730415 238.479366 
L 40.066302 238.479407 
L 41.58064 238.477163 
L 41.9393 238.475202 
L 47.32488 238.478944 
L 47.83725 238.477552 
L 48.474866 238.479303 
L 48.770902 238.477826 
L 57.794311 238.478946 
L 58.329453 238.479037 
L 61.278429 238.47981 
L 63.697955 238.477703 
L 64.050921 238.47722 
L 65.064275 238.480457 
L 65.633575 238.474281 
L 66.749404 238.476665 
L 67.233309 238.477639 
L 72.095133 238.478213 
L 72.357011 238.478968 
L 77.833679 238.476615 
L 78.220804 238.478109 
L 78.852727 238.479349 
L 80.794041 238.476767 
L 81.477201 238.479124 
L 81.938334 238.478636 
L 82.871987 238.480443 
L 123.74205 238.48033 
L 124.282886 238.477894 
L 155.070642 238.48242 
L 155.560241 238.480053 
L 156.414191 238.477677 
L 157.837441 238.473149 
L 158.480751 238.475737 
L 159.215148 238.476951 
L 159.75029 238.479586 
L 160.376521 238.480947 
L 162.397536 238.478997 
L 162.778968 238.477557 
L 163.063618 238.473496 
L 164.076972 238.477312 
L 165.500223 238.472955 
L 165.94997 238.477227 
L 166.798227 238.47798 
L 176.89192 238.325609 
L 177.011473 238.352363 
L 177.142412 238.259287 
L 177.284738 238.117184 
L 177.387212 237.907823 
L 177.495379 237.072736 
L 177.563695 234.656979 
L 177.666169 226.464277 
L 177.700327 230.78031 
L 177.745871 233.778376 
L 177.797108 229.671475 
L 177.842652 214.877003 
L 177.922354 223.401129 
L 177.99067 234.519831 
L 178.0476 230.014955 
L 178.076065 227.053721 
L 178.144381 230.379506 
L 178.286706 238.228641 
L 178.440417 238.426003 
L 178.736453 238.473394 
L 183.131451 238.479346 
L 183.427487 238.480645 
L 188.090056 238.479054 
L 188.357627 238.476622 
L 188.790295 238.474436 
L 192.189018 238.478075 
L 193.384548 238.476172 
L 194.010778 238.47296 
L 194.488991 238.471787 
L 194.785027 238.474048 
L 198.33746 238.215295 
L 198.758742 237.56919 
L 198.929532 236.436964 
L 199.043392 233.657828 
L 199.174332 222.609874 
L 199.259727 228.295144 
L 199.271113 228.448205 
L 199.305271 227.417425 
L 199.367894 222.788229 
L 199.419131 227.144046 
L 199.601307 236.941515 
L 199.800562 237.980593 
L 200.102291 238.308328 
L 200.386941 238.398009 
L 200.756986 238.405618 
L 203.43839 238.465624 
L 204.115858 238.470547 
L 206.802955 238.465384 
L 207.093298 238.459835 
L 207.491808 238.466612 
L 208.021257 238.465971 
L 208.36853 238.465127 
L 210.474941 238.446561 
L 213.287284 238.17405 
L 213.856585 237.646917 
L 214.11277 236.987091 
L 214.334797 235.684038 
L 214.733307 232.101199 
L 214.818702 232.460289 
L 215.558792 237.529259 
L 215.951609 238.010306 
L 216.63477 238.228158 
L 217.329316 237.961192 
L 217.454562 237.557225 
L 217.551343 236.43724 
L 217.65951 230.966932 
L 217.898616 220.92325 
L 217.921388 221.513249 
L 218.359749 238.183358 
L 218.564698 238.326797 
L 218.769646 238.36176 
L 219.122612 238.297792 
L 219.225086 238.180072 
L 219.293402 238.239726 
L 219.458499 238.218118 
L 219.589438 237.996431 
L 219.95379 236.577154 
L 220.039185 233.532122 
L 220.101808 219.133207 
L 220.164431 197.367885 
L 220.232747 210.652222 
L 220.397844 237.412677 
L 220.58002 238.239764 
L 220.784968 238.284118 
L 220.967145 238.401505 
L 221.194865 238.521055 
L 221.229023 238.471013 
L 221.39412 238.415029 
L 221.900797 238.395087 
L 222.122824 238.336132 
L 222.139903 238.362173 
L 222.333465 238.426531 
L 222.737668 238.318353 
L 222.828756 238.236456 
L 222.8743 238.295387 
L 223.090634 238.423251 
L 224.098296 237.982628 
L 224.308937 237.084415 
L 224.411411 235.13653 
L 224.474034 228.312499 
L 224.570815 197.173547 
L 224.633438 211.234956 
L 224.804228 237.484214 
L 224.992097 238.331922 
L 225.191352 238.343907 
L 225.743574 238.416641 
L 226.273023 238.430499 
L 227.06435 238.414964 
L 227.274991 238.189607 
L 227.337614 238.374014 
L 227.423009 238.40408 
L 227.457167 238.35188 
L 227.479939 238.32093 
L 227.525483 238.403855 
L 227.559641 238.394503 
L 227.605185 238.332701 
L 227.679194 238.420287 
L 228.072011 238.435461 
L 228.817795 238.383633 
L 229.062594 238.2738 
L 229.085366 238.21177 
L 229.147989 238.310237 
L 229.170761 238.29694 
L 229.489569 237.925877 
L 229.609122 237.140878 
L 229.677438 234.943798 
L 229.717289 224.576368 
L 229.740061 213.500468 
L 229.808377 235.247693 
L 229.836842 235.909445 
L 229.888079 234.21565 
L 229.92793 219.802341 
L 229.945009 211.003861 
L 230.007632 233.555075 
L 230.013325 233.478461 
L 230.04179 227.517128 
L 230.075948 208.474143 
L 230.138571 235.410774 
L 230.167036 236.123142 
L 230.218273 234.336923 
L 230.263817 217.316886 
L 230.275203 213.285999 
L 230.332133 235.299715 
L 230.468765 238.240216 
L 230.599705 238.320971 
L 230.736337 238.399523 
L 230.781881 238.35722 
L 232.153894 238.381984 
L 232.50686 238.324271 
L 232.535325 238.287153 
L 232.615027 238.35132 
L 232.666264 238.255335 
L 232.757352 238.378969 
L 235.011781 237.978509 
L 235.50138 237.299102 
L 235.683556 236.630234 
L 236.269935 233.32651 
L 236.349637 233.41653 
L 236.491962 234.168095 
L 237.03849 237.264618 
L 237.340219 237.728456 
L 237.516702 237.868567 
L 237.533781 237.834002 
L 237.624869 237.81963 
L 237.585018 237.862213 
L 237.641948 237.853728 
L 237.767194 237.86063 
L 237.772887 237.855101 
L 238.006301 237.372755 
L 238.091696 236.379549 
L 238.160012 232.419126 
L 238.211249 208.947645 
L 238.302337 221.878724 
L 238.404811 236.436445 
L 238.433276 236.163805 
L 238.495899 232.501543 
L 238.547136 211.078681 
L 238.632531 223.490481 
L 238.76347 237.898945 
L 238.951339 238.312586 
L 239.087971 238.317951 
L 239.093664 238.323563 
L 239.412472 238.359024 
L 240.499836 238.34437 
L 240.65924 238.368217 
L 240.807258 238.295536 
L 240.909732 238.187391 
L 240.94389 238.246411 
L 241.103294 238.350936 
L 241.108987 238.34747 
L 241.239926 238.278369 
L 241.274084 238.357164 
L 241.422102 238.381406 
L 242.31021 238.158669 
L 242.560702 237.597304 
L 242.663177 236.573966 
L 242.748572 232.883483 
L 242.822581 214.593552 
L 242.83966 212.238518 
L 242.885204 225.156289 
L 243.016143 235.602287 
L 243.033222 235.552649 
L 243.090152 234.145288 
L 243.152775 226.195288 
L 243.204012 210.703656 
L 243.255249 225.951806 
L 243.403267 237.337993 
L 243.596829 238.24519 
L 243.824549 238.422549 
L 244.88914 238.430872 
L 245.299037 238.399506 
L 245.521064 238.395542 
L 245.70324 238.427364 
L 245.953732 238.445967 
L 246.352242 238.450231 
L 247.046788 238.448465 
L 247.308666 238.442783 
L 247.695791 238.445141 
L 248.50989 238.446869 
L 248.800233 238.44194 
L 250.320265 238.418846 
L 251.692278 238.372824 
L 251.976928 238.216857 
L 252.005393 238.155549 
L 252.073709 238.277883 
L 252.142025 238.261996 
L 252.164797 238.221519 
L 252.238806 237.827336 
L 252.295736 238.176142 
L 252.35836 238.233327 
L 252.403904 238.176059 
L 252.47222 237.818316 
L 252.517764 238.147197 
L 252.608852 238.260075 
L 252.648703 238.238311 
L 252.705633 238.126908 
L 252.791028 238.250911 
L 253.468495 238.129926 
L 254.032102 237.741351 
L 254.624174 236.573931 
L 254.908825 234.889338 
L 255.193475 233.10635 
L 255.227633 233.130066 
L 255.313028 233.404434 
L 255.56352 235.337524 
L 255.842477 236.557442 
L 255.922179 236.60589 
L 255.96203 236.549959 
L 256.087276 235.999087 
L 256.184057 234.160266 
L 256.286531 226.985445 
L 256.349154 221.930388 
L 256.406084 225.744119 
L 256.537023 232.842241 
L 256.576874 232.203057 
L 256.667962 225.721068 
L 256.719199 222.577924 
L 256.770436 226.120344 
L 256.907068 233.833696 
L 256.946919 233.208243 
L 257.049393 227.253481 
L 257.117709 230.686627 
L 257.146174 231.260835 
L 257.191719 229.698836 
L 257.260035 226.171428 
L 257.328351 227.826917 
L 257.34543 227.758716 
L 257.373895 227.576355 
L 257.408053 228.155311 
L 257.493448 231.223089 
L 257.544685 229.296422 
L 257.578843 228.133071 
L 257.624387 230.72811 
L 257.806563 237.389059 
L 258.034283 238.165104 
L 258.290468 238.334489 
L 259.235506 238.363119 
L 259.873123 238.388758 
L 260.100843 238.425748 
L 260.89217 238.454578 
L 261.245136 238.454654 
L 267.251254 238.47538 
L 267.621299 238.475415 
L 268.082432 238.479182 
L 272.061841 238.311785 
L 272.147236 238.32321 
L 272.164315 238.34381 
L 272.392035 238.385248 
L 273.211827 238.105665 
L 273.433854 237.656701 
L 273.513556 236.569148 
L 273.690039 232.619094 
L 273.707118 233.031044 
L 273.746969 234.571941 
L 273.832364 233.749944 
L 273.855136 234.384251 
L 273.906373 232.558296 
L 273.917759 232.43883 
L 273.946224 233.64179 
L 273.997461 235.492969 
L 274.054391 233.902819 
L 274.247954 222.007782 
L 274.282112 225.066304 
L 274.287805 225.328766 
L 274.31627 222.449683 
L 274.327656 221.421713 
L 274.395972 225.753817 
L 274.566762 236.088059 
L 274.60092 236.390469 
L 274.652157 235.762596 
L 274.71478 230.277135 
L 274.743245 228.100628 
L 274.794482 233.171148 
L 274.851412 235.644901 
L 274.908342 234.134903 
L 274.976658 227.297837 
L 275.039281 232.174985 
L 275.044974 232.20736 
L 275.05636 231.833011 
L 275.107597 227.602075 
L 275.153141 231.904678 
L 275.210071 235.12813 
L 275.261308 232.627582 
L 275.335317 226.652905 
L 275.380861 231.389788 
L 275.449177 236.012891 
L 275.506107 234.134771 
L 275.523186 233.835335 
L 275.56873 235.494404 
L 275.591502 235.906353 
L 275.631353 234.095411 
L 275.654125 233.158421 
L 275.705362 235.915922 
L 275.773678 237.399438 
L 275.824915 236.826067 
L 275.887538 233.679301 
L 275.938775 236.341534 
L 276.0811 238.246245 
L 276.25189 238.277562 
L 276.787033 238.352035 
L 277.003367 238.39443 
L 277.248166 238.334097 
L 277.532816 238.266002 
L 277.794694 238.123196 
L 278.028107 237.713928 
L 278.130581 236.824708 
L 278.198897 233.655325 
L 278.369687 225.817191 
L 278.37538 225.862997 
L 278.563249 235.769745 
L 278.631565 232.356212 
L 278.756811 225.153526 
L 278.790969 225.438966 
L 278.802355 225.330613 
L 278.819434 226.257841 
L 279.035769 237.781139 
L 279.212252 238.319155 
L 279.434279 238.397964 
L 280.236992 238.441075 
L 282.354789 238.461905 
L 282.946861 238.473175 
L 283.339678 238.468877 
L 284.899561 238.459853 
L 285.736432 238.394731 
L 285.912915 238.356405 
L 286.430979 238.325074 
L 286.658699 238.237666 
L 286.920577 237.709684 
L 287.000279 236.545037 
L 287.108446 232.956161 
L 287.193841 233.833166 
L 287.26785 232.02357 
L 287.319087 233.534536 
L 287.387403 235.730168 
L 287.43864 234.324549 
L 287.541114 227.593077 
L 287.60943 230.140426 
L 287.620816 230.233916 
L 287.649281 229.378274 
L 287.700518 227.258735 
L 287.746062 229.606935 
L 287.854229 236.004018 
L 287.905466 234.613588 
L 287.968089 232.588624 
L 288.030712 233.912474 
L 288.059177 234.215858 
L 288.104721 233.398053 
L 288.133186 233.040745 
L 288.173037 234.023201 
L 288.377985 238.050232 
L 288.554468 238.088474 
L 288.571547 238.06335 
L 288.759417 237.659941 
L 288.850505 236.8407 
L 288.918821 233.757158 
L 289.066839 224.532482 
L 289.118076 225.27116 
L 289.249015 234.219844 
L 289.323024 229.679058 
L 289.397033 225.255738 
L 289.465349 226.202737 
L 289.539358 231.141326 
L 289.715841 237.987918 
L 289.915096 238.299381 
L 290.085886 238.332458 
L 290.81459 238.244097 
L 291.008152 238.162289 
L 291.304189 238.024347 
L 291.583146 237.454254 
L 291.674234 236.193912 
L 291.907647 227.876692 
L 291.993042 228.846885 
L 292.015814 229.924691 
L 292.129674 233.442449 
L 292.152446 232.715982 
L 292.351701 226.811386 
L 292.357394 226.94579 
L 292.664816 236.899199 
L 292.71036 236.785484 
L 292.772983 235.892209 
L 292.93808 227.21432 
L 292.972238 222.710084 
L 293.029168 230.144256 
L 293.194265 235.159288 
L 293.091791 228.339047 
L 293.22273 234.618782 
L 293.501688 222.619699 
L 293.52446 225.163172 
L 293.689557 236.922052 
L 293.712329 236.96376 
L 293.757873 236.781794 
L 293.831882 234.928189 
L 293.928663 229.259846 
L 294.025444 231.55657 
L 294.042523 231.897932 
L 294.110839 234.698136 
L 294.173462 233.22803 
L 294.253164 226.40389 
L 294.423954 210.72022 
L 294.429647 210.932197 
L 294.509349 224.253195 
L 294.634595 220.224344 
L 294.651674 218.555939 
L 294.708604 224.825555 
L 294.71999 225.126496 
L 294.759841 222.776012 
L 294.771227 222.442583 
L 294.799692 226.245523 
L 294.959096 236.304591 
L 294.998947 235.938123 
L 295.021719 236.38776 
L 295.17543 237.968105 
L 295.425922 238.230228 
L 295.608098 238.23349 
L 295.778888 238.278122 
L 296.479128 238.267578 
L 296.820708 238.290709 
L 297.133823 238.386544 
L 297.919457 238.423057 
L 298.278116 238.437838 
L 299.866464 238.352911 
L 300.04864 238.325338 
L 300.310518 238.115308 
L 300.412992 237.637686 
L 300.481308 235.962197 
L 300.515466 234.622516 
L 300.583782 236.311034 
L 300.600861 236.183409 
L 300.657791 234.172744 
L 300.703335 236.214266 
L 300.771652 237.148465 
L 300.822889 236.793049 
L 300.891205 234.282849 
L 300.953828 226.893041 
L 301.016451 232.659708 
L 301.022144 232.734961 
L 301.044916 231.842755 
L 301.09046 226.715624 
L 301.141697 233.086233 
L 301.238478 236.522732 
L 301.278329 236.178706 
L 301.335259 233.427765 
L 301.392189 225.92768 
L 301.449119 232.588835 
L 301.460505 232.833147 
L 301.494663 230.582381 
L 301.528821 226.627547 
L 301.580058 233.607128 
L 301.699611 237.335384 
L 301.722383 237.285052 
L 301.77362 236.452609 
L 301.824857 233.688522 
L 301.88748 236.303044 
L 301.898866 236.381922 
L 301.933024 235.630819 
L 301.967182 234.438623 
L 302.012726 236.575968 
L 302.160744 238.203362 
L 302.377078 238.32623 
L 302.667421 238.279721 
L 302.963457 238.232056 
L 303.276573 238.221909 
L 303.407512 238.105326 
L 303.55553 237.636655 
L 303.623846 237.926202 
L 303.754785 237.786691 
L 303.851566 237.371143 
L 304.005277 236.155593 
L 304.107751 230.9414 
L 304.204532 233.7181 
L 304.23869 233.075782 
L 304.375322 222.396545 
L 304.500568 209.168806 
L 304.517647 211.694274 
L 304.625814 229.936387 
L 304.677051 226.412728 
L 304.711209 224.869286 
L 304.773832 227.41965 
L 304.796604 225.988085 
L 304.92185 218.261087 
L 304.938929 220.061618 
L 305.041403 233.652039 
L 305.104026 232.671847 
L 305.143877 234.113221 
L 305.314667 237.629902 
L 305.360211 237.519517 
L 305.411448 236.942807 
L 305.445606 237.593482 
L 305.587932 238.179922 
L 305.838424 238.301073 
L 306.202776 238.236068 
L 306.367873 238.169726 
L 306.441882 237.80658 
L 306.47604 237.292082 
L 306.550049 237.829709 
L 306.754997 237.81191 
L 306.93148 237.263631 
L 307.039647 236.461271 
L 307.324297 226.39371 
L 307.392613 201.269904 
L 307.449543 58.75042 
L 307.466622 21.660898 
L 307.517859 181.100268 
L 307.660184 234.476344 
L 307.848053 237.637076 
L 307.865132 237.772469 
L 307.893597 237.139785 
L 307.910676 236.658561 
L 307.984685 237.763958 
L 308.024537 237.814425 
L 308.075774 237.711976 
L 308.109932 237.51211 
L 308.14409 236.093265 
L 308.20102 237.989853 
L 308.31488 238.159594 
L 308.337652 238.099553 
L 308.377503 237.255627 
L 308.417354 238.336001 
L 308.457205 238.801588 
L 308.519828 238.282186 
L 308.605223 238.232791 
L 308.645074 238.267194 
L 308.986654 238.332263 
L 309.072049 238.235598 
L 309.106207 238.184846 
L 309.151751 238.309706 
L 309.305462 238.336301 
L 309.470559 238.314249 
L 309.550261 238.096374 
L 309.612884 237.218416 
L 309.658428 238.031162 
L 309.806446 238.390095 
L 310.375746 238.421834 
L 310.797029 238.41917 
L 310.910889 238.292012 
L 310.984898 238.41565 
L 311.172767 238.431692 
L 311.656672 238.424502 
L 312.169042 238.403626 
L 312.2032 238.388051 
L 312.277209 238.441286 
L 312.778193 238.435469 
L 314.087584 238.417717 
L 314.320997 238.44005 
L 314.981385 238.369314 
L 315.294501 237.977345 
L 315.351431 236.962037 
L 315.402668 237.989175 
L 315.5393 238.36972 
L 315.835336 238.316439 
L 316.131372 238.287826 
L 316.228153 238.280613 
L 316.245232 238.265481 
L 316.313548 238.028157 
L 316.387557 237.26222 
L 316.444487 237.848454 
L 316.484338 237.994353 
L 316.569733 237.973714 
L 316.6779 237.947421 
L 316.689286 237.930484 
L 316.837304 237.557867 
L 316.968243 236.44814 
L 317.252893 226.152664 
L 317.315516 200.530164 
L 317.389525 39.811351 
L 317.440762 177.34662 
L 317.583087 235.057358 
L 317.765264 237.751278 
L 317.799422 238.0154 
L 317.884817 237.902951 
L 318.078379 238.161406 
L 318.340257 238.634906 
L 318.374415 238.878852 
L 318.425652 238.437555 
L 318.522433 238.270698 
L 318.556591 238.292175 
L 318.647679 238.211278 
L 318.738767 238.083374 
L 318.767232 238.181223 
L 318.91525 238.359639 
L 319.456085 238.134009 
L 319.518708 237.315159 
L 319.569945 238.082594 
L 319.71227 238.408547 
L 320.862257 238.440101 
L 322.029322 238.462584 
L 322.439218 238.461851 
L 322.684018 238.462111 
L 323.834004 238.46812 
L 324.278058 238.467721 
L 324.949832 238.468117 
L 325.644379 238.474187 
L 325.923336 238.470205 
L 326.293381 238.471948 
L 326.521101 238.469879 
L 326.902532 238.468707 
L 327.3352 238.483556 
L 328.872311 238.47232 
L 347.044375 238.47894 
L 347.260709 238.480578 
L 347.488429 238.478779 
L 347.972334 238.477343 
L 350.038894 238.478514 
L 351.24581 238.478035 
L 351.524767 238.481341 
L 351.951743 238.477684 
L 353.056185 238.479237 
L 353.591327 238.479446 
L 353.915828 238.477656 
L 354.450971 238.478539 
L 402.545455 238.474557 
L 402.545455 238.474557 
" style="fill:none;stroke:#4c72b0;stroke-linecap:square;"/>
   </g>
   <g id="patch_3">
    <path d="M 10.8 249.73975 
L 421.2 249.73975 
" style="fill:none;stroke:#000000;stroke-linecap:square;stroke-linejoin:miter;stroke-width:1.3;"/>
   </g>
  </g>
 </g>
 <defs>
  <clipPath id="p5113b1afd2">
   <rect height="238.93975" width="410.4" x="10.8" y="10.8"/>
  </clipPath>
 </defs>
</svg>
