<?xml version="1.0" encoding="utf-8" standalone="no"?>
<!DOCTYPE svg PUBLIC "-//W3C//DTD SVG 1.1//EN"
  "http://www.w3.org/Graphics/SVG/1.1/DTD/svg11.dtd">
<svg xmlns:xlink="http://www.w3.org/1999/xlink" width="432pt" height="288pt" viewBox="0 0 432 288" xmlns="http://www.w3.org/2000/svg" version="1.1">
 <metadata>
  <rdf:RDF xmlns:dc="http://purl.org/dc/elements/1.1/" xmlns:cc="http://creativecommons.org/ns#" xmlns:rdf="http://www.w3.org/1999/02/22-rdf-syntax-ns#">
   <cc:Work>
    <dc:type rdf:resource="http://purl.org/dc/dcmitype/StillImage"/>
    <dc:date>2024-02-27T11:59:31.284789</dc:date>
    <dc:format>image/svg+xml</dc:format>
    <dc:creator>
     <cc:Agent>
      <dc:title>Matplotlib v3.8.3, https://matplotlib.org/</dc:title>
     </cc:Agent>
    </dc:creator>
   </cc:Work>
  </rdf:RDF>
 </metadata>
 <defs>
  <style type="text/css">*{stroke-linejoin: round; stroke-linecap: butt}</style>
 </defs>
 <g id="figure_1">
  <g id="patch_1">
   <path d="M 0 288 
L 432 288 
L 432 0 
L 0 0 
z
" style="fill: #ffffff"/>
  </g>
  <g id="axes_1">
   <g id="patch_2">
    <path d="M 10.8 239.068 
L 421.2 239.068 
L 421.2 10.8 
L 10.8 10.8 
z
" style="fill: #ffffff"/>
   </g>
   <g id="matplotlib.axis_1">
    <g id="xtick_1">
     <g id="line2d_1">
      <defs>
       <path id="m37b514355a" d="M 0 0 
L 0 5 
" style="stroke: #000000; stroke-width: 1.3"/>
      </defs>
      <g>
       <use xlink:href="#m37b514355a" x="402.304999" y="239.068" style="stroke: #000000; stroke-width: 1.3"/>
      </g>
     </g>
     <g id="text_1">
      <!-- 0 -->
      <g transform="translate(399.123749 255.166437) scale(0.1 -0.1)">
       <defs>
        <path id="DejaVuSans-30" d="M 2034 4250 
Q 1547 4250 1301 3770 
Q 1056 3291 1056 2328 
Q 1056 1369 1301 889 
Q 1547 409 2034 409 
Q 2525 409 2770 889 
Q 3016 1369 3016 2328 
Q 3016 3291 2770 3770 
Q 2525 4250 2034 4250 
z
M 2034 4750 
Q 2819 4750 3233 4129 
Q 3647 3509 3647 2328 
Q 3647 1150 3233 529 
Q 2819 -91 2034 -91 
Q 1250 -91 836 529 
Q 422 1150 422 2328 
Q 422 3509 836 4129 
Q 1250 4750 2034 4750 
z
" transform="scale(0.015625)"/>
       </defs>
       <use xlink:href="#DejaVuSans-30"/>
      </g>
     </g>
    </g>
    <g id="xtick_2">
     <g id="line2d_2">
      <g>
       <use xlink:href="#m37b514355a" x="340.203674" y="239.068" style="stroke: #000000; stroke-width: 1.3"/>
      </g>
     </g>
     <g id="text_2">
      <!-- 2 -->
      <g transform="translate(337.022424 255.166437) scale(0.1 -0.1)">
       <defs>
        <path id="DejaVuSans-32" d="M 1228 531 
L 3431 531 
L 3431 0 
L 469 0 
L 469 531 
Q 828 903 1448 1529 
Q 2069 2156 2228 2338 
Q 2531 2678 2651 2914 
Q 2772 3150 2772 3378 
Q 2772 3750 2511 3984 
Q 2250 4219 1831 4219 
Q 1534 4219 1204 4116 
Q 875 4013 500 3803 
L 500 4441 
Q 881 4594 1212 4672 
Q 1544 4750 1819 4750 
Q 2544 4750 2975 4387 
Q 3406 4025 3406 3419 
Q 3406 3131 3298 2873 
Q 3191 2616 2906 2266 
Q 2828 2175 2409 1742 
Q 1991 1309 1228 531 
z
" transform="scale(0.015625)"/>
       </defs>
       <use xlink:href="#DejaVuSans-32"/>
      </g>
     </g>
    </g>
    <g id="xtick_3">
     <g id="line2d_3">
      <g>
       <use xlink:href="#m37b514355a" x="278.102349" y="239.068" style="stroke: #000000; stroke-width: 1.3"/>
      </g>
     </g>
     <g id="text_3">
      <!-- 4 -->
      <g transform="translate(274.921099 255.166437) scale(0.1 -0.1)">
       <defs>
        <path id="DejaVuSans-34" d="M 2419 4116 
L 825 1625 
L 2419 1625 
L 2419 4116 
z
M 2253 4666 
L 3047 4666 
L 3047 1625 
L 3713 1625 
L 3713 1100 
L 3047 1100 
L 3047 0 
L 2419 0 
L 2419 1100 
L 313 1100 
L 313 1709 
L 2253 4666 
z
" transform="scale(0.015625)"/>
       </defs>
       <use xlink:href="#DejaVuSans-34"/>
      </g>
     </g>
    </g>
    <g id="xtick_4">
     <g id="line2d_4">
      <g>
       <use xlink:href="#m37b514355a" x="216.001025" y="239.068" style="stroke: #000000; stroke-width: 1.3"/>
      </g>
     </g>
     <g id="text_4">
      <!-- 6 -->
      <g transform="translate(212.819775 255.166437) scale(0.1 -0.1)">
       <defs>
        <path id="DejaVuSans-36" d="M 2113 2584 
Q 1688 2584 1439 2293 
Q 1191 2003 1191 1497 
Q 1191 994 1439 701 
Q 1688 409 2113 409 
Q 2538 409 2786 701 
Q 3034 994 3034 1497 
Q 3034 2003 2786 2293 
Q 2538 2584 2113 2584 
z
M 3366 4563 
L 3366 3988 
Q 3128 4100 2886 4159 
Q 2644 4219 2406 4219 
Q 1781 4219 1451 3797 
Q 1122 3375 1075 2522 
Q 1259 2794 1537 2939 
Q 1816 3084 2150 3084 
Q 2853 3084 3261 2657 
Q 3669 2231 3669 1497 
Q 3669 778 3244 343 
Q 2819 -91 2113 -91 
Q 1303 -91 875 529 
Q 447 1150 447 2328 
Q 447 3434 972 4092 
Q 1497 4750 2381 4750 
Q 2619 4750 2861 4703 
Q 3103 4656 3366 4563 
z
" transform="scale(0.015625)"/>
       </defs>
       <use xlink:href="#DejaVuSans-36"/>
      </g>
     </g>
    </g>
    <g id="xtick_5">
     <g id="line2d_5">
      <g>
       <use xlink:href="#m37b514355a" x="153.8997" y="239.068" style="stroke: #000000; stroke-width: 1.3"/>
      </g>
     </g>
     <g id="text_5">
      <!-- 8 -->
      <g transform="translate(150.71845 255.166437) scale(0.1 -0.1)">
       <defs>
        <path id="DejaVuSans-38" d="M 2034 2216 
Q 1584 2216 1326 1975 
Q 1069 1734 1069 1313 
Q 1069 891 1326 650 
Q 1584 409 2034 409 
Q 2484 409 2743 651 
Q 3003 894 3003 1313 
Q 3003 1734 2745 1975 
Q 2488 2216 2034 2216 
z
M 1403 2484 
Q 997 2584 770 2862 
Q 544 3141 544 3541 
Q 544 4100 942 4425 
Q 1341 4750 2034 4750 
Q 2731 4750 3128 4425 
Q 3525 4100 3525 3541 
Q 3525 3141 3298 2862 
Q 3072 2584 2669 2484 
Q 3125 2378 3379 2068 
Q 3634 1759 3634 1313 
Q 3634 634 3220 271 
Q 2806 -91 2034 -91 
Q 1263 -91 848 271 
Q 434 634 434 1313 
Q 434 1759 690 2068 
Q 947 2378 1403 2484 
z
M 1172 3481 
Q 1172 3119 1398 2916 
Q 1625 2713 2034 2713 
Q 2441 2713 2670 2916 
Q 2900 3119 2900 3481 
Q 2900 3844 2670 4047 
Q 2441 4250 2034 4250 
Q 1625 4250 1398 4047 
Q 1172 3844 1172 3481 
z
" transform="scale(0.015625)"/>
       </defs>
       <use xlink:href="#DejaVuSans-38"/>
      </g>
     </g>
    </g>
    <g id="xtick_6">
     <g id="line2d_6">
      <g>
       <use xlink:href="#m37b514355a" x="91.798376" y="239.068" style="stroke: #000000; stroke-width: 1.3"/>
      </g>
     </g>
     <g id="text_6">
      <!-- 10 -->
      <g transform="translate(85.435876 255.166437) scale(0.1 -0.1)">
       <defs>
        <path id="DejaVuSans-31" d="M 794 531 
L 1825 531 
L 1825 4091 
L 703 3866 
L 703 4441 
L 1819 4666 
L 2450 4666 
L 2450 531 
L 3481 531 
L 3481 0 
L 794 0 
L 794 531 
z
" transform="scale(0.015625)"/>
       </defs>
       <use xlink:href="#DejaVuSans-31"/>
       <use xlink:href="#DejaVuSans-30" x="63.623047"/>
      </g>
     </g>
    </g>
    <g id="xtick_7">
     <g id="line2d_7">
      <g>
       <use xlink:href="#m37b514355a" x="29.697051" y="239.068" style="stroke: #000000; stroke-width: 1.3"/>
      </g>
     </g>
     <g id="text_7">
      <!-- 12 -->
      <g transform="translate(23.334551 255.166437) scale(0.1 -0.1)">
       <use xlink:href="#DejaVuSans-31"/>
       <use xlink:href="#DejaVuSans-32" x="63.623047"/>
      </g>
     </g>
    </g>
    <g id="xtick_8">
     <g id="line2d_8">
      <defs>
       <path id="me28f653157" d="M 0 0 
L 0 3 
" style="stroke: #000000; stroke-width: 1.3"/>
      </defs>
      <g>
       <use xlink:href="#me28f653157" x="417.83033" y="239.068" style="stroke: #000000; stroke-width: 1.3"/>
      </g>
     </g>
    </g>
    <g id="xtick_9">
     <g id="line2d_9">
      <g>
       <use xlink:href="#me28f653157" x="386.779667" y="239.068" style="stroke: #000000; stroke-width: 1.3"/>
      </g>
     </g>
    </g>
    <g id="xtick_10">
     <g id="line2d_10">
      <g>
       <use xlink:href="#me28f653157" x="371.254336" y="239.068" style="stroke: #000000; stroke-width: 1.3"/>
      </g>
     </g>
    </g>
    <g id="xtick_11">
     <g id="line2d_11">
      <g>
       <use xlink:href="#me28f653157" x="355.729005" y="239.068" style="stroke: #000000; stroke-width: 1.3"/>
      </g>
     </g>
    </g>
    <g id="xtick_12">
     <g id="line2d_12">
      <g>
       <use xlink:href="#me28f653157" x="324.678343" y="239.068" style="stroke: #000000; stroke-width: 1.3"/>
      </g>
     </g>
    </g>
    <g id="xtick_13">
     <g id="line2d_13">
      <g>
       <use xlink:href="#me28f653157" x="309.153012" y="239.068" style="stroke: #000000; stroke-width: 1.3"/>
      </g>
     </g>
    </g>
    <g id="xtick_14">
     <g id="line2d_14">
      <g>
       <use xlink:href="#me28f653157" x="293.627681" y="239.068" style="stroke: #000000; stroke-width: 1.3"/>
      </g>
     </g>
    </g>
    <g id="xtick_15">
     <g id="line2d_15">
      <g>
       <use xlink:href="#me28f653157" x="262.577018" y="239.068" style="stroke: #000000; stroke-width: 1.3"/>
      </g>
     </g>
    </g>
    <g id="xtick_16">
     <g id="line2d_16">
      <g>
       <use xlink:href="#me28f653157" x="247.051687" y="239.068" style="stroke: #000000; stroke-width: 1.3"/>
      </g>
     </g>
    </g>
    <g id="xtick_17">
     <g id="line2d_17">
      <g>
       <use xlink:href="#me28f653157" x="231.526356" y="239.068" style="stroke: #000000; stroke-width: 1.3"/>
      </g>
     </g>
    </g>
    <g id="xtick_18">
     <g id="line2d_18">
      <g>
       <use xlink:href="#me28f653157" x="200.475694" y="239.068" style="stroke: #000000; stroke-width: 1.3"/>
      </g>
     </g>
    </g>
    <g id="xtick_19">
     <g id="line2d_19">
      <g>
       <use xlink:href="#me28f653157" x="184.950363" y="239.068" style="stroke: #000000; stroke-width: 1.3"/>
      </g>
     </g>
    </g>
    <g id="xtick_20">
     <g id="line2d_20">
      <g>
       <use xlink:href="#me28f653157" x="169.425031" y="239.068" style="stroke: #000000; stroke-width: 1.3"/>
      </g>
     </g>
    </g>
    <g id="xtick_21">
     <g id="line2d_21">
      <g>
       <use xlink:href="#me28f653157" x="138.374369" y="239.068" style="stroke: #000000; stroke-width: 1.3"/>
      </g>
     </g>
    </g>
    <g id="xtick_22">
     <g id="line2d_22">
      <g>
       <use xlink:href="#me28f653157" x="122.849038" y="239.068" style="stroke: #000000; stroke-width: 1.3"/>
      </g>
     </g>
    </g>
    <g id="xtick_23">
     <g id="line2d_23">
      <g>
       <use xlink:href="#me28f653157" x="107.323707" y="239.068" style="stroke: #000000; stroke-width: 1.3"/>
      </g>
     </g>
    </g>
    <g id="xtick_24">
     <g id="line2d_24">
      <g>
       <use xlink:href="#me28f653157" x="76.273045" y="239.068" style="stroke: #000000; stroke-width: 1.3"/>
      </g>
     </g>
    </g>
    <g id="xtick_25">
     <g id="line2d_25">
      <g>
       <use xlink:href="#me28f653157" x="60.747713" y="239.068" style="stroke: #000000; stroke-width: 1.3"/>
      </g>
     </g>
    </g>
    <g id="xtick_26">
     <g id="line2d_26">
      <g>
       <use xlink:href="#me28f653157" x="45.222382" y="239.068" style="stroke: #000000; stroke-width: 1.3"/>
      </g>
     </g>
    </g>
    <g id="xtick_27">
     <g id="line2d_27">
      <g>
       <use xlink:href="#me28f653157" x="14.17172" y="239.068" style="stroke: #000000; stroke-width: 1.3"/>
      </g>
     </g>
    </g>
    <g id="text_8">
     <!-- $\rm ^{1}H$ (ppm) -->
     <g transform="translate(193.1 270.246125) scale(0.1 -0.1)">
      <defs>
       <path id="DejaVuSans-48" d="M 628 4666 
L 1259 4666 
L 1259 2753 
L 3553 2753 
L 3553 4666 
L 4184 4666 
L 4184 0 
L 3553 0 
L 3553 2222 
L 1259 2222 
L 1259 0 
L 628 0 
L 628 4666 
z
" transform="scale(0.015625)"/>
       <path id="DejaVuSans-20" transform="scale(0.015625)"/>
       <path id="DejaVuSans-28" d="M 1984 4856 
Q 1566 4138 1362 3434 
Q 1159 2731 1159 2009 
Q 1159 1288 1364 580 
Q 1569 -128 1984 -844 
L 1484 -844 
Q 1016 -109 783 600 
Q 550 1309 550 2009 
Q 550 2706 781 3412 
Q 1013 4119 1484 4856 
L 1984 4856 
z
" transform="scale(0.015625)"/>
       <path id="DejaVuSans-70" d="M 1159 525 
L 1159 -1331 
L 581 -1331 
L 581 3500 
L 1159 3500 
L 1159 2969 
Q 1341 3281 1617 3432 
Q 1894 3584 2278 3584 
Q 2916 3584 3314 3078 
Q 3713 2572 3713 1747 
Q 3713 922 3314 415 
Q 2916 -91 2278 -91 
Q 1894 -91 1617 61 
Q 1341 213 1159 525 
z
M 3116 1747 
Q 3116 2381 2855 2742 
Q 2594 3103 2138 3103 
Q 1681 3103 1420 2742 
Q 1159 2381 1159 1747 
Q 1159 1113 1420 752 
Q 1681 391 2138 391 
Q 2594 391 2855 752 
Q 3116 1113 3116 1747 
z
" transform="scale(0.015625)"/>
       <path id="DejaVuSans-6d" d="M 3328 2828 
Q 3544 3216 3844 3400 
Q 4144 3584 4550 3584 
Q 5097 3584 5394 3201 
Q 5691 2819 5691 2113 
L 5691 0 
L 5113 0 
L 5113 2094 
Q 5113 2597 4934 2840 
Q 4756 3084 4391 3084 
Q 3944 3084 3684 2787 
Q 3425 2491 3425 1978 
L 3425 0 
L 2847 0 
L 2847 2094 
Q 2847 2600 2669 2842 
Q 2491 3084 2119 3084 
Q 1678 3084 1418 2786 
Q 1159 2488 1159 1978 
L 1159 0 
L 581 0 
L 581 3500 
L 1159 3500 
L 1159 2956 
Q 1356 3278 1631 3431 
Q 1906 3584 2284 3584 
Q 2666 3584 2933 3390 
Q 3200 3197 3328 2828 
z
" transform="scale(0.015625)"/>
       <path id="DejaVuSans-29" d="M 513 4856 
L 1013 4856 
Q 1481 4119 1714 3412 
Q 1947 2706 1947 2009 
Q 1947 1309 1714 600 
Q 1481 -109 1013 -844 
L 513 -844 
Q 928 -128 1133 580 
Q 1338 1288 1338 2009 
Q 1338 2731 1133 3434 
Q 928 4138 513 4856 
z
" transform="scale(0.015625)"/>
      </defs>
      <use xlink:href="#DejaVuSans-31" transform="translate(0.957031 38.965625) scale(0.7)"/>
      <use xlink:href="#DejaVuSans-48" transform="translate(48.227539 0.684375)"/>
      <use xlink:href="#DejaVuSans-20" transform="translate(123.422852 0.684375)"/>
      <use xlink:href="#DejaVuSans-28" transform="translate(155.209961 0.684375)"/>
      <use xlink:href="#DejaVuSans-70" transform="translate(194.223633 0.684375)"/>
      <use xlink:href="#DejaVuSans-70" transform="translate(257.700195 0.684375)"/>
      <use xlink:href="#DejaVuSans-6d" transform="translate(321.176758 0.684375)"/>
      <use xlink:href="#DejaVuSans-29" transform="translate(418.588867 0.684375)"/>
     </g>
    </g>
   </g>
   <g id="matplotlib.axis_2"/>
   <g id="line2d_28">
    <path d="M 29.454545 228.230205 
L 29.847363 228.260872 
L 30.712699 228.307469 
L 30.991656 228.33263 
L 31.412938 228.370459 
L 31.851299 228.384661 
L 32.07902 228.399716 
L 33.542121 228.469622 
L 33.758455 228.492408 
L 34.003254 228.499793 
L 34.902749 228.524487 
L 35.124776 228.526707 
L 35.295566 228.533993 
L 36.058428 228.546231 
L 36.878221 228.545165 
L 37.117327 228.554104 
L 37.515837 228.573719 
L 38.14776 228.571198 
L 38.438103 228.585263 
L 38.83092 228.557247 
L 39.092798 228.576608 
L 39.798731 228.5835 
L 40.373724 228.57421 
L 40.578672 228.576623 
L 40.834857 228.579369 
L 41.051191 228.566767 
L 41.301683 228.5984 
L 41.779896 228.577871 
L 69.100614 228.593392 
L 70.000108 228.612142 
L 70.176591 228.596945 
L 73.689174 228.614931 
L 73.922587 228.605746 
L 74.588668 228.60412 
L 75.106731 228.599284 
L 75.317372 228.589597 
L 75.556478 228.601469 
L 76.205481 228.600077 
L 76.421815 228.608807 
L 76.62107 228.607138 
L 76.956957 228.60768 
L 78.169567 228.593017 
L 78.357436 228.598311 
L 78.522533 228.598655 
L 79.017824 228.61997 
L 79.148763 228.588294 
L 79.171535 228.612334 
L 80.611865 228.600704 
L 80.794041 228.594975 
L 83.008619 228.612731 
L 83.281883 228.592032 
L 83.464059 228.603482 
L 85.149187 228.59987 
L 85.621707 228.597808 
L 85.85512 228.598795 
L 86.59521 228.594122 
L 86.805851 228.59457 
L 87.255598 228.587313 
L 90.033783 228.587787 
L 90.250118 228.590909 
L 90.449373 228.60381 
L 90.756795 228.601847 
L 100.229951 228.566483 
L 100.423513 228.553239 
L 100.913111 228.550188 
L 101.140831 228.530637 
L 102.535617 228.467855 
L 102.740565 228.481041 
L 104.425693 228.048334 
L 105.34796 226.607989 
L 105.820479 225.49775 
L 105.928646 225.557612 
L 106.247454 226.349127 
L 106.60042 227.239859 
L 106.964772 227.774724 
L 108.308321 228.358584 
L 108.889007 228.437123 
L 109.202122 228.456011 
L 109.361526 228.488467 
L 109.737265 228.509776 
L 111.524867 228.571877 
L 111.684271 228.568363 
L 111.883526 228.565711 
L 112.077089 228.575299 
L 113.010741 228.578702 
L 115.373337 228.599388 
L 115.629522 228.593016 
L 116.016646 228.6004 
L 116.215901 228.605001 
L 116.358226 228.605549 
L 116.773816 228.593345 
L 117.240642 228.604277 
L 117.434204 228.583451 
L 119.660168 228.583108 
L 119.950511 228.584065 
L 120.747531 228.559167 
L 121.151734 228.58875 
L 122.14801 228.596506 
L 122.313107 228.593027 
L 122.648994 228.592961 
L 125.996479 228.607999 
L 126.651175 228.598556 
L 126.856123 228.595269 
L 127.100922 228.594061 
L 128.023188 228.600378 
L 128.564023 228.589549 
L 128.837288 228.605733 
L 131.820421 228.590634 
L 132.031062 228.587935 
L 132.298633 228.601844 
L 132.549125 228.602823 
L 132.839468 228.602925 
L 132.981793 228.615605 
L 133.995148 228.598675 
L 134.274105 228.604549 
L 134.433509 228.604011 
L 134.649843 228.601306 
L 135.036967 228.603379 
L 135.15652 228.598874 
L 135.167906 228.587957 
L 135.350082 228.596246 
L 136.534227 228.594392 
L 136.841649 228.586007 
L 137.086448 228.609119 
L 137.319861 228.610169 
L 137.502037 228.594084 
L 140.172055 228.603845 
L 140.616109 228.606155 
L 142.005202 228.606765 
L 142.238615 228.608177 
L 142.454949 228.595865 
L 143.741568 228.593063 
L 143.963595 228.589115 
L 144.214087 228.606694 
L 144.555667 228.620394 
L 144.709378 228.599566 
L 147.738055 228.59859 
L 147.971468 228.588306 
L 148.142258 228.610825 
L 148.324435 228.610052 
L 149.519965 228.613737 
L 149.696448 228.603617 
L 149.901396 228.604169 
L 150.237283 228.599635 
L 150.425152 228.604794 
L 150.8749 228.600733 
L 151.034304 228.610468 
L 168.711076 228.407539 
L 168.893252 228.255281 
L 169.081121 227.901419 
L 169.206367 227.087917 
L 169.291762 225.510114 
L 169.348692 216.023257 
L 169.388543 205.782364 
L 169.43978 220.923231 
L 169.576412 227.276718 
L 169.730123 227.768829 
L 169.741509 227.763807 
L 169.95215 227.443437 
L 170.037546 226.773451 
L 170.122941 224.499146 
L 170.179871 211.645457 
L 170.208336 204.362527 
L 170.265266 221.563808 
L 170.401898 227.497914 
L 170.555609 228.034853 
L 170.868724 228.378691 
L 170.885803 228.349832 
L 171.016742 228.326994 
L 171.193225 228.389438 
L 171.250155 228.516973 
L 171.318471 228.416673 
L 171.460796 228.44122 
L 171.631586 228.480845 
L 172.479844 228.504066 
L 173.407803 228.503779 
L 173.447654 228.481169 
L 173.493198 228.545559 
L 173.510277 228.544229 
L 173.920173 228.573449 
L 174.301604 228.51064 
L 174.443929 228.57745 
L 175.178327 228.604462 
L 175.24095 228.549941 
L 175.252336 228.52475 
L 175.394661 228.483148 
L 175.58253 228.473441 
L 175.650846 228.3545 
L 176.134751 226.357987 
L 176.225839 224.039012 
L 176.288462 213.663562 
L 176.328313 203.535499 
L 176.425094 203.723619 
L 176.430787 203.734659 
L 176.755288 227.783613 
L 177.057017 228.240427 
L 177.079789 228.251847 
L 177.136719 228.163447 
L 177.273352 228.205961 
L 177.347361 228.359427 
L 177.495379 228.387525 
L 177.518151 228.361439 
L 177.666169 228.396425 
L 178.907243 228.510752 
L 179.038182 228.525596 
L 179.231744 228.538258 
L 179.607482 228.576783 
L 179.801045 228.553922 
L 180.922566 228.58488 
L 181.104742 228.562248 
L 181.400778 228.473468 
L 181.59434 228.197645 
L 181.799288 227.818101 
L 181.975771 226.276881 
L 182.032701 222.501496 
L 182.078245 215.228982 
L 182.18072 215.813913 
L 182.231957 223.560805 
L 182.317352 226.24017 
L 182.362896 226.13219 
L 182.425519 224.532692 
L 182.505221 214.256408 
L 182.624774 217.648569 
L 182.778485 227.503302 
L 182.949275 228.00955 
L 183.404715 228.289444 
L 183.672286 228.187572 
L 183.695058 228.250546 
L 183.865848 228.438437 
L 186.234137 228.548205 
L 186.518787 228.571089 
L 186.666805 228.541872 
L 186.843288 228.548334 
L 187.002693 228.587146 
L 187.293036 228.571207 
L 187.463826 228.563543 
L 188.033126 228.596463 
L 188.181144 228.60652 
L 188.676435 228.584714 
L 188.830146 228.5946 
L 189.359595 228.517517 
L 189.513307 228.593497 
L 189.615781 228.474238 
L 189.729641 228.435698 
L 189.695483 228.507512 
L 189.735334 228.43848 
L 189.934589 228.596024 
L 190.054142 228.592581 
L 190.065528 228.618133 
L 190.076914 228.623849 
L 190.122458 228.529679 
L 190.14523 228.462376 
L 190.219239 228.598426 
L 190.395722 228.577234 
L 190.60067 228.152534 
L 190.697451 228.25331 
L 190.708837 228.271693 
L 190.737302 228.104037 
L 190.965022 227.20826 
L 191.118733 224.552061 
L 191.16997 213.5283 
L 191.204128 198.46377 
L 191.261058 222.901935 
L 191.369225 226.450813 
L 191.39769 226.341712 
L 191.460313 226.430934 
L 191.483085 226.295065 
L 191.517243 225.658732 
L 191.574173 219.92633 
L 191.62541 200.028348 
L 191.670954 222.225139 
L 191.801894 227.488841 
L 191.807587 227.483158 
L 191.818973 227.447928 
L 191.847438 227.685977 
L 191.87021 227.673287 
L 192.029614 228.100203 
L 192.052386 228.041764 
L 192.080851 228.157723 
L 192.149167 228.11356 
L 192.257334 228.439334 
L 192.297185 228.335762 
L 192.371194 228.219964 
L 192.428124 228.288104 
L 192.530598 228.330522 
L 192.462282 228.266994 
L 192.547677 228.306321 
L 192.598914 228.322948 
L 192.615993 228.395155 
L 192.66723 228.495184 
L 192.72416 228.40717 
L 192.786783 228.354793 
L 192.83802 228.406184 
L 192.997424 228.456147 
L 193.094205 228.155707 
L 193.145442 228.409423 
L 193.46425 228.442335 
L 193.475636 228.387737 
L 193.509794 228.246091 
L 193.561031 228.470022 
L 193.566724 228.470305 
L 193.913997 228.529873 
L 194.03355 228.545833 
L 194.181568 228.54999 
L 194.409289 228.566031 
L 194.688246 228.593211 
L 194.84765 228.585465 
L 195.155072 228.562346 
L 200.324318 228.497867 
L 200.398327 228.583401 
L 200.819609 228.600572 
L 200.97332 228.583405 
L 200.979013 228.590099 
L 201.08718 228.579413 
L 201.092873 228.570908 
L 201.155496 228.467649 
L 201.206733 228.572832 
L 201.320593 228.602008 
L 201.331979 228.586019 
L 201.479998 228.591092 
L 201.645095 228.594755 
L 201.650788 228.586152 
L 201.798806 228.599251 
L 202.009447 228.606968 
L 202.01514 228.594788 
L 202.123307 228.593786 
L 202.054991 228.624208 
L 202.129 228.601652 
L 202.237167 228.599668 
L 202.24286 228.593331 
L 202.351027 228.590494 
L 202.35672 228.597444 
L 202.47058 228.624017 
L 202.481966 228.608726 
L 202.681221 228.597819 
L 202.840625 228.593702 
L 202.846318 228.584972 
L 203.045573 228.544174 
L 203.056959 228.569552 
L 203.199284 228.620877 
L 203.21067 228.592038 
L 203.318837 228.568467 
L 203.290372 228.661218 
L 203.32453 228.575686 
L 203.335916 228.587396 
L 203.364381 228.462268 
L 203.392846 228.494086 
L 203.404232 228.468002 
L 203.461162 228.626054 
L 203.472548 228.660184 
L 203.546557 228.516009 
L 203.614873 228.598253 
L 203.66611 228.539258 
L 203.819821 228.248721 
L 203.705961 228.555939 
L 203.825514 228.253209 
L 203.842593 228.323839 
L 203.871058 228.218367 
L 203.939375 228.265346 
L 204.098779 227.891601 
L 204.115858 227.980594 
L 204.144323 227.748046 
L 204.167095 227.762729 
L 204.354964 223.918759 
L 204.428973 197.930196 
L 204.474517 221.990483 
L 204.611149 227.436397 
L 204.616842 227.419929 
L 204.622535 227.397287 
L 204.656693 227.609575 
L 204.679465 227.567799 
L 204.793325 227.787122 
L 204.810404 227.735656 
L 204.838869 227.762364 
L 205.083668 227.000757 
L 205.186142 222.538401 
L 205.248765 199.356236 
L 205.294309 221.715967 
L 205.430941 227.699619 
L 205.44802 227.649961 
L 205.459406 227.786582 
L 205.567573 228.048004 
L 205.578959 227.982427 
L 205.584652 227.957995 
L 205.647275 228.160217 
L 205.704205 228.25781 
L 205.681433 228.133428 
L 205.761135 228.193423 
L 205.766828 228.176684 
L 205.795293 228.320788 
L 205.829451 228.32441 
L 205.886381 228.405999 
L 205.943311 228.335895 
L 206.000241 228.297472 
L 206.023013 228.375209 
L 206.057171 228.328191 
L 206.159645 228.402807 
L 206.091329 228.298043 
L 206.176724 228.355057 
L 206.18811 228.339195 
L 206.24504 228.451786 
L 206.30197 228.543382 
L 206.353208 228.434235 
L 206.370287 228.383857 
L 206.438603 228.465646 
L 206.461375 228.433752 
L 206.575235 228.489694 
L 206.592314 228.461769 
L 206.842806 228.528067 
L 206.94528 228.524216 
L 206.876964 228.495763 
L 206.950973 228.514622 
L 207.05914 228.510633 
L 207.064833 228.517452 
L 207.173 228.548358 
L 207.184386 228.536289 
L 207.292553 228.533065 
L 207.298246 228.541363 
L 207.451957 228.578595 
L 207.617054 228.557542 
L 207.622747 228.567997 
L 207.725221 228.55982 
L 207.736607 228.549127 
L 207.907397 228.573053 
L 208.334372 228.580742 
L 208.465311 228.588989 
L 208.658873 228.480816 
L 208.670259 228.505187 
L 208.78412 228.582517 
L 208.801199 228.57071 
L 209.63807 228.584094 
L 209.791781 228.603631 
L 210.013808 228.609737 
L 210.258607 228.60874 
L 210.406625 228.606825 
L 210.782363 228.59252 
L 211.038548 228.613833 
L 211.19226 228.59711 
L 211.391515 228.624753 
L 211.59077 228.610898 
L 211.755867 228.608936 
L 212.097447 228.61188 
L 212.308088 228.609123 
L 212.507343 228.619949 
L 212.700905 228.609153 
L 213.173424 228.609058 
L 213.571934 228.609224 
L 213.765497 228.613753 
L 213.924901 228.617719 
L 214.425885 228.611714 
L 214.613754 228.603705 
L 214.881325 228.608304 
L 215.154589 228.61567 
L 215.962995 228.608942 
L 216.321655 228.605276 
L 217.107289 228.602088 
L 217.648124 228.59827 
L 218.291433 228.610292 
L 218.58747 228.60416 
L 219.179542 228.60445 
L 220.033492 228.613572 
L 220.380765 228.606196 
L 220.591406 228.610162 
L 223.927506 228.616669 
L 224.269086 228.595806 
L 225.140115 228.613253 
L 225.33937 228.597855 
L 227.06435 228.455781 
L 227.132666 228.42803 
L 227.155438 228.51167 
L 227.257912 228.598758 
L 227.286377 228.591739 
L 227.565334 228.602386 
L 228.083397 228.563936 
L 228.225723 228.591526 
L 228.493294 228.594348 
L 228.709628 228.613803 
L 228.908883 228.598937 
L 229.034129 228.617859 
L 230.047483 228.602222 
L 230.246738 228.605856 
L 230.57124 228.612128 
L 230.810346 228.612361 
L 231.248707 228.610755 
L 231.573208 228.617611 
L 232.170973 228.604881 
L 232.523939 228.621877 
L 232.73458 228.603315 
L 233.064775 228.608431 
L 233.821944 228.608273 
L 234.408323 228.600399 
L 234.579113 228.605847 
L 234.840991 228.605684 
L 235.193957 228.612361 
L 235.546924 228.606436 
L 235.717714 228.599608 
L 235.854346 228.607974 
L 236.577357 228.619406 
L 236.850621 228.622794 
L 237.101113 228.598692 
L 244.712657 228.589911 
L 244.88914 228.441855 
L 244.923298 228.541712 
L 245.071317 228.597131 
L 245.458441 228.457911 
L 245.486906 228.543661 
L 245.663389 228.601303 
L 246.733673 228.609321 
L 249.090576 228.59177 
L 249.36384 228.609628 
L 249.785122 228.594154 
L 250.491055 228.604033 
L 250.621994 228.592327 
L 250.838328 228.610686 
L 259.298129 228.612196 
L 259.844658 228.59837 
L 260.03822 228.603263 
L 260.317177 228.597638 
L 260.499353 228.601631 
L 260.83524 228.601569 
L 261.381768 228.593707 
L 261.740427 228.598576 
L 261.956761 228.589466 
L 263.055511 228.592622 
L 263.408477 228.600603 
L 265.218852 228.586961 
L 265.600283 228.581141 
L 268.680197 228.604196 
L 268.828215 228.589661 
L 271.970753 228.586321 
L 272.158622 228.576753 
L 272.386342 228.586562 
L 272.631141 228.569597 
L 272.790545 228.580376 
L 280.037737 228.430437 
L 280.106053 227.945803 
L 280.128825 227.788445 
L 280.180062 228.359925 
L 280.316694 228.53045 
L 280.339466 228.512621 
L 280.49887 228.540679 
L 280.504563 228.534809 
L 280.61273 228.534506 
L 280.624116 228.550381 
L 280.72659 228.559213 
L 280.658274 228.525439 
L 280.743669 228.534232 
L 280.891687 228.535116 
L 280.89738 228.544366 
L 281.005547 228.550907 
L 280.931538 228.521789 
L 281.016933 228.53829 
L 281.119407 228.519623 
L 281.130793 228.544844 
L 281.233267 228.58224 
L 281.244653 228.560327 
L 281.318662 228.611879 
L 281.386979 228.503526 
L 281.460988 228.562709 
L 281.489453 228.539587 
L 281.506532 228.569401 
L 281.563462 228.469211 
L 281.580541 228.409368 
L 281.671629 228.483415 
L 281.734252 228.540525 
L 281.791182 228.508854 
L 281.950586 228.501578 
L 281.82534 228.604204 
L 281.961972 228.526017 
L 282.10999 228.563845 
L 282.121376 228.522002 
L 282.218157 228.495015 
L 282.149841 228.538708 
L 282.229543 228.525313 
L 282.240929 228.561371 
L 282.269394 228.463676 
L 282.33771 228.518983 
L 282.445877 228.472895 
L 282.383254 228.543948 
L 282.457263 228.506087 
L 282.474342 228.552678 
L 282.497114 228.458204 
L 282.571123 228.513625 
L 282.582509 228.512031 
L 282.599588 228.612354 
L 282.610974 228.671821 
L 282.67929 228.434556 
L 282.73622 227.83738 
L 282.79315 228.303312 
L 282.833001 228.692182 
L 282.895624 228.320693 
L 282.941168 228.41955 
L 283.02087 228.135972 
L 283.140423 226.981611 
L 283.53324 223.409147 
L 283.681258 212.166291 
L 283.743881 168.302742 
L 283.789425 65.469905 
L 283.840663 191.208984 
L 283.982988 222.977828 
L 284.341647 227.010749 
L 284.353033 226.977952 
L 284.375805 227.223989 
L 284.427042 227.479294 
L 284.472586 227.201508 
L 284.592139 225.485781 
L 284.63199 226.587737 
L 284.694613 227.315391 
L 284.762929 227.304831 
L 284.836938 228.236092 
L 284.899561 227.587236 
L 284.950798 227.518603 
L 284.996342 227.694632 
L 285.161439 227.969777 
L 285.275299 227.953697 
L 285.280992 227.971036 
L 285.389159 228.082088 
L 285.406238 228.047732 
L 285.503019 227.999154 
L 285.434703 228.071973 
L 285.520098 228.045968 
L 285.662423 228.17211 
L 285.742125 228.090697 
L 285.787669 228.219711 
L 285.804748 228.268697 
L 285.867371 228.186414 
L 285.901529 228.234085 
L 285.912915 228.21971 
L 285.94138 228.307221 
L 285.969845 228.320545 
L 285.986924 228.362469 
L 286.05524 228.238037 
L 286.060933 228.240738 
L 286.214644 228.306455 
L 286.220338 228.301602 
L 286.282961 228.215478 
L 286.339891 228.274803 
L 286.448058 228.322093 
L 286.374049 228.257649 
L 286.47083 228.297611 
L 286.630234 228.345569 
L 286.647313 228.312664 
L 286.931963 228.309896 
L 287.04013 228.38523 
L 287.062902 228.357751 
L 287.506956 228.310121 
L 287.592351 227.700325 
L 287.603737 227.64028 
L 287.643588 228.095182 
L 287.78022 228.376129 
L 287.945317 228.390401 
L 287.95101 228.400468 
L 288.093335 228.424902 
L 288.247046 228.411298 
L 288.252739 228.40205 
L 288.400757 228.391642 
L 288.554468 228.425575 
L 288.804961 228.396466 
L 288.99283 228.382595 
L 289.214857 228.401267 
L 289.368568 228.402986 
L 289.499507 228.396196 
L 289.761385 228.384971 
L 289.909403 228.367639 
L 292.807141 228.123133 
L 292.955159 228.08036 
L 292.966545 228.091152 
L 293.10887 228.047497 
L 293.376441 227.974012 
L 293.530153 227.948988 
L 293.700943 227.885098 
L 294.310094 227.622558 
L 294.515042 227.516313 
L 294.617516 227.455037 
L 295.386071 226.699004 
L 295.653642 226.071954 
L 296.017995 225.117792 
L 296.365268 223.321149 
L 296.666997 220.215145 
L 296.906103 215.142078 
L 297.116744 206.431413 
L 297.35585 185.635883 
L 297.566491 146.521895 
L 297.782825 55.590888 
L 297.896685 21.175818 
L 297.942229 28.430853 
L 298.596925 199.594912 
L 298.927119 212.155373 
L 299.268699 217.978883 
L 299.689981 221.828687 
L 300.122649 224.147996 
L 300.469922 225.125134 
L 301.43204 226.897576 
L 302.308762 227.617949 
L 302.502324 227.715445 
L 302.712965 227.802412 
L 306.117381 228.402776 
L 306.288171 228.418878 
L 307.95622 228.485753 
L 308.098546 228.487814 
L 308.48567 228.508309 
L 308.650767 228.50266 
L 308.798785 228.516962 
L 309.305462 228.533218 
L 309.464866 228.536736 
L 309.732437 228.535844 
L 310.347281 228.537218 
L 310.643318 228.539908 
L 310.853959 228.539513 
L 311.00767 228.546963 
L 311.184153 228.55894 
L 312.174735 228.555964 
L 313.279178 228.555493 
L 313.501205 228.569244 
L 313.734618 228.571217 
L 314.093277 228.566251 
L 314.246988 228.573147 
L 314.252681 228.566697 
L 314.389313 228.576842 
L 314.765051 228.587879 
L 315.078166 228.583715 
L 315.220491 228.57813 
L 315.704397 228.596534 
L 316.074442 228.599643 
L 316.313548 228.588655 
L 317.047945 228.582956 
L 317.178884 228.592982 
L 317.89051 228.595066 
L 318.51674 228.59646 
L 318.659065 228.59524 
L 319.046189 228.60127 
L 319.160049 228.605569 
L 319.177128 228.589681 
L 320.919187 228.404472 
L 320.947652 228.365976 
L 320.993196 228.465436 
L 321.027354 228.422249 
L 321.050126 228.423678 
L 321.078591 228.51765 
L 321.226609 228.598525 
L 321.243688 228.577648 
L 321.625119 228.599424 
L 321.773137 228.633905 
L 322.268428 228.59111 
L 322.302586 228.557689 
L 322.416446 228.589338 
L 322.894659 228.583425 
L 322.99144 228.585284 
L 323.008519 228.617514 
L 323.036984 228.585473 
L 323.150844 228.608056 
L 323.401336 228.471259 
L 323.412722 228.497944 
L 323.469652 228.543282 
L 323.520889 228.512282 
L 323.856776 227.23639 
L 324.158505 223.409518 
L 324.30083 204.922362 
L 324.426076 183.484552 
L 324.443155 190.568277 
L 324.58548 213.943532 
L 324.613945 212.843726 
L 324.631024 215.19548 
L 324.784735 226.685637 
L 325.018149 227.604147 
L 325.023842 227.595677 
L 325.035228 227.579288 
L 325.063693 227.708156 
L 325.092158 227.694809 
L 325.200325 227.779182 
L 325.126316 227.665972 
L 325.211711 227.747952 
L 325.217404 227.735746 
L 325.245869 227.817584 
L 325.280027 227.833453 
L 325.433738 228.031594 
L 325.439431 228.026798 
L 325.473589 228.079105 
L 325.541905 228.073823 
L 325.707002 228.154438 
L 325.820862 228.170176 
L 325.980266 228.259958 
L 326.236451 228.345451 
L 326.412934 228.374338 
L 326.7659 228.455338 
L 326.913918 228.435237 
L 327.113173 228.468706 
L 327.40921 228.495406 
L 327.619851 228.509462 
L 327.779255 228.510606 
L 327.938659 228.358481 
L 327.984203 228.401045 
L 328.172072 228.478459 
L 328.331476 228.55919 
L 328.342862 228.551847 
L 328.667363 228.567356 
L 328.815381 228.57501 
L 329.054487 228.576265 
L 329.242356 228.586445 
L 329.390374 228.574941 
L 329.783191 228.590963 
L 330.352492 228.596579 
L 330.528975 228.594665 
L 330.72823 228.589873 
L 331.29753 228.596741 
L 331.593566 228.597057 
L 332.123015 228.599293 
L 332.271034 228.605688 
L 332.646772 228.613503 
L 338.117747 228.593742 
L 338.52195 228.613308 
L 339.495454 228.602323 
L 339.928122 228.600745 
L 340.275395 228.611519 
L 340.423413 228.615367 
L 340.753607 228.612873 
L 341.516469 228.609462 
L 341.960524 228.604548 
L 342.216709 228.606929 
L 342.387499 228.621205 
L 342.848632 228.561219 
L 342.865711 228.548979 
L 342.899869 228.606193 
L 342.93972 228.614882 
L 343.173133 228.610181 
L 343.611494 228.609325 
L 343.816442 228.611579 
L 347.562438 228.618385 
L 347.761693 228.607406 
L 347.92679 228.61217 
L 348.171589 228.605172 
L 349.509445 228.599571 
L 351.541846 228.612384 
L 351.815111 228.60961 
L 352.543815 228.616584 
L 353.705187 228.611689 
L 355.339079 228.609994 
L 355.828677 228.606586 
L 359.921946 228.623127 
L 360.092736 228.601954 
L 360.428623 228.617576 
L 360.633571 228.603142 
L 360.810054 228.618986 
L 361.35089 228.606862 
L 361.57861 228.609487 
L 362.03405 228.603331 
L 362.643201 228.600244 
L 362.808298 228.607661 
L 367.482253 228.614258 
L 367.98893 228.603208 
L 368.296352 228.613301 
L 368.626547 228.605258 
L 368.820109 228.598379 
L 369.173075 228.598903 
L 369.417874 228.604234 
L 369.907472 228.600351 
L 370.180736 228.614366 
L 370.379991 228.59877 
L 370.579246 228.606573 
L 370.903747 228.600581 
L 371.182705 228.606781 
L 371.347802 228.607532 
L 375.253201 228.585231 
L 375.429684 228.599101 
L 382.471928 228.621252 
L 382.614253 228.611504 
L 382.955833 228.592457 
L 383.257563 228.598334 
L 383.701617 228.603837 
L 383.866714 228.602322 
L 385.369666 228.596806 
L 385.580308 228.605189 
L 385.756791 228.593995 
L 386.206538 228.592605 
L 386.656285 228.590155 
L 386.975093 228.596173 
L 387.322366 228.597861 
L 387.476077 228.604257 
L 388.187703 228.595795 
L 388.404037 228.600717 
L 388.677301 228.591305 
L 388.899328 228.610963 
L 395.74801 228.588207 
L 395.907414 228.603893 
L 396.812601 228.587462 
L 397.370515 228.581044 
L 398.827924 228.587055 
L 399.106881 228.601447 
L 399.670488 228.600275 
L 401.207599 228.589829 
L 401.5321 228.595855 
L 401.862294 228.593186 
L 402.226646 228.592289 
L 402.545455 228.587646 
L 402.545455 228.587646 
" clip-path="url(#pb0ab7d7070)" style="fill: none; stroke: #4c72b0; stroke-linecap: square"/>
   </g>
   <g id="patch_3">
    <path d="M 10.8 239.068 
L 421.2 239.068 
" style="fill: none; stroke: #000000; stroke-width: 1.3; stroke-linejoin: miter; stroke-linecap: square"/>
   </g>
  </g>
 </g>
 <defs>
  <clipPath id="pb0ab7d7070">
   <rect x="10.8" y="10.8" width="410.4" height="228.268"/>
  </clipPath>
 </defs>
</svg>
