<?xml version="1.0" encoding="utf-8" standalone="no"?>
<!DOCTYPE svg PUBLIC "-//W3C//DTD SVG 1.1//EN"
  "http://www.w3.org/Graphics/SVG/1.1/DTD/svg11.dtd">
<!-- Created with matplotlib (https://matplotlib.org/) -->
<svg height="360pt" version="1.1" viewBox="0 0 360 360" width="360pt" xmlns="http://www.w3.org/2000/svg" xmlns:xlink="http://www.w3.org/1999/xlink">
 <metadata>
  <rdf:RDF xmlns:cc="http://creativecommons.org/ns#" xmlns:dc="http://purl.org/dc/elements/1.1/" xmlns:rdf="http://www.w3.org/1999/02/22-rdf-syntax-ns#">
   <cc:Work>
    <dc:type rdf:resource="http://purl.org/dc/dcmitype/StillImage"/>
    <dc:date>2020-11-21T02:43:39.573277</dc:date>
    <dc:format>image/svg+xml</dc:format>
    <dc:creator>
     <cc:Agent>
      <dc:title>Matplotlib v3.3.3, https://matplotlib.org/</dc:title>
     </cc:Agent>
    </dc:creator>
   </cc:Work>
  </rdf:RDF>
 </metadata>
 <defs>
  <style type="text/css">*{stroke-linecap:butt;stroke-linejoin:round;}</style>
 </defs>
 <g id="figure_1">
  <g id="patch_1">
   <path d="M 0 360 
L 360 360 
L 360 0 
L 0 0 
z
" style="fill:#ffffff;"/>
  </g>
  <g id="axes_1">
   <g id="patch_2">
    <path d="M 57.842 311.068 
L 349.2 311.068 
L 349.2 10.8 
L 57.842 10.8 
z
" style="fill:#ffffff;"/>
   </g>
   <g id="matplotlib.axis_1">
    <g id="xtick_1">
     <g id="line2d_1">
      <defs>
       <path d="M 0 0 
L 0 5 
" id="madd1631914" style="stroke:#000000;stroke-width:1.3;"/>
      </defs>
      <g>
       <use style="stroke:#000000;stroke-width:1.3;" x="330.642394" xlink:href="#madd1631914" y="311.068"/>
      </g>
     </g>
     <g id="text_1">
      <!-- 1 -->
      <g transform="translate(327.461144 327.166437)scale(0.1 -0.1)">
       <defs>
        <path d="M 12.40625 8.296875 
L 28.515625 8.296875 
L 28.515625 63.921875 
L 10.984375 60.40625 
L 10.984375 69.390625 
L 28.421875 72.90625 
L 38.28125 72.90625 
L 38.28125 8.296875 
L 54.390625 8.296875 
L 54.390625 0 
L 12.40625 0 
z
" id="DejaVuSans-49"/>
       </defs>
       <use xlink:href="#DejaVuSans-49"/>
      </g>
     </g>
    </g>
    <g id="xtick_2">
     <g id="line2d_2">
      <g>
       <use style="stroke:#000000;stroke-width:1.3;" x="294.237315" xlink:href="#madd1631914" y="311.068"/>
      </g>
     </g>
     <g id="text_2">
      <!-- 2 -->
      <g transform="translate(291.056065 327.166437)scale(0.1 -0.1)">
       <defs>
        <path d="M 19.1875 8.296875 
L 53.609375 8.296875 
L 53.609375 0 
L 7.328125 0 
L 7.328125 8.296875 
Q 12.9375 14.109375 22.625 23.890625 
Q 32.328125 33.6875 34.8125 36.53125 
Q 39.546875 41.84375 41.421875 45.53125 
Q 43.3125 49.21875 43.3125 52.78125 
Q 43.3125 58.59375 39.234375 62.25 
Q 35.15625 65.921875 28.609375 65.921875 
Q 23.96875 65.921875 18.8125 64.3125 
Q 13.671875 62.703125 7.8125 59.421875 
L 7.8125 69.390625 
Q 13.765625 71.78125 18.9375 73 
Q 24.125 74.21875 28.421875 74.21875 
Q 39.75 74.21875 46.484375 68.546875 
Q 53.21875 62.890625 53.21875 53.421875 
Q 53.21875 48.921875 51.53125 44.890625 
Q 49.859375 40.875 45.40625 35.40625 
Q 44.1875 33.984375 37.640625 27.21875 
Q 31.109375 20.453125 19.1875 8.296875 
z
" id="DejaVuSans-50"/>
       </defs>
       <use xlink:href="#DejaVuSans-50"/>
      </g>
     </g>
    </g>
    <g id="xtick_3">
     <g id="line2d_3">
      <g>
       <use style="stroke:#000000;stroke-width:1.3;" x="257.832237" xlink:href="#madd1631914" y="311.068"/>
      </g>
     </g>
     <g id="text_3">
      <!-- 3 -->
      <g transform="translate(254.650987 327.166437)scale(0.1 -0.1)">
       <defs>
        <path d="M 40.578125 39.3125 
Q 47.65625 37.796875 51.625 33 
Q 55.609375 28.21875 55.609375 21.1875 
Q 55.609375 10.40625 48.1875 4.484375 
Q 40.765625 -1.421875 27.09375 -1.421875 
Q 22.515625 -1.421875 17.65625 -0.515625 
Q 12.796875 0.390625 7.625 2.203125 
L 7.625 11.71875 
Q 11.71875 9.328125 16.59375 8.109375 
Q 21.484375 6.890625 26.8125 6.890625 
Q 36.078125 6.890625 40.9375 10.546875 
Q 45.796875 14.203125 45.796875 21.1875 
Q 45.796875 27.640625 41.28125 31.265625 
Q 36.765625 34.90625 28.71875 34.90625 
L 20.21875 34.90625 
L 20.21875 43.015625 
L 29.109375 43.015625 
Q 36.375 43.015625 40.234375 45.921875 
Q 44.09375 48.828125 44.09375 54.296875 
Q 44.09375 59.90625 40.109375 62.90625 
Q 36.140625 65.921875 28.71875 65.921875 
Q 24.65625 65.921875 20.015625 65.03125 
Q 15.375 64.15625 9.8125 62.3125 
L 9.8125 71.09375 
Q 15.4375 72.65625 20.34375 73.4375 
Q 25.25 74.21875 29.59375 74.21875 
Q 40.828125 74.21875 47.359375 69.109375 
Q 53.90625 64.015625 53.90625 55.328125 
Q 53.90625 49.265625 50.4375 45.09375 
Q 46.96875 40.921875 40.578125 39.3125 
z
" id="DejaVuSans-51"/>
       </defs>
       <use xlink:href="#DejaVuSans-51"/>
      </g>
     </g>
    </g>
    <g id="xtick_4">
     <g id="line2d_4">
      <g>
       <use style="stroke:#000000;stroke-width:1.3;" x="221.427158" xlink:href="#madd1631914" y="311.068"/>
      </g>
     </g>
     <g id="text_4">
      <!-- 4 -->
      <g transform="translate(218.245908 327.166437)scale(0.1 -0.1)">
       <defs>
        <path d="M 37.796875 64.3125 
L 12.890625 25.390625 
L 37.796875 25.390625 
z
M 35.203125 72.90625 
L 47.609375 72.90625 
L 47.609375 25.390625 
L 58.015625 25.390625 
L 58.015625 17.1875 
L 47.609375 17.1875 
L 47.609375 0 
L 37.796875 0 
L 37.796875 17.1875 
L 4.890625 17.1875 
L 4.890625 26.703125 
z
" id="DejaVuSans-52"/>
       </defs>
       <use xlink:href="#DejaVuSans-52"/>
      </g>
     </g>
    </g>
    <g id="xtick_5">
     <g id="line2d_5">
      <g>
       <use style="stroke:#000000;stroke-width:1.3;" x="185.022079" xlink:href="#madd1631914" y="311.068"/>
      </g>
     </g>
     <g id="text_5">
      <!-- 5 -->
      <g transform="translate(181.840829 327.166437)scale(0.1 -0.1)">
       <defs>
        <path d="M 10.796875 72.90625 
L 49.515625 72.90625 
L 49.515625 64.59375 
L 19.828125 64.59375 
L 19.828125 46.734375 
Q 21.96875 47.46875 24.109375 47.828125 
Q 26.265625 48.1875 28.421875 48.1875 
Q 40.625 48.1875 47.75 41.5 
Q 54.890625 34.8125 54.890625 23.390625 
Q 54.890625 11.625 47.5625 5.09375 
Q 40.234375 -1.421875 26.90625 -1.421875 
Q 22.3125 -1.421875 17.546875 -0.640625 
Q 12.796875 0.140625 7.71875 1.703125 
L 7.71875 11.625 
Q 12.109375 9.234375 16.796875 8.0625 
Q 21.484375 6.890625 26.703125 6.890625 
Q 35.15625 6.890625 40.078125 11.328125 
Q 45.015625 15.765625 45.015625 23.390625 
Q 45.015625 31 40.078125 35.4375 
Q 35.15625 39.890625 26.703125 39.890625 
Q 22.75 39.890625 18.8125 39.015625 
Q 14.890625 38.140625 10.796875 36.28125 
z
" id="DejaVuSans-53"/>
       </defs>
       <use xlink:href="#DejaVuSans-53"/>
      </g>
     </g>
    </g>
    <g id="xtick_6">
     <g id="line2d_6">
      <g>
       <use style="stroke:#000000;stroke-width:1.3;" x="148.617001" xlink:href="#madd1631914" y="311.068"/>
      </g>
     </g>
     <g id="text_6">
      <!-- 6 -->
      <g transform="translate(145.435751 327.166437)scale(0.1 -0.1)">
       <defs>
        <path d="M 33.015625 40.375 
Q 26.375 40.375 22.484375 35.828125 
Q 18.609375 31.296875 18.609375 23.390625 
Q 18.609375 15.53125 22.484375 10.953125 
Q 26.375 6.390625 33.015625 6.390625 
Q 39.65625 6.390625 43.53125 10.953125 
Q 47.40625 15.53125 47.40625 23.390625 
Q 47.40625 31.296875 43.53125 35.828125 
Q 39.65625 40.375 33.015625 40.375 
z
M 52.59375 71.296875 
L 52.59375 62.3125 
Q 48.875 64.0625 45.09375 64.984375 
Q 41.3125 65.921875 37.59375 65.921875 
Q 27.828125 65.921875 22.671875 59.328125 
Q 17.53125 52.734375 16.796875 39.40625 
Q 19.671875 43.65625 24.015625 45.921875 
Q 28.375 48.1875 33.59375 48.1875 
Q 44.578125 48.1875 50.953125 41.515625 
Q 57.328125 34.859375 57.328125 23.390625 
Q 57.328125 12.15625 50.6875 5.359375 
Q 44.046875 -1.421875 33.015625 -1.421875 
Q 20.359375 -1.421875 13.671875 8.265625 
Q 6.984375 17.96875 6.984375 36.375 
Q 6.984375 53.65625 15.1875 63.9375 
Q 23.390625 74.21875 37.203125 74.21875 
Q 40.921875 74.21875 44.703125 73.484375 
Q 48.484375 72.75 52.59375 71.296875 
z
" id="DejaVuSans-54"/>
       </defs>
       <use xlink:href="#DejaVuSans-54"/>
      </g>
     </g>
    </g>
    <g id="xtick_7">
     <g id="line2d_7">
      <g>
       <use style="stroke:#000000;stroke-width:1.3;" x="112.211922" xlink:href="#madd1631914" y="311.068"/>
      </g>
     </g>
     <g id="text_7">
      <!-- 7 -->
      <g transform="translate(109.030672 327.166437)scale(0.1 -0.1)">
       <defs>
        <path d="M 8.203125 72.90625 
L 55.078125 72.90625 
L 55.078125 68.703125 
L 28.609375 0 
L 18.3125 0 
L 43.21875 64.59375 
L 8.203125 64.59375 
z
" id="DejaVuSans-55"/>
       </defs>
       <use xlink:href="#DejaVuSans-55"/>
      </g>
     </g>
    </g>
    <g id="xtick_8">
     <g id="line2d_8">
      <g>
       <use style="stroke:#000000;stroke-width:1.3;" x="75.806843" xlink:href="#madd1631914" y="311.068"/>
      </g>
     </g>
     <g id="text_8">
      <!-- 8 -->
      <g transform="translate(72.625593 327.166437)scale(0.1 -0.1)">
       <defs>
        <path d="M 31.78125 34.625 
Q 24.75 34.625 20.71875 30.859375 
Q 16.703125 27.09375 16.703125 20.515625 
Q 16.703125 13.921875 20.71875 10.15625 
Q 24.75 6.390625 31.78125 6.390625 
Q 38.8125 6.390625 42.859375 10.171875 
Q 46.921875 13.96875 46.921875 20.515625 
Q 46.921875 27.09375 42.890625 30.859375 
Q 38.875 34.625 31.78125 34.625 
z
M 21.921875 38.8125 
Q 15.578125 40.375 12.03125 44.71875 
Q 8.5 49.078125 8.5 55.328125 
Q 8.5 64.0625 14.71875 69.140625 
Q 20.953125 74.21875 31.78125 74.21875 
Q 42.671875 74.21875 48.875 69.140625 
Q 55.078125 64.0625 55.078125 55.328125 
Q 55.078125 49.078125 51.53125 44.71875 
Q 48 40.375 41.703125 38.8125 
Q 48.828125 37.15625 52.796875 32.3125 
Q 56.78125 27.484375 56.78125 20.515625 
Q 56.78125 9.90625 50.3125 4.234375 
Q 43.84375 -1.421875 31.78125 -1.421875 
Q 19.734375 -1.421875 13.25 4.234375 
Q 6.78125 9.90625 6.78125 20.515625 
Q 6.78125 27.484375 10.78125 32.3125 
Q 14.796875 37.15625 21.921875 38.8125 
z
M 18.3125 54.390625 
Q 18.3125 48.734375 21.84375 45.5625 
Q 25.390625 42.390625 31.78125 42.390625 
Q 38.140625 42.390625 41.71875 45.5625 
Q 45.3125 48.734375 45.3125 54.390625 
Q 45.3125 60.0625 41.71875 63.234375 
Q 38.140625 66.40625 31.78125 66.40625 
Q 25.390625 66.40625 21.84375 63.234375 
Q 18.3125 60.0625 18.3125 54.390625 
z
" id="DejaVuSans-56"/>
       </defs>
       <use xlink:href="#DejaVuSans-56"/>
      </g>
     </g>
    </g>
    <g id="xtick_9">
     <g id="line2d_9">
      <defs>
       <path d="M 0 0 
L 0 3 
" id="m1f7073fdda" style="stroke:#000000;stroke-width:1.3;"/>
      </defs>
      <g>
       <use style="stroke:#000000;stroke-width:1.3;" x="345.204425" xlink:href="#m1f7073fdda" y="311.068"/>
      </g>
     </g>
    </g>
    <g id="xtick_10">
     <g id="line2d_10">
      <g>
       <use style="stroke:#000000;stroke-width:1.3;" x="337.92341" xlink:href="#m1f7073fdda" y="311.068"/>
      </g>
     </g>
    </g>
    <g id="xtick_11">
     <g id="line2d_11">
      <g>
       <use style="stroke:#000000;stroke-width:1.3;" x="323.361378" xlink:href="#m1f7073fdda" y="311.068"/>
      </g>
     </g>
    </g>
    <g id="xtick_12">
     <g id="line2d_12">
      <g>
       <use style="stroke:#000000;stroke-width:1.3;" x="316.080362" xlink:href="#m1f7073fdda" y="311.068"/>
      </g>
     </g>
    </g>
    <g id="xtick_13">
     <g id="line2d_13">
      <g>
       <use style="stroke:#000000;stroke-width:1.3;" x="308.799347" xlink:href="#m1f7073fdda" y="311.068"/>
      </g>
     </g>
    </g>
    <g id="xtick_14">
     <g id="line2d_14">
      <g>
       <use style="stroke:#000000;stroke-width:1.3;" x="301.518331" xlink:href="#m1f7073fdda" y="311.068"/>
      </g>
     </g>
    </g>
    <g id="xtick_15">
     <g id="line2d_15">
      <g>
       <use style="stroke:#000000;stroke-width:1.3;" x="286.9563" xlink:href="#m1f7073fdda" y="311.068"/>
      </g>
     </g>
    </g>
    <g id="xtick_16">
     <g id="line2d_16">
      <g>
       <use style="stroke:#000000;stroke-width:1.3;" x="279.675284" xlink:href="#m1f7073fdda" y="311.068"/>
      </g>
     </g>
    </g>
    <g id="xtick_17">
     <g id="line2d_17">
      <g>
       <use style="stroke:#000000;stroke-width:1.3;" x="272.394268" xlink:href="#m1f7073fdda" y="311.068"/>
      </g>
     </g>
    </g>
    <g id="xtick_18">
     <g id="line2d_18">
      <g>
       <use style="stroke:#000000;stroke-width:1.3;" x="265.113252" xlink:href="#m1f7073fdda" y="311.068"/>
      </g>
     </g>
    </g>
    <g id="xtick_19">
     <g id="line2d_19">
      <g>
       <use style="stroke:#000000;stroke-width:1.3;" x="250.551221" xlink:href="#m1f7073fdda" y="311.068"/>
      </g>
     </g>
    </g>
    <g id="xtick_20">
     <g id="line2d_20">
      <g>
       <use style="stroke:#000000;stroke-width:1.3;" x="243.270205" xlink:href="#m1f7073fdda" y="311.068"/>
      </g>
     </g>
    </g>
    <g id="xtick_21">
     <g id="line2d_21">
      <g>
       <use style="stroke:#000000;stroke-width:1.3;" x="235.989189" xlink:href="#m1f7073fdda" y="311.068"/>
      </g>
     </g>
    </g>
    <g id="xtick_22">
     <g id="line2d_22">
      <g>
       <use style="stroke:#000000;stroke-width:1.3;" x="228.708174" xlink:href="#m1f7073fdda" y="311.068"/>
      </g>
     </g>
    </g>
    <g id="xtick_23">
     <g id="line2d_23">
      <g>
       <use style="stroke:#000000;stroke-width:1.3;" x="214.146142" xlink:href="#m1f7073fdda" y="311.068"/>
      </g>
     </g>
    </g>
    <g id="xtick_24">
     <g id="line2d_24">
      <g>
       <use style="stroke:#000000;stroke-width:1.3;" x="206.865127" xlink:href="#m1f7073fdda" y="311.068"/>
      </g>
     </g>
    </g>
    <g id="xtick_25">
     <g id="line2d_25">
      <g>
       <use style="stroke:#000000;stroke-width:1.3;" x="199.584111" xlink:href="#m1f7073fdda" y="311.068"/>
      </g>
     </g>
    </g>
    <g id="xtick_26">
     <g id="line2d_26">
      <g>
       <use style="stroke:#000000;stroke-width:1.3;" x="192.303095" xlink:href="#m1f7073fdda" y="311.068"/>
      </g>
     </g>
    </g>
    <g id="xtick_27">
     <g id="line2d_27">
      <g>
       <use style="stroke:#000000;stroke-width:1.3;" x="177.741064" xlink:href="#m1f7073fdda" y="311.068"/>
      </g>
     </g>
    </g>
    <g id="xtick_28">
     <g id="line2d_28">
      <g>
       <use style="stroke:#000000;stroke-width:1.3;" x="170.460048" xlink:href="#m1f7073fdda" y="311.068"/>
      </g>
     </g>
    </g>
    <g id="xtick_29">
     <g id="line2d_29">
      <g>
       <use style="stroke:#000000;stroke-width:1.3;" x="163.179032" xlink:href="#m1f7073fdda" y="311.068"/>
      </g>
     </g>
    </g>
    <g id="xtick_30">
     <g id="line2d_30">
      <g>
       <use style="stroke:#000000;stroke-width:1.3;" x="155.898016" xlink:href="#m1f7073fdda" y="311.068"/>
      </g>
     </g>
    </g>
    <g id="xtick_31">
     <g id="line2d_31">
      <g>
       <use style="stroke:#000000;stroke-width:1.3;" x="141.335985" xlink:href="#m1f7073fdda" y="311.068"/>
      </g>
     </g>
    </g>
    <g id="xtick_32">
     <g id="line2d_32">
      <g>
       <use style="stroke:#000000;stroke-width:1.3;" x="134.054969" xlink:href="#m1f7073fdda" y="311.068"/>
      </g>
     </g>
    </g>
    <g id="xtick_33">
     <g id="line2d_33">
      <g>
       <use style="stroke:#000000;stroke-width:1.3;" x="126.773954" xlink:href="#m1f7073fdda" y="311.068"/>
      </g>
     </g>
    </g>
    <g id="xtick_34">
     <g id="line2d_34">
      <g>
       <use style="stroke:#000000;stroke-width:1.3;" x="119.492938" xlink:href="#m1f7073fdda" y="311.068"/>
      </g>
     </g>
    </g>
    <g id="xtick_35">
     <g id="line2d_35">
      <g>
       <use style="stroke:#000000;stroke-width:1.3;" x="104.930906" xlink:href="#m1f7073fdda" y="311.068"/>
      </g>
     </g>
    </g>
    <g id="xtick_36">
     <g id="line2d_36">
      <g>
       <use style="stroke:#000000;stroke-width:1.3;" x="97.649891" xlink:href="#m1f7073fdda" y="311.068"/>
      </g>
     </g>
    </g>
    <g id="xtick_37">
     <g id="line2d_37">
      <g>
       <use style="stroke:#000000;stroke-width:1.3;" x="90.368875" xlink:href="#m1f7073fdda" y="311.068"/>
      </g>
     </g>
    </g>
    <g id="xtick_38">
     <g id="line2d_38">
      <g>
       <use style="stroke:#000000;stroke-width:1.3;" x="83.087859" xlink:href="#m1f7073fdda" y="311.068"/>
      </g>
     </g>
    </g>
    <g id="xtick_39">
     <g id="line2d_39">
      <g>
       <use style="stroke:#000000;stroke-width:1.3;" x="68.525828" xlink:href="#m1f7073fdda" y="311.068"/>
      </g>
     </g>
    </g>
    <g id="xtick_40">
     <g id="line2d_40">
      <g>
       <use style="stroke:#000000;stroke-width:1.3;" x="61.244812" xlink:href="#m1f7073fdda" y="311.068"/>
      </g>
     </g>
    </g>
    <g id="text_9">
     <!-- $^{1}$H (ppm) -->
     <g transform="translate(180.621 342.246125)scale(0.1 -0.1)">
      <defs>
       <path d="M 9.8125 72.90625 
L 19.671875 72.90625 
L 19.671875 43.015625 
L 55.515625 43.015625 
L 55.515625 72.90625 
L 65.375 72.90625 
L 65.375 0 
L 55.515625 0 
L 55.515625 34.71875 
L 19.671875 34.71875 
L 19.671875 0 
L 9.8125 0 
z
" id="DejaVuSans-72"/>
       <path id="DejaVuSans-32"/>
       <path d="M 31 75.875 
Q 24.46875 64.65625 21.28125 53.65625 
Q 18.109375 42.671875 18.109375 31.390625 
Q 18.109375 20.125 21.3125 9.0625 
Q 24.515625 -2 31 -13.1875 
L 23.1875 -13.1875 
Q 15.875 -1.703125 12.234375 9.375 
Q 8.59375 20.453125 8.59375 31.390625 
Q 8.59375 42.28125 12.203125 53.3125 
Q 15.828125 64.359375 23.1875 75.875 
z
" id="DejaVuSans-40"/>
       <path d="M 18.109375 8.203125 
L 18.109375 -20.796875 
L 9.078125 -20.796875 
L 9.078125 54.6875 
L 18.109375 54.6875 
L 18.109375 46.390625 
Q 20.953125 51.265625 25.265625 53.625 
Q 29.59375 56 35.59375 56 
Q 45.5625 56 51.78125 48.09375 
Q 58.015625 40.1875 58.015625 27.296875 
Q 58.015625 14.40625 51.78125 6.484375 
Q 45.5625 -1.421875 35.59375 -1.421875 
Q 29.59375 -1.421875 25.265625 0.953125 
Q 20.953125 3.328125 18.109375 8.203125 
z
M 48.6875 27.296875 
Q 48.6875 37.203125 44.609375 42.84375 
Q 40.53125 48.484375 33.40625 48.484375 
Q 26.265625 48.484375 22.1875 42.84375 
Q 18.109375 37.203125 18.109375 27.296875 
Q 18.109375 17.390625 22.1875 11.75 
Q 26.265625 6.109375 33.40625 6.109375 
Q 40.53125 6.109375 44.609375 11.75 
Q 48.6875 17.390625 48.6875 27.296875 
z
" id="DejaVuSans-112"/>
       <path d="M 52 44.1875 
Q 55.375 50.25 60.0625 53.125 
Q 64.75 56 71.09375 56 
Q 79.640625 56 84.28125 50.015625 
Q 88.921875 44.046875 88.921875 33.015625 
L 88.921875 0 
L 79.890625 0 
L 79.890625 32.71875 
Q 79.890625 40.578125 77.09375 44.375 
Q 74.3125 48.1875 68.609375 48.1875 
Q 61.625 48.1875 57.5625 43.546875 
Q 53.515625 38.921875 53.515625 30.90625 
L 53.515625 0 
L 44.484375 0 
L 44.484375 32.71875 
Q 44.484375 40.625 41.703125 44.40625 
Q 38.921875 48.1875 33.109375 48.1875 
Q 26.21875 48.1875 22.15625 43.53125 
Q 18.109375 38.875 18.109375 30.90625 
L 18.109375 0 
L 9.078125 0 
L 9.078125 54.6875 
L 18.109375 54.6875 
L 18.109375 46.1875 
Q 21.1875 51.21875 25.484375 53.609375 
Q 29.78125 56 35.6875 56 
Q 41.65625 56 45.828125 52.96875 
Q 50 49.953125 52 44.1875 
z
" id="DejaVuSans-109"/>
       <path d="M 8.015625 75.875 
L 15.828125 75.875 
Q 23.140625 64.359375 26.78125 53.3125 
Q 30.421875 42.28125 30.421875 31.390625 
Q 30.421875 20.453125 26.78125 9.375 
Q 23.140625 -1.703125 15.828125 -13.1875 
L 8.015625 -13.1875 
Q 14.5 -2 17.703125 9.0625 
Q 20.90625 20.125 20.90625 31.390625 
Q 20.90625 42.671875 17.703125 53.65625 
Q 14.5 64.65625 8.015625 75.875 
z
" id="DejaVuSans-41"/>
      </defs>
      <use transform="translate(0.957031 38.965625)scale(0.7)" xlink:href="#DejaVuSans-49"/>
      <use transform="translate(48.227539 0.684375)" xlink:href="#DejaVuSans-72"/>
      <use transform="translate(123.422852 0.684375)" xlink:href="#DejaVuSans-32"/>
      <use transform="translate(155.209961 0.684375)" xlink:href="#DejaVuSans-40"/>
      <use transform="translate(194.223633 0.684375)" xlink:href="#DejaVuSans-112"/>
      <use transform="translate(257.700195 0.684375)" xlink:href="#DejaVuSans-112"/>
      <use transform="translate(321.176758 0.684375)" xlink:href="#DejaVuSans-109"/>
      <use transform="translate(418.588867 0.684375)" xlink:href="#DejaVuSans-41"/>
     </g>
    </g>
   </g>
   <g id="matplotlib.axis_2">
    <g id="ytick_1">
     <g id="line2d_41">
      <defs>
       <path d="M 0 0 
L -5 0 
" id="m3940bbf66f" style="stroke:#000000;stroke-width:1.3;"/>
      </defs>
      <g>
       <use style="stroke:#000000;stroke-width:1.3;" x="57.842" xlink:href="#m3940bbf66f" y="32.249628"/>
      </g>
     </g>
     <g id="text_10">
      <!-- 20 -->
      <g transform="translate(36.617 36.048847)scale(0.1 -0.1)">
       <defs>
        <path d="M 31.78125 66.40625 
Q 24.171875 66.40625 20.328125 58.90625 
Q 16.5 51.421875 16.5 36.375 
Q 16.5 21.390625 20.328125 13.890625 
Q 24.171875 6.390625 31.78125 6.390625 
Q 39.453125 6.390625 43.28125 13.890625 
Q 47.125 21.390625 47.125 36.375 
Q 47.125 51.421875 43.28125 58.90625 
Q 39.453125 66.40625 31.78125 66.40625 
z
M 31.78125 74.21875 
Q 44.046875 74.21875 50.515625 64.515625 
Q 56.984375 54.828125 56.984375 36.375 
Q 56.984375 17.96875 50.515625 8.265625 
Q 44.046875 -1.421875 31.78125 -1.421875 
Q 19.53125 -1.421875 13.0625 8.265625 
Q 6.59375 17.96875 6.59375 36.375 
Q 6.59375 54.828125 13.0625 64.515625 
Q 19.53125 74.21875 31.78125 74.21875 
z
" id="DejaVuSans-48"/>
       </defs>
       <use xlink:href="#DejaVuSans-50"/>
       <use x="63.623047" xlink:href="#DejaVuSans-48"/>
      </g>
     </g>
    </g>
    <g id="ytick_2">
     <g id="line2d_42">
      <g>
       <use style="stroke:#000000;stroke-width:1.3;" x="57.842" xlink:href="#m3940bbf66f" y="78.786314"/>
      </g>
     </g>
     <g id="text_11">
      <!-- 40 -->
      <g transform="translate(36.617 82.585533)scale(0.1 -0.1)">
       <use xlink:href="#DejaVuSans-52"/>
       <use x="63.623047" xlink:href="#DejaVuSans-48"/>
      </g>
     </g>
    </g>
    <g id="ytick_3">
     <g id="line2d_43">
      <g>
       <use style="stroke:#000000;stroke-width:1.3;" x="57.842" xlink:href="#m3940bbf66f" y="125.323"/>
      </g>
     </g>
     <g id="text_12">
      <!-- 60 -->
      <g transform="translate(36.617 129.122219)scale(0.1 -0.1)">
       <use xlink:href="#DejaVuSans-54"/>
       <use x="63.623047" xlink:href="#DejaVuSans-48"/>
      </g>
     </g>
    </g>
    <g id="ytick_4">
     <g id="line2d_44">
      <g>
       <use style="stroke:#000000;stroke-width:1.3;" x="57.842" xlink:href="#m3940bbf66f" y="171.859686"/>
      </g>
     </g>
     <g id="text_13">
      <!-- 80 -->
      <g transform="translate(36.617 175.658905)scale(0.1 -0.1)">
       <use xlink:href="#DejaVuSans-56"/>
       <use x="63.623047" xlink:href="#DejaVuSans-48"/>
      </g>
     </g>
    </g>
    <g id="ytick_5">
     <g id="line2d_45">
      <g>
       <use style="stroke:#000000;stroke-width:1.3;" x="57.842" xlink:href="#m3940bbf66f" y="218.396372"/>
      </g>
     </g>
     <g id="text_14">
      <!-- 100 -->
      <g transform="translate(30.2545 222.195591)scale(0.1 -0.1)">
       <use xlink:href="#DejaVuSans-49"/>
       <use x="63.623047" xlink:href="#DejaVuSans-48"/>
       <use x="127.246094" xlink:href="#DejaVuSans-48"/>
      </g>
     </g>
    </g>
    <g id="ytick_6">
     <g id="line2d_46">
      <g>
       <use style="stroke:#000000;stroke-width:1.3;" x="57.842" xlink:href="#m3940bbf66f" y="264.933058"/>
      </g>
     </g>
     <g id="text_15">
      <!-- 120 -->
      <g transform="translate(30.2545 268.732277)scale(0.1 -0.1)">
       <use xlink:href="#DejaVuSans-49"/>
       <use x="63.623047" xlink:href="#DejaVuSans-50"/>
       <use x="127.246094" xlink:href="#DejaVuSans-48"/>
      </g>
     </g>
    </g>
    <g id="ytick_7">
     <g id="line2d_47">
      <defs>
       <path d="M 0 0 
L -3 0 
" id="m707c966f97" style="stroke:#000000;stroke-width:1.3;"/>
      </defs>
      <g>
       <use style="stroke:#000000;stroke-width:1.3;" x="57.842" xlink:href="#m707c966f97" y="20.615457"/>
      </g>
     </g>
    </g>
    <g id="ytick_8">
     <g id="line2d_48">
      <g>
       <use style="stroke:#000000;stroke-width:1.3;" x="57.842" xlink:href="#m707c966f97" y="43.8838"/>
      </g>
     </g>
    </g>
    <g id="ytick_9">
     <g id="line2d_49">
      <g>
       <use style="stroke:#000000;stroke-width:1.3;" x="57.842" xlink:href="#m707c966f97" y="55.517971"/>
      </g>
     </g>
    </g>
    <g id="ytick_10">
     <g id="line2d_50">
      <g>
       <use style="stroke:#000000;stroke-width:1.3;" x="57.842" xlink:href="#m707c966f97" y="67.152143"/>
      </g>
     </g>
    </g>
    <g id="ytick_11">
     <g id="line2d_51">
      <g>
       <use style="stroke:#000000;stroke-width:1.3;" x="57.842" xlink:href="#m707c966f97" y="90.420486"/>
      </g>
     </g>
    </g>
    <g id="ytick_12">
     <g id="line2d_52">
      <g>
       <use style="stroke:#000000;stroke-width:1.3;" x="57.842" xlink:href="#m707c966f97" y="102.054657"/>
      </g>
     </g>
    </g>
    <g id="ytick_13">
     <g id="line2d_53">
      <g>
       <use style="stroke:#000000;stroke-width:1.3;" x="57.842" xlink:href="#m707c966f97" y="113.688829"/>
      </g>
     </g>
    </g>
    <g id="ytick_14">
     <g id="line2d_54">
      <g>
       <use style="stroke:#000000;stroke-width:1.3;" x="57.842" xlink:href="#m707c966f97" y="136.957172"/>
      </g>
     </g>
    </g>
    <g id="ytick_15">
     <g id="line2d_55">
      <g>
       <use style="stroke:#000000;stroke-width:1.3;" x="57.842" xlink:href="#m707c966f97" y="148.591343"/>
      </g>
     </g>
    </g>
    <g id="ytick_16">
     <g id="line2d_56">
      <g>
       <use style="stroke:#000000;stroke-width:1.3;" x="57.842" xlink:href="#m707c966f97" y="160.225515"/>
      </g>
     </g>
    </g>
    <g id="ytick_17">
     <g id="line2d_57">
      <g>
       <use style="stroke:#000000;stroke-width:1.3;" x="57.842" xlink:href="#m707c966f97" y="183.493858"/>
      </g>
     </g>
    </g>
    <g id="ytick_18">
     <g id="line2d_58">
      <g>
       <use style="stroke:#000000;stroke-width:1.3;" x="57.842" xlink:href="#m707c966f97" y="195.128029"/>
      </g>
     </g>
    </g>
    <g id="ytick_19">
     <g id="line2d_59">
      <g>
       <use style="stroke:#000000;stroke-width:1.3;" x="57.842" xlink:href="#m707c966f97" y="206.762201"/>
      </g>
     </g>
    </g>
    <g id="ytick_20">
     <g id="line2d_60">
      <g>
       <use style="stroke:#000000;stroke-width:1.3;" x="57.842" xlink:href="#m707c966f97" y="230.030544"/>
      </g>
     </g>
    </g>
    <g id="ytick_21">
     <g id="line2d_61">
      <g>
       <use style="stroke:#000000;stroke-width:1.3;" x="57.842" xlink:href="#m707c966f97" y="241.664715"/>
      </g>
     </g>
    </g>
    <g id="ytick_22">
     <g id="line2d_62">
      <g>
       <use style="stroke:#000000;stroke-width:1.3;" x="57.842" xlink:href="#m707c966f97" y="253.298887"/>
      </g>
     </g>
    </g>
    <g id="ytick_23">
     <g id="line2d_63">
      <g>
       <use style="stroke:#000000;stroke-width:1.3;" x="57.842" xlink:href="#m707c966f97" y="276.56723"/>
      </g>
     </g>
    </g>
    <g id="ytick_24">
     <g id="line2d_64">
      <g>
       <use style="stroke:#000000;stroke-width:1.3;" x="57.842" xlink:href="#m707c966f97" y="288.201401"/>
      </g>
     </g>
    </g>
    <g id="ytick_25">
     <g id="line2d_65">
      <g>
       <use style="stroke:#000000;stroke-width:1.3;" x="57.842" xlink:href="#m707c966f97" y="299.835573"/>
      </g>
     </g>
    </g>
    <g id="text_16">
     <!-- $^{13}$C (ppm) -->
     <g transform="translate(24.1545 185.784)rotate(-90)scale(0.1 -0.1)">
      <defs>
       <path d="M 64.40625 67.28125 
L 64.40625 56.890625 
Q 59.421875 61.53125 53.78125 63.8125 
Q 48.140625 66.109375 41.796875 66.109375 
Q 29.296875 66.109375 22.65625 58.46875 
Q 16.015625 50.828125 16.015625 36.375 
Q 16.015625 21.96875 22.65625 14.328125 
Q 29.296875 6.6875 41.796875 6.6875 
Q 48.140625 6.6875 53.78125 8.984375 
Q 59.421875 11.28125 64.40625 15.921875 
L 64.40625 5.609375 
Q 59.234375 2.09375 53.4375 0.328125 
Q 47.65625 -1.421875 41.21875 -1.421875 
Q 24.65625 -1.421875 15.125 8.703125 
Q 5.609375 18.84375 5.609375 36.375 
Q 5.609375 53.953125 15.125 64.078125 
Q 24.65625 74.21875 41.21875 74.21875 
Q 47.75 74.21875 53.53125 72.484375 
Q 59.328125 70.75 64.40625 67.28125 
z
" id="DejaVuSans-67"/>
      </defs>
      <use transform="translate(0.957031 39.046875)scale(0.7)" xlink:href="#DejaVuSans-49"/>
      <use transform="translate(45.493164 39.046875)scale(0.7)" xlink:href="#DejaVuSans-51"/>
      <use transform="translate(92.763672 0.765625)" xlink:href="#DejaVuSans-67"/>
      <use transform="translate(162.587891 0.765625)" xlink:href="#DejaVuSans-32"/>
      <use transform="translate(194.375 0.765625)" xlink:href="#DejaVuSans-40"/>
      <use transform="translate(233.388672 0.765625)" xlink:href="#DejaVuSans-112"/>
      <use transform="translate(296.865234 0.765625)" xlink:href="#DejaVuSans-112"/>
      <use transform="translate(360.341797 0.765625)" xlink:href="#DejaVuSans-109"/>
      <use transform="translate(457.753906 0.765625)" xlink:href="#DejaVuSans-41"/>
     </g>
    </g>
   </g>
   <g id="LineCollection_1"/>
   <g id="LineCollection_2"/>
   <g id="LineCollection_3"/>
   <g id="LineCollection_4"/>
   <g id="LineCollection_5"/>
   <g id="LineCollection_6"/>
   <g id="LineCollection_7">
    <path clip-path="url(#p1619d195e5)" d="M 84.167387 297.806743 
L 84.110366 297.505079 
L 84.167387 297.467949 
L 84.31053 297.505079 
L 84.167387 297.806743 
" style="fill:none;stroke:#e8000b;stroke-width:0.7;"/>
    <path clip-path="url(#p1619d195e5)" d="M 69.937448 292.832472 
L 69.77355 292.607358 
L 69.783848 292.23061 
L 69.937448 292.003809 
L 70.293197 291.890025 
L 70.648945 292.158495 
L 70.680158 292.23061 
L 70.665751 292.607358 
L 70.648945 292.63898 
L 70.293197 292.90782 
L 69.937448 292.832472 
" style="fill:none;stroke:#e8000b;stroke-width:0.7;"/>
    <path clip-path="url(#p1619d195e5)" d="M 85.590381 291.543846 
L 85.550515 291.477114 
L 85.590381 291.357415 
L 85.909607 291.100366 
L 85.946129 291.091038 
L 85.9597 291.100366 
L 86.140145 291.477114 
L 85.946129 291.712828 
L 85.590381 291.543846 
" style="fill:none;stroke:#e8000b;stroke-width:0.7;"/>
    <path clip-path="url(#p1619d195e5)" d="M 86.301878 274.957549 
L 86.238108 274.900211 
L 86.098855 274.523463 
L 86.276367 274.146715 
L 86.301878 274.126763 
L 86.452549 274.146715 
L 86.657626 274.202291 
L 86.832879 274.523463 
L 86.673911 274.900211 
L 86.657626 274.912478 
L 86.301878 274.957549 
" style="fill:none;stroke:#e8000b;stroke-width:0.7;"/>
   </g>
   <g id="LineCollection_8">
    <path clip-path="url(#p1619d195e5)" d="M 165.278039 300.215355 
L 165.213434 300.142314 
L 165.207882 299.765566 
L 165.278039 299.682347 
L 165.633788 299.54926 
L 165.989536 299.558332 
L 166.345284 299.731585 
L 166.376682 299.765566 
L 166.434712 300.142314 
L 166.345284 300.262451 
L 165.989536 300.429209 
L 165.633788 300.379141 
L 165.278039 300.215355 
" style="fill:none;stroke:#e8000b;stroke-width:0.7;"/>
    <path clip-path="url(#p1619d195e5)" d="M 83.811639 298.100974 
L 83.637608 297.881827 
L 83.608473 297.505079 
L 83.811639 297.181911 
L 83.90449 297.128331 
L 84.167387 297.035128 
L 84.523136 297.071916 
L 84.628161 297.128331 
L 84.878884 297.396544 
L 84.924416 297.505079 
L 84.909087 297.881827 
L 84.878884 297.939571 
L 84.523136 298.202467 
L 84.167387 298.246112 
L 83.811639 298.100974 
" style="fill:none;stroke:#e8000b;stroke-width:0.7;"/>
    <path clip-path="url(#p1619d195e5)" d="M 69.937448 293.13016 
L 69.715913 292.984105 
L 69.5817 292.770735 
L 69.52563 292.607358 
L 69.537578 292.23061 
L 69.5817 292.10178 
L 69.72609 291.853862 
L 69.937448 291.669709 
L 70.293197 291.608989 
L 70.648945 291.732733 
L 70.746454 291.853862 
L 70.882012 292.23061 
L 70.865289 292.607358 
L 70.671474 292.984105 
L 70.648945 293.006645 
L 70.293197 293.156447 
L 69.937448 293.13016 
" style="fill:none;stroke:#e8000b;stroke-width:0.7;"/>
    <path clip-path="url(#p1619d195e5)" d="M 85.590381 292.012788 
L 85.346137 291.853862 
L 85.234632 291.63109 
L 85.173301 291.477114 
L 85.234632 291.166594 
L 85.2497 291.100366 
L 85.590381 290.795184 
L 85.946129 290.732799 
L 86.301878 290.948071 
L 86.416375 291.100366 
L 86.497259 291.477114 
L 86.373416 291.853862 
L 86.301878 291.925945 
L 85.946129 292.075529 
L 85.590381 292.012788 
" style="fill:none;stroke:#e8000b;stroke-width:0.7;"/>
    <path clip-path="url(#p1619d195e5)" d="M 85.946129 274.927805 
L 85.930959 274.900211 
L 85.852803 274.523463 
L 85.908014 274.146715 
L 85.946129 274.066543 
L 86.301878 273.817421 
L 86.657626 273.857517 
L 87.013375 274.118285 
L 87.032402 274.146715 
L 87.134177 274.523463 
L 87.055078 274.900211 
L 87.013375 274.960004 
L 86.657626 275.210018 
L 86.301878 275.239222 
L 85.946129 274.927805 
" style="fill:none;stroke:#e8000b;stroke-width:0.7;"/>
    <path clip-path="url(#p1619d195e5)" d="M 172.748757 273.030473 
L 172.730056 273.016472 
L 172.663743 272.639724 
L 172.748757 272.554681 
L 173.104505 272.486692 
L 173.460254 272.543298 
L 173.578171 272.639724 
L 173.500841 273.016472 
L 173.460254 273.042181 
L 173.104505 273.089793 
L 172.748757 273.030473 
" style="fill:none;stroke:#e8000b;stroke-width:0.7;"/>
    <path clip-path="url(#p1619d195e5)" d="M 331.056828 18.799326 
L 330.965251 18.711704 
L 330.978066 18.334956 
L 331.056828 18.25463 
L 331.33978 18.334956 
L 331.302876 18.711704 
L 331.056828 18.799326 
" style="fill:none;stroke:#e8000b;stroke-width:0.7;"/>
    <path clip-path="url(#p1619d195e5)" d="M 334.258564 18.547042 
L 334.173604 18.334956 
L 334.253348 17.958208 
L 334.258564 17.951447 
L 334.614313 17.80854 
L 334.910029 17.958208 
L 334.945429 18.334956 
L 334.614313 18.680023 
L 334.258564 18.547042 
" style="fill:none;stroke:#e8000b;stroke-width:0.7;"/>
   </g>
   <g id="LineCollection_9">
    <path clip-path="url(#p1619d195e5)" d="M 165.278039 300.603169 
L 165.139788 300.519061 
L 164.922291 300.267368 
L 164.844693 300.142314 
L 164.829272 299.765566 
L 164.922291 299.588004 
L 165.081008 299.388818 
L 165.278039 299.26697 
L 165.633788 299.216063 
L 165.989536 299.241495 
L 166.345284 299.358095 
L 166.391071 299.388818 
L 166.701033 299.727048 
L 166.730661 299.765566 
L 166.794219 300.142314 
L 166.701033 300.326493 
L 166.573721 300.519061 
L 166.345284 300.658988 
L 165.989536 300.723935 
L 165.633788 300.692576 
L 165.278039 300.603169 
" style="fill:none;stroke:#e8000b;stroke-width:0.7;"/>
    <path clip-path="url(#p1619d195e5)" d="M 83.811639 298.361197 
L 83.657155 298.258575 
L 83.45589 297.980993 
L 83.400735 297.881827 
L 83.36996 297.505079 
L 83.45589 297.280882 
L 83.531972 297.128331 
L 83.811639 296.896401 
L 84.167387 296.808607 
L 84.523136 296.829245 
L 84.878884 296.97921 
L 85.003254 297.128331 
L 85.127162 297.505079 
L 85.117131 297.881827 
L 84.941716 298.258575 
L 84.878884 298.316476 
L 84.523136 298.426227 
L 84.167387 298.439929 
L 83.811639 298.361197 
" style="fill:none;stroke:#e8000b;stroke-width:0.7;"/>
    <path clip-path="url(#p1619d195e5)" d="M 69.5817 293.112517 
L 69.486064 292.984105 
L 69.386495 292.607358 
L 69.400771 292.23061 
L 69.511645 291.853862 
L 69.5817 291.727205 
L 69.915238 291.477114 
L 69.937448 291.461952 
L 70.293197 291.403949 
L 70.555721 291.477114 
L 70.648945 291.499871 
L 70.933909 291.853862 
L 71.004694 292.159186 
L 71.022542 292.23061 
L 71.004694 292.474795 
L 70.998314 292.607358 
L 70.857406 292.984105 
L 70.648945 293.192661 
L 70.293197 293.307974 
L 69.937448 293.298284 
L 69.5817 293.112517 
" style="fill:none;stroke:#e8000b;stroke-width:0.7;"/>
    <path clip-path="url(#p1619d195e5)" d="M 85.946129 292.272657 
L 85.653736 292.23061 
L 85.590381 292.22152 
L 85.234632 292.058232 
L 85.039919 291.853862 
L 84.918021 291.477114 
L 84.940111 291.100366 
L 85.202659 290.723619 
L 85.234632 290.700333 
L 85.590381 290.531145 
L 85.946129 290.495168 
L 86.301878 290.651473 
L 86.388248 290.723619 
L 86.638669 291.100366 
L 86.657626 291.222355 
L 86.704612 291.477114 
L 86.657626 291.682757 
L 86.620945 291.853862 
L 86.301878 292.17536 
L 86.115356 292.23061 
L 85.946129 292.272657 
" style="fill:none;stroke:#e8000b;stroke-width:0.7;"/>
    <path clip-path="url(#p1619d195e5)" d="M 86.301878 275.42036 
L 86.040868 275.276959 
L 85.946129 275.198461 
L 85.782162 274.900211 
L 85.724302 274.523463 
L 85.754067 274.146715 
L 85.924219 273.769967 
L 85.946129 273.740768 
L 86.301878 273.584685 
L 86.657626 273.62701 
L 86.931119 273.769967 
L 87.013375 273.822141 
L 87.230599 274.146715 
L 87.302843 274.523463 
L 87.252935 274.900211 
L 87.013375 275.243686 
L 86.959869 275.276959 
L 86.657626 275.404111 
L 86.301878 275.42036 
" style="fill:none;stroke:#e8000b;stroke-width:0.7;"/>
    <path clip-path="url(#p1619d195e5)" d="M 172.748757 273.401054 
L 172.730111 273.39322 
L 172.393009 273.169581 
L 172.274394 273.016472 
L 172.237869 272.639724 
L 172.393009 272.365967 
L 172.49775 272.262976 
L 172.748757 272.131196 
L 173.104505 272.099915 
L 173.460254 272.125844 
L 173.793185 272.262976 
L 173.816002 272.280206 
L 174.040169 272.639724 
L 173.994246 273.016472 
L 173.816002 273.231927 
L 173.516496 273.39322 
L 173.460254 273.413123 
L 173.104505 273.439992 
L 172.748757 273.401054 
" style="fill:none;stroke:#e8000b;stroke-width:0.7;"/>
    <path clip-path="url(#p1619d195e5)" d="M 331.056828 19.201827 
L 330.811659 19.088452 
L 330.701079 18.987991 
L 330.566025 18.711704 
L 330.601426 18.334956 
L 330.701079 18.166399 
L 330.906719 17.958208 
L 331.056828 17.864131 
L 331.412576 17.891755 
L 331.505861 17.958208 
L 331.749197 18.334956 
L 331.735549 18.711704 
L 331.459283 19.088452 
L 331.412576 19.121883 
L 331.056828 19.201827 
" style="fill:none;stroke:#e8000b;stroke-width:0.7;"/>
    <path clip-path="url(#p1619d195e5)" d="M 334.258564 18.949807 
L 334.036558 18.711704 
L 333.946639 18.334956 
L 334.018587 17.958208 
L 334.258564 17.64714 
L 334.4285 17.58146 
L 334.614313 17.520913 
L 334.970061 17.57157 
L 334.995924 17.58146 
L 335.32581 17.925642 
L 335.343248 17.958208 
L 335.32581 18.04324 
L 335.284782 18.334956 
L 335.028327 18.711704 
L 334.970061 18.762175 
L 334.614313 18.970885 
L 334.258564 18.949807 
" style="fill:none;stroke:#e8000b;stroke-width:0.7;"/>
   </g>
   <g id="LineCollection_10">
    <path clip-path="url(#p1619d195e5)" d="M 165.989536 300.901626 
L 165.927745 300.895809 
L 165.633788 300.873481 
L 165.278039 300.805309 
L 164.922291 300.615856 
L 164.810369 300.519061 
L 164.606101 300.142314 
L 164.584943 299.765566 
L 164.725136 299.388818 
L 164.922291 299.190067 
L 165.278039 299.03714 
L 165.633788 299.017409 
L 165.989536 299.050363 
L 166.345284 299.143198 
L 166.701033 299.378753 
L 166.713837 299.388818 
L 166.999464 299.765566 
L 167.048807 300.142314 
L 166.913046 300.519061 
L 166.701033 300.70584 
L 166.345284 300.862761 
L 166.038598 300.895809 
L 165.989536 300.901626 
" style="fill:none;stroke:#e8000b;stroke-width:0.7;"/>
    <path clip-path="url(#p1619d195e5)" d="M 83.45589 298.28475 
L 83.428474 298.258575 
L 83.228288 297.881827 
L 83.202314 297.505079 
L 83.305141 297.128331 
L 83.45589 296.931579 
L 83.722395 296.751583 
L 83.811639 296.699122 
L 84.167387 296.617785 
L 84.523136 296.637152 
L 84.86638 296.751583 
L 84.878884 296.755815 
L 85.189568 297.128331 
L 85.234632 297.3323 
L 85.278443 297.505079 
L 85.268521 297.881827 
L 85.234632 297.988972 
L 85.15328 298.258575 
L 84.878884 298.511437 
L 84.523136 298.566845 
L 84.167387 298.567237 
L 83.811639 298.510532 
L 83.45589 298.28475 
" style="fill:none;stroke:#e8000b;stroke-width:0.7;"/>
    <path clip-path="url(#p1619d195e5)" d="M 69.937448 293.42627 
L 69.744828 293.360853 
L 69.5817 293.293242 
L 69.351468 292.984105 
L 69.293739 292.607358 
L 69.309566 292.23061 
L 69.38854 291.853862 
L 69.5817 291.504633 
L 69.6184 291.477114 
L 69.937448 291.259311 
L 70.293197 291.22671 
L 70.648945 291.287792 
L 70.859042 291.477114 
L 71.004694 291.694528 
L 71.082635 291.853862 
L 71.157249 292.23061 
L 71.133913 292.607358 
L 71.004694 292.920574 
L 70.98136 292.984105 
L 70.648945 293.316671 
L 70.496755 293.360853 
L 70.293197 293.425865 
L 69.937448 293.42627 
" style="fill:none;stroke:#e8000b;stroke-width:0.7;"/>
    <path clip-path="url(#p1619d195e5)" d="M 85.234632 292.267485 
L 85.171445 292.23061 
L 84.878884 291.925765 
L 84.833928 291.853862 
L 84.726575 291.477114 
L 84.71939 291.100366 
L 84.837782 290.723619 
L 84.878884 290.667082 
L 85.234632 290.434057 
L 85.590381 290.354962 
L 85.739385 290.346871 
L 85.946129 290.329708 
L 85.984596 290.346871 
L 86.301878 290.451809 
L 86.627277 290.723619 
L 86.657626 290.7715 
L 86.830984 291.100366 
L 86.880488 291.477114 
L 86.827951 291.853862 
L 86.657626 292.117685 
L 86.539274 292.23061 
L 86.301878 292.348436 
L 85.946129 292.412132 
L 85.590381 292.372005 
L 85.234632 292.267485 
" style="fill:none;stroke:#e8000b;stroke-width:0.7;"/>
    <path clip-path="url(#p1619d195e5)" d="M 85.946129 275.381274 
L 85.851341 275.276959 
L 85.682964 274.900211 
L 85.638635 274.523463 
L 85.651436 274.146715 
L 85.750548 273.769967 
L 85.946129 273.509331 
L 86.301878 273.424245 
L 86.657626 273.464309 
L 87.013375 273.604489 
L 87.169016 273.769967 
L 87.362731 274.146715 
L 87.369123 274.186431 
L 87.443748 274.523463 
L 87.395173 274.900211 
L 87.369123 274.954728 
L 87.205192 275.276959 
L 87.013375 275.430332 
L 86.657626 275.532058 
L 86.301878 275.540005 
L 85.946129 275.381274 
" style="fill:none;stroke:#e8000b;stroke-width:0.7;"/>
    <path clip-path="url(#p1619d195e5)" d="M 172.393009 273.469566 
L 172.284315 273.39322 
L 172.03726 273.034235 
L 172.027296 273.016472 
L 171.993798 272.639724 
L 172.03726 272.537908 
L 172.16073 272.262976 
L 172.393009 272.048818 
L 172.748757 271.90934 
L 173.104505 271.888023 
L 173.460254 271.906023 
L 173.816002 272.00408 
L 174.14781 272.262976 
L 174.171751 272.310686 
L 174.324591 272.639724 
L 174.269647 273.016472 
L 174.171751 273.158308 
L 173.98969 273.39322 
L 173.816002 273.512029 
L 173.460254 273.614472 
L 173.104505 273.632366 
L 172.748757 273.601528 
L 172.393009 273.469566 
" style="fill:none;stroke:#e8000b;stroke-width:0.7;"/>
    <path clip-path="url(#p1619d195e5)" d="M 330.701079 19.319609 
L 330.463284 19.088452 
L 330.354684 18.711704 
L 330.402444 18.334956 
L 330.605276 17.958208 
L 330.701079 17.857132 
L 331.056828 17.655784 
L 331.412576 17.656911 
L 331.768325 17.883655 
L 331.840136 17.958208 
L 332.000212 18.334956 
L 331.981873 18.711704 
L 331.79029 19.088452 
L 331.768325 19.112389 
L 331.412576 19.358635 
L 331.056828 19.421899 
L 330.701079 19.319609 
" style="fill:none;stroke:#e8000b;stroke-width:0.7;"/>
    <path clip-path="url(#p1619d195e5)" d="M 334.258564 19.197267 
L 334.085454 19.088452 
L 333.902816 18.889581 
L 333.822884 18.711704 
L 333.781268 18.334956 
L 333.855038 17.958208 
L 333.902816 17.869623 
L 334.100596 17.58146 
L 334.258564 17.458773 
L 334.614313 17.349874 
L 334.970061 17.349265 
L 335.32581 17.429036 
L 335.562651 17.58146 
L 335.668034 17.958208 
L 335.567534 18.334956 
L 335.32581 18.662092 
L 335.293057 18.711704 
L 334.970061 18.99149 
L 334.779921 19.088452 
L 334.614313 19.176627 
L 334.258564 19.197267 
" style="fill:none;stroke:#e8000b;stroke-width:0.7;"/>
   </g>
   <g id="LineCollection_11">
    <path clip-path="url(#p1619d195e5)" d="M 237.494979 107.301962 
L 237.850728 107.404806 
L 238.206476 107.432253 
L 238.562225 107.408781 
L 238.917973 107.308112 
L 239.02071 107.247438 
L 239.273722 107.053248 
L 239.399003 106.87069 
L 239.502909 106.493942 
L 239.519705 106.117194 
L 239.485372 105.740447 
L 239.363151 105.363699 
L 239.273722 105.218748 
L 239.100901 104.986951 
L 238.917973 104.831678 
L 238.562225 104.692731 
L 238.206476 104.644417 
L 237.850728 104.63579 
L 237.494979 104.662635 
L 237.139231 104.782538 
L 236.923746 104.986951 
L 236.783482 105.260171 
L 236.722964 105.363699 
L 236.622436 105.740447 
L 236.619412 106.117194 
L 236.700286 106.493942 
L 236.783482 106.653652 
L 236.865308 106.87069 
L 237.139231 107.151242 
L 237.380269 107.247438 
L 237.494979 107.301962 
" style="fill:none;stroke:#023eff;stroke-width:0.7;"/>
    <path clip-path="url(#p1619d195e5)" d="M 320.384374 59.54927 
L 320.740122 59.583046 
L 321.095871 59.565068 
L 321.451619 59.508203 
L 321.707538 59.400467 
L 321.807368 59.356961 
L 322.150409 59.023719 
L 322.163116 58.997585 
L 322.327854 58.646971 
L 322.364652 58.270223 
L 322.282955 57.893476 
L 322.163116 57.723572 
L 321.944679 57.516728 
L 321.807368 57.434434 
L 321.451619 57.289356 
L 321.095871 57.216835 
L 320.740122 57.182649 
L 320.384374 57.189787 
L 320.028625 57.313981 
L 319.714316 57.516728 
L 319.672877 57.591008 
L 319.473441 57.893476 
L 319.445791 58.270223 
L 319.539379 58.646971 
L 319.672877 58.85757 
L 319.744806 59.023719 
L 320.028625 59.327126 
L 320.152528 59.400467 
L 320.384374 59.54927 
" style="fill:none;stroke:#023eff;stroke-width:0.7;"/>
    <path clip-path="url(#p1619d195e5)" d="M 312.557907 53.386384 
L 312.913656 53.556609 
L 313.269404 53.652252 
L 313.625153 53.697054 
L 313.980901 53.692265 
L 314.33665 53.611975 
L 314.678738 53.372502 
L 314.692398 53.357743 
L 314.914954 52.995754 
L 314.962038 52.619006 
L 314.927318 52.242258 
L 314.781121 51.865511 
L 314.692398 51.75687 
L 314.424494 51.488763 
L 314.33665 51.432198 
L 313.980901 51.256741 
L 313.625153 51.16565 
L 313.269404 51.121282 
L 312.913656 51.117536 
L 312.557907 51.171405 
L 312.202159 51.353802 
L 312.04853 51.488763 
L 311.869914 51.865511 
L 311.849503 52.242258 
L 311.904606 52.619006 
L 312.079988 52.995754 
L 312.202159 53.133108 
L 312.536034 53.372502 
L 312.557907 53.386384 
" style="fill:none;stroke:#023eff;stroke-width:0.7;"/>
    <path clip-path="url(#p1619d195e5)" d="M 317.182637 52.741519 
L 317.538386 52.952529 
L 317.894134 52.988291 
L 318.249883 52.972957 
L 318.605631 52.928619 
L 318.96138 52.851181 
L 319.317128 52.728172 
L 319.518319 52.619006 
L 319.672877 52.363425 
L 319.819923 52.242258 
L 319.898638 51.865511 
L 319.786033 51.488763 
L 319.672877 51.331346 
L 319.591829 51.112015 
L 319.317128 50.820394 
L 319.146242 50.735267 
L 318.96138 50.663661 
L 318.605631 50.583976 
L 318.249883 50.533002 
L 317.894134 50.540321 
L 317.538386 50.620207 
L 317.291574 50.735267 
L 317.182637 50.790629 
L 316.864316 51.112015 
L 316.826889 51.214886 
L 316.710425 51.488763 
L 316.690308 51.865511 
L 316.807698 52.242258 
L 316.826889 52.27116 
L 317.059088 52.619006 
L 317.182637 52.741519 
" style="fill:none;stroke:#023eff;stroke-width:0.7;"/>
    <path clip-path="url(#p1619d195e5)" d="M 276.271563 48.114849 
L 276.627311 48.155575 
L 276.887801 48.098033 
L 276.98306 48.088591 
L 277.338808 48.000354 
L 277.694557 47.755514 
L 277.732099 47.721285 
L 278.016727 47.344537 
L 278.050305 47.228361 
L 278.159779 46.967789 
L 278.179119 46.591041 
L 278.050305 46.225055 
L 278.047222 46.214294 
L 277.694557 45.856185 
L 277.659106 45.837546 
L 277.338808 45.695365 
L 276.98306 45.632496 
L 276.627311 45.620934 
L 276.271563 45.686061 
L 275.961009 45.837546 
L 275.915814 45.858826 
L 275.560066 46.150929 
L 275.504579 46.214294 
L 275.32407 46.591041 
L 275.276025 46.967789 
L 275.310219 47.344537 
L 275.524635 47.721285 
L 275.560066 47.756206 
L 275.915814 48.015378 
L 276.231001 48.098033 
L 276.271563 48.114849 
" style="fill:none;stroke:#023eff;stroke-width:0.7;"/>
    <path clip-path="url(#p1619d195e5)" d="M 320.028625 39.155354 
L 320.384374 39.224804 
L 320.740122 39.092808 
L 320.784248 39.056085 
L 321.066029 38.679338 
L 321.095871 38.517468 
L 321.132819 38.30259 
L 321.110725 37.925842 
L 321.095871 37.871763 
L 321.020873 37.549094 
L 320.753619 37.172346 
L 320.740122 37.159719 
L 320.384374 36.95099 
L 320.028625 36.889793 
L 319.672877 36.874003 
L 319.317128 36.885448 
L 318.96138 36.942814 
L 318.605631 37.052755 
L 318.383569 37.172346 
L 318.249883 37.322468 
L 318.094719 37.549094 
L 318.076937 37.925842 
L 318.249883 38.281079 
L 318.258474 38.30259 
L 318.605631 38.630327 
L 318.6796 38.679338 
L 318.96138 38.818297 
L 319.317128 38.918253 
L 319.672877 39.008951 
L 319.833117 39.056085 
L 320.028625 39.155354 
" style="fill:none;stroke:#023eff;stroke-width:0.7;"/>
    <path clip-path="url(#p1619d195e5)" d="M 290.145753 34.270638 
L 290.501502 34.429729 
L 290.85725 34.505951 
L 291.212999 34.516635 
L 291.568747 34.431899 
L 291.924496 34.227339 
L 291.99734 34.158364 
L 292.175541 33.781616 
L 292.172577 33.404868 
L 292.035763 33.02812 
L 291.924496 32.895614 
L 291.580578 32.651373 
L 291.568747 32.644859 
L 291.212999 32.520312 
L 290.85725 32.488094 
L 290.501502 32.528232 
L 290.199733 32.651373 
L 290.145753 32.678267 
L 289.790005 32.997592 
L 289.762793 33.02812 
L 289.63278 33.404868 
L 289.707905 33.781616 
L 289.790005 33.895071 
L 289.995079 34.158364 
L 290.145753 34.270638 
" style="fill:none;stroke:#023eff;stroke-width:0.7;"/>
    <path clip-path="url(#p1619d195e5)" d="M 283.742281 29.360949 
L 284.098029 29.477022 
L 284.453778 29.496985 
L 284.809526 29.449637 
L 285.165275 29.316219 
L 285.253182 29.260642 
L 285.521023 29.031892 
L 285.632532 28.883895 
L 285.766508 28.507147 
L 285.805584 28.130399 
L 285.791554 27.753651 
L 285.677576 27.376903 
L 285.521023 27.179632 
L 285.284557 27.000156 
L 285.165275 26.915973 
L 284.809526 26.777579 
L 284.453778 26.770447 
L 284.098029 26.884393 
L 283.929381 27.000156 
L 283.742281 27.0934 
L 283.469571 27.376903 
L 283.386532 27.546362 
L 283.278175 27.753651 
L 283.19955 28.130399 
L 283.198172 28.507147 
L 283.291637 28.883895 
L 283.386532 29.033641 
L 283.591231 29.260642 
L 283.742281 29.360949 
" style="fill:none;stroke:#023eff;stroke-width:0.7;"/>
   </g>
   <g id="LineCollection_12">
    <path clip-path="url(#p1619d195e5)" d="M 237.850728 107.313761 
L 238.206476 107.348708 
L 238.562225 107.305245 
L 238.72889 107.247438 
L 238.917973 107.196391 
L 239.260885 106.87069 
L 239.273722 106.839177 
L 239.416663 106.493942 
L 239.44746 106.117194 
L 239.40286 105.740447 
L 239.273722 105.426035 
L 239.253643 105.363699 
L 238.944211 104.986951 
L 238.917973 104.96468 
L 238.562225 104.765848 
L 238.206476 104.699116 
L 237.850728 104.692298 
L 237.494979 104.74158 
L 237.139231 104.930767 
L 237.080003 104.986951 
L 236.830031 105.363699 
L 236.783482 105.610238 
L 236.741862 105.740447 
L 236.732925 106.117194 
L 236.783482 106.30468 
L 236.809423 106.493942 
L 236.974708 106.87069 
L 237.139231 107.039194 
L 237.494979 107.212895 
L 237.654386 107.247438 
L 237.850728 107.313761 
" style="fill:none;stroke:#023eff;stroke-width:0.7;"/>
    <path clip-path="url(#p1619d195e5)" d="M 320.028625 59.102827 
L 320.384374 59.349599 
L 320.740122 59.393672 
L 321.095871 59.386296 
L 321.451619 59.325874 
L 321.807368 59.130137 
L 321.916915 59.023719 
L 322.119291 58.646971 
L 322.161655 58.270223 
L 322.057043 57.893476 
L 321.807368 57.645025 
L 321.594286 57.516728 
L 321.451619 57.448994 
L 321.095871 57.330739 
L 320.740122 57.275631 
L 320.384374 57.29328 
L 320.028625 57.471914 
L 319.959153 57.516728 
L 319.712141 57.893476 
L 319.685015 58.270223 
L 319.743906 58.646971 
L 319.954624 59.023719 
L 320.028625 59.102827 
" style="fill:none;stroke:#023eff;stroke-width:0.7;"/>
    <path clip-path="url(#p1619d195e5)" d="M 312.913656 53.409991 
L 313.269404 53.53154 
L 313.625153 53.576478 
L 313.980901 53.548811 
L 314.33665 53.399709 
L 314.375515 53.372502 
L 314.692398 53.030125 
L 314.71353 52.995754 
L 314.813291 52.619006 
L 314.776445 52.242258 
L 314.692398 52.059457 
L 314.618461 51.865511 
L 314.33665 51.575035 
L 314.205287 51.488763 
L 313.980901 51.365017 
L 313.625153 51.251794 
L 313.269404 51.206124 
L 312.913656 51.218738 
L 312.557907 51.316947 
L 312.303687 51.488763 
L 312.202159 51.604588 
L 312.031035 51.865511 
L 311.978725 52.242258 
L 312.047795 52.619006 
L 312.202159 52.883959 
L 312.26957 52.995754 
L 312.557907 53.249973 
L 312.837437 53.372502 
L 312.913656 53.409991 
" style="fill:none;stroke:#023eff;stroke-width:0.7;"/>
    <path clip-path="url(#p1619d195e5)" d="M 317.538386 52.777705 
L 317.894134 52.867098 
L 318.249883 52.863552 
L 318.605631 52.809557 
L 318.96138 52.703058 
L 319.14745 52.619006 
L 319.317128 52.488091 
L 319.509603 52.242258 
L 319.572596 51.865511 
L 319.524036 51.488763 
L 319.317128 51.121926 
L 319.311129 51.112015 
L 318.96138 50.842663 
L 318.605631 50.74367 
L 318.54512 50.735267 
L 318.249883 50.678516 
L 317.894134 50.695215 
L 317.753191 50.735267 
L 317.538386 50.786949 
L 317.182637 50.99764 
L 317.069353 51.112015 
L 316.900744 51.488763 
L 316.885106 51.865511 
L 316.999151 52.242258 
L 317.182637 52.476399 
L 317.325497 52.619006 
L 317.538386 52.777705 
" style="fill:none;stroke:#023eff;stroke-width:0.7;"/>
    <path clip-path="url(#p1619d195e5)" d="M 275.915814 47.860983 
L 276.271563 48.000989 
L 276.627311 48.031921 
L 276.98306 47.992488 
L 277.338808 47.865839 
L 277.535937 47.721285 
L 277.694557 47.563412 
L 277.870208 47.344537 
L 277.996413 46.967789 
L 278.00484 46.591041 
L 277.874861 46.214294 
L 277.694557 46.031207 
L 277.338808 45.841255 
L 277.323879 45.837546 
L 276.98306 45.742581 
L 276.627311 45.721719 
L 276.271563 45.802578 
L 276.199877 45.837546 
L 275.915814 45.971299 
L 275.64915 46.214294 
L 275.560066 46.392052 
L 275.454602 46.591041 
L 275.398791 46.967789 
L 275.47158 47.344537 
L 275.560066 47.488564 
L 275.736078 47.721285 
L 275.915814 47.860983 
" style="fill:none;stroke:#023eff;stroke-width:0.7;"/>
    <path clip-path="url(#p1619d195e5)" d="M 319.317128 38.763127 
L 319.672877 38.860228 
L 320.028625 38.967671 
L 320.384374 39.003844 
L 320.740122 38.875469 
L 320.899477 38.679338 
L 321.011449 38.30259 
L 321.003554 37.925842 
L 320.891172 37.549094 
L 320.740122 37.340963 
L 320.538319 37.172346 
L 320.384374 37.079705 
L 320.028625 37.002457 
L 319.672877 36.998688 
L 319.317128 37.038156 
L 318.96138 37.134064 
L 318.863859 37.172346 
L 318.605631 37.321689 
L 318.397569 37.549094 
L 318.35269 37.925842 
L 318.526249 38.30259 
L 318.605631 38.377531 
L 318.96138 38.634036 
L 319.077414 38.679338 
L 319.317128 38.763127 
" style="fill:none;stroke:#023eff;stroke-width:0.7;"/>
    <path clip-path="url(#p1619d195e5)" d="M 290.501502 34.245837 
L 290.85725 34.340031 
L 291.212999 34.3367 
L 291.568747 34.210642 
L 291.650642 34.158364 
L 291.924496 33.85929 
L 291.967239 33.781616 
L 291.990215 33.404868 
L 291.924496 33.249569 
L 291.811909 33.02812 
L 291.568747 32.826999 
L 291.212999 32.683376 
L 290.85928 32.651373 
L 290.85725 32.651171 
L 290.856127 32.651373 
L 290.501502 32.718876 
L 290.145753 32.924628 
L 290.034559 33.02812 
L 289.880775 33.404868 
L 289.953931 33.781616 
L 290.145753 34.011643 
L 290.336345 34.158364 
L 290.501502 34.245837 
" style="fill:none;stroke:#023eff;stroke-width:0.7;"/>
    <path clip-path="url(#p1619d195e5)" d="M 284.098029 29.384758 
L 284.453778 29.422558 
L 284.809526 29.364263 
L 285.049513 29.260642 
L 285.165275 29.21302 
L 285.505642 28.883895 
L 285.521023 28.848789 
L 285.678188 28.507147 
L 285.724002 28.130399 
L 285.687531 27.753651 
L 285.521023 27.413319 
L 285.501471 27.376903 
L 285.165275 27.065649 
L 284.975347 27.000156 
L 284.809526 26.922014 
L 284.453778 26.898352 
L 284.195248 27.000156 
L 284.098029 27.021228 
L 283.742281 27.21335 
L 283.584955 27.376903 
L 283.394415 27.753651 
L 283.386532 27.796835 
L 283.29672 28.130399 
L 283.305902 28.507147 
L 283.386532 28.742334 
L 283.427839 28.883895 
L 283.742281 29.222587 
L 283.821491 29.260642 
L 284.098029 29.384758 
" style="fill:none;stroke:#023eff;stroke-width:0.7;"/>
   </g>
   <g id="LineCollection_13">
    <path clip-path="url(#p1619d195e5)" d="M 237.139231 106.871123 
L 237.494979 107.125286 
L 237.850728 107.216326 
L 238.206476 107.236605 
L 238.562225 107.202223 
L 238.917973 107.075505 
L 239.133611 106.87069 
L 239.273722 106.52672 
L 239.287293 106.493942 
L 239.339094 106.117194 
L 239.279092 105.740447 
L 239.273722 105.727371 
L 239.156582 105.363699 
L 238.917973 105.086958 
L 238.752017 104.986951 
L 238.562225 104.875524 
L 238.206476 104.781164 
L 237.850728 104.777062 
L 237.494979 104.859997 
L 237.285352 104.986951 
L 237.139231 105.092423 
L 236.935846 105.363699 
L 236.838369 105.740447 
L 236.830594 106.117194 
L 236.895966 106.493942 
L 237.138808 106.87069 
L 237.139231 106.871123 
" style="fill:none;stroke:#023eff;stroke-width:0.7;"/>
    <path clip-path="url(#p1619d195e5)" d="M 320.384374 59.153032 
L 320.740122 59.234947 
L 321.095871 59.216067 
L 321.451619 59.105747 
L 321.576698 59.023719 
L 321.807368 58.756217 
L 321.875726 58.646971 
L 321.928074 58.270223 
L 321.807368 57.991553 
L 321.757146 57.893476 
L 321.451619 57.664884 
L 321.134981 57.516728 
L 321.095871 57.501594 
L 320.740122 57.415103 
L 320.384374 57.44852 
L 320.259349 57.516728 
L 320.028625 57.723007 
L 319.901644 57.893476 
L 319.842827 58.270223 
L 319.93232 58.646971 
L 320.028625 58.797886 
L 320.219879 59.023719 
L 320.384374 59.153032 
" style="fill:none;stroke:#023eff;stroke-width:0.7;"/>
    <path clip-path="url(#p1619d195e5)" d="M 313.625153 53.395614 
L 313.772541 53.372502 
L 313.980901 53.346103 
L 314.33665 53.163549 
L 314.493615 52.995754 
L 314.625303 52.619006 
L 314.60459 52.242258 
L 314.430816 51.865511 
L 314.33665 51.76845 
L 313.980901 51.519226 
L 313.90189 51.488763 
L 313.625153 51.38101 
L 313.269404 51.333388 
L 312.913656 51.370541 
L 312.634306 51.488763 
L 312.557907 51.530136 
L 312.253614 51.865511 
L 312.202159 52.112869 
L 312.172558 52.242258 
L 312.202159 52.374819 
L 312.24366 52.619006 
L 312.491866 52.995754 
L 312.557907 53.053981 
L 312.913656 53.262491 
L 313.269404 53.358682 
L 313.442918 53.372502 
L 313.625153 53.395614 
" style="fill:none;stroke:#023eff;stroke-width:0.7;"/>
    <path clip-path="url(#p1619d195e5)" d="M 317.894134 52.685309 
L 318.249883 52.699445 
L 318.605631 52.630965 
L 318.640223 52.619006 
L 318.96138 52.492868 
L 319.238194 52.242258 
L 319.317128 51.907613 
L 319.327968 51.865511 
L 319.317128 51.811297 
L 319.268888 51.488763 
L 319.009565 51.112015 
L 318.96138 51.074906 
L 318.605631 50.901357 
L 318.249883 50.839589 
L 317.894134 50.861649 
L 317.538386 50.983663 
L 317.357627 51.112015 
L 317.182637 51.365288 
L 317.116268 51.488763 
L 317.095415 51.865511 
L 317.182637 52.07441 
L 317.250718 52.242258 
L 317.538386 52.5365 
L 317.723308 52.619006 
L 317.894134 52.685309 
" style="fill:none;stroke:#023eff;stroke-width:0.7;"/>
    <path clip-path="url(#p1619d195e5)" d="M 276.271563 47.844653 
L 276.627311 47.896323 
L 276.98306 47.848334 
L 277.252209 47.721285 
L 277.338808 47.678002 
L 277.664615 47.344537 
L 277.694557 47.270046 
L 277.830071 46.967789 
L 277.830688 46.591041 
L 277.694557 46.319439 
L 277.635919 46.214294 
L 277.338808 45.98851 
L 276.98306 45.883351 
L 276.627311 45.860867 
L 276.271563 45.928286 
L 275.915814 46.140008 
L 275.834293 46.214294 
L 275.617616 46.591041 
L 275.574862 46.967789 
L 275.659803 47.344537 
L 275.915814 47.647472 
L 276.034843 47.721285 
L 276.271563 47.844653 
" style="fill:none;stroke:#023eff;stroke-width:0.7;"/>
    <path clip-path="url(#p1619d195e5)" d="M 320.028625 38.751436 
L 320.384374 38.775008 
L 320.574999 38.679338 
L 320.740122 38.542237 
L 320.845297 38.30259 
L 320.850221 37.925842 
L 320.740122 37.638557 
L 320.695614 37.549094 
L 320.384374 37.266393 
L 320.032205 37.172346 
L 320.028625 37.171453 
L 320.004121 37.172346 
L 319.672877 37.186156 
L 319.317128 37.266011 
L 318.96138 37.417095 
L 318.782471 37.549094 
L 318.673374 37.925842 
L 318.870508 38.30259 
L 318.96138 38.374133 
L 319.317128 38.540461 
L 319.672877 38.641083 
L 319.801638 38.679338 
L 320.028625 38.751436 
" style="fill:none;stroke:#023eff;stroke-width:0.7;"/>
    <path clip-path="url(#p1619d195e5)" d="M 290.501502 33.958677 
L 290.85725 34.089057 
L 291.212999 34.063658 
L 291.568747 33.861722 
L 291.642951 33.781616 
L 291.712637 33.404868 
L 291.568747 33.154377 
L 291.453872 33.02812 
L 291.212999 32.90646 
L 290.85725 32.86706 
L 290.501502 32.978698 
L 290.427153 33.02812 
L 290.192652 33.404868 
L 290.292725 33.781616 
L 290.501502 33.958677 
" style="fill:none;stroke:#023eff;stroke-width:0.7;"/>
    <path clip-path="url(#p1619d195e5)" d="M 284.453778 29.310917 
L 284.703638 29.260642 
L 284.809526 29.245724 
L 285.165275 29.09101 
L 285.379465 28.883895 
L 285.521023 28.560808 
L 285.545709 28.507147 
L 285.60163 28.130399 
L 285.531496 27.753651 
L 285.521023 27.732245 
L 285.330232 27.376903 
L 285.165275 27.224184 
L 284.809526 27.064047 
L 284.453778 27.040601 
L 284.098029 27.126833 
L 283.755446 27.376903 
L 283.742281 27.390031 
L 283.493223 27.753651 
L 283.416956 28.130399 
L 283.430339 28.507147 
L 283.565379 28.883895 
L 283.742281 29.07444 
L 284.098029 29.251929 
L 284.164348 29.260642 
L 284.453778 29.310917 
" style="fill:none;stroke:#023eff;stroke-width:0.7;"/>
   </g>
   <g id="LineCollection_14">
    <path clip-path="url(#p1619d195e5)" d="M 237.494979 106.993872 
L 237.850728 107.125595 
L 238.206476 107.151927 
L 238.562225 107.094189 
L 238.917973 106.894176 
L 238.9427 106.87069 
L 239.175893 106.493942 
L 239.223296 106.117194 
L 239.182941 105.740447 
L 239.010989 105.363699 
L 238.917973 105.255817 
L 238.562225 105.018071 
L 238.446824 104.986951 
L 238.206476 104.904237 
L 237.850728 104.904207 
L 237.603396 104.986951 
L 237.494979 105.018672 
L 237.139231 105.304126 
L 237.094567 105.363699 
L 236.945616 105.740447 
L 236.931106 106.117194 
L 237.02578 106.493942 
L 237.139231 106.669806 
L 237.322704 106.87069 
L 237.494979 106.993872 
" style="fill:none;stroke:#023eff;stroke-width:0.7;"/>
    <path clip-path="url(#p1619d195e5)" d="M 320.384374 58.872361 
L 320.740122 58.998073 
L 321.095871 58.957254 
L 321.451619 58.737074 
L 321.531727 58.646971 
L 321.597557 58.270223 
L 321.451619 58.031082 
L 321.355325 57.893476 
L 321.095871 57.73186 
L 320.740122 57.619368 
L 320.384374 57.684916 
L 320.166259 57.893476 
L 320.073366 58.270223 
L 320.185469 58.646971 
L 320.384374 58.872361 
" style="fill:none;stroke:#023eff;stroke-width:0.7;"/>
    <path clip-path="url(#p1619d195e5)" d="M 312.913656 53.063566 
L 313.269404 53.188301 
L 313.625153 53.211018 
L 313.980901 53.126906 
L 314.172882 52.995754 
L 314.33665 52.762529 
L 314.405642 52.619006 
L 314.395064 52.242258 
L 314.33665 52.131021 
L 314.175579 51.865511 
L 313.980901 51.711148 
L 313.625153 51.55954 
L 313.269404 51.518611 
L 312.913656 51.582309 
L 312.557907 51.821513 
L 312.517987 51.865511 
L 312.387438 52.242258 
L 312.464955 52.619006 
L 312.557907 52.748508 
L 312.807541 52.995754 
L 312.913656 53.063566 
" style="fill:none;stroke:#023eff;stroke-width:0.7;"/>
    <path clip-path="url(#p1619d195e5)" d="M 317.894134 52.448166 
L 318.249883 52.482108 
L 318.605631 52.405634 
L 318.892216 52.242258 
L 318.96138 52.136536 
L 319.074519 51.865511 
L 318.994411 51.488763 
L 318.96138 51.444042 
L 318.605631 51.140673 
L 318.507779 51.112015 
L 318.249883 51.051051 
L 317.894134 51.090709 
L 317.843848 51.112015 
L 317.538386 51.312362 
L 317.401426 51.488763 
L 317.363221 51.865511 
L 317.538386 52.211995 
L 317.560786 52.242258 
L 317.894134 52.448166 
" style="fill:none;stroke:#023eff;stroke-width:0.7;"/>
    <path clip-path="url(#p1619d195e5)" d="M 275.915814 47.368434 
L 276.271563 47.634245 
L 276.627311 47.699236 
L 276.98306 47.652225 
L 277.338808 47.449053 
L 277.440924 47.344537 
L 277.614767 46.967789 
L 277.604159 46.591041 
L 277.345259 46.214294 
L 277.338808 46.209391 
L 276.98306 46.045052 
L 276.627311 46.010465 
L 276.271563 46.098439 
L 276.096967 46.214294 
L 275.915814 46.418997 
L 275.804721 46.591041 
L 275.75353 46.967789 
L 275.895619 47.344537 
L 275.915814 47.368434 
" style="fill:none;stroke:#023eff;stroke-width:0.7;"/>
    <path clip-path="url(#p1619d195e5)" d="M 319.672877 38.337696 
L 320.028625 38.444585 
L 320.384374 38.42872 
L 320.521609 38.30259 
L 320.59234 37.925842 
L 320.397037 37.549094 
L 320.384374 37.537592 
L 320.028625 37.430108 
L 319.672877 37.475931 
L 319.457983 37.549094 
L 319.317128 37.691829 
L 319.162156 37.925842 
L 319.317128 38.114922 
L 319.565959 38.30259 
L 319.672877 38.337696 
" style="fill:none;stroke:#023eff;stroke-width:0.7;"/>
    <path clip-path="url(#p1619d195e5)" d="M 290.85725 33.539227 
L 291.112743 33.404868 
L 290.85725 33.336406 
L 290.769353 33.404868 
L 290.85725 33.539227 
" style="fill:none;stroke:#023eff;stroke-width:0.7;"/>
    <path clip-path="url(#p1619d195e5)" d="M 284.098029 29.125271 
L 284.453778 29.18874 
L 284.809526 29.128473 
L 285.165275 28.907996 
L 285.190199 28.883895 
L 285.412974 28.507147 
L 285.457221 28.130399 
L 285.383511 27.753651 
L 285.165275 27.448841 
L 285.07718 27.376903 
L 284.809526 27.21395 
L 284.453778 27.169851 
L 284.098029 27.285241 
L 283.972456 27.376903 
L 283.742281 27.606419 
L 283.641436 27.753651 
L 283.535858 28.130399 
L 283.561487 28.507147 
L 283.742281 28.84859 
L 283.767038 28.883895 
L 284.098029 29.125271 
" style="fill:none;stroke:#023eff;stroke-width:0.7;"/>
   </g>
   <g id="LineCollection_15">
    <path clip-path="url(#p1619d195e5)" d="M 237.850728 106.989498 
L 238.206476 107.02491 
L 238.562225 106.932138 
L 238.666566 106.87069 
L 238.917973 106.64838 
L 239.018116 106.493942 
L 239.096776 106.117194 
L 239.042715 105.740447 
L 238.917973 105.511468 
L 238.813955 105.363699 
L 238.562225 105.162727 
L 238.206476 105.048107 
L 237.850728 105.053028 
L 237.494979 105.185469 
L 237.292882 105.363699 
L 237.139231 105.664967 
L 237.106487 105.740447 
L 237.081875 106.117194 
L 237.139231 106.296845 
L 237.201068 106.493942 
L 237.494979 106.810781 
L 237.601897 106.87069 
L 237.850728 106.989498 
" style="fill:none;stroke:#023eff;stroke-width:0.7;"/>
    <path clip-path="url(#p1619d195e5)" d="M 320.740122 58.657068 
L 320.780355 58.646971 
L 321.095871 58.343595 
L 321.12243 58.270223 
L 321.095871 58.234052 
L 320.740122 57.949562 
L 320.386691 58.270223 
L 320.717818 58.646971 
L 320.740122 58.657068 
" style="fill:none;stroke:#023eff;stroke-width:0.7;"/>
    <path clip-path="url(#p1619d195e5)" d="M 312.913656 52.744198 
L 313.269404 52.924954 
L 313.625153 52.938273 
L 313.980901 52.752757 
L 314.085857 52.619006 
L 314.100958 52.242258 
L 313.980901 52.064412 
L 313.759015 51.865511 
L 313.625153 51.798615 
L 313.269404 51.759232 
L 312.935995 51.865511 
L 312.913656 51.880706 
L 312.69644 52.242258 
L 312.789795 52.619006 
L 312.913656 52.744198 
" style="fill:none;stroke:#023eff;stroke-width:0.7;"/>
    <path clip-path="url(#p1619d195e5)" d="M 317.894134 52.017581 
L 318.249883 52.131432 
L 318.605631 51.944524 
L 318.66361 51.865511 
L 318.605631 51.660785 
L 318.494208 51.488763 
L 318.249883 51.399584 
L 317.894134 51.477633 
L 317.879558 51.488763 
L 317.7758 51.865511 
L 317.894134 52.017581 
" style="fill:none;stroke:#023eff;stroke-width:0.7;"/>
    <path clip-path="url(#p1619d195e5)" d="M 276.271563 47.358757 
L 276.627311 47.462024 
L 276.98306 47.401059 
L 277.070012 47.344537 
L 277.338808 46.994668 
L 277.352809 46.967789 
L 277.338808 46.794688 
L 277.317647 46.591041 
L 276.98306 46.30213 
L 276.627311 46.23907 
L 276.271563 46.37989 
L 276.081088 46.591041 
L 276.021542 46.967789 
L 276.253099 47.344537 
L 276.271563 47.358757 
" style="fill:none;stroke:#023eff;stroke-width:0.7;"/>
    <path clip-path="url(#p1619d195e5)" d="M 284.098029 28.935284 
L 284.453778 29.034615 
L 284.809526 28.952595 
L 284.916187 28.883895 
L 285.165275 28.609105 
L 285.227912 28.507147 
L 285.286587 28.130399 
L 285.16758 27.753651 
L 285.165275 27.750431 
L 284.809526 27.428567 
L 284.524215 27.376903 
L 284.453778 27.363727 
L 284.418336 27.376903 
L 284.098029 27.495378 
L 283.845377 27.753651 
L 283.742281 28.04615 
L 283.714212 28.130399 
L 283.742281 28.379165 
L 283.755786 28.507147 
L 284.027561 28.883895 
L 284.098029 28.935284 
" style="fill:none;stroke:#023eff;stroke-width:0.7;"/>
   </g>
   <g id="LineCollection_16">
    <path clip-path="url(#p1619d195e5)" d="M 237.494979 106.571207 
L 237.850728 106.800423 
L 238.206476 106.840277 
L 238.562225 106.714891 
L 238.792575 106.493942 
L 238.908228 106.117194 
L 238.844406 105.740447 
L 238.562225 105.380706 
L 238.535235 105.363699 
L 238.206476 105.214306 
L 237.850728 105.2281 
L 237.591316 105.363699 
L 237.494979 105.44605 
L 237.301695 105.740447 
L 237.269137 106.117194 
L 237.423305 106.493942 
L 237.494979 106.571207 
" style="fill:none;stroke:#023eff;stroke-width:0.7;"/>
    <path clip-path="url(#p1619d195e5)" d="M 276.627311 46.981211 
L 276.66764 46.967789 
L 276.627311 46.908279 
L 276.605461 46.967789 
L 276.627311 46.981211 
" style="fill:none;stroke:#023eff;stroke-width:0.7;"/>
    <path clip-path="url(#p1619d195e5)" d="M 284.098029 28.623856 
L 284.453778 28.794733 
L 284.809526 28.668635 
L 284.958025 28.507147 
L 285.035942 28.130399 
L 284.857515 27.753651 
L 284.809526 27.710069 
L 284.453778 27.60662 
L 284.151175 27.753651 
L 284.098029 27.805803 
L 283.946002 28.130399 
L 284.005985 28.507147 
L 284.098029 28.623856 
" style="fill:none;stroke:#023eff;stroke-width:0.7;"/>
   </g>
   <g id="LineCollection_17">
    <path clip-path="url(#p1619d195e5)" d="M 237.850728 106.548281 
L 238.206476 106.600874 
L 238.421141 106.493942 
L 238.562225 106.327082 
L 238.655534 106.117194 
L 238.573241 105.740447 
L 238.562225 105.726402 
L 238.206476 105.472679 
L 237.850728 105.505371 
L 237.595139 105.740447 
L 237.533576 106.117194 
L 237.7741 106.493942 
L 237.850728 106.548281 
" style="fill:none;stroke:#023eff;stroke-width:0.7;"/>
    <path clip-path="url(#p1619d195e5)" d="M 284.453778 28.149958 
L 284.466034 28.130399 
L 284.453778 28.121841 
L 284.445158 28.130399 
L 284.453778 28.149958 
" style="fill:none;stroke:#023eff;stroke-width:0.7;"/>
   </g>
   <g id="LineCollection_18"/>
   <g id="LineCollection_19"/>
   <g id="LineCollection_20"/>
   <g id="patch_3">
    <path d="M 57.842 311.068 
L 57.842 10.8 
" style="fill:none;stroke:#000000;stroke-linecap:square;stroke-linejoin:miter;stroke-width:1.3;"/>
   </g>
   <g id="patch_4">
    <path d="M 349.2 311.068 
L 349.2 10.8 
" style="fill:none;stroke:#000000;stroke-linecap:square;stroke-linejoin:miter;stroke-width:1.3;"/>
   </g>
   <g id="patch_5">
    <path d="M 57.842 311.068 
L 349.2 311.068 
" style="fill:none;stroke:#000000;stroke-linecap:square;stroke-linejoin:miter;stroke-width:1.3;"/>
   </g>
   <g id="patch_6">
    <path d="M 57.842 10.8 
L 349.2 10.8 
" style="fill:none;stroke:#000000;stroke-linecap:square;stroke-linejoin:miter;stroke-width:1.3;"/>
   </g>
  </g>
 </g>
 <defs>
  <clipPath id="p1619d195e5">
   <rect height="300.268" width="291.358" x="57.842" y="10.8"/>
  </clipPath>
 </defs>
</svg>
