<?xml version="1.0" encoding="utf-8" standalone="no"?>
<!DOCTYPE svg PUBLIC "-//W3C//DTD SVG 1.1//EN"
  "http://www.w3.org/Graphics/SVG/1.1/DTD/svg11.dtd">
<!-- Created with matplotlib (https://matplotlib.org/) -->
<svg height="345.6pt" version="1.1" viewBox="0 0 460.8 345.6" width="460.8pt" xmlns="http://www.w3.org/2000/svg" xmlns:xlink="http://www.w3.org/1999/xlink">
 <defs>
  <style type="text/css">
*{stroke-linecap:butt;stroke-linejoin:round;}
  </style>
 </defs>
 <g id="figure_1">
  <g id="patch_1">
   <path d="M 0 345.6 
L 460.8 345.6 
L 460.8 0 
L 0 0 
z
" style="fill:#ffffff;"/>
  </g>
  <g id="axes_1">
   <g id="patch_2">
    <path d="M 10.8 302.14 
L 450 302.14 
L 450 10.8 
L 10.8 10.8 
z
" style="fill:#ffffff;"/>
   </g>
   <g id="matplotlib.axis_1">
    <g id="xtick_1">
     <g id="line2d_1">
      <defs>
       <path d="M 0 0 
L 0 5 
" id="mba6871061d" style="stroke:#000000;stroke-width:1.3;"/>
      </defs>
      <g>
       <use style="stroke:#000000;stroke-width:1.3;" x="429.981576" xlink:href="#mba6871061d" y="302.14"/>
      </g>
     </g>
     <g id="text_1">
      <!-- 7.0 -->
      <defs>
       <path d="M 8.203125 72.90625 
L 55.078125 72.90625 
L 55.078125 68.703125 
L 28.609375 0 
L 18.3125 0 
L 43.21875 64.59375 
L 8.203125 64.59375 
z
" id="DejaVuSans-55"/>
       <path d="M 10.6875 12.40625 
L 21 12.40625 
L 21 0 
L 10.6875 0 
z
" id="DejaVuSans-46"/>
       <path d="M 31.78125 66.40625 
Q 24.171875 66.40625 20.328125 58.90625 
Q 16.5 51.421875 16.5 36.375 
Q 16.5 21.390625 20.328125 13.890625 
Q 24.171875 6.390625 31.78125 6.390625 
Q 39.453125 6.390625 43.28125 13.890625 
Q 47.125 21.390625 47.125 36.375 
Q 47.125 51.421875 43.28125 58.90625 
Q 39.453125 66.40625 31.78125 66.40625 
z
M 31.78125 74.21875 
Q 44.046875 74.21875 50.515625 64.515625 
Q 56.984375 54.828125 56.984375 36.375 
Q 56.984375 17.96875 50.515625 8.265625 
Q 44.046875 -1.421875 31.78125 -1.421875 
Q 19.53125 -1.421875 13.0625 8.265625 
Q 6.59375 17.96875 6.59375 36.375 
Q 6.59375 54.828125 13.0625 64.515625 
Q 19.53125 74.21875 31.78125 74.21875 
z
" id="DejaVuSans-48"/>
      </defs>
      <g transform="translate(422.030014 318.238437)scale(0.1 -0.1)">
       <use xlink:href="#DejaVuSans-55"/>
       <use x="63.623047" xlink:href="#DejaVuSans-46"/>
       <use x="95.410156" xlink:href="#DejaVuSans-48"/>
      </g>
     </g>
    </g>
    <g id="xtick_2">
     <g id="line2d_2">
      <g>
       <use style="stroke:#000000;stroke-width:1.3;" x="376.746512" xlink:href="#mba6871061d" y="302.14"/>
      </g>
     </g>
     <g id="text_2">
      <!-- 7.2 -->
      <defs>
       <path d="M 19.1875 8.296875 
L 53.609375 8.296875 
L 53.609375 0 
L 7.328125 0 
L 7.328125 8.296875 
Q 12.9375 14.109375 22.625 23.890625 
Q 32.328125 33.6875 34.8125 36.53125 
Q 39.546875 41.84375 41.421875 45.53125 
Q 43.3125 49.21875 43.3125 52.78125 
Q 43.3125 58.59375 39.234375 62.25 
Q 35.15625 65.921875 28.609375 65.921875 
Q 23.96875 65.921875 18.8125 64.3125 
Q 13.671875 62.703125 7.8125 59.421875 
L 7.8125 69.390625 
Q 13.765625 71.78125 18.9375 73 
Q 24.125 74.21875 28.421875 74.21875 
Q 39.75 74.21875 46.484375 68.546875 
Q 53.21875 62.890625 53.21875 53.421875 
Q 53.21875 48.921875 51.53125 44.890625 
Q 49.859375 40.875 45.40625 35.40625 
Q 44.1875 33.984375 37.640625 27.21875 
Q 31.109375 20.453125 19.1875 8.296875 
z
" id="DejaVuSans-50"/>
      </defs>
      <g transform="translate(368.794949 318.238437)scale(0.1 -0.1)">
       <use xlink:href="#DejaVuSans-55"/>
       <use x="63.623047" xlink:href="#DejaVuSans-46"/>
       <use x="95.410156" xlink:href="#DejaVuSans-50"/>
      </g>
     </g>
    </g>
    <g id="xtick_3">
     <g id="line2d_3">
      <g>
       <use style="stroke:#000000;stroke-width:1.3;" x="323.511447" xlink:href="#mba6871061d" y="302.14"/>
      </g>
     </g>
     <g id="text_3">
      <!-- 7.4 -->
      <defs>
       <path d="M 37.796875 64.3125 
L 12.890625 25.390625 
L 37.796875 25.390625 
z
M 35.203125 72.90625 
L 47.609375 72.90625 
L 47.609375 25.390625 
L 58.015625 25.390625 
L 58.015625 17.1875 
L 47.609375 17.1875 
L 47.609375 0 
L 37.796875 0 
L 37.796875 17.1875 
L 4.890625 17.1875 
L 4.890625 26.703125 
z
" id="DejaVuSans-52"/>
      </defs>
      <g transform="translate(315.559885 318.238437)scale(0.1 -0.1)">
       <use xlink:href="#DejaVuSans-55"/>
       <use x="63.623047" xlink:href="#DejaVuSans-46"/>
       <use x="95.410156" xlink:href="#DejaVuSans-52"/>
      </g>
     </g>
    </g>
    <g id="xtick_4">
     <g id="line2d_4">
      <g>
       <use style="stroke:#000000;stroke-width:1.3;" x="270.276383" xlink:href="#mba6871061d" y="302.14"/>
      </g>
     </g>
     <g id="text_4">
      <!-- 7.6 -->
      <defs>
       <path d="M 33.015625 40.375 
Q 26.375 40.375 22.484375 35.828125 
Q 18.609375 31.296875 18.609375 23.390625 
Q 18.609375 15.53125 22.484375 10.953125 
Q 26.375 6.390625 33.015625 6.390625 
Q 39.65625 6.390625 43.53125 10.953125 
Q 47.40625 15.53125 47.40625 23.390625 
Q 47.40625 31.296875 43.53125 35.828125 
Q 39.65625 40.375 33.015625 40.375 
z
M 52.59375 71.296875 
L 52.59375 62.3125 
Q 48.875 64.0625 45.09375 64.984375 
Q 41.3125 65.921875 37.59375 65.921875 
Q 27.828125 65.921875 22.671875 59.328125 
Q 17.53125 52.734375 16.796875 39.40625 
Q 19.671875 43.65625 24.015625 45.921875 
Q 28.375 48.1875 33.59375 48.1875 
Q 44.578125 48.1875 50.953125 41.515625 
Q 57.328125 34.859375 57.328125 23.390625 
Q 57.328125 12.15625 50.6875 5.359375 
Q 44.046875 -1.421875 33.015625 -1.421875 
Q 20.359375 -1.421875 13.671875 8.265625 
Q 6.984375 17.96875 6.984375 36.375 
Q 6.984375 53.65625 15.1875 63.9375 
Q 23.390625 74.21875 37.203125 74.21875 
Q 40.921875 74.21875 44.703125 73.484375 
Q 48.484375 72.75 52.59375 71.296875 
z
" id="DejaVuSans-54"/>
      </defs>
      <g transform="translate(262.32482 318.238437)scale(0.1 -0.1)">
       <use xlink:href="#DejaVuSans-55"/>
       <use x="63.623047" xlink:href="#DejaVuSans-46"/>
       <use x="95.410156" xlink:href="#DejaVuSans-54"/>
      </g>
     </g>
    </g>
    <g id="xtick_5">
     <g id="line2d_5">
      <g>
       <use style="stroke:#000000;stroke-width:1.3;" x="217.041318" xlink:href="#mba6871061d" y="302.14"/>
      </g>
     </g>
     <g id="text_5">
      <!-- 7.8 -->
      <defs>
       <path d="M 31.78125 34.625 
Q 24.75 34.625 20.71875 30.859375 
Q 16.703125 27.09375 16.703125 20.515625 
Q 16.703125 13.921875 20.71875 10.15625 
Q 24.75 6.390625 31.78125 6.390625 
Q 38.8125 6.390625 42.859375 10.171875 
Q 46.921875 13.96875 46.921875 20.515625 
Q 46.921875 27.09375 42.890625 30.859375 
Q 38.875 34.625 31.78125 34.625 
z
M 21.921875 38.8125 
Q 15.578125 40.375 12.03125 44.71875 
Q 8.5 49.078125 8.5 55.328125 
Q 8.5 64.0625 14.71875 69.140625 
Q 20.953125 74.21875 31.78125 74.21875 
Q 42.671875 74.21875 48.875 69.140625 
Q 55.078125 64.0625 55.078125 55.328125 
Q 55.078125 49.078125 51.53125 44.71875 
Q 48 40.375 41.703125 38.8125 
Q 48.828125 37.15625 52.796875 32.3125 
Q 56.78125 27.484375 56.78125 20.515625 
Q 56.78125 9.90625 50.3125 4.234375 
Q 43.84375 -1.421875 31.78125 -1.421875 
Q 19.734375 -1.421875 13.25 4.234375 
Q 6.78125 9.90625 6.78125 20.515625 
Q 6.78125 27.484375 10.78125 32.3125 
Q 14.796875 37.15625 21.921875 38.8125 
z
M 18.3125 54.390625 
Q 18.3125 48.734375 21.84375 45.5625 
Q 25.390625 42.390625 31.78125 42.390625 
Q 38.140625 42.390625 41.71875 45.5625 
Q 45.3125 48.734375 45.3125 54.390625 
Q 45.3125 60.0625 41.71875 63.234375 
Q 38.140625 66.40625 31.78125 66.40625 
Q 25.390625 66.40625 21.84375 63.234375 
Q 18.3125 60.0625 18.3125 54.390625 
z
" id="DejaVuSans-56"/>
      </defs>
      <g transform="translate(209.089756 318.238437)scale(0.1 -0.1)">
       <use xlink:href="#DejaVuSans-55"/>
       <use x="63.623047" xlink:href="#DejaVuSans-46"/>
       <use x="95.410156" xlink:href="#DejaVuSans-56"/>
      </g>
     </g>
    </g>
    <g id="xtick_6">
     <g id="line2d_6">
      <g>
       <use style="stroke:#000000;stroke-width:1.3;" x="163.806254" xlink:href="#mba6871061d" y="302.14"/>
      </g>
     </g>
     <g id="text_6">
      <!-- 8.0 -->
      <g transform="translate(155.854691 318.238437)scale(0.1 -0.1)">
       <use xlink:href="#DejaVuSans-56"/>
       <use x="63.623047" xlink:href="#DejaVuSans-46"/>
       <use x="95.410156" xlink:href="#DejaVuSans-48"/>
      </g>
     </g>
    </g>
    <g id="xtick_7">
     <g id="line2d_7">
      <g>
       <use style="stroke:#000000;stroke-width:1.3;" x="110.571189" xlink:href="#mba6871061d" y="302.14"/>
      </g>
     </g>
     <g id="text_7">
      <!-- 8.2 -->
      <g transform="translate(102.619627 318.238437)scale(0.1 -0.1)">
       <use xlink:href="#DejaVuSans-56"/>
       <use x="63.623047" xlink:href="#DejaVuSans-46"/>
       <use x="95.410156" xlink:href="#DejaVuSans-50"/>
      </g>
     </g>
    </g>
    <g id="xtick_8">
     <g id="line2d_8">
      <g>
       <use style="stroke:#000000;stroke-width:1.3;" x="57.336125" xlink:href="#mba6871061d" y="302.14"/>
      </g>
     </g>
     <g id="text_8">
      <!-- 8.4 -->
      <g transform="translate(49.384562 318.238437)scale(0.1 -0.1)">
       <use xlink:href="#DejaVuSans-56"/>
       <use x="63.623047" xlink:href="#DejaVuSans-46"/>
       <use x="95.410156" xlink:href="#DejaVuSans-52"/>
      </g>
     </g>
    </g>
    <g id="xtick_9">
     <g id="line2d_9">
      <defs>
       <path d="M 0 0 
L 0 3 
" id="m1e7cfe585d" style="stroke:#000000;stroke-width:1.3;"/>
      </defs>
      <g>
       <use style="stroke:#000000;stroke-width:1.3;" x="443.290342" xlink:href="#m1e7cfe585d" y="302.14"/>
      </g>
     </g>
    </g>
    <g id="xtick_10">
     <g id="line2d_10">
      <g>
       <use style="stroke:#000000;stroke-width:1.3;" x="416.67281" xlink:href="#m1e7cfe585d" y="302.14"/>
      </g>
     </g>
    </g>
    <g id="xtick_11">
     <g id="line2d_11">
      <g>
       <use style="stroke:#000000;stroke-width:1.3;" x="403.364044" xlink:href="#m1e7cfe585d" y="302.14"/>
      </g>
     </g>
    </g>
    <g id="xtick_12">
     <g id="line2d_12">
      <g>
       <use style="stroke:#000000;stroke-width:1.3;" x="390.055278" xlink:href="#m1e7cfe585d" y="302.14"/>
      </g>
     </g>
    </g>
    <g id="xtick_13">
     <g id="line2d_13">
      <g>
       <use style="stroke:#000000;stroke-width:1.3;" x="363.437745" xlink:href="#m1e7cfe585d" y="302.14"/>
      </g>
     </g>
    </g>
    <g id="xtick_14">
     <g id="line2d_14">
      <g>
       <use style="stroke:#000000;stroke-width:1.3;" x="350.128979" xlink:href="#m1e7cfe585d" y="302.14"/>
      </g>
     </g>
    </g>
    <g id="xtick_15">
     <g id="line2d_15">
      <g>
       <use style="stroke:#000000;stroke-width:1.3;" x="336.820213" xlink:href="#m1e7cfe585d" y="302.14"/>
      </g>
     </g>
    </g>
    <g id="xtick_16">
     <g id="line2d_16">
      <g>
       <use style="stroke:#000000;stroke-width:1.3;" x="310.202681" xlink:href="#m1e7cfe585d" y="302.14"/>
      </g>
     </g>
    </g>
    <g id="xtick_17">
     <g id="line2d_17">
      <g>
       <use style="stroke:#000000;stroke-width:1.3;" x="296.893915" xlink:href="#m1e7cfe585d" y="302.14"/>
      </g>
     </g>
    </g>
    <g id="xtick_18">
     <g id="line2d_18">
      <g>
       <use style="stroke:#000000;stroke-width:1.3;" x="283.585149" xlink:href="#m1e7cfe585d" y="302.14"/>
      </g>
     </g>
    </g>
    <g id="xtick_19">
     <g id="line2d_19">
      <g>
       <use style="stroke:#000000;stroke-width:1.3;" x="256.967616" xlink:href="#m1e7cfe585d" y="302.14"/>
      </g>
     </g>
    </g>
    <g id="xtick_20">
     <g id="line2d_20">
      <g>
       <use style="stroke:#000000;stroke-width:1.3;" x="243.65885" xlink:href="#m1e7cfe585d" y="302.14"/>
      </g>
     </g>
    </g>
    <g id="xtick_21">
     <g id="line2d_21">
      <g>
       <use style="stroke:#000000;stroke-width:1.3;" x="230.350084" xlink:href="#m1e7cfe585d" y="302.14"/>
      </g>
     </g>
    </g>
    <g id="xtick_22">
     <g id="line2d_22">
      <g>
       <use style="stroke:#000000;stroke-width:1.3;" x="203.732552" xlink:href="#m1e7cfe585d" y="302.14"/>
      </g>
     </g>
    </g>
    <g id="xtick_23">
     <g id="line2d_23">
      <g>
       <use style="stroke:#000000;stroke-width:1.3;" x="190.423786" xlink:href="#m1e7cfe585d" y="302.14"/>
      </g>
     </g>
    </g>
    <g id="xtick_24">
     <g id="line2d_24">
      <g>
       <use style="stroke:#000000;stroke-width:1.3;" x="177.11502" xlink:href="#m1e7cfe585d" y="302.14"/>
      </g>
     </g>
    </g>
    <g id="xtick_25">
     <g id="line2d_25">
      <g>
       <use style="stroke:#000000;stroke-width:1.3;" x="150.497487" xlink:href="#m1e7cfe585d" y="302.14"/>
      </g>
     </g>
    </g>
    <g id="xtick_26">
     <g id="line2d_26">
      <g>
       <use style="stroke:#000000;stroke-width:1.3;" x="137.188721" xlink:href="#m1e7cfe585d" y="302.14"/>
      </g>
     </g>
    </g>
    <g id="xtick_27">
     <g id="line2d_27">
      <g>
       <use style="stroke:#000000;stroke-width:1.3;" x="123.879955" xlink:href="#m1e7cfe585d" y="302.14"/>
      </g>
     </g>
    </g>
    <g id="xtick_28">
     <g id="line2d_28">
      <g>
       <use style="stroke:#000000;stroke-width:1.3;" x="97.262423" xlink:href="#m1e7cfe585d" y="302.14"/>
      </g>
     </g>
    </g>
    <g id="xtick_29">
     <g id="line2d_29">
      <g>
       <use style="stroke:#000000;stroke-width:1.3;" x="83.953657" xlink:href="#m1e7cfe585d" y="302.14"/>
      </g>
     </g>
    </g>
    <g id="xtick_30">
     <g id="line2d_30">
      <g>
       <use style="stroke:#000000;stroke-width:1.3;" x="70.644891" xlink:href="#m1e7cfe585d" y="302.14"/>
      </g>
     </g>
    </g>
    <g id="xtick_31">
     <g id="line2d_31">
      <g>
       <use style="stroke:#000000;stroke-width:1.3;" x="44.027358" xlink:href="#m1e7cfe585d" y="302.14"/>
      </g>
     </g>
    </g>
    <g id="xtick_32">
     <g id="line2d_32">
      <g>
       <use style="stroke:#000000;stroke-width:1.3;" x="30.718592" xlink:href="#m1e7cfe585d" y="302.14"/>
      </g>
     </g>
    </g>
    <g id="xtick_33">
     <g id="line2d_33">
      <g>
       <use style="stroke:#000000;stroke-width:1.3;" x="17.409826" xlink:href="#m1e7cfe585d" y="302.14"/>
      </g>
     </g>
    </g>
    <g id="text_9">
     <!-- Chemical shift (ppm) -->
     <defs>
      <path d="M 64.40625 67.28125 
L 64.40625 56.890625 
Q 59.421875 61.53125 53.78125 63.8125 
Q 48.140625 66.109375 41.796875 66.109375 
Q 29.296875 66.109375 22.65625 58.46875 
Q 16.015625 50.828125 16.015625 36.375 
Q 16.015625 21.96875 22.65625 14.328125 
Q 29.296875 6.6875 41.796875 6.6875 
Q 48.140625 6.6875 53.78125 8.984375 
Q 59.421875 11.28125 64.40625 15.921875 
L 64.40625 5.609375 
Q 59.234375 2.09375 53.4375 0.328125 
Q 47.65625 -1.421875 41.21875 -1.421875 
Q 24.65625 -1.421875 15.125 8.703125 
Q 5.609375 18.84375 5.609375 36.375 
Q 5.609375 53.953125 15.125 64.078125 
Q 24.65625 74.21875 41.21875 74.21875 
Q 47.75 74.21875 53.53125 72.484375 
Q 59.328125 70.75 64.40625 67.28125 
z
" id="DejaVuSans-67"/>
      <path d="M 54.890625 33.015625 
L 54.890625 0 
L 45.90625 0 
L 45.90625 32.71875 
Q 45.90625 40.484375 42.875 44.328125 
Q 39.84375 48.1875 33.796875 48.1875 
Q 26.515625 48.1875 22.3125 43.546875 
Q 18.109375 38.921875 18.109375 30.90625 
L 18.109375 0 
L 9.078125 0 
L 9.078125 75.984375 
L 18.109375 75.984375 
L 18.109375 46.1875 
Q 21.34375 51.125 25.703125 53.5625 
Q 30.078125 56 35.796875 56 
Q 45.21875 56 50.046875 50.171875 
Q 54.890625 44.34375 54.890625 33.015625 
z
" id="DejaVuSans-104"/>
      <path d="M 56.203125 29.59375 
L 56.203125 25.203125 
L 14.890625 25.203125 
Q 15.484375 15.921875 20.484375 11.0625 
Q 25.484375 6.203125 34.421875 6.203125 
Q 39.59375 6.203125 44.453125 7.46875 
Q 49.3125 8.734375 54.109375 11.28125 
L 54.109375 2.78125 
Q 49.265625 0.734375 44.1875 -0.34375 
Q 39.109375 -1.421875 33.890625 -1.421875 
Q 20.796875 -1.421875 13.15625 6.1875 
Q 5.515625 13.8125 5.515625 26.8125 
Q 5.515625 40.234375 12.765625 48.109375 
Q 20.015625 56 32.328125 56 
Q 43.359375 56 49.78125 48.890625 
Q 56.203125 41.796875 56.203125 29.59375 
z
M 47.21875 32.234375 
Q 47.125 39.59375 43.09375 43.984375 
Q 39.0625 48.390625 32.421875 48.390625 
Q 24.90625 48.390625 20.390625 44.140625 
Q 15.875 39.890625 15.1875 32.171875 
z
" id="DejaVuSans-101"/>
      <path d="M 52 44.1875 
Q 55.375 50.25 60.0625 53.125 
Q 64.75 56 71.09375 56 
Q 79.640625 56 84.28125 50.015625 
Q 88.921875 44.046875 88.921875 33.015625 
L 88.921875 0 
L 79.890625 0 
L 79.890625 32.71875 
Q 79.890625 40.578125 77.09375 44.375 
Q 74.3125 48.1875 68.609375 48.1875 
Q 61.625 48.1875 57.5625 43.546875 
Q 53.515625 38.921875 53.515625 30.90625 
L 53.515625 0 
L 44.484375 0 
L 44.484375 32.71875 
Q 44.484375 40.625 41.703125 44.40625 
Q 38.921875 48.1875 33.109375 48.1875 
Q 26.21875 48.1875 22.15625 43.53125 
Q 18.109375 38.875 18.109375 30.90625 
L 18.109375 0 
L 9.078125 0 
L 9.078125 54.6875 
L 18.109375 54.6875 
L 18.109375 46.1875 
Q 21.1875 51.21875 25.484375 53.609375 
Q 29.78125 56 35.6875 56 
Q 41.65625 56 45.828125 52.96875 
Q 50 49.953125 52 44.1875 
z
" id="DejaVuSans-109"/>
      <path d="M 9.421875 54.6875 
L 18.40625 54.6875 
L 18.40625 0 
L 9.421875 0 
z
M 9.421875 75.984375 
L 18.40625 75.984375 
L 18.40625 64.59375 
L 9.421875 64.59375 
z
" id="DejaVuSans-105"/>
      <path d="M 48.78125 52.59375 
L 48.78125 44.1875 
Q 44.96875 46.296875 41.140625 47.34375 
Q 37.3125 48.390625 33.40625 48.390625 
Q 24.65625 48.390625 19.8125 42.84375 
Q 14.984375 37.3125 14.984375 27.296875 
Q 14.984375 17.28125 19.8125 11.734375 
Q 24.65625 6.203125 33.40625 6.203125 
Q 37.3125 6.203125 41.140625 7.25 
Q 44.96875 8.296875 48.78125 10.40625 
L 48.78125 2.09375 
Q 45.015625 0.34375 40.984375 -0.53125 
Q 36.96875 -1.421875 32.421875 -1.421875 
Q 20.0625 -1.421875 12.78125 6.34375 
Q 5.515625 14.109375 5.515625 27.296875 
Q 5.515625 40.671875 12.859375 48.328125 
Q 20.21875 56 33.015625 56 
Q 37.15625 56 41.109375 55.140625 
Q 45.0625 54.296875 48.78125 52.59375 
z
" id="DejaVuSans-99"/>
      <path d="M 34.28125 27.484375 
Q 23.390625 27.484375 19.1875 25 
Q 14.984375 22.515625 14.984375 16.5 
Q 14.984375 11.71875 18.140625 8.90625 
Q 21.296875 6.109375 26.703125 6.109375 
Q 34.1875 6.109375 38.703125 11.40625 
Q 43.21875 16.703125 43.21875 25.484375 
L 43.21875 27.484375 
z
M 52.203125 31.203125 
L 52.203125 0 
L 43.21875 0 
L 43.21875 8.296875 
Q 40.140625 3.328125 35.546875 0.953125 
Q 30.953125 -1.421875 24.3125 -1.421875 
Q 15.921875 -1.421875 10.953125 3.296875 
Q 6 8.015625 6 15.921875 
Q 6 25.140625 12.171875 29.828125 
Q 18.359375 34.515625 30.609375 34.515625 
L 43.21875 34.515625 
L 43.21875 35.40625 
Q 43.21875 41.609375 39.140625 45 
Q 35.0625 48.390625 27.6875 48.390625 
Q 23 48.390625 18.546875 47.265625 
Q 14.109375 46.140625 10.015625 43.890625 
L 10.015625 52.203125 
Q 14.9375 54.109375 19.578125 55.046875 
Q 24.21875 56 28.609375 56 
Q 40.484375 56 46.34375 49.84375 
Q 52.203125 43.703125 52.203125 31.203125 
z
" id="DejaVuSans-97"/>
      <path d="M 9.421875 75.984375 
L 18.40625 75.984375 
L 18.40625 0 
L 9.421875 0 
z
" id="DejaVuSans-108"/>
      <path id="DejaVuSans-32"/>
      <path d="M 44.28125 53.078125 
L 44.28125 44.578125 
Q 40.484375 46.53125 36.375 47.5 
Q 32.28125 48.484375 27.875 48.484375 
Q 21.1875 48.484375 17.84375 46.4375 
Q 14.5 44.390625 14.5 40.28125 
Q 14.5 37.15625 16.890625 35.375 
Q 19.28125 33.59375 26.515625 31.984375 
L 29.59375 31.296875 
Q 39.15625 29.25 43.1875 25.515625 
Q 47.21875 21.78125 47.21875 15.09375 
Q 47.21875 7.46875 41.1875 3.015625 
Q 35.15625 -1.421875 24.609375 -1.421875 
Q 20.21875 -1.421875 15.453125 -0.5625 
Q 10.6875 0.296875 5.421875 2 
L 5.421875 11.28125 
Q 10.40625 8.6875 15.234375 7.390625 
Q 20.0625 6.109375 24.8125 6.109375 
Q 31.15625 6.109375 34.5625 8.28125 
Q 37.984375 10.453125 37.984375 14.40625 
Q 37.984375 18.0625 35.515625 20.015625 
Q 33.0625 21.96875 24.703125 23.78125 
L 21.578125 24.515625 
Q 13.234375 26.265625 9.515625 29.90625 
Q 5.8125 33.546875 5.8125 39.890625 
Q 5.8125 47.609375 11.28125 51.796875 
Q 16.75 56 26.8125 56 
Q 31.78125 56 36.171875 55.265625 
Q 40.578125 54.546875 44.28125 53.078125 
z
" id="DejaVuSans-115"/>
      <path d="M 37.109375 75.984375 
L 37.109375 68.5 
L 28.515625 68.5 
Q 23.6875 68.5 21.796875 66.546875 
Q 19.921875 64.59375 19.921875 59.515625 
L 19.921875 54.6875 
L 34.71875 54.6875 
L 34.71875 47.703125 
L 19.921875 47.703125 
L 19.921875 0 
L 10.890625 0 
L 10.890625 47.703125 
L 2.296875 47.703125 
L 2.296875 54.6875 
L 10.890625 54.6875 
L 10.890625 58.5 
Q 10.890625 67.625 15.140625 71.796875 
Q 19.390625 75.984375 28.609375 75.984375 
z
" id="DejaVuSans-102"/>
      <path d="M 18.3125 70.21875 
L 18.3125 54.6875 
L 36.8125 54.6875 
L 36.8125 47.703125 
L 18.3125 47.703125 
L 18.3125 18.015625 
Q 18.3125 11.328125 20.140625 9.421875 
Q 21.96875 7.515625 27.59375 7.515625 
L 36.8125 7.515625 
L 36.8125 0 
L 27.59375 0 
Q 17.1875 0 13.234375 3.875 
Q 9.28125 7.765625 9.28125 18.015625 
L 9.28125 47.703125 
L 2.6875 47.703125 
L 2.6875 54.6875 
L 9.28125 54.6875 
L 9.28125 70.21875 
z
" id="DejaVuSans-116"/>
      <path d="M 31 75.875 
Q 24.46875 64.65625 21.28125 53.65625 
Q 18.109375 42.671875 18.109375 31.390625 
Q 18.109375 20.125 21.3125 9.0625 
Q 24.515625 -2 31 -13.1875 
L 23.1875 -13.1875 
Q 15.875 -1.703125 12.234375 9.375 
Q 8.59375 20.453125 8.59375 31.390625 
Q 8.59375 42.28125 12.203125 53.3125 
Q 15.828125 64.359375 23.1875 75.875 
z
" id="DejaVuSans-40"/>
      <path d="M 18.109375 8.203125 
L 18.109375 -20.796875 
L 9.078125 -20.796875 
L 9.078125 54.6875 
L 18.109375 54.6875 
L 18.109375 46.390625 
Q 20.953125 51.265625 25.265625 53.625 
Q 29.59375 56 35.59375 56 
Q 45.5625 56 51.78125 48.09375 
Q 58.015625 40.1875 58.015625 27.296875 
Q 58.015625 14.40625 51.78125 6.484375 
Q 45.5625 -1.421875 35.59375 -1.421875 
Q 29.59375 -1.421875 25.265625 0.953125 
Q 20.953125 3.328125 18.109375 8.203125 
z
M 48.6875 27.296875 
Q 48.6875 37.203125 44.609375 42.84375 
Q 40.53125 48.484375 33.40625 48.484375 
Q 26.265625 48.484375 22.1875 42.84375 
Q 18.109375 37.203125 18.109375 27.296875 
Q 18.109375 17.390625 22.1875 11.75 
Q 26.265625 6.109375 33.40625 6.109375 
Q 40.53125 6.109375 44.609375 11.75 
Q 48.6875 17.390625 48.6875 27.296875 
z
" id="DejaVuSans-112"/>
      <path d="M 8.015625 75.875 
L 15.828125 75.875 
Q 23.140625 64.359375 26.78125 53.3125 
Q 30.421875 42.28125 30.421875 31.390625 
Q 30.421875 20.453125 26.78125 9.375 
Q 23.140625 -1.703125 15.828125 -13.1875 
L 8.015625 -13.1875 
Q 14.5 -2 17.703125 9.0625 
Q 20.90625 20.125 20.90625 31.390625 
Q 20.90625 42.671875 17.703125 53.65625 
Q 14.5 64.65625 8.015625 75.875 
z
" id="DejaVuSans-41"/>
     </defs>
     <g transform="translate(178.107812 331.916562)scale(0.1 -0.1)">
      <use xlink:href="#DejaVuSans-67"/>
      <use x="69.824219" xlink:href="#DejaVuSans-104"/>
      <use x="133.203125" xlink:href="#DejaVuSans-101"/>
      <use x="194.726562" xlink:href="#DejaVuSans-109"/>
      <use x="292.138672" xlink:href="#DejaVuSans-105"/>
      <use x="319.921875" xlink:href="#DejaVuSans-99"/>
      <use x="374.902344" xlink:href="#DejaVuSans-97"/>
      <use x="436.181641" xlink:href="#DejaVuSans-108"/>
      <use x="463.964844" xlink:href="#DejaVuSans-32"/>
      <use x="495.751953" xlink:href="#DejaVuSans-115"/>
      <use x="547.851562" xlink:href="#DejaVuSans-104"/>
      <use x="611.230469" xlink:href="#DejaVuSans-105"/>
      <use x="639.013672" xlink:href="#DejaVuSans-102"/>
      <use x="672.46875" xlink:href="#DejaVuSans-116"/>
      <use x="711.677734" xlink:href="#DejaVuSans-32"/>
      <use x="743.464844" xlink:href="#DejaVuSans-40"/>
      <use x="782.478516" xlink:href="#DejaVuSans-112"/>
      <use x="845.955078" xlink:href="#DejaVuSans-112"/>
      <use x="909.431641" xlink:href="#DejaVuSans-109"/>
      <use x="1006.84375" xlink:href="#DejaVuSans-41"/>
     </g>
    </g>
   </g>
   <g id="line2d_34">
    <path clip-path="url(#p15019fcc9d)" d="M 30.763636 288.793432 
L 31.983659 288.803628 
L 32.390333 288.850559 
L 32.715673 288.780181 
L 45.322573 288.75052 
L 45.647912 288.736267 
L 46.298591 288.790926 
L 47.762618 288.735427 
L 48.413297 288.706537 
L 49.30798 288.871704 
L 51.016011 288.785777 
L 51.341351 288.805057 
L 51.992029 288.834501 
L 52.317369 288.735642 
L 53.293387 288.876421 
L 54.594744 288.738088 
L 55.082753 288.780551 
L 57.197459 288.840254 
L 57.441464 288.863693 
L 57.848138 288.765339 
L 58.824156 288.818661 
L 60.288183 288.769953 
L 60.694857 288.758539 
L 61.670875 288.708788 
L 62.158884 288.571065 
L 62.890898 288.126136 
L 63.622912 288.145905 
L 64.029586 288.242836 
L 64.354925 288.602659 
L 65.168273 288.760227 
L 65.981622 288.719837 
L 66.306961 288.780236 
L 66.632301 288.698331 
L 66.95764 288.698021 
L 67.526984 288.368136 
L 68.014993 288.061506 
L 68.665672 288.143223 
L 68.909676 288.041029 
L 69.153681 288.224109 
L 69.64169 288.639568 
L 72.0004 288.758686 
L 72.569744 288.767268 
L 73.789766 288.790513 
L 74.115106 288.841695 
L 74.847119 288.840945 
L 76.229812 288.806076 
L 77.04316 288.810416 
L 78.425852 288.818786 
L 79.076531 288.797223 
L 79.40187 288.823515 
L 79.808545 288.791644 
L 80.215219 288.85092 
L 80.459223 288.850627 
L 80.947232 288.868446 
L 81.272572 288.865263 
L 81.597911 288.883693 
L 82.24859 288.810552 
L 82.899269 288.78204 
L 83.468612 288.872582 
L 83.712617 288.838811 
L 84.525965 288.769475 
L 84.932639 288.845899 
L 85.583318 288.783551 
L 88.511372 288.774828 
L 88.836712 288.794046 
L 90.056734 288.80047 
L 90.300739 288.785144 
L 90.707413 288.83655 
L 91.114087 288.82065 
L 105.754358 288.707182 
L 105.998363 288.650044 
L 106.242367 288.629543 
L 106.486372 288.502188 
L 107.381055 288.679882 
L 107.706395 288.613694 
L 108.031734 288.690455 
L 109.902435 288.428516 
L 110.471779 288.190244 
L 110.634449 288.115717 
L 111.935806 288.534719 
L 112.586485 288.435359 
L 113.155829 288.394632 
L 113.725173 288.257472 
L 114.050512 288.231718 
L 114.86386 287.832951 
L 115.107865 287.481547 
L 115.677209 286.163333 
L 116.002548 284.765401 
L 116.653227 281.607038 
L 116.734562 281.64983 
L 116.897231 281.671067 
L 117.059901 281.413824 
L 117.303906 280.501924 
L 117.54791 278.673126 
L 117.791915 274.716261 
L 118.035919 267.482889 
L 118.279924 254.196674 
L 118.523928 226.305862 
L 118.930602 169.489248 
L 119.174607 160.719867 
L 119.499946 179.864933 
L 119.581281 176.576937 
L 119.825286 153.254783 
L 120.06929 155.658056 
L 120.150625 160.228063 
L 120.882639 260.474556 
L 121.207978 270.213302 
L 121.533317 274.468455 
L 121.858657 276.674955 
L 122.021326 277.112058 
L 122.183996 276.866098 
L 122.428001 275.564202 
L 122.672005 273.170212 
L 122.91601 268.121242 
L 123.160014 258.523686 
L 123.404019 240.510454 
L 123.648023 200.29771 
L 123.973362 145.048107 
L 124.054697 141.67198 
L 124.136032 146.157721 
L 124.542706 194.053076 
L 124.624041 193.822448 
L 124.786711 177.112449 
L 125.11205 131.474201 
L 125.193385 133.575979 
L 125.356055 163.718811 
L 125.762729 242.408328 
L 126.088068 263.723999 
L 126.413408 272.02836 
L 126.982752 281.119637 
L 127.389426 283.934188 
L 127.714765 284.587759 
L 127.95877 285.021049 
L 128.690783 286.911154 
L 128.934788 287.073309 
L 129.260127 287.068499 
L 131.293498 287.811885 
L 131.537503 287.857903 
L 131.944177 288.005593 
L 132.67619 288.063867 
L 132.920195 288.062696 
L 133.489539 287.779147 
L 133.733543 287.566656 
L 134.384222 288.160137 
L 135.19757 288.320673 
L 136.092254 288.412763 
L 136.417593 288.421242 
L 137.068272 288.301963 
L 137.312276 288.226938 
L 137.800285 288.396004 
L 138.369629 288.418318 
L 138.613634 288.492445 
L 144.713747 288.561108 
L 145.039086 288.593006 
L 145.689765 288.617618 
L 148.536484 288.721595 
L 148.861823 288.643375 
L 149.756507 288.523354 
L 150.48852 288.298446 
L 150.81386 288.454879 
L 151.220534 288.463145 
L 151.545873 288.374259 
L 152.115217 288.544458 
L 152.684561 288.427565 
L 153.0099 288.568079 
L 153.497909 288.582587 
L 153.823249 288.567119 
L 154.067253 288.549293 
L 154.392592 288.471099 
L 155.043271 288.238102 
L 155.937954 288.428367 
L 156.181959 288.339967 
L 156.751303 288.208128 
L 157.239312 288.417978 
L 157.645986 288.479839 
L 158.296665 288.598118 
L 159.354018 288.205772 
L 159.679357 287.912182 
L 159.923362 287.978473 
L 160.248701 288.090958 
L 160.655375 287.865498 
L 161.550058 288.339475 
L 162.038067 288.498802 
L 163.09542 288.244656 
L 163.502094 287.936281 
L 163.746099 288.047228 
L 163.990104 288.079313 
L 164.966122 287.702963 
L 165.291461 288.122152 
L 165.535465 288.062348 
L 166.104809 287.918057 
L 166.918158 288.493391 
L 167.650171 288.496573 
L 168.870194 287.733282 
L 169.358203 287.866835 
L 169.683542 287.904804 
L 170.252886 288.454474 
L 170.903565 288.542708 
L 171.147569 288.617037 
L 171.391574 288.590063 
L 171.879583 288.652478 
L 172.367592 288.581104 
L 172.774266 288.688319 
L 173.34361 288.48701 
L 174.075624 288.162534 
L 174.400963 288.212614 
L 174.888972 288.125432 
L 175.376981 288.216677 
L 176.02766 287.850965 
L 176.271664 287.878942 
L 176.759673 287.631123 
L 177.166348 287.923446 
L 177.573022 288.227925 
L 177.979696 288.4986 
L 178.38637 288.610194 
L 178.874379 288.620738 
L 179.769062 288.448949 
L 180.419741 287.9532 
L 180.826415 287.391775 
L 181.07042 287.28885 
L 181.395759 287.321144 
L 181.721099 287.106142 
L 182.046438 286.728286 
L 182.209108 286.821004 
L 182.941121 287.726542 
L 183.185126 287.75113 
L 184.161144 288.482018 
L 184.974492 288.509405 
L 185.787841 288.35843 
L 187.089198 287.66257 
L 187.821212 288.002751 
L 188.309221 287.90997 
L 188.959899 288.482869 
L 190.423926 288.700013 
L 190.749266 288.673876 
L 191.074605 288.661207 
L 191.887953 288.686882 
L 192.294628 288.753781 
L 192.782637 288.682624 
L 195.792026 288.657821 
L 197.174718 288.740789 
L 197.500057 288.74305 
L 200.428112 288.738039 
L 200.672116 288.788282 
L 200.916121 288.703907 
L 201.322795 288.743876 
L 201.973474 288.67621 
L 202.542817 288.751159 
L 203.356166 288.708258 
L 203.681505 288.696953 
L 204.088179 288.653408 
L 204.332184 288.703418 
L 209.293609 288.517259 
L 209.700283 288.488687 
L 209.862953 288.531319 
L 210.188292 288.491888 
L 212.465668 288.375797 
L 212.791007 288.381167 
L 213.279016 288.282905 
L 214.01103 288.020091 
L 214.499039 287.637286 
L 214.905713 287.443377 
L 215.637727 286.748873 
L 215.800396 286.781991 
L 216.125736 286.316083 
L 216.36974 285.811236 
L 216.613745 284.654962 
L 216.939084 281.656627 
L 217.183089 277.284311 
L 217.427093 267.818312 
L 217.752432 249.980386 
L 218.240441 264.450947 
L 218.321776 263.69853 
L 218.484446 257.244606 
L 218.728451 242.952533 
L 218.89112 250.795193 
L 219.297794 273.289738 
L 219.623134 278.670292 
L 219.948473 280.697382 
L 220.273812 281.324802 
L 220.436482 281.239405 
L 220.680487 280.560586 
L 220.924491 279.019842 
L 221.73784 269.477979 
L 221.981844 261.003502 
L 222.225849 244.240966 
L 222.469853 204.754439 
L 222.713858 154.921108 
L 222.876527 171.746247 
L 223.201867 213.19761 
L 223.283202 214.896213 
L 223.364536 212.294824 
L 223.608541 183.467644 
L 223.771211 171.28798 
L 223.852545 171.638498 
L 224.015215 193.051534 
L 224.421889 250.196247 
L 224.747229 265.266618 
L 225.072568 271.194699 
L 225.479242 274.513506 
L 225.560577 274.590819 
L 225.723247 274.288101 
L 225.885916 273.239304 
L 226.129921 268.810427 
L 226.373925 264.713894 
L 226.536595 264.048799 
L 226.699265 261.968904 
L 226.943269 253.692432 
L 227.187274 235.452559 
L 227.431278 191.766139 
L 227.675283 127.425137 
L 227.756618 130.324822 
L 228.244627 205.20358 
L 228.325962 206.2581 
L 228.407296 203.203971 
L 228.569966 182.729038 
L 228.813971 137.316633 
L 228.895305 143.742369 
L 229.464649 242.538458 
L 229.708654 252.881778 
L 229.952658 255.598059 
L 230.115328 256.409918 
L 230.196663 256.325344 
L 230.359333 254.525156 
L 230.522002 249.538522 
L 230.684672 238.940633 
L 231.091346 188.404983 
L 231.172681 193.594276 
L 231.579355 223.537644 
L 231.66069 222.849298 
L 231.82336 213.106574 
L 231.986029 187.880776 
L 232.230034 131.924957 
L 232.311369 134.585946 
L 233.043382 254.900428 
L 233.368722 267.307168 
L 233.694061 272.242077 
L 234.100735 275.624666 
L 234.263405 275.810752 
L 234.426075 275.279605 
L 234.670079 273.452796 
L 234.995418 268.752824 
L 235.320758 259.74825 
L 235.564762 247.018685 
L 235.808767 218.941926 
L 236.134106 168.581277 
L 236.54078 197.047441 
L 236.622115 195.494833 
L 236.784785 180.167675 
L 237.028789 114.458324 
L 237.191459 69.65067 
L 237.272794 74.290682 
L 237.760803 173.255595 
L 237.842138 174.595128 
L 237.923473 171.326584 
L 238.086142 149.916535 
L 238.492817 74.713584 
L 238.655486 58.728532 
L 238.736821 60.883448 
L 239.306165 159.18231 
L 239.550169 146.778293 
L 239.712839 155.725732 
L 239.956844 191.750048 
L 240.282183 233.474139 
L 240.526188 245.437132 
L 240.688857 247.417237 
L 240.770192 246.667574 
L 240.932862 240.42544 
L 241.258201 210.189562 
L 241.339536 212.993371 
L 241.827545 246.098333 
L 241.90888 246.545002 
L 241.990215 245.332123 
L 242.152884 237.124401 
L 242.396889 224.976523 
L 242.803563 238.477937 
L 242.884898 236.823612 
L 243.047568 225.559808 
L 243.454242 187.997905 
L 243.616911 183.466891 
L 243.779581 194.838485 
L 244.10492 218.086137 
L 244.186255 217.473617 
L 244.348925 205.707452 
L 244.592929 186.66203 
L 244.674264 187.103063 
L 244.836934 202.458123 
L 245.243608 252.508166 
L 245.568948 268.137226 
L 245.975622 277.155649 
L 246.300961 280.743167 
L 246.78897 283.404544 
L 247.11431 284.418706 
L 247.520984 285.022484 
L 247.683653 285.186767 
L 248.171662 285.8225 
L 248.497002 285.883681 
L 249.066346 285.710433 
L 249.717024 286.258257 
L 249.961029 286.160406 
L 250.205033 286.054215 
L 251.099717 287.182017 
L 251.506391 287.351857 
L 251.83173 287.425436 
L 252.238404 287.334376 
L 252.401074 287.278118 
L 252.807748 286.842461 
L 253.133088 287.044365 
L 253.539762 287.063146 
L 253.783766 286.907463 
L 254.51578 287.542981 
L 255.085124 287.707411 
L 255.979807 287.908579 
L 256.467816 287.802165 
L 256.711821 287.759712 
L 257.443834 287.372801 
L 257.931843 286.914972 
L 258.257183 286.957468 
L 258.582522 287.134447 
L 259.070531 287.184827 
L 259.477205 287.495939 
L 259.965214 287.435477 
L 260.290554 287.64142 
L 260.859897 287.963885 
L 261.510576 287.905581 
L 261.754581 287.91112 
L 261.998585 287.91456 
L 262.323925 287.776992 
L 262.649264 287.842949 
L 263.137273 287.596078 
L 263.543947 287.754546 
L 264.113291 287.809233 
L 264.357296 287.828513 
L 264.6013 287.879515 
L 265.089309 287.998558 
L 265.333314 287.98409 
L 265.658653 287.994862 
L 265.902657 287.953102 
L 267.448019 288.209161 
L 267.936028 288.301501 
L 268.424037 288.243768 
L 269.156051 288.294544 
L 269.400056 288.325559 
L 269.64406 288.368628 
L 270.213404 288.160561 
L 270.945418 288.068082 
L 271.840101 288.156593 
L 272.572114 287.727716 
L 272.978788 287.486417 
L 273.629467 287.741206 
L 273.873472 287.430694 
L 274.036141 287.499162 
L 274.52415 287.816529 
L 274.930825 287.694326 
L 275.418834 287.940974 
L 275.744173 287.825973 
L 276.882861 288.201196 
L 277.53354 287.985269 
L 277.940214 287.733945 
L 278.265553 287.730763 
L 278.753562 287.726088 
L 279.078901 287.629786 
L 279.485576 287.805064 
L 279.810915 287.66994 
L 280.136254 287.588551 
L 280.542929 287.672872 
L 280.786933 287.704134 
L 282.169625 288.264638 
L 284.202996 288.19378 
L 284.77234 287.86967 
L 285.016345 287.372448 
L 285.341684 286.639646 
L 285.911028 287.661553 
L 286.236367 287.856014 
L 286.724376 287.861479 
L 287.212385 288.069131 
L 287.61906 287.974108 
L 287.944399 288.241529 
L 288.432408 288.363009 
L 289.001752 288.394605 
L 289.489761 288.392447 
L 289.97777 288.412293 
L 290.221774 288.45636 
L 290.628449 288.322105 
L 291.360462 288.090708 
L 291.848471 287.697799 
L 292.092476 287.63724 
L 292.580485 287.768682 
L 292.905824 287.810782 
L 293.556503 288.139218 
L 294.044512 288.134745 
L 294.532521 287.831418 
L 294.85786 287.557047 
L 295.508539 287.697661 
L 295.752544 287.568898 
L 295.996548 287.679127 
L 296.647227 288.036926 
L 297.37924 288.066503 
L 298.761933 288.393711 
L 299.493946 288.087319 
L 299.90062 287.79183 
L 300.22596 287.845025 
L 300.632634 287.89944 
L 301.039308 287.813431 
L 301.201978 287.926743 
L 301.608652 288.259912 
L 302.340666 288.458873 
L 303.398018 288.517835 
L 304.455371 288.487712 
L 304.780711 288.495473 
L 312.588855 288.625559 
L 312.83286 288.565304 
L 313.483539 288.550241 
L 315.51691 288.576261 
L 315.760914 288.603939 
L 316.004919 288.700516 
L 316.411593 288.538629 
L 316.736932 288.541455 
L 317.224941 288.511734 
L 318.363629 288.572095 
L 318.607633 288.575541 
L 318.932973 288.561339 
L 319.176977 288.495687 
L 319.502317 288.488451 
L 319.908991 288.426576 
L 320.641004 288.47707 
L 323.569059 288.576794 
L 323.813063 288.519202 
L 324.057068 288.565896 
L 324.789081 288.437606 
L 325.27709 288.554882 
L 325.927769 288.525726 
L 331.133199 288.458469 
L 331.539873 288.505098 
L 331.946547 288.570804 
L 332.353221 288.543659 
L 332.597226 288.552948 
L 333.0039 288.497611 
L 333.491909 288.646652 
L 333.898583 288.515753 
L 335.443945 288.555377 
L 335.769285 288.571038 
L 336.257294 288.616708 
L 336.663968 288.521634 
L 337.070642 288.439962 
L 337.639986 288.393858 
L 337.965325 288.457414 
L 340.40537 288.566049 
L 340.73071 288.515438 
L 341.056049 288.502924 
L 341.300054 288.473619 
L 341.869398 288.469841 
L 342.276072 288.409423 
L 342.520076 288.389556 
L 342.845416 288.485274 
L 343.25209 288.447232 
L 343.658764 288.401146 
L 344.390778 288.541002 
L 344.878787 288.442357 
L 348.701524 288.340157 
L 348.945529 288.27366 
L 349.677542 288.414331 
L 350.084216 288.112358 
L 350.328221 287.828291 
L 350.572225 287.037536 
L 350.81623 286.67514 
L 351.060234 286.647533 
L 351.222904 286.682265 
L 351.385574 286.621094 
L 351.792248 285.955086 
L 352.198922 284.493277 
L 352.442927 283.044618 
L 352.768266 279.577197 
L 353.012271 274.557277 
L 353.256275 264.851594 
L 353.581614 241.335126 
L 353.825619 202.201997 
L 353.988289 139.833777 
L 354.232293 24.042727 
L 354.476298 124.278603 
L 354.801637 230.678335 
L 355.126976 262.356693 
L 355.452316 275.293342 
L 355.85899 281.998919 
L 356.265664 284.981099 
L 356.672338 286.322629 
L 357.160347 287.181878 
L 357.811026 288.225474 
L 357.892361 288.11579 
L 358.2177 287.653545 
L 358.949714 287.619038 
L 359.356388 287.860409 
L 359.681727 287.942349 
L 360.007067 288.02373 
L 363.5858 288.452917 
L 363.992474 288.440772 
L 364.399148 288.514082 
L 366.188515 288.559182 
L 366.432519 288.577245 
L 367.001863 288.522207 
L 367.327202 288.571239 
L 367.815211 288.472127 
L 368.709895 288.542741 
L 369.035234 288.510025 
L 371.963288 288.555195 
L 372.207293 288.582158 
L 372.532632 288.538279 
L 373.020641 288.587813 
L 373.50865 288.497386 
L 374.159329 288.514503 
L 374.810008 288.589052 
L 377.006048 288.534596 
L 377.494057 288.591851 
L 380.828786 288.592156 
L 381.23546 288.608319 
L 381.723469 288.566679 
L 382.211478 288.535268 
L 382.536817 288.589634 
L 383.675505 288.600134 
L 384.082179 288.583329 
L 384.407519 288.56244 
L 385.871546 288.640214 
L 387.010234 288.54229 
L 387.335573 288.638328 
L 387.742247 288.565804 
L 387.986252 288.590585 
L 388.474261 288.552681 
L 390.751636 288.665669 
L 391.32098 288.64525 
L 391.646319 288.606235 
L 393.110346 288.58453 
L 393.354351 288.596914 
L 394.818378 288.599226 
L 395.713061 288.624097 
L 396.20107 288.589843 
L 396.770414 288.640483 
L 397.502428 288.64219 
L 397.990437 288.629206 
L 398.803785 288.578775 
L 399.210459 288.564032 
L 401.24383 288.597599 
L 401.487835 288.656908 
L 401.650505 288.667612 
L 401.894509 288.630749 
L 402.707858 288.671835 
L 403.521206 288.631499 
L 405.066568 288.621485 
L 405.391907 288.69654 
L 406.205256 288.5874 
L 406.530595 288.57628 
L 406.937269 288.616654 
L 407.343943 288.62501 
L 407.994622 288.644285 
L 408.401296 288.623776 
L 411.49202 288.682827 
L 412.142699 288.703051 
L 413.200052 288.65431 
L 413.525391 288.682988 
L 413.769396 288.627336 
L 417.185459 288.637475 
L 417.673468 288.646141 
L 419.625504 288.668645 
L 420.194848 288.693181 
L 420.438853 288.64581 
L 420.845527 288.600517 
L 421.333536 288.600773 
L 422.390889 288.594506 
L 422.878898 288.560402 
L 423.204237 288.575046 
L 423.773581 288.391833 
L 424.017586 288.240855 
L 424.26159 287.818823 
L 424.505595 287.180511 
L 424.830934 287.911935 
L 425.156273 288.410787 
L 425.400278 288.463102 
L 425.725617 288.541056 
L 426.213626 288.509226 
L 427.514984 288.706434 
L 428.897676 288.318727 
L 429.14168 288.075465 
L 429.46702 287.808301 
L 429.873694 287.679375 
L 430.036364 287.695435 
L 430.036364 287.695435 
" style="fill:none;stroke:#4c72b0;stroke-linecap:square;"/>
   </g>
   <g id="patch_3">
    <path d="M 10.8 302.14 
L 450 302.14 
" style="fill:none;stroke:#000000;stroke-linecap:square;stroke-linejoin:miter;stroke-width:1.3;"/>
   </g>
   <g id="text_10">
    <!-- $\mathrm{CHCl_3}$ -->
    <defs>
     <path d="M 9.8125 72.90625 
L 19.671875 72.90625 
L 19.671875 43.015625 
L 55.515625 43.015625 
L 55.515625 72.90625 
L 65.375 72.90625 
L 65.375 0 
L 55.515625 0 
L 55.515625 34.71875 
L 19.671875 34.71875 
L 19.671875 0 
L 9.8125 0 
z
" id="DejaVuSans-72"/>
     <path d="M 40.578125 39.3125 
Q 47.65625 37.796875 51.625 33 
Q 55.609375 28.21875 55.609375 21.1875 
Q 55.609375 10.40625 48.1875 4.484375 
Q 40.765625 -1.421875 27.09375 -1.421875 
Q 22.515625 -1.421875 17.65625 -0.515625 
Q 12.796875 0.390625 7.625 2.203125 
L 7.625 11.71875 
Q 11.71875 9.328125 16.59375 8.109375 
Q 21.484375 6.890625 26.8125 6.890625 
Q 36.078125 6.890625 40.9375 10.546875 
Q 45.796875 14.203125 45.796875 21.1875 
Q 45.796875 27.640625 41.28125 31.265625 
Q 36.765625 34.90625 28.71875 34.90625 
L 20.21875 34.90625 
L 20.21875 43.015625 
L 29.109375 43.015625 
Q 36.375 43.015625 40.234375 45.921875 
Q 44.09375 48.828125 44.09375 54.296875 
Q 44.09375 59.90625 40.109375 62.90625 
Q 36.140625 65.921875 28.71875 65.921875 
Q 24.65625 65.921875 20.015625 65.03125 
Q 15.375 64.15625 9.8125 62.3125 
L 9.8125 71.09375 
Q 15.4375 72.65625 20.34375 73.4375 
Q 25.25 74.21875 29.59375 74.21875 
Q 40.828125 74.21875 47.359375 69.109375 
Q 53.90625 64.015625 53.90625 55.328125 
Q 53.90625 49.265625 50.4375 45.09375 
Q 46.96875 40.921875 40.578125 39.3125 
z
" id="DejaVuSans-51"/>
    </defs>
    <g style="fill:#ff0000;" transform="translate(358.114239 69.068)scale(0.1 -0.1)">
     <use transform="translate(0 0.015625)" xlink:href="#DejaVuSans-67"/>
     <use transform="translate(69.824219 0.015625)" xlink:href="#DejaVuSans-72"/>
     <use transform="translate(145.019531 0.015625)" xlink:href="#DejaVuSans-67"/>
     <use transform="translate(214.84375 0.015625)" xlink:href="#DejaVuSans-108"/>
     <use transform="translate(243.583984 -16.390625)scale(0.7)" xlink:href="#DejaVuSans-51"/>
    </g>
   </g>
  </g>
 </g>
 <defs>
  <clipPath id="p15019fcc9d">
   <rect height="291.34" width="439.2" x="10.8" y="10.8"/>
  </clipPath>
 </defs>
</svg>
