<?xml version="1.0" encoding="utf-8" standalone="no"?>
<!DOCTYPE svg PUBLIC "-//W3C//DTD SVG 1.1//EN"
  "http://www.w3.org/Graphics/SVG/1.1/DTD/svg11.dtd">
<!-- Created with matplotlib (https://matplotlib.org/) -->
<svg height="345.6pt" version="1.1" viewBox="0 0 460.8 345.6" width="460.8pt" xmlns="http://www.w3.org/2000/svg" xmlns:xlink="http://www.w3.org/1999/xlink">
 <defs>
  <style type="text/css">
*{stroke-linecap:butt;stroke-linejoin:round;}
  </style>
 </defs>
 <g id="figure_1">
  <g id="patch_1">
   <path d="M 0 345.6 
L 460.8 345.6 
L 460.8 0 
L 0 0 
z
" style="fill:#ffffff;"/>
  </g>
  <g id="axes_1">
   <g id="patch_2">
    <path d="M 10.8 302.14 
L 450 302.14 
L 450 10.8 
L 10.8 10.8 
z
" style="fill:#ffffff;"/>
   </g>
   <g id="matplotlib.axis_1">
    <g id="xtick_1">
     <g id="line2d_1">
      <defs>
       <path d="M 0 0 
L 0 5 
" id="m6914c83a3d" style="stroke:#000000;stroke-width:1.3;"/>
      </defs>
      <g>
       <use style="stroke:#000000;stroke-width:1.3;" x="389.996167" xlink:href="#m6914c83a3d" y="302.14"/>
      </g>
     </g>
     <g id="text_1">
      <!-- 7.6 -->
      <defs>
       <path d="M 8.203125 72.90625 
L 55.078125 72.90625 
L 55.078125 68.703125 
L 28.609375 0 
L 18.3125 0 
L 43.21875 64.59375 
L 8.203125 64.59375 
z
" id="DejaVuSans-55"/>
       <path d="M 10.6875 12.40625 
L 21 12.40625 
L 21 0 
L 10.6875 0 
z
" id="DejaVuSans-46"/>
       <path d="M 33.015625 40.375 
Q 26.375 40.375 22.484375 35.828125 
Q 18.609375 31.296875 18.609375 23.390625 
Q 18.609375 15.53125 22.484375 10.953125 
Q 26.375 6.390625 33.015625 6.390625 
Q 39.65625 6.390625 43.53125 10.953125 
Q 47.40625 15.53125 47.40625 23.390625 
Q 47.40625 31.296875 43.53125 35.828125 
Q 39.65625 40.375 33.015625 40.375 
z
M 52.59375 71.296875 
L 52.59375 62.3125 
Q 48.875 64.0625 45.09375 64.984375 
Q 41.3125 65.921875 37.59375 65.921875 
Q 27.828125 65.921875 22.671875 59.328125 
Q 17.53125 52.734375 16.796875 39.40625 
Q 19.671875 43.65625 24.015625 45.921875 
Q 28.375 48.1875 33.59375 48.1875 
Q 44.578125 48.1875 50.953125 41.515625 
Q 57.328125 34.859375 57.328125 23.390625 
Q 57.328125 12.15625 50.6875 5.359375 
Q 44.046875 -1.421875 33.015625 -1.421875 
Q 20.359375 -1.421875 13.671875 8.265625 
Q 6.984375 17.96875 6.984375 36.375 
Q 6.984375 53.65625 15.1875 63.9375 
Q 23.390625 74.21875 37.203125 74.21875 
Q 40.921875 74.21875 44.703125 73.484375 
Q 48.484375 72.75 52.59375 71.296875 
z
" id="DejaVuSans-54"/>
      </defs>
      <g transform="translate(382.044604 318.238437)scale(0.1 -0.1)">
       <use xlink:href="#DejaVuSans-55"/>
       <use x="63.623047" xlink:href="#DejaVuSans-46"/>
       <use x="95.410156" xlink:href="#DejaVuSans-54"/>
      </g>
     </g>
    </g>
    <g id="xtick_2">
     <g id="line2d_2">
      <g>
       <use style="stroke:#000000;stroke-width:1.3;" x="310.151702" xlink:href="#m6914c83a3d" y="302.14"/>
      </g>
     </g>
     <g id="text_2">
      <!-- 7.8 -->
      <defs>
       <path d="M 31.78125 34.625 
Q 24.75 34.625 20.71875 30.859375 
Q 16.703125 27.09375 16.703125 20.515625 
Q 16.703125 13.921875 20.71875 10.15625 
Q 24.75 6.390625 31.78125 6.390625 
Q 38.8125 6.390625 42.859375 10.171875 
Q 46.921875 13.96875 46.921875 20.515625 
Q 46.921875 27.09375 42.890625 30.859375 
Q 38.875 34.625 31.78125 34.625 
z
M 21.921875 38.8125 
Q 15.578125 40.375 12.03125 44.71875 
Q 8.5 49.078125 8.5 55.328125 
Q 8.5 64.0625 14.71875 69.140625 
Q 20.953125 74.21875 31.78125 74.21875 
Q 42.671875 74.21875 48.875 69.140625 
Q 55.078125 64.0625 55.078125 55.328125 
Q 55.078125 49.078125 51.53125 44.71875 
Q 48 40.375 41.703125 38.8125 
Q 48.828125 37.15625 52.796875 32.3125 
Q 56.78125 27.484375 56.78125 20.515625 
Q 56.78125 9.90625 50.3125 4.234375 
Q 43.84375 -1.421875 31.78125 -1.421875 
Q 19.734375 -1.421875 13.25 4.234375 
Q 6.78125 9.90625 6.78125 20.515625 
Q 6.78125 27.484375 10.78125 32.3125 
Q 14.796875 37.15625 21.921875 38.8125 
z
M 18.3125 54.390625 
Q 18.3125 48.734375 21.84375 45.5625 
Q 25.390625 42.390625 31.78125 42.390625 
Q 38.140625 42.390625 41.71875 45.5625 
Q 45.3125 48.734375 45.3125 54.390625 
Q 45.3125 60.0625 41.71875 63.234375 
Q 38.140625 66.40625 31.78125 66.40625 
Q 25.390625 66.40625 21.84375 63.234375 
Q 18.3125 60.0625 18.3125 54.390625 
z
" id="DejaVuSans-56"/>
      </defs>
      <g transform="translate(302.20014 318.238437)scale(0.1 -0.1)">
       <use xlink:href="#DejaVuSans-55"/>
       <use x="63.623047" xlink:href="#DejaVuSans-46"/>
       <use x="95.410156" xlink:href="#DejaVuSans-56"/>
      </g>
     </g>
    </g>
    <g id="xtick_3">
     <g id="line2d_3">
      <g>
       <use style="stroke:#000000;stroke-width:1.3;" x="230.307238" xlink:href="#m6914c83a3d" y="302.14"/>
      </g>
     </g>
     <g id="text_3">
      <!-- 8.0 -->
      <defs>
       <path d="M 31.78125 66.40625 
Q 24.171875 66.40625 20.328125 58.90625 
Q 16.5 51.421875 16.5 36.375 
Q 16.5 21.390625 20.328125 13.890625 
Q 24.171875 6.390625 31.78125 6.390625 
Q 39.453125 6.390625 43.28125 13.890625 
Q 47.125 21.390625 47.125 36.375 
Q 47.125 51.421875 43.28125 58.90625 
Q 39.453125 66.40625 31.78125 66.40625 
z
M 31.78125 74.21875 
Q 44.046875 74.21875 50.515625 64.515625 
Q 56.984375 54.828125 56.984375 36.375 
Q 56.984375 17.96875 50.515625 8.265625 
Q 44.046875 -1.421875 31.78125 -1.421875 
Q 19.53125 -1.421875 13.0625 8.265625 
Q 6.59375 17.96875 6.59375 36.375 
Q 6.59375 54.828125 13.0625 64.515625 
Q 19.53125 74.21875 31.78125 74.21875 
z
" id="DejaVuSans-48"/>
      </defs>
      <g transform="translate(222.355675 318.238437)scale(0.1 -0.1)">
       <use xlink:href="#DejaVuSans-56"/>
       <use x="63.623047" xlink:href="#DejaVuSans-46"/>
       <use x="95.410156" xlink:href="#DejaVuSans-48"/>
      </g>
     </g>
    </g>
    <g id="xtick_4">
     <g id="line2d_4">
      <g>
       <use style="stroke:#000000;stroke-width:1.3;" x="150.462774" xlink:href="#m6914c83a3d" y="302.14"/>
      </g>
     </g>
     <g id="text_4">
      <!-- 8.2 -->
      <defs>
       <path d="M 19.1875 8.296875 
L 53.609375 8.296875 
L 53.609375 0 
L 7.328125 0 
L 7.328125 8.296875 
Q 12.9375 14.109375 22.625 23.890625 
Q 32.328125 33.6875 34.8125 36.53125 
Q 39.546875 41.84375 41.421875 45.53125 
Q 43.3125 49.21875 43.3125 52.78125 
Q 43.3125 58.59375 39.234375 62.25 
Q 35.15625 65.921875 28.609375 65.921875 
Q 23.96875 65.921875 18.8125 64.3125 
Q 13.671875 62.703125 7.8125 59.421875 
L 7.8125 69.390625 
Q 13.765625 71.78125 18.9375 73 
Q 24.125 74.21875 28.421875 74.21875 
Q 39.75 74.21875 46.484375 68.546875 
Q 53.21875 62.890625 53.21875 53.421875 
Q 53.21875 48.921875 51.53125 44.890625 
Q 49.859375 40.875 45.40625 35.40625 
Q 44.1875 33.984375 37.640625 27.21875 
Q 31.109375 20.453125 19.1875 8.296875 
z
" id="DejaVuSans-50"/>
      </defs>
      <g transform="translate(142.511211 318.238437)scale(0.1 -0.1)">
       <use xlink:href="#DejaVuSans-56"/>
       <use x="63.623047" xlink:href="#DejaVuSans-46"/>
       <use x="95.410156" xlink:href="#DejaVuSans-50"/>
      </g>
     </g>
    </g>
    <g id="xtick_5">
     <g id="line2d_5">
      <g>
       <use style="stroke:#000000;stroke-width:1.3;" x="70.618309" xlink:href="#m6914c83a3d" y="302.14"/>
      </g>
     </g>
     <g id="text_5">
      <!-- 8.4 -->
      <defs>
       <path d="M 37.796875 64.3125 
L 12.890625 25.390625 
L 37.796875 25.390625 
z
M 35.203125 72.90625 
L 47.609375 72.90625 
L 47.609375 25.390625 
L 58.015625 25.390625 
L 58.015625 17.1875 
L 47.609375 17.1875 
L 47.609375 0 
L 37.796875 0 
L 37.796875 17.1875 
L 4.890625 17.1875 
L 4.890625 26.703125 
z
" id="DejaVuSans-52"/>
      </defs>
      <g transform="translate(62.666747 318.238437)scale(0.1 -0.1)">
       <use xlink:href="#DejaVuSans-56"/>
       <use x="63.623047" xlink:href="#DejaVuSans-46"/>
       <use x="95.410156" xlink:href="#DejaVuSans-52"/>
      </g>
     </g>
    </g>
    <g id="xtick_6">
     <g id="line2d_6">
      <defs>
       <path d="M 0 0 
L 0 3 
" id="m249a0a9dbc" style="stroke:#000000;stroke-width:1.3;"/>
      </defs>
      <g>
       <use style="stroke:#000000;stroke-width:1.3;" x="449.879515" xlink:href="#m249a0a9dbc" y="302.14"/>
      </g>
     </g>
    </g>
    <g id="xtick_7">
     <g id="line2d_7">
      <g>
       <use style="stroke:#000000;stroke-width:1.3;" x="429.918399" xlink:href="#m249a0a9dbc" y="302.14"/>
      </g>
     </g>
    </g>
    <g id="xtick_8">
     <g id="line2d_8">
      <g>
       <use style="stroke:#000000;stroke-width:1.3;" x="409.957283" xlink:href="#m249a0a9dbc" y="302.14"/>
      </g>
     </g>
    </g>
    <g id="xtick_9">
     <g id="line2d_9">
      <g>
       <use style="stroke:#000000;stroke-width:1.3;" x="370.03505" xlink:href="#m249a0a9dbc" y="302.14"/>
      </g>
     </g>
    </g>
    <g id="xtick_10">
     <g id="line2d_10">
      <g>
       <use style="stroke:#000000;stroke-width:1.3;" x="350.073934" xlink:href="#m249a0a9dbc" y="302.14"/>
      </g>
     </g>
    </g>
    <g id="xtick_11">
     <g id="line2d_11">
      <g>
       <use style="stroke:#000000;stroke-width:1.3;" x="330.112818" xlink:href="#m249a0a9dbc" y="302.14"/>
      </g>
     </g>
    </g>
    <g id="xtick_12">
     <g id="line2d_12">
      <g>
       <use style="stroke:#000000;stroke-width:1.3;" x="290.190586" xlink:href="#m249a0a9dbc" y="302.14"/>
      </g>
     </g>
    </g>
    <g id="xtick_13">
     <g id="line2d_13">
      <g>
       <use style="stroke:#000000;stroke-width:1.3;" x="270.22947" xlink:href="#m249a0a9dbc" y="302.14"/>
      </g>
     </g>
    </g>
    <g id="xtick_14">
     <g id="line2d_14">
      <g>
       <use style="stroke:#000000;stroke-width:1.3;" x="250.268354" xlink:href="#m249a0a9dbc" y="302.14"/>
      </g>
     </g>
    </g>
    <g id="xtick_15">
     <g id="line2d_15">
      <g>
       <use style="stroke:#000000;stroke-width:1.3;" x="210.346122" xlink:href="#m249a0a9dbc" y="302.14"/>
      </g>
     </g>
    </g>
    <g id="xtick_16">
     <g id="line2d_16">
      <g>
       <use style="stroke:#000000;stroke-width:1.3;" x="190.385006" xlink:href="#m249a0a9dbc" y="302.14"/>
      </g>
     </g>
    </g>
    <g id="xtick_17">
     <g id="line2d_17">
      <g>
       <use style="stroke:#000000;stroke-width:1.3;" x="170.42389" xlink:href="#m249a0a9dbc" y="302.14"/>
      </g>
     </g>
    </g>
    <g id="xtick_18">
     <g id="line2d_18">
      <g>
       <use style="stroke:#000000;stroke-width:1.3;" x="130.501658" xlink:href="#m249a0a9dbc" y="302.14"/>
      </g>
     </g>
    </g>
    <g id="xtick_19">
     <g id="line2d_19">
      <g>
       <use style="stroke:#000000;stroke-width:1.3;" x="110.540542" xlink:href="#m249a0a9dbc" y="302.14"/>
      </g>
     </g>
    </g>
    <g id="xtick_20">
     <g id="line2d_20">
      <g>
       <use style="stroke:#000000;stroke-width:1.3;" x="90.579425" xlink:href="#m249a0a9dbc" y="302.14"/>
      </g>
     </g>
    </g>
    <g id="xtick_21">
     <g id="line2d_21">
      <g>
       <use style="stroke:#000000;stroke-width:1.3;" x="50.657193" xlink:href="#m249a0a9dbc" y="302.14"/>
      </g>
     </g>
    </g>
    <g id="xtick_22">
     <g id="line2d_22">
      <g>
       <use style="stroke:#000000;stroke-width:1.3;" x="30.696077" xlink:href="#m249a0a9dbc" y="302.14"/>
      </g>
     </g>
    </g>
    <g id="text_6">
     <!-- Chemical shift (ppm) -->
     <defs>
      <path d="M 64.40625 67.28125 
L 64.40625 56.890625 
Q 59.421875 61.53125 53.78125 63.8125 
Q 48.140625 66.109375 41.796875 66.109375 
Q 29.296875 66.109375 22.65625 58.46875 
Q 16.015625 50.828125 16.015625 36.375 
Q 16.015625 21.96875 22.65625 14.328125 
Q 29.296875 6.6875 41.796875 6.6875 
Q 48.140625 6.6875 53.78125 8.984375 
Q 59.421875 11.28125 64.40625 15.921875 
L 64.40625 5.609375 
Q 59.234375 2.09375 53.4375 0.328125 
Q 47.65625 -1.421875 41.21875 -1.421875 
Q 24.65625 -1.421875 15.125 8.703125 
Q 5.609375 18.84375 5.609375 36.375 
Q 5.609375 53.953125 15.125 64.078125 
Q 24.65625 74.21875 41.21875 74.21875 
Q 47.75 74.21875 53.53125 72.484375 
Q 59.328125 70.75 64.40625 67.28125 
z
" id="DejaVuSans-67"/>
      <path d="M 54.890625 33.015625 
L 54.890625 0 
L 45.90625 0 
L 45.90625 32.71875 
Q 45.90625 40.484375 42.875 44.328125 
Q 39.84375 48.1875 33.796875 48.1875 
Q 26.515625 48.1875 22.3125 43.546875 
Q 18.109375 38.921875 18.109375 30.90625 
L 18.109375 0 
L 9.078125 0 
L 9.078125 75.984375 
L 18.109375 75.984375 
L 18.109375 46.1875 
Q 21.34375 51.125 25.703125 53.5625 
Q 30.078125 56 35.796875 56 
Q 45.21875 56 50.046875 50.171875 
Q 54.890625 44.34375 54.890625 33.015625 
z
" id="DejaVuSans-104"/>
      <path d="M 56.203125 29.59375 
L 56.203125 25.203125 
L 14.890625 25.203125 
Q 15.484375 15.921875 20.484375 11.0625 
Q 25.484375 6.203125 34.421875 6.203125 
Q 39.59375 6.203125 44.453125 7.46875 
Q 49.3125 8.734375 54.109375 11.28125 
L 54.109375 2.78125 
Q 49.265625 0.734375 44.1875 -0.34375 
Q 39.109375 -1.421875 33.890625 -1.421875 
Q 20.796875 -1.421875 13.15625 6.1875 
Q 5.515625 13.8125 5.515625 26.8125 
Q 5.515625 40.234375 12.765625 48.109375 
Q 20.015625 56 32.328125 56 
Q 43.359375 56 49.78125 48.890625 
Q 56.203125 41.796875 56.203125 29.59375 
z
M 47.21875 32.234375 
Q 47.125 39.59375 43.09375 43.984375 
Q 39.0625 48.390625 32.421875 48.390625 
Q 24.90625 48.390625 20.390625 44.140625 
Q 15.875 39.890625 15.1875 32.171875 
z
" id="DejaVuSans-101"/>
      <path d="M 52 44.1875 
Q 55.375 50.25 60.0625 53.125 
Q 64.75 56 71.09375 56 
Q 79.640625 56 84.28125 50.015625 
Q 88.921875 44.046875 88.921875 33.015625 
L 88.921875 0 
L 79.890625 0 
L 79.890625 32.71875 
Q 79.890625 40.578125 77.09375 44.375 
Q 74.3125 48.1875 68.609375 48.1875 
Q 61.625 48.1875 57.5625 43.546875 
Q 53.515625 38.921875 53.515625 30.90625 
L 53.515625 0 
L 44.484375 0 
L 44.484375 32.71875 
Q 44.484375 40.625 41.703125 44.40625 
Q 38.921875 48.1875 33.109375 48.1875 
Q 26.21875 48.1875 22.15625 43.53125 
Q 18.109375 38.875 18.109375 30.90625 
L 18.109375 0 
L 9.078125 0 
L 9.078125 54.6875 
L 18.109375 54.6875 
L 18.109375 46.1875 
Q 21.1875 51.21875 25.484375 53.609375 
Q 29.78125 56 35.6875 56 
Q 41.65625 56 45.828125 52.96875 
Q 50 49.953125 52 44.1875 
z
" id="DejaVuSans-109"/>
      <path d="M 9.421875 54.6875 
L 18.40625 54.6875 
L 18.40625 0 
L 9.421875 0 
z
M 9.421875 75.984375 
L 18.40625 75.984375 
L 18.40625 64.59375 
L 9.421875 64.59375 
z
" id="DejaVuSans-105"/>
      <path d="M 48.78125 52.59375 
L 48.78125 44.1875 
Q 44.96875 46.296875 41.140625 47.34375 
Q 37.3125 48.390625 33.40625 48.390625 
Q 24.65625 48.390625 19.8125 42.84375 
Q 14.984375 37.3125 14.984375 27.296875 
Q 14.984375 17.28125 19.8125 11.734375 
Q 24.65625 6.203125 33.40625 6.203125 
Q 37.3125 6.203125 41.140625 7.25 
Q 44.96875 8.296875 48.78125 10.40625 
L 48.78125 2.09375 
Q 45.015625 0.34375 40.984375 -0.53125 
Q 36.96875 -1.421875 32.421875 -1.421875 
Q 20.0625 -1.421875 12.78125 6.34375 
Q 5.515625 14.109375 5.515625 27.296875 
Q 5.515625 40.671875 12.859375 48.328125 
Q 20.21875 56 33.015625 56 
Q 37.15625 56 41.109375 55.140625 
Q 45.0625 54.296875 48.78125 52.59375 
z
" id="DejaVuSans-99"/>
      <path d="M 34.28125 27.484375 
Q 23.390625 27.484375 19.1875 25 
Q 14.984375 22.515625 14.984375 16.5 
Q 14.984375 11.71875 18.140625 8.90625 
Q 21.296875 6.109375 26.703125 6.109375 
Q 34.1875 6.109375 38.703125 11.40625 
Q 43.21875 16.703125 43.21875 25.484375 
L 43.21875 27.484375 
z
M 52.203125 31.203125 
L 52.203125 0 
L 43.21875 0 
L 43.21875 8.296875 
Q 40.140625 3.328125 35.546875 0.953125 
Q 30.953125 -1.421875 24.3125 -1.421875 
Q 15.921875 -1.421875 10.953125 3.296875 
Q 6 8.015625 6 15.921875 
Q 6 25.140625 12.171875 29.828125 
Q 18.359375 34.515625 30.609375 34.515625 
L 43.21875 34.515625 
L 43.21875 35.40625 
Q 43.21875 41.609375 39.140625 45 
Q 35.0625 48.390625 27.6875 48.390625 
Q 23 48.390625 18.546875 47.265625 
Q 14.109375 46.140625 10.015625 43.890625 
L 10.015625 52.203125 
Q 14.9375 54.109375 19.578125 55.046875 
Q 24.21875 56 28.609375 56 
Q 40.484375 56 46.34375 49.84375 
Q 52.203125 43.703125 52.203125 31.203125 
z
" id="DejaVuSans-97"/>
      <path d="M 9.421875 75.984375 
L 18.40625 75.984375 
L 18.40625 0 
L 9.421875 0 
z
" id="DejaVuSans-108"/>
      <path id="DejaVuSans-32"/>
      <path d="M 44.28125 53.078125 
L 44.28125 44.578125 
Q 40.484375 46.53125 36.375 47.5 
Q 32.28125 48.484375 27.875 48.484375 
Q 21.1875 48.484375 17.84375 46.4375 
Q 14.5 44.390625 14.5 40.28125 
Q 14.5 37.15625 16.890625 35.375 
Q 19.28125 33.59375 26.515625 31.984375 
L 29.59375 31.296875 
Q 39.15625 29.25 43.1875 25.515625 
Q 47.21875 21.78125 47.21875 15.09375 
Q 47.21875 7.46875 41.1875 3.015625 
Q 35.15625 -1.421875 24.609375 -1.421875 
Q 20.21875 -1.421875 15.453125 -0.5625 
Q 10.6875 0.296875 5.421875 2 
L 5.421875 11.28125 
Q 10.40625 8.6875 15.234375 7.390625 
Q 20.0625 6.109375 24.8125 6.109375 
Q 31.15625 6.109375 34.5625 8.28125 
Q 37.984375 10.453125 37.984375 14.40625 
Q 37.984375 18.0625 35.515625 20.015625 
Q 33.0625 21.96875 24.703125 23.78125 
L 21.578125 24.515625 
Q 13.234375 26.265625 9.515625 29.90625 
Q 5.8125 33.546875 5.8125 39.890625 
Q 5.8125 47.609375 11.28125 51.796875 
Q 16.75 56 26.8125 56 
Q 31.78125 56 36.171875 55.265625 
Q 40.578125 54.546875 44.28125 53.078125 
z
" id="DejaVuSans-115"/>
      <path d="M 37.109375 75.984375 
L 37.109375 68.5 
L 28.515625 68.5 
Q 23.6875 68.5 21.796875 66.546875 
Q 19.921875 64.59375 19.921875 59.515625 
L 19.921875 54.6875 
L 34.71875 54.6875 
L 34.71875 47.703125 
L 19.921875 47.703125 
L 19.921875 0 
L 10.890625 0 
L 10.890625 47.703125 
L 2.296875 47.703125 
L 2.296875 54.6875 
L 10.890625 54.6875 
L 10.890625 58.5 
Q 10.890625 67.625 15.140625 71.796875 
Q 19.390625 75.984375 28.609375 75.984375 
z
" id="DejaVuSans-102"/>
      <path d="M 18.3125 70.21875 
L 18.3125 54.6875 
L 36.8125 54.6875 
L 36.8125 47.703125 
L 18.3125 47.703125 
L 18.3125 18.015625 
Q 18.3125 11.328125 20.140625 9.421875 
Q 21.96875 7.515625 27.59375 7.515625 
L 36.8125 7.515625 
L 36.8125 0 
L 27.59375 0 
Q 17.1875 0 13.234375 3.875 
Q 9.28125 7.765625 9.28125 18.015625 
L 9.28125 47.703125 
L 2.6875 47.703125 
L 2.6875 54.6875 
L 9.28125 54.6875 
L 9.28125 70.21875 
z
" id="DejaVuSans-116"/>
      <path d="M 31 75.875 
Q 24.46875 64.65625 21.28125 53.65625 
Q 18.109375 42.671875 18.109375 31.390625 
Q 18.109375 20.125 21.3125 9.0625 
Q 24.515625 -2 31 -13.1875 
L 23.1875 -13.1875 
Q 15.875 -1.703125 12.234375 9.375 
Q 8.59375 20.453125 8.59375 31.390625 
Q 8.59375 42.28125 12.203125 53.3125 
Q 15.828125 64.359375 23.1875 75.875 
z
" id="DejaVuSans-40"/>
      <path d="M 18.109375 8.203125 
L 18.109375 -20.796875 
L 9.078125 -20.796875 
L 9.078125 54.6875 
L 18.109375 54.6875 
L 18.109375 46.390625 
Q 20.953125 51.265625 25.265625 53.625 
Q 29.59375 56 35.59375 56 
Q 45.5625 56 51.78125 48.09375 
Q 58.015625 40.1875 58.015625 27.296875 
Q 58.015625 14.40625 51.78125 6.484375 
Q 45.5625 -1.421875 35.59375 -1.421875 
Q 29.59375 -1.421875 25.265625 0.953125 
Q 20.953125 3.328125 18.109375 8.203125 
z
M 48.6875 27.296875 
Q 48.6875 37.203125 44.609375 42.84375 
Q 40.53125 48.484375 33.40625 48.484375 
Q 26.265625 48.484375 22.1875 42.84375 
Q 18.109375 37.203125 18.109375 27.296875 
Q 18.109375 17.390625 22.1875 11.75 
Q 26.265625 6.109375 33.40625 6.109375 
Q 40.53125 6.109375 44.609375 11.75 
Q 48.6875 17.390625 48.6875 27.296875 
z
" id="DejaVuSans-112"/>
      <path d="M 8.015625 75.875 
L 15.828125 75.875 
Q 23.140625 64.359375 26.78125 53.3125 
Q 30.421875 42.28125 30.421875 31.390625 
Q 30.421875 20.453125 26.78125 9.375 
Q 23.140625 -1.703125 15.828125 -13.1875 
L 8.015625 -13.1875 
Q 14.5 -2 17.703125 9.0625 
Q 20.90625 20.125 20.90625 31.390625 
Q 20.90625 42.671875 17.703125 53.65625 
Q 14.5 64.65625 8.015625 75.875 
z
" id="DejaVuSans-41"/>
     </defs>
     <g transform="translate(178.107812 331.916562)scale(0.1 -0.1)">
      <use xlink:href="#DejaVuSans-67"/>
      <use x="69.824219" xlink:href="#DejaVuSans-104"/>
      <use x="133.203125" xlink:href="#DejaVuSans-101"/>
      <use x="194.726562" xlink:href="#DejaVuSans-109"/>
      <use x="292.138672" xlink:href="#DejaVuSans-105"/>
      <use x="319.921875" xlink:href="#DejaVuSans-99"/>
      <use x="374.902344" xlink:href="#DejaVuSans-97"/>
      <use x="436.181641" xlink:href="#DejaVuSans-108"/>
      <use x="463.964844" xlink:href="#DejaVuSans-32"/>
      <use x="495.751953" xlink:href="#DejaVuSans-115"/>
      <use x="547.851562" xlink:href="#DejaVuSans-104"/>
      <use x="611.230469" xlink:href="#DejaVuSans-105"/>
      <use x="639.013672" xlink:href="#DejaVuSans-102"/>
      <use x="672.46875" xlink:href="#DejaVuSans-116"/>
      <use x="711.677734" xlink:href="#DejaVuSans-32"/>
      <use x="743.464844" xlink:href="#DejaVuSans-40"/>
      <use x="782.478516" xlink:href="#DejaVuSans-112"/>
      <use x="845.955078" xlink:href="#DejaVuSans-112"/>
      <use x="909.431641" xlink:href="#DejaVuSans-109"/>
      <use x="1006.84375" xlink:href="#DejaVuSans-41"/>
     </g>
    </g>
   </g>
   <g id="line2d_23">
    <path clip-path="url(#pa887ea0c3b)" d="M 30.763636 288.777783 
L 32.593484 288.789516 
L 33.081443 288.864342 
L 34.179352 288.777011 
L 34.911291 288.763499 
L 35.64323 288.821915 
L 39.424915 288.732945 
L 40.766803 288.798262 
L 46.500325 288.730609 
L 47.842213 288.769681 
L 48.452162 288.820552 
L 49.79405 288.728658 
L 50.647979 288.819501 
L 51.867878 288.776314 
L 52.477827 288.767389 
L 52.965786 288.689389 
L 53.941705 288.774647 
L 73.948038 288.705277 
L 75.045946 288.750766 
L 75.533906 288.751044 
L 76.753804 288.722326 
L 77.729723 288.56121 
L 78.217682 288.321915 
L 78.583651 288.050769 
L 79.43758 288.016163 
L 79.80355 288.104945 
L 80.413499 287.975227 
L 80.657479 288.144214 
L 81.145438 288.558261 
L 82.365336 288.739575 
L 83.585235 288.693098 
L 84.073194 288.762599 
L 84.561153 288.668351 
L 84.927123 288.671115 
L 85.293092 288.572942 
L 86.63498 287.935558 
L 87.488909 288.100307 
L 87.976869 287.911996 
L 88.342838 288.122666 
L 89.074777 288.600732 
L 92.124523 288.716969 
L 93.466411 288.747677 
L 94.930289 288.760272 
L 95.662228 288.792602 
L 96.028198 288.825042 
L 96.394167 288.773331 
L 97.126106 288.840715 
L 98.589984 288.79233 
L 99.809883 288.768721 
L 100.175852 288.797327 
L 102.249679 288.806958 
L 103.225598 288.782146 
L 103.713557 288.812399 
L 104.079527 288.807803 
L 116.03453 288.861412 
L 116.4005 288.840974 
L 117.132439 288.752758 
L 117.742388 288.775607 
L 121.768053 288.78541 
L 122.256012 288.730944 
L 122.743971 288.747154 
L 123.96387 288.791811 
L 125.061778 288.80466 
L 125.549738 288.809935 
L 131.16127 288.785879 
L 131.40525 288.734931 
L 131.893209 288.809807 
L 133.113107 288.779753 
L 133.723056 288.798716 
L 134.211016 288.759109 
L 134.698975 288.807931 
L 135.674894 288.749321 
L 137.260762 288.797196 
L 138.11469 288.751911 
L 138.846629 288.783484 
L 139.578568 288.668645 
L 142.140355 288.690824 
L 142.506324 288.722726 
L 143.238263 288.678535 
L 143.482243 288.585585 
L 143.970202 288.589197 
L 144.336172 288.442649 
L 145.67806 288.647121 
L 146.04403 288.574787 
L 149.459745 288.357876 
L 150.313674 288.083697 
L 150.557654 287.997939 
L 152.387501 288.460286 
L 152.631481 288.45299 
L 152.99745 288.313995 
L 153.973369 288.39015 
L 154.461328 288.277356 
L 154.949288 288.172229 
L 156.169186 288.022729 
L 156.657145 287.876557 
L 157.267094 287.268201 
L 157.999033 286.037497 
L 158.365003 285.055044 
L 159.096942 281.959849 
L 159.462911 280.535912 
L 159.706891 280.55766 
L 159.950871 280.582098 
L 160.19485 280.286089 
L 160.56082 279.236768 
L 160.8048 278.027794 
L 161.048779 275.960134 
L 161.414749 270.285759 
L 161.780718 260.220488 
L 162.146688 240.977303 
L 162.390667 216.873506 
L 162.878627 156.223493 
L 163.366586 141.403879 
L 163.854545 163.434055 
L 163.976535 159.650567 
L 164.342505 132.813827 
L 164.708474 135.579267 
L 164.830464 140.837962 
L 165.806383 251.141087 
L 166.172352 263.094147 
L 166.660312 270.31717 
L 167.148271 273.872533 
L 167.51424 275.167177 
L 167.63623 275.336058 
L 167.75822 275.260581 
L 168.0022 274.688942 
L 168.368169 272.841667 
L 168.612149 270.800187 
L 168.978118 264.99035 
L 169.344088 253.946468 
L 169.710057 233.218692 
L 169.954037 206.542198 
L 170.563986 123.370427 
L 170.685976 119.485528 
L 170.807966 124.647257 
L 171.417915 179.760312 
L 171.539905 179.494929 
L 171.661895 173.10623 
L 172.271844 107.750971 
L 172.393834 110.169482 
L 172.637814 144.854756 
L 173.125773 223.749741 
L 173.491742 250.709344 
L 173.857712 263.101633 
L 174.345671 271.254672 
L 174.95562 278.932876 
L 175.44358 282.206023 
L 175.809549 283.465548 
L 176.297509 284.060211 
L 176.663478 284.7037 
L 177.395417 286.381337 
L 177.761387 286.707625 
L 178.005366 286.798443 
L 178.493326 286.792908 
L 181.543071 287.64832 
L 181.909041 287.701273 
L 182.51899 287.87122 
L 183.494909 287.931602 
L 184.226848 287.893909 
L 184.714807 287.695044 
L 185.202766 287.366136 
L 186.056695 288.005181 
L 186.666644 288.162754 
L 187.154604 288.171534 
L 188.008533 288.321337 
L 190.08236 288.266861 
L 190.570319 288.125921 
L 191.302258 288.320465 
L 192.034197 288.286233 
L 192.522156 288.431439 
L 201.671394 288.510449 
L 202.037364 288.522504 
L 202.647313 288.557795 
L 203.013282 288.551147 
L 203.501242 288.536976 
L 203.745221 288.511966 
L 204.233181 288.59415 
L 206.063028 288.625304 
L 206.916957 288.622799 
L 208.502825 288.594822 
L 209.356754 288.432327 
L 210.454662 288.29032 
L 210.820632 288.388211 
L 211.308591 288.426836 
L 212.04053 288.339736 
L 212.528489 288.500177 
L 212.894459 288.463804 
L 213.504408 288.2978 
L 214.114357 288.51847 
L 214.724306 288.51761 
L 215.334255 288.517366 
L 215.700225 288.496853 
L 216.188184 288.406876 
L 217.164103 288.138767 
L 218.505991 288.357704 
L 218.871961 288.255982 
L 219.72589 288.104276 
L 220.457829 288.34575 
L 221.067778 288.416933 
L 221.921707 288.551282 
L 222.287676 288.474226 
L 223.019615 288.399756 
L 223.385585 288.296834 
L 224.239513 287.767406 
L 224.605483 287.907646 
L 224.971452 287.969448 
L 225.459412 287.688299 
L 226.069361 287.878778 
L 226.8013 288.238859 
L 228.143188 288.318066 
L 228.997117 288.297856 
L 229.973036 287.797913 
L 230.460995 287.974649 
L 230.948954 287.812569 
L 231.192934 287.769417 
L 231.436914 287.736392 
L 231.802883 287.425127 
L 232.046863 287.522983 
L 232.534822 288.005343 
L 232.900792 287.936527 
L 233.632731 287.708309 
L 234.36467 288.202242 
L 234.852629 288.427289 
L 236.194517 288.37418 
L 236.804466 288.11947 
L 237.170436 287.940039 
L 237.536405 287.621246 
L 238.024365 287.604332 
L 238.512324 287.709009 
L 239.122273 287.755242 
L 239.976202 288.387745 
L 240.952121 288.489276 
L 241.31809 288.574806 
L 241.68406 288.543767 
L 242.415999 288.615589 
L 243.147938 288.533458 
L 243.635897 288.660467 
L 244.123856 288.574881 
L 245.709724 288.051811 
L 246.197684 288.109438 
L 246.929623 288.009118 
L 247.661562 288.114113 
L 248.63748 287.69329 
L 249.00345 287.725482 
L 249.613399 287.436231 
L 249.979368 287.536286 
L 251.687226 288.492209 
L 252.175185 288.566932 
L 252.785135 288.574881 
L 253.761053 288.511056 
L 254.858962 288.201694 
L 255.95687 287.095631 
L 256.20085 287.046465 
L 256.566819 287.116012 
L 257.054779 286.923404 
L 257.298758 286.675617 
L 257.542738 286.42519 
L 257.786718 286.429868 
L 258.030697 286.635666 
L 258.762636 287.511961 
L 259.006616 287.550116 
L 259.372586 287.57841 
L 260.714474 288.384972 
L 261.324423 288.444069 
L 262.178352 288.44415 
L 263.15427 288.347138 
L 263.886209 288.01707 
L 264.496159 287.834483 
L 264.984118 287.43958 
L 265.228098 287.476503 
L 266.204016 287.858027 
L 266.569986 287.789802 
L 266.935955 287.703946 
L 267.301925 287.957087 
L 267.911874 288.403008 
L 270.229681 288.670286 
L 270.59565 288.61087 
L 271.08361 288.651308 
L 271.449579 288.647753 
L 272.059528 288.651887 
L 272.425498 288.655177 
L 273.035447 288.732157 
L 273.523406 288.694514 
L 275.475244 288.729024 
L 276.451162 288.70125 
L 278.15902 288.661246 
L 278.52499 288.636239 
L 278.890959 288.679201 
L 279.378918 288.610082 
L 279.866878 288.671137 
L 280.232847 288.665596 
L 280.598817 288.740287 
L 284.014532 288.651974 
L 284.380502 288.707817 
L 284.990451 288.643516 
L 285.6004 288.771858 
L 285.966369 288.674767 
L 286.576319 288.720759 
L 287.430247 288.590091 
L 287.796217 288.640201 
L 289.382085 288.658666 
L 290.723973 288.616658 
L 291.089943 288.674204 
L 298.531322 288.459992 
L 299.019282 288.413868 
L 300.11719 288.431051 
L 301.093109 288.364646 
L 301.947038 288.380369 
L 302.313007 288.358117 
L 302.678977 288.377933 
L 305.484743 287.957503 
L 306.582651 287.433369 
L 306.826631 287.323146 
L 308.046529 286.425115 
L 308.290509 286.463224 
L 308.656479 286.080678 
L 309.144438 285.346178 
L 309.388418 284.589232 
L 309.754387 282.570329 
L 310.120357 279.199569 
L 310.486326 272.952279 
L 310.730306 264.64177 
L 311.218265 244.115716 
L 311.584235 254.54131 
L 311.828214 260.037792 
L 311.950204 260.766951 
L 312.072194 259.901148 
L 312.316174 252.474635 
L 312.682143 236.028785 
L 312.926123 245.053313 
L 313.414082 267.730911 
L 313.780052 274.88877 
L 314.146021 277.913364 
L 314.511991 279.461681 
L 314.87796 280.10627 
L 315.12194 280.19094 
L 315.36592 279.892408 
L 315.731889 278.897218 
L 315.975869 277.53134 
L 317.195767 266.551544 
L 317.561737 256.799987 
L 317.927706 237.511382 
L 318.171686 211.996894 
L 318.659645 134.731263 
L 318.781635 140.512603 
L 319.391584 201.789876 
L 319.513574 203.744454 
L 319.635564 200.751042 
L 319.879543 180.765249 
L 320.123523 158.114221 
L 320.245513 153.564578 
L 320.367503 153.967919 
L 320.611482 178.607841 
L 321.099442 235.828112 
L 321.465411 255.385199 
L 321.831381 263.957886 
L 322.31934 269.570324 
L 322.68531 271.979388 
L 322.929289 272.434875 
L 323.173269 272.086538 
L 323.417249 270.879691 
L 323.661228 267.965299 
L 324.149188 261.069524 
L 324.393167 260.304201 
L 324.637147 257.910872 
L 324.881127 252.442549 
L 325.125106 243.130389 
L 325.369086 227.398586 
L 325.613066 199.280626 
L 326.101025 103.091724 
L 326.223015 106.428384 
L 326.954954 192.591167 
L 327.076944 193.8046 
L 327.198933 190.290223 
L 327.442913 166.729773 
L 327.808883 114.473841 
L 327.930872 121.867918 
L 328.784801 235.55231 
L 329.150771 247.45434 
L 329.39475 249.88206 
L 329.76072 251.514162 
L 329.88271 251.416843 
L 330.0047 250.754186 
L 330.248679 247.071209 
L 330.492659 238.60627 
L 330.736639 221.013211 
L 331.224598 173.261067 
L 331.468578 188.197447 
L 331.834547 211.248986 
L 331.956537 213.688125 
L 332.078527 212.896047 
L 332.322506 201.685121 
L 332.566486 172.657864 
L 332.932456 108.269654 
L 333.054445 111.331647 
L 334.030364 243.846218 
L 334.396334 258.484375 
L 334.762303 265.915413 
L 335.250262 270.718422 
L 335.738222 273.62452 
L 335.982201 273.838649 
L 336.226181 273.227459 
L 336.470161 272.004939 
L 336.83613 268.801937 
L 337.2021 263.755525 
L 337.568069 255.355571 
L 337.934039 240.707695 
L 338.178018 222.662414 
L 338.787968 150.449983 
L 339.397917 183.205921 
L 339.519907 181.419338 
L 339.763886 163.78242 
L 340.007866 120.841396 
L 340.373836 36.610801 
L 340.495825 41.950051 
L 341.227764 155.828708 
L 341.349754 157.370105 
L 341.471744 153.609 
L 341.715724 128.972515 
L 342.203683 51.178175 
L 342.569653 24.042727 
L 342.691642 26.522383 
L 343.057612 91.378944 
L 343.423581 138.068839 
L 343.545571 139.634617 
L 343.911541 125.361348 
L 344.033531 128.667084 
L 344.27751 145.819229 
L 345.009449 225.122023 
L 345.375419 238.887807 
L 345.619398 241.166309 
L 345.741388 240.303673 
L 345.985368 233.120866 
L 346.473327 198.328523 
L 346.595317 201.554859 
L 347.205266 237.196539 
L 347.449246 240.162629 
L 347.571236 238.766973 
L 347.815215 229.322369 
L 348.059195 215.907955 
L 348.181185 215.343839 
L 348.791134 230.879879 
L 348.913124 228.976253 
L 349.157104 216.015024 
L 349.645063 175.840959 
L 350.011032 167.578819 
L 350.133022 171.659688 
L 350.620982 204.260792 
L 350.742971 207.415091 
L 350.864961 206.710266 
L 351.108941 193.170971 
L 351.47491 171.255456 
L 351.5969 171.762951 
L 351.71889 177.571403 
L 352.572819 253.121516 
L 352.938788 265.008743 
L 353.426748 273.853699 
L 353.914707 278.738538 
L 354.402666 281.254539 
L 355.012616 283.277252 
L 355.500575 284.100965 
L 355.866544 284.438564 
L 356.110524 284.627604 
L 356.720473 285.276746 
L 357.086443 285.419935 
L 357.452412 285.385972 
L 358.184351 285.230185 
L 359.03828 285.874221 
L 359.526239 285.747968 
L 359.770219 285.571338 
L 360.014199 285.761745 
L 360.746138 286.706724 
L 361.112107 286.903795 
L 361.844046 287.118967 
L 362.210016 287.22158 
L 363.185935 287.034116 
L 363.673894 286.54877 
L 363.917874 286.557926 
L 364.649813 286.880173 
L 365.381752 286.702875 
L 366.23568 287.330003 
L 367.089609 287.452097 
L 367.455579 287.552924 
L 368.553487 287.759585 
L 369.163436 287.652664 
L 370.017365 287.454755 
L 371.725223 286.595121 
L 372.091192 286.737907 
L 372.457162 286.868794 
L 373.189101 286.926766 
L 373.79905 287.284761 
L 374.408999 287.202055 
L 374.774969 287.306131 
L 375.750887 287.842667 
L 376.116857 287.87354 
L 376.482826 287.801972 
L 377.092776 287.724747 
L 377.580735 287.766468 
L 378.068694 287.608169 
L 378.556654 287.684065 
L 379.288593 287.399992 
L 379.776552 287.589607 
L 380.630481 287.613907 
L 381.11844 287.667454 
L 381.48441 287.726142 
L 382.094359 287.882233 
L 382.704308 287.868305 
L 383.070277 287.858871 
L 383.314257 287.798094 
L 385.876044 288.144279 
L 386.364003 288.240288 
L 387.217932 288.145286 
L 388.193851 288.218727 
L 388.68181 288.239403 
L 389.047779 288.288963 
L 389.779718 288.058299 
L 391.853546 288.018305 
L 392.463495 288.00271 
L 394.171352 287.324052 
L 394.903291 287.637654 
L 395.147271 287.420045 
L 395.391251 287.209685 
L 395.63523 287.28847 
L 396.24518 287.658545 
L 396.733139 287.542174 
L 396.977119 287.513046 
L 397.709058 287.796862 
L 398.075027 287.665397 
L 398.440997 287.773823 
L 399.294925 288.058359 
L 399.660895 288.070269 
L 400.026864 288.075954 
L 400.758803 287.959076 
L 401.246763 287.569635 
L 402.222681 287.581449 
L 402.588651 287.611253 
L 403.07661 287.402487 
L 403.930539 287.631797 
L 404.662478 287.372036 
L 406.736305 287.808057 
L 407.590234 288.221354 
L 408.322173 288.152891 
L 410.27401 288.215234 
L 410.76197 288.109188 
L 411.493909 287.87333 
L 411.859878 287.592963 
L 412.347838 286.589909 
L 412.591817 286.299428 
L 413.323756 287.410408 
L 414.055695 287.68292 
L 414.299675 287.63312 
L 414.787634 287.759926 
L 415.275594 287.956612 
L 415.641563 287.845713 
L 415.885543 287.762756 
L 416.861462 288.253628 
L 419.667228 288.387436 
L 419.911207 288.389915 
L 420.399167 288.2587 
L 421.619065 287.969161 
L 422.229014 287.564229 
L 422.716974 287.447357 
L 423.326923 287.600546 
L 423.936872 287.647051 
L 424.790801 288.000718 
L 425.52274 288.051567 
L 426.254679 287.765323 
L 426.864628 287.355079 
L 427.718557 287.596631 
L 428.206516 287.368715 
L 428.572486 287.495556 
L 429.548404 287.907274 
L 430.036364 287.869684 
L 430.036364 287.869684 
" style="fill:none;stroke:#4c72b0;stroke-dasharray:3.7,1.6;stroke-dashoffset:0;"/>
   </g>
   <g id="line2d_24">
    <path clip-path="url(#pa887ea0c3b)" d="M 30.763636 288.812156 
L 42.230681 288.813417 
L 47.110274 288.804531 
L 57.6014 288.822098 
L 60.895125 288.807486 
L 66.750637 288.809593 
L 68.336505 288.822475 
L 78.705641 288.663668 
L 80.413499 288.651644 
L 84.073194 288.809119 
L 87.24493 288.686716 
L 88.708808 288.743352 
L 89.684726 288.7905 
L 93.222431 288.806878 
L 101.39575 288.826398 
L 107.739222 288.834806 
L 109.08111 288.816034 
L 119.816215 288.806992 
L 124.08586 288.817636 
L 138.23668 288.810953 
L 139.944538 288.794555 
L 142.384335 288.791404 
L 143.604233 288.779156 
L 145.80005 288.775443 
L 151.045613 288.691235 
L 153.11944 288.723556 
L 155.803216 288.67549 
L 157.389084 288.474349 
L 158.121023 288.206866 
L 158.730972 287.792443 
L 159.584901 287.158283 
L 160.19485 287.113817 
L 160.68281 286.79977 
L 161.048779 286.248626 
L 161.414749 285.113751 
L 161.780718 283.100696 
L 162.146688 279.252059 
L 162.390667 274.4313 
L 162.878627 262.301297 
L 163.366586 259.337375 
L 163.854545 263.74341 
L 163.976535 262.986712 
L 164.342505 257.619364 
L 164.708474 258.172452 
L 164.830464 259.224191 
L 165.806383 281.284816 
L 166.172352 283.675428 
L 166.660312 285.120033 
L 167.270261 285.940753 
L 167.63623 286.12381 
L 168.0022 285.994387 
L 168.490159 285.44971 
L 168.856129 284.535862 
L 169.222098 282.73222 
L 169.588068 279.430039 
L 169.832047 275.418199 
L 170.198017 263.961718 
L 170.441997 257.369588 
L 170.685976 254.953704 
L 170.807966 255.98605 
L 171.417915 267.008661 
L 171.539905 266.955585 
L 171.661895 265.677845 
L 172.271844 252.606793 
L 172.393834 253.090495 
L 172.637814 260.02755 
L 173.125773 275.806547 
L 173.491742 281.198468 
L 173.857712 283.676925 
L 174.345671 285.307533 
L 174.95562 286.843174 
L 175.44358 287.497803 
L 175.809549 287.749708 
L 178.127356 288.412382 
L 180.811132 288.56523 
L 183.738888 288.649906 
L 187.886543 288.716601 
L 190.20435 288.699049 
L 191.058278 288.709485 
L 193.254095 288.74161 
L 194.717974 288.749725 
L 197.767719 288.766719 
L 205.087109 288.763373 
L 207.770886 288.783204 
L 211.064611 288.738805 
L 230.460995 288.651529 
L 230.460995 288.651529 
" style="fill:none;stroke:#ff69b4;stroke-linecap:square;"/>
   </g>
   <g id="patch_3">
    <path d="M 10.8 302.14 
L 450 302.14 
" style="fill:none;stroke:#000000;stroke-linecap:square;stroke-linejoin:miter;stroke-width:1.3;"/>
   </g>
   <g id="legend_1">
    <g id="patch_4">
     <path d="M 17.8 48.15625 
L 199.06875 48.15625 
Q 201.06875 48.15625 201.06875 46.15625 
L 201.06875 17.8 
Q 201.06875 15.8 199.06875 15.8 
L 17.8 15.8 
Q 15.8 15.8 15.8 17.8 
L 15.8 46.15625 
Q 15.8 48.15625 17.8 48.15625 
z
" style="fill:#ffffff;opacity:0.8;stroke:#cccccc;stroke-linejoin:miter;"/>
    </g>
    <g id="line2d_25">
     <path d="M 19.8 23.898438 
L 39.8 23.898438 
" style="fill:none;stroke:#4c72b0;stroke-dasharray:3.7,1.6;stroke-dashoffset:0;"/>
    </g>
    <g id="line2d_26"/>
    <g id="text_7">
     <!-- $\mathrm{C_{20}H_{28}N_2O_4S}$ -->
     <defs>
      <path d="M 9.8125 72.90625 
L 19.671875 72.90625 
L 19.671875 43.015625 
L 55.515625 43.015625 
L 55.515625 72.90625 
L 65.375 72.90625 
L 65.375 0 
L 55.515625 0 
L 55.515625 34.71875 
L 19.671875 34.71875 
L 19.671875 0 
L 9.8125 0 
z
" id="DejaVuSans-72"/>
      <path d="M 9.8125 72.90625 
L 23.09375 72.90625 
L 55.421875 11.921875 
L 55.421875 72.90625 
L 64.984375 72.90625 
L 64.984375 0 
L 51.703125 0 
L 19.390625 60.984375 
L 19.390625 0 
L 9.8125 0 
z
" id="DejaVuSans-78"/>
      <path d="M 39.40625 66.21875 
Q 28.65625 66.21875 22.328125 58.203125 
Q 16.015625 50.203125 16.015625 36.375 
Q 16.015625 22.609375 22.328125 14.59375 
Q 28.65625 6.59375 39.40625 6.59375 
Q 50.140625 6.59375 56.421875 14.59375 
Q 62.703125 22.609375 62.703125 36.375 
Q 62.703125 50.203125 56.421875 58.203125 
Q 50.140625 66.21875 39.40625 66.21875 
z
M 39.40625 74.21875 
Q 54.734375 74.21875 63.90625 63.9375 
Q 73.09375 53.65625 73.09375 36.375 
Q 73.09375 19.140625 63.90625 8.859375 
Q 54.734375 -1.421875 39.40625 -1.421875 
Q 24.03125 -1.421875 14.8125 8.828125 
Q 5.609375 19.09375 5.609375 36.375 
Q 5.609375 53.65625 14.8125 63.9375 
Q 24.03125 74.21875 39.40625 74.21875 
z
" id="DejaVuSans-79"/>
      <path d="M 53.515625 70.515625 
L 53.515625 60.890625 
Q 47.90625 63.578125 42.921875 64.890625 
Q 37.9375 66.21875 33.296875 66.21875 
Q 25.25 66.21875 20.875 63.09375 
Q 16.5 59.96875 16.5 54.203125 
Q 16.5 49.359375 19.40625 46.890625 
Q 22.3125 44.4375 30.421875 42.921875 
L 36.375 41.703125 
Q 47.40625 39.59375 52.65625 34.296875 
Q 57.90625 29 57.90625 20.125 
Q 57.90625 9.515625 50.796875 4.046875 
Q 43.703125 -1.421875 29.984375 -1.421875 
Q 24.8125 -1.421875 18.96875 -0.25 
Q 13.140625 0.921875 6.890625 3.21875 
L 6.890625 13.375 
Q 12.890625 10.015625 18.65625 8.296875 
Q 24.421875 6.59375 29.984375 6.59375 
Q 38.421875 6.59375 43.015625 9.90625 
Q 47.609375 13.234375 47.609375 19.390625 
Q 47.609375 24.75 44.3125 27.78125 
Q 41.015625 30.8125 33.5 32.328125 
L 27.484375 33.5 
Q 16.453125 35.6875 11.515625 40.375 
Q 6.59375 45.0625 6.59375 53.421875 
Q 6.59375 63.09375 13.40625 68.65625 
Q 20.21875 74.21875 32.171875 74.21875 
Q 37.3125 74.21875 42.625 73.28125 
Q 47.953125 72.359375 53.515625 70.515625 
z
" id="DejaVuSans-83"/>
     </defs>
     <g transform="translate(47.8 27.398438)scale(0.1 -0.1)">
      <use transform="translate(0 0.78125)" xlink:href="#DejaVuSans-67"/>
      <use transform="translate(70.78125 -15.625)scale(0.7)" xlink:href="#DejaVuSans-50"/>
      <use transform="translate(115.317383 -15.625)scale(0.7)" xlink:href="#DejaVuSans-48"/>
      <use transform="translate(162.587891 0.78125)" xlink:href="#DejaVuSans-72"/>
      <use transform="translate(238.740234 -15.625)scale(0.7)" xlink:href="#DejaVuSans-50"/>
      <use transform="translate(283.276367 -15.625)scale(0.7)" xlink:href="#DejaVuSans-56"/>
      <use transform="translate(330.546875 0.78125)" xlink:href="#DejaVuSans-78"/>
      <use transform="translate(406.308594 -15.625)scale(0.7)" xlink:href="#DejaVuSans-50"/>
      <use transform="translate(453.579102 0.78125)" xlink:href="#DejaVuSans-79"/>
      <use transform="translate(533.24707 -15.625)scale(0.7)" xlink:href="#DejaVuSans-52"/>
      <use transform="translate(580.517578 0.78125)" xlink:href="#DejaVuSans-83"/>
     </g>
    </g>
    <g id="line2d_27">
     <path d="M 19.8 38.576563 
L 39.8 38.576563 
" style="fill:none;stroke:#ff69b4;stroke-linecap:square;"/>
    </g>
    <g id="line2d_28"/>
    <g id="text_8">
     <!-- Yes, that is the actual formula -->
     <defs>
      <path d="M -0.203125 72.90625 
L 10.40625 72.90625 
L 30.609375 42.921875 
L 50.6875 72.90625 
L 61.28125 72.90625 
L 35.5 34.71875 
L 35.5 0 
L 25.59375 0 
L 25.59375 34.71875 
z
" id="DejaVuSans-89"/>
      <path d="M 11.71875 12.40625 
L 22.015625 12.40625 
L 22.015625 4 
L 14.015625 -11.625 
L 7.71875 -11.625 
L 11.71875 4 
z
" id="DejaVuSans-44"/>
      <path d="M 8.5 21.578125 
L 8.5 54.6875 
L 17.484375 54.6875 
L 17.484375 21.921875 
Q 17.484375 14.15625 20.5 10.265625 
Q 23.53125 6.390625 29.59375 6.390625 
Q 36.859375 6.390625 41.078125 11.03125 
Q 45.3125 15.671875 45.3125 23.6875 
L 45.3125 54.6875 
L 54.296875 54.6875 
L 54.296875 0 
L 45.3125 0 
L 45.3125 8.40625 
Q 42.046875 3.421875 37.71875 1 
Q 33.40625 -1.421875 27.6875 -1.421875 
Q 18.265625 -1.421875 13.375 4.4375 
Q 8.5 10.296875 8.5 21.578125 
z
M 31.109375 56 
z
" id="DejaVuSans-117"/>
      <path d="M 30.609375 48.390625 
Q 23.390625 48.390625 19.1875 42.75 
Q 14.984375 37.109375 14.984375 27.296875 
Q 14.984375 17.484375 19.15625 11.84375 
Q 23.34375 6.203125 30.609375 6.203125 
Q 37.796875 6.203125 41.984375 11.859375 
Q 46.1875 17.53125 46.1875 27.296875 
Q 46.1875 37.015625 41.984375 42.703125 
Q 37.796875 48.390625 30.609375 48.390625 
z
M 30.609375 56 
Q 42.328125 56 49.015625 48.375 
Q 55.71875 40.765625 55.71875 27.296875 
Q 55.71875 13.875 49.015625 6.21875 
Q 42.328125 -1.421875 30.609375 -1.421875 
Q 18.84375 -1.421875 12.171875 6.21875 
Q 5.515625 13.875 5.515625 27.296875 
Q 5.515625 40.765625 12.171875 48.375 
Q 18.84375 56 30.609375 56 
z
" id="DejaVuSans-111"/>
      <path d="M 41.109375 46.296875 
Q 39.59375 47.171875 37.8125 47.578125 
Q 36.03125 48 33.890625 48 
Q 26.265625 48 22.1875 43.046875 
Q 18.109375 38.09375 18.109375 28.8125 
L 18.109375 0 
L 9.078125 0 
L 9.078125 54.6875 
L 18.109375 54.6875 
L 18.109375 46.1875 
Q 20.953125 51.171875 25.484375 53.578125 
Q 30.03125 56 36.53125 56 
Q 37.453125 56 38.578125 55.875 
Q 39.703125 55.765625 41.0625 55.515625 
z
" id="DejaVuSans-114"/>
     </defs>
     <g transform="translate(47.8 42.076563)scale(0.1 -0.1)">
      <use xlink:href="#DejaVuSans-89"/>
      <use x="47.833984" xlink:href="#DejaVuSans-101"/>
      <use x="109.357422" xlink:href="#DejaVuSans-115"/>
      <use x="161.457031" xlink:href="#DejaVuSans-44"/>
      <use x="193.244141" xlink:href="#DejaVuSans-32"/>
      <use x="225.03125" xlink:href="#DejaVuSans-116"/>
      <use x="264.240234" xlink:href="#DejaVuSans-104"/>
      <use x="327.619141" xlink:href="#DejaVuSans-97"/>
      <use x="388.898438" xlink:href="#DejaVuSans-116"/>
      <use x="428.107422" xlink:href="#DejaVuSans-32"/>
      <use x="459.894531" xlink:href="#DejaVuSans-105"/>
      <use x="487.677734" xlink:href="#DejaVuSans-115"/>
      <use x="539.777344" xlink:href="#DejaVuSans-32"/>
      <use x="571.564453" xlink:href="#DejaVuSans-116"/>
      <use x="610.773438" xlink:href="#DejaVuSans-104"/>
      <use x="674.152344" xlink:href="#DejaVuSans-101"/>
      <use x="735.675781" xlink:href="#DejaVuSans-32"/>
      <use x="767.462891" xlink:href="#DejaVuSans-97"/>
      <use x="828.742188" xlink:href="#DejaVuSans-99"/>
      <use x="883.722656" xlink:href="#DejaVuSans-116"/>
      <use x="922.931641" xlink:href="#DejaVuSans-117"/>
      <use x="986.310547" xlink:href="#DejaVuSans-97"/>
      <use x="1047.589844" xlink:href="#DejaVuSans-108"/>
      <use x="1075.373047" xlink:href="#DejaVuSans-32"/>
      <use x="1107.160156" xlink:href="#DejaVuSans-102"/>
      <use x="1142.365234" xlink:href="#DejaVuSans-111"/>
      <use x="1203.546875" xlink:href="#DejaVuSans-114"/>
      <use x="1242.910156" xlink:href="#DejaVuSans-109"/>
      <use x="1340.322266" xlink:href="#DejaVuSans-117"/>
      <use x="1403.701172" xlink:href="#DejaVuSans-108"/>
      <use x="1431.484375" xlink:href="#DejaVuSans-97"/>
     </g>
    </g>
   </g>
  </g>
 </g>
 <defs>
  <clipPath id="pa887ea0c3b">
   <rect height="291.34" width="439.2" x="10.8" y="10.8"/>
  </clipPath>
 </defs>
</svg>
