<?xml version="1.0" encoding="utf-8" standalone="no"?>
<!DOCTYPE svg PUBLIC "-//W3C//DTD SVG 1.1//EN"
  "http://www.w3.org/Graphics/SVG/1.1/DTD/svg11.dtd">
<!-- Created with matplotlib (https://matplotlib.org/) -->
<svg height="345.6pt" version="1.1" viewBox="0 0 460.8 345.6" width="460.8pt" xmlns="http://www.w3.org/2000/svg" xmlns:xlink="http://www.w3.org/1999/xlink">
 <defs>
  <style type="text/css">
*{stroke-linecap:butt;stroke-linejoin:round;}
  </style>
 </defs>
 <g id="figure_1">
  <g id="patch_1">
   <path d="M 0 345.6 
L 460.8 345.6 
L 460.8 0 
L 0 0 
z
" style="fill:#ffffff;"/>
  </g>
  <g id="axes_1">
   <g id="patch_2">
    <path d="M 10.8 302.14 
L 450 302.14 
L 450 10.8 
L 10.8 10.8 
z
" style="fill:#ffffff;"/>
   </g>
   <g id="matplotlib.axis_1">
    <g id="xtick_1">
     <g id="line2d_1">
      <defs>
       <path d="M 0 0 
L 0 5 
" id="m89759231db" style="stroke:#000000;stroke-width:1.3;"/>
      </defs>
      <g>
       <use style="stroke:#000000;stroke-width:1.3;" x="396.367991" xlink:href="#m89759231db" y="302.14"/>
      </g>
     </g>
     <g id="text_1">
      <!-- −4 -->
      <defs>
       <path d="M 10.59375 35.5 
L 73.1875 35.5 
L 73.1875 27.203125 
L 10.59375 27.203125 
z
" id="DejaVuSans-8722"/>
       <path d="M 37.796875 64.3125 
L 12.890625 25.390625 
L 37.796875 25.390625 
z
M 35.203125 72.90625 
L 47.609375 72.90625 
L 47.609375 25.390625 
L 58.015625 25.390625 
L 58.015625 17.1875 
L 47.609375 17.1875 
L 47.609375 0 
L 37.796875 0 
L 37.796875 17.1875 
L 4.890625 17.1875 
L 4.890625 26.703125 
z
" id="DejaVuSans-52"/>
      </defs>
      <g transform="translate(388.996897 318.238437)scale(0.1 -0.1)">
       <use xlink:href="#DejaVuSans-8722"/>
       <use x="83.789062" xlink:href="#DejaVuSans-52"/>
      </g>
     </g>
    </g>
    <g id="xtick_2">
     <g id="line2d_2">
      <g>
       <use style="stroke:#000000;stroke-width:1.3;" x="329.89353" xlink:href="#m89759231db" y="302.14"/>
      </g>
     </g>
     <g id="text_2">
      <!-- −2 -->
      <defs>
       <path d="M 19.1875 8.296875 
L 53.609375 8.296875 
L 53.609375 0 
L 7.328125 0 
L 7.328125 8.296875 
Q 12.9375 14.109375 22.625 23.890625 
Q 32.328125 33.6875 34.8125 36.53125 
Q 39.546875 41.84375 41.421875 45.53125 
Q 43.3125 49.21875 43.3125 52.78125 
Q 43.3125 58.59375 39.234375 62.25 
Q 35.15625 65.921875 28.609375 65.921875 
Q 23.96875 65.921875 18.8125 64.3125 
Q 13.671875 62.703125 7.8125 59.421875 
L 7.8125 69.390625 
Q 13.765625 71.78125 18.9375 73 
Q 24.125 74.21875 28.421875 74.21875 
Q 39.75 74.21875 46.484375 68.546875 
Q 53.21875 62.890625 53.21875 53.421875 
Q 53.21875 48.921875 51.53125 44.890625 
Q 49.859375 40.875 45.40625 35.40625 
Q 44.1875 33.984375 37.640625 27.21875 
Q 31.109375 20.453125 19.1875 8.296875 
z
" id="DejaVuSans-50"/>
      </defs>
      <g transform="translate(322.522436 318.238437)scale(0.1 -0.1)">
       <use xlink:href="#DejaVuSans-8722"/>
       <use x="83.789062" xlink:href="#DejaVuSans-50"/>
      </g>
     </g>
    </g>
    <g id="xtick_3">
     <g id="line2d_3">
      <g>
       <use style="stroke:#000000;stroke-width:1.3;" x="263.419069" xlink:href="#m89759231db" y="302.14"/>
      </g>
     </g>
     <g id="text_3">
      <!-- 0 -->
      <defs>
       <path d="M 31.78125 66.40625 
Q 24.171875 66.40625 20.328125 58.90625 
Q 16.5 51.421875 16.5 36.375 
Q 16.5 21.390625 20.328125 13.890625 
Q 24.171875 6.390625 31.78125 6.390625 
Q 39.453125 6.390625 43.28125 13.890625 
Q 47.125 21.390625 47.125 36.375 
Q 47.125 51.421875 43.28125 58.90625 
Q 39.453125 66.40625 31.78125 66.40625 
z
M 31.78125 74.21875 
Q 44.046875 74.21875 50.515625 64.515625 
Q 56.984375 54.828125 56.984375 36.375 
Q 56.984375 17.96875 50.515625 8.265625 
Q 44.046875 -1.421875 31.78125 -1.421875 
Q 19.53125 -1.421875 13.0625 8.265625 
Q 6.59375 17.96875 6.59375 36.375 
Q 6.59375 54.828125 13.0625 64.515625 
Q 19.53125 74.21875 31.78125 74.21875 
z
" id="DejaVuSans-48"/>
      </defs>
      <g transform="translate(260.237819 318.238437)scale(0.1 -0.1)">
       <use xlink:href="#DejaVuSans-48"/>
      </g>
     </g>
    </g>
    <g id="xtick_4">
     <g id="line2d_4">
      <g>
       <use style="stroke:#000000;stroke-width:1.3;" x="196.944608" xlink:href="#m89759231db" y="302.14"/>
      </g>
     </g>
     <g id="text_4">
      <!-- 2 -->
      <g transform="translate(193.763358 318.238437)scale(0.1 -0.1)">
       <use xlink:href="#DejaVuSans-50"/>
      </g>
     </g>
    </g>
    <g id="xtick_5">
     <g id="line2d_5">
      <g>
       <use style="stroke:#000000;stroke-width:1.3;" x="130.470148" xlink:href="#m89759231db" y="302.14"/>
      </g>
     </g>
     <g id="text_5">
      <!-- 4 -->
      <g transform="translate(127.288898 318.238437)scale(0.1 -0.1)">
       <use xlink:href="#DejaVuSans-52"/>
      </g>
     </g>
    </g>
    <g id="xtick_6">
     <g id="line2d_6">
      <g>
       <use style="stroke:#000000;stroke-width:1.3;" x="63.995687" xlink:href="#m89759231db" y="302.14"/>
      </g>
     </g>
     <g id="text_6">
      <!-- 6 -->
      <defs>
       <path d="M 33.015625 40.375 
Q 26.375 40.375 22.484375 35.828125 
Q 18.609375 31.296875 18.609375 23.390625 
Q 18.609375 15.53125 22.484375 10.953125 
Q 26.375 6.390625 33.015625 6.390625 
Q 39.65625 6.390625 43.53125 10.953125 
Q 47.40625 15.53125 47.40625 23.390625 
Q 47.40625 31.296875 43.53125 35.828125 
Q 39.65625 40.375 33.015625 40.375 
z
M 52.59375 71.296875 
L 52.59375 62.3125 
Q 48.875 64.0625 45.09375 64.984375 
Q 41.3125 65.921875 37.59375 65.921875 
Q 27.828125 65.921875 22.671875 59.328125 
Q 17.53125 52.734375 16.796875 39.40625 
Q 19.671875 43.65625 24.015625 45.921875 
Q 28.375 48.1875 33.59375 48.1875 
Q 44.578125 48.1875 50.953125 41.515625 
Q 57.328125 34.859375 57.328125 23.390625 
Q 57.328125 12.15625 50.6875 5.359375 
Q 44.046875 -1.421875 33.015625 -1.421875 
Q 20.359375 -1.421875 13.671875 8.265625 
Q 6.984375 17.96875 6.984375 36.375 
Q 6.984375 53.65625 15.1875 63.9375 
Q 23.390625 74.21875 37.203125 74.21875 
Q 40.921875 74.21875 44.703125 73.484375 
Q 48.484375 72.75 52.59375 71.296875 
z
" id="DejaVuSans-54"/>
      </defs>
      <g transform="translate(60.814437 318.238437)scale(0.1 -0.1)">
       <use xlink:href="#DejaVuSans-54"/>
      </g>
     </g>
    </g>
    <g id="xtick_7">
     <g id="line2d_7">
      <defs>
       <path d="M 0 0 
L 0 3 
" id="mbc2986f5d4" style="stroke:#000000;stroke-width:1.3;"/>
      </defs>
      <g>
       <use style="stroke:#000000;stroke-width:1.3;" x="446.223836" xlink:href="#mbc2986f5d4" y="302.14"/>
      </g>
     </g>
    </g>
    <g id="xtick_8">
     <g id="line2d_8">
      <g>
       <use style="stroke:#000000;stroke-width:1.3;" x="429.605221" xlink:href="#mbc2986f5d4" y="302.14"/>
      </g>
     </g>
    </g>
    <g id="xtick_9">
     <g id="line2d_9">
      <g>
       <use style="stroke:#000000;stroke-width:1.3;" x="412.986606" xlink:href="#mbc2986f5d4" y="302.14"/>
      </g>
     </g>
    </g>
    <g id="xtick_10">
     <g id="line2d_10">
      <g>
       <use style="stroke:#000000;stroke-width:1.3;" x="379.749376" xlink:href="#mbc2986f5d4" y="302.14"/>
      </g>
     </g>
    </g>
    <g id="xtick_11">
     <g id="line2d_11">
      <g>
       <use style="stroke:#000000;stroke-width:1.3;" x="363.13076" xlink:href="#mbc2986f5d4" y="302.14"/>
      </g>
     </g>
    </g>
    <g id="xtick_12">
     <g id="line2d_12">
      <g>
       <use style="stroke:#000000;stroke-width:1.3;" x="346.512145" xlink:href="#mbc2986f5d4" y="302.14"/>
      </g>
     </g>
    </g>
    <g id="xtick_13">
     <g id="line2d_13">
      <g>
       <use style="stroke:#000000;stroke-width:1.3;" x="313.274915" xlink:href="#mbc2986f5d4" y="302.14"/>
      </g>
     </g>
    </g>
    <g id="xtick_14">
     <g id="line2d_14">
      <g>
       <use style="stroke:#000000;stroke-width:1.3;" x="296.6563" xlink:href="#mbc2986f5d4" y="302.14"/>
      </g>
     </g>
    </g>
    <g id="xtick_15">
     <g id="line2d_15">
      <g>
       <use style="stroke:#000000;stroke-width:1.3;" x="280.037684" xlink:href="#mbc2986f5d4" y="302.14"/>
      </g>
     </g>
    </g>
    <g id="xtick_16">
     <g id="line2d_16">
      <g>
       <use style="stroke:#000000;stroke-width:1.3;" x="246.800454" xlink:href="#mbc2986f5d4" y="302.14"/>
      </g>
     </g>
    </g>
    <g id="xtick_17">
     <g id="line2d_17">
      <g>
       <use style="stroke:#000000;stroke-width:1.3;" x="230.181839" xlink:href="#mbc2986f5d4" y="302.14"/>
      </g>
     </g>
    </g>
    <g id="xtick_18">
     <g id="line2d_18">
      <g>
       <use style="stroke:#000000;stroke-width:1.3;" x="213.563224" xlink:href="#mbc2986f5d4" y="302.14"/>
      </g>
     </g>
    </g>
    <g id="xtick_19">
     <g id="line2d_19">
      <g>
       <use style="stroke:#000000;stroke-width:1.3;" x="180.325993" xlink:href="#mbc2986f5d4" y="302.14"/>
      </g>
     </g>
    </g>
    <g id="xtick_20">
     <g id="line2d_20">
      <g>
       <use style="stroke:#000000;stroke-width:1.3;" x="163.707378" xlink:href="#mbc2986f5d4" y="302.14"/>
      </g>
     </g>
    </g>
    <g id="xtick_21">
     <g id="line2d_21">
      <g>
       <use style="stroke:#000000;stroke-width:1.3;" x="147.088763" xlink:href="#mbc2986f5d4" y="302.14"/>
      </g>
     </g>
    </g>
    <g id="xtick_22">
     <g id="line2d_22">
      <g>
       <use style="stroke:#000000;stroke-width:1.3;" x="113.851532" xlink:href="#mbc2986f5d4" y="302.14"/>
      </g>
     </g>
    </g>
    <g id="xtick_23">
     <g id="line2d_23">
      <g>
       <use style="stroke:#000000;stroke-width:1.3;" x="97.232917" xlink:href="#mbc2986f5d4" y="302.14"/>
      </g>
     </g>
    </g>
    <g id="xtick_24">
     <g id="line2d_24">
      <g>
       <use style="stroke:#000000;stroke-width:1.3;" x="80.614302" xlink:href="#mbc2986f5d4" y="302.14"/>
      </g>
     </g>
    </g>
    <g id="xtick_25">
     <g id="line2d_25">
      <g>
       <use style="stroke:#000000;stroke-width:1.3;" x="47.377071" xlink:href="#mbc2986f5d4" y="302.14"/>
      </g>
     </g>
    </g>
    <g id="xtick_26">
     <g id="line2d_26">
      <g>
       <use style="stroke:#000000;stroke-width:1.3;" x="30.758456" xlink:href="#mbc2986f5d4" y="302.14"/>
      </g>
     </g>
    </g>
    <g id="xtick_27">
     <g id="line2d_27">
      <g>
       <use style="stroke:#000000;stroke-width:1.3;" x="14.139841" xlink:href="#mbc2986f5d4" y="302.14"/>
      </g>
     </g>
    </g>
    <g id="text_7">
     <!-- Chemical shift (ppm) -->
     <defs>
      <path d="M 64.40625 67.28125 
L 64.40625 56.890625 
Q 59.421875 61.53125 53.78125 63.8125 
Q 48.140625 66.109375 41.796875 66.109375 
Q 29.296875 66.109375 22.65625 58.46875 
Q 16.015625 50.828125 16.015625 36.375 
Q 16.015625 21.96875 22.65625 14.328125 
Q 29.296875 6.6875 41.796875 6.6875 
Q 48.140625 6.6875 53.78125 8.984375 
Q 59.421875 11.28125 64.40625 15.921875 
L 64.40625 5.609375 
Q 59.234375 2.09375 53.4375 0.328125 
Q 47.65625 -1.421875 41.21875 -1.421875 
Q 24.65625 -1.421875 15.125 8.703125 
Q 5.609375 18.84375 5.609375 36.375 
Q 5.609375 53.953125 15.125 64.078125 
Q 24.65625 74.21875 41.21875 74.21875 
Q 47.75 74.21875 53.53125 72.484375 
Q 59.328125 70.75 64.40625 67.28125 
z
" id="DejaVuSans-67"/>
      <path d="M 54.890625 33.015625 
L 54.890625 0 
L 45.90625 0 
L 45.90625 32.71875 
Q 45.90625 40.484375 42.875 44.328125 
Q 39.84375 48.1875 33.796875 48.1875 
Q 26.515625 48.1875 22.3125 43.546875 
Q 18.109375 38.921875 18.109375 30.90625 
L 18.109375 0 
L 9.078125 0 
L 9.078125 75.984375 
L 18.109375 75.984375 
L 18.109375 46.1875 
Q 21.34375 51.125 25.703125 53.5625 
Q 30.078125 56 35.796875 56 
Q 45.21875 56 50.046875 50.171875 
Q 54.890625 44.34375 54.890625 33.015625 
z
" id="DejaVuSans-104"/>
      <path d="M 56.203125 29.59375 
L 56.203125 25.203125 
L 14.890625 25.203125 
Q 15.484375 15.921875 20.484375 11.0625 
Q 25.484375 6.203125 34.421875 6.203125 
Q 39.59375 6.203125 44.453125 7.46875 
Q 49.3125 8.734375 54.109375 11.28125 
L 54.109375 2.78125 
Q 49.265625 0.734375 44.1875 -0.34375 
Q 39.109375 -1.421875 33.890625 -1.421875 
Q 20.796875 -1.421875 13.15625 6.1875 
Q 5.515625 13.8125 5.515625 26.8125 
Q 5.515625 40.234375 12.765625 48.109375 
Q 20.015625 56 32.328125 56 
Q 43.359375 56 49.78125 48.890625 
Q 56.203125 41.796875 56.203125 29.59375 
z
M 47.21875 32.234375 
Q 47.125 39.59375 43.09375 43.984375 
Q 39.0625 48.390625 32.421875 48.390625 
Q 24.90625 48.390625 20.390625 44.140625 
Q 15.875 39.890625 15.1875 32.171875 
z
" id="DejaVuSans-101"/>
      <path d="M 52 44.1875 
Q 55.375 50.25 60.0625 53.125 
Q 64.75 56 71.09375 56 
Q 79.640625 56 84.28125 50.015625 
Q 88.921875 44.046875 88.921875 33.015625 
L 88.921875 0 
L 79.890625 0 
L 79.890625 32.71875 
Q 79.890625 40.578125 77.09375 44.375 
Q 74.3125 48.1875 68.609375 48.1875 
Q 61.625 48.1875 57.5625 43.546875 
Q 53.515625 38.921875 53.515625 30.90625 
L 53.515625 0 
L 44.484375 0 
L 44.484375 32.71875 
Q 44.484375 40.625 41.703125 44.40625 
Q 38.921875 48.1875 33.109375 48.1875 
Q 26.21875 48.1875 22.15625 43.53125 
Q 18.109375 38.875 18.109375 30.90625 
L 18.109375 0 
L 9.078125 0 
L 9.078125 54.6875 
L 18.109375 54.6875 
L 18.109375 46.1875 
Q 21.1875 51.21875 25.484375 53.609375 
Q 29.78125 56 35.6875 56 
Q 41.65625 56 45.828125 52.96875 
Q 50 49.953125 52 44.1875 
z
" id="DejaVuSans-109"/>
      <path d="M 9.421875 54.6875 
L 18.40625 54.6875 
L 18.40625 0 
L 9.421875 0 
z
M 9.421875 75.984375 
L 18.40625 75.984375 
L 18.40625 64.59375 
L 9.421875 64.59375 
z
" id="DejaVuSans-105"/>
      <path d="M 48.78125 52.59375 
L 48.78125 44.1875 
Q 44.96875 46.296875 41.140625 47.34375 
Q 37.3125 48.390625 33.40625 48.390625 
Q 24.65625 48.390625 19.8125 42.84375 
Q 14.984375 37.3125 14.984375 27.296875 
Q 14.984375 17.28125 19.8125 11.734375 
Q 24.65625 6.203125 33.40625 6.203125 
Q 37.3125 6.203125 41.140625 7.25 
Q 44.96875 8.296875 48.78125 10.40625 
L 48.78125 2.09375 
Q 45.015625 0.34375 40.984375 -0.53125 
Q 36.96875 -1.421875 32.421875 -1.421875 
Q 20.0625 -1.421875 12.78125 6.34375 
Q 5.515625 14.109375 5.515625 27.296875 
Q 5.515625 40.671875 12.859375 48.328125 
Q 20.21875 56 33.015625 56 
Q 37.15625 56 41.109375 55.140625 
Q 45.0625 54.296875 48.78125 52.59375 
z
" id="DejaVuSans-99"/>
      <path d="M 34.28125 27.484375 
Q 23.390625 27.484375 19.1875 25 
Q 14.984375 22.515625 14.984375 16.5 
Q 14.984375 11.71875 18.140625 8.90625 
Q 21.296875 6.109375 26.703125 6.109375 
Q 34.1875 6.109375 38.703125 11.40625 
Q 43.21875 16.703125 43.21875 25.484375 
L 43.21875 27.484375 
z
M 52.203125 31.203125 
L 52.203125 0 
L 43.21875 0 
L 43.21875 8.296875 
Q 40.140625 3.328125 35.546875 0.953125 
Q 30.953125 -1.421875 24.3125 -1.421875 
Q 15.921875 -1.421875 10.953125 3.296875 
Q 6 8.015625 6 15.921875 
Q 6 25.140625 12.171875 29.828125 
Q 18.359375 34.515625 30.609375 34.515625 
L 43.21875 34.515625 
L 43.21875 35.40625 
Q 43.21875 41.609375 39.140625 45 
Q 35.0625 48.390625 27.6875 48.390625 
Q 23 48.390625 18.546875 47.265625 
Q 14.109375 46.140625 10.015625 43.890625 
L 10.015625 52.203125 
Q 14.9375 54.109375 19.578125 55.046875 
Q 24.21875 56 28.609375 56 
Q 40.484375 56 46.34375 49.84375 
Q 52.203125 43.703125 52.203125 31.203125 
z
" id="DejaVuSans-97"/>
      <path d="M 9.421875 75.984375 
L 18.40625 75.984375 
L 18.40625 0 
L 9.421875 0 
z
" id="DejaVuSans-108"/>
      <path id="DejaVuSans-32"/>
      <path d="M 44.28125 53.078125 
L 44.28125 44.578125 
Q 40.484375 46.53125 36.375 47.5 
Q 32.28125 48.484375 27.875 48.484375 
Q 21.1875 48.484375 17.84375 46.4375 
Q 14.5 44.390625 14.5 40.28125 
Q 14.5 37.15625 16.890625 35.375 
Q 19.28125 33.59375 26.515625 31.984375 
L 29.59375 31.296875 
Q 39.15625 29.25 43.1875 25.515625 
Q 47.21875 21.78125 47.21875 15.09375 
Q 47.21875 7.46875 41.1875 3.015625 
Q 35.15625 -1.421875 24.609375 -1.421875 
Q 20.21875 -1.421875 15.453125 -0.5625 
Q 10.6875 0.296875 5.421875 2 
L 5.421875 11.28125 
Q 10.40625 8.6875 15.234375 7.390625 
Q 20.0625 6.109375 24.8125 6.109375 
Q 31.15625 6.109375 34.5625 8.28125 
Q 37.984375 10.453125 37.984375 14.40625 
Q 37.984375 18.0625 35.515625 20.015625 
Q 33.0625 21.96875 24.703125 23.78125 
L 21.578125 24.515625 
Q 13.234375 26.265625 9.515625 29.90625 
Q 5.8125 33.546875 5.8125 39.890625 
Q 5.8125 47.609375 11.28125 51.796875 
Q 16.75 56 26.8125 56 
Q 31.78125 56 36.171875 55.265625 
Q 40.578125 54.546875 44.28125 53.078125 
z
" id="DejaVuSans-115"/>
      <path d="M 37.109375 75.984375 
L 37.109375 68.5 
L 28.515625 68.5 
Q 23.6875 68.5 21.796875 66.546875 
Q 19.921875 64.59375 19.921875 59.515625 
L 19.921875 54.6875 
L 34.71875 54.6875 
L 34.71875 47.703125 
L 19.921875 47.703125 
L 19.921875 0 
L 10.890625 0 
L 10.890625 47.703125 
L 2.296875 47.703125 
L 2.296875 54.6875 
L 10.890625 54.6875 
L 10.890625 58.5 
Q 10.890625 67.625 15.140625 71.796875 
Q 19.390625 75.984375 28.609375 75.984375 
z
" id="DejaVuSans-102"/>
      <path d="M 18.3125 70.21875 
L 18.3125 54.6875 
L 36.8125 54.6875 
L 36.8125 47.703125 
L 18.3125 47.703125 
L 18.3125 18.015625 
Q 18.3125 11.328125 20.140625 9.421875 
Q 21.96875 7.515625 27.59375 7.515625 
L 36.8125 7.515625 
L 36.8125 0 
L 27.59375 0 
Q 17.1875 0 13.234375 3.875 
Q 9.28125 7.765625 9.28125 18.015625 
L 9.28125 47.703125 
L 2.6875 47.703125 
L 2.6875 54.6875 
L 9.28125 54.6875 
L 9.28125 70.21875 
z
" id="DejaVuSans-116"/>
      <path d="M 31 75.875 
Q 24.46875 64.65625 21.28125 53.65625 
Q 18.109375 42.671875 18.109375 31.390625 
Q 18.109375 20.125 21.3125 9.0625 
Q 24.515625 -2 31 -13.1875 
L 23.1875 -13.1875 
Q 15.875 -1.703125 12.234375 9.375 
Q 8.59375 20.453125 8.59375 31.390625 
Q 8.59375 42.28125 12.203125 53.3125 
Q 15.828125 64.359375 23.1875 75.875 
z
" id="DejaVuSans-40"/>
      <path d="M 18.109375 8.203125 
L 18.109375 -20.796875 
L 9.078125 -20.796875 
L 9.078125 54.6875 
L 18.109375 54.6875 
L 18.109375 46.390625 
Q 20.953125 51.265625 25.265625 53.625 
Q 29.59375 56 35.59375 56 
Q 45.5625 56 51.78125 48.09375 
Q 58.015625 40.1875 58.015625 27.296875 
Q 58.015625 14.40625 51.78125 6.484375 
Q 45.5625 -1.421875 35.59375 -1.421875 
Q 29.59375 -1.421875 25.265625 0.953125 
Q 20.953125 3.328125 18.109375 8.203125 
z
M 48.6875 27.296875 
Q 48.6875 37.203125 44.609375 42.84375 
Q 40.53125 48.484375 33.40625 48.484375 
Q 26.265625 48.484375 22.1875 42.84375 
Q 18.109375 37.203125 18.109375 27.296875 
Q 18.109375 17.390625 22.1875 11.75 
Q 26.265625 6.109375 33.40625 6.109375 
Q 40.53125 6.109375 44.609375 11.75 
Q 48.6875 17.390625 48.6875 27.296875 
z
" id="DejaVuSans-112"/>
      <path d="M 8.015625 75.875 
L 15.828125 75.875 
Q 23.140625 64.359375 26.78125 53.3125 
Q 30.421875 42.28125 30.421875 31.390625 
Q 30.421875 20.453125 26.78125 9.375 
Q 23.140625 -1.703125 15.828125 -13.1875 
L 8.015625 -13.1875 
Q 14.5 -2 17.703125 9.0625 
Q 20.90625 20.125 20.90625 31.390625 
Q 20.90625 42.671875 17.703125 53.65625 
Q 14.5 64.65625 8.015625 75.875 
z
" id="DejaVuSans-41"/>
     </defs>
     <g transform="translate(178.107812 331.916562)scale(0.1 -0.1)">
      <use xlink:href="#DejaVuSans-67"/>
      <use x="69.824219" xlink:href="#DejaVuSans-104"/>
      <use x="133.203125" xlink:href="#DejaVuSans-101"/>
      <use x="194.726562" xlink:href="#DejaVuSans-109"/>
      <use x="292.138672" xlink:href="#DejaVuSans-105"/>
      <use x="319.921875" xlink:href="#DejaVuSans-99"/>
      <use x="374.902344" xlink:href="#DejaVuSans-97"/>
      <use x="436.181641" xlink:href="#DejaVuSans-108"/>
      <use x="463.964844" xlink:href="#DejaVuSans-32"/>
      <use x="495.751953" xlink:href="#DejaVuSans-115"/>
      <use x="547.851562" xlink:href="#DejaVuSans-104"/>
      <use x="611.230469" xlink:href="#DejaVuSans-105"/>
      <use x="639.013672" xlink:href="#DejaVuSans-102"/>
      <use x="672.46875" xlink:href="#DejaVuSans-116"/>
      <use x="711.677734" xlink:href="#DejaVuSans-32"/>
      <use x="743.464844" xlink:href="#DejaVuSans-40"/>
      <use x="782.478516" xlink:href="#DejaVuSans-112"/>
      <use x="845.955078" xlink:href="#DejaVuSans-112"/>
      <use x="909.431641" xlink:href="#DejaVuSans-109"/>
      <use x="1006.84375" xlink:href="#DejaVuSans-41"/>
     </g>
    </g>
   </g>
   <g id="line2d_28">
    <path clip-path="url(#p58b8c8fda7)" d="M 30.763636 288.883895 
L 44.789777 288.884742 
L 45.91715 288.884596 
L 49.126607 288.883882 
L 51.371195 288.885442 
L 51.858708 288.885178 
L 80.28678 288.835066 
L 80.347719 288.578824 
L 80.378188 287.901163 
L 80.439128 288.757254 
L 80.581319 288.867366 
L 81.993074 288.880711 
L 82.90716 288.792014 
L 83.039194 288.613658 
L 83.120446 288.074324 
L 83.222011 285.098463 
L 83.374359 281.424941 
L 83.394672 281.990301 
L 83.597802 287.800199 
L 83.638428 287.880158 
L 83.679054 287.698662 
L 83.770463 285.810988 
L 83.882184 281.200925 
L 83.963437 281.635665 
L 84.176723 288.046298 
L 84.35954 288.492323 
L 84.745488 288.675518 
L 86.015052 288.848592 
L 89.224509 288.786456 
L 89.579987 288.785754 
L 90.03703 288.857807 
L 91.133933 288.875741 
L 91.834732 288.715181 
L 91.98708 288.596448 
L 92.027706 288.682095 
L 92.312088 288.816665 
L 92.555844 288.52658 
L 92.637096 288.669066 
L 92.840226 288.849834 
L 99.025541 288.877869 
L 99.513054 288.881352 
L 99.929471 288.872784 
L 100.874026 288.631394 
L 101.016217 288.534591 
L 101.138095 288.586679 
L 101.178721 288.690807 
L 101.229504 288.529172 
L 101.595138 286.570845 
L 101.70686 282.957432 
L 101.788112 271.816035 
L 101.859207 224.518692 
L 101.94046 24.042727 
L 101.991242 182.181344 
L 102.14359 276.754498 
L 102.336563 284.443753 
L 102.590476 286.869567 
L 102.702198 287.10145 
L 102.915485 287.942687 
L 102.976424 288.057924 
L 103.047519 287.966822 
L 104.357709 288.713377 
L 104.875691 288.780847 
L 108.887512 288.854043 
L 109.852381 288.853709 
L 110.837562 288.726993 
L 111.010223 288.51957 
L 111.121945 287.8857 
L 111.213353 287.153763 
L 111.274292 287.478794 
L 111.497736 288.534096 
L 112.594639 288.846383 
L 122.294106 288.851594 
L 122.649584 288.858519 
L 122.964436 288.808441 
L 123.015218 288.778436 
L 123.076157 288.840199 
L 123.370696 288.865789 
L 124.924642 288.86736 
L 126.945788 288.764576 
L 126.99657 288.671074 
L 127.047353 288.785787 
L 127.1997 288.813106 
L 127.575491 288.623965 
L 127.819247 288.72216 
L 128.50989 288.84868 
L 130.673227 288.605783 
L 130.805261 288.450888 
L 131.038861 287.569108 
L 131.13027 285.85599 
L 131.211522 278.493125 
L 131.323243 247.439538 
L 131.394339 262.321597 
L 131.556843 285.444389 
L 131.729504 287.710916 
L 131.97326 288.281527 
L 132.105295 288.421529 
L 132.338894 288.644274 
L 132.907659 288.761825 
L 133.902997 288.826079 
L 134.268631 288.844875 
L 135.131935 288.830106 
L 135.406161 288.7873 
L 135.63976 288.851215 
L 136.360872 288.862649 
L 137.488245 288.854591 
L 138.49374 288.829797 
L 138.646087 288.82828 
L 139.052348 288.822137 
L 139.722677 288.859497 
L 140.565668 288.778652 
L 140.626607 288.719782 
L 140.687546 288.79368 
L 140.890676 288.822775 
L 141.103963 288.84353 
L 141.500067 288.846678 
L 143.043856 288.683628 
L 143.175891 288.591454 
L 143.216517 288.634081 
L 143.43996 288.556638 
L 143.67356 288.408856 
L 143.856377 287.744494 
L 143.957942 286.16947 
L 144.029038 280.281207 
L 144.069664 275.02185 
L 144.130603 281.431787 
L 144.232168 284.940801 
L 144.272794 284.494896 
L 144.343889 279.709657 
L 144.425142 261.606807 
L 144.475924 273.29227 
L 144.618115 284.289843 
L 144.628272 284.266469 
L 144.679054 283.214306 
L 144.770463 274.58096 
L 144.821245 281.159504 
L 144.973593 287.489457 
L 145.237662 288.299321 
L 145.369697 288.42343 
L 145.42048 288.35916 
L 145.440793 288.339971 
L 145.501732 288.417588 
L 145.755644 288.468696 
L 145.918149 288.446649 
L 145.928305 288.461888 
L 146.151748 288.57249 
L 146.334565 288.575748 
L 146.618948 288.739384 
L 146.771295 288.680915 
L 146.852547 288.511367 
L 146.90333 288.654261 
L 147.045521 288.705556 
L 147.268964 288.497169 
L 147.350216 287.852107 
L 147.441625 285.548539 
L 147.522877 286.661941 
L 147.583816 285.37524 
L 147.614286 284.868098 
L 147.665068 286.055912 
L 147.695538 286.417934 
L 147.736164 285.639656 
L 147.77679 284.460215 
L 147.858042 285.161317 
L 147.939294 281.154964 
L 147.990077 284.032735 
L 148.040859 285.514161 
L 148.111955 284.828311 
L 148.18305 286.338585 
L 148.233833 285.327797 
L 148.274459 283.903828 
L 148.325241 285.699123 
L 148.365867 286.14457 
L 148.41665 285.323643 
L 148.44712 284.762491 
L 148.487746 286.034293 
L 148.65025 288.341692 
L 148.843223 288.521387 
L 148.873693 288.466854 
L 148.894006 288.432719 
L 148.954945 288.529721 
L 148.965102 288.533646 
L 149.889344 288.810792 
L 150.407326 288.792252 
L 150.630769 288.756882 
L 150.986247 288.630788 
L 151.158908 288.289393 
L 151.290942 287.271449 
L 151.362038 284.409179 
L 151.422977 270.449174 
L 151.47376 217.82164 
L 151.524542 267.50475 
L 151.666733 286.717659 
L 151.84955 287.850338 
L 151.981585 287.967764 
L 152.012055 287.942516 
L 152.072994 287.641521 
L 152.144089 285.871585 
L 152.215185 280.007581 
L 152.276124 284.413558 
L 152.337063 285.959656 
L 152.387845 284.789817 
L 152.580819 275.95433 
L 152.601132 277.908029 
L 152.631602 280.20914 
L 152.682384 275.254103 
L 152.702697 277.397499 
L 152.712854 277.909431 
L 152.743323 274.477958 
L 152.773793 267.619336 
L 152.834732 274.784255 
L 152.855045 274.269666 
L 153.149584 287.996371 
L 153.403497 288.446389 
L 153.83007 288.677065 
L 155.414486 288.634667 
L 155.444955 288.448618 
L 155.505894 288.766754 
L 155.668398 288.831683 
L 156.501232 288.794468 
L 156.795771 288.774321 
L 157.161405 288.848095 
L 157.831735 288.818532 
L 157.9333 288.653855 
L 157.973926 288.547076 
L 158.055178 288.6143 
L 158.095804 288.556456 
L 158.13643 288.673897 
L 158.288778 288.800612 
L 158.4005 288.6881 
L 158.552847 288.565246 
L 158.57316 288.539254 
L 158.613786 288.661315 
L 158.77629 288.835694 
L 159.842724 288.860422 
L 164.555345 288.863801 
L 170.171895 288.859544 
L 171.939128 288.859576 
L 173.899334 288.862204 
L 177.37286 288.815368 
L 177.63693 288.839396 
L 178.378355 288.728656 
L 178.490077 288.476886 
L 178.581485 287.477175 
L 178.601798 287.294926 
L 178.662737 287.835689 
L 178.703363 287.996544 
L 178.754146 287.776049 
L 178.865867 285.532622 
L 178.926807 287.032492 
L 178.967433 287.364985 
L 179.018215 286.984254 
L 179.109624 284.769051 
L 179.180719 285.804475 
L 179.241658 286.531386 
L 179.292441 285.866831 
L 179.414319 284.212895 
L 179.444789 284.571681 
L 179.526041 286.513049 
L 179.576823 285.845517 
L 179.658075 284.526003 
L 179.698701 285.362892 
L 179.800266 287.307044 
L 179.840892 287.020538 
L 179.922145 285.610833 
L 179.962771 286.496097 
L 180.074492 287.899064 
L 180.104962 287.799962 
L 180.176057 286.914033 
L 180.22684 287.725098 
L 180.379187 288.603397 
L 180.622944 288.743321 
L 182.065168 288.841524 
L 182.705028 288.835031 
L 183.375358 288.845114 
L 184.512887 288.858033 
L 185.447286 288.846266 
L 188.412987 288.853821 
L 189.022378 288.849002 
L 189.834898 288.754227 
L 189.94662 288.781452 
L 190.18022 288.834658 
L 190.677889 288.847129 
L 191.084149 288.772175 
L 191.114619 288.660246 
L 191.185714 288.812453 
L 191.470097 288.850517 
L 192.343556 288.848393 
L 193.399833 288.801903 
L 200.509391 288.779471 
L 200.550017 288.680166 
L 200.621112 288.800029 
L 201.200033 288.819401 
L 203.007892 288.719297 
L 203.221179 288.727764 
L 203.556344 288.754146 
L 203.698535 288.665661 
L 203.820413 288.454422 
L 203.840726 288.495198 
L 204.00323 288.783329 
L 204.612621 288.778137 
L 204.785281 288.683906 
L 205.069664 288.427502 
L 205.272794 287.679639 
L 205.303263 287.832932 
L 205.364202 288.259182 
L 205.435298 288.145938 
L 205.465768 288.122993 
L 205.486081 288.061884 
L 205.557176 287.531195 
L 205.729837 285.951387 
L 205.607959 287.544531 
L 205.770463 286.5703 
L 205.811089 287.106215 
L 205.882184 286.626355 
L 205.932967 285.978442 
L 205.973593 286.664334 
L 205.993906 286.798071 
L 206.034532 286.128986 
L 206.217349 284.343396 
L 206.237662 284.606439 
L 206.349384 285.786165 
L 206.369697 285.600219 
L 206.410323 284.8251 
L 206.481419 285.438964 
L 206.532201 285.334924 
L 206.582984 283.932241 
L 206.664236 284.823282 
L 206.704862 285.713015 
L 206.755644 284.584329 
L 206.775957 284.079554 
L 206.836896 285.514398 
L 206.907992 284.684152 
L 206.968931 285.371685 
L 206.999401 285.004932 
L 207.070496 280.322761 
L 207.131435 258.022918 
L 207.182218 221.675004 
L 207.26347 228.469664 
L 207.425974 284.112802 
L 207.618948 287.084695 
L 207.893173 287.850333 
L 208.197869 288.202301 
L 208.218182 288.176891 
L 208.30959 288.254691 
L 208.472095 288.315064 
L 208.57366 288.255927 
L 208.786946 288.234544 
L 208.837729 288.25713 
L 208.878355 288.172875 
L 208.949451 287.490144 
L 209.000233 286.452361 
L 209.061172 287.290574 
L 209.071329 287.308496 
L 209.091642 287.211235 
L 209.18305 286.029308 
L 209.233833 286.827509 
L 209.243989 286.879871 
L 209.274459 286.552239 
L 209.315085 285.613357 
L 209.376024 286.707078 
L 209.396337 286.611503 
L 209.487746 283.648387 
L 209.538528 285.531225 
L 209.609624 287.041932 
L 209.660406 286.602849 
L 209.782284 282.042352 
L 209.812754 280.503597 
L 209.873693 282.744566 
L 209.934632 283.935612 
L 209.975258 282.748168 
L 210.127606 279.823327 
L 210.25964 284.581552 
L 210.340892 282.569588 
L 210.351049 282.549583 
L 210.371362 282.700397 
L 210.513553 284.036084 
L 210.462771 282.574282 
L 210.52371 283.984934 
L 210.544023 283.805174 
L 210.574492 284.703705 
L 210.604962 285.35668 
L 210.69637 285.074577 
L 210.72684 285.34576 
L 210.757309 284.903009 
L 210.808092 283.661574 
L 210.848718 284.961693 
L 210.950283 286.934402 
L 211.011222 286.789205 
L 211.112787 285.528038 
L 211.143257 285.001051 
L 211.194039 285.990715 
L 211.285448 287.091987 
L 211.33623 286.955618 
L 211.437796 286.146021 
L 211.478422 285.83104 
L 211.529204 286.285683 
L 211.579987 286.532081 
L 211.640926 286.386894 
L 211.783117 286.27221 
L 211.874525 285.792007 
L 211.955778 285.503916 
L 211.996404 285.686959 
L 212.047186 285.907874 
L 212.097969 285.690646 
L 212.20969 285.1678 
L 212.250316 285.27366 
L 212.463603 286.016908 
L 212.869863 287.318326 
L 212.940959 287.465594 
L 213.28628 288.496969 
L 213.530037 288.62906 
L 214.230836 288.613438 
L 214.505062 288.140698 
L 214.718348 286.584806 
L 214.738661 286.738267 
L 214.860539 288.09908 
L 214.911322 287.967767 
L 215.023044 287.189062 
L 215.104296 284.617379 
L 215.165235 286.365083 
L 215.175391 286.425209 
L 215.205861 286.129579 
L 215.317582 285.243381 
L 215.368365 285.364008 
L 215.388678 285.524486 
L 215.490243 286.991405 
L 215.530869 286.598052 
L 215.591808 284.288818 
L 215.652747 286.190035 
L 215.713686 286.807976 
L 215.754312 286.337991 
L 215.815251 284.363485 
L 215.886347 285.504277 
L 216.008225 287.390612 
L 216.048851 287.117954 
L 216.099634 286.347922 
L 216.150416 287.210131 
L 216.180886 287.339199 
L 216.231668 286.977951 
L 216.292607 286.467071 
L 216.323077 286.982605 
L 216.455112 288.121593 
L 216.475425 288.091788 
L 216.516051 287.994258 
L 216.566833 288.117558 
L 216.627772 288.236074 
L 216.678555 288.119297 
L 216.74965 287.721511 
L 216.790276 288.012318 
L 216.942624 288.364862 
L 217.155911 288.359285 
L 217.399667 288.135396 
L 217.501232 287.456811 
L 217.541858 287.220879 
L 217.62311 287.362206 
L 217.684049 287.241022 
L 217.755145 287.068343 
L 217.816084 287.156627 
L 217.877023 287.050438 
L 217.978588 286.152462 
L 218.26297 283.298179 
L 218.323909 283.011777 
L 218.374692 283.254725 
L 218.395005 283.297251 
L 218.445788 283.12251 
L 218.537196 281.3908 
L 218.872361 275.243441 
L 219.004396 273.63012 
L 219.075491 274.074659 
L 219.095804 274.030422 
L 219.13643 274.178969 
L 219.177056 274.335934 
L 219.217682 274.017947 
L 219.329404 270.737345 
L 219.420813 272.004692 
L 219.461439 272.447256 
L 219.522378 271.997823 
L 219.755977 270.49746 
L 219.938795 268.675778 
L 220.020047 269.144083 
L 220.04036 269.145204 
L 220.060673 269.241161 
L 220.284116 272.355844 
L 220.863037 280.592732 
L 221.106793 283.564733 
L 221.370862 285.822657 
L 221.421645 285.381276 
L 221.441958 285.242602 
L 221.472428 285.896176 
L 221.634932 287.106956 
L 222.132601 288.192651 
L 222.203696 288.288684 
L 222.386513 288.45122 
L 223.03653 288.573944 
L 223.70686 288.224815 
L 223.767799 288.162801 
L 223.818581 288.23332 
L 224.11312 288.514902 
L 224.285781 288.534827 
L 224.600633 288.70672 
L 225.240493 288.661477 
L 225.270962 288.583753 
L 225.331901 288.738604 
L 225.524875 288.807489 
L 226.743656 288.805071 
L 226.814752 288.688119 
L 226.885847 288.813282 
L 227.190543 288.843598 
L 228.805428 288.784179 
L 228.876523 288.589853 
L 228.927306 288.110541 
L 228.978089 288.613097 
L 229.12028 288.791197 
L 229.516384 288.77177 
L 229.76014 288.789818 
L 230.389843 288.827038 
L 231.182051 288.770615 
L 231.293773 288.794471 
L 231.598468 288.732123 
L 231.832068 288.674258 
L 231.984416 288.530819 
L 232.339893 287.80727 
L 232.482085 286.088384 
L 232.563337 281.744902 
L 232.634432 271.783849 
L 232.695371 277.542243 
L 232.817249 280.608942 
L 232.837562 280.470503 
L 232.898501 278.259491 
L 232.969597 264.92435 
L 233.010223 243.573645 
L 233.061006 269.099828 
L 233.213353 283.427024 
L 233.243823 283.667702 
L 233.284449 283.059009 
L 233.355544 276.971867 
L 233.406327 266.659983 
L 233.446953 277.077032 
L 233.599301 286.804414 
L 233.771961 287.945616 
L 234.015718 288.389191 
L 234.239161 288.532046 
L 234.746986 288.712796 
L 235.965768 288.819407 
L 236.45328 288.750091 
L 236.524376 288.595013 
L 236.575158 288.750734 
L 236.757975 288.816939 
L 238.058009 288.843209 
L 238.515052 288.85349 
L 239.662737 288.861085 
L 240.820579 288.8641 
L 247.158242 288.863846 
L 248.834066 288.863564 
L 250.845055 288.861721 
L 252.835731 288.861284 
L 254.135764 288.861374 
L 256.695205 288.859531 
L 258.787446 288.855357 
L 259.071828 288.70678 
L 259.102298 288.456998 
L 259.163237 288.801689 
L 259.325741 288.800155 
L 259.396836 288.715273 
L 259.467932 288.126643 
L 259.539028 288.551985 
L 259.630436 288.78311 
L 259.681219 288.763938 
L 259.762471 288.741208 
L 259.772627 288.703387 
L 259.79294 288.654849 
L 259.864036 288.787153 
L 260.036697 288.842902 
L 262.910989 288.85983 
L 263.672727 288.860594 
L 266.039194 288.860418 
L 316.638928 288.852622 
L 318.040526 288.853812 
L 320.427306 288.853243 
L 323.657076 288.852506 
L 325.282118 288.852533 
L 326.20636 288.851591 
L 327.597802 288.852212 
L 328.247819 288.851544 
L 330.583816 288.853733 
L 331.609624 288.853047 
L 334.615951 288.851732 
L 335.408159 288.850347 
L 336.982418 288.850946 
L 339.227006 288.852117 
L 342.253646 288.850911 
L 349.698368 288.849216 
L 350.602298 288.850427 
L 351.821079 288.850056 
L 353.669564 288.85083 
L 354.705528 288.851027 
L 357.193873 288.850118 
L 363.754978 288.849945 
L 364.831568 288.85028 
L 366.842557 288.848919 
L 367.908991 288.847805 
L 368.833233 288.847229 
L 370.712188 288.848079 
L 372.30676 288.85063 
L 372.824742 288.847617 
L 415.766467 288.845308 
L 416.599301 288.843196 
L 430.036364 288.785806 
L 430.036364 288.785806 
" style="fill:none;stroke:#9400d3;stroke-linecap:square;"/>
   </g>
   <g id="patch_3">
    <path d="M 10.8 302.14 
L 450 302.14 
" style="fill:none;stroke:#000000;stroke-linecap:square;stroke-linejoin:miter;stroke-width:1.3;"/>
   </g>
   <g id="legend_1">
    <g id="patch_4">
     <path d="M 398.6 33.478125 
L 443 33.478125 
Q 445 33.478125 445 31.478125 
L 445 17.8 
Q 445 15.8 443 15.8 
L 398.6 15.8 
Q 396.6 15.8 396.6 17.8 
L 396.6 31.478125 
Q 396.6 33.478125 398.6 33.478125 
z
" style="fill:#ffffff;opacity:0.8;stroke:#cccccc;stroke-linejoin:miter;"/>
    </g>
    <g id="line2d_29">
     <path d="M 400.6 23.898438 
L 420.6 23.898438 
" style="fill:none;stroke:#9400d3;stroke-linecap:square;"/>
    </g>
    <g id="line2d_30"/>
    <g id="text_8">
     <!-- $\mathrm{^{1}H}$ -->
     <defs>
      <path d="M 12.40625 8.296875 
L 28.515625 8.296875 
L 28.515625 63.921875 
L 10.984375 60.40625 
L 10.984375 69.390625 
L 28.421875 72.90625 
L 38.28125 72.90625 
L 38.28125 8.296875 
L 54.390625 8.296875 
L 54.390625 0 
L 12.40625 0 
z
" id="DejaVuSans-49"/>
      <path d="M 9.8125 72.90625 
L 19.671875 72.90625 
L 19.671875 43.015625 
L 55.515625 43.015625 
L 55.515625 72.90625 
L 65.375 72.90625 
L 65.375 0 
L 55.515625 0 
L 55.515625 34.71875 
L 19.671875 34.71875 
L 19.671875 0 
L 9.8125 0 
z
" id="DejaVuSans-72"/>
     </defs>
     <g transform="translate(428.6 27.398438)scale(0.1 -0.1)">
      <use transform="translate(0.957031 38.965625)scale(0.7)" xlink:href="#DejaVuSans-49"/>
      <use transform="translate(48.227539 0.684375)" xlink:href="#DejaVuSans-72"/>
     </g>
    </g>
   </g>
  </g>
 </g>
 <defs>
  <clipPath id="p58b8c8fda7">
   <rect height="291.34" width="439.2" x="10.8" y="10.8"/>
  </clipPath>
 </defs>
</svg>
