<?xml version="1.0" encoding="utf-8" standalone="no"?>
<!DOCTYPE svg PUBLIC "-//W3C//DTD SVG 1.1//EN"
  "http://www.w3.org/Graphics/SVG/1.1/DTD/svg11.dtd">
<!-- Created with matplotlib (https://matplotlib.org/) -->
<svg height="288pt" version="1.1" viewBox="0 0 288 288" width="288pt" xmlns="http://www.w3.org/2000/svg" xmlns:xlink="http://www.w3.org/1999/xlink">
 <defs>
  <style type="text/css">
*{stroke-linecap:butt;stroke-linejoin:round;}
  </style>
 </defs>
 <g id="figure_1">
  <g id="patch_1">
   <path d="M 0 288 
L 288 288 
L 288 0 
L 0 0 
z
" style="fill:#ffffff;"/>
  </g>
  <g id="axes_1">
   <g id="patch_2">
    <path d="M 55.25 241.66 
L 277.2 241.66 
L 277.2 10.8 
L 55.25 10.8 
z
" style="fill:#ffffff;"/>
   </g>
   <g id="matplotlib.axis_1">
    <g id="xtick_1">
     <g id="line2d_1">
      <defs>
       <path d="M 0 0 
L 0 5 
" id="m6028994c62" style="stroke:#000000;stroke-width:1.3;"/>
      </defs>
      <g>
       <use style="stroke:#000000;stroke-width:1.3;" x="235.330658" xlink:href="#m6028994c62" y="241.66"/>
      </g>
     </g>
     <g id="text_1">
      <!-- 2 -->
      <defs>
       <path d="M 19.1875 8.296875 
L 53.609375 8.296875 
L 53.609375 0 
L 7.328125 0 
L 7.328125 8.296875 
Q 12.9375 14.109375 22.625 23.890625 
Q 32.328125 33.6875 34.8125 36.53125 
Q 39.546875 41.84375 41.421875 45.53125 
Q 43.3125 49.21875 43.3125 52.78125 
Q 43.3125 58.59375 39.234375 62.25 
Q 35.15625 65.921875 28.609375 65.921875 
Q 23.96875 65.921875 18.8125 64.3125 
Q 13.671875 62.703125 7.8125 59.421875 
L 7.8125 69.390625 
Q 13.765625 71.78125 18.9375 73 
Q 24.125 74.21875 28.421875 74.21875 
Q 39.75 74.21875 46.484375 68.546875 
Q 53.21875 62.890625 53.21875 53.421875 
Q 53.21875 48.921875 51.53125 44.890625 
Q 49.859375 40.875 45.40625 35.40625 
Q 44.1875 33.984375 37.640625 27.21875 
Q 31.109375 20.453125 19.1875 8.296875 
z
" id="DejaVuSans-50"/>
      </defs>
      <g transform="translate(232.149408 257.758438)scale(0.1 -0.1)">
       <use xlink:href="#DejaVuSans-50"/>
      </g>
     </g>
    </g>
    <g id="xtick_2">
     <g id="line2d_2">
      <g>
       <use style="stroke:#000000;stroke-width:1.3;" x="179.86551" xlink:href="#m6028994c62" y="241.66"/>
      </g>
     </g>
     <g id="text_2">
      <!-- 4 -->
      <defs>
       <path d="M 37.796875 64.3125 
L 12.890625 25.390625 
L 37.796875 25.390625 
z
M 35.203125 72.90625 
L 47.609375 72.90625 
L 47.609375 25.390625 
L 58.015625 25.390625 
L 58.015625 17.1875 
L 47.609375 17.1875 
L 47.609375 0 
L 37.796875 0 
L 37.796875 17.1875 
L 4.890625 17.1875 
L 4.890625 26.703125 
z
" id="DejaVuSans-52"/>
      </defs>
      <g transform="translate(176.68426 257.758438)scale(0.1 -0.1)">
       <use xlink:href="#DejaVuSans-52"/>
      </g>
     </g>
    </g>
    <g id="xtick_3">
     <g id="line2d_3">
      <g>
       <use style="stroke:#000000;stroke-width:1.3;" x="124.400363" xlink:href="#m6028994c62" y="241.66"/>
      </g>
     </g>
     <g id="text_3">
      <!-- 6 -->
      <defs>
       <path d="M 33.015625 40.375 
Q 26.375 40.375 22.484375 35.828125 
Q 18.609375 31.296875 18.609375 23.390625 
Q 18.609375 15.53125 22.484375 10.953125 
Q 26.375 6.390625 33.015625 6.390625 
Q 39.65625 6.390625 43.53125 10.953125 
Q 47.40625 15.53125 47.40625 23.390625 
Q 47.40625 31.296875 43.53125 35.828125 
Q 39.65625 40.375 33.015625 40.375 
z
M 52.59375 71.296875 
L 52.59375 62.3125 
Q 48.875 64.0625 45.09375 64.984375 
Q 41.3125 65.921875 37.59375 65.921875 
Q 27.828125 65.921875 22.671875 59.328125 
Q 17.53125 52.734375 16.796875 39.40625 
Q 19.671875 43.65625 24.015625 45.921875 
Q 28.375 48.1875 33.59375 48.1875 
Q 44.578125 48.1875 50.953125 41.515625 
Q 57.328125 34.859375 57.328125 23.390625 
Q 57.328125 12.15625 50.6875 5.359375 
Q 44.046875 -1.421875 33.015625 -1.421875 
Q 20.359375 -1.421875 13.671875 8.265625 
Q 6.984375 17.96875 6.984375 36.375 
Q 6.984375 53.65625 15.1875 63.9375 
Q 23.390625 74.21875 37.203125 74.21875 
Q 40.921875 74.21875 44.703125 73.484375 
Q 48.484375 72.75 52.59375 71.296875 
z
" id="DejaVuSans-54"/>
      </defs>
      <g transform="translate(121.219113 257.758438)scale(0.1 -0.1)">
       <use xlink:href="#DejaVuSans-54"/>
      </g>
     </g>
    </g>
    <g id="xtick_4">
     <g id="line2d_4">
      <g>
       <use style="stroke:#000000;stroke-width:1.3;" x="68.935215" xlink:href="#m6028994c62" y="241.66"/>
      </g>
     </g>
     <g id="text_4">
      <!-- 8 -->
      <defs>
       <path d="M 31.78125 34.625 
Q 24.75 34.625 20.71875 30.859375 
Q 16.703125 27.09375 16.703125 20.515625 
Q 16.703125 13.921875 20.71875 10.15625 
Q 24.75 6.390625 31.78125 6.390625 
Q 38.8125 6.390625 42.859375 10.171875 
Q 46.921875 13.96875 46.921875 20.515625 
Q 46.921875 27.09375 42.890625 30.859375 
Q 38.875 34.625 31.78125 34.625 
z
M 21.921875 38.8125 
Q 15.578125 40.375 12.03125 44.71875 
Q 8.5 49.078125 8.5 55.328125 
Q 8.5 64.0625 14.71875 69.140625 
Q 20.953125 74.21875 31.78125 74.21875 
Q 42.671875 74.21875 48.875 69.140625 
Q 55.078125 64.0625 55.078125 55.328125 
Q 55.078125 49.078125 51.53125 44.71875 
Q 48 40.375 41.703125 38.8125 
Q 48.828125 37.15625 52.796875 32.3125 
Q 56.78125 27.484375 56.78125 20.515625 
Q 56.78125 9.90625 50.3125 4.234375 
Q 43.84375 -1.421875 31.78125 -1.421875 
Q 19.734375 -1.421875 13.25 4.234375 
Q 6.78125 9.90625 6.78125 20.515625 
Q 6.78125 27.484375 10.78125 32.3125 
Q 14.796875 37.15625 21.921875 38.8125 
z
M 18.3125 54.390625 
Q 18.3125 48.734375 21.84375 45.5625 
Q 25.390625 42.390625 31.78125 42.390625 
Q 38.140625 42.390625 41.71875 45.5625 
Q 45.3125 48.734375 45.3125 54.390625 
Q 45.3125 60.0625 41.71875 63.234375 
Q 38.140625 66.40625 31.78125 66.40625 
Q 25.390625 66.40625 21.84375 63.234375 
Q 18.3125 60.0625 18.3125 54.390625 
z
" id="DejaVuSans-56"/>
      </defs>
      <g transform="translate(65.753965 257.758438)scale(0.1 -0.1)">
       <use xlink:href="#DejaVuSans-56"/>
      </g>
     </g>
    </g>
    <g id="xtick_5">
     <g id="line2d_5">
      <defs>
       <path d="M 0 0 
L 0 3 
" id="m58f389f212" style="stroke:#000000;stroke-width:1.3;"/>
      </defs>
      <g>
       <use style="stroke:#000000;stroke-width:1.3;" x="276.929518" xlink:href="#m58f389f212" y="241.66"/>
      </g>
     </g>
    </g>
    <g id="xtick_6">
     <g id="line2d_6">
      <g>
       <use style="stroke:#000000;stroke-width:1.3;" x="263.063231" xlink:href="#m58f389f212" y="241.66"/>
      </g>
     </g>
    </g>
    <g id="xtick_7">
     <g id="line2d_7">
      <g>
       <use style="stroke:#000000;stroke-width:1.3;" x="249.196944" xlink:href="#m58f389f212" y="241.66"/>
      </g>
     </g>
    </g>
    <g id="xtick_8">
     <g id="line2d_8">
      <g>
       <use style="stroke:#000000;stroke-width:1.3;" x="221.464371" xlink:href="#m58f389f212" y="241.66"/>
      </g>
     </g>
    </g>
    <g id="xtick_9">
     <g id="line2d_9">
      <g>
       <use style="stroke:#000000;stroke-width:1.3;" x="207.598084" xlink:href="#m58f389f212" y="241.66"/>
      </g>
     </g>
    </g>
    <g id="xtick_10">
     <g id="line2d_10">
      <g>
       <use style="stroke:#000000;stroke-width:1.3;" x="193.731797" xlink:href="#m58f389f212" y="241.66"/>
      </g>
     </g>
    </g>
    <g id="xtick_11">
     <g id="line2d_11">
      <g>
       <use style="stroke:#000000;stroke-width:1.3;" x="165.999223" xlink:href="#m58f389f212" y="241.66"/>
      </g>
     </g>
    </g>
    <g id="xtick_12">
     <g id="line2d_12">
      <g>
       <use style="stroke:#000000;stroke-width:1.3;" x="152.132937" xlink:href="#m58f389f212" y="241.66"/>
      </g>
     </g>
    </g>
    <g id="xtick_13">
     <g id="line2d_13">
      <g>
       <use style="stroke:#000000;stroke-width:1.3;" x="138.26665" xlink:href="#m58f389f212" y="241.66"/>
      </g>
     </g>
    </g>
    <g id="xtick_14">
     <g id="line2d_14">
      <g>
       <use style="stroke:#000000;stroke-width:1.3;" x="110.534076" xlink:href="#m58f389f212" y="241.66"/>
      </g>
     </g>
    </g>
    <g id="xtick_15">
     <g id="line2d_15">
      <g>
       <use style="stroke:#000000;stroke-width:1.3;" x="96.667789" xlink:href="#m58f389f212" y="241.66"/>
      </g>
     </g>
    </g>
    <g id="xtick_16">
     <g id="line2d_16">
      <g>
       <use style="stroke:#000000;stroke-width:1.3;" x="82.801502" xlink:href="#m58f389f212" y="241.66"/>
      </g>
     </g>
    </g>
    <g id="text_5">
     <!-- $f_2$ (ppm) -->
     <defs>
      <path d="M 47.796875 75.984375 
L 46.390625 68.5 
L 37.796875 68.5 
Q 32.90625 68.5 30.6875 66.578125 
Q 28.46875 64.65625 27.390625 59.515625 
L 26.421875 54.6875 
L 41.21875 54.6875 
L 39.890625 47.703125 
L 25.09375 47.703125 
L 15.828125 0 
L 6.78125 0 
L 16.109375 47.703125 
L 7.515625 47.703125 
L 8.796875 54.6875 
L 17.390625 54.6875 
L 18.109375 58.5 
Q 19.96875 68.171875 24.625 72.078125 
Q 29.296875 75.984375 39.3125 75.984375 
z
" id="DejaVuSans-Oblique-102"/>
      <path id="DejaVuSans-32"/>
      <path d="M 31 75.875 
Q 24.46875 64.65625 21.28125 53.65625 
Q 18.109375 42.671875 18.109375 31.390625 
Q 18.109375 20.125 21.3125 9.0625 
Q 24.515625 -2 31 -13.1875 
L 23.1875 -13.1875 
Q 15.875 -1.703125 12.234375 9.375 
Q 8.59375 20.453125 8.59375 31.390625 
Q 8.59375 42.28125 12.203125 53.3125 
Q 15.828125 64.359375 23.1875 75.875 
z
" id="DejaVuSans-40"/>
      <path d="M 18.109375 8.203125 
L 18.109375 -20.796875 
L 9.078125 -20.796875 
L 9.078125 54.6875 
L 18.109375 54.6875 
L 18.109375 46.390625 
Q 20.953125 51.265625 25.265625 53.625 
Q 29.59375 56 35.59375 56 
Q 45.5625 56 51.78125 48.09375 
Q 58.015625 40.1875 58.015625 27.296875 
Q 58.015625 14.40625 51.78125 6.484375 
Q 45.5625 -1.421875 35.59375 -1.421875 
Q 29.59375 -1.421875 25.265625 0.953125 
Q 20.953125 3.328125 18.109375 8.203125 
z
M 48.6875 27.296875 
Q 48.6875 37.203125 44.609375 42.84375 
Q 40.53125 48.484375 33.40625 48.484375 
Q 26.265625 48.484375 22.1875 42.84375 
Q 18.109375 37.203125 18.109375 27.296875 
Q 18.109375 17.390625 22.1875 11.75 
Q 26.265625 6.109375 33.40625 6.109375 
Q 40.53125 6.109375 44.609375 11.75 
Q 48.6875 17.390625 48.6875 27.296875 
z
" id="DejaVuSans-112"/>
      <path d="M 52 44.1875 
Q 55.375 50.25 60.0625 53.125 
Q 64.75 56 71.09375 56 
Q 79.640625 56 84.28125 50.015625 
Q 88.921875 44.046875 88.921875 33.015625 
L 88.921875 0 
L 79.890625 0 
L 79.890625 32.71875 
Q 79.890625 40.578125 77.09375 44.375 
Q 74.3125 48.1875 68.609375 48.1875 
Q 61.625 48.1875 57.5625 43.546875 
Q 53.515625 38.921875 53.515625 30.90625 
L 53.515625 0 
L 44.484375 0 
L 44.484375 32.71875 
Q 44.484375 40.625 41.703125 44.40625 
Q 38.921875 48.1875 33.109375 48.1875 
Q 26.21875 48.1875 22.15625 43.53125 
Q 18.109375 38.875 18.109375 30.90625 
L 18.109375 0 
L 9.078125 0 
L 9.078125 54.6875 
L 18.109375 54.6875 
L 18.109375 46.1875 
Q 21.1875 51.21875 25.484375 53.609375 
Q 29.78125 56 35.6875 56 
Q 41.65625 56 45.828125 52.96875 
Q 50 49.953125 52 44.1875 
z
" id="DejaVuSans-109"/>
      <path d="M 8.015625 75.875 
L 15.828125 75.875 
Q 23.140625 64.359375 26.78125 53.3125 
Q 30.421875 42.28125 30.421875 31.390625 
Q 30.421875 20.453125 26.78125 9.375 
Q 23.140625 -1.703125 15.828125 -13.1875 
L 8.015625 -13.1875 
Q 14.5 -2 17.703125 9.0625 
Q 20.90625 20.125 20.90625 31.390625 
Q 20.90625 42.671875 17.703125 53.65625 
Q 14.5 64.65625 8.015625 75.875 
z
" id="DejaVuSans-41"/>
     </defs>
     <g transform="translate(145.375 271.438125)scale(0.1 -0.1)">
      <use transform="translate(0 0.015625)" xlink:href="#DejaVuSans-Oblique-102"/>
      <use transform="translate(35.205078 -16.390625)scale(0.7)" xlink:href="#DejaVuSans-50"/>
      <use transform="translate(82.475586 0.015625)" xlink:href="#DejaVuSans-32"/>
      <use transform="translate(114.262695 0.015625)" xlink:href="#DejaVuSans-40"/>
      <use transform="translate(153.276367 0.015625)" xlink:href="#DejaVuSans-112"/>
      <use transform="translate(216.75293 0.015625)" xlink:href="#DejaVuSans-112"/>
      <use transform="translate(280.229492 0.015625)" xlink:href="#DejaVuSans-109"/>
      <use transform="translate(377.641602 0.015625)" xlink:href="#DejaVuSans-41"/>
     </g>
    </g>
   </g>
   <g id="matplotlib.axis_2">
    <g id="ytick_1">
     <g id="line2d_17">
      <defs>
       <path d="M 0 0 
L -5 0 
" id="m40b9b6c9b8" style="stroke:#000000;stroke-width:1.3;"/>
      </defs>
      <g>
       <use style="stroke:#000000;stroke-width:1.3;" x="55.25" xlink:href="#m40b9b6c9b8" y="28.759039"/>
      </g>
     </g>
     <g id="text_6">
      <!-- 20 -->
      <defs>
       <path d="M 31.78125 66.40625 
Q 24.171875 66.40625 20.328125 58.90625 
Q 16.5 51.421875 16.5 36.375 
Q 16.5 21.390625 20.328125 13.890625 
Q 24.171875 6.390625 31.78125 6.390625 
Q 39.453125 6.390625 43.28125 13.890625 
Q 47.125 21.390625 47.125 36.375 
Q 47.125 51.421875 43.28125 58.90625 
Q 39.453125 66.40625 31.78125 66.40625 
z
M 31.78125 74.21875 
Q 44.046875 74.21875 50.515625 64.515625 
Q 56.984375 54.828125 56.984375 36.375 
Q 56.984375 17.96875 50.515625 8.265625 
Q 44.046875 -1.421875 31.78125 -1.421875 
Q 19.53125 -1.421875 13.0625 8.265625 
Q 6.59375 17.96875 6.59375 36.375 
Q 6.59375 54.828125 13.0625 64.515625 
Q 19.53125 74.21875 31.78125 74.21875 
z
" id="DejaVuSans-48"/>
      </defs>
      <g transform="translate(34.025 32.558258)scale(0.1 -0.1)">
       <use xlink:href="#DejaVuSans-50"/>
       <use x="63.623047" xlink:href="#DejaVuSans-48"/>
      </g>
     </g>
    </g>
    <g id="ytick_2">
     <g id="line2d_18">
      <g>
       <use style="stroke:#000000;stroke-width:1.3;" x="55.25" xlink:href="#m40b9b6c9b8" y="64.007884"/>
      </g>
     </g>
     <g id="text_7">
      <!-- 40 -->
      <g transform="translate(34.025 67.807103)scale(0.1 -0.1)">
       <use xlink:href="#DejaVuSans-52"/>
       <use x="63.623047" xlink:href="#DejaVuSans-48"/>
      </g>
     </g>
    </g>
    <g id="ytick_3">
     <g id="line2d_19">
      <g>
       <use style="stroke:#000000;stroke-width:1.3;" x="55.25" xlink:href="#m40b9b6c9b8" y="99.25673"/>
      </g>
     </g>
     <g id="text_8">
      <!-- 60 -->
      <g transform="translate(34.025 103.055948)scale(0.1 -0.1)">
       <use xlink:href="#DejaVuSans-54"/>
       <use x="63.623047" xlink:href="#DejaVuSans-48"/>
      </g>
     </g>
    </g>
    <g id="ytick_4">
     <g id="line2d_20">
      <g>
       <use style="stroke:#000000;stroke-width:1.3;" x="55.25" xlink:href="#m40b9b6c9b8" y="134.505575"/>
      </g>
     </g>
     <g id="text_9">
      <!-- 80 -->
      <g transform="translate(34.025 138.304794)scale(0.1 -0.1)">
       <use xlink:href="#DejaVuSans-56"/>
       <use x="63.623047" xlink:href="#DejaVuSans-48"/>
      </g>
     </g>
    </g>
    <g id="ytick_5">
     <g id="line2d_21">
      <g>
       <use style="stroke:#000000;stroke-width:1.3;" x="55.25" xlink:href="#m40b9b6c9b8" y="169.75442"/>
      </g>
     </g>
     <g id="text_10">
      <!-- 100 -->
      <defs>
       <path d="M 12.40625 8.296875 
L 28.515625 8.296875 
L 28.515625 63.921875 
L 10.984375 60.40625 
L 10.984375 69.390625 
L 28.421875 72.90625 
L 38.28125 72.90625 
L 38.28125 8.296875 
L 54.390625 8.296875 
L 54.390625 0 
L 12.40625 0 
z
" id="DejaVuSans-49"/>
      </defs>
      <g transform="translate(27.6625 173.553639)scale(0.1 -0.1)">
       <use xlink:href="#DejaVuSans-49"/>
       <use x="63.623047" xlink:href="#DejaVuSans-48"/>
       <use x="127.246094" xlink:href="#DejaVuSans-48"/>
      </g>
     </g>
    </g>
    <g id="ytick_6">
     <g id="line2d_22">
      <g>
       <use style="stroke:#000000;stroke-width:1.3;" x="55.25" xlink:href="#m40b9b6c9b8" y="205.003265"/>
      </g>
     </g>
     <g id="text_11">
      <!-- 120 -->
      <g transform="translate(27.6625 208.802484)scale(0.1 -0.1)">
       <use xlink:href="#DejaVuSans-49"/>
       <use x="63.623047" xlink:href="#DejaVuSans-50"/>
       <use x="127.246094" xlink:href="#DejaVuSans-48"/>
      </g>
     </g>
    </g>
    <g id="ytick_7">
     <g id="line2d_23">
      <g>
       <use style="stroke:#000000;stroke-width:1.3;" x="55.25" xlink:href="#m40b9b6c9b8" y="240.25211"/>
      </g>
     </g>
     <g id="text_12">
      <!-- 140 -->
      <g transform="translate(27.6625 244.051329)scale(0.1 -0.1)">
       <use xlink:href="#DejaVuSans-49"/>
       <use x="63.623047" xlink:href="#DejaVuSans-52"/>
       <use x="127.246094" xlink:href="#DejaVuSans-48"/>
      </g>
     </g>
    </g>
    <g id="ytick_8">
     <g id="line2d_24">
      <defs>
       <path d="M 0 0 
L -3 0 
" id="ma9f572a6aa" style="stroke:#000000;stroke-width:1.3;"/>
      </defs>
      <g>
       <use style="stroke:#000000;stroke-width:1.3;" x="55.25" xlink:href="#ma9f572a6aa" y="11.134617"/>
      </g>
     </g>
    </g>
    <g id="ytick_9">
     <g id="line2d_25">
      <g>
       <use style="stroke:#000000;stroke-width:1.3;" x="55.25" xlink:href="#ma9f572a6aa" y="19.946828"/>
      </g>
     </g>
    </g>
    <g id="ytick_10">
     <g id="line2d_26">
      <g>
       <use style="stroke:#000000;stroke-width:1.3;" x="55.25" xlink:href="#ma9f572a6aa" y="37.571251"/>
      </g>
     </g>
    </g>
    <g id="ytick_11">
     <g id="line2d_27">
      <g>
       <use style="stroke:#000000;stroke-width:1.3;" x="55.25" xlink:href="#ma9f572a6aa" y="46.383462"/>
      </g>
     </g>
    </g>
    <g id="ytick_12">
     <g id="line2d_28">
      <g>
       <use style="stroke:#000000;stroke-width:1.3;" x="55.25" xlink:href="#ma9f572a6aa" y="55.195673"/>
      </g>
     </g>
    </g>
    <g id="ytick_13">
     <g id="line2d_29">
      <g>
       <use style="stroke:#000000;stroke-width:1.3;" x="55.25" xlink:href="#ma9f572a6aa" y="72.820096"/>
      </g>
     </g>
    </g>
    <g id="ytick_14">
     <g id="line2d_30">
      <g>
       <use style="stroke:#000000;stroke-width:1.3;" x="55.25" xlink:href="#ma9f572a6aa" y="81.632307"/>
      </g>
     </g>
    </g>
    <g id="ytick_15">
     <g id="line2d_31">
      <g>
       <use style="stroke:#000000;stroke-width:1.3;" x="55.25" xlink:href="#ma9f572a6aa" y="90.444518"/>
      </g>
     </g>
    </g>
    <g id="ytick_16">
     <g id="line2d_32">
      <g>
       <use style="stroke:#000000;stroke-width:1.3;" x="55.25" xlink:href="#ma9f572a6aa" y="108.068941"/>
      </g>
     </g>
    </g>
    <g id="ytick_17">
     <g id="line2d_33">
      <g>
       <use style="stroke:#000000;stroke-width:1.3;" x="55.25" xlink:href="#ma9f572a6aa" y="116.881152"/>
      </g>
     </g>
    </g>
    <g id="ytick_18">
     <g id="line2d_34">
      <g>
       <use style="stroke:#000000;stroke-width:1.3;" x="55.25" xlink:href="#ma9f572a6aa" y="125.693363"/>
      </g>
     </g>
    </g>
    <g id="ytick_19">
     <g id="line2d_35">
      <g>
       <use style="stroke:#000000;stroke-width:1.3;" x="55.25" xlink:href="#ma9f572a6aa" y="143.317786"/>
      </g>
     </g>
    </g>
    <g id="ytick_20">
     <g id="line2d_36">
      <g>
       <use style="stroke:#000000;stroke-width:1.3;" x="55.25" xlink:href="#ma9f572a6aa" y="152.129997"/>
      </g>
     </g>
    </g>
    <g id="ytick_21">
     <g id="line2d_37">
      <g>
       <use style="stroke:#000000;stroke-width:1.3;" x="55.25" xlink:href="#ma9f572a6aa" y="160.942209"/>
      </g>
     </g>
    </g>
    <g id="ytick_22">
     <g id="line2d_38">
      <g>
       <use style="stroke:#000000;stroke-width:1.3;" x="55.25" xlink:href="#ma9f572a6aa" y="178.566631"/>
      </g>
     </g>
    </g>
    <g id="ytick_23">
     <g id="line2d_39">
      <g>
       <use style="stroke:#000000;stroke-width:1.3;" x="55.25" xlink:href="#ma9f572a6aa" y="187.378843"/>
      </g>
     </g>
    </g>
    <g id="ytick_24">
     <g id="line2d_40">
      <g>
       <use style="stroke:#000000;stroke-width:1.3;" x="55.25" xlink:href="#ma9f572a6aa" y="196.191054"/>
      </g>
     </g>
    </g>
    <g id="ytick_25">
     <g id="line2d_41">
      <g>
       <use style="stroke:#000000;stroke-width:1.3;" x="55.25" xlink:href="#ma9f572a6aa" y="213.815476"/>
      </g>
     </g>
    </g>
    <g id="ytick_26">
     <g id="line2d_42">
      <g>
       <use style="stroke:#000000;stroke-width:1.3;" x="55.25" xlink:href="#ma9f572a6aa" y="222.627688"/>
      </g>
     </g>
    </g>
    <g id="ytick_27">
     <g id="line2d_43">
      <g>
       <use style="stroke:#000000;stroke-width:1.3;" x="55.25" xlink:href="#ma9f572a6aa" y="231.439899"/>
      </g>
     </g>
    </g>
    <g id="text_13">
     <!-- $f_1$ (ppm) -->
     <g transform="translate(21.5625 147.08)rotate(-90)scale(0.1 -0.1)">
      <use transform="translate(0 0.015625)" xlink:href="#DejaVuSans-Oblique-102"/>
      <use transform="translate(35.205078 -16.390625)scale(0.7)" xlink:href="#DejaVuSans-49"/>
      <use transform="translate(82.475586 0.015625)" xlink:href="#DejaVuSans-32"/>
      <use transform="translate(114.262695 0.015625)" xlink:href="#DejaVuSans-40"/>
      <use transform="translate(153.276367 0.015625)" xlink:href="#DejaVuSans-112"/>
      <use transform="translate(216.75293 0.015625)" xlink:href="#DejaVuSans-112"/>
      <use transform="translate(280.229492 0.015625)" xlink:href="#DejaVuSans-109"/>
      <use transform="translate(377.641602 0.015625)" xlink:href="#DejaVuSans-41"/>
     </g>
    </g>
   </g>
   <g id="LineCollection_1"/>
   <g id="LineCollection_2"/>
   <g id="LineCollection_3"/>
   <g id="LineCollection_4"/>
   <g id="LineCollection_5"/>
   <g id="LineCollection_6">
    <path clip-path="url(#pbad1b9acae)" d="M 64.464042 225.971708 
L 64.459089 225.964944 
L 64.464042 225.715141 
L 64.466616 225.67958 
L 64.735043 225.581526 
L 64.857634 225.67958 
L 64.845004 225.964944 
L 64.735043 226.04912 
L 64.464042 225.971708 
" style="fill:none;stroke:#ff69b4;stroke-width:0.7;"/>
    <path clip-path="url(#pbad1b9acae)" d="M 76.930098 212.318162 
L 76.910769 212.267441 
L 76.930098 212.228075 
L 77.060304 212.267441 
L 76.930098 212.318162 
" style="fill:none;stroke:#ff69b4;stroke-width:0.7;"/>
   </g>
   <g id="LineCollection_7">
    <path clip-path="url(#pbad1b9acae)" d="M 137.36337 231.675264 
L 137.356977 231.672237 
L 137.36337 231.605036 
L 137.634371 231.399629 
L 137.704759 231.672237 
L 137.634371 231.708819 
L 137.36337 231.675264 
" style="fill:none;stroke:#ff69b4;stroke-width:0.7;"/>
    <path clip-path="url(#pbad1b9acae)" d="M 75.033089 229.993862 
L 75.006084 229.960049 
L 74.984264 229.674685 
L 75.033089 229.597463 
L 75.30409 229.433876 
L 75.575092 229.485472 
L 75.753489 229.674685 
L 75.726106 229.960049 
L 75.575092 230.078628 
L 75.30409 230.123381 
L 75.033089 229.993862 
" style="fill:none;stroke:#ff69b4;stroke-width:0.7;"/>
    <path clip-path="url(#pbad1b9acae)" d="M 64.464042 226.284531 
L 64.411837 226.250309 
L 64.219286 225.964944 
L 64.229331 225.67958 
L 64.409371 225.394215 
L 64.464042 225.346853 
L 64.735043 225.291426 
L 64.979844 225.394215 
L 65.006044 225.413013 
L 65.122082 225.67958 
L 65.110048 225.964944 
L 65.006044 226.159528 
L 64.878349 226.250309 
L 64.735043 226.311984 
L 64.464042 226.284531 
" style="fill:none;stroke:#ff69b4;stroke-width:0.7;"/>
    <path clip-path="url(#pbad1b9acae)" d="M 76.388095 225.419731 
L 76.348656 225.394215 
L 76.185812 225.10885 
L 76.262972 224.823486 
L 76.388095 224.712039 
L 76.659096 224.653613 
L 76.907621 224.823486 
L 76.930098 224.873325 
L 76.989753 225.10885 
L 76.930098 225.269631 
L 76.831304 225.394215 
L 76.659096 225.473908 
L 76.388095 225.419731 
" style="fill:none;stroke:#ff69b4;stroke-width:0.7;"/>
    <path clip-path="url(#pbad1b9acae)" d="M 76.930098 212.724247 
L 76.738333 212.552806 
L 76.659096 212.325157 
L 76.646736 212.267441 
L 76.659096 212.192166 
L 76.729884 211.982077 
L 76.930098 211.826379 
L 77.201099 211.859079 
L 77.364749 211.982077 
L 77.4721 212.213967 
L 77.487033 212.267441 
L 77.4721 212.333058 
L 77.394028 212.552806 
L 77.201099 212.697319 
L 76.930098 212.724247 
" style="fill:none;stroke:#ff69b4;stroke-width:0.7;"/>
    <path clip-path="url(#pbad1b9acae)" d="M 266.08895 18.279648 
L 265.968917 18.219481 
L 266.08895 18.033882 
L 266.147015 18.219481 
L 266.08895 18.279648 
" style="fill:none;stroke:#ff69b4;stroke-width:0.7;"/>
   </g>
   <g id="LineCollection_8">
    <path clip-path="url(#pbad1b9acae)" d="M 137.36337 232.006814 
L 137.184148 231.957602 
L 137.092369 231.918569 
L 136.873242 231.672237 
L 136.863991 231.386873 
L 137.092369 231.117517 
L 137.148117 231.101508 
L 137.36337 231.060937 
L 137.634371 231.076782 
L 137.708094 231.101508 
L 137.905372 231.188947 
L 138.089298 231.386873 
L 138.134514 231.672237 
L 137.927339 231.957602 
L 137.905372 231.970981 
L 137.634371 232.032591 
L 137.36337 232.006814 
" style="fill:none;stroke:#ff69b4;stroke-width:0.7;"/>
    <path clip-path="url(#pbad1b9acae)" d="M 75.033089 230.255277 
L 75.018158 230.245414 
L 74.79495 229.960049 
L 74.77238 229.674685 
L 74.919752 229.38932 
L 75.033089 229.295864 
L 75.30409 229.215778 
L 75.575092 229.236304 
L 75.846093 229.377894 
L 75.855677 229.38932 
L 75.973447 229.674685 
L 75.964191 229.960049 
L 75.846093 230.184553 
L 75.754369 230.245414 
L 75.575092 230.308495 
L 75.30409 230.324923 
L 75.033089 230.255277 
" style="fill:none;stroke:#ff69b4;stroke-width:0.7;"/>
    <path clip-path="url(#pbad1b9acae)" d="M 64.19304 226.26544 
L 64.181707 226.250309 
L 64.086734 225.964944 
L 64.0969 225.67958 
L 64.19304 225.400456 
L 64.196696 225.394215 
L 64.464042 225.162607 
L 64.735043 225.126049 
L 65.006044 225.196639 
L 65.166003 225.394215 
L 65.245096 225.67958 
L 65.231651 225.964944 
L 65.108189 226.250309 
L 65.006044 226.351919 
L 64.735043 226.449712 
L 64.464042 226.437343 
L 64.19304 226.26544 
" style="fill:none;stroke:#ff69b4;stroke-width:0.7;"/>
    <path clip-path="url(#pbad1b9acae)" d="M 76.117094 225.454104 
L 76.059708 225.394215 
L 75.953693 225.10885 
L 75.987325 224.823486 
L 76.117094 224.647625 
L 76.255302 224.538121 
L 76.388095 224.472402 
L 76.659096 224.437065 
L 76.870266 224.538121 
L 76.930098 224.573755 
L 77.118922 224.823486 
L 77.168117 225.10885 
L 77.097731 225.394215 
L 76.930098 225.562164 
L 76.659096 225.650321 
L 76.388095 225.609454 
L 76.117094 225.454104 
" style="fill:none;stroke:#ff69b4;stroke-width:0.7;"/>
    <path clip-path="url(#pbad1b9acae)" d="M 76.930098 212.892414 
L 76.830801 212.838171 
L 76.659096 212.696711 
L 76.57953 212.552806 
L 76.529269 212.267441 
L 76.559697 211.982077 
L 76.659096 211.77419 
L 76.783927 211.696712 
L 76.930098 211.629285 
L 77.201099 211.662372 
L 77.267171 211.696712 
L 77.4721 211.825955 
L 77.577184 211.982077 
L 77.641216 212.267441 
L 77.594303 212.552806 
L 77.4721 212.72702 
L 77.292333 212.838171 
L 77.201099 212.876334 
L 76.930098 212.892414 
" style="fill:none;stroke:#ff69b4;stroke-width:0.7;"/>
    <path clip-path="url(#pbad1b9acae)" d="M 142.783394 211.305853 
L 142.541778 211.125983 
L 142.512393 210.93648 
L 142.501839 210.840618 
L 142.512393 210.8221 
L 142.783394 210.556719 
L 142.79267 210.555253 
L 143.054396 210.528042 
L 143.325397 210.551285 
L 143.335086 210.555253 
L 143.596398 210.75145 
L 143.652314 210.840618 
L 143.616321 211.125983 
L 143.596398 211.149928 
L 143.325397 211.316246 
L 143.054396 211.346091 
L 142.783394 211.305853 
" style="fill:none;stroke:#ff69b4;stroke-width:0.7;"/>
    <path clip-path="url(#pbad1b9acae)" d="M 263.107937 18.517628 
L 263.101652 18.504845 
L 263.107937 18.424254 
L 263.128881 18.219481 
L 263.378938 17.965908 
L 263.649939 18.013203 
L 263.798542 18.219481 
L 263.787978 18.504845 
L 263.649939 18.683397 
L 263.378938 18.771347 
L 263.107937 18.517628 
" style="fill:none;stroke:#ff69b4;stroke-width:0.7;"/>
    <path clip-path="url(#pbad1b9acae)" d="M 265.817949 18.583499 
L 265.744193 18.504845 
L 265.64949 18.219481 
L 265.706674 17.934116 
L 265.817949 17.790698 
L 266.08895 17.685673 
L 266.359951 17.770489 
L 266.516449 17.934116 
L 266.497897 18.219481 
L 266.359951 18.413967 
L 266.272148 18.504845 
L 266.08895 18.616582 
L 265.817949 18.583499 
" style="fill:none;stroke:#ff69b4;stroke-width:0.7;"/>
   </g>
   <g id="LineCollection_9">
    <path clip-path="url(#pbad1b9acae)" d="M 137.092369 232.113174 
L 136.835183 231.957602 
L 136.821368 231.941705 
L 136.653203 231.672237 
L 136.638833 231.386873 
L 136.776037 231.101508 
L 136.821368 231.05607 
L 137.092369 230.904765 
L 137.36337 230.880375 
L 137.634371 230.903057 
L 137.905372 230.980574 
L 138.086628 231.101508 
L 138.176374 231.19888 
L 138.321804 231.386873 
L 138.363724 231.672237 
L 138.233227 231.957602 
L 138.176374 232.007403 
L 137.905372 232.156196 
L 137.634371 232.192973 
L 137.36337 232.171244 
L 137.092369 232.113174 
" style="fill:none;stroke:#ff69b4;stroke-width:0.7;"/>
    <path clip-path="url(#pbad1b9acae)" d="M 75.033089 230.391012 
L 74.812656 230.245414 
L 74.762088 230.176068 
L 74.641252 229.960049 
L 74.620003 229.674685 
L 74.717786 229.38932 
L 74.762088 229.331827 
L 75.033089 229.131429 
L 75.161573 229.103956 
L 75.30409 229.067743 
L 75.575092 229.083959 
L 75.635414 229.103956 
L 75.846093 229.174844 
L 76.025993 229.38932 
L 76.097004 229.674685 
L 76.090978 229.960049 
L 75.990656 230.245414 
L 75.846093 230.377874 
L 75.575092 230.436307 
L 75.30409 230.440636 
L 75.033089 230.391012 
" style="fill:none;stroke:#ff69b4;stroke-width:0.7;"/>
    <path clip-path="url(#pbad1b9acae)" d="M 64.464042 226.540357 
L 64.450173 226.535674 
L 64.19304 226.429706 
L 64.058668 226.250309 
L 64.001942 225.964944 
L 64.013526 225.67958 
L 64.083407 225.394215 
L 64.19304 225.197128 
L 64.311448 225.10885 
L 64.464042 225.005273 
L 64.735043 224.972883 
L 65.006044 225.032663 
L 65.091076 225.10885 
L 65.277045 225.384867 
L 65.281644 225.394215 
L 65.352212 225.67958 
L 65.333055 225.964944 
L 65.277045 226.099935 
L 65.2215 226.250309 
L 65.006044 226.464636 
L 64.759947 226.535674 
L 64.735043 226.543582 
L 64.464042 226.540357 
" style="fill:none;stroke:#ff69b4;stroke-width:0.7;"/>
    <path clip-path="url(#pbad1b9acae)" d="M 76.388095 225.740845 
L 76.197463 225.67958 
L 76.117094 225.643923 
L 75.877823 225.394215 
L 75.846093 225.291108 
L 75.790337 225.10885 
L 75.793613 224.823486 
L 75.846093 224.6763 
L 75.925622 224.538121 
L 76.117094 224.39947 
L 76.388095 224.312264 
L 76.659096 224.2931 
L 76.930098 224.392735 
L 77.105145 224.538121 
L 77.201099 224.688643 
L 77.272586 224.823486 
L 77.317279 225.10885 
L 77.264115 225.394215 
L 77.201099 225.491268 
L 77.002607 225.67958 
L 76.930098 225.715363 
L 76.659096 225.774815 
L 76.388095 225.740845 
" style="fill:none;stroke:#ff69b4;stroke-width:0.7;"/>
    <path clip-path="url(#pbad1b9acae)" d="M 76.659096 212.861241 
L 76.638013 212.838171 
L 76.48885 212.552806 
L 76.450958 212.267441 
L 76.465878 211.982077 
L 76.563026 211.696712 
L 76.659096 211.569415 
L 76.930098 211.483457 
L 77.201099 211.514488 
L 77.4721 211.639516 
L 77.526204 211.696712 
L 77.69797 211.982077 
L 77.743101 212.26088 
L 77.744562 212.267441 
L 77.743101 212.277775 
L 77.714881 212.552806 
L 77.547295 212.838171 
L 77.4721 212.897953 
L 77.201099 212.992629 
L 76.930098 213.001163 
L 76.659096 212.861241 
" style="fill:none;stroke:#ff69b4;stroke-width:0.7;"/>
    <path clip-path="url(#pbad1b9acae)" d="M 142.783394 211.50839 
L 142.551103 211.411347 
L 142.512393 211.385813 
L 142.309949 211.125983 
L 142.286585 210.840618 
L 142.429551 210.555253 
L 142.512393 210.479309 
L 142.783394 210.354612 
L 143.054396 210.335447 
L 143.325397 210.351483 
L 143.596398 210.441098 
L 143.74354 210.555253 
L 143.867399 210.800675 
L 143.886059 210.840618 
L 143.867399 210.963975 
L 143.848039 211.125983 
L 143.616959 211.411347 
L 143.596398 211.425332 
L 143.325397 211.517929 
L 143.054396 211.534202 
L 142.783394 211.50839 
" style="fill:none;stroke:#ff69b4;stroke-width:0.7;"/>
    <path clip-path="url(#pbad1b9acae)" d="M 263.107937 18.874064 
L 263.021181 18.79021 
L 262.908458 18.504845 
L 262.941075 18.219481 
L 263.107937 17.938853 
L 263.112642 17.934116 
L 263.378938 17.768172 
L 263.649939 17.777054 
L 263.871681 17.934116 
L 263.92094 18.012394 
L 264.020693 18.219481 
L 264.008065 18.504845 
L 263.92094 18.6703 
L 263.836704 18.79021 
L 263.649939 18.923128 
L 263.378938 18.9761 
L 263.107937 18.874064 
" style="fill:none;stroke:#ff69b4;stroke-width:0.7;"/>
    <path clip-path="url(#pbad1b9acae)" d="M 265.817949 18.786891 
L 265.553466 18.504845 
L 265.546947 18.471537 
L 265.506492 18.219481 
L 265.546947 18.022699 
L 265.563605 17.934116 
L 265.768791 17.648752 
L 265.817949 17.61079 
L 266.08895 17.525159 
L 266.359951 17.54023 
L 266.630952 17.640063 
L 266.64453 17.648752 
L 266.792685 17.934116 
L 266.724806 18.219481 
L 266.630952 18.345773 
L 266.525336 18.504845 
L 266.359951 18.64729 
L 266.08895 18.785739 
L 265.817949 18.786891 
" style="fill:none;stroke:#ff69b4;stroke-width:0.7;"/>
   </g>
   <g id="LineCollection_10">
    <path clip-path="url(#pbad1b9acae)" d="M 137.36337 232.291978 
L 137.132238 232.242967 
L 137.092369 232.235662 
L 136.821368 232.115819 
L 136.637376 231.957602 
L 136.550366 231.786147 
L 136.483948 231.672237 
L 136.458223 231.386873 
L 136.550366 231.146559 
L 136.566323 231.101508 
L 136.821368 230.845862 
L 136.897231 230.816143 
L 137.092369 230.744775 
L 137.36337 230.735514 
L 137.634371 230.772691 
L 137.766388 230.816143 
L 137.905372 230.850356 
L 138.176374 230.998985 
L 138.307538 231.101508 
L 138.447375 231.304557 
L 138.495004 231.386873 
L 138.53468 231.672237 
L 138.447375 231.943964 
L 138.442533 231.957602 
L 138.176374 232.190749 
L 138.043775 232.242967 
L 137.905372 232.289652 
L 137.634371 232.3153 
L 137.36337 232.291978 
" style="fill:none;stroke:#ff69b4;stroke-width:0.7;"/>
    <path clip-path="url(#pbad1b9acae)" d="M 74.762088 230.340975 
L 74.661426 230.245414 
L 74.536159 229.960049 
L 74.517835 229.674685 
L 74.576716 229.38932 
L 74.762088 229.148756 
L 74.8288 229.103956 
L 75.033089 228.984549 
L 75.30409 228.937478 
L 75.575092 228.950602 
L 75.846093 229.021952 
L 75.954566 229.103956 
L 76.117094 229.327429 
L 76.148973 229.38932 
L 76.215624 229.674685 
L 76.210481 229.960049 
L 76.120664 230.245414 
L 76.117094 230.251058 
L 75.846093 230.496012 
L 75.575092 230.521515 
L 75.30409 230.517779 
L 75.033089 230.481502 
L 74.762088 230.340975 
" style="fill:none;stroke:#ff69b4;stroke-width:0.7;"/>
    <path clip-path="url(#pbad1b9acae)" d="M 64.19304 226.540201 
L 64.186333 226.535674 
L 63.976642 226.250309 
L 63.945415 225.964944 
L 63.957944 225.67958 
L 64.008384 225.394215 
L 64.144765 225.10885 
L 64.19304 225.036347 
L 64.464042 224.882482 
L 64.735043 224.865484 
L 65.006044 224.898237 
L 65.241107 225.10885 
L 65.277045 225.16219 
L 65.391194 225.394215 
L 65.434305 225.67958 
L 65.417908 225.964944 
L 65.310929 226.250309 
L 65.277045 226.293317 
L 65.015622 226.535674 
L 65.006044 226.54134 
L 64.735043 226.62625 
L 64.464042 226.63009 
L 64.19304 226.540201 
" style="fill:none;stroke:#ff69b4;stroke-width:0.7;"/>
    <path clip-path="url(#pbad1b9acae)" d="M 76.117094 225.771505 
L 75.958675 225.67958 
L 75.846093 225.562939 
L 75.739998 225.394215 
L 75.669797 225.10885 
L 75.655575 224.823486 
L 75.705364 224.538121 
L 75.846093 224.345651 
L 76.055802 224.252756 
L 76.117094 224.230392 
L 76.388095 224.171159 
L 76.659096 224.158154 
L 76.87235 224.252756 
L 76.930098 224.271747 
L 77.201099 224.462929 
L 77.267005 224.538121 
L 77.393731 224.823486 
L 77.424462 225.10885 
L 77.397582 225.394215 
L 77.222912 225.67958 
L 77.201099 225.696452 
L 76.930098 225.822289 
L 76.659096 225.85933 
L 76.388095 225.832512 
L 76.117094 225.771505 
" style="fill:none;stroke:#ff69b4;stroke-width:0.7;"/>
    <path clip-path="url(#pbad1b9acae)" d="M 76.659096 212.973125 
L 76.535765 212.838171 
L 76.428396 212.552806 
L 76.39875 212.267441 
L 76.403332 211.982077 
L 76.457188 211.696712 
L 76.659096 211.429175 
L 76.748485 211.411347 
L 76.930098 211.356529 
L 77.160005 211.411347 
L 77.201099 211.415899 
L 77.4721 211.503227 
L 77.655124 211.696712 
L 77.743101 211.870284 
L 77.800203 211.982077 
L 77.855335 212.267441 
L 77.829562 212.552806 
L 77.743101 212.732723 
L 77.689149 212.838171 
L 77.4721 213.010731 
L 77.201099 213.070158 
L 76.930098 213.073662 
L 76.659096 212.973125 
" style="fill:none;stroke:#ff69b4;stroke-width:0.7;"/>
    <path clip-path="url(#pbad1b9acae)" d="M 142.512393 211.547986 
L 142.316749 211.411347 
L 142.241392 211.302473 
L 142.141824 211.125983 
L 142.118837 210.840618 
L 142.241332 210.555253 
L 142.241392 210.555186 
L 142.512393 210.306773 
L 142.611671 210.269889 
L 142.783394 210.202539 
L 143.054396 210.185481 
L 143.325397 210.200762 
L 143.568374 210.269889 
L 143.596398 210.277212 
L 143.867399 210.448916 
L 143.978224 210.555253 
L 144.081599 210.840618 
L 144.041495 211.125983 
L 143.867399 211.376786 
L 143.84046 211.411347 
L 143.596398 211.577345 
L 143.325397 211.639937 
L 143.054396 211.650772 
L 142.783394 211.629868 
L 142.512393 211.547986 
" style="fill:none;stroke:#ff69b4;stroke-width:0.7;"/>
    <path clip-path="url(#pbad1b9acae)" d="M 263.378938 19.123602 
L 263.186843 19.075575 
L 263.107937 19.056533 
L 262.836935 18.799121 
L 262.832014 18.79021 
L 262.773844 18.504845 
L 262.818 18.219481 
L 262.836935 18.176375 
L 262.958419 17.934116 
L 263.107937 17.777268 
L 263.361783 17.648752 
L 263.378938 17.639546 
L 263.649939 17.630349 
L 263.692181 17.648752 
L 263.92094 17.766842 
L 264.082983 17.934116 
L 264.17448 18.219481 
L 264.159167 18.504845 
L 264.039554 18.79021 
L 263.92094 18.918736 
L 263.649939 19.066589 
L 263.59634 19.075575 
L 263.378938 19.123602 
" style="fill:none;stroke:#ff69b4;stroke-width:0.7;"/>
    <path clip-path="url(#pbad1b9acae)" d="M 265.817949 18.959296 
L 265.547417 18.79021 
L 265.546947 18.789702 
L 265.418211 18.504845 
L 265.402217 18.219481 
L 265.454619 17.934116 
L 265.546947 17.763902 
L 265.626434 17.648752 
L 265.817949 17.500856 
L 266.08895 17.421517 
L 266.359951 17.405523 
L 266.630952 17.426534 
L 266.901954 17.557835 
L 266.982352 17.648752 
L 267.028764 17.934116 
L 266.907808 18.219481 
L 266.901954 18.22606 
L 266.712374 18.504845 
L 266.630952 18.57883 
L 266.359951 18.786244 
L 266.35213 18.79021 
L 266.08895 18.929538 
L 265.817949 18.959296 
" style="fill:none;stroke:#ff69b4;stroke-width:0.7;"/>
   </g>
   <g id="LineCollection_11">
    <path clip-path="url(#pbad1b9acae)" d="M 75.30409 231.4016 
L 75.342782 231.386873 
L 75.575092 231.165562 
L 75.592817 231.101508 
L 75.575092 231.091531 
L 75.30409 231.014057 
L 75.033089 231.077853 
L 75.003561 231.101508 
L 75.033089 231.16296 
L 75.282472 231.386873 
L 75.30409 231.4016 
" style="fill:none;stroke:#2e8b57;stroke-width:0.7;"/>
    <path clip-path="url(#pbad1b9acae)" d="M 65.006044 227.391899 
L 65.006153 227.391768 
L 65.135869 227.106403 
L 65.006044 227.019296 
L 64.735043 227.049468 
L 64.492863 227.106403 
L 64.735043 227.376686 
L 65.00194 227.391768 
L 65.006044 227.391899 
" style="fill:none;stroke:#2e8b57;stroke-width:0.7;"/>
    <path clip-path="url(#pbad1b9acae)" d="M 76.930098 213.768294 
L 77.081293 213.694265 
L 76.930098 213.635467 
L 76.873116 213.694265 
L 76.930098 213.768294 
" style="fill:none;stroke:#2e8b57;stroke-width:0.7;"/>
    <path clip-path="url(#pbad1b9acae)" d="M 192.105617 85.647269 
L 192.376618 85.712319 
L 192.647619 85.730837 
L 192.91862 85.719115 
L 193.189621 85.661641 
L 193.353281 85.565538 
L 193.460623 85.48362 
L 193.601038 85.280173 
L 193.661493 84.994808 
L 193.670021 84.709444 
L 193.646995 84.424079 
L 193.568258 84.138714 
L 193.460623 83.965248 
L 193.376718 83.85335 
L 193.189621 83.695443 
L 192.91862 83.608342 
L 192.647619 83.577327 
L 192.376618 83.570244 
L 192.105617 83.583781 
L 191.834615 83.653609 
L 191.622851 83.85335 
L 191.563614 83.96808 
L 191.463297 84.138714 
L 191.404542 84.424079 
L 191.404041 84.709444 
L 191.454176 84.994808 
L 191.563614 85.203696 
L 191.592612 85.280173 
L 191.834615 85.526623 
L 191.932683 85.565538 
L 192.105617 85.647269 
" style="fill:none;stroke:#2e8b57;stroke-width:0.7;"/>
    <path clip-path="url(#pbad1b9acae)" d="M 254.9779 49.347572 
L 255.248901 49.510624 
L 255.519902 49.521634 
L 255.790904 49.50589 
L 256.061905 49.472216 
L 256.332906 49.376124 
L 256.413158 49.324227 
L 256.603907 49.156202 
L 256.693068 49.038863 
L 256.798155 48.753498 
L 256.819425 48.468133 
L 256.771489 48.182769 
L 256.603907 47.946528 
L 256.551733 47.897404 
L 256.332906 47.767003 
L 256.061905 47.676817 
L 255.790904 47.635743 
L 255.519902 47.616187 
L 255.248901 47.618409 
L 254.9779 47.695985 
L 254.706899 47.840269 
L 254.615469 47.897404 
L 254.466799 48.182769 
L 254.45569 48.468133 
L 254.511589 48.753498 
L 254.686664 49.038863 
L 254.706899 49.060968 
L 254.951655 49.324227 
L 254.9779 49.347572 
" style="fill:none;stroke:#2e8b57;stroke-width:0.7;"/>
    <path clip-path="url(#pbad1b9acae)" d="M 250.370879 45.044565 
L 250.373884 45.043758 
L 250.64188 45.004092 
L 250.912882 44.86464 
L 251.014932 44.758393 
L 251.143796 44.473028 
L 251.163612 44.187664 
L 251.137811 43.902299 
L 251.046575 43.616934 
L 250.912882 43.454159 
L 250.789684 43.33157 
L 250.64188 43.236937 
L 250.370879 43.123022 
L 250.099878 43.060731 
L 249.982367 43.046205 
L 249.828877 43.006375 
L 249.557875 42.991248 
L 249.293052 43.046205 
L 249.286874 43.047094 
L 249.015873 43.15198 
L 248.810272 43.33157 
L 248.744872 43.48496 
L 248.685411 43.616934 
L 248.666281 43.902299 
L 248.744872 44.182873 
L 248.745572 44.187664 
L 248.854516 44.473028 
L 249.015873 44.653406 
L 249.163133 44.758393 
L 249.286874 44.836478 
L 249.557875 44.942265 
L 249.828877 45.006861 
L 250.099878 45.040754 
L 250.349856 45.043758 
L 250.370879 45.044565 
" style="fill:none;stroke:#2e8b57;stroke-width:0.7;"/>
    <path clip-path="url(#pbad1b9acae)" d="M 253.080891 44.518492 
L 253.351893 44.543473 
L 253.622894 44.510197 
L 253.768972 44.473028 
L 253.893895 44.45825 
L 254.164896 44.4084 
L 254.435897 44.338892 
L 254.706899 44.199513 
L 254.76339 44.187664 
L 254.9779 44.066398 
L 255.194314 43.902299 
L 255.20303 43.616934 
L 254.9779 43.384319 
L 254.960937 43.33157 
L 254.761627 43.046205 
L 254.706899 42.995715 
L 254.484895 42.760841 
L 254.435897 42.727544 
L 254.164896 42.635788 
L 253.893895 42.596426 
L 253.622894 42.563549 
L 253.351893 42.566251 
L 253.080891 42.616155 
L 252.80989 42.732318 
L 252.762827 42.760841 
L 252.538889 42.973047 
L 252.481519 43.046205 
L 252.377147 43.33157 
L 252.363677 43.616934 
L 252.428454 43.902299 
L 252.538889 44.067666 
L 252.61945 44.187664 
L 252.80989 44.375431 
L 253.00747 44.473028 
L 253.080891 44.518492 
" style="fill:none;stroke:#2e8b57;stroke-width:0.7;"/>
    <path clip-path="url(#pbad1b9acae)" d="M 221.64475 40.849977 
L 221.915751 40.871763 
L 222.186752 40.816642 
L 222.316986 40.763288 
L 222.457753 40.730057 
L 222.728755 40.580506 
L 222.84191 40.477923 
L 222.999756 40.245688 
L 223.037891 40.192559 
L 223.148047 39.907194 
L 223.162398 39.621829 
L 223.085095 39.336465 
L 222.999756 39.221141 
L 222.821576 39.0511 
L 222.728755 38.995628 
L 222.457753 38.898637 
L 222.186752 38.862434 
L 221.915751 38.856494 
L 221.64475 38.901057 
L 221.373748 39.022442 
L 221.325621 39.0511 
L 221.102747 39.219475 
L 220.999716 39.336465 
L 220.883196 39.621829 
L 220.848963 39.907194 
L 220.863251 40.192559 
L 220.980998 40.477923 
L 221.102747 40.597237 
L 221.373748 40.747459 
L 221.434453 40.763288 
L 221.64475 40.849977 
" style="fill:none;stroke:#2e8b57;stroke-width:0.7;"/>
    <path clip-path="url(#pbad1b9acae)" d="M 254.706899 33.932285 
L 254.9779 34.067508 
L 255.248901 34.12007 
L 255.519902 34.035931 
L 255.666603 33.914536 
L 255.790904 33.72458 
L 255.8261 33.629172 
L 255.866385 33.343807 
L 255.848925 33.058443 
L 255.790904 32.848413 
L 255.773293 32.773078 
L 255.602966 32.487713 
L 255.519902 32.41044 
L 255.248901 32.281051 
L 254.9779 32.239561 
L 254.706899 32.223959 
L 254.435897 32.224137 
L 254.164896 32.255911 
L 253.893895 32.320032 
L 253.622894 32.450326 
L 253.570242 32.487713 
L 253.393999 32.773078 
L 253.391682 33.058443 
L 253.51105 33.343807 
L 253.622894 33.46316 
L 253.816081 33.629172 
L 253.893895 33.67556 
L 254.164896 33.791432 
L 254.435897 33.857136 
L 254.667511 33.914536 
L 254.706899 33.932285 
" style="fill:none;stroke:#2e8b57;stroke-width:0.7;"/>
    <path clip-path="url(#pbad1b9acae)" d="M 232.7558 30.538448 
L 233.026801 30.557623 
L 233.248279 30.490161 
L 233.297802 30.479019 
L 233.568803 30.356604 
L 233.730044 30.204796 
L 233.823516 29.919431 
L 233.813354 29.634067 
L 233.72331 29.348702 
L 233.568803 29.165749 
L 233.423771 29.063337 
L 233.297802 28.994376 
L 233.026801 28.91347 
L 232.7558 28.890255 
L 232.484799 28.908933 
L 232.213797 28.999491 
L 232.109229 29.063337 
L 231.942796 29.204015 
L 231.81309 29.348702 
L 231.737991 29.634067 
L 231.785687 29.919431 
L 231.942796 30.135307 
L 231.99723 30.204796 
L 232.213797 30.365251 
L 232.484799 30.466054 
L 232.602847 30.490161 
L 232.7558 30.538448 
" style="fill:none;stroke:#2e8b57;stroke-width:0.7;"/>
    <path clip-path="url(#pbad1b9acae)" d="M 227.335775 26.620474 
L 227.606777 26.686905 
L 227.877778 26.696621 
L 228.148779 26.664074 
L 228.41978 26.577772 
L 228.551365 26.495056 
L 228.690781 26.376664 
L 228.817308 26.209691 
L 228.904698 25.924326 
L 228.932412 25.638962 
L 228.928563 25.353597 
L 228.867602 25.068232 
L 228.690781 24.84669 
L 228.606212 24.782868 
L 228.41978 24.652043 
L 228.148779 24.570518 
L 227.877778 24.570125 
L 227.606777 24.645129 
L 227.404964 24.782868 
L 227.335775 24.817153 
L 227.092873 25.068232 
L 227.064774 25.125247 
L 226.944725 25.353597 
L 226.892726 25.638962 
L 226.888459 25.924326 
L 226.939865 26.209691 
L 227.064774 26.40568 
L 227.145831 26.495056 
L 227.335775 26.620474 
" style="fill:none;stroke:#2e8b57;stroke-width:0.7;"/>
    <path clip-path="url(#pbad1b9acae)" d="M 262.294933 17.943343 
L 262.297335 17.934116 
L 262.294933 17.911744 
L 262.28484 17.934116 
L 262.294933 17.943343 
" style="fill:none;stroke:#2e8b57;stroke-width:0.7;"/>
   </g>
   <g id="LineCollection_12">
    <path clip-path="url(#pbad1b9acae)" d="M 192.105617 85.566404 
L 192.376618 85.65715 
L 192.647619 85.680212 
L 192.91862 85.656377 
L 193.182023 85.565538 
L 193.189621 85.563498 
L 193.460623 85.35328 
L 193.51108 85.280173 
L 193.608932 84.994808 
L 193.625994 84.709444 
L 193.596711 84.424079 
L 193.489238 84.138714 
L 193.460623 84.092597 
L 193.281227 83.85335 
L 193.189621 83.776036 
L 192.91862 83.652648 
L 192.647619 83.610472 
L 192.376618 83.604486 
L 192.105617 83.631618 
L 191.834615 83.743429 
L 191.718077 83.85335 
L 191.566831 84.138714 
L 191.563614 84.155656 
L 191.477323 84.424079 
L 191.473218 84.709444 
L 191.546297 84.994808 
L 191.563614 85.027861 
L 191.659282 85.280173 
L 191.834615 85.458727 
L 192.103783 85.565538 
L 192.105617 85.566404 
" style="fill:none;stroke:#2e8b57;stroke-width:0.7;"/>
    <path clip-path="url(#pbad1b9acae)" d="M 255.248901 49.36325 
L 255.519902 49.403408 
L 255.790904 49.391917 
L 256.061905 49.339447 
L 256.098264 49.324227 
L 256.332906 49.222552 
L 256.523079 49.038863 
L 256.603907 48.873571 
L 256.660647 48.753498 
L 256.695441 48.468133 
L 256.618906 48.182769 
L 256.603907 48.161625 
L 256.332906 47.902573 
L 256.324272 47.897404 
L 256.061905 47.77355 
L 255.790904 47.704763 
L 255.519902 47.67253 
L 255.248901 47.681121 
L 254.9779 47.791685 
L 254.813071 47.897404 
L 254.706899 48.086633 
L 254.643147 48.182769 
L 254.61213 48.468133 
L 254.698818 48.753498 
L 254.706899 48.766174 
L 254.825627 49.038863 
L 254.9779 49.200719 
L 255.187753 49.324227 
L 255.248901 49.36325 
" style="fill:none;stroke:#2e8b57;stroke-width:0.7;"/>
    <path clip-path="url(#pbad1b9acae)" d="M 249.557875 44.853422 
L 249.828877 44.933715 
L 250.099878 44.967691 
L 250.370879 44.957132 
L 250.64188 44.875469 
L 250.81008 44.758393 
L 250.912882 44.647953 
L 251.021044 44.473028 
L 251.072963 44.187664 
L 251.045866 43.902299 
L 250.914363 43.616934 
L 250.912882 43.615131 
L 250.64188 43.338316 
L 250.631549 43.33157 
L 250.370879 43.188632 
L 250.099878 43.11293 
L 249.828877 43.07893 
L 249.557875 43.081049 
L 249.286874 43.135286 
L 249.015873 43.30671 
L 248.987412 43.33157 
L 248.811872 43.616934 
L 248.786603 43.902299 
L 248.832835 44.187664 
L 248.991096 44.473028 
L 249.015873 44.500726 
L 249.286874 44.724966 
L 249.363569 44.758393 
L 249.557875 44.853422 
" style="fill:none;stroke:#2e8b57;stroke-width:0.7;"/>
    <path clip-path="url(#pbad1b9acae)" d="M 253.080891 44.387321 
L 253.351893 44.430657 
L 253.622894 44.422614 
L 253.893895 44.386104 
L 254.164896 44.318645 
L 254.435897 44.201808 
L 254.462114 44.187664 
L 254.673059 43.902299 
L 254.705048 43.616934 
L 254.679135 43.33157 
L 254.558879 43.046205 
L 254.435897 42.916391 
L 254.164896 42.771822 
L 254.123546 42.760841 
L 253.893895 42.696066 
L 253.622894 42.651724 
L 253.351893 42.66011 
L 253.080891 42.731223 
L 253.016996 42.760841 
L 252.80989 42.865493 
L 252.629877 43.046205 
L 252.538889 43.294868 
L 252.523192 43.33157 
L 252.506013 43.616934 
L 252.538889 43.717611 
L 252.586261 43.902299 
L 252.80989 44.18604 
L 252.811526 44.187664 
L 253.080891 44.387321 
" style="fill:none;stroke:#2e8b57;stroke-width:0.7;"/>
    <path clip-path="url(#pbad1b9acae)" d="M 221.373748 40.653904 
L 221.64475 40.737149 
L 221.915751 40.754295 
L 222.186752 40.727019 
L 222.457753 40.648547 
L 222.691764 40.477923 
L 222.728755 40.441317 
L 222.929531 40.192559 
L 222.999756 39.950973 
L 223.018254 39.907194 
L 223.033367 39.621829 
L 222.999756 39.526875 
L 222.944887 39.336465 
L 222.728755 39.118246 
L 222.600318 39.0511 
L 222.457753 38.988176 
L 222.186752 38.92914 
L 221.915751 38.917565 
L 221.64475 38.971661 
L 221.480963 39.0511 
L 221.373748 39.101295 
L 221.114194 39.336465 
L 221.102747 39.359176 
L 220.962745 39.621829 
L 220.923779 39.907194 
L 220.961588 40.192559 
L 221.102747 40.421014 
L 221.146035 40.477923 
L 221.373748 40.653904 
" style="fill:none;stroke:#2e8b57;stroke-width:0.7;"/>
    <path clip-path="url(#pbad1b9acae)" d="M 255.248901 33.964593 
L 255.37848 33.914536 
L 255.519902 33.87089 
L 255.717421 33.629172 
L 255.777221 33.343807 
L 255.767302 33.058443 
L 255.694251 32.773078 
L 255.519902 32.534211 
L 255.463935 32.487713 
L 255.248901 32.359046 
L 254.9779 32.30783 
L 254.706899 32.299512 
L 254.435897 32.316671 
L 254.164896 32.3718 
L 253.893895 32.474227 
L 253.868709 32.487713 
L 253.622894 32.762178 
L 253.615388 32.773078 
L 253.590613 33.058443 
L 253.622894 33.124372 
L 253.711032 33.343807 
L 253.893895 33.515458 
L 254.0665 33.629172 
L 254.164896 33.67742 
L 254.435897 33.763137 
L 254.706899 33.833775 
L 254.9779 33.913082 
L 254.991229 33.914536 
L 255.248901 33.964593 
" style="fill:none;stroke:#2e8b57;stroke-width:0.7;"/>
    <path clip-path="url(#pbad1b9acae)" d="M 232.213797 30.214423 
L 232.484799 30.354624 
L 232.7558 30.417803 
L 233.026801 30.421649 
L 233.297802 30.344947 
L 233.518609 30.204796 
L 233.568803 30.150291 
L 233.696572 29.919431 
L 233.702219 29.634067 
L 233.583818 29.348702 
L 233.568803 29.330923 
L 233.297802 29.11401 
L 233.165112 29.063337 
L 233.026801 29.014662 
L 232.7558 28.989072 
L 232.484799 29.031199 
L 232.405588 29.063337 
L 232.213797 29.15835 
L 232.008109 29.348702 
L 231.942796 29.538383 
L 231.90806 29.634067 
L 231.942796 29.790086 
L 231.965796 29.919431 
L 232.200804 30.204796 
L 232.213797 30.214423 
" style="fill:none;stroke:#2e8b57;stroke-width:0.7;"/>
    <path clip-path="url(#pbad1b9acae)" d="M 227.335775 26.521591 
L 227.606777 26.630997 
L 227.877778 26.651522 
L 228.148779 26.612342 
L 228.41978 26.496531 
L 228.422128 26.495056 
L 228.690781 26.266917 
L 228.734145 26.209691 
L 228.850874 25.924326 
L 228.882694 25.638962 
L 228.865169 25.353597 
L 228.752478 25.068232 
L 228.690781 24.990932 
L 228.41978 24.784442 
L 228.415188 24.782868 
L 228.148779 24.658039 
L 227.877778 24.647629 
L 227.606777 24.745239 
L 227.551644 24.782868 
L 227.335775 24.889837 
L 227.16319 25.068232 
L 227.064774 25.267928 
L 227.019736 25.353597 
L 226.951944 25.638962 
L 226.954112 25.924326 
L 227.045106 26.209691 
L 227.064774 26.240551 
L 227.295588 26.495056 
L 227.335775 26.521591 
" style="fill:none;stroke:#2e8b57;stroke-width:0.7;"/>
   </g>
   <g id="LineCollection_13">
    <path clip-path="url(#pbad1b9acae)" d="M 192.376618 85.574397 
L 192.647619 85.604276 
L 192.901345 85.565538 
L 192.91862 85.564022 
L 193.189621 85.490247 
L 193.412062 85.280173 
L 193.460623 85.161636 
L 193.530092 84.994808 
L 193.559952 84.709444 
L 193.521284 84.424079 
L 193.460623 84.277228 
L 193.415752 84.138714 
L 193.189621 83.877938 
L 193.148584 83.85335 
L 192.91862 83.719106 
L 192.647619 83.66019 
L 192.376618 83.655849 
L 192.105617 83.703373 
L 191.856557 83.85335 
L 191.834615 83.869097 
L 191.631317 84.138714 
L 191.572746 84.424079 
L 191.568875 84.709444 
L 191.609746 84.994808 
L 191.759289 85.280173 
L 191.834615 85.356883 
L 192.105617 85.51283 
L 192.350241 85.565538 
L 192.376618 85.574397 
" style="fill:none;stroke:#2e8b57;stroke-width:0.7;"/>
    <path clip-path="url(#pbad1b9acae)" d="M 255.248901 49.226143 
L 255.519902 49.270991 
L 255.790904 49.261918 
L 256.061905 49.201034 
L 256.310603 49.038863 
L 256.332906 49.013146 
L 256.496306 48.753498 
L 256.53162 48.468133 
L 256.430111 48.182769 
L 256.332906 48.086591 
L 256.061905 47.915734 
L 256.022506 47.897404 
L 255.790904 47.808293 
L 255.519902 47.757044 
L 255.248901 47.77519 
L 255.023601 47.897404 
L 254.9779 47.938031 
L 254.794553 48.182769 
L 254.764232 48.468133 
L 254.818419 48.753498 
L 254.9779 49.001991 
L 255.009305 49.038863 
L 255.248901 49.226143 
" style="fill:none;stroke:#2e8b57;stroke-width:0.7;"/>
    <path clip-path="url(#pbad1b9acae)" d="M 249.828877 44.823995 
L 250.099878 44.858095 
L 250.370879 44.826742 
L 250.525729 44.758393 
L 250.64188 44.703958 
L 250.859143 44.473028 
L 250.912882 44.273432 
L 250.936988 44.187664 
L 250.912882 43.95021 
L 250.909837 43.902299 
L 250.79938 43.616934 
L 250.64188 43.455516 
L 250.452073 43.33157 
L 250.370879 43.287047 
L 250.099878 43.191229 
L 249.828877 43.156045 
L 249.557875 43.173034 
L 249.286874 43.267574 
L 249.191643 43.33157 
L 249.015873 43.53095 
L 248.959158 43.616934 
L 248.904729 43.902299 
L 248.96373 44.187664 
L 249.015873 44.276654 
L 249.134961 44.473028 
L 249.286874 44.606204 
L 249.557875 44.735336 
L 249.645752 44.758393 
L 249.828877 44.823995 
" style="fill:none;stroke:#2e8b57;stroke-width:0.7;"/>
    <path clip-path="url(#pbad1b9acae)" d="M 253.080891 44.228418 
L 253.351893 44.320501 
L 253.622894 44.323173 
L 253.893895 44.277886 
L 254.156356 44.187664 
L 254.164896 44.184329 
L 254.435897 43.973524 
L 254.491982 43.902299 
L 254.555966 43.616934 
L 254.507896 43.33157 
L 254.435897 43.204646 
L 254.339437 43.046205 
L 254.164896 42.912551 
L 253.893895 42.814981 
L 253.622894 42.77579 
L 253.351893 42.787168 
L 253.080891 42.859586 
L 252.816572 43.046205 
L 252.80989 43.055821 
L 252.660823 43.33157 
L 252.647321 43.616934 
L 252.753968 43.902299 
L 252.80989 43.973254 
L 253.025908 44.187664 
L 253.080891 44.228418 
" style="fill:none;stroke:#2e8b57;stroke-width:0.7;"/>
    <path clip-path="url(#pbad1b9acae)" d="M 221.373748 40.51357 
L 221.64475 40.642417 
L 221.915751 40.672129 
L 222.186752 40.639669 
L 222.457753 40.526283 
L 222.524079 40.477923 
L 222.728755 40.275371 
L 222.795593 40.192559 
L 222.908016 39.907194 
L 222.912055 39.621829 
L 222.787325 39.336465 
L 222.728755 39.277328 
L 222.457753 39.098525 
L 222.2658 39.0511 
L 222.186752 39.0292 
L 221.915751 39.009172 
L 221.74046 39.0511 
L 221.64475 39.068278 
L 221.373748 39.203525 
L 221.227024 39.336465 
L 221.102747 39.583037 
L 221.08207 39.621829 
L 221.036004 39.907194 
L 221.102747 40.173308 
L 221.106869 40.192559 
L 221.327623 40.477923 
L 221.373748 40.51357 
" style="fill:none;stroke:#2e8b57;stroke-width:0.7;"/>
    <path clip-path="url(#pbad1b9acae)" d="M 254.706899 33.698596 
L 254.9779 33.782053 
L 255.248901 33.805634 
L 255.519902 33.68457 
L 255.56517 33.629172 
L 255.675965 33.343807 
L 255.673857 33.058443 
L 255.575687 32.773078 
L 255.519902 32.69665 
L 255.268412 32.487713 
L 255.248901 32.476039 
L 254.9779 32.410234 
L 254.706899 32.412842 
L 254.435897 32.455472 
L 254.324578 32.487713 
L 254.164896 32.544738 
L 253.893895 32.728884 
L 253.853229 32.773078 
L 253.80115 33.058443 
L 253.893895 33.243125 
L 253.944785 33.343807 
L 254.164896 33.516114 
L 254.435897 33.622611 
L 254.459891 33.629172 
L 254.706899 33.698596 
" style="fill:none;stroke:#2e8b57;stroke-width:0.7;"/>
    <path clip-path="url(#pbad1b9acae)" d="M 232.7558 30.266994 
L 233.026801 30.258101 
L 233.167218 30.204796 
L 233.297802 30.140126 
L 233.503408 29.919431 
L 233.534869 29.634067 
L 233.382899 29.348702 
L 233.297802 29.278718 
L 233.026801 29.155167 
L 232.7558 29.128605 
L 232.484799 29.193188 
L 232.24951 29.348702 
L 232.213797 29.408788 
L 232.106967 29.634067 
L 232.169546 29.919431 
L 232.213797 29.972194 
L 232.484799 30.186439 
L 232.539205 30.204796 
L 232.7558 30.266994 
" style="fill:none;stroke:#2e8b57;stroke-width:0.7;"/>
    <path clip-path="url(#pbad1b9acae)" d="M 227.606777 26.547135 
L 227.877778 26.583873 
L 228.148779 26.534743 
L 228.241221 26.495056 
L 228.41978 26.422019 
L 228.640617 26.209691 
L 228.690781 26.095849 
L 228.770138 25.924326 
L 228.808118 25.638962 
L 228.770078 25.353597 
L 228.690781 25.192442 
L 228.623708 25.068232 
L 228.41978 24.880508 
L 228.148779 24.785844 
L 228.08607 24.782868 
L 227.877778 24.763886 
L 227.829298 24.782868 
L 227.606777 24.830825 
L 227.335775 24.998864 
L 227.268666 25.068232 
L 227.100887 25.353597 
L 227.064774 25.550318 
L 227.04077 25.638962 
L 227.052592 25.924326 
L 227.064774 25.959658 
L 227.138151 26.209691 
L 227.335775 26.421345 
L 227.490076 26.495056 
L 227.606777 26.547135 
" style="fill:none;stroke:#2e8b57;stroke-width:0.7;"/>
   </g>
   <g id="LineCollection_14">
    <path clip-path="url(#pbad1b9acae)" d="M 192.105617 85.433199 
L 192.376618 85.514483 
L 192.647619 85.531677 
L 192.91862 85.498558 
L 193.189621 85.38037 
L 193.295717 85.280173 
L 193.434176 84.994808 
L 193.460623 84.711303 
L 193.460891 84.709444 
L 193.460623 84.707789 
L 193.434197 84.424079 
L 193.327025 84.138714 
L 193.189621 83.98026 
L 192.977815 83.85335 
L 192.91862 83.818794 
L 192.647619 83.734766 
L 192.376618 83.732893 
L 192.105617 83.811006 
L 192.035298 83.85335 
L 191.834615 83.99738 
L 191.728045 84.138714 
L 191.638105 84.424079 
L 191.63013 84.709444 
L 191.688858 84.994808 
L 191.834615 85.219467 
L 191.890378 85.280173 
L 192.105617 85.433199 
" style="fill:none;stroke:#2e8b57;stroke-width:0.7;"/>
    <path clip-path="url(#pbad1b9acae)" d="M 255.248901 49.047477 
L 255.519902 49.126721 
L 255.790904 49.107192 
L 255.980544 49.038863 
L 256.061905 48.995076 
L 256.277914 48.753498 
L 256.319376 48.468133 
L 256.16844 48.182769 
L 256.061905 48.103515 
L 255.790904 47.956448 
L 255.574366 47.897404 
L 255.519902 47.883815 
L 255.399389 47.897404 
L 255.248901 47.916697 
L 254.9779 48.169266 
L 254.967784 48.182769 
L 254.908493 48.468133 
L 254.9779 48.715432 
L 254.988637 48.753498 
L 255.237881 49.038863 
L 255.248901 49.047477 
" style="fill:none;stroke:#2e8b57;stroke-width:0.7;"/>
    <path clip-path="url(#pbad1b9acae)" d="M 249.557875 44.614797 
L 249.828877 44.696304 
L 250.099878 44.716302 
L 250.370879 44.671986 
L 250.64188 44.496289 
L 250.663764 44.473028 
L 250.794837 44.187664 
L 250.782147 43.902299 
L 250.64188 43.636713 
L 250.629813 43.616934 
L 250.370879 43.412792 
L 250.159009 43.33157 
L 250.099878 43.308677 
L 249.828877 43.271719 
L 249.557875 43.311013 
L 249.509022 43.33157 
L 249.286874 43.451188 
L 249.135628 43.616934 
L 249.062731 43.902299 
L 249.114919 44.187664 
L 249.286874 44.42587 
L 249.334761 44.473028 
L 249.557875 44.614797 
" style="fill:none;stroke:#2e8b57;stroke-width:0.7;"/>
    <path clip-path="url(#pbad1b9acae)" d="M 253.080891 44.0302 
L 253.351893 44.160847 
L 253.622894 44.176385 
L 253.893895 44.127548 
L 254.164896 43.999914 
L 254.273336 43.902299 
L 254.365347 43.616934 
L 254.315513 43.33157 
L 254.164896 43.128811 
L 254.063463 43.046205 
L 253.893895 42.958308 
L 253.622894 42.903926 
L 253.351893 42.925967 
L 253.080891 43.038385 
L 253.069815 43.046205 
L 252.850724 43.33157 
L 252.833373 43.616934 
L 252.955132 43.902299 
L 253.080891 44.0302 
" style="fill:none;stroke:#2e8b57;stroke-width:0.7;"/>
    <path clip-path="url(#pbad1b9acae)" d="M 221.64475 40.500318 
L 221.915751 40.54888 
L 222.186752 40.508643 
L 222.252203 40.477923 
L 222.457753 40.375773 
L 222.637785 40.192559 
L 222.728755 39.967523 
L 222.755958 39.907194 
L 222.752858 39.621829 
L 222.728755 39.574014 
L 222.595518 39.336465 
L 222.457753 39.232369 
L 222.186752 39.134786 
L 221.915751 39.114089 
L 221.64475 39.171383 
L 221.394543 39.336465 
L 221.373748 39.359829 
L 221.203601 39.621829 
L 221.168461 39.907194 
L 221.25058 40.192559 
L 221.373748 40.337472 
L 221.601533 40.477923 
L 221.64475 40.500318 
" style="fill:none;stroke:#2e8b57;stroke-width:0.7;"/>
    <path clip-path="url(#pbad1b9acae)" d="M 254.435897 33.42535 
L 254.706899 33.508277 
L 254.9779 33.58854 
L 255.248901 33.597252 
L 255.519902 33.353272 
L 255.52408 33.343807 
L 255.533689 33.058443 
L 255.519902 33.022673 
L 255.395017 32.773078 
L 255.248901 32.641115 
L 254.9779 32.565394 
L 254.706899 32.585968 
L 254.435897 32.661436 
L 254.210723 32.773078 
L 254.164896 32.847978 
L 254.08083 33.058443 
L 254.164896 33.210942 
L 254.272114 33.343807 
L 254.435897 33.42535 
" style="fill:none;stroke:#2e8b57;stroke-width:0.7;"/>
    <path clip-path="url(#pbad1b9acae)" d="M 232.484799 29.92065 
L 232.7558 30.035668 
L 233.026801 30.006196 
L 233.168853 29.919431 
L 233.273014 29.634067 
L 233.026801 29.366244 
L 232.953037 29.348702 
L 232.7558 29.324812 
L 232.684569 29.348702 
L 232.484799 29.494946 
L 232.39214 29.634067 
L 232.483354 29.919431 
L 232.484799 29.92065 
" style="fill:none;stroke:#2e8b57;stroke-width:0.7;"/>
    <path clip-path="url(#pbad1b9acae)" d="M 227.335775 26.28669 
L 227.606777 26.450081 
L 227.877778 26.48729 
L 228.148779 26.448232 
L 228.41978 26.31112 
L 228.525274 26.209691 
L 228.664863 25.924326 
L 228.690781 25.674426 
L 228.696254 25.638962 
L 228.690781 25.610644 
L 228.651824 25.353597 
L 228.467173 25.068232 
L 228.41978 25.024605 
L 228.148779 24.876679 
L 227.877778 24.852662 
L 227.606777 24.926812 
L 227.41193 25.068232 
L 227.335775 25.143736 
L 227.191211 25.353597 
L 227.124181 25.638962 
L 227.138107 25.924326 
L 227.26388 26.209691 
L 227.335775 26.28669 
" style="fill:none;stroke:#2e8b57;stroke-width:0.7;"/>
   </g>
   <g id="LineCollection_15">
    <path clip-path="url(#pbad1b9acae)" d="M 192.105617 85.313753 
L 192.376618 85.432015 
L 192.647619 85.454711 
L 192.91862 85.400363 
L 193.123875 85.280173 
L 193.189621 85.222367 
L 193.338023 84.994808 
L 193.383657 84.709444 
L 193.34874 84.424079 
L 193.193934 84.138714 
L 193.189621 84.133741 
L 192.91862 83.920749 
L 192.667254 83.85335 
L 192.647619 83.846631 
L 192.376618 83.848459 
L 192.361914 83.85335 
L 192.105617 83.927912 
L 191.865218 84.138714 
L 191.834615 84.198376 
L 191.736143 84.424079 
L 191.722012 84.709444 
L 191.807525 84.994808 
L 191.834615 85.036563 
L 192.058385 85.280173 
L 192.105617 85.313753 
" style="fill:none;stroke:#2e8b57;stroke-width:0.7;"/>
    <path clip-path="url(#pbad1b9acae)" d="M 255.248901 48.801697 
L 255.519902 48.916121 
L 255.790904 48.866081 
L 255.954224 48.753498 
L 256.027303 48.468133 
L 255.820787 48.182769 
L 255.790904 48.16426 
L 255.519902 48.065856 
L 255.248901 48.132896 
L 255.196445 48.182769 
L 255.107051 48.468133 
L 255.206122 48.753498 
L 255.248901 48.801697 
" style="fill:none;stroke:#2e8b57;stroke-width:0.7;"/>
    <path clip-path="url(#pbad1b9acae)" d="M 249.828877 44.541439 
L 250.099878 44.555856 
L 250.370149 44.473028 
L 250.370879 44.472687 
L 250.59582 44.187664 
L 250.594656 43.902299 
L 250.408549 43.616934 
L 250.370879 43.587236 
L 250.099878 43.457613 
L 249.828877 43.427081 
L 249.557875 43.490846 
L 249.380143 43.616934 
L 249.286874 43.806643 
L 249.251298 43.902299 
L 249.286874 44.061286 
L 249.31631 44.187664 
L 249.557875 44.430435 
L 249.64685 44.473028 
L 249.828877 44.541439 
" style="fill:none;stroke:#2e8b57;stroke-width:0.7;"/>
    <path clip-path="url(#pbad1b9acae)" d="M 253.351893 43.955678 
L 253.622894 43.991557 
L 253.893895 43.924545 
L 253.933141 43.902299 
L 254.132968 43.616934 
L 254.057317 43.33157 
L 253.893895 43.186978 
L 253.622894 43.102237 
L 253.351893 43.145994 
L 253.10747 43.33157 
L 253.080891 43.474755 
L 253.061535 43.616934 
L 253.080891 43.655004 
L 253.264982 43.902299 
L 253.351893 43.955678 
" style="fill:none;stroke:#2e8b57;stroke-width:0.7;"/>
    <path clip-path="url(#pbad1b9acae)" d="M 221.64475 40.328529 
L 221.915751 40.389353 
L 222.186752 40.349517 
L 222.429595 40.192559 
L 222.457753 40.156116 
L 222.588151 39.907194 
L 222.573612 39.621829 
L 222.457753 39.455645 
L 222.304903 39.336465 
L 222.186752 39.281761 
L 221.915751 39.250063 
L 221.64475 39.32604 
L 221.628949 39.336465 
L 221.374617 39.621829 
L 221.373748 39.627504 
L 221.331787 39.907194 
L 221.373748 40.014138 
L 221.467188 40.192559 
L 221.64475 40.328529 
" style="fill:none;stroke:#2e8b57;stroke-width:0.7;"/>
    <path clip-path="url(#pbad1b9acae)" d="M 254.706899 33.118557 
L 254.9779 33.279254 
L 255.248901 33.161327 
L 255.277756 33.058443 
L 255.248901 33.003278 
L 254.9779 32.841581 
L 254.706899 32.981083 
L 254.63041 33.058443 
L 254.706899 33.118557 
" style="fill:none;stroke:#2e8b57;stroke-width:0.7;"/>
    <path clip-path="url(#pbad1b9acae)" d="M 227.606777 26.334958 
L 227.877778 26.393897 
L 228.148779 26.341658 
L 228.354837 26.209691 
L 228.41978 26.138455 
L 228.552082 25.924326 
L 228.590184 25.638962 
L 228.520231 25.353597 
L 228.41978 25.214096 
L 228.240133 25.068232 
L 228.148779 25.01293 
L 227.877778 24.970142 
L 227.612431 25.068232 
L 227.606777 25.070312 
L 227.335775 25.340419 
L 227.326697 25.353597 
L 227.232874 25.638962 
L 227.257994 25.924326 
L 227.335775 26.070386 
L 227.434019 26.209691 
L 227.606777 26.334958 
" style="fill:none;stroke:#2e8b57;stroke-width:0.7;"/>
   </g>
   <g id="LineCollection_16">
    <path clip-path="url(#pbad1b9acae)" d="M 192.376618 85.308312 
L 192.647619 85.339261 
L 192.846954 85.280173 
L 192.91862 85.256924 
L 193.189621 85.001206 
L 193.193794 84.994808 
L 193.268001 84.709444 
L 193.220554 84.424079 
L 193.189621 84.367622 
L 193.027566 84.138714 
L 192.91862 84.052231 
L 192.647619 83.950026 
L 192.376618 83.956442 
L 192.105617 84.079519 
L 192.03811 84.138714 
L 191.872462 84.424079 
L 191.854024 84.709444 
L 191.94944 84.994808 
L 192.105617 85.16221 
L 192.317346 85.280173 
L 192.376618 85.308312 
" style="fill:none;stroke:#2e8b57;stroke-width:0.7;"/>
    <path clip-path="url(#pbad1b9acae)" d="M 249.828877 44.288921 
L 250.099878 44.289805 
L 250.267844 44.187664 
L 250.311555 43.902299 
L 250.099878 43.710042 
L 249.828877 43.665491 
L 249.557875 43.861803 
L 249.533406 43.902299 
L 249.557875 43.995282 
L 249.643598 44.187664 
L 249.828877 44.288921 
" style="fill:none;stroke:#2e8b57;stroke-width:0.7;"/>
    <path clip-path="url(#pbad1b9acae)" d="M 221.64475 40.014974 
L 221.915751 40.163876 
L 222.186752 40.083893 
L 222.329654 39.907194 
L 222.287803 39.621829 
L 222.186752 39.53507 
L 221.915751 39.478074 
L 221.64475 39.599711 
L 221.624682 39.621829 
L 221.576795 39.907194 
L 221.64475 40.014974 
" style="fill:none;stroke:#2e8b57;stroke-width:0.7;"/>
    <path clip-path="url(#pbad1b9acae)" d="M 227.877778 26.253808 
L 228.052159 26.209691 
L 228.148779 26.178917 
L 228.384232 25.924326 
L 228.41978 25.723959 
L 228.434201 25.638962 
L 228.41978 25.593751 
L 228.327011 25.353597 
L 228.148779 25.192653 
L 227.877778 25.132877 
L 227.606777 25.245628 
L 227.500553 25.353597 
L 227.386937 25.638962 
L 227.422302 25.924326 
L 227.606777 26.156904 
L 227.733008 26.209691 
L 227.877778 26.253808 
" style="fill:none;stroke:#2e8b57;stroke-width:0.7;"/>
   </g>
   <g id="LineCollection_17">
    <path clip-path="url(#pbad1b9acae)" d="M 192.376618 85.150557 
L 192.647619 85.184603 
L 192.91862 85.067404 
L 192.994738 84.994808 
L 193.105199 84.709444 
L 193.050953 84.424079 
L 192.91862 84.256334 
L 192.730892 84.138714 
L 192.647619 84.101089 
L 192.376618 84.11557 
L 192.332088 84.138714 
L 192.105617 84.331205 
L 192.044292 84.424079 
L 192.013127 84.709444 
L 192.105617 84.913598 
L 192.155725 84.994808 
L 192.376618 85.150557 
" style="fill:none;stroke:#2e8b57;stroke-width:0.7;"/>
    <path clip-path="url(#pbad1b9acae)" d="M 227.877778 26.025738 
L 228.127227 25.924326 
L 228.148779 25.889124 
L 228.208882 25.638962 
L 228.148779 25.519425 
L 227.884342 25.353597 
L 227.877778 25.351583 
L 227.873609 25.353597 
L 227.606777 25.613949 
L 227.594995 25.638962 
L 227.606777 25.703585 
L 227.690118 25.924326 
L 227.877778 26.025738 
" style="fill:none;stroke:#2e8b57;stroke-width:0.7;"/>
   </g>
   <g id="LineCollection_18">
    <path clip-path="url(#pbad1b9acae)" d="M 192.376618 84.871988 
L 192.647619 84.946616 
L 192.855161 84.709444 
L 192.758039 84.424079 
L 192.647619 84.34485 
L 192.376618 84.379148 
L 192.327486 84.424079 
L 192.265748 84.709444 
L 192.376618 84.871988 
" style="fill:none;stroke:#2e8b57;stroke-width:0.7;"/>
   </g>
   <g id="LineCollection_19"/>
   <g id="LineCollection_20"/>
   <g id="patch_3">
    <path d="M 55.25 241.66 
L 55.25 10.8 
" style="fill:none;stroke:#000000;stroke-linecap:square;stroke-linejoin:miter;stroke-width:1.3;"/>
   </g>
   <g id="patch_4">
    <path d="M 277.2 241.66 
L 277.2 10.8 
" style="fill:none;stroke:#000000;stroke-linecap:square;stroke-linejoin:miter;stroke-width:1.3;"/>
   </g>
   <g id="patch_5">
    <path d="M 55.25 241.66 
L 277.2 241.66 
" style="fill:none;stroke:#000000;stroke-linecap:square;stroke-linejoin:miter;stroke-width:1.3;"/>
   </g>
   <g id="patch_6">
    <path d="M 55.25 10.8 
L 277.2 10.8 
" style="fill:none;stroke:#000000;stroke-linecap:square;stroke-linejoin:miter;stroke-width:1.3;"/>
   </g>
  </g>
 </g>
 <defs>
  <clipPath id="pbad1b9acae">
   <rect height="230.86" width="221.95" x="55.25" y="10.8"/>
  </clipPath>
 </defs>
</svg>
