<?xml version="1.0" encoding="utf-8" standalone="no"?>
<!DOCTYPE svg PUBLIC "-//W3C//DTD SVG 1.1//EN"
  "http://www.w3.org/Graphics/SVG/1.1/DTD/svg11.dtd">
<!-- Created with matplotlib (https://matplotlib.org/) -->
<svg height="345.6pt" version="1.1" viewBox="0 0 460.8 345.6" width="460.8pt" xmlns="http://www.w3.org/2000/svg" xmlns:xlink="http://www.w3.org/1999/xlink">
 <defs>
  <style type="text/css">
*{stroke-linecap:butt;stroke-linejoin:round;}
  </style>
 </defs>
 <g id="figure_1">
  <g id="patch_1">
   <path d="M 0 345.6 
L 460.8 345.6 
L 460.8 0 
L 0 0 
z
" style="fill:#ffffff;"/>
  </g>
  <g id="axes_1">
   <g id="patch_2">
    <path d="M 55.25 299.26 
L 450 299.26 
L 450 26.88 
L 55.25 26.88 
z
" style="fill:#ffffff;"/>
   </g>
   <g id="matplotlib.axis_1">
    <g id="xtick_1">
     <g id="line2d_1">
      <defs>
       <path d="M 0 0 
L 0 5 
" id="m1290c4994d" style="stroke:#000000;stroke-width:1.3;"/>
      </defs>
      <g>
       <use style="stroke:#000000;stroke-width:1.3;" x="424.856997" xlink:href="#m1290c4994d" y="299.26"/>
      </g>
     </g>
     <g id="text_1">
      <!-- 1 -->
      <defs>
       <path d="M 12.40625 8.296875 
L 28.515625 8.296875 
L 28.515625 63.921875 
L 10.984375 60.40625 
L 10.984375 69.390625 
L 28.421875 72.90625 
L 38.28125 72.90625 
L 38.28125 8.296875 
L 54.390625 8.296875 
L 54.390625 0 
L 12.40625 0 
z
" id="DejaVuSans-49"/>
      </defs>
      <g transform="translate(421.675747 315.358437)scale(0.1 -0.1)">
       <use xlink:href="#DejaVuSans-49"/>
      </g>
     </g>
    </g>
    <g id="xtick_2">
     <g id="line2d_2">
      <g>
       <use style="stroke:#000000;stroke-width:1.3;" x="375.533125" xlink:href="#m1290c4994d" y="299.26"/>
      </g>
     </g>
     <g id="text_2">
      <!-- 2 -->
      <defs>
       <path d="M 19.1875 8.296875 
L 53.609375 8.296875 
L 53.609375 0 
L 7.328125 0 
L 7.328125 8.296875 
Q 12.9375 14.109375 22.625 23.890625 
Q 32.328125 33.6875 34.8125 36.53125 
Q 39.546875 41.84375 41.421875 45.53125 
Q 43.3125 49.21875 43.3125 52.78125 
Q 43.3125 58.59375 39.234375 62.25 
Q 35.15625 65.921875 28.609375 65.921875 
Q 23.96875 65.921875 18.8125 64.3125 
Q 13.671875 62.703125 7.8125 59.421875 
L 7.8125 69.390625 
Q 13.765625 71.78125 18.9375 73 
Q 24.125 74.21875 28.421875 74.21875 
Q 39.75 74.21875 46.484375 68.546875 
Q 53.21875 62.890625 53.21875 53.421875 
Q 53.21875 48.921875 51.53125 44.890625 
Q 49.859375 40.875 45.40625 35.40625 
Q 44.1875 33.984375 37.640625 27.21875 
Q 31.109375 20.453125 19.1875 8.296875 
z
" id="DejaVuSans-50"/>
      </defs>
      <g transform="translate(372.351875 315.358437)scale(0.1 -0.1)">
       <use xlink:href="#DejaVuSans-50"/>
      </g>
     </g>
    </g>
    <g id="xtick_3">
     <g id="line2d_3">
      <g>
       <use style="stroke:#000000;stroke-width:1.3;" x="326.209253" xlink:href="#m1290c4994d" y="299.26"/>
      </g>
     </g>
     <g id="text_3">
      <!-- 3 -->
      <defs>
       <path d="M 40.578125 39.3125 
Q 47.65625 37.796875 51.625 33 
Q 55.609375 28.21875 55.609375 21.1875 
Q 55.609375 10.40625 48.1875 4.484375 
Q 40.765625 -1.421875 27.09375 -1.421875 
Q 22.515625 -1.421875 17.65625 -0.515625 
Q 12.796875 0.390625 7.625 2.203125 
L 7.625 11.71875 
Q 11.71875 9.328125 16.59375 8.109375 
Q 21.484375 6.890625 26.8125 6.890625 
Q 36.078125 6.890625 40.9375 10.546875 
Q 45.796875 14.203125 45.796875 21.1875 
Q 45.796875 27.640625 41.28125 31.265625 
Q 36.765625 34.90625 28.71875 34.90625 
L 20.21875 34.90625 
L 20.21875 43.015625 
L 29.109375 43.015625 
Q 36.375 43.015625 40.234375 45.921875 
Q 44.09375 48.828125 44.09375 54.296875 
Q 44.09375 59.90625 40.109375 62.90625 
Q 36.140625 65.921875 28.71875 65.921875 
Q 24.65625 65.921875 20.015625 65.03125 
Q 15.375 64.15625 9.8125 62.3125 
L 9.8125 71.09375 
Q 15.4375 72.65625 20.34375 73.4375 
Q 25.25 74.21875 29.59375 74.21875 
Q 40.828125 74.21875 47.359375 69.109375 
Q 53.90625 64.015625 53.90625 55.328125 
Q 53.90625 49.265625 50.4375 45.09375 
Q 46.96875 40.921875 40.578125 39.3125 
z
" id="DejaVuSans-51"/>
      </defs>
      <g transform="translate(323.028003 315.358437)scale(0.1 -0.1)">
       <use xlink:href="#DejaVuSans-51"/>
      </g>
     </g>
    </g>
    <g id="xtick_4">
     <g id="line2d_4">
      <g>
       <use style="stroke:#000000;stroke-width:1.3;" x="276.88538" xlink:href="#m1290c4994d" y="299.26"/>
      </g>
     </g>
     <g id="text_4">
      <!-- 4 -->
      <defs>
       <path d="M 37.796875 64.3125 
L 12.890625 25.390625 
L 37.796875 25.390625 
z
M 35.203125 72.90625 
L 47.609375 72.90625 
L 47.609375 25.390625 
L 58.015625 25.390625 
L 58.015625 17.1875 
L 47.609375 17.1875 
L 47.609375 0 
L 37.796875 0 
L 37.796875 17.1875 
L 4.890625 17.1875 
L 4.890625 26.703125 
z
" id="DejaVuSans-52"/>
      </defs>
      <g transform="translate(273.70413 315.358437)scale(0.1 -0.1)">
       <use xlink:href="#DejaVuSans-52"/>
      </g>
     </g>
    </g>
    <g id="xtick_5">
     <g id="line2d_5">
      <g>
       <use style="stroke:#000000;stroke-width:1.3;" x="227.561508" xlink:href="#m1290c4994d" y="299.26"/>
      </g>
     </g>
     <g id="text_5">
      <!-- 5 -->
      <defs>
       <path d="M 10.796875 72.90625 
L 49.515625 72.90625 
L 49.515625 64.59375 
L 19.828125 64.59375 
L 19.828125 46.734375 
Q 21.96875 47.46875 24.109375 47.828125 
Q 26.265625 48.1875 28.421875 48.1875 
Q 40.625 48.1875 47.75 41.5 
Q 54.890625 34.8125 54.890625 23.390625 
Q 54.890625 11.625 47.5625 5.09375 
Q 40.234375 -1.421875 26.90625 -1.421875 
Q 22.3125 -1.421875 17.546875 -0.640625 
Q 12.796875 0.140625 7.71875 1.703125 
L 7.71875 11.625 
Q 12.109375 9.234375 16.796875 8.0625 
Q 21.484375 6.890625 26.703125 6.890625 
Q 35.15625 6.890625 40.078125 11.328125 
Q 45.015625 15.765625 45.015625 23.390625 
Q 45.015625 31 40.078125 35.4375 
Q 35.15625 39.890625 26.703125 39.890625 
Q 22.75 39.890625 18.8125 39.015625 
Q 14.890625 38.140625 10.796875 36.28125 
z
" id="DejaVuSans-53"/>
      </defs>
      <g transform="translate(224.380258 315.358437)scale(0.1 -0.1)">
       <use xlink:href="#DejaVuSans-53"/>
      </g>
     </g>
    </g>
    <g id="xtick_6">
     <g id="line2d_6">
      <g>
       <use style="stroke:#000000;stroke-width:1.3;" x="178.237636" xlink:href="#m1290c4994d" y="299.26"/>
      </g>
     </g>
     <g id="text_6">
      <!-- 6 -->
      <defs>
       <path d="M 33.015625 40.375 
Q 26.375 40.375 22.484375 35.828125 
Q 18.609375 31.296875 18.609375 23.390625 
Q 18.609375 15.53125 22.484375 10.953125 
Q 26.375 6.390625 33.015625 6.390625 
Q 39.65625 6.390625 43.53125 10.953125 
Q 47.40625 15.53125 47.40625 23.390625 
Q 47.40625 31.296875 43.53125 35.828125 
Q 39.65625 40.375 33.015625 40.375 
z
M 52.59375 71.296875 
L 52.59375 62.3125 
Q 48.875 64.0625 45.09375 64.984375 
Q 41.3125 65.921875 37.59375 65.921875 
Q 27.828125 65.921875 22.671875 59.328125 
Q 17.53125 52.734375 16.796875 39.40625 
Q 19.671875 43.65625 24.015625 45.921875 
Q 28.375 48.1875 33.59375 48.1875 
Q 44.578125 48.1875 50.953125 41.515625 
Q 57.328125 34.859375 57.328125 23.390625 
Q 57.328125 12.15625 50.6875 5.359375 
Q 44.046875 -1.421875 33.015625 -1.421875 
Q 20.359375 -1.421875 13.671875 8.265625 
Q 6.984375 17.96875 6.984375 36.375 
Q 6.984375 53.65625 15.1875 63.9375 
Q 23.390625 74.21875 37.203125 74.21875 
Q 40.921875 74.21875 44.703125 73.484375 
Q 48.484375 72.75 52.59375 71.296875 
z
" id="DejaVuSans-54"/>
      </defs>
      <g transform="translate(175.056386 315.358437)scale(0.1 -0.1)">
       <use xlink:href="#DejaVuSans-54"/>
      </g>
     </g>
    </g>
    <g id="xtick_7">
     <g id="line2d_7">
      <g>
       <use style="stroke:#000000;stroke-width:1.3;" x="128.913763" xlink:href="#m1290c4994d" y="299.26"/>
      </g>
     </g>
     <g id="text_7">
      <!-- 7 -->
      <defs>
       <path d="M 8.203125 72.90625 
L 55.078125 72.90625 
L 55.078125 68.703125 
L 28.609375 0 
L 18.3125 0 
L 43.21875 64.59375 
L 8.203125 64.59375 
z
" id="DejaVuSans-55"/>
      </defs>
      <g transform="translate(125.732513 315.358437)scale(0.1 -0.1)">
       <use xlink:href="#DejaVuSans-55"/>
      </g>
     </g>
    </g>
    <g id="xtick_8">
     <g id="line2d_8">
      <g>
       <use style="stroke:#000000;stroke-width:1.3;" x="79.589891" xlink:href="#m1290c4994d" y="299.26"/>
      </g>
     </g>
     <g id="text_8">
      <!-- 8 -->
      <defs>
       <path d="M 31.78125 34.625 
Q 24.75 34.625 20.71875 30.859375 
Q 16.703125 27.09375 16.703125 20.515625 
Q 16.703125 13.921875 20.71875 10.15625 
Q 24.75 6.390625 31.78125 6.390625 
Q 38.8125 6.390625 42.859375 10.171875 
Q 46.921875 13.96875 46.921875 20.515625 
Q 46.921875 27.09375 42.890625 30.859375 
Q 38.875 34.625 31.78125 34.625 
z
M 21.921875 38.8125 
Q 15.578125 40.375 12.03125 44.71875 
Q 8.5 49.078125 8.5 55.328125 
Q 8.5 64.0625 14.71875 69.140625 
Q 20.953125 74.21875 31.78125 74.21875 
Q 42.671875 74.21875 48.875 69.140625 
Q 55.078125 64.0625 55.078125 55.328125 
Q 55.078125 49.078125 51.53125 44.71875 
Q 48 40.375 41.703125 38.8125 
Q 48.828125 37.15625 52.796875 32.3125 
Q 56.78125 27.484375 56.78125 20.515625 
Q 56.78125 9.90625 50.3125 4.234375 
Q 43.84375 -1.421875 31.78125 -1.421875 
Q 19.734375 -1.421875 13.25 4.234375 
Q 6.78125 9.90625 6.78125 20.515625 
Q 6.78125 27.484375 10.78125 32.3125 
Q 14.796875 37.15625 21.921875 38.8125 
z
M 18.3125 54.390625 
Q 18.3125 48.734375 21.84375 45.5625 
Q 25.390625 42.390625 31.78125 42.390625 
Q 38.140625 42.390625 41.71875 45.5625 
Q 45.3125 48.734375 45.3125 54.390625 
Q 45.3125 60.0625 41.71875 63.234375 
Q 38.140625 66.40625 31.78125 66.40625 
Q 25.390625 66.40625 21.84375 63.234375 
Q 18.3125 60.0625 18.3125 54.390625 
z
" id="DejaVuSans-56"/>
      </defs>
      <g transform="translate(76.408641 315.358437)scale(0.1 -0.1)">
       <use xlink:href="#DejaVuSans-56"/>
      </g>
     </g>
    </g>
    <g id="xtick_9">
     <g id="line2d_9">
      <defs>
       <path d="M 0 0 
L 0 3 
" id="mdce61f351e" style="stroke:#000000;stroke-width:1.3;"/>
      </defs>
      <g>
       <use style="stroke:#000000;stroke-width:1.3;" x="444.586546" xlink:href="#mdce61f351e" y="299.26"/>
      </g>
     </g>
    </g>
    <g id="xtick_10">
     <g id="line2d_10">
      <g>
       <use style="stroke:#000000;stroke-width:1.3;" x="434.721772" xlink:href="#mdce61f351e" y="299.26"/>
      </g>
     </g>
    </g>
    <g id="xtick_11">
     <g id="line2d_11">
      <g>
       <use style="stroke:#000000;stroke-width:1.3;" x="414.992223" xlink:href="#mdce61f351e" y="299.26"/>
      </g>
     </g>
    </g>
    <g id="xtick_12">
     <g id="line2d_12">
      <g>
       <use style="stroke:#000000;stroke-width:1.3;" x="405.127448" xlink:href="#mdce61f351e" y="299.26"/>
      </g>
     </g>
    </g>
    <g id="xtick_13">
     <g id="line2d_13">
      <g>
       <use style="stroke:#000000;stroke-width:1.3;" x="395.262674" xlink:href="#mdce61f351e" y="299.26"/>
      </g>
     </g>
    </g>
    <g id="xtick_14">
     <g id="line2d_14">
      <g>
       <use style="stroke:#000000;stroke-width:1.3;" x="385.397899" xlink:href="#mdce61f351e" y="299.26"/>
      </g>
     </g>
    </g>
    <g id="xtick_15">
     <g id="line2d_15">
      <g>
       <use style="stroke:#000000;stroke-width:1.3;" x="365.66835" xlink:href="#mdce61f351e" y="299.26"/>
      </g>
     </g>
    </g>
    <g id="xtick_16">
     <g id="line2d_16">
      <g>
       <use style="stroke:#000000;stroke-width:1.3;" x="355.803576" xlink:href="#mdce61f351e" y="299.26"/>
      </g>
     </g>
    </g>
    <g id="xtick_17">
     <g id="line2d_17">
      <g>
       <use style="stroke:#000000;stroke-width:1.3;" x="345.938802" xlink:href="#mdce61f351e" y="299.26"/>
      </g>
     </g>
    </g>
    <g id="xtick_18">
     <g id="line2d_18">
      <g>
       <use style="stroke:#000000;stroke-width:1.3;" x="336.074027" xlink:href="#mdce61f351e" y="299.26"/>
      </g>
     </g>
    </g>
    <g id="xtick_19">
     <g id="line2d_19">
      <g>
       <use style="stroke:#000000;stroke-width:1.3;" x="316.344478" xlink:href="#mdce61f351e" y="299.26"/>
      </g>
     </g>
    </g>
    <g id="xtick_20">
     <g id="line2d_20">
      <g>
       <use style="stroke:#000000;stroke-width:1.3;" x="306.479704" xlink:href="#mdce61f351e" y="299.26"/>
      </g>
     </g>
    </g>
    <g id="xtick_21">
     <g id="line2d_21">
      <g>
       <use style="stroke:#000000;stroke-width:1.3;" x="296.614929" xlink:href="#mdce61f351e" y="299.26"/>
      </g>
     </g>
    </g>
    <g id="xtick_22">
     <g id="line2d_22">
      <g>
       <use style="stroke:#000000;stroke-width:1.3;" x="286.750155" xlink:href="#mdce61f351e" y="299.26"/>
      </g>
     </g>
    </g>
    <g id="xtick_23">
     <g id="line2d_23">
      <g>
       <use style="stroke:#000000;stroke-width:1.3;" x="267.020606" xlink:href="#mdce61f351e" y="299.26"/>
      </g>
     </g>
    </g>
    <g id="xtick_24">
     <g id="line2d_24">
      <g>
       <use style="stroke:#000000;stroke-width:1.3;" x="257.155831" xlink:href="#mdce61f351e" y="299.26"/>
      </g>
     </g>
    </g>
    <g id="xtick_25">
     <g id="line2d_25">
      <g>
       <use style="stroke:#000000;stroke-width:1.3;" x="247.291057" xlink:href="#mdce61f351e" y="299.26"/>
      </g>
     </g>
    </g>
    <g id="xtick_26">
     <g id="line2d_26">
      <g>
       <use style="stroke:#000000;stroke-width:1.3;" x="237.426282" xlink:href="#mdce61f351e" y="299.26"/>
      </g>
     </g>
    </g>
    <g id="xtick_27">
     <g id="line2d_27">
      <g>
       <use style="stroke:#000000;stroke-width:1.3;" x="217.696733" xlink:href="#mdce61f351e" y="299.26"/>
      </g>
     </g>
    </g>
    <g id="xtick_28">
     <g id="line2d_28">
      <g>
       <use style="stroke:#000000;stroke-width:1.3;" x="207.831959" xlink:href="#mdce61f351e" y="299.26"/>
      </g>
     </g>
    </g>
    <g id="xtick_29">
     <g id="line2d_29">
      <g>
       <use style="stroke:#000000;stroke-width:1.3;" x="197.967185" xlink:href="#mdce61f351e" y="299.26"/>
      </g>
     </g>
    </g>
    <g id="xtick_30">
     <g id="line2d_30">
      <g>
       <use style="stroke:#000000;stroke-width:1.3;" x="188.10241" xlink:href="#mdce61f351e" y="299.26"/>
      </g>
     </g>
    </g>
    <g id="xtick_31">
     <g id="line2d_31">
      <g>
       <use style="stroke:#000000;stroke-width:1.3;" x="168.372861" xlink:href="#mdce61f351e" y="299.26"/>
      </g>
     </g>
    </g>
    <g id="xtick_32">
     <g id="line2d_32">
      <g>
       <use style="stroke:#000000;stroke-width:1.3;" x="158.508087" xlink:href="#mdce61f351e" y="299.26"/>
      </g>
     </g>
    </g>
    <g id="xtick_33">
     <g id="line2d_33">
      <g>
       <use style="stroke:#000000;stroke-width:1.3;" x="148.643312" xlink:href="#mdce61f351e" y="299.26"/>
      </g>
     </g>
    </g>
    <g id="xtick_34">
     <g id="line2d_34">
      <g>
       <use style="stroke:#000000;stroke-width:1.3;" x="138.778538" xlink:href="#mdce61f351e" y="299.26"/>
      </g>
     </g>
    </g>
    <g id="xtick_35">
     <g id="line2d_35">
      <g>
       <use style="stroke:#000000;stroke-width:1.3;" x="119.048989" xlink:href="#mdce61f351e" y="299.26"/>
      </g>
     </g>
    </g>
    <g id="xtick_36">
     <g id="line2d_36">
      <g>
       <use style="stroke:#000000;stroke-width:1.3;" x="109.184214" xlink:href="#mdce61f351e" y="299.26"/>
      </g>
     </g>
    </g>
    <g id="xtick_37">
     <g id="line2d_37">
      <g>
       <use style="stroke:#000000;stroke-width:1.3;" x="99.31944" xlink:href="#mdce61f351e" y="299.26"/>
      </g>
     </g>
    </g>
    <g id="xtick_38">
     <g id="line2d_38">
      <g>
       <use style="stroke:#000000;stroke-width:1.3;" x="89.454665" xlink:href="#mdce61f351e" y="299.26"/>
      </g>
     </g>
    </g>
    <g id="xtick_39">
     <g id="line2d_39">
      <g>
       <use style="stroke:#000000;stroke-width:1.3;" x="69.725117" xlink:href="#mdce61f351e" y="299.26"/>
      </g>
     </g>
    </g>
    <g id="xtick_40">
     <g id="line2d_40">
      <g>
       <use style="stroke:#000000;stroke-width:1.3;" x="59.860342" xlink:href="#mdce61f351e" y="299.26"/>
      </g>
     </g>
    </g>
    <g id="text_9">
     <!-- $f_2$ (ppm) -->
     <defs>
      <path d="M 47.796875 75.984375 
L 46.390625 68.5 
L 37.796875 68.5 
Q 32.90625 68.5 30.6875 66.578125 
Q 28.46875 64.65625 27.390625 59.515625 
L 26.421875 54.6875 
L 41.21875 54.6875 
L 39.890625 47.703125 
L 25.09375 47.703125 
L 15.828125 0 
L 6.78125 0 
L 16.109375 47.703125 
L 7.515625 47.703125 
L 8.796875 54.6875 
L 17.390625 54.6875 
L 18.109375 58.5 
Q 19.96875 68.171875 24.625 72.078125 
Q 29.296875 75.984375 39.3125 75.984375 
z
" id="DejaVuSans-Oblique-102"/>
      <path id="DejaVuSans-32"/>
      <path d="M 31 75.875 
Q 24.46875 64.65625 21.28125 53.65625 
Q 18.109375 42.671875 18.109375 31.390625 
Q 18.109375 20.125 21.3125 9.0625 
Q 24.515625 -2 31 -13.1875 
L 23.1875 -13.1875 
Q 15.875 -1.703125 12.234375 9.375 
Q 8.59375 20.453125 8.59375 31.390625 
Q 8.59375 42.28125 12.203125 53.3125 
Q 15.828125 64.359375 23.1875 75.875 
z
" id="DejaVuSans-40"/>
      <path d="M 18.109375 8.203125 
L 18.109375 -20.796875 
L 9.078125 -20.796875 
L 9.078125 54.6875 
L 18.109375 54.6875 
L 18.109375 46.390625 
Q 20.953125 51.265625 25.265625 53.625 
Q 29.59375 56 35.59375 56 
Q 45.5625 56 51.78125 48.09375 
Q 58.015625 40.1875 58.015625 27.296875 
Q 58.015625 14.40625 51.78125 6.484375 
Q 45.5625 -1.421875 35.59375 -1.421875 
Q 29.59375 -1.421875 25.265625 0.953125 
Q 20.953125 3.328125 18.109375 8.203125 
z
M 48.6875 27.296875 
Q 48.6875 37.203125 44.609375 42.84375 
Q 40.53125 48.484375 33.40625 48.484375 
Q 26.265625 48.484375 22.1875 42.84375 
Q 18.109375 37.203125 18.109375 27.296875 
Q 18.109375 17.390625 22.1875 11.75 
Q 26.265625 6.109375 33.40625 6.109375 
Q 40.53125 6.109375 44.609375 11.75 
Q 48.6875 17.390625 48.6875 27.296875 
z
" id="DejaVuSans-112"/>
      <path d="M 52 44.1875 
Q 55.375 50.25 60.0625 53.125 
Q 64.75 56 71.09375 56 
Q 79.640625 56 84.28125 50.015625 
Q 88.921875 44.046875 88.921875 33.015625 
L 88.921875 0 
L 79.890625 0 
L 79.890625 32.71875 
Q 79.890625 40.578125 77.09375 44.375 
Q 74.3125 48.1875 68.609375 48.1875 
Q 61.625 48.1875 57.5625 43.546875 
Q 53.515625 38.921875 53.515625 30.90625 
L 53.515625 0 
L 44.484375 0 
L 44.484375 32.71875 
Q 44.484375 40.625 41.703125 44.40625 
Q 38.921875 48.1875 33.109375 48.1875 
Q 26.21875 48.1875 22.15625 43.53125 
Q 18.109375 38.875 18.109375 30.90625 
L 18.109375 0 
L 9.078125 0 
L 9.078125 54.6875 
L 18.109375 54.6875 
L 18.109375 46.1875 
Q 21.1875 51.21875 25.484375 53.609375 
Q 29.78125 56 35.6875 56 
Q 41.65625 56 45.828125 52.96875 
Q 50 49.953125 52 44.1875 
z
" id="DejaVuSans-109"/>
      <path d="M 8.015625 75.875 
L 15.828125 75.875 
Q 23.140625 64.359375 26.78125 53.3125 
Q 30.421875 42.28125 30.421875 31.390625 
Q 30.421875 20.453125 26.78125 9.375 
Q 23.140625 -1.703125 15.828125 -13.1875 
L 8.015625 -13.1875 
Q 14.5 -2 17.703125 9.0625 
Q 20.90625 20.125 20.90625 31.390625 
Q 20.90625 42.671875 17.703125 53.65625 
Q 14.5 64.65625 8.015625 75.875 
z
" id="DejaVuSans-41"/>
     </defs>
     <g transform="translate(231.775 329.038125)scale(0.1 -0.1)">
      <use transform="translate(0 0.015625)" xlink:href="#DejaVuSans-Oblique-102"/>
      <use transform="translate(35.205078 -16.390625)scale(0.7)" xlink:href="#DejaVuSans-50"/>
      <use transform="translate(82.475586 0.015625)" xlink:href="#DejaVuSans-32"/>
      <use transform="translate(114.262695 0.015625)" xlink:href="#DejaVuSans-40"/>
      <use transform="translate(153.276367 0.015625)" xlink:href="#DejaVuSans-112"/>
      <use transform="translate(216.75293 0.015625)" xlink:href="#DejaVuSans-112"/>
      <use transform="translate(280.229492 0.015625)" xlink:href="#DejaVuSans-109"/>
      <use transform="translate(377.641602 0.015625)" xlink:href="#DejaVuSans-41"/>
     </g>
    </g>
   </g>
   <g id="matplotlib.axis_2">
    <g id="ytick_1">
     <g id="line2d_41">
      <defs>
       <path d="M 0 0 
L -5 0 
" id="mb6b8a9b1a0" style="stroke:#000000;stroke-width:1.3;"/>
      </defs>
      <g>
       <use style="stroke:#000000;stroke-width:1.3;" x="55.25" xlink:href="#mb6b8a9b1a0" y="48.068959"/>
      </g>
     </g>
     <g id="text_10">
      <!-- 20 -->
      <defs>
       <path d="M 31.78125 66.40625 
Q 24.171875 66.40625 20.328125 58.90625 
Q 16.5 51.421875 16.5 36.375 
Q 16.5 21.390625 20.328125 13.890625 
Q 24.171875 6.390625 31.78125 6.390625 
Q 39.453125 6.390625 43.28125 13.890625 
Q 47.125 21.390625 47.125 36.375 
Q 47.125 51.421875 43.28125 58.90625 
Q 39.453125 66.40625 31.78125 66.40625 
z
M 31.78125 74.21875 
Q 44.046875 74.21875 50.515625 64.515625 
Q 56.984375 54.828125 56.984375 36.375 
Q 56.984375 17.96875 50.515625 8.265625 
Q 44.046875 -1.421875 31.78125 -1.421875 
Q 19.53125 -1.421875 13.0625 8.265625 
Q 6.59375 17.96875 6.59375 36.375 
Q 6.59375 54.828125 13.0625 64.515625 
Q 19.53125 74.21875 31.78125 74.21875 
z
" id="DejaVuSans-48"/>
      </defs>
      <g transform="translate(34.025 51.868178)scale(0.1 -0.1)">
       <use xlink:href="#DejaVuSans-50"/>
       <use x="63.623047" xlink:href="#DejaVuSans-48"/>
      </g>
     </g>
    </g>
    <g id="ytick_2">
     <g id="line2d_42">
      <g>
       <use style="stroke:#000000;stroke-width:1.3;" x="55.25" xlink:href="#mb6b8a9b1a0" y="89.657283"/>
      </g>
     </g>
     <g id="text_11">
      <!-- 40 -->
      <g transform="translate(34.025 93.456502)scale(0.1 -0.1)">
       <use xlink:href="#DejaVuSans-52"/>
       <use x="63.623047" xlink:href="#DejaVuSans-48"/>
      </g>
     </g>
    </g>
    <g id="ytick_3">
     <g id="line2d_43">
      <g>
       <use style="stroke:#000000;stroke-width:1.3;" x="55.25" xlink:href="#mb6b8a9b1a0" y="131.245607"/>
      </g>
     </g>
     <g id="text_12">
      <!-- 60 -->
      <g transform="translate(34.025 135.044826)scale(0.1 -0.1)">
       <use xlink:href="#DejaVuSans-54"/>
       <use x="63.623047" xlink:href="#DejaVuSans-48"/>
      </g>
     </g>
    </g>
    <g id="ytick_4">
     <g id="line2d_44">
      <g>
       <use style="stroke:#000000;stroke-width:1.3;" x="55.25" xlink:href="#mb6b8a9b1a0" y="172.833931"/>
      </g>
     </g>
     <g id="text_13">
      <!-- 80 -->
      <g transform="translate(34.025 176.63315)scale(0.1 -0.1)">
       <use xlink:href="#DejaVuSans-56"/>
       <use x="63.623047" xlink:href="#DejaVuSans-48"/>
      </g>
     </g>
    </g>
    <g id="ytick_5">
     <g id="line2d_45">
      <g>
       <use style="stroke:#000000;stroke-width:1.3;" x="55.25" xlink:href="#mb6b8a9b1a0" y="214.422255"/>
      </g>
     </g>
     <g id="text_14">
      <!-- 100 -->
      <g transform="translate(27.6625 218.221473)scale(0.1 -0.1)">
       <use xlink:href="#DejaVuSans-49"/>
       <use x="63.623047" xlink:href="#DejaVuSans-48"/>
       <use x="127.246094" xlink:href="#DejaVuSans-48"/>
      </g>
     </g>
    </g>
    <g id="ytick_6">
     <g id="line2d_46">
      <g>
       <use style="stroke:#000000;stroke-width:1.3;" x="55.25" xlink:href="#mb6b8a9b1a0" y="256.010579"/>
      </g>
     </g>
     <g id="text_15">
      <!-- 120 -->
      <g transform="translate(27.6625 259.809797)scale(0.1 -0.1)">
       <use xlink:href="#DejaVuSans-49"/>
       <use x="63.623047" xlink:href="#DejaVuSans-50"/>
       <use x="127.246094" xlink:href="#DejaVuSans-48"/>
      </g>
     </g>
    </g>
    <g id="ytick_7">
     <g id="line2d_47">
      <g>
       <use style="stroke:#000000;stroke-width:1.3;" x="55.25" xlink:href="#mb6b8a9b1a0" y="297.598902"/>
      </g>
     </g>
     <g id="text_16">
      <!-- 140 -->
      <g transform="translate(27.6625 301.398121)scale(0.1 -0.1)">
       <use xlink:href="#DejaVuSans-49"/>
       <use x="63.623047" xlink:href="#DejaVuSans-52"/>
       <use x="127.246094" xlink:href="#DejaVuSans-48"/>
      </g>
     </g>
    </g>
    <g id="ytick_8">
     <g id="line2d_48">
      <defs>
       <path d="M 0 0 
L -3 0 
" id="m70319e000f" style="stroke:#000000;stroke-width:1.3;"/>
      </defs>
      <g>
       <use style="stroke:#000000;stroke-width:1.3;" x="55.25" xlink:href="#m70319e000f" y="27.274797"/>
      </g>
     </g>
    </g>
    <g id="ytick_9">
     <g id="line2d_49">
      <g>
       <use style="stroke:#000000;stroke-width:1.3;" x="55.25" xlink:href="#m70319e000f" y="37.671878"/>
      </g>
     </g>
    </g>
    <g id="ytick_10">
     <g id="line2d_50">
      <g>
       <use style="stroke:#000000;stroke-width:1.3;" x="55.25" xlink:href="#m70319e000f" y="58.46604"/>
      </g>
     </g>
    </g>
    <g id="ytick_11">
     <g id="line2d_51">
      <g>
       <use style="stroke:#000000;stroke-width:1.3;" x="55.25" xlink:href="#m70319e000f" y="68.863121"/>
      </g>
     </g>
    </g>
    <g id="ytick_12">
     <g id="line2d_52">
      <g>
       <use style="stroke:#000000;stroke-width:1.3;" x="55.25" xlink:href="#m70319e000f" y="79.260202"/>
      </g>
     </g>
    </g>
    <g id="ytick_13">
     <g id="line2d_53">
      <g>
       <use style="stroke:#000000;stroke-width:1.3;" x="55.25" xlink:href="#m70319e000f" y="100.054364"/>
      </g>
     </g>
    </g>
    <g id="ytick_14">
     <g id="line2d_54">
      <g>
       <use style="stroke:#000000;stroke-width:1.3;" x="55.25" xlink:href="#m70319e000f" y="110.451445"/>
      </g>
     </g>
    </g>
    <g id="ytick_15">
     <g id="line2d_55">
      <g>
       <use style="stroke:#000000;stroke-width:1.3;" x="55.25" xlink:href="#m70319e000f" y="120.848526"/>
      </g>
     </g>
    </g>
    <g id="ytick_16">
     <g id="line2d_56">
      <g>
       <use style="stroke:#000000;stroke-width:1.3;" x="55.25" xlink:href="#m70319e000f" y="141.642688"/>
      </g>
     </g>
    </g>
    <g id="ytick_17">
     <g id="line2d_57">
      <g>
       <use style="stroke:#000000;stroke-width:1.3;" x="55.25" xlink:href="#m70319e000f" y="152.039769"/>
      </g>
     </g>
    </g>
    <g id="ytick_18">
     <g id="line2d_58">
      <g>
       <use style="stroke:#000000;stroke-width:1.3;" x="55.25" xlink:href="#m70319e000f" y="162.43685"/>
      </g>
     </g>
    </g>
    <g id="ytick_19">
     <g id="line2d_59">
      <g>
       <use style="stroke:#000000;stroke-width:1.3;" x="55.25" xlink:href="#m70319e000f" y="183.231012"/>
      </g>
     </g>
    </g>
    <g id="ytick_20">
     <g id="line2d_60">
      <g>
       <use style="stroke:#000000;stroke-width:1.3;" x="55.25" xlink:href="#m70319e000f" y="193.628093"/>
      </g>
     </g>
    </g>
    <g id="ytick_21">
     <g id="line2d_61">
      <g>
       <use style="stroke:#000000;stroke-width:1.3;" x="55.25" xlink:href="#m70319e000f" y="204.025174"/>
      </g>
     </g>
    </g>
    <g id="ytick_22">
     <g id="line2d_62">
      <g>
       <use style="stroke:#000000;stroke-width:1.3;" x="55.25" xlink:href="#m70319e000f" y="224.819336"/>
      </g>
     </g>
    </g>
    <g id="ytick_23">
     <g id="line2d_63">
      <g>
       <use style="stroke:#000000;stroke-width:1.3;" x="55.25" xlink:href="#m70319e000f" y="235.216417"/>
      </g>
     </g>
    </g>
    <g id="ytick_24">
     <g id="line2d_64">
      <g>
       <use style="stroke:#000000;stroke-width:1.3;" x="55.25" xlink:href="#m70319e000f" y="245.613498"/>
      </g>
     </g>
    </g>
    <g id="ytick_25">
     <g id="line2d_65">
      <g>
       <use style="stroke:#000000;stroke-width:1.3;" x="55.25" xlink:href="#m70319e000f" y="266.407659"/>
      </g>
     </g>
    </g>
    <g id="ytick_26">
     <g id="line2d_66">
      <g>
       <use style="stroke:#000000;stroke-width:1.3;" x="55.25" xlink:href="#m70319e000f" y="276.80474"/>
      </g>
     </g>
    </g>
    <g id="ytick_27">
     <g id="line2d_67">
      <g>
       <use style="stroke:#000000;stroke-width:1.3;" x="55.25" xlink:href="#m70319e000f" y="287.201821"/>
      </g>
     </g>
    </g>
    <g id="text_17">
     <!-- $f_1$ (ppm) -->
     <g transform="translate(21.5625 183.92)rotate(-90)scale(0.1 -0.1)">
      <use transform="translate(0 0.015625)" xlink:href="#DejaVuSans-Oblique-102"/>
      <use transform="translate(35.205078 -16.390625)scale(0.7)" xlink:href="#DejaVuSans-49"/>
      <use transform="translate(82.475586 0.015625)" xlink:href="#DejaVuSans-32"/>
      <use transform="translate(114.262695 0.015625)" xlink:href="#DejaVuSans-40"/>
      <use transform="translate(153.276367 0.015625)" xlink:href="#DejaVuSans-112"/>
      <use transform="translate(216.75293 0.015625)" xlink:href="#DejaVuSans-112"/>
      <use transform="translate(280.229492 0.015625)" xlink:href="#DejaVuSans-109"/>
      <use transform="translate(377.641602 0.015625)" xlink:href="#DejaVuSans-41"/>
     </g>
    </g>
   </g>
   <g id="LineCollection_1"/>
   <g id="LineCollection_2"/>
   <g id="LineCollection_3"/>
   <g id="LineCollection_4"/>
   <g id="LineCollection_5"/>
   <g id="LineCollection_6">
    <path clip-path="url(#pc24b293b09)" d="M 71.637668 280.75018 
L 71.62886 280.7422 
L 71.637668 280.447469 
L 71.642246 280.405513 
L 72.119658 280.289825 
L 72.337692 280.405513 
L 72.315231 280.7422 
L 72.119658 280.841515 
L 71.637668 280.75018 
" style="fill:none;stroke:#ff69b4;stroke-width:0.7;"/>
    <path clip-path="url(#pc24b293b09)" d="M 93.809219 264.641054 
L 93.774842 264.581211 
L 93.809219 264.534765 
L 94.040797 264.581211 
L 93.809219 264.641054 
" style="fill:none;stroke:#ff69b4;stroke-width:0.7;"/>
   </g>
   <g id="LineCollection_7">
    <path clip-path="url(#pc24b293b09)" d="M 201.29304 287.479517 
L 201.281669 287.475946 
L 201.29304 287.396658 
L 201.775031 287.154309 
L 201.900219 287.475946 
L 201.775031 287.519107 
L 201.29304 287.479517 
" style="fill:none;stroke:#ff69b4;stroke-width:0.7;"/>
    <path clip-path="url(#pc24b293b09)" d="M 90.435287 285.495716 
L 90.387256 285.455822 
L 90.34845 285.119135 
L 90.435287 285.028025 
L 90.917277 284.835016 
L 91.399267 284.895892 
L 91.716557 285.119135 
L 91.667855 285.455822 
L 91.399267 285.595727 
L 90.917277 285.648528 
L 90.435287 285.495716 
" style="fill:none;stroke:#ff69b4;stroke-width:0.7;"/>
    <path clip-path="url(#pc24b293b09)" d="M 71.637668 281.119264 
L 71.544819 281.078888 
L 71.202358 280.7422 
L 71.220222 280.405513 
L 71.540433 280.068826 
L 71.637668 280.012945 
L 72.119658 279.947551 
L 72.55505 280.068826 
L 72.601648 280.091005 
L 72.808028 280.405513 
L 72.786626 280.7422 
L 72.601648 280.971779 
L 72.374537 281.078888 
L 72.119658 281.151655 
L 71.637668 281.119264 
" style="fill:none;stroke:#ff69b4;stroke-width:0.7;"/>
    <path clip-path="url(#pc24b293b09)" d="M 92.845238 280.098931 
L 92.775094 280.068826 
L 92.485466 279.732138 
L 92.622701 279.395451 
L 92.845238 279.263961 
L 93.327228 279.195027 
L 93.769242 279.395451 
L 93.809219 279.454254 
L 93.915318 279.732138 
L 93.809219 279.921835 
L 93.633508 280.068826 
L 93.327228 280.162852 
L 92.845238 280.098931 
" style="fill:none;stroke:#ff69b4;stroke-width:0.7;"/>
    <path clip-path="url(#pc24b293b09)" d="M 93.809219 265.120173 
L 93.468155 264.917899 
L 93.327228 264.649307 
L 93.305245 264.581211 
L 93.327228 264.492398 
L 93.453128 264.244524 
L 93.809219 264.060824 
L 94.291209 264.099405 
L 94.582269 264.244524 
L 94.773199 264.51812 
L 94.799758 264.581211 
L 94.773199 264.658629 
L 94.634344 264.917899 
L 94.291209 265.088403 
L 93.809219 265.120173 
" style="fill:none;stroke:#ff69b4;stroke-width:0.7;"/>
    <path clip-path="url(#pc24b293b09)" d="M 430.2384 35.704857 
L 430.024916 35.633869 
L 430.2384 35.41489 
L 430.341673 35.633869 
L 430.2384 35.704857 
" style="fill:none;stroke:#ff69b4;stroke-width:0.7;"/>
   </g>
   <g id="LineCollection_8">
    <path clip-path="url(#pc24b293b09)" d="M 201.29304 287.870695 
L 200.974285 287.812633 
L 200.81105 287.76658 
L 200.421321 287.475946 
L 200.404868 287.139258 
L 200.81105 286.821459 
L 200.910202 286.802571 
L 201.29304 286.754703 
L 201.775031 286.773399 
L 201.90615 286.802571 
L 202.257021 286.905736 
L 202.584142 287.139258 
L 202.664561 287.475946 
L 202.296089 287.812633 
L 202.257021 287.828418 
L 201.775031 287.901108 
L 201.29304 287.870695 
" style="fill:none;stroke:#ff69b4;stroke-width:0.7;"/>
    <path clip-path="url(#pc24b293b09)" d="M 90.435287 285.804145 
L 90.40873 285.792509 
L 90.011743 285.455822 
L 89.971602 285.119135 
L 90.233711 284.782447 
L 90.435287 284.672183 
L 90.917277 284.577694 
L 91.399267 284.601911 
L 91.881258 284.768967 
L 91.898303 284.782447 
L 92.107763 285.119135 
L 92.091301 285.455822 
L 91.881258 285.720703 
L 91.718123 285.792509 
L 91.399267 285.866935 
L 90.917277 285.886318 
L 90.435287 285.804145 
" style="fill:none;stroke:#ff69b4;stroke-width:0.7;"/>
    <path clip-path="url(#pc24b293b09)" d="M 71.155678 281.09674 
L 71.13552 281.078888 
L 70.966606 280.7422 
L 70.984686 280.405513 
L 71.155678 280.076189 
L 71.162179 280.068826 
L 71.637668 279.795563 
L 72.119658 279.75243 
L 72.601648 279.835716 
L 72.886145 280.068826 
L 73.026815 280.405513 
L 73.002903 280.7422 
L 72.783319 281.078888 
L 72.601648 281.198772 
L 72.119658 281.314152 
L 71.637668 281.29956 
L 71.155678 281.09674 
" style="fill:none;stroke:#ff69b4;stroke-width:0.7;"/>
    <path clip-path="url(#pc24b293b09)" d="M 92.363248 280.139485 
L 92.261185 280.068826 
L 92.07263 279.732138 
L 92.132447 279.395451 
L 92.363248 279.187962 
L 92.609059 279.058764 
L 92.845238 278.981226 
L 93.327228 278.939533 
L 93.702805 279.058764 
L 93.809219 279.100807 
L 94.145053 279.395451 
L 94.232548 279.732138 
L 94.107363 280.068826 
L 93.809219 280.26698 
L 93.327228 280.370993 
L 92.845238 280.322775 
L 92.363248 280.139485 
" style="fill:none;stroke:#ff69b4;stroke-width:0.7;"/>
    <path clip-path="url(#pc24b293b09)" d="M 93.809219 265.318585 
L 93.632615 265.254586 
L 93.327228 265.087685 
L 93.185715 264.917899 
L 93.096323 264.581211 
L 93.150441 264.244524 
L 93.327228 263.999249 
L 93.549246 263.907837 
L 93.809219 263.828284 
L 94.291209 263.867321 
L 94.408721 263.907837 
L 94.773199 264.060324 
L 94.960096 264.244524 
L 95.073981 264.581211 
L 94.990543 264.917899 
L 94.773199 265.123445 
L 94.453474 265.254586 
L 94.291209 265.299613 
L 93.809219 265.318585 
" style="fill:none;stroke:#ff69b4;stroke-width:0.7;"/>
    <path clip-path="url(#pc24b293b09)" d="M 210.932845 263.446682 
L 210.503117 263.234462 
L 210.450855 263.010878 
L 210.432083 262.897775 
L 210.450855 262.875926 
L 210.932845 262.562817 
L 210.949341 262.561088 
L 211.414835 262.528982 
L 211.896825 262.556406 
L 211.914058 262.561088 
L 212.378816 262.792571 
L 212.478265 262.897775 
L 212.414249 263.234462 
L 212.378816 263.262714 
L 211.896825 263.458944 
L 211.414835 263.494157 
L 210.932845 263.446682 
" style="fill:none;stroke:#ff69b4;stroke-width:0.7;"/>
    <path clip-path="url(#pc24b293b09)" d="M 424.936508 35.985638 
L 424.925331 35.970556 
L 424.936508 35.87547 
L 424.973759 35.633869 
L 425.418498 35.334692 
L 425.900488 35.390492 
L 426.164788 35.633869 
L 426.145999 35.970556 
L 425.900488 36.18122 
L 425.418498 36.284988 
L 424.936508 35.985638 
" style="fill:none;stroke:#ff69b4;stroke-width:0.7;"/>
    <path clip-path="url(#pc24b293b09)" d="M 429.75641 36.063356 
L 429.625231 35.970556 
L 429.456797 35.633869 
L 429.558502 35.297182 
L 429.75641 35.12797 
L 430.2384 35.004057 
L 430.720391 35.104126 
L 430.99873 35.297182 
L 430.965735 35.633869 
L 430.720391 35.863333 
L 430.564228 35.970556 
L 430.2384 36.102388 
L 429.75641 36.063356 
" style="fill:none;stroke:#ff69b4;stroke-width:0.7;"/>
   </g>
   <g id="LineCollection_9">
    <path clip-path="url(#pc24b293b09)" d="M 200.81105 287.996185 
L 200.353632 287.812633 
L 200.32906 287.793877 
L 200.02997 287.475946 
L 200.004413 287.139258 
L 200.248436 286.802571 
L 200.32906 286.748961 
L 200.81105 286.570444 
L 201.29304 286.541667 
L 201.775031 286.568429 
L 202.257021 286.659887 
L 202.579394 286.802571 
L 202.739011 286.917456 
L 202.997667 287.139258 
L 203.072224 287.475946 
L 202.840127 287.812633 
L 202.739011 287.871391 
L 202.257021 288.046944 
L 201.775031 288.090336 
L 201.29304 288.064698 
L 200.81105 287.996185 
" style="fill:none;stroke:#ff69b4;stroke-width:0.7;"/>
    <path clip-path="url(#pc24b293b09)" d="M 90.435287 285.964293 
L 90.043235 285.792509 
L 89.953297 285.710691 
L 89.738384 285.455822 
L 89.700591 285.119135 
L 89.874503 284.782447 
L 89.953297 284.714615 
L 90.435287 284.478175 
L 90.663803 284.44576 
L 90.917277 284.403035 
L 91.399267 284.422168 
L 91.506555 284.44576 
L 91.881258 284.529398 
L 92.201219 284.782447 
L 92.327517 285.119135 
L 92.316799 285.455822 
L 92.138371 285.792509 
L 91.881258 285.948792 
L 91.399267 286.017734 
L 90.917277 286.022842 
L 90.435287 285.964293 
" style="fill:none;stroke:#ff69b4;stroke-width:0.7;"/>
    <path clip-path="url(#pc24b293b09)" d="M 71.637668 281.4211 
L 71.613002 281.415575 
L 71.155678 281.290549 
L 70.916689 281.078888 
L 70.8158 280.7422 
L 70.836402 280.405513 
L 70.960689 280.068826 
L 71.155678 279.836293 
L 71.366272 279.732138 
L 71.637668 279.609933 
L 72.119658 279.571717 
L 72.601648 279.642248 
L 72.752882 279.732138 
L 73.083639 280.057796 
L 73.091818 280.068826 
L 73.217326 280.405513 
L 73.183256 280.7422 
L 73.083639 280.901469 
L 72.984848 281.078888 
L 72.601648 281.331761 
L 72.163952 281.415575 
L 72.119658 281.424906 
L 71.637668 281.4211 
" style="fill:none;stroke:#ff69b4;stroke-width:0.7;"/>
    <path clip-path="url(#pc24b293b09)" d="M 92.845238 280.477797 
L 92.506188 280.405513 
L 92.363248 280.363443 
L 91.937691 280.068826 
L 91.881258 279.947174 
L 91.782094 279.732138 
L 91.787919 279.395451 
L 91.881258 279.221794 
L 92.022704 279.058764 
L 92.363248 278.895177 
L 92.845238 278.792287 
L 93.327228 278.769676 
L 93.809219 278.88723 
L 94.120549 279.058764 
L 94.291209 279.236357 
L 94.418353 279.395451 
L 94.497841 279.732138 
L 94.403286 280.068826 
L 94.291209 280.183333 
L 93.938179 280.405513 
L 93.809219 280.447732 
L 93.327228 280.517876 
L 92.845238 280.477797 
" style="fill:none;stroke:#ff69b4;stroke-width:0.7;"/>
    <path clip-path="url(#pc24b293b09)" d="M 93.327228 265.281806 
L 93.28973 265.254586 
L 93.024435 264.917899 
L 92.957042 264.581211 
L 92.983579 264.244524 
L 93.156363 263.907837 
L 93.327228 263.757646 
L 93.809219 263.656228 
L 94.291209 263.69284 
L 94.773199 263.840354 
L 94.869426 263.907837 
L 95.17492 264.244524 
L 95.255189 264.57347 
L 95.257788 264.581211 
L 95.255189 264.593403 
L 95.204998 264.917899 
L 94.906937 265.254586 
L 94.773199 265.32512 
L 94.291209 265.436823 
L 93.809219 265.446893 
L 93.327228 265.281806 
" style="fill:none;stroke:#ff69b4;stroke-width:0.7;"/>
    <path clip-path="url(#pc24b293b09)" d="M 210.932845 263.685645 
L 210.519702 263.57115 
L 210.450855 263.541023 
L 210.090797 263.234462 
L 210.049242 262.897775 
L 210.303516 262.561088 
L 210.450855 262.471485 
L 210.932845 262.324361 
L 211.414835 262.301749 
L 211.896825 262.320669 
L 212.378816 262.426401 
L 212.640516 262.561088 
L 212.860806 262.850648 
L 212.893994 262.897775 
L 212.860806 263.043317 
L 212.826372 263.234462 
L 212.415384 263.57115 
L 212.378816 263.587649 
L 211.896825 263.6969 
L 211.414835 263.7161 
L 210.932845 263.685645 
" style="fill:none;stroke:#ff69b4;stroke-width:0.7;"/>
    <path clip-path="url(#pc24b293b09)" d="M 424.936508 36.406178 
L 424.782209 36.307244 
L 424.581725 35.970556 
L 424.639735 35.633869 
L 424.936508 35.30277 
L 424.944877 35.297182 
L 425.418498 35.101393 
L 425.900488 35.111872 
L 426.294869 35.297182 
L 426.382479 35.389537 
L 426.559895 35.633869 
L 426.537436 35.970556 
L 426.382479 36.165767 
L 426.23266 36.307244 
L 425.900488 36.464066 
L 425.418498 36.526566 
L 424.936508 36.406178 
" style="fill:none;stroke:#ff69b4;stroke-width:0.7;"/>
    <path clip-path="url(#pc24b293b09)" d="M 429.75641 36.303327 
L 429.286014 35.970556 
L 429.27442 35.931257 
L 429.202469 35.633869 
L 429.27442 35.401696 
L 429.304046 35.297182 
L 429.66898 34.960494 
L 429.75641 34.915705 
L 430.2384 34.814674 
L 430.720391 34.832456 
L 431.202381 34.950244 
L 431.226529 34.960494 
L 431.490032 35.297182 
L 431.369304 35.633869 
L 431.202381 35.782875 
L 431.014537 35.970556 
L 430.720391 36.138619 
L 430.2384 36.301968 
L 429.75641 36.303327 
" style="fill:none;stroke:#ff69b4;stroke-width:0.7;"/>
   </g>
   <g id="LineCollection_10">
    <path clip-path="url(#pc24b293b09)" d="M 201.29304 288.207146 
L 200.88196 288.14932 
L 200.81105 288.140702 
L 200.32906 287.999306 
L 200.001822 287.812633 
L 199.84707 287.610342 
L 199.728941 287.475946 
L 199.683188 287.139258 
L 199.84707 286.855724 
L 199.875449 286.802571 
L 200.32906 286.500947 
L 200.463987 286.465884 
L 200.81105 286.38168 
L 201.29304 286.370753 
L 201.775031 286.414617 
L 202.009829 286.465884 
L 202.257021 286.50625 
L 202.739011 286.681609 
L 202.972295 286.802571 
L 203.221001 287.042138 
L 203.305711 287.139258 
L 203.376278 287.475946 
L 203.221001 287.796542 
L 203.212391 287.812633 
L 202.739011 288.087711 
L 202.503176 288.14932 
L 202.257021 288.204401 
L 201.775031 288.234662 
L 201.29304 288.207146 
" style="fill:none;stroke:#ff69b4;stroke-width:0.7;"/>
    <path clip-path="url(#pc24b293b09)" d="M 89.953297 285.905257 
L 89.774264 285.792509 
L 89.55147 285.455822 
L 89.51888 285.119135 
L 89.623602 284.782447 
L 89.953297 284.498618 
L 90.071947 284.44576 
L 90.435287 284.304879 
L 90.917277 284.249342 
L 91.399267 284.264826 
L 91.881258 284.349009 
L 92.074183 284.44576 
L 92.363248 284.709425 
L 92.419947 284.782447 
L 92.538488 285.119135 
L 92.529342 285.455822 
L 92.369597 285.792509 
L 92.363248 285.799169 
L 91.881258 286.088177 
L 91.399267 286.118267 
L 90.917277 286.113859 
L 90.435287 286.071058 
L 89.953297 285.905257 
" style="fill:none;stroke:#ff69b4;stroke-width:0.7;"/>
    <path clip-path="url(#pc24b293b09)" d="M 71.155678 281.420916 
L 71.143749 281.415575 
L 70.770801 281.078888 
L 70.715262 280.7422 
L 70.737546 280.405513 
L 70.827257 280.068826 
L 71.069817 279.732138 
L 71.155678 279.646596 
L 71.637668 279.465058 
L 72.119658 279.445003 
L 72.601648 279.483646 
L 73.01972 279.732138 
L 73.083639 279.795071 
L 73.286659 280.068826 
L 73.363333 280.405513 
L 73.334171 280.7422 
L 73.143903 281.078888 
L 73.083639 281.12963 
L 72.618684 281.415575 
L 72.601648 281.42226 
L 72.119658 281.522441 
L 71.637668 281.526972 
L 71.155678 281.420916 
" style="fill:none;stroke:#ff69b4;stroke-width:0.7;"/>
    <path clip-path="url(#pc24b293b09)" d="M 92.363248 280.513972 
L 92.08149 280.405513 
L 91.881258 280.267894 
L 91.692562 280.068826 
L 91.567707 279.732138 
L 91.542412 279.395451 
L 91.630964 279.058764 
L 91.881258 278.831679 
L 92.254237 278.722077 
L 92.363248 278.69569 
L 92.845238 278.625804 
L 93.327228 278.61046 
L 93.706511 278.722077 
L 93.809219 278.744483 
L 94.291209 278.970048 
L 94.408427 279.058764 
L 94.633816 279.395451 
L 94.688471 279.732138 
L 94.640665 280.068826 
L 94.330005 280.405513 
L 94.291209 280.42542 
L 93.809219 280.573889 
L 93.327228 280.617591 
L 92.845238 280.58595 
L 92.363248 280.513972 
" style="fill:none;stroke:#ff69b4;stroke-width:0.7;"/>
    <path clip-path="url(#pc24b293b09)" d="M 93.327228 265.413812 
L 93.107876 265.254586 
L 92.916915 264.917899 
L 92.864188 264.581211 
L 92.872338 264.244524 
L 92.968123 263.907837 
L 93.327228 263.592184 
L 93.48621 263.57115 
L 93.809219 263.506473 
L 94.21812 263.57115 
L 94.291209 263.57652 
L 94.773199 263.679554 
L 95.098717 263.907837 
L 95.255189 264.112626 
L 95.356747 264.244524 
L 95.454803 264.581211 
L 95.408965 264.917899 
L 95.255189 265.130173 
L 95.159232 265.254586 
L 94.773199 265.458182 
L 94.291209 265.528296 
L 93.809219 265.532431 
L 93.327228 265.413812 
" style="fill:none;stroke:#ff69b4;stroke-width:0.7;"/>
    <path clip-path="url(#pc24b293b09)" d="M 210.450855 263.732362 
L 210.10289 263.57115 
L 209.968864 263.442694 
L 209.791777 263.234462 
L 209.750895 262.897775 
L 209.968758 262.561088 
L 209.968864 262.561008 
L 210.450855 262.267919 
L 210.627426 262.2244 
L 210.932845 262.144937 
L 211.414835 262.124812 
L 211.896825 262.142841 
L 212.328974 262.2244 
L 212.378816 262.233041 
L 212.860806 262.435626 
L 213.057913 262.561088 
L 213.241771 262.897775 
L 213.170444 263.234462 
L 212.860806 263.530372 
L 212.812893 263.57115 
L 212.378816 263.767002 
L 211.896825 263.840851 
L 211.414835 263.853634 
L 210.932845 263.828971 
L 210.450855 263.732362 
" style="fill:none;stroke:#ff69b4;stroke-width:0.7;"/>
    <path clip-path="url(#pc24b293b09)" d="M 425.418498 36.700596 
L 425.076848 36.643931 
L 424.936508 36.621464 
L 424.454518 36.317757 
L 424.445764 36.307244 
L 424.342306 35.970556 
L 424.420841 35.633869 
L 424.454518 35.583011 
L 424.670584 35.297182 
L 424.936508 35.112125 
L 425.387988 34.960494 
L 425.418498 34.949633 
L 425.900488 34.938783 
L 425.975617 34.960494 
L 426.382479 35.099823 
L 426.670681 35.297182 
L 426.833413 35.633869 
L 426.806179 35.970556 
L 426.593439 36.307244 
L 426.382479 36.458885 
L 425.900488 36.633329 
L 425.80516 36.643931 
L 425.418498 36.700596 
" style="fill:none;stroke:#ff69b4;stroke-width:0.7;"/>
    <path clip-path="url(#pc24b293b09)" d="M 429.75641 36.50674 
L 429.275255 36.307244 
L 429.27442 36.306643 
L 429.045455 35.970556 
L 429.01701 35.633869 
L 429.110209 35.297182 
L 429.27442 35.096355 
L 429.41579 34.960494 
L 429.75641 34.786 
L 430.2384 34.692392 
L 430.720391 34.673522 
L 431.202381 34.698311 
L 431.684371 34.853226 
L 431.827363 34.960494 
L 431.909911 35.297182 
L 431.694784 35.633869 
L 431.684371 35.641631 
L 431.347194 35.970556 
L 431.202381 36.057847 
L 430.720391 36.302565 
L 430.70648 36.307244 
L 430.2384 36.47163 
L 429.75641 36.50674 
" style="fill:none;stroke:#ff69b4;stroke-width:0.7;"/>
   </g>
   <g id="LineCollection_11">
    <path clip-path="url(#pc24b293b09)" d="M 90.917277 287.156634 
L 90.986093 287.139258 
L 91.399267 286.878145 
L 91.430793 286.802571 
L 91.399267 286.790799 
L 90.917277 286.699392 
L 90.435287 286.774662 
L 90.38277 286.802571 
L 90.435287 286.875076 
L 90.878828 287.139258 
L 90.917277 287.156634 
" style="fill:none;stroke:#2e8b57;stroke-width:0.7;"/>
    <path clip-path="url(#pc24b293b09)" d="M 72.601648 282.425792 
L 72.601842 282.425637 
L 72.83255 282.088949 
L 72.601648 281.986176 
L 72.119658 282.021775 
L 71.688929 282.088949 
L 72.119658 282.407843 
L 72.59435 282.425637 
L 72.601648 282.425792 
" style="fill:none;stroke:#2e8b57;stroke-width:0.7;"/>
    <path clip-path="url(#pc24b293b09)" d="M 93.809219 266.351992 
L 94.078128 266.264648 
L 93.809219 266.195276 
L 93.707873 266.264648 
L 93.809219 266.351992 
" style="fill:none;stroke:#2e8b57;stroke-width:0.7;"/>
    <path clip-path="url(#pc24b293b09)" d="M 298.655067 115.188495 
L 299.137057 115.265244 
L 299.619048 115.287092 
L 300.101038 115.273263 
L 300.583028 115.205452 
L 300.874105 115.092064 
L 301.065018 114.995414 
L 301.314755 114.755377 
L 301.422277 114.41869 
L 301.437445 114.082002 
L 301.396492 113.745315 
L 301.256454 113.408628 
L 301.065018 113.203964 
L 300.915789 113.071941 
L 300.583028 112.885634 
L 300.101038 112.782868 
L 299.619048 112.746276 
L 299.137057 112.737919 
L 298.655067 112.75389 
L 298.173077 112.836277 
L 297.796442 113.071941 
L 297.691087 113.207305 
L 297.512666 113.408628 
L 297.408169 113.745315 
L 297.407277 114.082002 
L 297.496445 114.41869 
L 297.691087 114.665146 
L 297.74266 114.755377 
L 298.173077 115.046151 
L 298.347495 115.092064 
L 298.655067 115.188495 
" style="fill:none;stroke:#2e8b57;stroke-width:0.7;"/>
    <path clip-path="url(#pc24b293b09)" d="M 410.476801 72.360325 
L 410.958791 72.552701 
L 411.440781 72.565691 
L 411.922772 72.547116 
L 412.404762 72.507385 
L 412.886752 72.394011 
L 413.029484 72.332781 
L 413.368742 72.134537 
L 413.52732 71.996094 
L 413.714223 71.659407 
L 413.752052 71.322719 
L 413.666795 70.986032 
L 413.368742 70.707304 
L 413.275947 70.649345 
L 412.886752 70.495491 
L 412.404762 70.389085 
L 411.922772 70.340624 
L 411.440781 70.317552 
L 410.958791 70.320173 
L 410.476801 70.411701 
L 409.994811 70.581934 
L 409.832198 70.649345 
L 409.56778 70.986032 
L 409.548023 71.322719 
L 409.647441 71.659407 
L 409.958823 71.996094 
L 409.994811 72.022175 
L 410.430122 72.332781 
L 410.476801 72.360325 
" style="fill:none;stroke:#2e8b57;stroke-width:0.7;"/>
    <path clip-path="url(#pc24b293b09)" d="M 402.282967 67.283425 
L 402.288311 67.282472 
L 402.764957 67.235673 
L 403.246947 67.071141 
L 403.42845 66.945785 
L 403.657641 66.609098 
L 403.692886 66.27241 
L 403.646997 65.935723 
L 403.484728 65.599036 
L 403.246947 65.406985 
L 403.027834 65.262349 
L 402.764957 65.150696 
L 402.282967 65.016293 
L 401.800977 64.942799 
L 401.591978 64.925661 
L 401.318987 64.878668 
L 400.836996 64.86082 
L 400.365993 64.925661 
L 400.355006 64.926709 
L 399.873016 65.05046 
L 399.507344 65.262349 
L 399.391026 65.443326 
L 399.285271 65.599036 
L 399.251247 65.935723 
L 399.391026 66.266758 
L 399.392271 66.27241 
L 399.586035 66.609098 
L 399.873016 66.821916 
L 400.134926 66.945785 
L 400.355006 67.037913 
L 400.836996 67.162726 
L 401.318987 67.23894 
L 401.800977 67.278928 
L 402.245576 67.282472 
L 402.282967 67.283425 
" style="fill:none;stroke:#2e8b57;stroke-width:0.7;"/>
    <path clip-path="url(#pc24b293b09)" d="M 407.102869 66.662738 
L 407.58486 66.692212 
L 408.06685 66.652951 
L 408.326658 66.609098 
L 408.54884 66.591661 
L 409.03083 66.532846 
L 409.512821 66.450837 
L 409.994811 66.286391 
L 410.095284 66.27241 
L 410.476801 66.129335 
L 410.861706 65.935723 
L 410.877207 65.599036 
L 410.476801 65.324585 
L 410.446632 65.262349 
L 410.092148 64.925661 
L 409.994811 64.866091 
L 409.599966 64.588974 
L 409.512821 64.549689 
L 409.03083 64.441431 
L 408.54884 64.39499 
L 408.06685 64.3562 
L 407.58486 64.359388 
L 407.102869 64.418267 
L 406.620879 64.555322 
L 406.537175 64.588974 
L 406.138889 64.839346 
L 406.036853 64.925661 
L 405.851222 65.262349 
L 405.827265 65.599036 
L 405.942475 65.935723 
L 406.138889 66.130831 
L 406.282171 66.27241 
L 406.620879 66.493947 
L 406.972286 66.609098 
L 407.102869 66.662738 
" style="fill:none;stroke:#2e8b57;stroke-width:0.7;"/>
    <path clip-path="url(#pc24b293b09)" d="M 351.192002 62.334443 
L 351.673993 62.360148 
L 352.155983 62.295112 
L 352.387611 62.232163 
L 352.637973 62.192956 
L 353.119963 62.016508 
L 353.321216 61.895476 
L 353.601954 61.621473 
L 353.669779 61.558789 
L 353.865697 61.222101 
L 353.891222 60.885414 
L 353.753734 60.548727 
L 353.601954 60.412662 
L 353.285051 60.21204 
L 353.119963 60.146591 
L 352.637973 60.032156 
L 352.155983 59.989441 
L 351.673993 59.982434 
L 351.192002 60.035011 
L 350.710012 60.178228 
L 350.624415 60.21204 
L 350.228022 60.410697 
L 350.044775 60.548727 
L 349.837538 60.885414 
L 349.776653 61.222101 
L 349.802065 61.558789 
L 350.011484 61.895476 
L 350.228022 62.036248 
L 350.710012 62.213488 
L 350.817978 62.232163 
L 351.192002 62.334443 
" style="fill:none;stroke:#2e8b57;stroke-width:0.7;"/>
    <path clip-path="url(#pc24b293b09)" d="M 409.994811 54.17261 
L 410.476801 54.332152 
L 410.958791 54.394167 
L 411.440781 54.294895 
L 411.701696 54.151669 
L 411.922772 53.927549 
L 411.98537 53.814981 
L 412.057019 53.478294 
L 412.025966 53.141607 
L 411.922772 52.893804 
L 411.891451 52.80492 
L 411.588515 52.468232 
L 411.440781 52.377062 
L 410.958791 52.224402 
L 410.476801 52.17545 
L 409.994811 52.157042 
L 409.512821 52.157253 
L 409.03083 52.194741 
L 408.54884 52.270394 
L 408.06685 52.424121 
L 407.973206 52.468232 
L 407.659748 52.80492 
L 407.655627 53.141607 
L 407.86793 53.478294 
L 408.06685 53.619112 
L 408.410444 53.814981 
L 408.54884 53.869712 
L 409.03083 54.006424 
L 409.512821 54.083945 
L 409.924758 54.151669 
L 409.994811 54.17261 
" style="fill:none;stroke:#2e8b57;stroke-width:0.7;"/>
    <path clip-path="url(#pc24b293b09)" d="M 370.953602 50.168393 
L 371.435592 50.191017 
L 371.829502 50.111422 
L 371.917582 50.098276 
L 372.399573 49.953845 
L 372.686348 49.774734 
L 372.852593 49.438047 
L 372.834518 49.10136 
L 372.674371 48.764672 
L 372.399573 48.548816 
L 372.141625 48.427985 
L 371.917582 48.346621 
L 371.435592 48.251165 
L 370.953602 48.223774 
L 370.471612 48.245811 
L 369.989621 48.352656 
L 369.80364 48.427985 
L 369.507631 48.593963 
L 369.276941 48.764672 
L 369.143374 49.10136 
L 369.228204 49.438047 
L 369.507631 49.692748 
L 369.604444 49.774734 
L 369.989621 49.964047 
L 370.471612 50.082979 
L 370.681567 50.111422 
L 370.953602 50.168393 
" style="fill:none;stroke:#2e8b57;stroke-width:0.7;"/>
    <path clip-path="url(#pc24b293b09)" d="M 361.313797 45.545774 
L 361.795788 45.624153 
L 362.277778 45.635616 
L 362.759768 45.597216 
L 363.241758 45.495393 
L 363.475789 45.3978 
L 363.723748 45.258116 
L 363.948782 45.061112 
L 364.104211 44.724425 
L 364.153501 44.387738 
L 364.146655 44.051051 
L 364.038234 43.714363 
L 363.723748 43.452977 
L 363.573338 43.377676 
L 363.241758 43.223323 
L 362.759768 43.127136 
L 362.277778 43.126671 
L 361.795788 43.215166 
L 361.436853 43.377676 
L 361.313797 43.418127 
L 360.881782 43.714363 
L 360.831807 43.781632 
L 360.618293 44.051051 
L 360.52581 44.387738 
L 360.518221 44.724425 
L 360.609649 45.061112 
L 360.831807 45.292349 
L 360.97597 45.3978 
L 361.313797 45.545774 
" style="fill:none;stroke:#2e8b57;stroke-width:0.7;"/>
    <path clip-path="url(#pc24b293b09)" d="M 423.490537 35.308068 
L 423.494809 35.297182 
L 423.490537 35.270786 
L 423.472586 35.297182 
L 423.490537 35.308068 
" style="fill:none;stroke:#2e8b57;stroke-width:0.7;"/>
   </g>
   <g id="LineCollection_12">
    <path clip-path="url(#pc24b293b09)" d="M 298.655067 115.093087 
L 299.137057 115.200153 
L 299.619048 115.227363 
L 300.101038 115.199241 
L 300.569513 115.092064 
L 300.583028 115.089658 
L 301.065018 114.841632 
L 301.154759 114.755377 
L 301.328795 114.41869 
L 301.359139 114.082002 
L 301.307058 113.745315 
L 301.115913 113.408628 
L 301.065018 113.354217 
L 300.745953 113.071941 
L 300.583028 112.980722 
L 300.101038 112.835142 
L 299.619048 112.785382 
L 299.137057 112.778319 
L 298.655067 112.81033 
L 298.173077 112.94225 
L 297.965808 113.071941 
L 297.696808 113.408628 
L 297.691087 113.428617 
L 297.537613 113.745315 
L 297.530312 114.082002 
L 297.660288 114.41869 
L 297.691087 114.457687 
L 297.861238 114.755377 
L 298.173077 114.966044 
L 298.651806 115.092064 
L 298.655067 115.093087 
" style="fill:none;stroke:#2e8b57;stroke-width:0.7;"/>
    <path clip-path="url(#pc24b293b09)" d="M 410.958791 72.378822 
L 411.440781 72.426202 
L 411.922772 72.412645 
L 412.404762 72.350738 
L 412.46943 72.332781 
L 412.886752 72.212819 
L 413.224985 71.996094 
L 413.368742 71.801075 
L 413.469658 71.659407 
L 413.531541 71.322719 
L 413.395419 70.986032 
L 413.368742 70.961085 
L 412.886752 70.655443 
L 412.871396 70.649345 
L 412.404762 70.503216 
L 411.922772 70.422057 
L 411.440781 70.384027 
L 410.958791 70.394164 
L 410.476801 70.524612 
L 410.183644 70.649345 
L 409.994811 70.872606 
L 409.881426 70.986032 
L 409.82626 71.322719 
L 409.980438 71.659407 
L 409.994811 71.674362 
L 410.205975 71.996094 
L 410.476801 72.18706 
L 410.850036 72.332781 
L 410.958791 72.378822 
" style="fill:none;stroke:#2e8b57;stroke-width:0.7;"/>
    <path clip-path="url(#pc24b293b09)" d="M 400.836996 67.057904 
L 401.318987 67.152638 
L 401.800977 67.192724 
L 402.282967 67.180266 
L 402.764957 67.083916 
L 403.06411 66.945785 
L 403.246947 66.815483 
L 403.43932 66.609098 
L 403.53166 66.27241 
L 403.483467 65.935723 
L 403.249582 65.599036 
L 403.246947 65.596908 
L 402.764957 65.270308 
L 402.746583 65.262349 
L 402.282967 65.093704 
L 401.800977 65.004386 
L 401.318987 64.964271 
L 400.836996 64.966771 
L 400.355006 65.030763 
L 399.873016 65.233017 
L 399.822397 65.262349 
L 399.510188 65.599036 
L 399.465247 65.935723 
L 399.547473 66.27241 
L 399.828949 66.609098 
L 399.873016 66.641777 
L 400.355006 66.906346 
L 400.491413 66.945785 
L 400.836996 67.057904 
" style="fill:none;stroke:#2e8b57;stroke-width:0.7;"/>
    <path clip-path="url(#pc24b293b09)" d="M 407.102869 66.507975 
L 407.58486 66.559106 
L 408.06685 66.549616 
L 408.54884 66.50654 
L 409.03083 66.426948 
L 409.512821 66.289098 
L 409.559448 66.27241 
L 409.934625 65.935723 
L 409.991519 65.599036 
L 409.945431 65.262349 
L 409.73155 64.925661 
L 409.512821 64.772501 
L 409.03083 64.601931 
L 408.957287 64.588974 
L 408.54884 64.51255 
L 408.06685 64.460233 
L 407.58486 64.470127 
L 407.102869 64.55403 
L 406.989228 64.588974 
L 406.620879 64.712449 
L 406.300716 64.925661 
L 406.138889 65.219046 
L 406.110972 65.262349 
L 406.080418 65.599036 
L 406.138889 65.717819 
L 406.223143 65.935723 
L 406.620879 66.270495 
L 406.623789 66.27241 
L 407.102869 66.507975 
" style="fill:none;stroke:#2e8b57;stroke-width:0.7;"/>
    <path clip-path="url(#pc24b293b09)" d="M 350.710012 62.103106 
L 351.192002 62.201323 
L 351.673993 62.221553 
L 352.155983 62.189372 
L 352.637973 62.096787 
L 353.054174 61.895476 
L 353.119963 61.852286 
L 353.477055 61.558789 
L 353.601954 61.273754 
L 353.634854 61.222101 
L 353.661734 60.885414 
L 353.601954 60.773382 
L 353.504366 60.548727 
L 353.119963 60.291261 
L 352.891532 60.21204 
L 352.637973 60.137798 
L 352.155983 60.068145 
L 351.673993 60.054488 
L 351.192002 60.118314 
L 350.900698 60.21204 
L 350.710012 60.271262 
L 350.248381 60.548727 
L 350.228022 60.575523 
L 349.979021 60.885414 
L 349.909718 61.222101 
L 349.976963 61.558789 
L 350.228022 61.828331 
L 350.305012 61.895476 
L 350.710012 62.103106 
" style="fill:none;stroke:#2e8b57;stroke-width:0.7;"/>
    <path clip-path="url(#pc24b293b09)" d="M 410.958791 54.210728 
L 411.189255 54.151669 
L 411.440781 54.100173 
L 411.792079 53.814981 
L 411.898436 53.478294 
L 411.880795 53.141607 
L 411.750869 52.80492 
L 411.440781 52.523093 
L 411.34124 52.468232 
L 410.958791 52.316425 
L 410.476801 52.255997 
L 409.994811 52.246184 
L 409.512821 52.266429 
L 409.03083 52.331472 
L 408.54884 52.45232 
L 408.504046 52.468232 
L 408.06685 52.792059 
L 408.053501 52.80492 
L 408.009436 53.141607 
L 408.06685 53.219393 
L 408.223609 53.478294 
L 408.54884 53.680816 
L 408.855828 53.814981 
L 409.03083 53.871907 
L 409.512821 53.97304 
L 409.994811 54.056383 
L 410.476801 54.149952 
L 410.500507 54.151669 
L 410.958791 54.210728 
" style="fill:none;stroke:#2e8b57;stroke-width:0.7;"/>
    <path clip-path="url(#pc24b293b09)" d="M 369.989621 49.786093 
L 370.471612 49.951509 
L 370.953602 50.026051 
L 371.435592 50.030588 
L 371.917582 49.940092 
L 372.3103 49.774734 
L 372.399573 49.710427 
L 372.626817 49.438047 
L 372.636859 49.10136 
L 372.426278 48.764672 
L 372.399573 48.743695 
L 371.917582 48.487771 
L 371.681585 48.427985 
L 371.435592 48.370556 
L 370.953602 48.340363 
L 370.471612 48.390066 
L 370.330732 48.427985 
L 369.989621 48.540086 
L 369.623794 48.764672 
L 369.507631 48.988468 
L 369.445852 49.10136 
L 369.507631 49.285439 
L 369.548538 49.438047 
L 369.966512 49.774734 
L 369.989621 49.786093 
" style="fill:none;stroke:#2e8b57;stroke-width:0.7;"/>
    <path clip-path="url(#pc24b293b09)" d="M 361.313797 45.429107 
L 361.795788 45.55819 
L 362.277778 45.582406 
L 362.759768 45.53618 
L 363.241758 45.399541 
L 363.245934 45.3978 
L 363.723748 45.128631 
L 363.800873 45.061112 
L 364.008482 44.724425 
L 364.065076 44.387738 
L 364.033905 44.051051 
L 363.833479 43.714363 
L 363.723748 43.62316 
L 363.241758 43.379534 
L 363.233591 43.377676 
L 362.759768 43.230397 
L 362.277778 43.218115 
L 361.795788 43.33328 
L 361.697731 43.377676 
L 361.313797 43.503884 
L 361.006845 43.714363 
L 360.831807 43.949974 
L 360.751704 44.051051 
L 360.631132 44.387738 
L 360.634989 44.724425 
L 360.796826 45.061112 
L 360.831807 45.097523 
L 361.242321 45.3978 
L 361.313797 45.429107 
" style="fill:none;stroke:#2e8b57;stroke-width:0.7;"/>
   </g>
   <g id="LineCollection_13">
    <path clip-path="url(#pc24b293b09)" d="M 299.137057 115.102517 
L 299.619048 115.137769 
L 300.070313 115.092064 
L 300.101038 115.090276 
L 300.583028 115.003232 
L 300.978651 114.755377 
L 301.065018 114.615521 
L 301.188572 114.41869 
L 301.241682 114.082002 
L 301.172907 113.745315 
L 301.065018 113.572053 
L 300.985213 113.408628 
L 300.583028 113.100951 
L 300.510041 113.071941 
L 300.101038 112.913554 
L 299.619048 112.844041 
L 299.137057 112.838919 
L 298.655067 112.89499 
L 298.212101 113.071941 
L 298.173077 113.09052 
L 297.8115 113.408628 
L 297.707328 113.745315 
L 297.700444 114.082002 
L 297.773134 114.41869 
L 298.039105 114.755377 
L 298.173077 114.845884 
L 298.655067 115.029877 
L 299.090146 115.092064 
L 299.137057 115.102517 
" style="fill:none;stroke:#2e8b57;stroke-width:0.7;"/>
    <path clip-path="url(#pc24b293b09)" d="M 410.958791 72.217056 
L 411.440781 72.26997 
L 411.922772 72.259266 
L 412.404762 72.187432 
L 412.847085 71.996094 
L 412.886752 71.965752 
L 413.177367 71.659407 
L 413.240175 71.322719 
L 413.059637 70.986032 
L 412.886752 70.872557 
L 412.404762 70.670971 
L 412.334689 70.649345 
L 411.922772 70.544207 
L 411.440781 70.483741 
L 410.958791 70.50515 
L 410.558083 70.649345 
L 410.476801 70.697278 
L 410.150709 70.986032 
L 410.096782 71.322719 
L 410.193156 71.659407 
L 410.476801 71.95259 
L 410.532657 71.996094 
L 410.958791 72.217056 
" style="fill:none;stroke:#2e8b57;stroke-width:0.7;"/>
    <path clip-path="url(#pc24b293b09)" d="M 401.318987 67.023186 
L 401.800977 67.063419 
L 402.282967 67.026426 
L 402.558376 66.945785 
L 402.764957 66.88156 
L 403.15137 66.609098 
L 403.246947 66.373604 
L 403.289822 66.27241 
L 403.246947 65.992251 
L 403.241532 65.935723 
L 403.04508 65.599036 
L 402.764957 65.408587 
L 402.427375 65.262349 
L 402.282967 65.209819 
L 401.800977 65.096767 
L 401.318987 65.055256 
L 400.836996 65.0753 
L 400.355006 65.186843 
L 400.185632 65.262349 
L 399.873016 65.497587 
L 399.772145 65.599036 
L 399.675341 65.935723 
L 399.780276 66.27241 
L 399.873016 66.377406 
L 400.084821 66.609098 
L 400.355006 66.766224 
L 400.836996 66.918581 
L 400.993289 66.945785 
L 401.318987 67.023186 
" style="fill:none;stroke:#2e8b57;stroke-width:0.7;"/>
    <path clip-path="url(#pc24b293b09)" d="M 407.102869 66.320494 
L 407.58486 66.429139 
L 408.06685 66.43229 
L 408.54884 66.378859 
L 409.015641 66.27241 
L 409.03083 66.268475 
L 409.512821 66.019758 
L 409.612571 65.935723 
L 409.726369 65.599036 
L 409.640875 65.262349 
L 409.512821 65.112598 
L 409.341261 64.925661 
L 409.03083 64.767969 
L 408.54884 64.652851 
L 408.06685 64.606612 
L 407.58486 64.620036 
L 407.102869 64.705479 
L 406.632763 64.925661 
L 406.620879 64.937006 
L 406.355755 65.262349 
L 406.33174 65.599036 
L 406.521418 65.935723 
L 406.620879 66.019439 
L 407.005079 66.27241 
L 407.102869 66.320494 
" style="fill:none;stroke:#2e8b57;stroke-width:0.7;"/>
    <path clip-path="url(#pc24b293b09)" d="M 350.710012 61.937534 
L 351.192002 62.089553 
L 351.673993 62.12461 
L 352.155983 62.086311 
L 352.637973 61.952533 
L 352.755936 61.895476 
L 353.119963 61.656494 
L 353.23884 61.558789 
L 353.438789 61.222101 
L 353.445973 60.885414 
L 353.224135 60.548727 
L 353.119963 60.478955 
L 352.637973 60.267993 
L 352.296574 60.21204 
L 352.155983 60.186201 
L 351.673993 60.16257 
L 351.362229 60.21204 
L 351.192002 60.232307 
L 350.710012 60.391878 
L 350.449056 60.548727 
L 350.228022 60.839645 
L 350.191246 60.885414 
L 350.109316 61.222101 
L 350.228022 61.536075 
L 350.235353 61.558789 
L 350.627975 61.895476 
L 350.710012 61.937534 
" style="fill:none;stroke:#2e8b57;stroke-width:0.7;"/>
    <path clip-path="url(#pc24b293b09)" d="M 409.994811 53.896892 
L 410.476801 53.995359 
L 410.958791 54.023181 
L 411.440781 53.880342 
L 411.521293 53.814981 
L 411.718347 53.478294 
L 411.714597 53.141607 
L 411.539997 52.80492 
L 411.440781 52.714747 
L 410.993492 52.468232 
L 410.958791 52.454458 
L 410.476801 52.376818 
L 409.994811 52.379896 
L 409.512821 52.430193 
L 409.314833 52.468232 
L 409.03083 52.535513 
L 408.54884 52.752778 
L 408.476513 52.80492 
L 408.383888 53.141607 
L 408.54884 53.359505 
L 408.639351 53.478294 
L 409.03083 53.68159 
L 409.512821 53.807241 
L 409.555494 53.814981 
L 409.994811 53.896892 
" style="fill:none;stroke:#2e8b57;stroke-width:0.7;"/>
    <path clip-path="url(#pc24b293b09)" d="M 370.953602 49.848118 
L 371.435592 49.837626 
L 371.685331 49.774734 
L 371.917582 49.698433 
L 372.283263 49.438047 
L 372.339219 49.10136 
L 372.068931 48.764672 
L 371.917582 48.682102 
L 371.435592 48.536331 
L 370.953602 48.504991 
L 370.471612 48.581189 
L 370.053139 48.764672 
L 369.989621 48.835565 
L 369.799618 49.10136 
L 369.910918 49.438047 
L 369.989621 49.500299 
L 370.471612 49.753076 
L 370.568377 49.774734 
L 370.953602 49.848118 
" style="fill:none;stroke:#2e8b57;stroke-width:0.7;"/>
    <path clip-path="url(#pc24b293b09)" d="M 361.795788 45.459246 
L 362.277778 45.502591 
L 362.759768 45.444625 
L 362.924182 45.3978 
L 363.241758 45.311627 
L 363.634528 45.061112 
L 363.723748 44.926796 
L 363.864889 44.724425 
L 363.932438 44.387738 
L 363.864781 44.051051 
L 363.723748 43.860912 
L 363.604456 43.714363 
L 363.241758 43.492876 
L 362.759768 43.381188 
L 362.648237 43.377676 
L 362.277778 43.35528 
L 362.191553 43.377676 
L 361.795788 43.434258 
L 361.313797 43.632519 
L 361.19444 43.714363 
L 360.896035 44.051051 
L 360.831807 44.283152 
L 360.789115 44.387738 
L 360.81014 44.724425 
L 360.831807 44.766111 
L 360.962311 45.061112 
L 361.313797 45.310833 
L 361.588229 45.3978 
L 361.795788 45.459246 
" style="fill:none;stroke:#2e8b57;stroke-width:0.7;"/>
   </g>
   <g id="LineCollection_14">
    <path clip-path="url(#pc24b293b09)" d="M 298.655067 114.935925 
L 299.137057 115.031827 
L 299.619048 115.052114 
L 300.101038 115.013039 
L 300.583028 114.873594 
L 300.771725 114.755377 
L 301.017981 114.41869 
L 301.065018 114.084196 
L 301.065495 114.082002 
L 301.065018 114.08005 
L 301.018019 113.745315 
L 300.827407 113.408628 
L 300.583028 113.221675 
L 300.206319 113.071941 
L 300.101038 113.03117 
L 299.619048 112.93203 
L 299.137057 112.92982 
L 298.655067 113.021981 
L 298.530001 113.071941 
L 298.173077 113.241874 
L 297.983536 113.408628 
L 297.823573 113.745315 
L 297.809389 114.082002 
L 297.913839 114.41869 
L 298.173077 114.683753 
L 298.272253 114.755377 
L 298.655067 114.935925 
" style="fill:none;stroke:#2e8b57;stroke-width:0.7;"/>
    <path clip-path="url(#pc24b293b09)" d="M 410.958791 72.006257 
L 411.440781 72.099754 
L 411.922772 72.076713 
L 412.260058 71.996094 
L 412.404762 71.944432 
L 412.788946 71.659407 
L 412.862688 71.322719 
L 412.59424 70.986032 
L 412.404762 70.892524 
L 411.922772 70.719008 
L 411.537649 70.649345 
L 411.440781 70.633312 
L 411.226442 70.649345 
L 410.958791 70.672108 
L 410.476801 70.970101 
L 410.45881 70.986032 
L 410.353358 71.322719 
L 410.476801 71.614494 
L 410.495898 71.659407 
L 410.939191 71.996094 
L 410.958791 72.006257 
" style="fill:none;stroke:#2e8b57;stroke-width:0.7;"/>
    <path clip-path="url(#pc24b293b09)" d="M 400.836996 66.776363 
L 401.318987 66.872529 
L 401.800977 66.896123 
L 402.282967 66.843837 
L 402.764957 66.636541 
L 402.803878 66.609098 
L 403.036999 66.27241 
L 403.014429 65.935723 
L 402.764957 65.622372 
L 402.743495 65.599036 
L 402.282967 65.358178 
L 401.906144 65.262349 
L 401.800977 65.235339 
L 401.318987 65.191734 
L 400.836996 65.238094 
L 400.750108 65.262349 
L 400.355006 65.40348 
L 400.086006 65.599036 
L 399.956355 65.935723 
L 400.049175 66.27241 
L 400.355006 66.553457 
L 400.440175 66.609098 
L 400.836996 66.776363 
" style="fill:none;stroke:#2e8b57;stroke-width:0.7;"/>
    <path clip-path="url(#pc24b293b09)" d="M 407.102869 66.086627 
L 407.58486 66.24077 
L 408.06685 66.259103 
L 408.54884 66.201483 
L 409.03083 66.050894 
L 409.223696 65.935723 
L 409.387343 65.599036 
L 409.29871 65.262349 
L 409.03083 65.023124 
L 408.850426 64.925661 
L 408.54884 64.821955 
L 408.06685 64.757794 
L 407.58486 64.783799 
L 407.102869 64.916435 
L 407.08317 64.925661 
L 406.693504 65.262349 
L 406.662646 65.599036 
L 406.8792 65.935723 
L 407.102869 66.086627 
" style="fill:none;stroke:#2e8b57;stroke-width:0.7;"/>
    <path clip-path="url(#pc24b293b09)" d="M 351.192002 61.921898 
L 351.673993 61.979195 
L 352.155983 61.93172 
L 352.272391 61.895476 
L 352.637973 61.774954 
L 352.958168 61.558789 
L 353.119963 61.293281 
L 353.168345 61.222101 
L 353.162832 60.885414 
L 353.119963 60.828999 
L 352.882995 60.548727 
L 352.637973 60.425909 
L 352.155983 60.310777 
L 351.673993 60.286357 
L 351.192002 60.353955 
L 350.746996 60.548727 
L 350.710012 60.576293 
L 350.407395 60.885414 
L 350.344897 61.222101 
L 350.490951 61.558789 
L 350.710012 61.729765 
L 351.115139 61.895476 
L 351.192002 61.921898 
" style="fill:none;stroke:#2e8b57;stroke-width:0.7;"/>
    <path clip-path="url(#pc24b293b09)" d="M 409.512821 53.574502 
L 409.994811 53.672343 
L 410.476801 53.767042 
L 410.958791 53.777321 
L 411.440781 53.489462 
L 411.448212 53.478294 
L 411.465302 53.141607 
L 411.440781 53.099404 
L 411.218667 52.80492 
L 410.958791 52.649224 
L 410.476801 52.559885 
L 409.994811 52.584158 
L 409.512821 52.673199 
L 409.112336 52.80492 
L 409.03083 52.893291 
L 408.881314 53.141607 
L 409.03083 53.321533 
L 409.221523 53.478294 
L 409.512821 53.574502 
" style="fill:none;stroke:#2e8b57;stroke-width:0.7;"/>
    <path clip-path="url(#pc24b293b09)" d="M 370.471612 49.439485 
L 370.953602 49.575189 
L 371.435592 49.540416 
L 371.68824 49.438047 
L 371.873496 49.10136 
L 371.435592 48.785369 
L 371.304399 48.764672 
L 370.953602 48.736485 
L 370.826914 48.764672 
L 370.471612 48.937218 
L 370.306814 49.10136 
L 370.469042 49.438047 
L 370.471612 49.439485 
" style="fill:none;stroke:#2e8b57;stroke-width:0.7;"/>
    <path clip-path="url(#pc24b293b09)" d="M 361.313797 45.15196 
L 361.795788 45.344737 
L 362.277778 45.388637 
L 362.759768 45.342554 
L 363.241758 45.180783 
L 363.429385 45.061112 
L 363.677651 44.724425 
L 363.723748 44.42958 
L 363.733481 44.387738 
L 363.723748 44.354328 
L 363.65446 44.051051 
L 363.326049 43.714363 
L 363.241758 43.66289 
L 362.759768 43.488359 
L 362.277778 43.460023 
L 361.795788 43.547509 
L 361.449242 43.714363 
L 361.313797 43.803447 
L 361.056682 44.051051 
L 360.937466 44.387738 
L 360.962234 44.724425 
L 361.185928 45.061112 
L 361.313797 45.15196 
" style="fill:none;stroke:#2e8b57;stroke-width:0.7;"/>
   </g>
   <g id="LineCollection_15">
    <path clip-path="url(#pc24b293b09)" d="M 298.655067 114.794996 
L 299.137057 114.934527 
L 299.619048 114.961305 
L 300.101038 114.897183 
L 300.466094 114.755377 
L 300.583028 114.687174 
L 300.846968 114.41869 
L 300.928132 114.082002 
L 300.866029 113.745315 
L 300.590698 113.408628 
L 300.583028 113.40276 
L 300.101038 113.151461 
L 299.65397 113.071941 
L 299.619048 113.064013 
L 299.137057 113.06617 
L 299.110906 113.071941 
L 298.655067 113.159913 
L 298.227505 113.408628 
L 298.173077 113.479019 
L 297.997939 113.745315 
L 297.972805 114.082002 
L 298.124895 114.41869 
L 298.173077 114.467954 
L 298.571063 114.755377 
L 298.655067 114.794996 
" style="fill:none;stroke:#2e8b57;stroke-width:0.7;"/>
    <path clip-path="url(#pc24b293b09)" d="M 410.958791 71.716274 
L 411.440781 71.851277 
L 411.922772 71.792238 
L 412.213246 71.659407 
L 412.34322 71.322719 
L 411.975922 70.986032 
L 411.922772 70.964194 
L 411.440781 70.848093 
L 410.958791 70.92719 
L 410.865495 70.986032 
L 410.706503 71.322719 
L 410.882707 71.659407 
L 410.958791 71.716274 
" style="fill:none;stroke:#2e8b57;stroke-width:0.7;"/>
    <path clip-path="url(#pc24b293b09)" d="M 401.318987 66.689812 
L 401.800977 66.706821 
L 402.281668 66.609098 
L 402.282967 66.608694 
L 402.683037 66.27241 
L 402.680966 65.935723 
L 402.349964 65.599036 
L 402.282967 65.563996 
L 401.800977 65.411061 
L 401.318987 65.375037 
L 400.836996 65.45027 
L 400.52089 65.599036 
L 400.355006 65.822863 
L 400.291732 65.935723 
L 400.355006 66.123304 
L 400.40736 66.27241 
L 400.836996 66.558844 
L 400.995242 66.609098 
L 401.318987 66.689812 
" style="fill:none;stroke:#2e8b57;stroke-width:0.7;"/>
    <path clip-path="url(#pc24b293b09)" d="M 407.58486 65.998702 
L 408.06685 66.041034 
L 408.54884 65.96197 
L 408.618642 65.935723 
L 408.974043 65.599036 
L 408.839494 65.262349 
L 408.54884 65.091752 
L 408.06685 64.991771 
L 407.58486 65.043397 
L 407.150141 65.262349 
L 407.102869 65.431286 
L 407.068443 65.599036 
L 407.102869 65.643952 
L 407.430285 65.935723 
L 407.58486 65.998702 
" style="fill:none;stroke:#2e8b57;stroke-width:0.7;"/>
    <path clip-path="url(#pc24b293b09)" d="M 351.192002 61.719213 
L 351.673993 61.790976 
L 352.155983 61.743976 
L 352.587892 61.558789 
L 352.637973 61.515791 
L 352.869892 61.222101 
L 352.844033 60.885414 
L 352.637973 60.689342 
L 352.366121 60.548727 
L 352.155983 60.484185 
L 351.673993 60.446786 
L 351.192002 60.536427 
L 351.1639 60.548727 
L 350.711558 60.885414 
L 350.710012 60.892109 
L 350.635382 61.222101 
L 350.710012 61.348279 
L 350.8762 61.558789 
L 351.192002 61.719213 
" style="fill:none;stroke:#2e8b57;stroke-width:0.7;"/>
    <path clip-path="url(#pc24b293b09)" d="M 409.994811 53.212533 
L 410.476801 53.402131 
L 410.958791 53.262995 
L 411.010111 53.141607 
L 410.958791 53.076521 
L 410.476801 52.885743 
L 409.994811 53.050334 
L 409.858771 53.141607 
L 409.994811 53.212533 
" style="fill:none;stroke:#2e8b57;stroke-width:0.7;"/>
    <path clip-path="url(#pc24b293b09)" d="M 361.795788 45.208909 
L 362.277778 45.278448 
L 362.759768 45.216813 
L 363.126254 45.061112 
L 363.241758 44.977065 
L 363.477063 44.724425 
L 363.544831 44.387738 
L 363.420415 44.051051 
L 363.241758 43.88646 
L 362.922246 43.714363 
L 362.759768 43.649116 
L 362.277778 43.598632 
L 361.805844 43.714363 
L 361.795788 43.716817 
L 361.313797 44.035502 
L 361.297651 44.051051 
L 361.130781 44.387738 
L 361.175459 44.724425 
L 361.313797 44.896754 
L 361.488529 45.061112 
L 361.795788 45.208909 
" style="fill:none;stroke:#2e8b57;stroke-width:0.7;"/>
   </g>
   <g id="LineCollection_16">
    <path clip-path="url(#pc24b293b09)" d="M 299.137057 114.788577 
L 299.619048 114.825092 
L 299.973575 114.755377 
L 300.101038 114.727947 
L 300.583028 114.426238 
L 300.590448 114.41869 
L 300.72243 114.082002 
L 300.638043 113.745315 
L 300.583028 113.678704 
L 300.294804 113.408628 
L 300.101038 113.30659 
L 299.619048 113.186004 
L 299.137057 113.193574 
L 298.655067 113.338786 
L 298.535003 113.408628 
L 298.240389 113.745315 
L 298.207596 114.082002 
L 298.377298 114.41869 
L 298.655067 114.616199 
L 299.031639 114.755377 
L 299.137057 114.788577 
" style="fill:none;stroke:#2e8b57;stroke-width:0.7;"/>
    <path clip-path="url(#pc24b293b09)" d="M 401.318987 66.391879 
L 401.800977 66.392922 
L 402.099714 66.27241 
L 402.177456 65.935723 
L 401.800977 65.708888 
L 401.318987 65.656325 
L 400.836996 65.887943 
L 400.793477 65.935723 
L 400.836996 66.045429 
L 400.989459 66.27241 
L 401.318987 66.391879 
" style="fill:none;stroke:#2e8b57;stroke-width:0.7;"/>
    <path clip-path="url(#pc24b293b09)" d="M 351.192002 61.349266 
L 351.673993 61.524948 
L 352.155983 61.430579 
L 352.410142 61.222101 
L 352.335708 60.885414 
L 352.155983 60.783051 
L 351.673993 60.715804 
L 351.192002 60.859317 
L 351.156312 60.885414 
L 351.071141 61.222101 
L 351.192002 61.349266 
" style="fill:none;stroke:#2e8b57;stroke-width:0.7;"/>
    <path clip-path="url(#pc24b293b09)" d="M 362.277778 45.113164 
L 362.587924 45.061112 
L 362.759768 45.024804 
L 363.178534 44.724425 
L 363.241758 44.488022 
L 363.267407 44.387738 
L 363.241758 44.334396 
L 363.076763 44.051051 
L 362.759768 43.861161 
L 362.277778 43.790634 
L 361.795788 43.923664 
L 361.606863 44.051051 
L 361.404791 44.387738 
L 361.467689 44.724425 
L 361.795788 44.998832 
L 362.020297 45.061112 
L 362.277778 45.113164 
" style="fill:none;stroke:#2e8b57;stroke-width:0.7;"/>
   </g>
   <g id="LineCollection_17">
    <path clip-path="url(#pc24b293b09)" d="M 299.137057 114.602449 
L 299.619048 114.642619 
L 300.101038 114.504342 
L 300.236418 114.41869 
L 300.432879 114.082002 
L 300.336398 113.745315 
L 300.101038 113.547402 
L 299.767153 113.408628 
L 299.619048 113.364236 
L 299.137057 113.381322 
L 299.057859 113.408628 
L 298.655067 113.635738 
L 298.545998 113.745315 
L 298.490569 114.082002 
L 298.655067 114.322874 
L 298.744188 114.41869 
L 299.137057 114.602449 
" style="fill:none;stroke:#2e8b57;stroke-width:0.7;"/>
    <path clip-path="url(#pc24b293b09)" d="M 362.277778 44.844076 
L 362.721436 44.724425 
L 362.759768 44.682892 
L 362.866665 44.387738 
L 362.759768 44.246703 
L 362.289453 44.051051 
L 362.277778 44.048674 
L 362.270363 44.051051 
L 361.795788 44.358227 
L 361.774833 44.387738 
L 361.795788 44.463983 
L 361.944014 44.724425 
L 362.277778 44.844076 
" style="fill:none;stroke:#2e8b57;stroke-width:0.7;"/>
   </g>
   <g id="LineCollection_18">
    <path clip-path="url(#pc24b293b09)" d="M 299.137057 114.27378 
L 299.619048 114.36183 
L 299.988172 114.082002 
L 299.815435 113.745315 
L 299.619048 113.651837 
L 299.137057 113.692303 
L 299.049674 113.745315 
L 298.93987 114.082002 
L 299.137057 114.27378 
" style="fill:none;stroke:#2e8b57;stroke-width:0.7;"/>
   </g>
   <g id="LineCollection_19"/>
   <g id="LineCollection_20"/>
   <g id="patch_3">
    <path d="M 55.25 299.26 
L 55.25 26.88 
" style="fill:none;stroke:#000000;stroke-linecap:square;stroke-linejoin:miter;stroke-width:1.3;"/>
   </g>
   <g id="patch_4">
    <path d="M 450 299.26 
L 450 26.88 
" style="fill:none;stroke:#000000;stroke-linecap:square;stroke-linejoin:miter;stroke-width:1.3;"/>
   </g>
   <g id="patch_5">
    <path d="M 55.25 299.26 
L 450 299.26 
" style="fill:none;stroke:#000000;stroke-linecap:square;stroke-linejoin:miter;stroke-width:1.3;"/>
   </g>
   <g id="patch_6">
    <path d="M 55.25 26.88 
L 450 26.88 
" style="fill:none;stroke:#000000;stroke-linecap:square;stroke-linejoin:miter;stroke-width:1.3;"/>
   </g>
   <g id="text_18">
    <!-- An example HSQC -->
    <defs>
     <path d="M 34.1875 63.1875 
L 20.796875 26.90625 
L 47.609375 26.90625 
z
M 28.609375 72.90625 
L 39.796875 72.90625 
L 67.578125 0 
L 57.328125 0 
L 50.6875 18.703125 
L 17.828125 18.703125 
L 11.1875 0 
L 0.78125 0 
z
" id="DejaVuSans-65"/>
     <path d="M 54.890625 33.015625 
L 54.890625 0 
L 45.90625 0 
L 45.90625 32.71875 
Q 45.90625 40.484375 42.875 44.328125 
Q 39.84375 48.1875 33.796875 48.1875 
Q 26.515625 48.1875 22.3125 43.546875 
Q 18.109375 38.921875 18.109375 30.90625 
L 18.109375 0 
L 9.078125 0 
L 9.078125 54.6875 
L 18.109375 54.6875 
L 18.109375 46.1875 
Q 21.34375 51.125 25.703125 53.5625 
Q 30.078125 56 35.796875 56 
Q 45.21875 56 50.046875 50.171875 
Q 54.890625 44.34375 54.890625 33.015625 
z
" id="DejaVuSans-110"/>
     <path d="M 56.203125 29.59375 
L 56.203125 25.203125 
L 14.890625 25.203125 
Q 15.484375 15.921875 20.484375 11.0625 
Q 25.484375 6.203125 34.421875 6.203125 
Q 39.59375 6.203125 44.453125 7.46875 
Q 49.3125 8.734375 54.109375 11.28125 
L 54.109375 2.78125 
Q 49.265625 0.734375 44.1875 -0.34375 
Q 39.109375 -1.421875 33.890625 -1.421875 
Q 20.796875 -1.421875 13.15625 6.1875 
Q 5.515625 13.8125 5.515625 26.8125 
Q 5.515625 40.234375 12.765625 48.109375 
Q 20.015625 56 32.328125 56 
Q 43.359375 56 49.78125 48.890625 
Q 56.203125 41.796875 56.203125 29.59375 
z
M 47.21875 32.234375 
Q 47.125 39.59375 43.09375 43.984375 
Q 39.0625 48.390625 32.421875 48.390625 
Q 24.90625 48.390625 20.390625 44.140625 
Q 15.875 39.890625 15.1875 32.171875 
z
" id="DejaVuSans-101"/>
     <path d="M 54.890625 54.6875 
L 35.109375 28.078125 
L 55.90625 0 
L 45.3125 0 
L 29.390625 21.484375 
L 13.484375 0 
L 2.875 0 
L 24.125 28.609375 
L 4.6875 54.6875 
L 15.28125 54.6875 
L 29.78125 35.203125 
L 44.28125 54.6875 
z
" id="DejaVuSans-120"/>
     <path d="M 34.28125 27.484375 
Q 23.390625 27.484375 19.1875 25 
Q 14.984375 22.515625 14.984375 16.5 
Q 14.984375 11.71875 18.140625 8.90625 
Q 21.296875 6.109375 26.703125 6.109375 
Q 34.1875 6.109375 38.703125 11.40625 
Q 43.21875 16.703125 43.21875 25.484375 
L 43.21875 27.484375 
z
M 52.203125 31.203125 
L 52.203125 0 
L 43.21875 0 
L 43.21875 8.296875 
Q 40.140625 3.328125 35.546875 0.953125 
Q 30.953125 -1.421875 24.3125 -1.421875 
Q 15.921875 -1.421875 10.953125 3.296875 
Q 6 8.015625 6 15.921875 
Q 6 25.140625 12.171875 29.828125 
Q 18.359375 34.515625 30.609375 34.515625 
L 43.21875 34.515625 
L 43.21875 35.40625 
Q 43.21875 41.609375 39.140625 45 
Q 35.0625 48.390625 27.6875 48.390625 
Q 23 48.390625 18.546875 47.265625 
Q 14.109375 46.140625 10.015625 43.890625 
L 10.015625 52.203125 
Q 14.9375 54.109375 19.578125 55.046875 
Q 24.21875 56 28.609375 56 
Q 40.484375 56 46.34375 49.84375 
Q 52.203125 43.703125 52.203125 31.203125 
z
" id="DejaVuSans-97"/>
     <path d="M 9.421875 75.984375 
L 18.40625 75.984375 
L 18.40625 0 
L 9.421875 0 
z
" id="DejaVuSans-108"/>
     <path d="M 9.8125 72.90625 
L 19.671875 72.90625 
L 19.671875 43.015625 
L 55.515625 43.015625 
L 55.515625 72.90625 
L 65.375 72.90625 
L 65.375 0 
L 55.515625 0 
L 55.515625 34.71875 
L 19.671875 34.71875 
L 19.671875 0 
L 9.8125 0 
z
" id="DejaVuSans-72"/>
     <path d="M 53.515625 70.515625 
L 53.515625 60.890625 
Q 47.90625 63.578125 42.921875 64.890625 
Q 37.9375 66.21875 33.296875 66.21875 
Q 25.25 66.21875 20.875 63.09375 
Q 16.5 59.96875 16.5 54.203125 
Q 16.5 49.359375 19.40625 46.890625 
Q 22.3125 44.4375 30.421875 42.921875 
L 36.375 41.703125 
Q 47.40625 39.59375 52.65625 34.296875 
Q 57.90625 29 57.90625 20.125 
Q 57.90625 9.515625 50.796875 4.046875 
Q 43.703125 -1.421875 29.984375 -1.421875 
Q 24.8125 -1.421875 18.96875 -0.25 
Q 13.140625 0.921875 6.890625 3.21875 
L 6.890625 13.375 
Q 12.890625 10.015625 18.65625 8.296875 
Q 24.421875 6.59375 29.984375 6.59375 
Q 38.421875 6.59375 43.015625 9.90625 
Q 47.609375 13.234375 47.609375 19.390625 
Q 47.609375 24.75 44.3125 27.78125 
Q 41.015625 30.8125 33.5 32.328125 
L 27.484375 33.5 
Q 16.453125 35.6875 11.515625 40.375 
Q 6.59375 45.0625 6.59375 53.421875 
Q 6.59375 63.09375 13.40625 68.65625 
Q 20.21875 74.21875 32.171875 74.21875 
Q 37.3125 74.21875 42.625 73.28125 
Q 47.953125 72.359375 53.515625 70.515625 
z
" id="DejaVuSans-83"/>
     <path d="M 39.40625 66.21875 
Q 28.65625 66.21875 22.328125 58.203125 
Q 16.015625 50.203125 16.015625 36.375 
Q 16.015625 22.609375 22.328125 14.59375 
Q 28.65625 6.59375 39.40625 6.59375 
Q 50.140625 6.59375 56.421875 14.59375 
Q 62.703125 22.609375 62.703125 36.375 
Q 62.703125 50.203125 56.421875 58.203125 
Q 50.140625 66.21875 39.40625 66.21875 
z
M 53.21875 1.3125 
L 66.21875 -12.890625 
L 54.296875 -12.890625 
L 43.5 -1.21875 
Q 41.890625 -1.3125 41.03125 -1.359375 
Q 40.1875 -1.421875 39.40625 -1.421875 
Q 24.03125 -1.421875 14.8125 8.859375 
Q 5.609375 19.140625 5.609375 36.375 
Q 5.609375 53.65625 14.8125 63.9375 
Q 24.03125 74.21875 39.40625 74.21875 
Q 54.734375 74.21875 63.90625 63.9375 
Q 73.09375 53.65625 73.09375 36.375 
Q 73.09375 23.6875 67.984375 14.640625 
Q 62.890625 5.609375 53.21875 1.3125 
z
" id="DejaVuSans-81"/>
     <path d="M 64.40625 67.28125 
L 64.40625 56.890625 
Q 59.421875 61.53125 53.78125 63.8125 
Q 48.140625 66.109375 41.796875 66.109375 
Q 29.296875 66.109375 22.65625 58.46875 
Q 16.015625 50.828125 16.015625 36.375 
Q 16.015625 21.96875 22.65625 14.328125 
Q 29.296875 6.6875 41.796875 6.6875 
Q 48.140625 6.6875 53.78125 8.984375 
Q 59.421875 11.28125 64.40625 15.921875 
L 64.40625 5.609375 
Q 59.234375 2.09375 53.4375 0.328125 
Q 47.65625 -1.421875 41.21875 -1.421875 
Q 24.65625 -1.421875 15.125 8.703125 
Q 5.609375 18.84375 5.609375 36.375 
Q 5.609375 53.953125 15.125 64.078125 
Q 24.65625 74.21875 41.21875 74.21875 
Q 47.75 74.21875 53.53125 72.484375 
Q 59.328125 70.75 64.40625 67.28125 
z
" id="DejaVuSans-67"/>
    </defs>
    <g transform="translate(197.843125 20.88)scale(0.12 -0.12)">
     <use xlink:href="#DejaVuSans-65"/>
     <use x="68.408203" xlink:href="#DejaVuSans-110"/>
     <use x="131.787109" xlink:href="#DejaVuSans-32"/>
     <use x="163.574219" xlink:href="#DejaVuSans-101"/>
     <use x="223.347656" xlink:href="#DejaVuSans-120"/>
     <use x="282.527344" xlink:href="#DejaVuSans-97"/>
     <use x="343.806641" xlink:href="#DejaVuSans-109"/>
     <use x="441.21875" xlink:href="#DejaVuSans-112"/>
     <use x="504.695312" xlink:href="#DejaVuSans-108"/>
     <use x="532.478516" xlink:href="#DejaVuSans-101"/>
     <use x="594.001953" xlink:href="#DejaVuSans-32"/>
     <use x="625.789062" xlink:href="#DejaVuSans-72"/>
     <use x="700.984375" xlink:href="#DejaVuSans-83"/>
     <use x="764.460938" xlink:href="#DejaVuSans-81"/>
     <use x="843.171875" xlink:href="#DejaVuSans-67"/>
    </g>
   </g>
  </g>
 </g>
 <defs>
  <clipPath id="pc24b293b09">
   <rect height="272.38" width="394.75" x="55.25" y="26.88"/>
  </clipPath>
 </defs>
</svg>
