<?xml version="1.0" encoding="utf-8" standalone="no"?>
<!DOCTYPE svg PUBLIC "-//W3C//DTD SVG 1.1//EN"
  "http://www.w3.org/Graphics/SVG/1.1/DTD/svg11.dtd">
<!-- Created with matplotlib (https://matplotlib.org/) -->
<svg height="288pt" version="1.1" viewBox="0 0 288 288" width="288pt" xmlns="http://www.w3.org/2000/svg" xmlns:xlink="http://www.w3.org/1999/xlink">
 <defs>
  <style type="text/css">
*{stroke-linecap:butt;stroke-linejoin:round;}
  </style>
 </defs>
 <g id="figure_1">
  <g id="patch_1">
   <path d="M 0 288 
L 288 288 
L 288 0 
L 0 0 
z
" style="fill:#ffffff;"/>
  </g>
  <g id="axes_1">
   <g id="patch_2">
    <path d="M 55.25 241.66 
L 277.2 241.66 
L 277.2 26.88 
L 55.25 26.88 
z
" style="fill:#ffffff;"/>
   </g>
   <g id="matplotlib.axis_1">
    <g id="xtick_1">
     <g id="line2d_1">
      <defs>
       <path d="M 0 0 
L 0 5 
" id="mc37c8831e6" style="stroke:#000000;stroke-width:1.3;"/>
      </defs>
      <g>
       <use style="stroke:#000000;stroke-width:1.3;" x="235.330658" xlink:href="#mc37c8831e6" y="241.66"/>
      </g>
     </g>
     <g id="text_1">
      <!-- 2 -->
      <defs>
       <path d="M 19.1875 8.296875 
L 53.609375 8.296875 
L 53.609375 0 
L 7.328125 0 
L 7.328125 8.296875 
Q 12.9375 14.109375 22.625 23.890625 
Q 32.328125 33.6875 34.8125 36.53125 
Q 39.546875 41.84375 41.421875 45.53125 
Q 43.3125 49.21875 43.3125 52.78125 
Q 43.3125 58.59375 39.234375 62.25 
Q 35.15625 65.921875 28.609375 65.921875 
Q 23.96875 65.921875 18.8125 64.3125 
Q 13.671875 62.703125 7.8125 59.421875 
L 7.8125 69.390625 
Q 13.765625 71.78125 18.9375 73 
Q 24.125 74.21875 28.421875 74.21875 
Q 39.75 74.21875 46.484375 68.546875 
Q 53.21875 62.890625 53.21875 53.421875 
Q 53.21875 48.921875 51.53125 44.890625 
Q 49.859375 40.875 45.40625 35.40625 
Q 44.1875 33.984375 37.640625 27.21875 
Q 31.109375 20.453125 19.1875 8.296875 
z
" id="DejaVuSans-50"/>
      </defs>
      <g transform="translate(232.149408 257.758438)scale(0.1 -0.1)">
       <use xlink:href="#DejaVuSans-50"/>
      </g>
     </g>
    </g>
    <g id="xtick_2">
     <g id="line2d_2">
      <g>
       <use style="stroke:#000000;stroke-width:1.3;" x="179.86551" xlink:href="#mc37c8831e6" y="241.66"/>
      </g>
     </g>
     <g id="text_2">
      <!-- 4 -->
      <defs>
       <path d="M 37.796875 64.3125 
L 12.890625 25.390625 
L 37.796875 25.390625 
z
M 35.203125 72.90625 
L 47.609375 72.90625 
L 47.609375 25.390625 
L 58.015625 25.390625 
L 58.015625 17.1875 
L 47.609375 17.1875 
L 47.609375 0 
L 37.796875 0 
L 37.796875 17.1875 
L 4.890625 17.1875 
L 4.890625 26.703125 
z
" id="DejaVuSans-52"/>
      </defs>
      <g transform="translate(176.68426 257.758438)scale(0.1 -0.1)">
       <use xlink:href="#DejaVuSans-52"/>
      </g>
     </g>
    </g>
    <g id="xtick_3">
     <g id="line2d_3">
      <g>
       <use style="stroke:#000000;stroke-width:1.3;" x="124.400363" xlink:href="#mc37c8831e6" y="241.66"/>
      </g>
     </g>
     <g id="text_3">
      <!-- 6 -->
      <defs>
       <path d="M 33.015625 40.375 
Q 26.375 40.375 22.484375 35.828125 
Q 18.609375 31.296875 18.609375 23.390625 
Q 18.609375 15.53125 22.484375 10.953125 
Q 26.375 6.390625 33.015625 6.390625 
Q 39.65625 6.390625 43.53125 10.953125 
Q 47.40625 15.53125 47.40625 23.390625 
Q 47.40625 31.296875 43.53125 35.828125 
Q 39.65625 40.375 33.015625 40.375 
z
M 52.59375 71.296875 
L 52.59375 62.3125 
Q 48.875 64.0625 45.09375 64.984375 
Q 41.3125 65.921875 37.59375 65.921875 
Q 27.828125 65.921875 22.671875 59.328125 
Q 17.53125 52.734375 16.796875 39.40625 
Q 19.671875 43.65625 24.015625 45.921875 
Q 28.375 48.1875 33.59375 48.1875 
Q 44.578125 48.1875 50.953125 41.515625 
Q 57.328125 34.859375 57.328125 23.390625 
Q 57.328125 12.15625 50.6875 5.359375 
Q 44.046875 -1.421875 33.015625 -1.421875 
Q 20.359375 -1.421875 13.671875 8.265625 
Q 6.984375 17.96875 6.984375 36.375 
Q 6.984375 53.65625 15.1875 63.9375 
Q 23.390625 74.21875 37.203125 74.21875 
Q 40.921875 74.21875 44.703125 73.484375 
Q 48.484375 72.75 52.59375 71.296875 
z
" id="DejaVuSans-54"/>
      </defs>
      <g transform="translate(121.219113 257.758438)scale(0.1 -0.1)">
       <use xlink:href="#DejaVuSans-54"/>
      </g>
     </g>
    </g>
    <g id="xtick_4">
     <g id="line2d_4">
      <g>
       <use style="stroke:#000000;stroke-width:1.3;" x="68.935215" xlink:href="#mc37c8831e6" y="241.66"/>
      </g>
     </g>
     <g id="text_4">
      <!-- 8 -->
      <defs>
       <path d="M 31.78125 34.625 
Q 24.75 34.625 20.71875 30.859375 
Q 16.703125 27.09375 16.703125 20.515625 
Q 16.703125 13.921875 20.71875 10.15625 
Q 24.75 6.390625 31.78125 6.390625 
Q 38.8125 6.390625 42.859375 10.171875 
Q 46.921875 13.96875 46.921875 20.515625 
Q 46.921875 27.09375 42.890625 30.859375 
Q 38.875 34.625 31.78125 34.625 
z
M 21.921875 38.8125 
Q 15.578125 40.375 12.03125 44.71875 
Q 8.5 49.078125 8.5 55.328125 
Q 8.5 64.0625 14.71875 69.140625 
Q 20.953125 74.21875 31.78125 74.21875 
Q 42.671875 74.21875 48.875 69.140625 
Q 55.078125 64.0625 55.078125 55.328125 
Q 55.078125 49.078125 51.53125 44.71875 
Q 48 40.375 41.703125 38.8125 
Q 48.828125 37.15625 52.796875 32.3125 
Q 56.78125 27.484375 56.78125 20.515625 
Q 56.78125 9.90625 50.3125 4.234375 
Q 43.84375 -1.421875 31.78125 -1.421875 
Q 19.734375 -1.421875 13.25 4.234375 
Q 6.78125 9.90625 6.78125 20.515625 
Q 6.78125 27.484375 10.78125 32.3125 
Q 14.796875 37.15625 21.921875 38.8125 
z
M 18.3125 54.390625 
Q 18.3125 48.734375 21.84375 45.5625 
Q 25.390625 42.390625 31.78125 42.390625 
Q 38.140625 42.390625 41.71875 45.5625 
Q 45.3125 48.734375 45.3125 54.390625 
Q 45.3125 60.0625 41.71875 63.234375 
Q 38.140625 66.40625 31.78125 66.40625 
Q 25.390625 66.40625 21.84375 63.234375 
Q 18.3125 60.0625 18.3125 54.390625 
z
" id="DejaVuSans-56"/>
      </defs>
      <g transform="translate(65.753965 257.758438)scale(0.1 -0.1)">
       <use xlink:href="#DejaVuSans-56"/>
      </g>
     </g>
    </g>
    <g id="xtick_5">
     <g id="line2d_5">
      <defs>
       <path d="M 0 0 
L 0 3 
" id="m0528c04ae7" style="stroke:#000000;stroke-width:1.3;"/>
      </defs>
      <g>
       <use style="stroke:#000000;stroke-width:1.3;" x="276.929518" xlink:href="#m0528c04ae7" y="241.66"/>
      </g>
     </g>
    </g>
    <g id="xtick_6">
     <g id="line2d_6">
      <g>
       <use style="stroke:#000000;stroke-width:1.3;" x="263.063231" xlink:href="#m0528c04ae7" y="241.66"/>
      </g>
     </g>
    </g>
    <g id="xtick_7">
     <g id="line2d_7">
      <g>
       <use style="stroke:#000000;stroke-width:1.3;" x="249.196944" xlink:href="#m0528c04ae7" y="241.66"/>
      </g>
     </g>
    </g>
    <g id="xtick_8">
     <g id="line2d_8">
      <g>
       <use style="stroke:#000000;stroke-width:1.3;" x="221.464371" xlink:href="#m0528c04ae7" y="241.66"/>
      </g>
     </g>
    </g>
    <g id="xtick_9">
     <g id="line2d_9">
      <g>
       <use style="stroke:#000000;stroke-width:1.3;" x="207.598084" xlink:href="#m0528c04ae7" y="241.66"/>
      </g>
     </g>
    </g>
    <g id="xtick_10">
     <g id="line2d_10">
      <g>
       <use style="stroke:#000000;stroke-width:1.3;" x="193.731797" xlink:href="#m0528c04ae7" y="241.66"/>
      </g>
     </g>
    </g>
    <g id="xtick_11">
     <g id="line2d_11">
      <g>
       <use style="stroke:#000000;stroke-width:1.3;" x="165.999223" xlink:href="#m0528c04ae7" y="241.66"/>
      </g>
     </g>
    </g>
    <g id="xtick_12">
     <g id="line2d_12">
      <g>
       <use style="stroke:#000000;stroke-width:1.3;" x="152.132937" xlink:href="#m0528c04ae7" y="241.66"/>
      </g>
     </g>
    </g>
    <g id="xtick_13">
     <g id="line2d_13">
      <g>
       <use style="stroke:#000000;stroke-width:1.3;" x="138.26665" xlink:href="#m0528c04ae7" y="241.66"/>
      </g>
     </g>
    </g>
    <g id="xtick_14">
     <g id="line2d_14">
      <g>
       <use style="stroke:#000000;stroke-width:1.3;" x="110.534076" xlink:href="#m0528c04ae7" y="241.66"/>
      </g>
     </g>
    </g>
    <g id="xtick_15">
     <g id="line2d_15">
      <g>
       <use style="stroke:#000000;stroke-width:1.3;" x="96.667789" xlink:href="#m0528c04ae7" y="241.66"/>
      </g>
     </g>
    </g>
    <g id="xtick_16">
     <g id="line2d_16">
      <g>
       <use style="stroke:#000000;stroke-width:1.3;" x="82.801502" xlink:href="#m0528c04ae7" y="241.66"/>
      </g>
     </g>
    </g>
    <g id="text_5">
     <!-- $f_2$ (ppm) -->
     <defs>
      <path d="M 47.796875 75.984375 
L 46.390625 68.5 
L 37.796875 68.5 
Q 32.90625 68.5 30.6875 66.578125 
Q 28.46875 64.65625 27.390625 59.515625 
L 26.421875 54.6875 
L 41.21875 54.6875 
L 39.890625 47.703125 
L 25.09375 47.703125 
L 15.828125 0 
L 6.78125 0 
L 16.109375 47.703125 
L 7.515625 47.703125 
L 8.796875 54.6875 
L 17.390625 54.6875 
L 18.109375 58.5 
Q 19.96875 68.171875 24.625 72.078125 
Q 29.296875 75.984375 39.3125 75.984375 
z
" id="DejaVuSans-Oblique-102"/>
      <path id="DejaVuSans-32"/>
      <path d="M 31 75.875 
Q 24.46875 64.65625 21.28125 53.65625 
Q 18.109375 42.671875 18.109375 31.390625 
Q 18.109375 20.125 21.3125 9.0625 
Q 24.515625 -2 31 -13.1875 
L 23.1875 -13.1875 
Q 15.875 -1.703125 12.234375 9.375 
Q 8.59375 20.453125 8.59375 31.390625 
Q 8.59375 42.28125 12.203125 53.3125 
Q 15.828125 64.359375 23.1875 75.875 
z
" id="DejaVuSans-40"/>
      <path d="M 18.109375 8.203125 
L 18.109375 -20.796875 
L 9.078125 -20.796875 
L 9.078125 54.6875 
L 18.109375 54.6875 
L 18.109375 46.390625 
Q 20.953125 51.265625 25.265625 53.625 
Q 29.59375 56 35.59375 56 
Q 45.5625 56 51.78125 48.09375 
Q 58.015625 40.1875 58.015625 27.296875 
Q 58.015625 14.40625 51.78125 6.484375 
Q 45.5625 -1.421875 35.59375 -1.421875 
Q 29.59375 -1.421875 25.265625 0.953125 
Q 20.953125 3.328125 18.109375 8.203125 
z
M 48.6875 27.296875 
Q 48.6875 37.203125 44.609375 42.84375 
Q 40.53125 48.484375 33.40625 48.484375 
Q 26.265625 48.484375 22.1875 42.84375 
Q 18.109375 37.203125 18.109375 27.296875 
Q 18.109375 17.390625 22.1875 11.75 
Q 26.265625 6.109375 33.40625 6.109375 
Q 40.53125 6.109375 44.609375 11.75 
Q 48.6875 17.390625 48.6875 27.296875 
z
" id="DejaVuSans-112"/>
      <path d="M 52 44.1875 
Q 55.375 50.25 60.0625 53.125 
Q 64.75 56 71.09375 56 
Q 79.640625 56 84.28125 50.015625 
Q 88.921875 44.046875 88.921875 33.015625 
L 88.921875 0 
L 79.890625 0 
L 79.890625 32.71875 
Q 79.890625 40.578125 77.09375 44.375 
Q 74.3125 48.1875 68.609375 48.1875 
Q 61.625 48.1875 57.5625 43.546875 
Q 53.515625 38.921875 53.515625 30.90625 
L 53.515625 0 
L 44.484375 0 
L 44.484375 32.71875 
Q 44.484375 40.625 41.703125 44.40625 
Q 38.921875 48.1875 33.109375 48.1875 
Q 26.21875 48.1875 22.15625 43.53125 
Q 18.109375 38.875 18.109375 30.90625 
L 18.109375 0 
L 9.078125 0 
L 9.078125 54.6875 
L 18.109375 54.6875 
L 18.109375 46.1875 
Q 21.1875 51.21875 25.484375 53.609375 
Q 29.78125 56 35.6875 56 
Q 41.65625 56 45.828125 52.96875 
Q 50 49.953125 52 44.1875 
z
" id="DejaVuSans-109"/>
      <path d="M 8.015625 75.875 
L 15.828125 75.875 
Q 23.140625 64.359375 26.78125 53.3125 
Q 30.421875 42.28125 30.421875 31.390625 
Q 30.421875 20.453125 26.78125 9.375 
Q 23.140625 -1.703125 15.828125 -13.1875 
L 8.015625 -13.1875 
Q 14.5 -2 17.703125 9.0625 
Q 20.90625 20.125 20.90625 31.390625 
Q 20.90625 42.671875 17.703125 53.65625 
Q 14.5 64.65625 8.015625 75.875 
z
" id="DejaVuSans-41"/>
     </defs>
     <g transform="translate(145.375 271.438125)scale(0.1 -0.1)">
      <use transform="translate(0 0.015625)" xlink:href="#DejaVuSans-Oblique-102"/>
      <use transform="translate(35.205078 -16.390625)scale(0.7)" xlink:href="#DejaVuSans-50"/>
      <use transform="translate(82.475586 0.015625)" xlink:href="#DejaVuSans-32"/>
      <use transform="translate(114.262695 0.015625)" xlink:href="#DejaVuSans-40"/>
      <use transform="translate(153.276367 0.015625)" xlink:href="#DejaVuSans-112"/>
      <use transform="translate(216.75293 0.015625)" xlink:href="#DejaVuSans-112"/>
      <use transform="translate(280.229492 0.015625)" xlink:href="#DejaVuSans-109"/>
      <use transform="translate(377.641602 0.015625)" xlink:href="#DejaVuSans-41"/>
     </g>
    </g>
   </g>
   <g id="matplotlib.axis_2">
    <g id="ytick_1">
     <g id="line2d_17">
      <defs>
       <path d="M 0 0 
L -5 0 
" id="mf45d2dd27b" style="stroke:#000000;stroke-width:1.3;"/>
      </defs>
      <g>
       <use style="stroke:#000000;stroke-width:1.3;" x="55.25" xlink:href="#mf45d2dd27b" y="43.588145"/>
      </g>
     </g>
     <g id="text_6">
      <!-- 20 -->
      <defs>
       <path d="M 31.78125 66.40625 
Q 24.171875 66.40625 20.328125 58.90625 
Q 16.5 51.421875 16.5 36.375 
Q 16.5 21.390625 20.328125 13.890625 
Q 24.171875 6.390625 31.78125 6.390625 
Q 39.453125 6.390625 43.28125 13.890625 
Q 47.125 21.390625 47.125 36.375 
Q 47.125 51.421875 43.28125 58.90625 
Q 39.453125 66.40625 31.78125 66.40625 
z
M 31.78125 74.21875 
Q 44.046875 74.21875 50.515625 64.515625 
Q 56.984375 54.828125 56.984375 36.375 
Q 56.984375 17.96875 50.515625 8.265625 
Q 44.046875 -1.421875 31.78125 -1.421875 
Q 19.53125 -1.421875 13.0625 8.265625 
Q 6.59375 17.96875 6.59375 36.375 
Q 6.59375 54.828125 13.0625 64.515625 
Q 19.53125 74.21875 31.78125 74.21875 
z
" id="DejaVuSans-48"/>
      </defs>
      <g transform="translate(34.025 47.387364)scale(0.1 -0.1)">
       <use xlink:href="#DejaVuSans-50"/>
       <use x="63.623047" xlink:href="#DejaVuSans-48"/>
      </g>
     </g>
    </g>
    <g id="ytick_2">
     <g id="line2d_18">
      <g>
       <use style="stroke:#000000;stroke-width:1.3;" x="55.25" xlink:href="#mf45d2dd27b" y="76.381817"/>
      </g>
     </g>
     <g id="text_7">
      <!-- 40 -->
      <g transform="translate(34.025 80.181036)scale(0.1 -0.1)">
       <use xlink:href="#DejaVuSans-52"/>
       <use x="63.623047" xlink:href="#DejaVuSans-48"/>
      </g>
     </g>
    </g>
    <g id="ytick_3">
     <g id="line2d_19">
      <g>
       <use style="stroke:#000000;stroke-width:1.3;" x="55.25" xlink:href="#mf45d2dd27b" y="109.175488"/>
      </g>
     </g>
     <g id="text_8">
      <!-- 60 -->
      <g transform="translate(34.025 112.974707)scale(0.1 -0.1)">
       <use xlink:href="#DejaVuSans-54"/>
       <use x="63.623047" xlink:href="#DejaVuSans-48"/>
      </g>
     </g>
    </g>
    <g id="ytick_4">
     <g id="line2d_20">
      <g>
       <use style="stroke:#000000;stroke-width:1.3;" x="55.25" xlink:href="#mf45d2dd27b" y="141.969159"/>
      </g>
     </g>
     <g id="text_9">
      <!-- 80 -->
      <g transform="translate(34.025 145.768378)scale(0.1 -0.1)">
       <use xlink:href="#DejaVuSans-56"/>
       <use x="63.623047" xlink:href="#DejaVuSans-48"/>
      </g>
     </g>
    </g>
    <g id="ytick_5">
     <g id="line2d_21">
      <g>
       <use style="stroke:#000000;stroke-width:1.3;" x="55.25" xlink:href="#mf45d2dd27b" y="174.762831"/>
      </g>
     </g>
     <g id="text_10">
      <!-- 100 -->
      <defs>
       <path d="M 12.40625 8.296875 
L 28.515625 8.296875 
L 28.515625 63.921875 
L 10.984375 60.40625 
L 10.984375 69.390625 
L 28.421875 72.90625 
L 38.28125 72.90625 
L 38.28125 8.296875 
L 54.390625 8.296875 
L 54.390625 0 
L 12.40625 0 
z
" id="DejaVuSans-49"/>
      </defs>
      <g transform="translate(27.6625 178.56205)scale(0.1 -0.1)">
       <use xlink:href="#DejaVuSans-49"/>
       <use x="63.623047" xlink:href="#DejaVuSans-48"/>
       <use x="127.246094" xlink:href="#DejaVuSans-48"/>
      </g>
     </g>
    </g>
    <g id="ytick_6">
     <g id="line2d_22">
      <g>
       <use style="stroke:#000000;stroke-width:1.3;" x="55.25" xlink:href="#mf45d2dd27b" y="207.556502"/>
      </g>
     </g>
     <g id="text_11">
      <!-- 120 -->
      <g transform="translate(27.6625 211.355721)scale(0.1 -0.1)">
       <use xlink:href="#DejaVuSans-49"/>
       <use x="63.623047" xlink:href="#DejaVuSans-50"/>
       <use x="127.246094" xlink:href="#DejaVuSans-48"/>
      </g>
     </g>
    </g>
    <g id="ytick_7">
     <g id="line2d_23">
      <g>
       <use style="stroke:#000000;stroke-width:1.3;" x="55.25" xlink:href="#mf45d2dd27b" y="240.350173"/>
      </g>
     </g>
     <g id="text_12">
      <!-- 140 -->
      <g transform="translate(27.6625 244.149392)scale(0.1 -0.1)">
       <use xlink:href="#DejaVuSans-49"/>
       <use x="63.623047" xlink:href="#DejaVuSans-52"/>
       <use x="127.246094" xlink:href="#DejaVuSans-48"/>
      </g>
     </g>
    </g>
    <g id="ytick_8">
     <g id="line2d_24">
      <defs>
       <path d="M 0 0 
L -3 0 
" id="maebd637602" style="stroke:#000000;stroke-width:1.3;"/>
      </defs>
      <g>
       <use style="stroke:#000000;stroke-width:1.3;" x="55.25" xlink:href="#maebd637602" y="27.19131"/>
      </g>
     </g>
    </g>
    <g id="ytick_9">
     <g id="line2d_25">
      <g>
       <use style="stroke:#000000;stroke-width:1.3;" x="55.25" xlink:href="#maebd637602" y="35.389728"/>
      </g>
     </g>
    </g>
    <g id="ytick_10">
     <g id="line2d_26">
      <g>
       <use style="stroke:#000000;stroke-width:1.3;" x="55.25" xlink:href="#maebd637602" y="51.786563"/>
      </g>
     </g>
    </g>
    <g id="ytick_11">
     <g id="line2d_27">
      <g>
       <use style="stroke:#000000;stroke-width:1.3;" x="55.25" xlink:href="#maebd637602" y="59.984981"/>
      </g>
     </g>
    </g>
    <g id="ytick_12">
     <g id="line2d_28">
      <g>
       <use style="stroke:#000000;stroke-width:1.3;" x="55.25" xlink:href="#maebd637602" y="68.183399"/>
      </g>
     </g>
    </g>
    <g id="ytick_13">
     <g id="line2d_29">
      <g>
       <use style="stroke:#000000;stroke-width:1.3;" x="55.25" xlink:href="#maebd637602" y="84.580235"/>
      </g>
     </g>
    </g>
    <g id="ytick_14">
     <g id="line2d_30">
      <g>
       <use style="stroke:#000000;stroke-width:1.3;" x="55.25" xlink:href="#maebd637602" y="92.778652"/>
      </g>
     </g>
    </g>
    <g id="ytick_15">
     <g id="line2d_31">
      <g>
       <use style="stroke:#000000;stroke-width:1.3;" x="55.25" xlink:href="#maebd637602" y="100.97707"/>
      </g>
     </g>
    </g>
    <g id="ytick_16">
     <g id="line2d_32">
      <g>
       <use style="stroke:#000000;stroke-width:1.3;" x="55.25" xlink:href="#maebd637602" y="117.373906"/>
      </g>
     </g>
    </g>
    <g id="ytick_17">
     <g id="line2d_33">
      <g>
       <use style="stroke:#000000;stroke-width:1.3;" x="55.25" xlink:href="#maebd637602" y="125.572324"/>
      </g>
     </g>
    </g>
    <g id="ytick_18">
     <g id="line2d_34">
      <g>
       <use style="stroke:#000000;stroke-width:1.3;" x="55.25" xlink:href="#maebd637602" y="133.770742"/>
      </g>
     </g>
    </g>
    <g id="ytick_19">
     <g id="line2d_35">
      <g>
       <use style="stroke:#000000;stroke-width:1.3;" x="55.25" xlink:href="#maebd637602" y="150.167577"/>
      </g>
     </g>
    </g>
    <g id="ytick_20">
     <g id="line2d_36">
      <g>
       <use style="stroke:#000000;stroke-width:1.3;" x="55.25" xlink:href="#maebd637602" y="158.365995"/>
      </g>
     </g>
    </g>
    <g id="ytick_21">
     <g id="line2d_37">
      <g>
       <use style="stroke:#000000;stroke-width:1.3;" x="55.25" xlink:href="#maebd637602" y="166.564413"/>
      </g>
     </g>
    </g>
    <g id="ytick_22">
     <g id="line2d_38">
      <g>
       <use style="stroke:#000000;stroke-width:1.3;" x="55.25" xlink:href="#maebd637602" y="182.961249"/>
      </g>
     </g>
    </g>
    <g id="ytick_23">
     <g id="line2d_39">
      <g>
       <use style="stroke:#000000;stroke-width:1.3;" x="55.25" xlink:href="#maebd637602" y="191.159666"/>
      </g>
     </g>
    </g>
    <g id="ytick_24">
     <g id="line2d_40">
      <g>
       <use style="stroke:#000000;stroke-width:1.3;" x="55.25" xlink:href="#maebd637602" y="199.358084"/>
      </g>
     </g>
    </g>
    <g id="ytick_25">
     <g id="line2d_41">
      <g>
       <use style="stroke:#000000;stroke-width:1.3;" x="55.25" xlink:href="#maebd637602" y="215.75492"/>
      </g>
     </g>
    </g>
    <g id="ytick_26">
     <g id="line2d_42">
      <g>
       <use style="stroke:#000000;stroke-width:1.3;" x="55.25" xlink:href="#maebd637602" y="223.953338"/>
      </g>
     </g>
    </g>
    <g id="ytick_27">
     <g id="line2d_43">
      <g>
       <use style="stroke:#000000;stroke-width:1.3;" x="55.25" xlink:href="#maebd637602" y="232.151756"/>
      </g>
     </g>
    </g>
    <g id="text_13">
     <!-- $f_1$ (ppm) -->
     <g transform="translate(21.5625 155.12)rotate(-90)scale(0.1 -0.1)">
      <use transform="translate(0 0.015625)" xlink:href="#DejaVuSans-Oblique-102"/>
      <use transform="translate(35.205078 -16.390625)scale(0.7)" xlink:href="#DejaVuSans-49"/>
      <use transform="translate(82.475586 0.015625)" xlink:href="#DejaVuSans-32"/>
      <use transform="translate(114.262695 0.015625)" xlink:href="#DejaVuSans-40"/>
      <use transform="translate(153.276367 0.015625)" xlink:href="#DejaVuSans-112"/>
      <use transform="translate(216.75293 0.015625)" xlink:href="#DejaVuSans-112"/>
      <use transform="translate(280.229492 0.015625)" xlink:href="#DejaVuSans-109"/>
      <use transform="translate(377.641602 0.015625)" xlink:href="#DejaVuSans-41"/>
     </g>
    </g>
   </g>
   <g id="LineCollection_1"/>
   <g id="LineCollection_2"/>
   <g id="LineCollection_3"/>
   <g id="LineCollection_4"/>
   <g id="LineCollection_5"/>
   <g id="LineCollection_6">
    <path clip-path="url(#pb0c4e20b57)" d="M 64.464042 227.064438 
L 64.459089 227.058146 
L 64.464042 226.825741 
L 64.466616 226.792658 
L 64.735043 226.701434 
L 64.857634 226.792658 
L 64.845004 227.058146 
L 64.735043 227.136459 
L 64.464042 227.064438 
" style="fill:none;stroke:#ff69b4;stroke-width:0.7;"/>
    <path clip-path="url(#pb0c4e20b57)" d="M 76.930098 214.361897 
L 76.910769 214.31471 
L 76.930098 214.278085 
L 77.060304 214.31471 
L 76.930098 214.361897 
" style="fill:none;stroke:#ff69b4;stroke-width:0.7;"/>
   </g>
   <g id="LineCollection_7">
    <path clip-path="url(#pb0c4e20b57)" d="M 137.36337 232.370727 
L 137.356977 232.367911 
L 137.36337 232.30539 
L 137.634371 232.114291 
L 137.704759 232.367911 
L 137.634371 232.401945 
L 137.36337 232.370727 
" style="fill:none;stroke:#ff69b4;stroke-width:0.7;"/>
    <path clip-path="url(#pb0c4e20b57)" d="M 75.033089 230.806439 
L 75.006084 230.774981 
L 74.984264 230.509493 
L 75.033089 230.43765 
L 75.30409 230.285457 
L 75.575092 230.333459 
L 75.753489 230.509493 
L 75.726106 230.774981 
L 75.575092 230.885301 
L 75.30409 230.926936 
L 75.033089 230.806439 
" style="fill:none;stroke:#ff69b4;stroke-width:0.7;"/>
    <path clip-path="url(#pb0c4e20b57)" d="M 64.464042 227.355473 
L 64.411837 227.323634 
L 64.219286 227.058146 
L 64.229331 226.792658 
L 64.409371 226.527169 
L 64.464042 226.483106 
L 64.735043 226.43154 
L 64.979844 226.527169 
L 65.006044 226.544658 
L 65.122082 226.792658 
L 65.110048 227.058146 
L 65.006044 227.239176 
L 64.878349 227.323634 
L 64.735043 227.381014 
L 64.464042 227.355473 
" style="fill:none;stroke:#ff69b4;stroke-width:0.7;"/>
    <path clip-path="url(#pb0c4e20b57)" d="M 76.388095 226.550908 
L 76.348656 226.527169 
L 76.185812 226.261681 
L 76.262972 225.996193 
L 76.388095 225.892508 
L 76.659096 225.838152 
L 76.907621 225.996193 
L 76.930098 226.042561 
L 76.989753 226.261681 
L 76.930098 226.411263 
L 76.831304 226.527169 
L 76.659096 226.601312 
L 76.388095 226.550908 
" style="fill:none;stroke:#ff69b4;stroke-width:0.7;"/>
    <path clip-path="url(#pb0c4e20b57)" d="M 76.930098 214.739697 
L 76.738333 214.580198 
L 76.659096 214.368405 
L 76.646736 214.31471 
L 76.659096 214.244677 
L 76.729884 214.049221 
L 76.930098 213.904368 
L 77.201099 213.93479 
L 77.364749 214.049221 
L 77.4721 214.26496 
L 77.487033 214.31471 
L 77.4721 214.375756 
L 77.394028 214.580198 
L 77.201099 214.714645 
L 76.930098 214.739697 
" style="fill:none;stroke:#ff69b4;stroke-width:0.7;"/>
    <path clip-path="url(#pb0c4e20b57)" d="M 266.08895 33.838671 
L 265.968917 33.782695 
L 266.08895 33.610023 
L 266.147015 33.782695 
L 266.08895 33.838671 
" style="fill:none;stroke:#ff69b4;stroke-width:0.7;"/>
   </g>
   <g id="LineCollection_8">
    <path clip-path="url(#pb0c4e20b57)" d="M 137.36337 232.679183 
L 137.184148 232.633399 
L 137.092369 232.597085 
L 136.873242 232.367911 
L 136.863991 232.102423 
L 137.092369 231.851828 
L 137.148117 231.836934 
L 137.36337 231.799189 
L 137.634371 231.813931 
L 137.708094 231.836934 
L 137.905372 231.918283 
L 138.089298 232.102423 
L 138.134514 232.367911 
L 137.927339 232.633399 
L 137.905372 232.645846 
L 137.634371 232.703165 
L 137.36337 232.679183 
" style="fill:none;stroke:#ff69b4;stroke-width:0.7;"/>
    <path clip-path="url(#pb0c4e20b57)" d="M 75.033089 231.049645 
L 75.018158 231.04047 
L 74.79495 230.774981 
L 74.77238 230.509493 
L 74.919752 230.244005 
L 75.033089 230.157058 
L 75.30409 230.082551 
L 75.575092 230.101646 
L 75.846093 230.233375 
L 75.855677 230.244005 
L 75.973447 230.509493 
L 75.964191 230.774981 
L 75.846093 230.983848 
L 75.754369 231.04047 
L 75.575092 231.099157 
L 75.30409 231.114441 
L 75.033089 231.049645 
" style="fill:none;stroke:#ff69b4;stroke-width:0.7;"/>
    <path clip-path="url(#pb0c4e20b57)" d="M 64.19304 227.337711 
L 64.181707 227.323634 
L 64.086734 227.058146 
L 64.0969 226.792658 
L 64.19304 226.532976 
L 64.196696 226.527169 
L 64.464042 226.311693 
L 64.735043 226.277682 
L 65.006044 226.343355 
L 65.166003 226.527169 
L 65.245096 226.792658 
L 65.231651 227.058146 
L 65.108189 227.323634 
L 65.006044 227.418167 
L 64.735043 227.509148 
L 64.464042 227.497641 
L 64.19304 227.337711 
" style="fill:none;stroke:#ff69b4;stroke-width:0.7;"/>
    <path clip-path="url(#pb0c4e20b57)" d="M 76.117094 226.582887 
L 76.059708 226.527169 
L 75.953693 226.261681 
L 75.987325 225.996193 
L 76.117094 225.832582 
L 76.255302 225.730705 
L 76.388095 225.669563 
L 76.659096 225.636687 
L 76.870266 225.730705 
L 76.930098 225.763857 
L 77.118922 225.996193 
L 77.168117 226.261681 
L 77.097731 226.527169 
L 76.930098 226.68342 
L 76.659096 226.765437 
L 76.388095 226.727416 
L 76.117094 226.582887 
" style="fill:none;stroke:#ff69b4;stroke-width:0.7;"/>
    <path clip-path="url(#pb0c4e20b57)" d="M 76.930098 214.896152 
L 76.830801 214.845686 
L 76.659096 214.714079 
L 76.57953 214.580198 
L 76.529269 214.31471 
L 76.559697 214.049221 
L 76.659096 213.855814 
L 76.783927 213.783733 
L 76.930098 213.721003 
L 77.201099 213.751785 
L 77.267171 213.783733 
L 77.4721 213.903974 
L 77.577184 214.049221 
L 77.641216 214.31471 
L 77.594303 214.580198 
L 77.4721 214.742277 
L 77.292333 214.845686 
L 77.201099 214.881191 
L 76.930098 214.896152 
" style="fill:none;stroke:#ff69b4;stroke-width:0.7;"/>
    <path clip-path="url(#pb0c4e20b57)" d="M 142.783394 213.420099 
L 142.541778 213.252756 
L 142.512393 213.076454 
L 142.501839 212.987268 
L 142.512393 212.97004 
L 142.783394 212.723143 
L 142.79267 212.72178 
L 143.054396 212.696464 
L 143.325397 212.718088 
L 143.335086 212.72178 
L 143.596398 212.904311 
L 143.652314 212.987268 
L 143.616321 213.252756 
L 143.596398 213.275034 
L 143.325397 213.429767 
L 143.054396 213.457534 
L 142.783394 213.420099 
" style="fill:none;stroke:#ff69b4;stroke-width:0.7;"/>
    <path clip-path="url(#pb0c4e20b57)" d="M 263.107937 34.060075 
L 263.101652 34.048183 
L 263.107937 33.973205 
L 263.128881 33.782695 
L 263.378938 33.546784 
L 263.649939 33.590785 
L 263.798542 33.782695 
L 263.787978 34.048183 
L 263.649939 34.214298 
L 263.378938 34.296122 
L 263.107937 34.060075 
" style="fill:none;stroke:#ff69b4;stroke-width:0.7;"/>
    <path clip-path="url(#pb0c4e20b57)" d="M 265.817949 34.121358 
L 265.744193 34.048183 
L 265.64949 33.782695 
L 265.706674 33.517206 
L 265.817949 33.383778 
L 266.08895 33.286068 
L 266.359951 33.364976 
L 266.516449 33.517206 
L 266.497897 33.782695 
L 266.359951 33.963634 
L 266.272148 34.048183 
L 266.08895 34.152137 
L 265.817949 34.121358 
" style="fill:none;stroke:#ff69b4;stroke-width:0.7;"/>
   </g>
   <g id="LineCollection_9">
    <path clip-path="url(#pb0c4e20b57)" d="M 137.092369 232.778135 
L 136.835183 232.633399 
L 136.821368 232.618609 
L 136.653203 232.367911 
L 136.638833 232.102423 
L 136.776037 231.836934 
L 136.821368 231.794662 
L 137.092369 231.653895 
L 137.36337 231.631204 
L 137.634371 231.652306 
L 137.905372 231.724424 
L 138.086628 231.836934 
L 138.176374 231.927525 
L 138.321804 232.102423 
L 138.363724 232.367911 
L 138.233227 232.633399 
L 138.176374 232.679732 
L 137.905372 232.818161 
L 137.634371 232.852376 
L 137.36337 232.83216 
L 137.092369 232.778135 
" style="fill:none;stroke:#ff69b4;stroke-width:0.7;"/>
    <path clip-path="url(#pb0c4e20b57)" d="M 75.033089 231.175926 
L 74.812656 231.04047 
L 74.762088 230.975954 
L 74.641252 230.774981 
L 74.620003 230.509493 
L 74.717786 230.244005 
L 74.762088 230.190517 
L 75.033089 230.004077 
L 75.161573 229.978517 
L 75.30409 229.944827 
L 75.575092 229.959913 
L 75.635414 229.978517 
L 75.846093 230.044468 
L 76.025993 230.244005 
L 76.097004 230.509493 
L 76.090978 230.774981 
L 75.990656 231.04047 
L 75.846093 231.163704 
L 75.575092 231.218067 
L 75.30409 231.222094 
L 75.033089 231.175926 
" style="fill:none;stroke:#ff69b4;stroke-width:0.7;"/>
    <path clip-path="url(#pb0c4e20b57)" d="M 64.464042 227.593479 
L 64.450173 227.589122 
L 64.19304 227.490536 
L 64.058668 227.323634 
L 64.001942 227.058146 
L 64.013526 226.792658 
L 64.083407 226.527169 
L 64.19304 226.34381 
L 64.311448 226.261681 
L 64.464042 226.165318 
L 64.735043 226.135184 
L 65.006044 226.1908 
L 65.091076 226.261681 
L 65.277045 226.518472 
L 65.281644 226.527169 
L 65.352212 226.792658 
L 65.333055 227.058146 
L 65.277045 227.183734 
L 65.2215 227.323634 
L 65.006044 227.523033 
L 64.759947 227.589122 
L 64.735043 227.59648 
L 64.464042 227.593479 
" style="fill:none;stroke:#ff69b4;stroke-width:0.7;"/>
    <path clip-path="url(#pb0c4e20b57)" d="M 76.388095 226.849656 
L 76.197463 226.792658 
L 76.117094 226.759484 
L 75.877823 226.527169 
L 75.846093 226.431244 
L 75.790337 226.261681 
L 75.793613 225.996193 
L 75.846093 225.859259 
L 75.925622 225.730705 
L 76.117094 225.601711 
L 76.388095 225.520579 
L 76.659096 225.50275 
L 76.930098 225.595445 
L 77.105145 225.730705 
L 77.201099 225.870742 
L 77.272586 225.996193 
L 77.317279 226.261681 
L 77.264115 226.527169 
L 77.201099 226.617462 
L 77.002607 226.792658 
L 76.930098 226.825948 
L 76.659096 226.881259 
L 76.388095 226.849656 
" style="fill:none;stroke:#ff69b4;stroke-width:0.7;"/>
    <path clip-path="url(#pb0c4e20b57)" d="M 76.659096 214.86715 
L 76.638013 214.845686 
L 76.48885 214.580198 
L 76.450958 214.31471 
L 76.465878 214.049221 
L 76.563026 213.783733 
L 76.659096 213.665303 
L 76.930098 213.585331 
L 77.201099 213.614201 
L 77.4721 213.730521 
L 77.526204 213.783733 
L 77.69797 214.049221 
L 77.743101 214.308605 
L 77.744562 214.31471 
L 77.743101 214.324323 
L 77.714881 214.580198 
L 77.547295 214.845686 
L 77.4721 214.901304 
L 77.201099 214.989386 
L 76.930098 214.997326 
L 76.659096 214.86715 
" style="fill:none;stroke:#ff69b4;stroke-width:0.7;"/>
    <path clip-path="url(#pb0c4e20b57)" d="M 142.783394 213.608528 
L 142.551103 213.518245 
L 142.512393 213.494489 
L 142.309949 213.252756 
L 142.286585 212.987268 
L 142.429551 212.72178 
L 142.512393 212.651125 
L 142.783394 212.535114 
L 143.054396 212.517283 
L 143.325397 212.532202 
L 143.596398 212.615575 
L 143.74354 212.72178 
L 143.867399 212.950107 
L 143.886059 212.987268 
L 143.867399 213.102033 
L 143.848039 213.252756 
L 143.616959 213.518245 
L 143.596398 213.531255 
L 143.325397 213.617403 
L 143.054396 213.632542 
L 142.783394 213.608528 
" style="fill:none;stroke:#ff69b4;stroke-width:0.7;"/>
    <path clip-path="url(#pb0c4e20b57)" d="M 263.107937 34.391684 
L 263.021181 34.313671 
L 262.908458 34.048183 
L 262.941075 33.782695 
L 263.107937 33.521613 
L 263.112642 33.517206 
L 263.378938 33.362821 
L 263.649939 33.371084 
L 263.871681 33.517206 
L 263.92094 33.590032 
L 264.020693 33.782695 
L 264.008065 34.048183 
L 263.92094 34.202113 
L 263.836704 34.313671 
L 263.649939 34.437331 
L 263.378938 34.486614 
L 263.107937 34.391684 
" style="fill:none;stroke:#ff69b4;stroke-width:0.7;"/>
    <path clip-path="url(#pb0c4e20b57)" d="M 265.817949 34.310583 
L 265.553466 34.048183 
L 265.546947 34.017194 
L 265.506492 33.782695 
L 265.546947 33.599619 
L 265.563605 33.517206 
L 265.768791 33.251718 
L 265.817949 33.216401 
L 266.08895 33.136734 
L 266.359951 33.150756 
L 266.630952 33.243635 
L 266.64453 33.251718 
L 266.792685 33.517206 
L 266.724806 33.782695 
L 266.630952 33.900191 
L 266.525336 34.048183 
L 266.359951 34.180706 
L 266.08895 34.309511 
L 265.817949 34.310583 
" style="fill:none;stroke:#ff69b4;stroke-width:0.7;"/>
   </g>
   <g id="LineCollection_10">
    <path clip-path="url(#pb0c4e20b57)" d="M 137.36337 232.944485 
L 137.132238 232.898888 
L 137.092369 232.892092 
L 136.821368 232.780596 
L 136.637376 232.633399 
L 136.550366 232.473887 
L 136.483948 232.367911 
L 136.458223 232.102423 
L 136.550366 231.878848 
L 136.566323 231.836934 
L 136.821368 231.599095 
L 136.897231 231.571446 
L 137.092369 231.505049 
L 137.36337 231.496433 
L 137.634371 231.531021 
L 137.766388 231.571446 
L 137.905372 231.603276 
L 138.176374 231.741552 
L 138.307538 231.836934 
L 138.447375 232.025841 
L 138.495004 232.102423 
L 138.53468 232.367911 
L 138.447375 232.620711 
L 138.442533 232.633399 
L 138.176374 232.850307 
L 138.043775 232.898888 
L 137.905372 232.942321 
L 137.634371 232.966182 
L 137.36337 232.944485 
" style="fill:none;stroke:#ff69b4;stroke-width:0.7;"/>
    <path clip-path="url(#pb0c4e20b57)" d="M 74.762088 231.129375 
L 74.661426 231.04047 
L 74.536159 230.774981 
L 74.517835 230.509493 
L 74.576716 230.244005 
L 74.762088 230.020197 
L 74.8288 229.978517 
L 75.033089 229.867427 
L 75.30409 229.823635 
L 75.575092 229.835844 
L 75.846093 229.902225 
L 75.954566 229.978517 
L 76.117094 230.186424 
L 76.148973 230.244005 
L 76.215624 230.509493 
L 76.210481 230.774981 
L 76.120664 231.04047 
L 76.117094 231.045721 
L 75.846093 231.273613 
L 75.575092 231.29734 
L 75.30409 231.293863 
L 75.033089 231.260114 
L 74.762088 231.129375 
" style="fill:none;stroke:#ff69b4;stroke-width:0.7;"/>
    <path clip-path="url(#pb0c4e20b57)" d="M 64.19304 227.593334 
L 64.186333 227.589122 
L 63.976642 227.323634 
L 63.945415 227.058146 
L 63.957944 226.792658 
L 64.008384 226.527169 
L 64.144765 226.261681 
L 64.19304 226.194228 
L 64.464042 226.05108 
L 64.735043 226.035266 
L 65.006044 226.065737 
L 65.241107 226.261681 
L 65.277045 226.311306 
L 65.391194 226.527169 
L 65.434305 226.792658 
L 65.417908 227.058146 
L 65.310929 227.323634 
L 65.277045 227.363646 
L 65.015622 227.589122 
L 65.006044 227.594394 
L 64.735043 227.67339 
L 64.464042 227.676963 
L 64.19304 227.593334 
" style="fill:none;stroke:#ff69b4;stroke-width:0.7;"/>
    <path clip-path="url(#pb0c4e20b57)" d="M 76.117094 226.878181 
L 75.958675 226.792658 
L 75.846093 226.684141 
L 75.739998 226.527169 
L 75.669797 226.261681 
L 75.655575 225.996193 
L 75.705364 225.730705 
L 75.846093 225.551641 
L 76.055802 225.465216 
L 76.117094 225.444409 
L 76.388095 225.389303 
L 76.659096 225.377203 
L 76.87235 225.465216 
L 76.930098 225.482885 
L 77.201099 225.660749 
L 77.267005 225.730705 
L 77.393731 225.996193 
L 77.424462 226.261681 
L 77.397582 226.527169 
L 77.222912 226.792658 
L 77.201099 226.808355 
L 76.930098 226.925427 
L 76.659096 226.959888 
L 76.388095 226.934938 
L 76.117094 226.878181 
" style="fill:none;stroke:#ff69b4;stroke-width:0.7;"/>
    <path clip-path="url(#pb0c4e20b57)" d="M 76.659096 214.971241 
L 76.535765 214.845686 
L 76.428396 214.580198 
L 76.39875 214.31471 
L 76.403332 214.049221 
L 76.457188 213.783733 
L 76.659096 213.534831 
L 76.748485 213.518245 
L 76.930098 213.467245 
L 77.160005 213.518245 
L 77.201099 213.522479 
L 77.4721 213.603725 
L 77.655124 213.783733 
L 77.743101 213.945215 
L 77.800203 214.049221 
L 77.855335 214.31471 
L 77.829562 214.580198 
L 77.743101 214.747583 
L 77.689149 214.845686 
L 77.4721 215.006228 
L 77.201099 215.061515 
L 76.930098 215.064775 
L 76.659096 214.971241 
" style="fill:none;stroke:#ff69b4;stroke-width:0.7;"/>
    <path clip-path="url(#pb0c4e20b57)" d="M 142.512393 213.645366 
L 142.316749 213.518245 
L 142.241392 213.416954 
L 142.141824 213.252756 
L 142.118837 212.987268 
L 142.241332 212.72178 
L 142.241392 212.721717 
L 142.512393 212.490607 
L 142.611671 212.456292 
L 142.783394 212.393633 
L 143.054396 212.377763 
L 143.325397 212.39198 
L 143.568374 212.456292 
L 143.596398 212.463105 
L 143.867399 212.622849 
L 143.978224 212.72178 
L 144.081599 212.987268 
L 144.041495 213.252756 
L 143.867399 213.48609 
L 143.84046 213.518245 
L 143.596398 213.67268 
L 143.325397 213.730913 
L 143.054396 213.740993 
L 142.783394 213.721545 
L 142.512393 213.645366 
" style="fill:none;stroke:#ff69b4;stroke-width:0.7;"/>
    <path clip-path="url(#pb0c4e20b57)" d="M 263.378938 34.623842 
L 263.186843 34.579159 
L 263.107937 34.561444 
L 262.836935 34.321961 
L 262.832014 34.313671 
L 262.773844 34.048183 
L 262.818 33.782695 
L 262.836935 33.742592 
L 262.958419 33.517206 
L 263.107937 33.371283 
L 263.361783 33.251718 
L 263.378938 33.243154 
L 263.649939 33.234598 
L 263.692181 33.251718 
L 263.92094 33.361583 
L 264.082983 33.517206 
L 264.17448 33.782695 
L 264.159167 34.048183 
L 264.039554 34.313671 
L 263.92094 34.433245 
L 263.649939 34.5708 
L 263.59634 34.579159 
L 263.378938 34.623842 
" style="fill:none;stroke:#ff69b4;stroke-width:0.7;"/>
    <path clip-path="url(#pb0c4e20b57)" d="M 265.817949 34.47098 
L 265.547417 34.313671 
L 265.546947 34.313198 
L 265.418211 34.048183 
L 265.402217 33.782695 
L 265.454619 33.517206 
L 265.546947 33.358848 
L 265.626434 33.251718 
L 265.817949 33.114124 
L 266.08895 33.040311 
L 266.359951 33.025431 
L 266.630952 33.044978 
L 266.901954 33.167134 
L 266.982352 33.251718 
L 267.028764 33.517206 
L 266.907808 33.782695 
L 266.901954 33.788815 
L 266.712374 34.048183 
L 266.630952 34.117014 
L 266.359951 34.309982 
L 266.35213 34.313671 
L 266.08895 34.443295 
L 265.817949 34.47098 
" style="fill:none;stroke:#ff69b4;stroke-width:0.7;"/>
   </g>
   <g id="LineCollection_11">
    <path clip-path="url(#pb0c4e20b57)" d="M 75.30409 232.116124 
L 75.342782 232.102423 
L 75.575092 231.896527 
L 75.592817 231.836934 
L 75.575092 231.827652 
L 75.30409 231.755574 
L 75.033089 231.814927 
L 75.003561 231.836934 
L 75.033089 231.894107 
L 75.282472 232.102423 
L 75.30409 232.116124 
" style="fill:none;stroke:#2e8b57;stroke-width:0.7;"/>
    <path clip-path="url(#pb0c4e20b57)" d="M 65.006044 228.38571 
L 65.006153 228.385587 
L 65.135869 228.120099 
L 65.006044 228.039059 
L 64.735043 228.06713 
L 64.492863 228.120099 
L 64.735043 228.371556 
L 65.00194 228.385587 
L 65.006044 228.38571 
" style="fill:none;stroke:#2e8b57;stroke-width:0.7;"/>
    <path clip-path="url(#pb0c4e20b57)" d="M 76.930098 215.711024 
L 77.081293 215.642151 
L 76.930098 215.587449 
L 76.873116 215.642151 
L 76.930098 215.711024 
" style="fill:none;stroke:#2e8b57;stroke-width:0.7;"/>
    <path clip-path="url(#pb0c4e20b57)" d="M 192.105617 96.513962 
L 192.376618 96.574481 
L 192.647619 96.591709 
L 192.91862 96.580804 
L 193.189621 96.527333 
L 193.353281 96.437923 
L 193.460623 96.361712 
L 193.601038 96.172435 
L 193.661493 95.906947 
L 193.670021 95.641459 
L 193.646995 95.37597 
L 193.568258 95.110482 
L 193.460623 94.949098 
L 193.376718 94.844994 
L 193.189621 94.698085 
L 192.91862 94.617051 
L 192.647619 94.588197 
L 192.376618 94.581607 
L 192.105617 94.594201 
L 191.834615 94.659166 
L 191.622851 94.844994 
L 191.563614 94.951733 
L 191.463297 95.110482 
L 191.404542 95.37597 
L 191.404041 95.641459 
L 191.454176 95.906947 
L 191.563614 96.101285 
L 191.592612 96.172435 
L 191.834615 96.401719 
L 191.932683 96.437923 
L 192.105617 96.513962 
" style="fill:none;stroke:#2e8b57;stroke-width:0.7;"/>
    <path clip-path="url(#pb0c4e20b57)" d="M 254.9779 62.742633 
L 255.248901 62.894328 
L 255.519902 62.904571 
L 255.790904 62.889924 
L 256.061905 62.858596 
L 256.332906 62.769197 
L 256.413158 62.720915 
L 256.603907 62.564593 
L 256.693068 62.455426 
L 256.798155 62.189938 
L 256.819425 61.92445 
L 256.771489 61.658962 
L 256.603907 61.439176 
L 256.551733 61.393473 
L 256.332906 61.272155 
L 256.061905 61.188251 
L 255.790904 61.150038 
L 255.519902 61.131844 
L 255.248901 61.133911 
L 254.9779 61.206084 
L 254.706899 61.340318 
L 254.615469 61.393473 
L 254.466799 61.658962 
L 254.45569 61.92445 
L 254.511589 62.189938 
L 254.686664 62.455426 
L 254.706899 62.475992 
L 254.951655 62.720915 
L 254.9779 62.742633 
" style="fill:none;stroke:#2e8b57;stroke-width:0.7;"/>
    <path clip-path="url(#pb0c4e20b57)" d="M 250.370879 58.739342 
L 250.373884 58.738591 
L 250.64188 58.701688 
L 250.912882 58.571949 
L 251.014932 58.473103 
L 251.143796 58.207614 
L 251.163612 57.942126 
L 251.137811 57.676638 
L 251.046575 57.41115 
L 250.912882 57.259712 
L 250.789684 57.145661 
L 250.64188 57.05762 
L 250.370879 56.951639 
L 250.099878 56.893687 
L 249.982367 56.880173 
L 249.828877 56.843117 
L 249.557875 56.829044 
L 249.293052 56.880173 
L 249.286874 56.880999 
L 249.015873 56.97858 
L 248.810272 57.145661 
L 248.744872 57.288367 
L 248.685411 57.41115 
L 248.666281 57.676638 
L 248.744872 57.937669 
L 248.745572 57.942126 
L 248.854516 58.207614 
L 249.015873 58.375428 
L 249.163133 58.473103 
L 249.286874 58.545749 
L 249.557875 58.644168 
L 249.828877 58.704264 
L 250.099878 58.735796 
L 250.349856 58.738591 
L 250.370879 58.739342 
" style="fill:none;stroke:#2e8b57;stroke-width:0.7;"/>
    <path clip-path="url(#pb0c4e20b57)" d="M 253.080891 58.249911 
L 253.351893 58.273152 
L 253.622894 58.242194 
L 253.768972 58.207614 
L 253.893895 58.193865 
L 254.164896 58.147488 
L 254.435897 58.082821 
L 254.706899 57.95315 
L 254.76339 57.942126 
L 254.9779 57.829307 
L 255.194314 57.676638 
L 255.20303 57.41115 
L 254.9779 57.194737 
L 254.960937 57.145661 
L 254.761627 56.880173 
L 254.706899 56.8332 
L 254.484895 56.614685 
L 254.435897 56.583708 
L 254.164896 56.498342 
L 253.893895 56.461722 
L 253.622894 56.431135 
L 253.351893 56.433649 
L 253.080891 56.480077 
L 252.80989 56.588149 
L 252.762827 56.614685 
L 252.538889 56.812111 
L 252.481519 56.880173 
L 252.377147 57.145661 
L 252.363677 57.41115 
L 252.428454 57.676638 
L 252.538889 57.830486 
L 252.61945 57.942126 
L 252.80989 58.116815 
L 253.00747 58.207614 
L 253.080891 58.249911 
" style="fill:none;stroke:#2e8b57;stroke-width:0.7;"/>
    <path clip-path="url(#pb0c4e20b57)" d="M 221.64475 54.836918 
L 221.915751 54.857187 
L 222.186752 54.805904 
L 222.316986 54.756267 
L 222.457753 54.725351 
L 222.728755 54.586217 
L 222.84191 54.490779 
L 222.999756 54.274719 
L 223.037891 54.22529 
L 223.148047 53.959802 
L 223.162398 53.694314 
L 223.085095 53.428826 
L 222.999756 53.321534 
L 222.821576 53.163337 
L 222.728755 53.111729 
L 222.457753 53.021494 
L 222.186752 52.987812 
L 221.915751 52.982286 
L 221.64475 53.023745 
L 221.373748 53.136676 
L 221.325621 53.163337 
L 221.102747 53.319985 
L 220.999716 53.428826 
L 220.883196 53.694314 
L 220.848963 53.959802 
L 220.863251 54.22529 
L 220.980998 54.490779 
L 221.102747 54.601782 
L 221.373748 54.741541 
L 221.434453 54.756267 
L 221.64475 54.836918 
" style="fill:none;stroke:#2e8b57;stroke-width:0.7;"/>
    <path clip-path="url(#pb0c4e20b57)" d="M 254.706899 48.401062 
L 254.9779 48.526866 
L 255.248901 48.575766 
L 255.519902 48.497487 
L 255.666603 48.384549 
L 255.790904 48.207823 
L 255.8261 48.119061 
L 255.866385 47.853572 
L 255.848925 47.588084 
L 255.790904 47.392684 
L 255.773293 47.322596 
L 255.602966 47.057108 
L 255.519902 46.985217 
L 255.248901 46.86484 
L 254.9779 46.82624 
L 254.706899 46.811724 
L 254.435897 46.81189 
L 254.164896 46.841451 
L 253.893895 46.901106 
L 253.622894 47.022324 
L 253.570242 47.057108 
L 253.393999 47.322596 
L 253.391682 47.588084 
L 253.51105 47.853572 
L 253.622894 47.964611 
L 253.816081 48.119061 
L 253.893895 48.162218 
L 254.164896 48.270019 
L 254.435897 48.331147 
L 254.667511 48.384549 
L 254.706899 48.401062 
" style="fill:none;stroke:#2e8b57;stroke-width:0.7;"/>
    <path clip-path="url(#pb0c4e20b57)" d="M 232.7558 45.243614 
L 233.026801 45.261453 
L 233.248279 45.19869 
L 233.297802 45.188324 
L 233.568803 45.074436 
L 233.730044 44.933201 
L 233.823516 44.667713 
L 233.813354 44.402225 
L 233.72331 44.136737 
L 233.568803 43.966527 
L 233.423771 43.871248 
L 233.297802 43.80709 
L 233.026801 43.73182 
L 232.7558 43.710222 
L 232.484799 43.727598 
L 232.213797 43.811849 
L 232.109229 43.871248 
L 231.942796 44.002127 
L 231.81309 44.136737 
L 231.737991 44.402225 
L 231.785687 44.667713 
L 231.942796 44.868553 
L 231.99723 44.933201 
L 232.213797 45.08248 
L 232.484799 45.176262 
L 232.602847 45.19869 
L 232.7558 45.243614 
" style="fill:none;stroke:#2e8b57;stroke-width:0.7;"/>
    <path clip-path="url(#pb0c4e20b57)" d="M 227.335775 41.598536 
L 227.606777 41.66034 
L 227.877778 41.66938 
L 228.148779 41.6391 
L 228.41978 41.558809 
L 228.551365 41.481854 
L 228.690781 41.371709 
L 228.817308 41.216366 
L 228.904698 40.950878 
L 228.932412 40.685389 
L 228.928563 40.419901 
L 228.867602 40.154413 
L 228.690781 39.948301 
L 228.606212 39.888925 
L 228.41978 39.767212 
L 228.148779 39.691366 
L 227.877778 39.691 
L 227.606777 39.76078 
L 227.404964 39.888925 
L 227.335775 39.920822 
L 227.092873 40.154413 
L 227.064774 40.207456 
L 226.944725 40.419901 
L 226.892726 40.685389 
L 226.888459 40.950878 
L 226.939865 41.216366 
L 227.064774 41.398703 
L 227.145831 41.481854 
L 227.335775 41.598536 
" style="fill:none;stroke:#2e8b57;stroke-width:0.7;"/>
    <path clip-path="url(#pb0c4e20b57)" d="M 262.294933 33.52579 
L 262.297335 33.517206 
L 262.294933 33.496392 
L 262.28484 33.517206 
L 262.294933 33.52579 
" style="fill:none;stroke:#2e8b57;stroke-width:0.7;"/>
   </g>
   <g id="LineCollection_12">
    <path clip-path="url(#pb0c4e20b57)" d="M 192.105617 96.43873 
L 192.376618 96.523155 
L 192.647619 96.544611 
L 192.91862 96.522435 
L 193.182023 96.437923 
L 193.189621 96.436026 
L 193.460623 96.24045 
L 193.51108 96.172435 
L 193.608932 95.906947 
L 193.625994 95.641459 
L 193.596711 95.37597 
L 193.489238 95.110482 
L 193.460623 95.067577 
L 193.281227 94.844994 
L 193.189621 94.773065 
L 192.91862 94.658271 
L 192.647619 94.619033 
L 192.376618 94.613464 
L 192.105617 94.638706 
L 191.834615 94.742729 
L 191.718077 94.844994 
L 191.566831 95.110482 
L 191.563614 95.126244 
L 191.477323 95.37597 
L 191.473218 95.641459 
L 191.546297 95.906947 
L 191.563614 95.937698 
L 191.659282 96.172435 
L 191.834615 96.338552 
L 192.103783 96.437923 
L 192.105617 96.43873 
" style="fill:none;stroke:#2e8b57;stroke-width:0.7;"/>
    <path clip-path="url(#pb0c4e20b57)" d="M 255.248901 62.75722 
L 255.519902 62.79458 
L 255.790904 62.78389 
L 256.061905 62.735074 
L 256.098264 62.720915 
L 256.332906 62.626321 
L 256.523079 62.455426 
L 256.603907 62.301648 
L 256.660647 62.189938 
L 256.695441 61.92445 
L 256.618906 61.658962 
L 256.603907 61.63929 
L 256.332906 61.398282 
L 256.324272 61.393473 
L 256.061905 61.278246 
L 255.790904 61.21425 
L 255.519902 61.184262 
L 255.248901 61.192255 
L 254.9779 61.295118 
L 254.813071 61.393473 
L 254.706899 61.569522 
L 254.643147 61.658962 
L 254.61213 61.92445 
L 254.698818 62.189938 
L 254.706899 62.201731 
L 254.825627 62.455426 
L 254.9779 62.606009 
L 255.187753 62.720915 
L 255.248901 62.75722 
" style="fill:none;stroke:#2e8b57;stroke-width:0.7;"/>
    <path clip-path="url(#pb0c4e20b57)" d="M 249.557875 58.561512 
L 249.828877 58.636213 
L 250.099878 58.667822 
L 250.370879 58.657998 
L 250.64188 58.582023 
L 250.81008 58.473103 
L 250.912882 58.370355 
L 251.021044 58.207614 
L 251.072963 57.942126 
L 251.045866 57.676638 
L 250.914363 57.41115 
L 250.912882 57.409472 
L 250.64188 57.151938 
L 250.631549 57.145661 
L 250.370879 57.01268 
L 250.099878 56.94225 
L 249.828877 56.910618 
L 249.557875 56.91259 
L 249.286874 56.963049 
L 249.015873 57.122533 
L 248.987412 57.145661 
L 248.811872 57.41115 
L 248.786603 57.676638 
L 248.832835 57.942126 
L 248.991096 58.207614 
L 249.015873 58.233383 
L 249.286874 58.442004 
L 249.363569 58.473103 
L 249.557875 58.561512 
" style="fill:none;stroke:#2e8b57;stroke-width:0.7;"/>
    <path clip-path="url(#pb0c4e20b57)" d="M 253.080891 58.127876 
L 253.351893 58.168194 
L 253.622894 58.160711 
L 253.893895 58.126745 
L 254.164896 58.063984 
L 254.435897 57.955285 
L 254.462114 57.942126 
L 254.673059 57.676638 
L 254.705048 57.41115 
L 254.679135 57.145661 
L 254.558879 56.880173 
L 254.435897 56.759401 
L 254.164896 56.624901 
L 254.123546 56.614685 
L 253.893895 56.554422 
L 253.622894 56.513168 
L 253.351893 56.52097 
L 253.080891 56.58713 
L 253.016996 56.614685 
L 252.80989 56.712048 
L 252.629877 56.880173 
L 252.538889 57.111516 
L 252.523192 57.145661 
L 252.506013 57.41115 
L 252.538889 57.504814 
L 252.586261 57.676638 
L 252.80989 57.940615 
L 252.811526 57.942126 
L 253.080891 58.127876 
" style="fill:none;stroke:#2e8b57;stroke-width:0.7;"/>
    <path clip-path="url(#pb0c4e20b57)" d="M 221.373748 54.654502 
L 221.64475 54.731949 
L 221.915751 54.747901 
L 222.186752 54.722525 
L 222.457753 54.649518 
L 222.691764 54.490779 
L 222.728755 54.456722 
L 222.929531 54.22529 
L 222.999756 54.000532 
L 223.018254 53.959802 
L 223.033367 53.694314 
L 222.999756 53.605973 
L 222.944887 53.428826 
L 222.728755 53.225806 
L 222.600318 53.163337 
L 222.457753 53.104796 
L 222.186752 53.049872 
L 221.915751 53.039103 
L 221.64475 53.089432 
L 221.480963 53.163337 
L 221.373748 53.210037 
L 221.114194 53.428826 
L 221.102747 53.449955 
L 220.962745 53.694314 
L 220.923779 53.959802 
L 220.961588 54.22529 
L 221.102747 54.437833 
L 221.146035 54.490779 
L 221.373748 54.654502 
" style="fill:none;stroke:#2e8b57;stroke-width:0.7;"/>
    <path clip-path="url(#pb0c4e20b57)" d="M 255.248901 48.431119 
L 255.37848 48.384549 
L 255.519902 48.343943 
L 255.717421 48.119061 
L 255.777221 47.853572 
L 255.767302 47.588084 
L 255.694251 47.322596 
L 255.519902 47.100366 
L 255.463935 47.057108 
L 255.248901 46.937402 
L 254.9779 46.889754 
L 254.706899 46.882015 
L 254.435897 46.897979 
L 254.164896 46.949268 
L 253.893895 47.04456 
L 253.868709 47.057108 
L 253.622894 47.312455 
L 253.615388 47.322596 
L 253.590613 47.588084 
L 253.622894 47.649421 
L 253.711032 47.853572 
L 253.893895 48.013267 
L 254.0665 48.119061 
L 254.164896 48.163948 
L 254.435897 48.243695 
L 254.706899 48.309413 
L 254.9779 48.383195 
L 254.991229 48.384549 
L 255.248901 48.431119 
" style="fill:none;stroke:#2e8b57;stroke-width:0.7;"/>
    <path clip-path="url(#pb0c4e20b57)" d="M 232.213797 44.942158 
L 232.484799 45.072594 
L 232.7558 45.131372 
L 233.026801 45.13495 
L 233.297802 45.063591 
L 233.518609 44.933201 
L 233.568803 44.882493 
L 233.696572 44.667713 
L 233.702219 44.402225 
L 233.583818 44.136737 
L 233.568803 44.120196 
L 233.297802 43.918391 
L 233.165112 43.871248 
L 233.026801 43.825964 
L 232.7558 43.802156 
L 232.484799 43.841348 
L 232.405588 43.871248 
L 232.213797 43.959643 
L 232.008109 44.136737 
L 231.942796 44.313206 
L 231.90806 44.402225 
L 231.942796 44.547377 
L 231.965796 44.667713 
L 232.200804 44.933201 
L 232.213797 44.942158 
" style="fill:none;stroke:#2e8b57;stroke-width:0.7;"/>
    <path clip-path="url(#pb0c4e20b57)" d="M 227.335775 41.506541 
L 227.606777 41.608327 
L 227.877778 41.627422 
L 228.148779 41.590971 
L 228.41978 41.483227 
L 228.422128 41.481854 
L 228.690781 41.269606 
L 228.734145 41.216366 
L 228.850874 40.950878 
L 228.882694 40.685389 
L 228.865169 40.419901 
L 228.752478 40.154413 
L 228.690781 40.082496 
L 228.41978 39.890389 
L 228.415188 39.888925 
L 228.148779 39.772791 
L 227.877778 39.763106 
L 227.606777 39.853917 
L 227.551644 39.888925 
L 227.335775 39.988443 
L 227.16319 40.154413 
L 227.064774 40.340199 
L 227.019736 40.419901 
L 226.951944 40.685389 
L 226.954112 40.950878 
L 227.045106 41.216366 
L 227.064774 41.245077 
L 227.295588 41.481854 
L 227.335775 41.506541 
" style="fill:none;stroke:#2e8b57;stroke-width:0.7;"/>
   </g>
   <g id="LineCollection_13">
    <path clip-path="url(#pb0c4e20b57)" d="M 192.376618 96.446165 
L 192.647619 96.473963 
L 192.901345 96.437923 
L 192.91862 96.436513 
L 193.189621 96.367877 
L 193.412062 96.172435 
L 193.460623 96.062155 
L 193.530092 95.906947 
L 193.559952 95.641459 
L 193.521284 95.37597 
L 193.460623 95.239348 
L 193.415752 95.110482 
L 193.189621 94.86787 
L 193.148584 94.844994 
L 192.91862 94.720101 
L 192.647619 94.665288 
L 192.376618 94.661249 
L 192.105617 94.705463 
L 191.856557 94.844994 
L 191.834615 94.859645 
L 191.631317 95.110482 
L 191.572746 95.37597 
L 191.568875 95.641459 
L 191.609746 95.906947 
L 191.759289 96.172435 
L 191.834615 96.243802 
L 192.105617 96.388887 
L 192.350241 96.437923 
L 192.376618 96.446165 
" style="fill:none;stroke:#2e8b57;stroke-width:0.7;"/>
    <path clip-path="url(#pb0c4e20b57)" d="M 255.248901 62.629662 
L 255.519902 62.671386 
L 255.790904 62.662946 
L 256.061905 62.606302 
L 256.310603 62.455426 
L 256.332906 62.431501 
L 256.496306 62.189938 
L 256.53162 61.92445 
L 256.430111 61.658962 
L 256.332906 61.569483 
L 256.061905 61.410527 
L 256.022506 61.393473 
L 255.790904 61.310569 
L 255.519902 61.26289 
L 255.248901 61.279771 
L 255.023601 61.393473 
L 254.9779 61.43127 
L 254.794553 61.658962 
L 254.764232 61.92445 
L 254.818419 62.189938 
L 254.9779 62.421123 
L 255.009305 62.455426 
L 255.248901 62.629662 
" style="fill:none;stroke:#2e8b57;stroke-width:0.7;"/>
    <path clip-path="url(#pb0c4e20b57)" d="M 249.828877 58.534136 
L 250.099878 58.56586 
L 250.370879 58.536691 
L 250.525729 58.473103 
L 250.64188 58.422459 
L 250.859143 58.207614 
L 250.912882 58.02192 
L 250.936988 57.942126 
L 250.912882 57.721212 
L 250.909837 57.676638 
L 250.79938 57.41115 
L 250.64188 57.260975 
L 250.452073 57.145661 
L 250.370879 57.10424 
L 250.099878 57.015095 
L 249.828877 56.982363 
L 249.557875 56.998168 
L 249.286874 57.086123 
L 249.191643 57.145661 
L 249.015873 57.331154 
L 248.959158 57.41115 
L 248.904729 57.676638 
L 248.96373 57.942126 
L 249.015873 58.024918 
L 249.134961 58.207614 
L 249.286874 58.331514 
L 249.557875 58.451652 
L 249.645752 58.473103 
L 249.828877 58.534136 
" style="fill:none;stroke:#2e8b57;stroke-width:0.7;"/>
    <path clip-path="url(#pb0c4e20b57)" d="M 253.080891 57.980042 
L 253.351893 58.065711 
L 253.622894 58.068196 
L 253.893895 58.026064 
L 254.156356 57.942126 
L 254.164896 57.939023 
L 254.435897 57.742902 
L 254.491982 57.676638 
L 254.555966 57.41115 
L 254.507896 57.145661 
L 254.435897 57.027578 
L 254.339437 56.880173 
L 254.164896 56.755828 
L 253.893895 56.665054 
L 253.622894 56.628593 
L 253.351893 56.639178 
L 253.080891 56.706552 
L 252.816572 56.880173 
L 252.80989 56.889119 
L 252.660823 57.145661 
L 252.647321 57.41115 
L 252.753968 57.676638 
L 252.80989 57.74265 
L 253.025908 57.942126 
L 253.080891 57.980042 
" style="fill:none;stroke:#2e8b57;stroke-width:0.7;"/>
    <path clip-path="url(#pb0c4e20b57)" d="M 221.373748 54.523943 
L 221.64475 54.643815 
L 221.915751 54.671458 
L 222.186752 54.641258 
L 222.457753 54.53577 
L 222.524079 54.490779 
L 222.728755 54.302334 
L 222.795593 54.22529 
L 222.908016 53.959802 
L 222.912055 53.694314 
L 222.787325 53.428826 
L 222.728755 53.373808 
L 222.457753 53.207459 
L 222.2658 53.163337 
L 222.186752 53.142963 
L 221.915751 53.124329 
L 221.74046 53.163337 
L 221.64475 53.179319 
L 221.373748 53.305146 
L 221.227024 53.428826 
L 221.102747 53.658223 
L 221.08207 53.694314 
L 221.036004 53.959802 
L 221.102747 54.20738 
L 221.106869 54.22529 
L 221.327623 54.490779 
L 221.373748 54.523943 
" style="fill:none;stroke:#2e8b57;stroke-width:0.7;"/>
    <path clip-path="url(#pb0c4e20b57)" d="M 254.706899 48.18365 
L 254.9779 48.261293 
L 255.248901 48.283232 
L 255.519902 48.1706 
L 255.56517 48.119061 
L 255.675965 47.853572 
L 255.673857 47.588084 
L 255.575687 47.322596 
L 255.519902 47.251492 
L 255.268412 47.057108 
L 255.248901 47.046246 
L 254.9779 46.985025 
L 254.706899 46.987451 
L 254.435897 47.027112 
L 254.324578 47.057108 
L 254.164896 47.11016 
L 253.893895 47.28148 
L 253.853229 47.322596 
L 253.80115 47.588084 
L 253.893895 47.759903 
L 253.944785 47.853572 
L 254.164896 48.013877 
L 254.435897 48.112957 
L 254.459891 48.119061 
L 254.706899 48.18365 
" style="fill:none;stroke:#2e8b57;stroke-width:0.7;"/>
    <path clip-path="url(#pb0c4e20b57)" d="M 232.7558 44.991067 
L 233.026801 44.982793 
L 233.167218 44.933201 
L 233.297802 44.873036 
L 233.503408 44.667713 
L 233.534869 44.402225 
L 233.382899 44.136737 
L 233.297802 44.071628 
L 233.026801 43.956682 
L 232.7558 43.93197 
L 232.484799 43.992054 
L 232.24951 44.136737 
L 232.213797 44.192638 
L 232.106967 44.402225 
L 232.169546 44.667713 
L 232.213797 44.716801 
L 232.484799 44.916123 
L 232.539205 44.933201 
L 232.7558 44.991067 
" style="fill:none;stroke:#2e8b57;stroke-width:0.7;"/>
    <path clip-path="url(#pb0c4e20b57)" d="M 227.606777 41.530306 
L 227.877778 41.564485 
L 228.148779 41.518777 
L 228.241221 41.481854 
L 228.41978 41.413904 
L 228.640617 41.216366 
L 228.690781 41.110453 
L 228.770138 40.950878 
L 228.808118 40.685389 
L 228.770078 40.419901 
L 228.690781 40.269971 
L 228.623708 40.154413 
L 228.41978 39.979764 
L 228.148779 39.891694 
L 228.08607 39.888925 
L 227.877778 39.871265 
L 227.829298 39.888925 
L 227.606777 39.933541 
L 227.335775 40.089876 
L 227.268666 40.154413 
L 227.100887 40.419901 
L 227.064774 40.60292 
L 227.04077 40.685389 
L 227.052592 40.950878 
L 227.064774 40.983748 
L 227.138151 41.216366 
L 227.335775 41.413278 
L 227.490076 41.481854 
L 227.606777 41.530306 
" style="fill:none;stroke:#2e8b57;stroke-width:0.7;"/>
   </g>
   <g id="LineCollection_14">
    <path clip-path="url(#pb0c4e20b57)" d="M 192.105617 96.314802 
L 192.376618 96.390424 
L 192.647619 96.406421 
L 192.91862 96.375609 
L 193.189621 96.265653 
L 193.295717 96.172435 
L 193.434176 95.906947 
L 193.460623 95.643188 
L 193.460891 95.641459 
L 193.460623 95.639919 
L 193.434197 95.37597 
L 193.327025 95.110482 
L 193.189621 94.963064 
L 192.977815 94.844994 
L 192.91862 94.812845 
L 192.647619 94.73467 
L 192.376618 94.732927 
L 192.105617 94.805599 
L 192.035298 94.844994 
L 191.834615 94.978992 
L 191.728045 95.110482 
L 191.638105 95.37597 
L 191.63013 95.641459 
L 191.688858 95.906947 
L 191.834615 96.115957 
L 191.890378 96.172435 
L 192.105617 96.314802 
" style="fill:none;stroke:#2e8b57;stroke-width:0.7;"/>
    <path clip-path="url(#pb0c4e20b57)" d="M 255.248901 62.46344 
L 255.519902 62.537165 
L 255.790904 62.518997 
L 255.980544 62.455426 
L 256.061905 62.41469 
L 256.277914 62.189938 
L 256.319376 61.92445 
L 256.16844 61.658962 
L 256.061905 61.585228 
L 255.790904 61.448405 
L 255.574366 61.393473 
L 255.519902 61.380831 
L 255.399389 61.393473 
L 255.248901 61.411423 
L 254.9779 61.6464 
L 254.967784 61.658962 
L 254.908493 61.92445 
L 254.9779 62.154523 
L 254.988637 62.189938 
L 255.237881 62.455426 
L 255.248901 62.46344 
" style="fill:none;stroke:#2e8b57;stroke-width:0.7;"/>
    <path clip-path="url(#pb0c4e20b57)" d="M 249.557875 58.339508 
L 249.828877 58.415338 
L 250.099878 58.433943 
L 250.370879 58.392714 
L 250.64188 58.229254 
L 250.663764 58.207614 
L 250.794837 57.942126 
L 250.782147 57.676638 
L 250.64188 57.429551 
L 250.629813 57.41115 
L 250.370879 57.221226 
L 250.159009 57.145661 
L 250.099878 57.124363 
L 249.828877 57.089979 
L 249.557875 57.126536 
L 249.509022 57.145661 
L 249.286874 57.256948 
L 249.135628 57.41115 
L 249.062731 57.676638 
L 249.114919 57.942126 
L 249.286874 58.16374 
L 249.334761 58.207614 
L 249.557875 58.339508 
" style="fill:none;stroke:#2e8b57;stroke-width:0.7;"/>
    <path clip-path="url(#pb0c4e20b57)" d="M 253.080891 57.79563 
L 253.351893 57.917177 
L 253.622894 57.931633 
L 253.893895 57.886198 
L 254.164896 57.767454 
L 254.273336 57.676638 
L 254.365347 57.41115 
L 254.315513 57.145661 
L 254.164896 56.957026 
L 254.063463 56.880173 
L 253.893895 56.798398 
L 253.622894 56.747804 
L 253.351893 56.76831 
L 253.080891 56.872898 
L 253.069815 56.880173 
L 252.850724 57.145661 
L 252.833373 57.41115 
L 252.955132 57.676638 
L 253.080891 57.79563 
" style="fill:none;stroke:#2e8b57;stroke-width:0.7;"/>
    <path clip-path="url(#pb0c4e20b57)" d="M 221.64475 54.511613 
L 221.915751 54.556793 
L 222.186752 54.519359 
L 222.252203 54.490779 
L 222.457753 54.395743 
L 222.637785 54.22529 
L 222.728755 54.015929 
L 222.755958 53.959802 
L 222.752858 53.694314 
L 222.728755 53.649829 
L 222.595518 53.428826 
L 222.457753 53.33198 
L 222.186752 53.241195 
L 221.915751 53.221939 
L 221.64475 53.275242 
L 221.394543 53.428826 
L 221.373748 53.450563 
L 221.203601 53.694314 
L 221.168461 53.959802 
L 221.25058 54.22529 
L 221.373748 54.360111 
L 221.601533 54.490779 
L 221.64475 54.511613 
" style="fill:none;stroke:#2e8b57;stroke-width:0.7;"/>
    <path clip-path="url(#pb0c4e20b57)" d="M 254.435897 47.929435 
L 254.706899 48.006586 
L 254.9779 48.081259 
L 255.248901 48.089364 
L 255.519902 47.862378 
L 255.52408 47.853572 
L 255.533689 47.588084 
L 255.519902 47.554806 
L 255.395017 47.322596 
L 255.248901 47.199825 
L 254.9779 47.129378 
L 254.706899 47.148519 
L 254.435897 47.21873 
L 254.210723 47.322596 
L 254.164896 47.392279 
L 254.08083 47.588084 
L 254.164896 47.729962 
L 254.272114 47.853572 
L 254.435897 47.929435 
" style="fill:none;stroke:#2e8b57;stroke-width:0.7;"/>
    <path clip-path="url(#pb0c4e20b57)" d="M 232.484799 44.668847 
L 232.7558 44.775854 
L 233.026801 44.748435 
L 233.168853 44.667713 
L 233.273014 44.402225 
L 233.026801 44.153056 
L 232.953037 44.136737 
L 232.7558 44.11451 
L 232.684569 44.136737 
L 232.484799 44.272794 
L 232.39214 44.402225 
L 232.483354 44.667713 
L 232.484799 44.668847 
" style="fill:none;stroke:#2e8b57;stroke-width:0.7;"/>
    <path clip-path="url(#pb0c4e20b57)" d="M 227.335775 41.288002 
L 227.606777 41.440013 
L 227.877778 41.474629 
L 228.148779 41.438291 
L 228.41978 41.31073 
L 228.525274 41.216366 
L 228.664863 40.950878 
L 228.690781 40.718383 
L 228.696254 40.685389 
L 228.690781 40.659044 
L 228.651824 40.419901 
L 228.467173 40.154413 
L 228.41978 40.113825 
L 228.148779 39.976202 
L 227.877778 39.953858 
L 227.606777 40.022843 
L 227.41193 40.154413 
L 227.335775 40.224658 
L 227.191211 40.419901 
L 227.124181 40.685389 
L 227.138107 40.950878 
L 227.26388 41.216366 
L 227.335775 41.288002 
" style="fill:none;stroke:#2e8b57;stroke-width:0.7;"/>
   </g>
   <g id="LineCollection_15">
    <path clip-path="url(#pb0c4e20b57)" d="M 192.105617 96.203676 
L 192.376618 96.3137 
L 192.647619 96.334816 
L 192.91862 96.284254 
L 193.123875 96.172435 
L 193.189621 96.118655 
L 193.338023 95.906947 
L 193.383657 95.641459 
L 193.34874 95.37597 
L 193.193934 95.110482 
L 193.189621 95.105855 
L 192.91862 94.907698 
L 192.667254 94.844994 
L 192.647619 94.838743 
L 192.376618 94.840443 
L 192.361914 94.844994 
L 192.105617 94.914363 
L 191.865218 95.110482 
L 191.834615 95.165988 
L 191.736143 95.37597 
L 191.722012 95.641459 
L 191.807525 95.906947 
L 191.834615 95.945793 
L 192.058385 96.172435 
L 192.105617 96.203676 
" style="fill:none;stroke:#2e8b57;stroke-width:0.7;"/>
    <path clip-path="url(#pb0c4e20b57)" d="M 255.248901 62.23478 
L 255.519902 62.341234 
L 255.790904 62.294679 
L 255.954224 62.189938 
L 256.027303 61.92445 
L 255.820787 61.658962 
L 255.790904 61.641742 
L 255.519902 61.550192 
L 255.248901 61.612563 
L 255.196445 61.658962 
L 255.107051 61.92445 
L 255.206122 62.189938 
L 255.248901 62.23478 
" style="fill:none;stroke:#2e8b57;stroke-width:0.7;"/>
    <path clip-path="url(#pb0c4e20b57)" d="M 249.828877 58.27126 
L 250.099878 58.284673 
L 250.370149 58.207614 
L 250.370879 58.207296 
L 250.59582 57.942126 
L 250.594656 57.676638 
L 250.408549 57.41115 
L 250.370879 57.38352 
L 250.099878 57.262926 
L 249.828877 57.23452 
L 249.557875 57.293843 
L 249.380143 57.41115 
L 249.286874 57.587644 
L 249.251298 57.676638 
L 249.286874 57.824551 
L 249.31631 57.942126 
L 249.557875 58.167987 
L 249.64685 58.207614 
L 249.828877 58.27126 
" style="fill:none;stroke:#2e8b57;stroke-width:0.7;"/>
    <path clip-path="url(#pb0c4e20b57)" d="M 253.351893 57.726299 
L 253.622894 57.759679 
L 253.893895 57.697334 
L 253.933141 57.676638 
L 254.132968 57.41115 
L 254.057317 57.145661 
L 253.893895 57.011141 
L 253.622894 56.932302 
L 253.351893 56.973011 
L 253.10747 57.145661 
L 253.080891 57.278874 
L 253.061535 57.41115 
L 253.080891 57.446567 
L 253.264982 57.676638 
L 253.351893 57.726299 
" style="fill:none;stroke:#2e8b57;stroke-width:0.7;"/>
    <path clip-path="url(#pb0c4e20b57)" d="M 221.64475 54.35179 
L 221.915751 54.408378 
L 222.186752 54.371316 
L 222.429595 54.22529 
L 222.457753 54.191386 
L 222.588151 53.959802 
L 222.573612 53.694314 
L 222.457753 53.539705 
L 222.304903 53.428826 
L 222.186752 53.377932 
L 221.915751 53.348442 
L 221.64475 53.419127 
L 221.628949 53.428826 
L 221.374617 53.694314 
L 221.373748 53.699593 
L 221.331787 53.959802 
L 221.373748 54.059297 
L 221.467188 54.22529 
L 221.64475 54.35179 
" style="fill:none;stroke:#2e8b57;stroke-width:0.7;"/>
    <path clip-path="url(#pb0c4e20b57)" d="M 254.706899 47.644011 
L 254.9779 47.793515 
L 255.248901 47.683802 
L 255.277756 47.588084 
L 255.248901 47.536762 
L 254.9779 47.386327 
L 254.706899 47.516113 
L 254.63041 47.588084 
L 254.706899 47.644011 
" style="fill:none;stroke:#2e8b57;stroke-width:0.7;"/>
    <path clip-path="url(#pb0c4e20b57)" d="M 227.606777 41.332908 
L 227.877778 41.387742 
L 228.148779 41.339141 
L 228.354837 41.216366 
L 228.41978 41.150092 
L 228.552082 40.950878 
L 228.590184 40.685389 
L 228.520231 40.419901 
L 228.41978 40.290117 
L 228.240133 40.154413 
L 228.148779 40.102963 
L 227.877778 40.063155 
L 227.612431 40.154413 
L 227.606777 40.156348 
L 227.335775 40.407641 
L 227.326697 40.419901 
L 227.232874 40.685389 
L 227.257994 40.950878 
L 227.335775 41.086764 
L 227.434019 41.216366 
L 227.606777 41.332908 
" style="fill:none;stroke:#2e8b57;stroke-width:0.7;"/>
   </g>
   <g id="LineCollection_16">
    <path clip-path="url(#pb0c4e20b57)" d="M 192.376618 96.198614 
L 192.647619 96.227407 
L 192.846954 96.172435 
L 192.91862 96.150806 
L 193.189621 95.912899 
L 193.193794 95.906947 
L 193.268001 95.641459 
L 193.220554 95.37597 
L 193.189621 95.323445 
L 193.027566 95.110482 
L 192.91862 95.030022 
L 192.647619 94.934936 
L 192.376618 94.940905 
L 192.105617 95.05541 
L 192.03811 95.110482 
L 191.872462 95.37597 
L 191.854024 95.641459 
L 191.94944 95.906947 
L 192.105617 96.062689 
L 192.317346 96.172435 
L 192.376618 96.198614 
" style="fill:none;stroke:#2e8b57;stroke-width:0.7;"/>
    <path clip-path="url(#pb0c4e20b57)" d="M 249.828877 58.036331 
L 250.099878 58.037153 
L 250.267844 57.942126 
L 250.311555 57.676638 
L 250.099878 57.497772 
L 249.828877 57.456324 
L 249.557875 57.638962 
L 249.533406 57.676638 
L 249.557875 57.763144 
L 249.643598 57.942126 
L 249.828877 58.036331 
" style="fill:none;stroke:#2e8b57;stroke-width:0.7;"/>
    <path clip-path="url(#pb0c4e20b57)" d="M 221.64475 54.060075 
L 221.915751 54.198606 
L 222.186752 54.124193 
L 222.329654 53.959802 
L 222.287803 53.694314 
L 222.186752 53.613597 
L 221.915751 53.560571 
L 221.64475 53.673736 
L 221.624682 53.694314 
L 221.576795 53.959802 
L 221.64475 54.060075 
" style="fill:none;stroke:#2e8b57;stroke-width:0.7;"/>
    <path clip-path="url(#pb0c4e20b57)" d="M 227.877778 41.25741 
L 228.052159 41.216366 
L 228.148779 41.187736 
L 228.384232 40.950878 
L 228.41978 40.764466 
L 228.434201 40.685389 
L 228.41978 40.643328 
L 228.327011 40.419901 
L 228.148779 40.270168 
L 227.877778 40.214554 
L 227.606777 40.319453 
L 227.500553 40.419901 
L 227.386937 40.685389 
L 227.422302 40.950878 
L 227.606777 41.167256 
L 227.733008 41.216366 
L 227.877778 41.25741 
" style="fill:none;stroke:#2e8b57;stroke-width:0.7;"/>
   </g>
   <g id="LineCollection_17">
    <path clip-path="url(#pb0c4e20b57)" d="M 192.376618 96.051847 
L 192.647619 96.083522 
L 192.91862 95.974486 
L 192.994738 95.906947 
L 193.105199 95.641459 
L 193.050953 95.37597 
L 192.91862 95.219909 
L 192.730892 95.110482 
L 192.647619 95.075478 
L 192.376618 95.08895 
L 192.332088 95.110482 
L 192.105617 95.289565 
L 192.044292 95.37597 
L 192.013127 95.641459 
L 192.105617 95.831393 
L 192.155725 95.906947 
L 192.376618 96.051847 
" style="fill:none;stroke:#2e8b57;stroke-width:0.7;"/>
    <path clip-path="url(#pb0c4e20b57)" d="M 227.877778 41.045226 
L 228.127227 40.950878 
L 228.148779 40.918127 
L 228.208882 40.685389 
L 228.148779 40.574179 
L 227.884342 40.419901 
L 227.877778 40.418027 
L 227.873609 40.419901 
L 227.606777 40.662119 
L 227.594995 40.685389 
L 227.606777 40.745511 
L 227.690118 40.950878 
L 227.877778 41.045226 
" style="fill:none;stroke:#2e8b57;stroke-width:0.7;"/>
   </g>
   <g id="LineCollection_18">
    <path clip-path="url(#pb0c4e20b57)" d="M 192.376618 95.792681 
L 192.647619 95.862111 
L 192.855161 95.641459 
L 192.758039 95.37597 
L 192.647619 95.30226 
L 192.376618 95.334169 
L 192.327486 95.37597 
L 192.265748 95.641459 
L 192.376618 95.792681 
" style="fill:none;stroke:#2e8b57;stroke-width:0.7;"/>
   </g>
   <g id="LineCollection_19"/>
   <g id="LineCollection_20"/>
   <g id="patch_3">
    <path d="M 55.25 241.66 
L 55.25 26.88 
" style="fill:none;stroke:#000000;stroke-linecap:square;stroke-linejoin:miter;stroke-width:1.3;"/>
   </g>
   <g id="patch_4">
    <path d="M 277.2 241.66 
L 277.2 26.88 
" style="fill:none;stroke:#000000;stroke-linecap:square;stroke-linejoin:miter;stroke-width:1.3;"/>
   </g>
   <g id="patch_5">
    <path d="M 55.25 241.66 
L 277.2 241.66 
" style="fill:none;stroke:#000000;stroke-linecap:square;stroke-linejoin:miter;stroke-width:1.3;"/>
   </g>
   <g id="patch_6">
    <path d="M 55.25 26.88 
L 277.2 26.88 
" style="fill:none;stroke:#000000;stroke-linecap:square;stroke-linejoin:miter;stroke-width:1.3;"/>
   </g>
   <g id="text_14">
    <!-- An example HSQC -->
    <defs>
     <path d="M 34.1875 63.1875 
L 20.796875 26.90625 
L 47.609375 26.90625 
z
M 28.609375 72.90625 
L 39.796875 72.90625 
L 67.578125 0 
L 57.328125 0 
L 50.6875 18.703125 
L 17.828125 18.703125 
L 11.1875 0 
L 0.78125 0 
z
" id="DejaVuSans-65"/>
     <path d="M 54.890625 33.015625 
L 54.890625 0 
L 45.90625 0 
L 45.90625 32.71875 
Q 45.90625 40.484375 42.875 44.328125 
Q 39.84375 48.1875 33.796875 48.1875 
Q 26.515625 48.1875 22.3125 43.546875 
Q 18.109375 38.921875 18.109375 30.90625 
L 18.109375 0 
L 9.078125 0 
L 9.078125 54.6875 
L 18.109375 54.6875 
L 18.109375 46.1875 
Q 21.34375 51.125 25.703125 53.5625 
Q 30.078125 56 35.796875 56 
Q 45.21875 56 50.046875 50.171875 
Q 54.890625 44.34375 54.890625 33.015625 
z
" id="DejaVuSans-110"/>
     <path d="M 56.203125 29.59375 
L 56.203125 25.203125 
L 14.890625 25.203125 
Q 15.484375 15.921875 20.484375 11.0625 
Q 25.484375 6.203125 34.421875 6.203125 
Q 39.59375 6.203125 44.453125 7.46875 
Q 49.3125 8.734375 54.109375 11.28125 
L 54.109375 2.78125 
Q 49.265625 0.734375 44.1875 -0.34375 
Q 39.109375 -1.421875 33.890625 -1.421875 
Q 20.796875 -1.421875 13.15625 6.1875 
Q 5.515625 13.8125 5.515625 26.8125 
Q 5.515625 40.234375 12.765625 48.109375 
Q 20.015625 56 32.328125 56 
Q 43.359375 56 49.78125 48.890625 
Q 56.203125 41.796875 56.203125 29.59375 
z
M 47.21875 32.234375 
Q 47.125 39.59375 43.09375 43.984375 
Q 39.0625 48.390625 32.421875 48.390625 
Q 24.90625 48.390625 20.390625 44.140625 
Q 15.875 39.890625 15.1875 32.171875 
z
" id="DejaVuSans-101"/>
     <path d="M 54.890625 54.6875 
L 35.109375 28.078125 
L 55.90625 0 
L 45.3125 0 
L 29.390625 21.484375 
L 13.484375 0 
L 2.875 0 
L 24.125 28.609375 
L 4.6875 54.6875 
L 15.28125 54.6875 
L 29.78125 35.203125 
L 44.28125 54.6875 
z
" id="DejaVuSans-120"/>
     <path d="M 34.28125 27.484375 
Q 23.390625 27.484375 19.1875 25 
Q 14.984375 22.515625 14.984375 16.5 
Q 14.984375 11.71875 18.140625 8.90625 
Q 21.296875 6.109375 26.703125 6.109375 
Q 34.1875 6.109375 38.703125 11.40625 
Q 43.21875 16.703125 43.21875 25.484375 
L 43.21875 27.484375 
z
M 52.203125 31.203125 
L 52.203125 0 
L 43.21875 0 
L 43.21875 8.296875 
Q 40.140625 3.328125 35.546875 0.953125 
Q 30.953125 -1.421875 24.3125 -1.421875 
Q 15.921875 -1.421875 10.953125 3.296875 
Q 6 8.015625 6 15.921875 
Q 6 25.140625 12.171875 29.828125 
Q 18.359375 34.515625 30.609375 34.515625 
L 43.21875 34.515625 
L 43.21875 35.40625 
Q 43.21875 41.609375 39.140625 45 
Q 35.0625 48.390625 27.6875 48.390625 
Q 23 48.390625 18.546875 47.265625 
Q 14.109375 46.140625 10.015625 43.890625 
L 10.015625 52.203125 
Q 14.9375 54.109375 19.578125 55.046875 
Q 24.21875 56 28.609375 56 
Q 40.484375 56 46.34375 49.84375 
Q 52.203125 43.703125 52.203125 31.203125 
z
" id="DejaVuSans-97"/>
     <path d="M 9.421875 75.984375 
L 18.40625 75.984375 
L 18.40625 0 
L 9.421875 0 
z
" id="DejaVuSans-108"/>
     <path d="M 9.8125 72.90625 
L 19.671875 72.90625 
L 19.671875 43.015625 
L 55.515625 43.015625 
L 55.515625 72.90625 
L 65.375 72.90625 
L 65.375 0 
L 55.515625 0 
L 55.515625 34.71875 
L 19.671875 34.71875 
L 19.671875 0 
L 9.8125 0 
z
" id="DejaVuSans-72"/>
     <path d="M 53.515625 70.515625 
L 53.515625 60.890625 
Q 47.90625 63.578125 42.921875 64.890625 
Q 37.9375 66.21875 33.296875 66.21875 
Q 25.25 66.21875 20.875 63.09375 
Q 16.5 59.96875 16.5 54.203125 
Q 16.5 49.359375 19.40625 46.890625 
Q 22.3125 44.4375 30.421875 42.921875 
L 36.375 41.703125 
Q 47.40625 39.59375 52.65625 34.296875 
Q 57.90625 29 57.90625 20.125 
Q 57.90625 9.515625 50.796875 4.046875 
Q 43.703125 -1.421875 29.984375 -1.421875 
Q 24.8125 -1.421875 18.96875 -0.25 
Q 13.140625 0.921875 6.890625 3.21875 
L 6.890625 13.375 
Q 12.890625 10.015625 18.65625 8.296875 
Q 24.421875 6.59375 29.984375 6.59375 
Q 38.421875 6.59375 43.015625 9.90625 
Q 47.609375 13.234375 47.609375 19.390625 
Q 47.609375 24.75 44.3125 27.78125 
Q 41.015625 30.8125 33.5 32.328125 
L 27.484375 33.5 
Q 16.453125 35.6875 11.515625 40.375 
Q 6.59375 45.0625 6.59375 53.421875 
Q 6.59375 63.09375 13.40625 68.65625 
Q 20.21875 74.21875 32.171875 74.21875 
Q 37.3125 74.21875 42.625 73.28125 
Q 47.953125 72.359375 53.515625 70.515625 
z
" id="DejaVuSans-83"/>
     <path d="M 39.40625 66.21875 
Q 28.65625 66.21875 22.328125 58.203125 
Q 16.015625 50.203125 16.015625 36.375 
Q 16.015625 22.609375 22.328125 14.59375 
Q 28.65625 6.59375 39.40625 6.59375 
Q 50.140625 6.59375 56.421875 14.59375 
Q 62.703125 22.609375 62.703125 36.375 
Q 62.703125 50.203125 56.421875 58.203125 
Q 50.140625 66.21875 39.40625 66.21875 
z
M 53.21875 1.3125 
L 66.21875 -12.890625 
L 54.296875 -12.890625 
L 43.5 -1.21875 
Q 41.890625 -1.3125 41.03125 -1.359375 
Q 40.1875 -1.421875 39.40625 -1.421875 
Q 24.03125 -1.421875 14.8125 8.859375 
Q 5.609375 19.140625 5.609375 36.375 
Q 5.609375 53.65625 14.8125 63.9375 
Q 24.03125 74.21875 39.40625 74.21875 
Q 54.734375 74.21875 63.90625 63.9375 
Q 73.09375 53.65625 73.09375 36.375 
Q 73.09375 23.6875 67.984375 14.640625 
Q 62.890625 5.609375 53.21875 1.3125 
z
" id="DejaVuSans-81"/>
     <path d="M 64.40625 67.28125 
L 64.40625 56.890625 
Q 59.421875 61.53125 53.78125 63.8125 
Q 48.140625 66.109375 41.796875 66.109375 
Q 29.296875 66.109375 22.65625 58.46875 
Q 16.015625 50.828125 16.015625 36.375 
Q 16.015625 21.96875 22.65625 14.328125 
Q 29.296875 6.6875 41.796875 6.6875 
Q 48.140625 6.6875 53.78125 8.984375 
Q 59.421875 11.28125 64.40625 15.921875 
L 64.40625 5.609375 
Q 59.234375 2.09375 53.4375 0.328125 
Q 47.65625 -1.421875 41.21875 -1.421875 
Q 24.65625 -1.421875 15.125 8.703125 
Q 5.609375 18.84375 5.609375 36.375 
Q 5.609375 53.953125 15.125 64.078125 
Q 24.65625 74.21875 41.21875 74.21875 
Q 47.75 74.21875 53.53125 72.484375 
Q 59.328125 70.75 64.40625 67.28125 
z
" id="DejaVuSans-67"/>
    </defs>
    <g transform="translate(111.443125 20.88)scale(0.12 -0.12)">
     <use xlink:href="#DejaVuSans-65"/>
     <use x="68.408203" xlink:href="#DejaVuSans-110"/>
     <use x="131.787109" xlink:href="#DejaVuSans-32"/>
     <use x="163.574219" xlink:href="#DejaVuSans-101"/>
     <use x="223.347656" xlink:href="#DejaVuSans-120"/>
     <use x="282.527344" xlink:href="#DejaVuSans-97"/>
     <use x="343.806641" xlink:href="#DejaVuSans-109"/>
     <use x="441.21875" xlink:href="#DejaVuSans-112"/>
     <use x="504.695312" xlink:href="#DejaVuSans-108"/>
     <use x="532.478516" xlink:href="#DejaVuSans-101"/>
     <use x="594.001953" xlink:href="#DejaVuSans-32"/>
     <use x="625.789062" xlink:href="#DejaVuSans-72"/>
     <use x="700.984375" xlink:href="#DejaVuSans-83"/>
     <use x="764.460938" xlink:href="#DejaVuSans-81"/>
     <use x="843.171875" xlink:href="#DejaVuSans-67"/>
    </g>
   </g>
  </g>
 </g>
 <defs>
  <clipPath id="pb0c4e20b57">
   <rect height="214.78" width="221.95" x="55.25" y="26.88"/>
  </clipPath>
 </defs>
</svg>
