<?xml version="1.0" encoding="utf-8" standalone="no"?>
<!DOCTYPE svg PUBLIC "-//W3C//DTD SVG 1.1//EN"
  "http://www.w3.org/Graphics/SVG/1.1/DTD/svg11.dtd">
<svg xmlns:xlink="http://www.w3.org/1999/xlink" width="432pt" height="237.6pt" viewBox="0 0 432 237.6" xmlns="http://www.w3.org/2000/svg" version="1.1">
 <metadata>
  <rdf:RDF xmlns:dc="http://purl.org/dc/elements/1.1/" xmlns:cc="http://creativecommons.org/ns#" xmlns:rdf="http://www.w3.org/1999/02/22-rdf-syntax-ns#">
   <cc:Work>
    <dc:type rdf:resource="http://purl.org/dc/dcmitype/StillImage"/>
    <dc:date>2022-07-29T16:43:24.113034</dc:date>
    <dc:format>image/svg+xml</dc:format>
    <dc:creator>
     <cc:Agent>
      <dc:title>Matplotlib v3.5.2, https://matplotlib.org/</dc:title>
     </cc:Agent>
    </dc:creator>
   </cc:Work>
  </rdf:RDF>
 </metadata>
 <defs>
  <style type="text/css">*{stroke-linejoin: round; stroke-linecap: butt}</style>
 </defs>
 <g id="figure_1">
  <g id="patch_1">
   <path d="M 0 237.6 
L 432 237.6 
L 432 0 
L 0 0 
z
" style="fill: #ffffff"/>
  </g>
  <g id="axes_1">
   <g id="patch_2">
    <path d="M 13.563463 50.502667 
L 137.926437 50.502667 
L 137.926437 10.8 
L 13.563463 10.8 
z
" style="fill: #ffffff"/>
   </g>
   <g id="matplotlib.axis_1">
    <g id="xtick_1">
     <g id="line2d_1">
      <defs>
       <path id="mc434f9660f" d="M 0 0 
L 0 5 
" style="stroke: #000000; stroke-width: 1.3"/>
      </defs>
      <g>
       <use xlink:href="#mc434f9660f" x="103.806619" y="50.502667" style="stroke: #000000; stroke-width: 1.3"/>
      </g>
     </g>
     <g id="text_1">
      <!-- 5.1 -->
      <g transform="translate(95.855056 66.601104)scale(0.1 -0.1)">
       <defs>
        <path id="DejaVuSans-35" d="M 691 4666 
L 3169 4666 
L 3169 4134 
L 1269 4134 
L 1269 2991 
Q 1406 3038 1543 3061 
Q 1681 3084 1819 3084 
Q 2600 3084 3056 2656 
Q 3513 2228 3513 1497 
Q 3513 744 3044 326 
Q 2575 -91 1722 -91 
Q 1428 -91 1123 -41 
Q 819 9 494 109 
L 494 744 
Q 775 591 1075 516 
Q 1375 441 1709 441 
Q 2250 441 2565 725 
Q 2881 1009 2881 1497 
Q 2881 1984 2565 2268 
Q 2250 2553 1709 2553 
Q 1456 2553 1204 2497 
Q 953 2441 691 2322 
L 691 4666 
z
" transform="scale(0.015625)"/>
        <path id="DejaVuSans-2e" d="M 684 794 
L 1344 794 
L 1344 0 
L 684 0 
L 684 794 
z
" transform="scale(0.015625)"/>
        <path id="DejaVuSans-31" d="M 794 531 
L 1825 531 
L 1825 4091 
L 703 3866 
L 703 4441 
L 1819 4666 
L 2450 4666 
L 2450 531 
L 3481 531 
L 3481 0 
L 794 0 
L 794 531 
z
" transform="scale(0.015625)"/>
       </defs>
       <use xlink:href="#DejaVuSans-35"/>
       <use xlink:href="#DejaVuSans-2e" x="63.623047"/>
       <use xlink:href="#DejaVuSans-31" x="95.410156"/>
      </g>
     </g>
    </g>
    <g id="xtick_2">
     <g id="line2d_2">
      <g>
       <use xlink:href="#mc434f9660f" x="47.25275" y="50.502667" style="stroke: #000000; stroke-width: 1.3"/>
      </g>
     </g>
     <g id="text_2">
      <!-- 5.2 -->
      <g transform="translate(39.301187 66.601104)scale(0.1 -0.1)">
       <defs>
        <path id="DejaVuSans-32" d="M 1228 531 
L 3431 531 
L 3431 0 
L 469 0 
L 469 531 
Q 828 903 1448 1529 
Q 2069 2156 2228 2338 
Q 2531 2678 2651 2914 
Q 2772 3150 2772 3378 
Q 2772 3750 2511 3984 
Q 2250 4219 1831 4219 
Q 1534 4219 1204 4116 
Q 875 4013 500 3803 
L 500 4441 
Q 881 4594 1212 4672 
Q 1544 4750 1819 4750 
Q 2544 4750 2975 4387 
Q 3406 4025 3406 3419 
Q 3406 3131 3298 2873 
Q 3191 2616 2906 2266 
Q 2828 2175 2409 1742 
Q 1991 1309 1228 531 
z
" transform="scale(0.015625)"/>
       </defs>
       <use xlink:href="#DejaVuSans-35"/>
       <use xlink:href="#DejaVuSans-2e" x="63.623047"/>
       <use xlink:href="#DejaVuSans-32" x="95.410156"/>
      </g>
     </g>
    </g>
    <g id="xtick_3">
     <g id="line2d_3">
      <defs>
       <path id="m2d0ea31135" d="M 0 0 
L 0 3 
" style="stroke: #000000; stroke-width: 1.3"/>
      </defs>
      <g>
       <use xlink:href="#m2d0ea31135" x="137.73894" y="50.502667" style="stroke: #000000; stroke-width: 1.3"/>
      </g>
     </g>
    </g>
    <g id="xtick_4">
     <g id="line2d_4">
      <g>
       <use xlink:href="#m2d0ea31135" x="126.428166" y="50.502667" style="stroke: #000000; stroke-width: 1.3"/>
      </g>
     </g>
    </g>
    <g id="xtick_5">
     <g id="line2d_5">
      <g>
       <use xlink:href="#m2d0ea31135" x="115.117393" y="50.502667" style="stroke: #000000; stroke-width: 1.3"/>
      </g>
     </g>
    </g>
    <g id="xtick_6">
     <g id="line2d_6">
      <g>
       <use xlink:href="#m2d0ea31135" x="92.495845" y="50.502667" style="stroke: #000000; stroke-width: 1.3"/>
      </g>
     </g>
    </g>
    <g id="xtick_7">
     <g id="line2d_7">
      <g>
       <use xlink:href="#m2d0ea31135" x="81.185071" y="50.502667" style="stroke: #000000; stroke-width: 1.3"/>
      </g>
     </g>
    </g>
    <g id="xtick_8">
     <g id="line2d_8">
      <g>
       <use xlink:href="#m2d0ea31135" x="69.874297" y="50.502667" style="stroke: #000000; stroke-width: 1.3"/>
      </g>
     </g>
    </g>
    <g id="xtick_9">
     <g id="line2d_9">
      <g>
       <use xlink:href="#m2d0ea31135" x="58.563523" y="50.502667" style="stroke: #000000; stroke-width: 1.3"/>
      </g>
     </g>
    </g>
    <g id="xtick_10">
     <g id="line2d_10">
      <g>
       <use xlink:href="#m2d0ea31135" x="35.941976" y="50.502667" style="stroke: #000000; stroke-width: 1.3"/>
      </g>
     </g>
    </g>
    <g id="xtick_11">
     <g id="line2d_11">
      <g>
       <use xlink:href="#m2d0ea31135" x="24.631202" y="50.502667" style="stroke: #000000; stroke-width: 1.3"/>
      </g>
     </g>
    </g>
   </g>
   <g id="matplotlib.axis_2"/>
   <g id="line2d_12">
    <path d="M 19.216325 42.641329 
L 19.553307 43.111294 
L 19.721797 43.179126 
L 19.890288 43.086816 
L 20.22727 42.423859 
L 20.564251 41.626718 
L 20.732742 41.444372 
L 20.901232 41.479636 
L 21.238214 42.037639 
L 21.743686 42.894778 
L 23.091611 43.966662 
L 23.428593 43.638026 
L 24.102555 42.728092 
L 24.945009 42.527375 
L 25.450481 41.940514 
L 25.618971 42.023224 
L 26.461425 43.221241 
L 26.966897 42.82867 
L 27.472369 42.821985 
L 27.80935 42.289544 
L 28.146332 41.68884 
L 28.483313 41.628959 
L 28.651804 41.666403 
L 28.820294 41.586701 
L 29.157276 40.902764 
L 29.662748 39.597056 
L 29.999729 39.249333 
L 30.336711 39.30166 
L 30.673692 39.820154 
L 31.516145 42.003103 
L 31.684636 42.073686 
L 32.021617 41.784082 
L 32.527089 41.268195 
L 33.032561 40.997062 
L 33.875015 40.205634 
L 34.043506 40.298272 
L 34.380487 40.863207 
L 34.885959 41.874494 
L 35.728412 42.738454 
L 36.233884 44.038587 
L 36.402375 44.182042 
L 36.570866 44.101479 
L 37.076338 43.461 
L 37.244829 43.460237 
L 37.58181 43.966265 
L 38.255773 45.717062 
L 38.424263 45.808217 
L 38.592754 45.605325 
L 39.266717 43.759273 
L 39.435207 43.705621 
L 40.277661 44.481893 
L 40.951624 45.190799 
L 41.120114 44.881006 
L 41.457096 43.089631 
L 41.962568 39.685044 
L 42.299549 38.750903 
L 42.46804 38.750618 
L 42.805021 39.270591 
L 43.142003 39.776836 
L 43.310493 39.819055 
L 43.815965 39.487656 
L 43.984456 39.604207 
L 44.321437 40.449855 
L 44.826909 41.742745 
L 45.163891 42.271497 
L 45.500872 43.30373 
L 46.006344 44.944757 
L 46.174835 45.100546 
L 46.680307 45.165582 
L 47.185779 45.69863 
L 47.35427 45.651417 
L 47.691251 45.092908 
L 49.039176 42.595822 
L 49.207667 42.830009 
L 49.713139 44.015164 
L 49.88163 43.973161 
L 50.387102 43.348403 
L 51.061065 43.810393 
L 51.735027 42.241029 
L 52.072009 42.369782 
L 52.40899 42.425148 
L 52.745972 42.517777 
L 53.251444 43.077858 
L 53.419934 42.798308 
L 54.093897 40.304831 
L 54.262388 40.381584 
L 55.104841 42.483497 
L 55.441822 42.391985 
L 55.778804 42.275913 
L 56.115785 42.641948 
L 56.452767 43.203205 
L 56.621257 43.297307 
L 56.789748 43.191893 
L 57.969183 41.447597 
L 58.137673 41.556823 
L 58.474655 42.310972 
L 58.811636 43.077803 
L 59.148618 43.262474 
L 59.485599 43.477583 
L 59.82258 43.727358 
L 59.991071 43.500279 
L 60.665034 41.496989 
L 60.833524 41.643024 
L 61.338996 42.555391 
L 61.844468 42.698316 
L 62.349941 43.308649 
L 63.023903 43.295116 
L 63.360885 43.914496 
L 63.529375 43.97265 
L 63.697866 43.6666 
L 64.371829 41.615385 
L 64.540319 41.76177 
L 65.045791 42.804033 
L 65.214282 42.879612 
L 65.551264 42.551272 
L 65.888245 42.157757 
L 66.562208 41.891198 
L 66.899189 40.919538 
L 67.573152 38.286052 
L 68.247114 36.598628 
L 68.415605 36.439648 
L 68.584096 36.591198 
L 68.921077 37.860585 
L 69.426549 40.225513 
L 69.59504 40.525056 
L 69.763531 40.43354 
L 70.100512 39.106018 
L 70.605984 36.284211 
L 70.774475 35.916757 
L 70.942965 35.953468 
L 71.279947 36.460045 
L 71.448437 36.393656 
L 71.616928 35.875515 
L 71.95391 33.523246 
L 72.459382 27.395314 
L 73.301835 14.486488 
L 73.470326 13.90616 
L 73.638816 14.373512 
L 73.975798 17.66182 
L 74.986742 30.864992 
L 75.492214 33.645802 
L 75.997686 35.466916 
L 76.166177 35.668439 
L 76.334667 35.566838 
L 76.671649 34.746314 
L 77.00863 33.449172 
L 77.345611 31.005268 
L 77.851083 24.27275 
L 78.525046 14.59424 
L 78.862028 12.604667 
L 79.030518 13.123079 
L 79.3675 17.241952 
L 80.209953 31.642391 
L 80.715425 36.305437 
L 81.220897 39.047021 
L 81.557879 40.190726 
L 81.89486 40.654368 
L 82.231841 40.924898 
L 83.242785 42.380327 
L 83.579767 42.488639 
L 83.916748 42.90332 
L 84.253729 43.727034 
L 84.927692 45.9036 
L 85.096183 45.781166 
L 85.433164 44.173333 
L 85.770146 42.229123 
L 85.938636 41.807714 
L 86.107127 41.870747 
L 86.94958 43.707695 
L 88.129015 43.88946 
L 88.465997 44.335293 
L 88.802978 44.946731 
L 88.971469 45.069109 
L 89.139959 44.959263 
L 89.476941 44.115422 
L 89.982413 42.677022 
L 90.150903 42.51976 
L 90.319394 42.641123 
L 90.656375 43.81354 
L 91.161848 46.291483 
L 91.330338 46.610178 
L 91.498829 46.596499 
L 91.83581 46.233728 
L 92.004301 46.211244 
L 92.341282 46.425792 
L 92.509773 46.358929 
L 92.846754 45.522709 
L 93.183736 44.539722 
L 93.352226 44.335034 
L 93.689208 44.431482 
L 93.857698 44.503183 
L 94.026189 44.45007 
L 94.363171 43.855872 
L 94.868643 42.828348 
L 95.037133 42.962739 
L 95.374115 44.113971 
L 95.711096 45.203786 
L 95.879587 45.265537 
L 96.216568 44.608922 
L 96.72204 43.71061 
L 97.059021 42.954942 
L 97.396003 41.992136 
L 97.564494 41.794397 
L 97.732984 41.904696 
L 98.575438 43.525093 
L 98.912419 43.630458 
L 99.2494 43.47963 
L 99.754872 43.165133 
L 100.260344 43.156796 
L 100.597326 42.51696 
L 101.271289 40.791992 
L 101.60827 40.572366 
L 101.945251 40.712746 
L 103.461667 41.790952 
L 103.798649 41.806568 
L 103.967139 42.076422 
L 104.641102 44.066514 
L 104.809593 43.936993 
L 105.483556 42.376384 
L 105.652046 42.430922 
L 106.157518 42.840139 
L 106.326009 42.769319 
L 106.66299 42.293012 
L 107.336953 41.245394 
L 108.179407 40.787433 
L 108.347897 40.893717 
L 108.684879 41.715338 
L 109.695823 45.633933 
L 109.864313 45.786852 
L 110.032804 45.625544 
L 110.538276 44.025799 
L 111.212239 42.341518 
L 111.717711 41.293828 
L 112.054692 41.163083 
L 112.391674 41.00719 
L 113.234127 40.087624 
L 113.402618 40.098384 
L 113.571108 40.243549 
L 113.90809 41.185077 
L 114.582053 43.952656 
L 114.750543 44.08213 
L 115.087525 43.734774 
L 115.592997 42.962521 
L 115.761487 42.839552 
L 115.929978 42.903839 
L 116.098469 43.226624 
L 116.603941 45.344815 
L 116.940922 46.541992 
L 117.277904 47.183095 
L 117.614885 47.422495 
L 117.783376 47.336827 
L 118.457338 46.481039 
L 118.625829 46.544147 
L 118.96281 47.093339 
L 119.636773 48.698 
L 119.805264 48.688485 
L 119.973754 48.290179 
L 120.479227 45.47007 
L 120.984699 43.127011 
L 121.32168 42.250386 
L 121.490171 42.082041 
L 121.658661 42.173112 
L 121.995643 42.97227 
L 122.332624 43.746213 
L 123.512059 44.998508 
L 124.017531 44.028259 
L 124.523003 43.379069 
L 124.859984 43.092519 
L 125.028475 43.083693 
L 125.365456 43.51686 
L 125.702438 44.02718 
L 125.870928 44.01052 
L 126.20791 43.325238 
L 126.713382 42.149941 
L 126.881873 42.042617 
L 127.218854 42.170053 
L 127.724326 42.370302 
L 128.398289 42.440088 
L 128.73527 42.525512 
L 129.072251 42.375927 
L 129.577723 42.104271 
L 130.420177 42.268038 
L 130.757158 42.593775 
L 131.768102 44.281202 
L 132.273574 44.663355 
L 132.273574 44.663355 
" clip-path="url(#p08390c3c36)" style="fill: none; stroke: #4c72b0; stroke-linecap: square"/>
   </g>
   <g id="patch_3">
    <path d="M 13.563463 50.502667 
L 137.926437 50.502667 
" style="fill: none; stroke: #000000; stroke-width: 1.3; stroke-linejoin: miter; stroke-linecap: square"/>
   </g>
   <g id="text_3">
    <!-- (a) -->
    <g transform="translate(16.050722 19.192491)scale(0.1 -0.1)">
     <defs>
      <path id="DejaVuSans-Bold-28" d="M 2413 -844 
L 1484 -844 
Q 1006 -72 778 623 
Q 550 1319 550 2003 
Q 550 2688 779 3389 
Q 1009 4091 1484 4856 
L 2413 4856 
Q 2013 4116 1813 3408 
Q 1613 2700 1613 2009 
Q 1613 1319 1811 609 
Q 2009 -100 2413 -844 
z
" transform="scale(0.015625)"/>
      <path id="DejaVuSans-Bold-61" d="M 2106 1575 
Q 1756 1575 1579 1456 
Q 1403 1338 1403 1106 
Q 1403 894 1545 773 
Q 1688 653 1941 653 
Q 2256 653 2472 879 
Q 2688 1106 2688 1447 
L 2688 1575 
L 2106 1575 
z
M 3816 1997 
L 3816 0 
L 2688 0 
L 2688 519 
Q 2463 200 2181 54 
Q 1900 -91 1497 -91 
Q 953 -91 614 226 
Q 275 544 275 1050 
Q 275 1666 698 1953 
Q 1122 2241 2028 2241 
L 2688 2241 
L 2688 2328 
Q 2688 2594 2478 2717 
Q 2269 2841 1825 2841 
Q 1466 2841 1156 2769 
Q 847 2697 581 2553 
L 581 3406 
Q 941 3494 1303 3539 
Q 1666 3584 2028 3584 
Q 2975 3584 3395 3211 
Q 3816 2838 3816 1997 
z
" transform="scale(0.015625)"/>
      <path id="DejaVuSans-Bold-29" d="M 513 -844 
Q 913 -100 1113 609 
Q 1313 1319 1313 2009 
Q 1313 2700 1113 3408 
Q 913 4116 513 4856 
L 1441 4856 
Q 1916 4091 2145 3389 
Q 2375 2688 2375 2003 
Q 2375 1319 2147 623 
Q 1919 -72 1441 -844 
L 513 -844 
z
" transform="scale(0.015625)"/>
     </defs>
     <use xlink:href="#DejaVuSans-Bold-28"/>
     <use xlink:href="#DejaVuSans-Bold-61" x="45.703125"/>
     <use xlink:href="#DejaVuSans-Bold-29" x="113.183594"/>
    </g>
   </g>
  </g>
  <g id="axes_2">
   <g id="patch_4">
    <path d="M 153.943537 50.502667 
L 278.306511 50.502667 
L 278.306511 10.8 
L 153.943537 10.8 
z
" style="fill: #ffffff"/>
   </g>
   <g id="matplotlib.axis_3">
    <g id="xtick_12">
     <g id="line2d_13">
      <g>
       <use xlink:href="#mc434f9660f" x="244.228419" y="50.502667" style="stroke: #000000; stroke-width: 1.3"/>
      </g>
     </g>
     <g id="text_4">
      <!-- 5.1 -->
      <g transform="translate(236.276856 66.601104)scale(0.1 -0.1)">
       <use xlink:href="#DejaVuSans-35"/>
       <use xlink:href="#DejaVuSans-2e" x="63.623047"/>
       <use xlink:href="#DejaVuSans-31" x="95.410156"/>
      </g>
     </g>
    </g>
    <g id="xtick_13">
     <g id="line2d_14">
      <g>
       <use xlink:href="#mc434f9660f" x="187.67455" y="50.502667" style="stroke: #000000; stroke-width: 1.3"/>
      </g>
     </g>
     <g id="text_5">
      <!-- 5.2 -->
      <g transform="translate(179.722987 66.601104)scale(0.1 -0.1)">
       <use xlink:href="#DejaVuSans-35"/>
       <use xlink:href="#DejaVuSans-2e" x="63.623047"/>
       <use xlink:href="#DejaVuSans-32" x="95.410156"/>
      </g>
     </g>
    </g>
    <g id="xtick_14">
     <g id="line2d_15">
      <g>
       <use xlink:href="#m2d0ea31135" x="278.16074" y="50.502667" style="stroke: #000000; stroke-width: 1.3"/>
      </g>
     </g>
    </g>
    <g id="xtick_15">
     <g id="line2d_16">
      <g>
       <use xlink:href="#m2d0ea31135" x="266.849966" y="50.502667" style="stroke: #000000; stroke-width: 1.3"/>
      </g>
     </g>
    </g>
    <g id="xtick_16">
     <g id="line2d_17">
      <g>
       <use xlink:href="#m2d0ea31135" x="255.539193" y="50.502667" style="stroke: #000000; stroke-width: 1.3"/>
      </g>
     </g>
    </g>
    <g id="xtick_17">
     <g id="line2d_18">
      <g>
       <use xlink:href="#m2d0ea31135" x="232.917645" y="50.502667" style="stroke: #000000; stroke-width: 1.3"/>
      </g>
     </g>
    </g>
    <g id="xtick_18">
     <g id="line2d_19">
      <g>
       <use xlink:href="#m2d0ea31135" x="221.606871" y="50.502667" style="stroke: #000000; stroke-width: 1.3"/>
      </g>
     </g>
    </g>
    <g id="xtick_19">
     <g id="line2d_20">
      <g>
       <use xlink:href="#m2d0ea31135" x="210.296097" y="50.502667" style="stroke: #000000; stroke-width: 1.3"/>
      </g>
     </g>
    </g>
    <g id="xtick_20">
     <g id="line2d_21">
      <g>
       <use xlink:href="#m2d0ea31135" x="198.985323" y="50.502667" style="stroke: #000000; stroke-width: 1.3"/>
      </g>
     </g>
    </g>
    <g id="xtick_21">
     <g id="line2d_22">
      <g>
       <use xlink:href="#m2d0ea31135" x="176.363776" y="50.502667" style="stroke: #000000; stroke-width: 1.3"/>
      </g>
     </g>
    </g>
    <g id="xtick_22">
     <g id="line2d_23">
      <g>
       <use xlink:href="#m2d0ea31135" x="165.053002" y="50.502667" style="stroke: #000000; stroke-width: 1.3"/>
      </g>
     </g>
    </g>
   </g>
   <g id="matplotlib.axis_4"/>
   <g id="line2d_24">
    <path d="M 159.596399 43.76932 
L 160.607344 41.340995 
L 160.944325 41.167173 
L 161.281306 41.549825 
L 161.955269 42.536314 
L 162.29225 42.974731 
L 162.797722 43.832105 
L 162.966213 43.930349 
L 163.134704 43.865394 
L 164.145648 42.849028 
L 164.482629 42.588987 
L 164.819611 41.691964 
L 165.325083 39.938057 
L 165.493573 39.834433 
L 165.662064 40.13726 
L 165.999045 41.676113 
L 166.504518 44.098586 
L 166.841499 44.775096 
L 167.00999 44.796309 
L 167.346971 44.326263 
L 167.852443 43.475808 
L 168.020934 43.436614 
L 168.357915 43.66452 
L 168.694896 44.132881 
L 169.031878 45.016993 
L 169.53735 46.425708 
L 169.705841 46.505074 
L 170.042822 46.095645 
L 171.390747 43.995998 
L 171.559238 43.959033 
L 172.401691 44.284318 
L 172.738673 44.010466 
L 173.075654 43.282195 
L 173.581126 42.040939 
L 173.749617 42.009288 
L 174.086598 42.55101 
L 174.42358 43.110958 
L 174.59207 43.193584 
L 174.929052 43.000508 
L 175.266033 42.412051 
L 175.771505 41.269105 
L 175.939996 41.238871 
L 176.108487 41.514012 
L 176.613959 42.955433 
L 176.782449 43.098174 
L 177.456412 42.882128 
L 178.467356 44.446059 
L 178.804337 44.79997 
L 179.646791 46.181145 
L 179.815282 45.953382 
L 180.152263 44.576071 
L 180.657735 42.18626 
L 180.826226 41.974541 
L 180.994716 42.105304 
L 181.500188 43.060063 
L 181.83717 43.139446 
L 182.342642 42.900616 
L 182.511133 42.727312 
L 182.848114 41.781757 
L 183.859058 36.802075 
L 184.027549 36.903852 
L 185.712456 40.718926 
L 185.880946 40.80499 
L 186.386418 40.621762 
L 186.7234 41.308585 
L 187.060381 42.207463 
L 187.228872 42.409195 
L 187.397362 42.399146 
L 188.239816 41.720583 
L 188.408306 42.000225 
L 188.745288 43.256238 
L 189.082269 44.623063 
L 189.25076 44.916087 
L 189.419251 44.861907 
L 190.093213 43.850808 
L 191.272648 44.188359 
L 191.441139 44.139758 
L 191.609629 43.960172 
L 191.946611 43.116848 
L 192.452083 41.635263 
L 192.620574 41.498666 
L 192.789064 41.67862 
L 193.126046 42.95199 
L 193.463027 44.502811 
L 193.631518 44.853346 
L 193.800008 44.767359 
L 194.473971 43.248702 
L 194.979443 43.848585 
L 195.147934 43.745028 
L 195.484915 42.841937 
L 195.821897 41.940918 
L 196.158878 41.604667 
L 196.66435 41.504153 
L 197.001331 41.773186 
L 197.506803 42.885026 
L 197.843785 43.535813 
L 198.012275 43.665972 
L 198.180766 43.624681 
L 198.517747 43.081968 
L 199.02322 42.019371 
L 199.360201 41.816294 
L 199.697182 42.094883 
L 200.202654 42.756552 
L 200.371145 42.807494 
L 200.708126 42.484685 
L 201.213598 41.84926 
L 201.382089 41.905347 
L 201.71907 42.462024 
L 202.224543 43.367976 
L 202.393033 43.44828 
L 202.730015 43.269141 
L 203.403977 42.372021 
L 204.07794 41.216104 
L 204.414921 41.173001 
L 204.751903 41.196985 
L 205.088884 40.779939 
L 205.425866 40.26282 
L 205.762847 40.184202 
L 206.268319 40.295091 
L 206.773791 39.879858 
L 207.279263 39.523016 
L 207.616244 39.585582 
L 208.121716 39.842672 
L 208.458698 39.585388 
L 209.301151 38.219854 
L 209.806623 37.435991 
L 209.975114 37.489326 
L 210.649077 38.390867 
L 210.817567 38.157731 
L 211.154549 37.073165 
L 211.828512 34.038347 
L 212.333984 30.16332 
L 213.513418 20.144549 
L 213.8504 18.567495 
L 214.01889 18.375223 
L 214.187381 18.691392 
L 214.524362 20.907026 
L 215.872288 33.794662 
L 216.209269 34.618175 
L 216.546251 34.768997 
L 216.883232 34.768701 
L 217.051723 34.612788 
L 217.220213 34.205088 
L 217.557195 32.453026 
L 218.231158 26.99152 
L 219.073611 19.552856 
L 219.242102 19.187048 
L 219.410592 19.376293 
L 219.747574 20.910469 
L 220.084555 23.608795 
L 221.26399 35.575163 
L 221.769462 37.128543 
L 222.443425 40.047752 
L 223.117387 41.306543 
L 223.959841 43.983816 
L 224.128331 44.056764 
L 225.139276 43.830207 
L 225.476257 43.979904 
L 225.981729 44.39467 
L 226.15022 44.254996 
L 226.824182 42.853472 
L 226.992673 43.05656 
L 227.498145 44.365809 
L 227.666636 44.457235 
L 228.003617 44.116647 
L 228.340599 43.821724 
L 228.67758 43.627193 
L 229.183052 42.915196 
L 229.688524 41.995123 
L 230.193996 40.948387 
L 230.362487 40.86156 
L 231.03645 41.162835 
L 232.384375 40.085479 
L 232.552866 40.234444 
L 232.889847 41.157406 
L 233.395319 42.77196 
L 233.7323 43.161639 
L 234.237773 43.477246 
L 235.080226 44.249969 
L 236.09117 44.283192 
L 236.259661 44.187766 
L 236.933623 43.190463 
L 237.102114 43.388852 
L 237.439096 44.737157 
L 237.944568 46.863885 
L 238.113058 47.017733 
L 238.281549 46.881984 
L 239.797965 43.90428 
L 240.134946 43.04602 
L 240.303437 42.860451 
L 240.471928 42.901582 
L 240.808909 43.578856 
L 241.145891 44.448048 
L 241.314381 44.644986 
L 241.482872 44.57971 
L 242.156835 43.394687 
L 242.493816 43.564377 
L 242.830797 43.671301 
L 243.167779 43.578407 
L 243.336269 43.703275 
L 244.347214 45.518978 
L 245.021176 47.39126 
L 245.189667 47.183911 
L 245.695139 45.542568 
L 245.86363 45.456155 
L 246.200611 46.093689 
L 246.537592 46.617652 
L 246.874574 46.538309 
L 247.211555 46.178864 
L 247.548537 45.403578 
L 248.222499 43.488426 
L 248.559481 43.320546 
L 248.896462 43.616136 
L 249.233443 43.988594 
L 249.401934 44.012464 
L 249.570425 43.854649 
L 250.412878 42.348784 
L 250.74986 42.253255 
L 251.423822 42.285469 
L 251.760804 41.915799 
L 252.097785 41.407581 
L 252.266276 41.370998 
L 252.603257 41.852014 
L 252.940238 42.367121 
L 253.27722 42.442894 
L 253.782692 42.306908 
L 254.119673 41.69148 
L 254.456655 41.106362 
L 254.625145 41.285543 
L 254.962127 42.806739 
L 255.299108 44.614006 
L 255.467599 45.105241 
L 255.636089 45.249759 
L 255.973071 44.929459 
L 256.310052 44.723312 
L 256.647034 45.12969 
L 256.984015 45.650427 
L 257.152506 45.666426 
L 257.320996 45.442042 
L 258.16345 43.402299 
L 258.33194 43.27968 
L 258.500431 43.313865 
L 258.668922 43.561756 
L 259.005903 44.798725 
L 259.342884 46.247661 
L 259.511375 46.513391 
L 259.679866 46.303147 
L 260.522319 43.398235 
L 260.69081 43.394791 
L 261.027791 43.759009 
L 261.533263 44.371992 
L 261.701754 44.392155 
L 262.207226 44.011797 
L 262.375717 44.105674 
L 262.712698 45.019638 
L 263.21817 46.783744 
L 263.723642 47.674171 
L 264.060624 47.932163 
L 264.229114 47.805821 
L 264.566096 46.86954 
L 265.74553 41.586864 
L 266.251003 39.394983 
L 266.419493 39.097624 
L 266.587984 39.058112 
L 266.924965 39.536399 
L 268.1044 42.2271 
L 268.441381 42.346816 
L 268.946853 42.279588 
L 269.620816 41.869489 
L 269.789307 41.941747 
L 270.126288 42.426426 
L 270.63176 43.255725 
L 270.800251 43.361512 
L 270.968742 43.310877 
L 271.305723 42.659882 
L 271.811195 41.201624 
L 272.148176 40.85845 
L 272.653648 40.680343 
L 272.653648 40.680343 
" clip-path="url(#p651acb1c19)" style="fill: none; stroke: #4c72b0; stroke-linecap: square"/>
   </g>
   <g id="patch_5">
    <path d="M 153.943537 50.502667 
L 278.306511 50.502667 
" style="fill: none; stroke: #000000; stroke-width: 1.3; stroke-linejoin: miter; stroke-linecap: square"/>
   </g>
  </g>
  <g id="axes_3">
   <g id="patch_6">
    <path d="M 294.323611 50.502667 
L 418.686585 50.502667 
L 418.686585 10.8 
L 294.323611 10.8 
z
" style="fill: #ffffff"/>
   </g>
   <g id="matplotlib.axis_5">
    <g id="xtick_23">
     <g id="line2d_25">
      <g>
       <use xlink:href="#mc434f9660f" x="384.588423" y="50.502667" style="stroke: #000000; stroke-width: 1.3"/>
      </g>
     </g>
     <g id="text_6">
      <!-- 5.1 -->
      <g transform="translate(376.636861 66.601104)scale(0.1 -0.1)">
       <use xlink:href="#DejaVuSans-35"/>
       <use xlink:href="#DejaVuSans-2e" x="63.623047"/>
       <use xlink:href="#DejaVuSans-31" x="95.410156"/>
      </g>
     </g>
    </g>
    <g id="xtick_24">
     <g id="line2d_26">
      <g>
       <use xlink:href="#mc434f9660f" x="328.034554" y="50.502667" style="stroke: #000000; stroke-width: 1.3"/>
      </g>
     </g>
     <g id="text_7">
      <!-- 5.2 -->
      <g transform="translate(320.082992 66.601104)scale(0.1 -0.1)">
       <use xlink:href="#DejaVuSans-35"/>
       <use xlink:href="#DejaVuSans-2e" x="63.623047"/>
       <use xlink:href="#DejaVuSans-32" x="95.410156"/>
      </g>
     </g>
    </g>
    <g id="xtick_25">
     <g id="line2d_27">
      <g>
       <use xlink:href="#m2d0ea31135" x="418.520745" y="50.502667" style="stroke: #000000; stroke-width: 1.3"/>
      </g>
     </g>
    </g>
    <g id="xtick_26">
     <g id="line2d_28">
      <g>
       <use xlink:href="#m2d0ea31135" x="407.209971" y="50.502667" style="stroke: #000000; stroke-width: 1.3"/>
      </g>
     </g>
    </g>
    <g id="xtick_27">
     <g id="line2d_29">
      <g>
       <use xlink:href="#m2d0ea31135" x="395.899197" y="50.502667" style="stroke: #000000; stroke-width: 1.3"/>
      </g>
     </g>
    </g>
    <g id="xtick_28">
     <g id="line2d_30">
      <g>
       <use xlink:href="#m2d0ea31135" x="373.277649" y="50.502667" style="stroke: #000000; stroke-width: 1.3"/>
      </g>
     </g>
    </g>
    <g id="xtick_29">
     <g id="line2d_31">
      <g>
       <use xlink:href="#m2d0ea31135" x="361.966876" y="50.502667" style="stroke: #000000; stroke-width: 1.3"/>
      </g>
     </g>
    </g>
    <g id="xtick_30">
     <g id="line2d_32">
      <g>
       <use xlink:href="#m2d0ea31135" x="350.656102" y="50.502667" style="stroke: #000000; stroke-width: 1.3"/>
      </g>
     </g>
    </g>
    <g id="xtick_31">
     <g id="line2d_33">
      <g>
       <use xlink:href="#m2d0ea31135" x="339.345328" y="50.502667" style="stroke: #000000; stroke-width: 1.3"/>
      </g>
     </g>
    </g>
    <g id="xtick_32">
     <g id="line2d_34">
      <g>
       <use xlink:href="#m2d0ea31135" x="316.72378" y="50.502667" style="stroke: #000000; stroke-width: 1.3"/>
      </g>
     </g>
    </g>
    <g id="xtick_33">
     <g id="line2d_35">
      <g>
       <use xlink:href="#m2d0ea31135" x="305.413006" y="50.502667" style="stroke: #000000; stroke-width: 1.3"/>
      </g>
     </g>
    </g>
   </g>
   <g id="matplotlib.axis_6"/>
   <g id="line2d_36">
    <path d="M 299.976474 44.613008 
L 300.313455 43.83294 
L 300.481946 43.798642 
L 300.818927 44.40809 
L 301.155908 44.861073 
L 301.829871 44.687226 
L 302.503834 46.147695 
L 302.672324 46.16761 
L 303.177797 45.82828 
L 303.346287 46.002804 
L 304.02025 47.569806 
L 304.188741 47.478048 
L 304.862703 46.304014 
L 305.368175 46.713595 
L 305.536666 46.398898 
L 306.54761 42.833345 
L 307.390064 41.656463 
L 307.558554 41.71782 
L 307.895536 42.380441 
L 308.569498 44.353732 
L 308.737989 44.26346 
L 309.07497 43.094683 
L 309.411952 41.869155 
L 309.580443 41.651799 
L 309.917424 41.790116 
L 310.085915 41.847805 
L 310.422896 41.623174 
L 310.759877 41.358528 
L 311.096859 41.414664 
L 311.770821 41.842579 
L 312.107803 42.301057 
L 312.781766 43.626946 
L 312.950256 43.557985 
L 313.287238 42.670338 
L 313.624219 41.885924 
L 313.79271 41.902736 
L 314.129691 42.233556 
L 314.298182 42.031326 
L 314.635163 40.295135 
L 315.140635 36.976299 
L 315.477616 36.208172 
L 315.646107 36.296096 
L 315.983089 37.298185 
L 317.162523 42.847133 
L 317.667995 44.16131 
L 318.004977 44.558603 
L 318.341958 44.633992 
L 318.678939 44.362836 
L 319.015921 43.960086 
L 319.184412 43.916779 
L 319.858374 44.271701 
L 320.195356 43.548323 
L 320.532337 42.950742 
L 320.700828 42.989527 
L 321.543281 44.122544 
L 322.048753 44.403553 
L 322.722716 45.354525 
L 322.891207 45.265287 
L 323.228188 44.269491 
L 323.73366 42.403808 
L 324.070641 41.992336 
L 324.407623 42.060866 
L 324.744604 42.625951 
L 325.250076 43.649814 
L 325.418567 43.606203 
L 325.755548 43.213138 
L 325.924039 43.235544 
L 326.26102 44.045227 
L 326.598002 44.902191 
L 326.766492 44.990049 
L 327.103474 44.655496 
L 327.777436 43.640907 
L 328.282908 42.498504 
L 328.451399 42.379765 
L 328.788381 42.582098 
L 329.293853 43.205089 
L 330.136306 44.982759 
L 330.304797 44.644101 
L 330.810269 42.990128 
L 330.978759 42.81056 
L 331.315741 42.789031 
L 331.484231 42.582206 
L 331.989704 41.266152 
L 332.158194 41.230179 
L 332.326685 41.574265 
L 332.832157 43.294649 
L 333.000648 43.535628 
L 333.169138 43.566412 
L 333.67461 43.171916 
L 334.011592 42.682348 
L 335.191027 40.318065 
L 335.359517 40.40053 
L 335.696499 41.41113 
L 336.201971 43.290615 
L 336.707443 44.063235 
L 336.875933 44.199854 
L 337.044424 44.188206 
L 337.212915 43.954982 
L 337.718387 42.781921 
L 337.886877 42.869435 
L 338.223859 44.085893 
L 338.56084 45.347935 
L 338.729331 45.542272 
L 338.897822 45.446629 
L 339.571784 44.587783 
L 339.908766 44.236365 
L 340.414238 43.040148 
L 340.91971 42.017586 
L 341.256691 41.80975 
L 341.425182 41.860227 
L 341.762163 42.363699 
L 342.267635 43.51241 
L 342.436126 43.622398 
L 342.941598 43.420641 
L 343.110089 43.654478 
L 343.952542 45.789852 
L 344.121033 45.539726 
L 344.963486 43.186794 
L 345.131977 43.190166 
L 345.468958 43.779435 
L 345.80594 44.265168 
L 345.97443 44.198381 
L 346.311412 43.551936 
L 347.153865 41.568856 
L 347.322356 41.435294 
L 347.490846 41.493856 
L 347.827828 41.844059 
L 347.996319 41.864374 
L 348.3333 41.407942 
L 349.175753 39.770625 
L 349.681225 37.44612 
L 349.849716 37.164169 
L 350.018207 37.280698 
L 350.523679 38.227986 
L 350.692169 38.175793 
L 351.029151 37.457182 
L 351.703114 35.704363 
L 352.040095 35.231337 
L 352.208586 34.803038 
L 352.545567 32.705917 
L 353.051039 26.651157 
L 353.893492 16.091763 
L 354.230474 14.094505 
L 354.398965 14.021743 
L 354.567455 14.465084 
L 354.904437 16.528546 
L 355.241418 20.343052 
L 356.083871 32.365079 
L 356.420853 33.717917 
L 356.757834 33.984729 
L 356.926325 33.947401 
L 357.094815 33.739879 
L 357.431797 32.668844 
L 357.937269 29.811601 
L 358.442741 25.339483 
L 359.285194 17.309602 
L 359.622176 16.284925 
L 359.790666 16.58517 
L 360.127648 19.027918 
L 360.63312 26.161447 
L 361.138592 32.779332 
L 361.812555 37.748446 
L 362.318027 40.748031 
L 362.486517 41.09351 
L 362.655008 41.089603 
L 363.16048 40.667765 
L 363.497461 40.592996 
L 363.834443 39.989084 
L 364.171424 39.353678 
L 364.339915 39.386017 
L 364.676896 40.158877 
L 365.350859 41.842555 
L 365.856331 42.75039 
L 366.024822 42.833992 
L 366.530294 42.747689 
L 366.867275 43.298217 
L 367.204256 43.856791 
L 367.372747 43.782169 
L 368.04671 42.398596 
L 368.215201 42.501961 
L 369.057654 44.122691 
L 369.226145 44.174977 
L 369.394635 44.089639 
L 369.731617 43.4626 
L 370.068598 42.609839 
L 370.237089 42.421305 
L 370.405579 42.51485 
L 371.079542 43.591518 
L 371.416524 42.98432 
L 371.921996 41.982089 
L 372.427468 41.481111 
L 372.595958 41.459687 
L 372.764449 41.646169 
L 373.10143 42.722582 
L 373.606902 44.389868 
L 373.775393 44.434609 
L 373.943884 44.179932 
L 374.954828 41.589041 
L 375.628791 41.461815 
L 376.134263 40.789569 
L 376.302753 40.773869 
L 376.976716 41.298115 
L 377.482188 40.935307 
L 377.650679 41.174898 
L 378.324642 43.118796 
L 378.493132 43.105968 
L 378.830114 42.836637 
L 378.998604 42.930952 
L 379.504076 43.750576 
L 379.672567 43.626553 
L 380.009548 42.552638 
L 380.34653 41.410867 
L 380.515021 41.135125 
L 380.683511 41.084154 
L 381.020493 41.47822 
L 381.525965 42.291858 
L 381.694455 42.315481 
L 382.031437 41.908094 
L 382.536909 40.923863 
L 382.87389 39.657475 
L 383.379362 37.398004 
L 383.547853 37.348386 
L 383.716344 37.791393 
L 384.390306 40.518839 
L 384.895778 41.739432 
L 385.23276 42.668615 
L 385.40125 42.797309 
L 385.569741 42.607219 
L 385.906722 41.872992 
L 386.075213 41.812295 
L 386.243704 42.164632 
L 386.917667 44.919428 
L 387.086157 44.981234 
L 387.76012 44.271476 
L 388.265592 44.572354 
L 388.434083 44.489489 
L 388.771064 43.950763 
L 389.276536 42.446417 
L 389.782008 41.025669 
L 389.950499 40.977267 
L 390.455971 41.257347 
L 390.792952 40.612906 
L 391.129934 40.013789 
L 391.298424 40.077118 
L 391.803896 40.740085 
L 391.972387 40.622211 
L 392.477859 39.813729 
L 392.64635 39.917005 
L 392.983331 40.918492 
L 393.488803 42.73176 
L 394.162766 44.640716 
L 394.499747 45.623809 
L 394.668238 45.760807 
L 394.836729 45.583229 
L 395.510691 44.139299 
L 396.016163 43.618605 
L 396.353145 43.245397 
L 396.521636 43.367871 
L 397.195598 44.601057 
L 397.53258 43.955674 
L 397.869561 43.487234 
L 398.375033 43.762092 
L 398.543524 43.57614 
L 398.880505 42.542461 
L 399.385977 40.919235 
L 399.554468 40.714493 
L 399.722959 40.744262 
L 400.05994 41.442527 
L 400.565412 42.785942 
L 400.902393 42.956489 
L 401.407865 42.892871 
L 401.744847 43.253849 
L 402.5873 44.601235 
L 402.924282 44.696157 
L 403.598244 44.552037 
L 404.103716 44.692483 
L 404.440698 44.364925 
L 405.11466 43.232706 
L 405.451642 42.96856 
L 405.788623 42.991988 
L 406.125605 43.645431 
L 406.462586 44.606687 
L 406.631077 44.782315 
L 406.799567 44.559209 
L 407.136549 43.114465 
L 407.47353 41.678928 
L 407.642021 41.375605 
L 407.810511 41.336222 
L 408.315983 41.551043 
L 408.821455 41.476665 
L 408.989946 41.688374 
L 409.326928 42.758155 
L 409.8324 44.674336 
L 410.00089 44.864251 
L 410.169381 44.785599 
L 410.506362 44.403193 
L 410.674853 44.385995 
L 411.180325 44.6763 
L 411.517306 44.183016 
L 411.854288 43.738706 
L 412.022778 43.810687 
L 412.35976 44.216723 
L 412.528251 44.259237 
L 412.865232 43.804104 
L 413.033723 43.497518 
L 413.033723 43.497518 
" clip-path="url(#p33cf433bce)" style="fill: none; stroke: #4c72b0; stroke-linecap: square"/>
   </g>
   <g id="patch_7">
    <path d="M 294.323611 50.502667 
L 418.686585 50.502667 
" style="fill: none; stroke: #000000; stroke-width: 1.3; stroke-linejoin: miter; stroke-linecap: square"/>
   </g>
  </g>
  <g id="axes_4">
   <g id="patch_8">
    <path d="M 13.563463 119.585333 
L 137.926437 119.585333 
L 137.926437 79.882667 
L 13.563463 79.882667 
z
" style="fill: #ffffff"/>
   </g>
   <g id="matplotlib.axis_7">
    <g id="xtick_34">
     <g id="line2d_37">
      <g>
       <use xlink:href="#mc434f9660f" x="132.155031" y="119.585333" style="stroke: #000000; stroke-width: 1.3"/>
      </g>
     </g>
     <g id="text_8">
      <!-- 4.6 -->
      <g transform="translate(124.203469 135.683771)scale(0.1 -0.1)">
       <defs>
        <path id="DejaVuSans-34" d="M 2419 4116 
L 825 1625 
L 2419 1625 
L 2419 4116 
z
M 2253 4666 
L 3047 4666 
L 3047 1625 
L 3713 1625 
L 3713 1100 
L 3047 1100 
L 3047 0 
L 2419 0 
L 2419 1100 
L 313 1100 
L 313 1709 
L 2253 4666 
z
" transform="scale(0.015625)"/>
        <path id="DejaVuSans-36" d="M 2113 2584 
Q 1688 2584 1439 2293 
Q 1191 2003 1191 1497 
Q 1191 994 1439 701 
Q 1688 409 2113 409 
Q 2538 409 2786 701 
Q 3034 994 3034 1497 
Q 3034 2003 2786 2293 
Q 2538 2584 2113 2584 
z
M 3366 4563 
L 3366 3988 
Q 3128 4100 2886 4159 
Q 2644 4219 2406 4219 
Q 1781 4219 1451 3797 
Q 1122 3375 1075 2522 
Q 1259 2794 1537 2939 
Q 1816 3084 2150 3084 
Q 2853 3084 3261 2657 
Q 3669 2231 3669 1497 
Q 3669 778 3244 343 
Q 2819 -91 2113 -91 
Q 1303 -91 875 529 
Q 447 1150 447 2328 
Q 447 3434 972 4092 
Q 1497 4750 2381 4750 
Q 2619 4750 2861 4703 
Q 3103 4656 3366 4563 
z
" transform="scale(0.015625)"/>
       </defs>
       <use xlink:href="#DejaVuSans-34"/>
       <use xlink:href="#DejaVuSans-2e" x="63.623047"/>
       <use xlink:href="#DejaVuSans-36" x="95.410156"/>
      </g>
     </g>
    </g>
    <g id="xtick_35">
     <g id="line2d_38">
      <g>
       <use xlink:href="#mc434f9660f" x="75.601162" y="119.585333" style="stroke: #000000; stroke-width: 1.3"/>
      </g>
     </g>
     <g id="text_9">
      <!-- 4.7 -->
      <g transform="translate(67.6496 135.683771)scale(0.1 -0.1)">
       <defs>
        <path id="DejaVuSans-37" d="M 525 4666 
L 3525 4666 
L 3525 4397 
L 1831 0 
L 1172 0 
L 2766 4134 
L 525 4134 
L 525 4666 
z
" transform="scale(0.015625)"/>
       </defs>
       <use xlink:href="#DejaVuSans-34"/>
       <use xlink:href="#DejaVuSans-2e" x="63.623047"/>
       <use xlink:href="#DejaVuSans-37" x="95.410156"/>
      </g>
     </g>
    </g>
    <g id="xtick_36">
     <g id="line2d_39">
      <g>
       <use xlink:href="#mc434f9660f" x="19.047293" y="119.585333" style="stroke: #000000; stroke-width: 1.3"/>
      </g>
     </g>
     <g id="text_10">
      <!-- 4.8 -->
      <g transform="translate(11.095731 135.683771)scale(0.1 -0.1)">
       <defs>
        <path id="DejaVuSans-38" d="M 2034 2216 
Q 1584 2216 1326 1975 
Q 1069 1734 1069 1313 
Q 1069 891 1326 650 
Q 1584 409 2034 409 
Q 2484 409 2743 651 
Q 3003 894 3003 1313 
Q 3003 1734 2745 1975 
Q 2488 2216 2034 2216 
z
M 1403 2484 
Q 997 2584 770 2862 
Q 544 3141 544 3541 
Q 544 4100 942 4425 
Q 1341 4750 2034 4750 
Q 2731 4750 3128 4425 
Q 3525 4100 3525 3541 
Q 3525 3141 3298 2862 
Q 3072 2584 2669 2484 
Q 3125 2378 3379 2068 
Q 3634 1759 3634 1313 
Q 3634 634 3220 271 
Q 2806 -91 2034 -91 
Q 1263 -91 848 271 
Q 434 634 434 1313 
Q 434 1759 690 2068 
Q 947 2378 1403 2484 
z
M 1172 3481 
Q 1172 3119 1398 2916 
Q 1625 2713 2034 2713 
Q 2441 2713 2670 2916 
Q 2900 3119 2900 3481 
Q 2900 3844 2670 4047 
Q 2441 4250 2034 4250 
Q 1625 4250 1398 4047 
Q 1172 3844 1172 3481 
z
" transform="scale(0.015625)"/>
       </defs>
       <use xlink:href="#DejaVuSans-34"/>
       <use xlink:href="#DejaVuSans-2e" x="63.623047"/>
       <use xlink:href="#DejaVuSans-38" x="95.410156"/>
      </g>
     </g>
    </g>
    <g id="xtick_37">
     <g id="line2d_40">
      <g>
       <use xlink:href="#m2d0ea31135" x="120.844257" y="119.585333" style="stroke: #000000; stroke-width: 1.3"/>
      </g>
     </g>
    </g>
    <g id="xtick_38">
     <g id="line2d_41">
      <g>
       <use xlink:href="#m2d0ea31135" x="109.533484" y="119.585333" style="stroke: #000000; stroke-width: 1.3"/>
      </g>
     </g>
    </g>
    <g id="xtick_39">
     <g id="line2d_42">
      <g>
       <use xlink:href="#m2d0ea31135" x="98.22271" y="119.585333" style="stroke: #000000; stroke-width: 1.3"/>
      </g>
     </g>
    </g>
    <g id="xtick_40">
     <g id="line2d_43">
      <g>
       <use xlink:href="#m2d0ea31135" x="86.911936" y="119.585333" style="stroke: #000000; stroke-width: 1.3"/>
      </g>
     </g>
    </g>
    <g id="xtick_41">
     <g id="line2d_44">
      <g>
       <use xlink:href="#m2d0ea31135" x="64.290388" y="119.585333" style="stroke: #000000; stroke-width: 1.3"/>
      </g>
     </g>
    </g>
    <g id="xtick_42">
     <g id="line2d_45">
      <g>
       <use xlink:href="#m2d0ea31135" x="52.979614" y="119.585333" style="stroke: #000000; stroke-width: 1.3"/>
      </g>
     </g>
    </g>
    <g id="xtick_43">
     <g id="line2d_46">
      <g>
       <use xlink:href="#m2d0ea31135" x="41.668841" y="119.585333" style="stroke: #000000; stroke-width: 1.3"/>
      </g>
     </g>
    </g>
    <g id="xtick_44">
     <g id="line2d_47">
      <g>
       <use xlink:href="#m2d0ea31135" x="30.358067" y="119.585333" style="stroke: #000000; stroke-width: 1.3"/>
      </g>
     </g>
    </g>
   </g>
   <g id="matplotlib.axis_8"/>
   <g id="line2d_48">
    <path d="M 19.216325 109.120176 
L 20.732742 109.367318 
L 21.912176 109.079055 
L 24.102555 109.844878 
L 25.787462 109.752573 
L 26.461425 109.844527 
L 27.64086 109.806409 
L 28.651804 109.374619 
L 33.201052 108.703772 
L 33.875015 108.683541 
L 34.548978 108.737385 
L 35.05445 108.72955 
L 36.233884 108.589667 
L 37.076338 108.730698 
L 37.918791 108.545363 
L 38.761245 108.554775 
L 39.603698 108.815243 
L 40.277661 108.915864 
L 40.951624 109.252561 
L 41.625586 109.666886 
L 41.962568 109.643552 
L 42.805021 109.456719 
L 44.152947 109.783718 
L 44.9954 109.833615 
L 45.669363 109.954952 
L 46.343326 109.977207 
L 47.185779 110.131479 
L 48.365214 110.195882 
L 49.207667 110.230929 
L 49.88163 110.173671 
L 50.724083 110.298286 
L 51.229555 110.395859 
L 52.072009 110.259371 
L 53.419934 110.498073 
L 55.273332 110.426746 
L 55.778804 110.506179 
L 57.29522 110.267178 
L 58.306164 110.122464 
L 58.811636 110.162628 
L 59.991071 109.906389 
L 61.002015 109.705385 
L 61.507487 109.487477 
L 62.18145 109.38785 
L 62.686922 109.273964 
L 63.192394 109.23927 
L 63.866357 109.057233 
L 65.045791 109.110329 
L 65.551264 109.129665 
L 66.899189 109.073061 
L 67.404661 109.240801 
L 67.910133 109.302944 
L 68.584096 109.615642 
L 69.089568 109.606386 
L 69.426549 109.674564 
L 70.100512 109.539498 
L 70.605984 109.88055 
L 71.616928 109.210697 
L 71.95391 108.226075 
L 72.459382 106.323685 
L 72.627872 104.969582 
L 72.964854 98.215398 
L 73.470326 83.192582 
L 73.638816 81.340929 
L 73.807307 82.220811 
L 74.144288 89.476898 
L 74.64976 99.235307 
L 75.155233 103.456304 
L 75.492214 105.215614 
L 75.829195 105.918576 
L 76.334667 106.841521 
L 76.671649 107.269093 
L 77.177121 107.330329 
L 77.851083 107.926568 
L 78.188065 108.059594 
L 78.862028 108.523386 
L 79.3675 108.389608 
L 80.041462 108.614965 
L 80.546934 108.59218 
L 81.220897 108.869833 
L 82.905804 109.090778 
L 83.411276 109.15256 
L 83.916748 109.254479 
L 84.253729 109.296679 
L 85.096183 109.146237 
L 85.601655 109.09532 
L 86.275618 108.994438 
L 86.94958 108.981205 
L 87.623543 109.13539 
L 88.129015 109.11602 
L 89.30845 109.380443 
L 89.813922 109.149649 
L 90.150903 109.034223 
L 90.487885 109.151729 
L 91.161848 109.444935 
L 92.004301 109.446034 
L 92.509773 109.522254 
L 93.015245 109.642394 
L 94.363171 109.61378 
L 95.205624 109.612367 
L 96.553549 109.376098 
L 97.396003 109.409761 
L 97.901475 109.406375 
L 98.406947 109.501195 
L 99.2494 109.433659 
L 100.428835 109.559931 
L 102.113742 109.444134 
L 103.461667 109.753416 
L 104.978084 109.799105 
L 105.989028 109.658947 
L 106.4945 109.593694 
L 107.673935 109.160542 
L 108.516388 109.276784 
L 109.190351 109.281475 
L 110.201295 109.47373 
L 110.875258 109.390171 
L 111.886202 109.476504 
L 114.245071 109.433482 
L 114.919034 109.676624 
L 115.424506 109.658803 
L 116.098469 109.518246 
L 117.109413 109.684074 
L 118.288848 109.332419 
L 118.79432 109.213097 
L 119.973754 109.24327 
L 120.479227 109.345114 
L 120.984699 109.531984 
L 123.343568 109.521718 
L 124.017531 109.473023 
L 124.691494 109.434442 
L 125.870928 109.641873 
L 127.387345 109.461418 
L 127.892817 109.377278 
L 129.072251 109.423464 
L 129.914705 109.324331 
L 130.757158 109.193984 
L 131.599612 108.88365 
L 132.273574 109.083564 
L 132.273574 109.083564 
" clip-path="url(#pe6dc26d9f9)" style="fill: none; stroke: #4c72b0; stroke-linecap: square"/>
   </g>
   <g id="patch_9">
    <path d="M 13.563463 119.585333 
L 137.926437 119.585333 
" style="fill: none; stroke: #000000; stroke-width: 1.3; stroke-linejoin: miter; stroke-linecap: square"/>
   </g>
   <g id="text_11">
    <!-- /9 -->
    <g transform="translate(122.423781 99.734)scale(0.1 -0.1)">
     <defs>
      <path id="DejaVuSans-2f" d="M 1625 4666 
L 2156 4666 
L 531 -594 
L 0 -594 
L 1625 4666 
z
" transform="scale(0.015625)"/>
      <path id="DejaVuSans-39" d="M 703 97 
L 703 672 
Q 941 559 1184 500 
Q 1428 441 1663 441 
Q 2288 441 2617 861 
Q 2947 1281 2994 2138 
Q 2813 1869 2534 1725 
Q 2256 1581 1919 1581 
Q 1219 1581 811 2004 
Q 403 2428 403 3163 
Q 403 3881 828 4315 
Q 1253 4750 1959 4750 
Q 2769 4750 3195 4129 
Q 3622 3509 3622 2328 
Q 3622 1225 3098 567 
Q 2575 -91 1691 -91 
Q 1453 -91 1209 -44 
Q 966 3 703 97 
z
M 1959 2075 
Q 2384 2075 2632 2365 
Q 2881 2656 2881 3163 
Q 2881 3666 2632 3958 
Q 2384 4250 1959 4250 
Q 1534 4250 1286 3958 
Q 1038 3666 1038 3163 
Q 1038 2656 1286 2365 
Q 1534 2075 1959 2075 
z
" transform="scale(0.015625)"/>
     </defs>
     <use xlink:href="#DejaVuSans-2f"/>
     <use xlink:href="#DejaVuSans-39" x="33.691406"/>
    </g>
   </g>
   <g id="text_12">
    <!-- (b) -->
    <g transform="translate(16.050722 88.275157)scale(0.1 -0.1)">
     <defs>
      <path id="DejaVuSans-Bold-62" d="M 2400 722 
Q 2759 722 2948 984 
Q 3138 1247 3138 1747 
Q 3138 2247 2948 2509 
Q 2759 2772 2400 2772 
Q 2041 2772 1848 2508 
Q 1656 2244 1656 1747 
Q 1656 1250 1848 986 
Q 2041 722 2400 722 
z
M 1656 2988 
Q 1888 3294 2169 3439 
Q 2450 3584 2816 3584 
Q 3463 3584 3878 3070 
Q 4294 2556 4294 1747 
Q 4294 938 3878 423 
Q 3463 -91 2816 -91 
Q 2450 -91 2169 54 
Q 1888 200 1656 506 
L 1656 0 
L 538 0 
L 538 4863 
L 1656 4863 
L 1656 2988 
z
" transform="scale(0.015625)"/>
     </defs>
     <use xlink:href="#DejaVuSans-Bold-28"/>
     <use xlink:href="#DejaVuSans-Bold-62" x="45.703125"/>
     <use xlink:href="#DejaVuSans-Bold-29" x="117.285156"/>
    </g>
   </g>
  </g>
  <g id="axes_5">
   <g id="patch_10">
    <path d="M 153.943537 119.585333 
L 278.306511 119.585333 
L 278.306511 79.882667 
L 153.943537 79.882667 
z
" style="fill: #ffffff"/>
   </g>
   <g id="matplotlib.axis_9">
    <g id="xtick_45">
     <g id="line2d_49">
      <g>
       <use xlink:href="#mc434f9660f" x="272.408705" y="119.585333" style="stroke: #000000; stroke-width: 1.3"/>
      </g>
     </g>
     <g id="text_13">
      <!-- 4.6 -->
      <g transform="translate(264.457143 135.683771)scale(0.1 -0.1)">
       <use xlink:href="#DejaVuSans-34"/>
       <use xlink:href="#DejaVuSans-2e" x="63.623047"/>
       <use xlink:href="#DejaVuSans-36" x="95.410156"/>
      </g>
     </g>
    </g>
    <g id="xtick_46">
     <g id="line2d_50">
      <g>
       <use xlink:href="#mc434f9660f" x="215.938994" y="119.585333" style="stroke: #000000; stroke-width: 1.3"/>
      </g>
     </g>
     <g id="text_14">
      <!-- 4.7 -->
      <g transform="translate(207.987431 135.683771)scale(0.1 -0.1)">
       <use xlink:href="#DejaVuSans-34"/>
       <use xlink:href="#DejaVuSans-2e" x="63.623047"/>
       <use xlink:href="#DejaVuSans-37" x="95.410156"/>
      </g>
     </g>
    </g>
    <g id="xtick_47">
     <g id="line2d_51">
      <g>
       <use xlink:href="#mc434f9660f" x="159.469282" y="119.585333" style="stroke: #000000; stroke-width: 1.3"/>
      </g>
     </g>
     <g id="text_15">
      <!-- 4.8 -->
      <g transform="translate(151.51772 135.683771)scale(0.1 -0.1)">
       <use xlink:href="#DejaVuSans-34"/>
       <use xlink:href="#DejaVuSans-2e" x="63.623047"/>
       <use xlink:href="#DejaVuSans-38" x="95.410156"/>
      </g>
     </g>
    </g>
    <g id="xtick_48">
     <g id="line2d_52">
      <g>
       <use xlink:href="#m2d0ea31135" x="261.114763" y="119.585333" style="stroke: #000000; stroke-width: 1.3"/>
      </g>
     </g>
    </g>
    <g id="xtick_49">
     <g id="line2d_53">
      <g>
       <use xlink:href="#m2d0ea31135" x="249.820821" y="119.585333" style="stroke: #000000; stroke-width: 1.3"/>
      </g>
     </g>
    </g>
    <g id="xtick_50">
     <g id="line2d_54">
      <g>
       <use xlink:href="#m2d0ea31135" x="238.526878" y="119.585333" style="stroke: #000000; stroke-width: 1.3"/>
      </g>
     </g>
    </g>
    <g id="xtick_51">
     <g id="line2d_55">
      <g>
       <use xlink:href="#m2d0ea31135" x="227.232936" y="119.585333" style="stroke: #000000; stroke-width: 1.3"/>
      </g>
     </g>
    </g>
    <g id="xtick_52">
     <g id="line2d_56">
      <g>
       <use xlink:href="#m2d0ea31135" x="204.645052" y="119.585333" style="stroke: #000000; stroke-width: 1.3"/>
      </g>
     </g>
    </g>
    <g id="xtick_53">
     <g id="line2d_57">
      <g>
       <use xlink:href="#m2d0ea31135" x="193.351109" y="119.585333" style="stroke: #000000; stroke-width: 1.3"/>
      </g>
     </g>
    </g>
    <g id="xtick_54">
     <g id="line2d_58">
      <g>
       <use xlink:href="#m2d0ea31135" x="182.057167" y="119.585333" style="stroke: #000000; stroke-width: 1.3"/>
      </g>
     </g>
    </g>
    <g id="xtick_55">
     <g id="line2d_59">
      <g>
       <use xlink:href="#m2d0ea31135" x="170.763225" y="119.585333" style="stroke: #000000; stroke-width: 1.3"/>
      </g>
     </g>
    </g>
   </g>
   <g id="matplotlib.axis_10"/>
   <g id="line2d_60">
    <path d="M 159.596399 109.281536 
L 160.269359 109.368754 
L 161.278799 109.409346 
L 162.119999 109.422089 
L 163.297678 109.347046 
L 165.653038 109.951412 
L 166.494238 110.154664 
L 166.998957 110.048974 
L 168.008397 109.750304 
L 169.186077 109.78361 
L 169.690797 109.830823 
L 170.868476 109.543551 
L 172.550876 109.104713 
L 173.055596 109.019682 
L 174.233275 108.651893 
L 174.906235 108.737419 
L 176.252155 109.061259 
L 176.756875 108.877943 
L 177.261595 108.729094 
L 178.102794 108.677096 
L 178.607514 108.633032 
L 180.121674 108.833644 
L 181.467593 108.738045 
L 181.972313 109.029049 
L 182.813513 109.644082 
L 183.654713 109.908014 
L 184.664153 109.862646 
L 185.337112 109.755373 
L 187.019512 109.769857 
L 187.355992 109.772309 
L 188.701911 110.253627 
L 190.047831 110.119107 
L 192.066711 110.155464 
L 192.57143 110.264068 
L 193.58087 110.147656 
L 195.09503 110.351706 
L 195.59975 110.413397 
L 196.104469 110.425916 
L 197.113909 110.778903 
L 197.955109 110.643167 
L 198.964549 110.197917 
L 199.805748 109.938199 
L 200.478708 109.898758 
L 201.319908 109.910571 
L 203.338787 109.586339 
L 204.852947 109.05894 
L 206.198867 109.34651 
L 207.376546 109.82311 
L 208.385986 110.466187 
L 209.563666 111.181578 
L 210.068386 111.555424 
L 210.741345 112.274018 
L 211.414305 112.573733 
L 212.760225 114.085064 
L 212.928465 113.964868 
L 213.264945 112.927239 
L 214.274384 108.440074 
L 214.779104 105.741589 
L 214.947344 105.477308 
L 215.115584 105.562966 
L 215.788544 106.4847 
L 216.293264 106.958764 
L 216.966224 107.67738 
L 217.639184 108.072712 
L 218.816863 108.108744 
L 220.331023 108.641735 
L 221.003983 108.708613 
L 223.527582 109.154381 
L 224.368782 109.198907 
L 224.873502 109.146612 
L 225.546461 109.228237 
L 226.555901 109.013339 
L 227.228861 109.141246 
L 228.238301 108.779921 
L 229.24774 108.897217 
L 229.9207 109.012444 
L 230.7619 109.358871 
L 233.790219 109.547867 
L 234.463179 109.382755 
L 235.640859 109.613408 
L 236.482058 109.666899 
L 237.323258 109.753766 
L 240.183337 109.109569 
L 242.370457 109.547024 
L 243.043417 109.470169 
L 243.716376 109.399242 
L 245.062296 109.539993 
L 245.567016 109.501381 
L 246.576456 109.660451 
L 247.249415 109.518688 
L 247.922375 109.343656 
L 249.604775 109.176893 
L 250.614215 109.02449 
L 251.455414 109.221072 
L 251.960134 108.959506 
L 252.464854 108.770667 
L 252.969574 108.986505 
L 253.642534 109.262046 
L 255.156693 109.549075 
L 255.829653 109.269541 
L 256.334373 109.033978 
L 256.839093 109.102381 
L 257.512053 109.265466 
L 258.353252 109.244622 
L 259.194452 109.134912 
L 259.867412 109.390588 
L 260.372132 109.478018 
L 262.054531 109.321348 
L 263.063971 109.541069 
L 263.905171 109.234002 
L 265.92405 109.403091 
L 266.42877 109.440511 
L 267.60645 109.322424 
L 268.27941 109.328725 
L 269.120609 109.144708 
L 271.644209 109.383586 
L 272.148929 109.341015 
L 272.653648 109.448358 
L 272.653648 109.448358 
" clip-path="url(#pd1022949d5)" style="fill: none; stroke: #4c72b0; stroke-linecap: square"/>
   </g>
   <g id="patch_11">
    <path d="M 153.943537 119.585333 
L 278.306511 119.585333 
" style="fill: none; stroke: #000000; stroke-width: 1.3; stroke-linejoin: miter; stroke-linecap: square"/>
   </g>
   <g id="text_16">
    <!-- /9 -->
    <g transform="translate(262.677455 99.734)scale(0.1 -0.1)">
     <use xlink:href="#DejaVuSans-2f"/>
     <use xlink:href="#DejaVuSans-39" x="33.691406"/>
    </g>
   </g>
  </g>
  <g id="axes_6">
   <g id="patch_12">
    <path d="M 294.323611 119.585333 
L 418.686585 119.585333 
L 418.686585 79.882667 
L 294.323611 79.882667 
z
" style="fill: #ffffff"/>
   </g>
   <g id="matplotlib.axis_11">
    <g id="xtick_56">
     <g id="line2d_61">
      <g>
       <use xlink:href="#mc434f9660f" x="412.936836" y="119.585333" style="stroke: #000000; stroke-width: 1.3"/>
      </g>
     </g>
     <g id="text_17">
      <!-- 4.6 -->
      <g transform="translate(404.985274 135.683771)scale(0.1 -0.1)">
       <use xlink:href="#DejaVuSans-34"/>
       <use xlink:href="#DejaVuSans-2e" x="63.623047"/>
       <use xlink:href="#DejaVuSans-36" x="95.410156"/>
      </g>
     </g>
    </g>
    <g id="xtick_57">
     <g id="line2d_62">
      <g>
       <use xlink:href="#mc434f9660f" x="356.382967" y="119.585333" style="stroke: #000000; stroke-width: 1.3"/>
      </g>
     </g>
     <g id="text_18">
      <!-- 4.7 -->
      <g transform="translate(348.431404 135.683771)scale(0.1 -0.1)">
       <use xlink:href="#DejaVuSans-34"/>
       <use xlink:href="#DejaVuSans-2e" x="63.623047"/>
       <use xlink:href="#DejaVuSans-37" x="95.410156"/>
      </g>
     </g>
    </g>
    <g id="xtick_58">
     <g id="line2d_63">
      <g>
       <use xlink:href="#mc434f9660f" x="299.829098" y="119.585333" style="stroke: #000000; stroke-width: 1.3"/>
      </g>
     </g>
     <g id="text_19">
      <!-- 4.8 -->
      <g transform="translate(291.877535 135.683771)scale(0.1 -0.1)">
       <use xlink:href="#DejaVuSans-34"/>
       <use xlink:href="#DejaVuSans-2e" x="63.623047"/>
       <use xlink:href="#DejaVuSans-38" x="95.410156"/>
      </g>
     </g>
    </g>
    <g id="xtick_59">
     <g id="line2d_64">
      <g>
       <use xlink:href="#m2d0ea31135" x="401.626062" y="119.585333" style="stroke: #000000; stroke-width: 1.3"/>
      </g>
     </g>
    </g>
    <g id="xtick_60">
     <g id="line2d_65">
      <g>
       <use xlink:href="#m2d0ea31135" x="390.315288" y="119.585333" style="stroke: #000000; stroke-width: 1.3"/>
      </g>
     </g>
    </g>
    <g id="xtick_61">
     <g id="line2d_66">
      <g>
       <use xlink:href="#m2d0ea31135" x="379.004515" y="119.585333" style="stroke: #000000; stroke-width: 1.3"/>
      </g>
     </g>
    </g>
    <g id="xtick_62">
     <g id="line2d_67">
      <g>
       <use xlink:href="#m2d0ea31135" x="367.693741" y="119.585333" style="stroke: #000000; stroke-width: 1.3"/>
      </g>
     </g>
    </g>
    <g id="xtick_63">
     <g id="line2d_68">
      <g>
       <use xlink:href="#m2d0ea31135" x="345.072193" y="119.585333" style="stroke: #000000; stroke-width: 1.3"/>
      </g>
     </g>
    </g>
    <g id="xtick_64">
     <g id="line2d_69">
      <g>
       <use xlink:href="#m2d0ea31135" x="333.761419" y="119.585333" style="stroke: #000000; stroke-width: 1.3"/>
      </g>
     </g>
    </g>
    <g id="xtick_65">
     <g id="line2d_70">
      <g>
       <use xlink:href="#m2d0ea31135" x="322.450645" y="119.585333" style="stroke: #000000; stroke-width: 1.3"/>
      </g>
     </g>
    </g>
    <g id="xtick_66">
     <g id="line2d_71">
      <g>
       <use xlink:href="#m2d0ea31135" x="311.139872" y="119.585333" style="stroke: #000000; stroke-width: 1.3"/>
      </g>
     </g>
    </g>
   </g>
   <g id="matplotlib.axis_12"/>
   <g id="line2d_72">
    <path d="M 299.976474 109.145704 
L 300.481946 109.129119 
L 303.514778 109.696827 
L 304.02025 109.656462 
L 305.199685 109.26295 
L 306.210629 109.250737 
L 307.221573 108.899318 
L 307.895536 108.795555 
L 308.401008 109.019594 
L 308.90648 109.261358 
L 309.243461 109.231158 
L 310.591387 108.768975 
L 311.602331 108.702942 
L 313.118747 108.949834 
L 313.624219 108.890154 
L 314.803654 109.145754 
L 315.646107 109.020276 
L 317.499505 109.302462 
L 318.678939 109.247517 
L 319.521393 109.307852 
L 320.532337 109.062597 
L 321.37479 109.101957 
L 322.554225 108.881666 
L 323.228188 108.824019 
L 324.576113 108.656826 
L 325.081585 108.805221 
L 325.587058 108.617299 
L 326.09253 108.458519 
L 326.766492 108.525903 
L 328.956871 108.684053 
L 329.967815 108.624783 
L 331.315741 108.905279 
L 331.989704 109.061702 
L 333.000648 108.969896 
L 334.011592 108.674864 
L 335.022536 109.142261 
L 336.538952 109.221437 
L 339.740275 109.928886 
L 340.414238 110.170455 
L 342.099145 110.198071 
L 342.773107 110.398107 
L 343.278579 110.382311 
L 344.458014 110.069815 
L 345.131977 110.194595 
L 346.648393 110.111699 
L 348.501791 109.629865 
L 349.681225 109.930633 
L 350.355188 109.871381 
L 351.534623 110.288015 
L 352.377076 110.750362 
L 353.725002 111.765438 
L 354.398965 112.62331 
L 354.567455 112.406007 
L 355.578399 109.709606 
L 356.252362 109.436379 
L 356.926325 109.432305 
L 359.285194 109.203439 
L 359.959157 108.977294 
L 360.464629 109.084663 
L 361.812555 109.601875 
L 362.318027 109.61669 
L 362.823499 109.651695 
L 363.497461 109.844873 
L 364.339915 109.620496 
L 365.182368 109.729621 
L 366.193312 109.240255 
L 367.541238 109.531738 
L 368.04671 109.664305 
L 369.057654 109.561493 
L 370.405579 109.788496 
L 371.079542 109.47582 
L 371.585014 109.366307 
L 373.438412 109.369601 
L 374.280865 109.330331 
L 375.4603 109.474563 
L 376.471244 109.467173 
L 376.976716 109.447219 
L 377.98766 109.082062 
L 380.515021 109.546435 
L 381.525965 109.847509 
L 382.031437 109.896818 
L 383.884834 109.638272 
L 385.23276 109.873169 
L 386.412194 109.578345 
L 387.086157 109.314753 
L 387.591629 109.44479 
L 388.265592 109.673531 
L 389.108045 109.758443 
L 390.28748 110.110756 
L 390.792952 109.962996 
L 391.298424 109.811505 
L 392.309368 109.675742 
L 393.825785 109.437828 
L 394.668238 109.481905 
L 395.342201 109.620687 
L 396.521636 109.425148 
L 397.027108 109.519919 
L 397.70107 109.798914 
L 399.385977 109.705393 
L 400.565412 109.584471 
L 401.070884 109.602626 
L 402.250319 109.834142 
L 403.766735 109.848129 
L 404.440698 109.5326 
L 404.94617 109.575458 
L 406.631077 109.983494 
L 407.47353 109.906025 
L 408.315983 109.96035 
L 409.326928 109.942496 
L 409.8324 109.901674 
L 411.348816 109.407307 
L 412.696741 109.478663 
L 413.033723 109.569684 
L 413.033723 109.569684 
" clip-path="url(#pa48ad0535b)" style="fill: none; stroke: #4c72b0; stroke-linecap: square"/>
   </g>
   <g id="patch_13">
    <path d="M 294.323611 119.585333 
L 418.686585 119.585333 
" style="fill: none; stroke: #000000; stroke-width: 1.3; stroke-linejoin: miter; stroke-linecap: square"/>
   </g>
   <g id="text_20">
    <!-- /9 -->
    <g transform="translate(403.205586 99.734)scale(0.1 -0.1)">
     <use xlink:href="#DejaVuSans-2f"/>
     <use xlink:href="#DejaVuSans-39" x="33.691406"/>
    </g>
   </g>
  </g>
  <g id="axes_7">
   <g id="patch_14">
    <path d="M 13.563463 188.668 
L 137.926437 188.668 
L 137.926437 148.965333 
L 13.563463 148.965333 
z
" style="fill: #ffffff"/>
   </g>
   <g id="matplotlib.axis_13">
    <g id="xtick_67">
     <g id="line2d_73">
      <g>
       <use xlink:href="#mc434f9660f" x="109.518279" y="188.668" style="stroke: #000000; stroke-width: 1.3"/>
      </g>
     </g>
     <g id="text_21">
      <!-- 4.5 -->
      <g transform="translate(101.566716 204.766437)scale(0.1 -0.1)">
       <use xlink:href="#DejaVuSans-34"/>
       <use xlink:href="#DejaVuSans-2e" x="63.623047"/>
       <use xlink:href="#DejaVuSans-35" x="95.410156"/>
      </g>
     </g>
    </g>
    <g id="xtick_68">
     <g id="line2d_74">
      <g>
       <use xlink:href="#mc434f9660f" x="52.96441" y="188.668" style="stroke: #000000; stroke-width: 1.3"/>
      </g>
     </g>
     <g id="text_22">
      <!-- 4.6 -->
      <g transform="translate(45.012847 204.766437)scale(0.1 -0.1)">
       <use xlink:href="#DejaVuSans-34"/>
       <use xlink:href="#DejaVuSans-2e" x="63.623047"/>
       <use xlink:href="#DejaVuSans-36" x="95.410156"/>
      </g>
     </g>
    </g>
    <g id="xtick_69">
     <g id="line2d_75">
      <g>
       <use xlink:href="#m2d0ea31135" x="132.139826" y="188.668" style="stroke: #000000; stroke-width: 1.3"/>
      </g>
     </g>
    </g>
    <g id="xtick_70">
     <g id="line2d_76">
      <g>
       <use xlink:href="#m2d0ea31135" x="120.829053" y="188.668" style="stroke: #000000; stroke-width: 1.3"/>
      </g>
     </g>
    </g>
    <g id="xtick_71">
     <g id="line2d_77">
      <g>
       <use xlink:href="#m2d0ea31135" x="98.207505" y="188.668" style="stroke: #000000; stroke-width: 1.3"/>
      </g>
     </g>
    </g>
    <g id="xtick_72">
     <g id="line2d_78">
      <g>
       <use xlink:href="#m2d0ea31135" x="86.896731" y="188.668" style="stroke: #000000; stroke-width: 1.3"/>
      </g>
     </g>
    </g>
    <g id="xtick_73">
     <g id="line2d_79">
      <g>
       <use xlink:href="#m2d0ea31135" x="75.585957" y="188.668" style="stroke: #000000; stroke-width: 1.3"/>
      </g>
     </g>
    </g>
    <g id="xtick_74">
     <g id="line2d_80">
      <g>
       <use xlink:href="#m2d0ea31135" x="64.275184" y="188.668" style="stroke: #000000; stroke-width: 1.3"/>
      </g>
     </g>
    </g>
    <g id="xtick_75">
     <g id="line2d_81">
      <g>
       <use xlink:href="#m2d0ea31135" x="41.653636" y="188.668" style="stroke: #000000; stroke-width: 1.3"/>
      </g>
     </g>
    </g>
    <g id="xtick_76">
     <g id="line2d_82">
      <g>
       <use xlink:href="#m2d0ea31135" x="30.342862" y="188.668" style="stroke: #000000; stroke-width: 1.3"/>
      </g>
     </g>
    </g>
    <g id="xtick_77">
     <g id="line2d_83">
      <g>
       <use xlink:href="#m2d0ea31135" x="19.032088" y="188.668" style="stroke: #000000; stroke-width: 1.3"/>
      </g>
     </g>
    </g>
    <g id="text_23">
     <!-- $^1$H (ppm) -->
     <g transform="translate(52.84495 219.846125)scale(0.1 -0.1)">
      <defs>
       <path id="DejaVuSans-48" d="M 628 4666 
L 1259 4666 
L 1259 2753 
L 3553 2753 
L 3553 4666 
L 4184 4666 
L 4184 0 
L 3553 0 
L 3553 2222 
L 1259 2222 
L 1259 0 
L 628 0 
L 628 4666 
z
" transform="scale(0.015625)"/>
       <path id="DejaVuSans-20" transform="scale(0.015625)"/>
       <path id="DejaVuSans-28" d="M 1984 4856 
Q 1566 4138 1362 3434 
Q 1159 2731 1159 2009 
Q 1159 1288 1364 580 
Q 1569 -128 1984 -844 
L 1484 -844 
Q 1016 -109 783 600 
Q 550 1309 550 2009 
Q 550 2706 781 3412 
Q 1013 4119 1484 4856 
L 1984 4856 
z
" transform="scale(0.015625)"/>
       <path id="DejaVuSans-70" d="M 1159 525 
L 1159 -1331 
L 581 -1331 
L 581 3500 
L 1159 3500 
L 1159 2969 
Q 1341 3281 1617 3432 
Q 1894 3584 2278 3584 
Q 2916 3584 3314 3078 
Q 3713 2572 3713 1747 
Q 3713 922 3314 415 
Q 2916 -91 2278 -91 
Q 1894 -91 1617 61 
Q 1341 213 1159 525 
z
M 3116 1747 
Q 3116 2381 2855 2742 
Q 2594 3103 2138 3103 
Q 1681 3103 1420 2742 
Q 1159 2381 1159 1747 
Q 1159 1113 1420 752 
Q 1681 391 2138 391 
Q 2594 391 2855 752 
Q 3116 1113 3116 1747 
z
" transform="scale(0.015625)"/>
       <path id="DejaVuSans-6d" d="M 3328 2828 
Q 3544 3216 3844 3400 
Q 4144 3584 4550 3584 
Q 5097 3584 5394 3201 
Q 5691 2819 5691 2113 
L 5691 0 
L 5113 0 
L 5113 2094 
Q 5113 2597 4934 2840 
Q 4756 3084 4391 3084 
Q 3944 3084 3684 2787 
Q 3425 2491 3425 1978 
L 3425 0 
L 2847 0 
L 2847 2094 
Q 2847 2600 2669 2842 
Q 2491 3084 2119 3084 
Q 1678 3084 1418 2786 
Q 1159 2488 1159 1978 
L 1159 0 
L 581 0 
L 581 3500 
L 1159 3500 
L 1159 2956 
Q 1356 3278 1631 3431 
Q 1906 3584 2284 3584 
Q 2666 3584 2933 3390 
Q 3200 3197 3328 2828 
z
" transform="scale(0.015625)"/>
       <path id="DejaVuSans-29" d="M 513 4856 
L 1013 4856 
Q 1481 4119 1714 3412 
Q 1947 2706 1947 2009 
Q 1947 1309 1714 600 
Q 1481 -109 1013 -844 
L 513 -844 
Q 928 -128 1133 580 
Q 1338 1288 1338 2009 
Q 1338 2731 1133 3434 
Q 928 4138 513 4856 
z
" transform="scale(0.015625)"/>
      </defs>
      <use xlink:href="#DejaVuSans-31" transform="translate(0.957031 38.965625)scale(0.7)"/>
      <use xlink:href="#DejaVuSans-48" transform="translate(48.227539 0.684375)"/>
      <use xlink:href="#DejaVuSans-20" transform="translate(123.422852 0.684375)"/>
      <use xlink:href="#DejaVuSans-28" transform="translate(155.209961 0.684375)"/>
      <use xlink:href="#DejaVuSans-70" transform="translate(194.223633 0.684375)"/>
      <use xlink:href="#DejaVuSans-70" transform="translate(257.700195 0.684375)"/>
      <use xlink:href="#DejaVuSans-6d" transform="translate(321.176758 0.684375)"/>
      <use xlink:href="#DejaVuSans-29" transform="translate(418.588867 0.684375)"/>
     </g>
    </g>
   </g>
   <g id="matplotlib.axis_14"/>
   <g id="line2d_84">
    <path d="M 19.216325 180.632554 
L 19.721797 179.803083 
L 19.890288 179.833664 
L 20.732742 180.806889 
L 21.069723 181.112312 
L 21.238214 181.133905 
L 21.575195 180.671093 
L 21.912176 180.131483 
L 22.417648 179.968846 
L 22.75463 179.935763 
L 22.92312 180.145493 
L 23.934065 182.550105 
L 24.608027 182.92664 
L 25.113499 182.970003 
L 25.618971 183.332552 
L 25.787462 183.175435 
L 26.461425 181.984611 
L 27.135388 181.777507 
L 27.472369 180.857143 
L 28.146332 177.82463 
L 28.314822 177.589908 
L 28.483313 177.724817 
L 28.988785 178.792359 
L 29.157276 178.843362 
L 29.662748 178.432301 
L 29.831238 178.49602 
L 30.16822 179.187642 
L 30.673692 180.525167 
L 30.842183 180.591976 
L 31.179164 180.05377 
L 31.516145 179.596482 
L 31.684636 179.684876 
L 32.190108 180.377094 
L 32.527089 180.448362 
L 32.864071 180.368771 
L 33.201052 180.048546 
L 33.706524 179.469985 
L 34.211996 179.474183 
L 34.548978 179.236293 
L 34.717468 179.259477 
L 34.885959 179.533817 
L 35.728412 182.129969 
L 35.896903 182.261072 
L 36.065394 182.213537 
L 36.402375 181.5795 
L 36.739357 180.802912 
L 36.907847 180.778092 
L 37.244829 181.648304 
L 37.58181 182.467629 
L 37.750301 182.442881 
L 38.592754 181.120551 
L 38.929735 179.938669 
L 39.266717 178.574515 
L 39.435207 178.226758 
L 39.603698 178.173415 
L 40.277661 178.802447 
L 40.614642 178.568616 
L 40.783133 178.430963 
L 40.951624 178.452091 
L 41.120114 178.740079 
L 41.794077 180.895355 
L 41.962568 180.823135 
L 42.299549 180.238777 
L 42.46804 180.204961 
L 43.142003 181.199359 
L 43.815965 180.407883 
L 44.321437 180.931362 
L 44.489928 180.882862 
L 45.332381 179.886527 
L 45.500872 180.06276 
L 46.343326 182.004575 
L 47.017288 181.800179 
L 47.35427 181.966293 
L 47.52276 181.891681 
L 47.859742 181.244983 
L 48.533704 179.629219 
L 48.702195 179.574827 
L 48.870686 179.741127 
L 49.376158 180.628732 
L 49.544649 180.602877 
L 49.88163 179.969058 
L 50.218611 179.365525 
L 50.724083 179.122884 
L 51.229555 178.777629 
L 51.566537 178.010272 
L 52.240499 175.407469 
L 52.40899 175.36134 
L 52.745972 176.14363 
L 53.251444 177.366136 
L 54.599369 179.121333 
L 54.93635 179.062717 
L 55.104841 178.99227 
L 55.273332 179.087424 
L 55.441822 179.469867 
L 56.115785 182.013023 
L 56.284276 181.951099 
L 56.621257 180.878274 
L 57.126729 179.257177 
L 57.463711 178.816839 
L 57.800692 178.688003 
L 58.474655 178.555285 
L 58.811636 178.187877 
L 59.485599 177.240465 
L 59.65409 177.389834 
L 60.496543 179.171893 
L 60.833524 178.550519 
L 61.170506 178.027025 
L 61.338996 178.072197 
L 61.675978 178.827542 
L 62.349941 180.931243 
L 62.518431 181.044503 
L 63.529375 180.592204 
L 64.203338 180.029666 
L 64.540319 180.202482 
L 65.045791 180.812314 
L 65.551264 181.786793 
L 65.719754 181.861222 
L 66.056736 181.449888 
L 66.730698 180.343712 
L 67.06768 178.988611 
L 67.910133 174.726351 
L 68.247114 170.685656 
L 69.089568 155.352859 
L 69.258059 154.494004 
L 69.426549 155.1289 
L 69.763531 160.208322 
L 70.269003 169.462535 
L 70.605984 172.40697 
L 71.111456 174.139345 
L 71.95391 176.045563 
L 72.627872 178.653683 
L 72.796363 178.777267 
L 73.133344 178.603982 
L 73.638816 178.366465 
L 73.807307 178.437981 
L 74.144288 179.024541 
L 74.48127 179.856354 
L 74.64976 180.018169 
L 74.818251 179.851339 
L 75.155233 178.565664 
L 75.829195 175.1603 
L 76.166177 174.612129 
L 76.334667 174.758912 
L 77.00863 175.916604 
L 77.177121 175.856237 
L 77.851083 175.061487 
L 78.356556 174.936121 
L 78.525046 174.630282 
L 78.693537 173.972201 
L 79.030518 171.263971 
L 79.3675 166.564136 
L 80.209953 151.777904 
L 80.378444 151.001281 
L 80.546934 151.820301 
L 80.883916 157.767786 
L 81.557879 173.192743 
L 81.89486 177.005756 
L 82.231841 178.289141 
L 82.400332 178.367369 
L 83.074295 178.025143 
L 83.411276 178.414986 
L 84.085239 179.818349 
L 84.42222 179.926981 
L 84.759202 179.87044 
L 84.927692 179.996251 
L 85.264674 180.630636 
L 85.770146 181.63202 
L 86.107127 181.906324 
L 86.444108 181.804456 
L 86.78109 181.287489 
L 87.286562 180.53092 
L 87.792034 180.463138 
L 87.960525 180.229125 
L 88.297506 179.049151 
L 88.802978 177.062821 
L 89.139959 176.645917 
L 89.645431 176.38894 
L 89.813922 176.45456 
L 90.150903 177.24781 
L 90.656375 178.910687 
L 91.66732 180.858159 
L 91.83581 180.650669 
L 92.509773 178.910498 
L 93.015245 178.580652 
L 93.689208 177.541926 
L 93.857698 177.584535 
L 94.19468 178.206885 
L 94.700152 179.283934 
L 94.868643 179.187897 
L 95.205624 178.133773 
L 95.542605 177.064198 
L 95.711096 176.957869 
L 95.879587 177.153479 
L 96.553549 178.472666 
L 98.069966 180.348652 
L 98.406947 180.257294 
L 98.743928 180.23002 
L 99.2494 180.732286 
L 99.417891 180.691318 
L 99.923363 180.111154 
L 100.091854 180.175356 
L 100.934307 181.251586 
L 101.439779 181.352705 
L 102.282233 181.04498 
L 102.450723 180.942928 
L 102.619214 180.665463 
L 102.956195 179.430502 
L 103.461667 177.539478 
L 103.630158 177.422315 
L 103.798649 177.601995 
L 104.13563 178.55727 
L 104.641102 179.887343 
L 104.809593 179.940406 
L 105.483556 179.395707 
L 106.157518 179.590193 
L 106.66299 179.557485 
L 107.168462 179.578904 
L 107.842425 179.377917 
L 108.179407 179.004083 
L 108.853369 178.156077 
L 109.358841 177.718392 
L 109.527332 177.838727 
L 109.864313 178.792115 
L 110.201295 179.672103 
L 110.369785 179.668995 
L 111.043748 178.818756 
L 111.38073 178.677711 
L 112.223183 177.346588 
L 112.560164 177.862431 
L 112.897146 178.814525 
L 113.571108 181.234993 
L 113.739599 181.127633 
L 114.076581 179.851772 
L 114.413562 178.64929 
L 114.582053 178.557353 
L 114.750543 178.860695 
L 115.592997 181.830681 
L 115.761487 181.780837 
L 117.109413 179.833443 
L 117.277904 179.781573 
L 117.446394 180.010673 
L 117.951866 181.162797 
L 118.120357 181.196046 
L 118.79432 180.792681 
L 119.131301 180.564245 
L 119.468282 180.153046 
L 119.636773 180.168666 
L 119.973754 180.909554 
L 120.479227 182.385193 
L 120.647717 182.601817 
L 120.816208 182.569548 
L 120.984699 182.224533 
L 121.658661 179.474995 
L 121.827152 179.575809 
L 122.164133 181.096234 
L 122.501115 182.491305 
L 122.669605 182.607907 
L 122.838096 182.356148 
L 123.84904 179.7334 
L 124.354512 179.527214 
L 124.691494 178.82214 
L 125.028475 178.174703 
L 125.196966 178.189197 
L 126.039419 179.164159 
L 126.3764 179.268763 
L 126.713382 179.605401 
L 127.387345 180.647058 
L 127.555835 180.507852 
L 127.892817 179.205634 
L 128.229798 177.698977 
L 128.398289 177.412712 
L 128.566779 177.455831 
L 128.903761 177.756159 
L 129.409233 177.711335 
L 129.746214 178.543602 
L 130.251686 179.921664 
L 130.588668 180.517788 
L 130.925649 181.871299 
L 131.26263 183.367282 
L 131.431121 183.722715 
L 131.599612 183.713348 
L 131.936593 182.81699 
L 132.273574 181.369278 
L 132.273574 181.369278 
" clip-path="url(#p2184461666)" style="fill: none; stroke: #4c72b0; stroke-linecap: square"/>
   </g>
   <g id="patch_15">
    <path d="M 13.563463 188.668 
L 137.926437 188.668 
" style="fill: none; stroke: #000000; stroke-width: 1.3; stroke-linejoin: miter; stroke-linecap: square"/>
   </g>
   <g id="text_24">
    <!-- (c) -->
    <g transform="translate(16.050722 157.357824)scale(0.1 -0.1)">
     <defs>
      <path id="DejaVuSans-Bold-63" d="M 3366 3391 
L 3366 2478 
Q 3138 2634 2908 2709 
Q 2678 2784 2431 2784 
Q 1963 2784 1702 2511 
Q 1441 2238 1441 1747 
Q 1441 1256 1702 982 
Q 1963 709 2431 709 
Q 2694 709 2930 787 
Q 3166 866 3366 1019 
L 3366 103 
Q 3103 6 2833 -42 
Q 2563 -91 2291 -91 
Q 1344 -91 809 395 
Q 275 881 275 1747 
Q 275 2613 809 3098 
Q 1344 3584 2291 3584 
Q 2566 3584 2833 3536 
Q 3100 3488 3366 3391 
z
" transform="scale(0.015625)"/>
     </defs>
     <use xlink:href="#DejaVuSans-Bold-28"/>
     <use xlink:href="#DejaVuSans-Bold-63" x="45.703125"/>
     <use xlink:href="#DejaVuSans-Bold-29" x="104.980469"/>
    </g>
   </g>
  </g>
  <g id="axes_8">
   <g id="patch_16">
    <path d="M 153.943537 188.668 
L 278.306511 188.668 
L 278.306511 148.965333 
L 153.943537 148.965333 
z
" style="fill: #ffffff"/>
   </g>
   <g id="matplotlib.axis_15">
    <g id="xtick_78">
     <g id="line2d_85">
      <g>
       <use xlink:href="#mc434f9660f" x="249.940079" y="188.668" style="stroke: #000000; stroke-width: 1.3"/>
      </g>
     </g>
     <g id="text_25">
      <!-- 4.5 -->
      <g transform="translate(241.988516 204.766437)scale(0.1 -0.1)">
       <use xlink:href="#DejaVuSans-34"/>
       <use xlink:href="#DejaVuSans-2e" x="63.623047"/>
       <use xlink:href="#DejaVuSans-35" x="95.410156"/>
      </g>
     </g>
    </g>
    <g id="xtick_79">
     <g id="line2d_86">
      <g>
       <use xlink:href="#mc434f9660f" x="193.386209" y="188.668" style="stroke: #000000; stroke-width: 1.3"/>
      </g>
     </g>
     <g id="text_26">
      <!-- 4.6 -->
      <g transform="translate(185.434647 204.766437)scale(0.1 -0.1)">
       <use xlink:href="#DejaVuSans-34"/>
       <use xlink:href="#DejaVuSans-2e" x="63.623047"/>
       <use xlink:href="#DejaVuSans-36" x="95.410156"/>
      </g>
     </g>
    </g>
    <g id="xtick_80">
     <g id="line2d_87">
      <g>
       <use xlink:href="#m2d0ea31135" x="272.561626" y="188.668" style="stroke: #000000; stroke-width: 1.3"/>
      </g>
     </g>
    </g>
    <g id="xtick_81">
     <g id="line2d_88">
      <g>
       <use xlink:href="#m2d0ea31135" x="261.250852" y="188.668" style="stroke: #000000; stroke-width: 1.3"/>
      </g>
     </g>
    </g>
    <g id="xtick_82">
     <g id="line2d_89">
      <g>
       <use xlink:href="#m2d0ea31135" x="238.629305" y="188.668" style="stroke: #000000; stroke-width: 1.3"/>
      </g>
     </g>
    </g>
    <g id="xtick_83">
     <g id="line2d_90">
      <g>
       <use xlink:href="#m2d0ea31135" x="227.318531" y="188.668" style="stroke: #000000; stroke-width: 1.3"/>
      </g>
     </g>
    </g>
    <g id="xtick_84">
     <g id="line2d_91">
      <g>
       <use xlink:href="#m2d0ea31135" x="216.007757" y="188.668" style="stroke: #000000; stroke-width: 1.3"/>
      </g>
     </g>
    </g>
    <g id="xtick_85">
     <g id="line2d_92">
      <g>
       <use xlink:href="#m2d0ea31135" x="204.696983" y="188.668" style="stroke: #000000; stroke-width: 1.3"/>
      </g>
     </g>
    </g>
    <g id="xtick_86">
     <g id="line2d_93">
      <g>
       <use xlink:href="#m2d0ea31135" x="182.075436" y="188.668" style="stroke: #000000; stroke-width: 1.3"/>
      </g>
     </g>
    </g>
    <g id="xtick_87">
     <g id="line2d_94">
      <g>
       <use xlink:href="#m2d0ea31135" x="170.764662" y="188.668" style="stroke: #000000; stroke-width: 1.3"/>
      </g>
     </g>
    </g>
    <g id="xtick_88">
     <g id="line2d_95">
      <g>
       <use xlink:href="#m2d0ea31135" x="159.453888" y="188.668" style="stroke: #000000; stroke-width: 1.3"/>
      </g>
     </g>
    </g>
    <g id="text_27">
     <!-- $^1$H (ppm) -->
     <g transform="translate(193.225024 219.846125)scale(0.1 -0.1)">
      <use xlink:href="#DejaVuSans-31" transform="translate(0.957031 38.965625)scale(0.7)"/>
      <use xlink:href="#DejaVuSans-48" transform="translate(48.227539 0.684375)"/>
      <use xlink:href="#DejaVuSans-20" transform="translate(123.422852 0.684375)"/>
      <use xlink:href="#DejaVuSans-28" transform="translate(155.209961 0.684375)"/>
      <use xlink:href="#DejaVuSans-70" transform="translate(194.223633 0.684375)"/>
      <use xlink:href="#DejaVuSans-70" transform="translate(257.700195 0.684375)"/>
      <use xlink:href="#DejaVuSans-6d" transform="translate(321.176758 0.684375)"/>
      <use xlink:href="#DejaVuSans-29" transform="translate(418.588867 0.684375)"/>
     </g>
    </g>
   </g>
   <g id="matplotlib.axis_16"/>
   <g id="line2d_96">
    <path d="M 159.596399 180.481279 
L 159.933381 179.239611 
L 160.438853 177.137095 
L 160.607344 176.800974 
L 160.775834 176.753484 
L 161.112816 177.289725 
L 161.618288 178.100714 
L 162.12376 178.712036 
L 163.303195 181.023737 
L 163.471685 181.068967 
L 163.808667 180.691749 
L 164.314139 179.8233 
L 164.482629 179.714314 
L 164.65112 179.762303 
L 164.988101 180.387768 
L 165.493573 181.672496 
L 165.662064 181.677702 
L 165.999045 180.963718 
L 166.336027 180.465371 
L 166.504518 180.634136 
L 167.17848 181.992834 
L 167.515462 181.991923 
L 167.852443 181.636243 
L 168.189424 180.781866 
L 168.694896 179.443703 
L 169.031878 179.231354 
L 169.368859 179.029573 
L 170.042822 178.189206 
L 170.548294 177.864385 
L 171.390747 176.387863 
L 171.559238 176.56351 
L 172.233201 178.312988 
L 172.401691 178.241485 
L 172.738673 176.966262 
L 173.244145 174.542717 
L 173.412636 174.39694 
L 173.581126 174.712373 
L 174.59207 178.59123 
L 175.097542 179.883938 
L 175.603014 181.233544 
L 175.771505 181.348342 
L 175.939996 181.273312 
L 176.276977 180.669071 
L 176.613959 179.465962 
L 177.287921 176.644495 
L 177.456412 176.548769 
L 177.624903 176.782698 
L 178.298865 178.450333 
L 178.635847 178.707458 
L 178.972828 178.725494 
L 179.30981 178.442509 
L 179.983772 177.440957 
L 180.152263 177.506051 
L 180.489244 178.34434 
L 180.994716 180.209328 
L 181.163207 180.464605 
L 181.331698 180.434718 
L 181.83717 179.774335 
L 182.511133 179.649867 
L 182.848114 179.122075 
L 183.016605 179.097419 
L 183.185095 179.414648 
L 183.690567 181.205428 
L 183.859058 181.305596 
L 184.027549 180.972902 
L 184.701511 178.527842 
L 184.870002 178.351858 
L 185.038493 178.394384 
L 185.880946 179.4198 
L 186.386418 179.135826 
L 186.554909 179.223894 
L 187.228872 180.187968 
L 187.397362 180.114568 
L 187.902834 179.235958 
L 188.239816 178.868417 
L 188.408306 178.915376 
L 188.913779 179.521933 
L 189.082269 179.475024 
L 189.419251 178.645138 
L 189.756232 177.685113 
L 189.924723 177.52264 
L 190.093213 177.589663 
L 190.598685 178.098369 
L 191.441139 178.448116 
L 191.77812 178.892963 
L 192.283592 179.805698 
L 192.452083 179.820026 
L 192.957555 179.195832 
L 193.126046 179.265293 
L 193.800008 180.253511 
L 194.30548 180.117555 
L 194.810952 180.355263 
L 194.979443 180.127978 
L 195.316424 179.111479 
L 196.327369 175.486152 
L 196.495859 175.696403 
L 197.001331 177.031735 
L 197.169822 177.116158 
L 197.506803 176.951819 
L 197.675294 176.99885 
L 198.180766 177.416331 
L 198.854729 177.179198 
L 199.360201 177.916611 
L 200.034164 178.73026 
L 200.202654 178.751659 
L 200.876617 178.46128 
L 201.213598 179.094128 
L 202.224543 181.671422 
L 202.393033 181.771534 
L 202.561524 181.622511 
L 203.235487 180.49516 
L 204.07794 179.611822 
L 204.583412 180.164717 
L 204.751903 179.945489 
L 205.425866 178.355588 
L 205.762847 177.991386 
L 206.6053 175.997851 
L 206.942282 176.029081 
L 207.279263 175.676214 
L 207.784735 174.840291 
L 207.953226 174.046911 
L 208.290207 170.783047 
L 209.132661 161.045075 
L 209.469642 158.732686 
L 209.638133 158.342497 
L 209.806623 158.770553 
L 210.143605 162.072683 
L 210.817567 170.362066 
L 211.154549 172.171233 
L 211.49153 172.736148 
L 211.828512 173.162231 
L 212.165493 174.228364 
L 212.502474 175.379921 
L 212.839456 175.787842 
L 213.176437 175.675049 
L 214.01889 175.24265 
L 214.187381 175.470719 
L 214.524362 176.62199 
L 215.029835 178.333328 
L 215.198325 178.387528 
L 215.366816 178.150592 
L 216.546251 175.292397 
L 217.051723 174.439911 
L 217.220213 174.388195 
L 217.894176 174.755068 
L 218.062667 174.395624 
L 218.399648 172.801511 
L 220.253046 159.789487 
L 220.590027 156.934867 
L 220.758518 156.602595 
L 220.927008 157.209588 
L 221.26399 160.633582 
L 222.106443 170.483072 
L 222.611915 173.971788 
L 222.948897 175.241211 
L 223.285878 175.699964 
L 223.622859 176.006096 
L 224.633804 177.594172 
L 225.476257 177.777281 
L 225.644748 178.082146 
L 225.981729 179.487222 
L 226.31871 181.114127 
L 226.487201 181.490392 
L 226.655692 181.492665 
L 226.992673 181.097561 
L 227.161164 181.123956 
L 227.835127 182.100168 
L 228.340599 182.047577 
L 228.67758 182.208724 
L 228.846071 182.12776 
L 229.183052 181.35598 
L 230.193996 177.811979 
L 230.362487 178.000978 
L 230.699468 179.51056 
L 231.03645 181.090813 
L 231.373431 181.617776 
L 231.710412 181.819608 
L 232.215884 182.315072 
L 233.058338 182.479928 
L 233.226828 182.117973 
L 234.069282 179.063186 
L 234.406263 179.977689 
L 234.743245 180.882275 
L 234.911735 180.987174 
L 235.080226 180.878681 
L 235.585698 179.964951 
L 236.259661 178.645704 
L 236.596642 178.401475 
L 237.270605 178.372367 
L 237.607586 177.934985 
L 237.944568 177.527514 
L 238.113058 177.579262 
L 238.45004 178.269621 
L 238.787021 179.026916 
L 238.955512 179.157613 
L 239.292493 178.992526 
L 239.460984 178.911556 
L 239.629474 178.969953 
L 239.966456 179.586256 
L 240.471928 180.680111 
L 240.640419 180.729757 
L 240.9774 180.279644 
L 241.482872 179.483702 
L 241.988344 179.410849 
L 242.493816 179.33428 
L 242.830797 179.549131 
L 243.336269 180.006492 
L 244.178723 180.245278 
L 244.515704 179.954475 
L 244.852686 179.555772 
L 245.021176 179.592736 
L 245.189667 179.900112 
L 246.03212 182.58786 
L 246.200611 182.540531 
L 246.537592 181.777409 
L 247.885518 177.607207 
L 248.39099 176.513599 
L 248.559481 176.561915 
L 248.896462 177.416499 
L 249.233443 178.29913 
L 249.401934 178.344212 
L 249.738915 177.716975 
L 250.075897 177.304907 
L 250.244388 177.485171 
L 250.74986 178.463348 
L 250.91835 178.484116 
L 251.592313 177.995844 
L 251.929294 178.488126 
L 252.434766 179.460288 
L 252.771748 179.685901 
L 252.940238 179.563004 
L 253.27722 178.859564 
L 253.614201 178.15203 
L 253.782692 178.086785 
L 254.119673 178.581136 
L 254.456655 179.132371 
L 254.793636 179.129445 
L 255.130617 179.030983 
L 255.636089 179.159494 
L 255.80458 179.013926 
L 256.141561 178.307349 
L 256.647034 177.283204 
L 256.815524 177.206791 
L 257.152506 177.428684 
L 257.489487 177.595282 
L 257.826468 177.150873 
L 258.16345 176.605846 
L 258.33194 176.601783 
L 258.668922 177.118045 
L 259.511375 178.849002 
L 260.016847 180.441478 
L 260.522319 180.793771 
L 260.859301 181.983011 
L 261.196282 183.077438 
L 261.364773 182.933551 
L 262.207226 179.920078 
L 262.544207 179.766929 
L 263.21817 179.112103 
L 263.555152 179.288078 
L 264.060624 179.848496 
L 264.566096 180.428718 
L 264.734586 180.312965 
L 265.071568 179.549589 
L 265.57704 178.449848 
L 266.082512 177.459765 
L 266.419493 176.749224 
L 266.756475 176.568302 
L 267.261947 176.794739 
L 267.430437 176.683796 
L 267.767419 176.028958 
L 268.1044 175.349044 
L 268.272891 175.322875 
L 268.441381 175.606536 
L 269.115344 177.702334 
L 269.620816 178.232502 
L 269.957798 179.411026 
L 270.294779 180.746289 
L 270.46327 181.027074 
L 270.63176 180.978404 
L 271.305723 179.967334 
L 271.642704 179.797026 
L 271.979686 179.241461 
L 272.653648 177.472613 
L 272.653648 177.472613 
" clip-path="url(#p453fa2bc62)" style="fill: none; stroke: #4c72b0; stroke-linecap: square"/>
   </g>
   <g id="patch_17">
    <path d="M 153.943537 188.668 
L 278.306511 188.668 
" style="fill: none; stroke: #000000; stroke-width: 1.3; stroke-linejoin: miter; stroke-linecap: square"/>
   </g>
  </g>
  <g id="axes_9">
   <g id="patch_18">
    <path d="M 294.323611 188.668 
L 418.686585 188.668 
L 418.686585 148.965333 
L 294.323611 148.965333 
z
" style="fill: #ffffff"/>
   </g>
   <g id="matplotlib.axis_17">
    <g id="xtick_89">
     <g id="line2d_97">
      <g>
       <use xlink:href="#mc434f9660f" x="390.300084" y="188.668" style="stroke: #000000; stroke-width: 1.3"/>
      </g>
     </g>
     <g id="text_28">
      <!-- 4.5 -->
      <g transform="translate(382.348521 204.766437)scale(0.1 -0.1)">
       <use xlink:href="#DejaVuSans-34"/>
       <use xlink:href="#DejaVuSans-2e" x="63.623047"/>
       <use xlink:href="#DejaVuSans-35" x="95.410156"/>
      </g>
     </g>
    </g>
    <g id="xtick_90">
     <g id="line2d_98">
      <g>
       <use xlink:href="#mc434f9660f" x="333.746215" y="188.668" style="stroke: #000000; stroke-width: 1.3"/>
      </g>
     </g>
     <g id="text_29">
      <!-- 4.6 -->
      <g transform="translate(325.794652 204.766437)scale(0.1 -0.1)">
       <use xlink:href="#DejaVuSans-34"/>
       <use xlink:href="#DejaVuSans-2e" x="63.623047"/>
       <use xlink:href="#DejaVuSans-36" x="95.410156"/>
      </g>
     </g>
    </g>
    <g id="xtick_91">
     <g id="line2d_99">
      <g>
       <use xlink:href="#m2d0ea31135" x="412.921631" y="188.668" style="stroke: #000000; stroke-width: 1.3"/>
      </g>
     </g>
    </g>
    <g id="xtick_92">
     <g id="line2d_100">
      <g>
       <use xlink:href="#m2d0ea31135" x="401.610858" y="188.668" style="stroke: #000000; stroke-width: 1.3"/>
      </g>
     </g>
    </g>
    <g id="xtick_93">
     <g id="line2d_101">
      <g>
       <use xlink:href="#m2d0ea31135" x="378.98931" y="188.668" style="stroke: #000000; stroke-width: 1.3"/>
      </g>
     </g>
    </g>
    <g id="xtick_94">
     <g id="line2d_102">
      <g>
       <use xlink:href="#m2d0ea31135" x="367.678536" y="188.668" style="stroke: #000000; stroke-width: 1.3"/>
      </g>
     </g>
    </g>
    <g id="xtick_95">
     <g id="line2d_103">
      <g>
       <use xlink:href="#m2d0ea31135" x="356.367762" y="188.668" style="stroke: #000000; stroke-width: 1.3"/>
      </g>
     </g>
    </g>
    <g id="xtick_96">
     <g id="line2d_104">
      <g>
       <use xlink:href="#m2d0ea31135" x="345.056988" y="188.668" style="stroke: #000000; stroke-width: 1.3"/>
      </g>
     </g>
    </g>
    <g id="xtick_97">
     <g id="line2d_105">
      <g>
       <use xlink:href="#m2d0ea31135" x="322.435441" y="188.668" style="stroke: #000000; stroke-width: 1.3"/>
      </g>
     </g>
    </g>
    <g id="xtick_98">
     <g id="line2d_106">
      <g>
       <use xlink:href="#m2d0ea31135" x="311.124667" y="188.668" style="stroke: #000000; stroke-width: 1.3"/>
      </g>
     </g>
    </g>
    <g id="xtick_99">
     <g id="line2d_107">
      <g>
       <use xlink:href="#m2d0ea31135" x="299.813893" y="188.668" style="stroke: #000000; stroke-width: 1.3"/>
      </g>
     </g>
    </g>
    <g id="text_30">
     <!-- $^1$H (ppm) -->
     <g transform="translate(333.605098 219.846125)scale(0.1 -0.1)">
      <use xlink:href="#DejaVuSans-31" transform="translate(0.957031 38.965625)scale(0.7)"/>
      <use xlink:href="#DejaVuSans-48" transform="translate(48.227539 0.684375)"/>
      <use xlink:href="#DejaVuSans-20" transform="translate(123.422852 0.684375)"/>
      <use xlink:href="#DejaVuSans-28" transform="translate(155.209961 0.684375)"/>
      <use xlink:href="#DejaVuSans-70" transform="translate(194.223633 0.684375)"/>
      <use xlink:href="#DejaVuSans-70" transform="translate(257.700195 0.684375)"/>
      <use xlink:href="#DejaVuSans-6d" transform="translate(321.176758 0.684375)"/>
      <use xlink:href="#DejaVuSans-29" transform="translate(418.588867 0.684375)"/>
     </g>
    </g>
   </g>
   <g id="matplotlib.axis_18"/>
   <g id="line2d_108">
    <path d="M 299.976474 178.052498 
L 301.155908 180.394691 
L 301.66138 182.047174 
L 302.672324 184.086222 
L 302.840815 184.009492 
L 303.346287 183.350277 
L 303.851759 183.092172 
L 304.525722 181.721733 
L 304.694213 181.802602 
L 305.031194 182.69677 
L 305.368175 183.699523 
L 305.705157 184.051266 
L 306.042138 183.807633 
L 306.716101 182.778955 
L 307.053082 181.908481 
L 307.895536 179.04113 
L 308.064026 179.095063 
L 308.401008 180.151095 
L 308.90648 181.94355 
L 309.07497 182.103567 
L 309.580443 182.138205 
L 309.917424 182.828357 
L 310.928368 185.727777 
L 311.096859 185.835616 
L 311.265349 185.655507 
L 311.602331 184.574374 
L 311.939312 183.509127 
L 312.276293 183.218717 
L 312.613275 183.079076 
L 312.950256 182.489118 
L 313.624219 181.218687 
L 314.298182 180.220007 
L 314.972144 179.98186 
L 315.140635 179.979668 
L 315.309126 180.125505 
L 315.646107 180.953124 
L 315.983089 181.698309 
L 316.151579 181.652508 
L 316.488561 180.808136 
L 316.825542 180.048188 
L 317.162523 179.936015 
L 317.499505 180.0831 
L 317.667995 180.321641 
L 318.004977 181.494357 
L 318.341958 182.913092 
L 318.510449 183.173804 
L 318.678939 183.004757 
L 319.184412 181.752577 
L 319.352902 181.756231 
L 319.858374 182.403626 
L 320.195356 182.375531 
L 320.869318 182.276652 
L 321.711772 181.231438 
L 322.048753 181.882681 
L 322.554225 182.952891 
L 322.891207 183.368429 
L 323.73366 183.89649 
L 324.070641 184.386769 
L 324.239132 184.420705 
L 324.407623 184.160693 
L 324.744604 182.815929 
L 325.250076 180.900614 
L 325.418567 180.791438 
L 325.587058 180.944614 
L 326.26102 182.470109 
L 327.271964 184.874053 
L 327.440455 184.749342 
L 327.945927 183.947234 
L 328.114418 183.933451 
L 328.956871 184.659671 
L 329.799325 184.12103 
L 330.304797 184.495174 
L 330.473287 184.401275 
L 330.810269 183.473318 
L 331.484231 181.074704 
L 331.989704 180.009695 
L 332.158194 179.831146 
L 332.326685 179.832001 
L 333.000648 180.352673 
L 333.337629 180.279191 
L 333.50612 180.440224 
L 334.180082 181.700935 
L 334.348573 181.610795 
L 334.854045 181.000926 
L 335.022536 180.998491 
L 335.359517 181.391709 
L 335.864989 182.758671 
L 336.201971 183.415992 
L 336.370461 183.322363 
L 336.707443 182.225386 
L 337.381405 179.530086 
L 337.718387 179.177225 
L 338.055368 179.416893 
L 338.39235 179.6279 
L 338.729331 179.390455 
L 339.234803 178.900978 
L 339.571784 178.930148 
L 339.908766 179.331398 
L 340.414238 180.314794 
L 340.582728 180.397907 
L 340.751219 180.254812 
L 341.256691 179.38263 
L 341.930654 178.989657 
L 342.267635 178.41033 
L 342.436126 178.343071 
L 342.604617 178.60192 
L 343.278579 180.927859 
L 343.44707 180.969879 
L 343.784051 180.340812 
L 344.121033 179.721757 
L 344.458014 179.567407 
L 344.794996 179.50879 
L 345.131977 179.222915 
L 345.468958 178.436041 
L 346.311412 175.28062 
L 346.479902 175.400286 
L 347.322356 177.681317 
L 347.490846 177.710224 
L 347.659337 177.567044 
L 347.996319 176.787003 
L 348.3333 175.265867 
L 348.670281 172.844428 
L 349.175753 167.078666 
L 349.681225 161.504856 
L 349.849716 160.841612 
L 350.018207 160.993143 
L 350.355188 163.349185 
L 351.366132 173.616929 
L 352.208586 178.435377 
L 352.545567 179.299121 
L 353.051039 179.621664 
L 353.556511 180.771048 
L 353.725002 180.800082 
L 354.061983 180.034491 
L 354.398965 179.187941 
L 354.735946 178.977112 
L 355.072927 178.903067 
L 355.409909 178.457154 
L 355.915381 177.500721 
L 356.083871 177.405479 
L 356.252362 177.51405 
L 356.757834 178.27529 
L 356.926325 178.255665 
L 357.263306 177.682564 
L 358.779722 174.32789 
L 359.285194 172.797025 
L 359.959157 170.011101 
L 360.464629 166.886585 
L 360.80161 164.83754 
L 360.970101 164.308848 
L 361.138592 164.288729 
L 361.307083 164.832551 
L 361.644064 167.491311 
L 362.318027 174.512244 
L 362.655008 176.318964 
L 363.497461 179.145762 
L 364.002933 179.913185 
L 364.508406 180.484405 
L 365.013878 180.726714 
L 365.350859 181.580363 
L 365.68784 182.309778 
L 365.856331 182.234008 
L 366.361803 181.297038 
L 366.530294 181.338553 
L 367.035766 181.892702 
L 367.204256 181.754681 
L 367.878219 180.706773 
L 368.383691 180.466078 
L 368.552182 180.503962 
L 368.889163 180.959513 
L 369.394635 181.741814 
L 369.731617 181.675471 
L 370.068598 181.584406 
L 370.405579 181.833946 
L 370.742561 182.136879 
L 371.079542 182.149434 
L 371.585014 181.731809 
L 372.427468 180.625359 
L 372.595958 180.680451 
L 373.438412 181.635564 
L 373.943884 181.459936 
L 374.617847 181.711503 
L 374.954828 181.330164 
L 375.628791 180.057546 
L 375.797281 180.122466 
L 376.134263 181.005852 
L 376.471244 182.002102 
L 376.639735 182.144551 
L 376.808225 182.000434 
L 377.81917 180.166195 
L 378.156151 179.876012 
L 378.493132 180.049581 
L 378.830114 180.372394 
L 379.504076 180.59113 
L 380.34653 181.535692 
L 380.683511 181.455174 
L 381.020493 180.874683 
L 381.525965 179.511193 
L 381.862946 179.273201 
L 382.031437 179.273794 
L 382.199927 179.159162 
L 382.536909 178.345385 
L 382.87389 177.482638 
L 383.042381 177.45721 
L 383.210871 177.798752 
L 383.716344 180.108555 
L 384.053325 181.350712 
L 384.221816 181.574602 
L 384.390306 181.486734 
L 384.727288 180.602222 
L 385.064269 179.725625 
L 385.23276 179.665839 
L 385.40125 179.925919 
L 386.243704 182.117502 
L 386.580685 182.006425 
L 386.917667 181.614635 
L 387.254648 180.825228 
L 388.097101 178.130286 
L 388.265592 178.241343 
L 388.771064 179.562508 
L 389.108045 180.173657 
L 389.276536 180.242771 
L 389.445027 180.148378 
L 389.782008 179.469693 
L 390.624462 176.69111 
L 390.792952 176.548798 
L 390.961443 176.638378 
L 391.803896 177.932903 
L 392.309368 178.156915 
L 393.657294 180.13221 
L 394.162766 181.589329 
L 394.331257 181.764519 
L 394.499747 181.726703 
L 395.005219 181.308541 
L 395.510691 181.250562 
L 395.847673 180.795778 
L 396.184654 180.226334 
L 396.353145 180.133466 
L 396.521636 180.237799 
L 397.364089 181.389713 
L 398.038052 181.088833 
L 398.543524 181.08167 
L 398.880505 180.747439 
L 399.385977 179.790948 
L 399.891449 178.644235 
L 400.05994 178.469237 
L 400.228431 178.477505 
L 401.070884 179.407049 
L 401.407865 179.844596 
L 403.092772 182.955252 
L 403.429754 183.084845 
L 403.766735 182.942103 
L 404.103716 182.554577 
L 404.94617 181.244317 
L 405.451642 180.754762 
L 406.631077 179.33959 
L 406.799567 179.278395 
L 406.968058 179.375998 
L 407.642021 180.24577 
L 408.315983 180.371535 
L 408.652965 180.555911 
L 408.989946 180.517281 
L 409.495418 180.264037 
L 409.8324 179.690762 
L 410.337872 178.622975 
L 410.506362 178.618592 
L 410.843344 179.15055 
L 411.517306 180.408748 
L 411.854288 180.716152 
L 412.022778 180.647514 
L 412.528251 180.153702 
L 412.696741 180.330469 
L 413.033723 181.239954 
L 413.033723 181.239954 
" clip-path="url(#p6915919081)" style="fill: none; stroke: #4c72b0; stroke-linecap: square"/>
   </g>
   <g id="patch_19">
    <path d="M 294.323611 188.668 
L 418.686585 188.668 
" style="fill: none; stroke: #000000; stroke-width: 1.3; stroke-linejoin: miter; stroke-linecap: square"/>
   </g>
  </g>
 </g>
 <defs>
  <clipPath id="p08390c3c36">
   <rect x="13.563463" y="10.8" width="124.362974" height="39.702667"/>
  </clipPath>
  <clipPath id="p651acb1c19">
   <rect x="153.943537" y="10.8" width="124.362974" height="39.702667"/>
  </clipPath>
  <clipPath id="p33cf433bce">
   <rect x="294.323611" y="10.8" width="124.362974" height="39.702667"/>
  </clipPath>
  <clipPath id="pe6dc26d9f9">
   <rect x="13.563463" y="79.882667" width="124.362974" height="39.702667"/>
  </clipPath>
  <clipPath id="pd1022949d5">
   <rect x="153.943537" y="79.882667" width="124.362974" height="39.702667"/>
  </clipPath>
  <clipPath id="pa48ad0535b">
   <rect x="294.323611" y="79.882667" width="124.362974" height="39.702667"/>
  </clipPath>
  <clipPath id="p2184461666">
   <rect x="13.563463" y="148.965333" width="124.362974" height="39.702667"/>
  </clipPath>
  <clipPath id="p453fa2bc62">
   <rect x="153.943537" y="148.965333" width="124.362974" height="39.702667"/>
  </clipPath>
  <clipPath id="p6915919081">
   <rect x="294.323611" y="148.965333" width="124.362974" height="39.702667"/>
  </clipPath>
 </defs>
</svg>
